M48
;DRILL file {KiCad (2015-07-11 BZR 5925, Git c291b88)-product} date 2015/07/24 0:21:13
;FORMAT={-:-/ absolute / metric / decimal}
FMAT,2
METRIC,TZ
T1C0.700
T2C0.762
T3C0.800
T4C0.900
T5C1.000
T6C1.001
T7C1.270
T8C1.300
T9C1.500
T10C1.501
%
G90
G05
M71
T1
X153.035Y-97.663
X153.035Y-100.203
X153.035Y-102.743
T2
X128.19Y-106.19
X128.19Y-113.81
X130.73Y-106.19
X130.73Y-113.81
X133.27Y-106.19
X133.27Y-113.81
X135.81Y-106.19
X135.81Y-113.81
T3
X115.Y-109.
X115.Y-114.
X137.922Y-115.252
X139.891Y-122.174
X139.954Y-113.792
X143.51Y-132.143
X144.145Y-106.553
X147.383Y-90.043
X151.575Y-133.35
X152.383Y-90.043
X153.797Y-132.334
X158.Y-95.5
X158.Y-98.
X159.957Y-102.743
X160.083Y-90.932
X161.671Y-132.398
X162.115Y-90.995
X164.02Y-98.615
X165.163Y-97.409
X180.022Y-123.952
X183.134Y-105.6
X185.23Y-112.966
X186.182Y-106.362
X192.214Y-106.362
T4
X130.5Y-123.
X135.5Y-123.
T5
X136.906Y-82.105
X136.906Y-87.185
X139.446Y-82.105
X139.446Y-87.185
X141.986Y-82.105
X141.986Y-87.185
T6
X123.5Y-105.92
X123.5Y-116.08
X130.5Y-118.5
X135.509Y-93.281
X135.509Y-103.441
X138.557Y-91.376
X138.938Y-97.409
X138.938Y-100.33
X138.938Y-103.251
X149.098Y-97.409
X149.098Y-100.33
X149.098Y-103.251
T7
X126.69Y-118.5
X142.367Y-91.376
T8
X117.69Y-129.
X120.23Y-129.
X122.77Y-129.
X125.31Y-129.
X132.19Y-129.
X134.73Y-129.
X137.27Y-129.
X139.81Y-129.
X157.48Y-83.947
X160.02Y-83.947
X162.Y-116.92
X162.Y-119.46
X162.Y-122.
X162.Y-124.54
X162.Y-127.08
X162.56Y-83.947
X169.69Y-129.
X171.196Y-88.011
X171.196Y-90.551
X171.196Y-93.091
X171.196Y-95.631
X171.196Y-98.171
X172.23Y-129.
X174.77Y-129.
X177.31Y-129.
X184.15Y-83.883
X184.19Y-129.
X186.69Y-83.883
X186.73Y-129.
X189.23Y-83.883
X189.27Y-129.
X191.81Y-129.
T9
X128.5Y-92.08
X128.5Y-100.
X181.356Y-92.71
X181.356Y-100.63
T10
X112.395Y-82.296
X112.395Y-137.541
X197.739Y-82.296
X197.739Y-137.541
T0
M30
