G04 #@! TF.FileFunction,Copper,L2,Bot,Signal*
%FSLAX46Y46*%
G04 Gerber Fmt 4.6, Leading zero omitted, Abs format (unit mm)*
G04 Created by KiCad (PCBNEW (2015-07-11 BZR 5925, Git c291b88)-product) date 2015/07/24 0:21:19*
%MOMM*%
G01*
G04 APERTURE LIST*
%ADD10C,0.100000*%
%ADD11R,0.750000X0.800000*%
%ADD12R,0.800000X0.750000*%
%ADD13R,1.250000X1.000000*%
%ADD14R,1.400000X1.400000*%
%ADD15C,1.400000*%
%ADD16R,1.000000X1.250000*%
%ADD17C,3.000000*%
%ADD18C,1.998980*%
%ADD19C,2.000000*%
%ADD20C,1.905000*%
%ADD21R,0.300000X1.500000*%
%ADD22R,1.500000X0.300000*%
%ADD23R,2.100580X5.600700*%
%ADD24R,5.600700X2.100580*%
%ADD25O,2.000000X1.500000*%
%ADD26R,1.300000X1.300000*%
%ADD27C,1.300000*%
%ADD28R,1.998980X1.998980*%
%ADD29C,4.000500*%
%ADD30R,3.800000X2.500000*%
%ADD31R,1.400000X0.500000*%
%ADD32C,0.250000*%
%ADD33C,0.500000*%
%ADD34C,1.000000*%
%ADD35C,0.254000*%
G04 APERTURE END LIST*
D10*
D11*
X158051500Y-109676500D03*
X158051500Y-111176500D03*
D12*
X162040000Y-110236000D03*
X160540000Y-110236000D03*
D11*
X180500000Y-118750000D03*
X180500000Y-120250000D03*
D13*
X173500000Y-121000000D03*
X173500000Y-123000000D03*
D11*
X165862000Y-119773000D03*
X165862000Y-121273000D03*
X170500000Y-121250000D03*
X170500000Y-122750000D03*
D14*
X135500000Y-123000000D03*
D15*
X130500000Y-123000000D03*
D12*
X182480000Y-107350000D03*
X183980000Y-107350000D03*
D16*
X183200000Y-109700000D03*
X185200000Y-109700000D03*
D12*
X189281500Y-103251000D03*
X187781500Y-103251000D03*
X189305500Y-123761500D03*
X190805500Y-123761500D03*
D11*
X162000000Y-101000000D03*
X162000000Y-99500000D03*
X152019000Y-130187000D03*
X152019000Y-131687000D03*
X148971000Y-106882500D03*
X148971000Y-108382500D03*
D13*
X149606000Y-130318000D03*
X149606000Y-132318000D03*
D11*
X154170000Y-135530000D03*
X154170000Y-134030000D03*
X134800000Y-135550000D03*
X134800000Y-134050000D03*
X144500000Y-128750000D03*
X144500000Y-130250000D03*
D16*
X139890000Y-119580000D03*
X137890000Y-119580000D03*
D12*
X140470000Y-112000000D03*
X138970000Y-112000000D03*
X139670000Y-116980000D03*
X138170000Y-116980000D03*
D11*
X156020000Y-102540000D03*
X156020000Y-101040000D03*
D12*
X184289000Y-102743000D03*
X185789000Y-102743000D03*
D11*
X159060000Y-126620000D03*
X159060000Y-128120000D03*
D17*
X128500000Y-100000000D03*
X128500000Y-92080000D03*
D18*
X149098000Y-100330000D03*
X138938000Y-100330000D03*
X149098000Y-97409000D03*
X138938000Y-97409000D03*
X123500000Y-105920000D03*
X123500000Y-116080000D03*
D19*
X141986000Y-82105500D03*
X139446000Y-82105500D03*
X136906000Y-82105500D03*
X136906000Y-87185500D03*
X139446000Y-87185500D03*
X141986000Y-87185500D03*
D20*
X128190000Y-113810000D03*
X130730000Y-113810000D03*
X133270000Y-113810000D03*
X135810000Y-113810000D03*
X135810000Y-106190000D03*
X133270000Y-106190000D03*
X130730000Y-106190000D03*
X128190000Y-106190000D03*
D21*
X166000000Y-101300000D03*
X166500000Y-101300000D03*
X167000000Y-101300000D03*
X167500000Y-101300000D03*
X168000000Y-101300000D03*
X168500000Y-101300000D03*
X169000000Y-101300000D03*
X169500000Y-101300000D03*
X170000000Y-101300000D03*
X170500000Y-101300000D03*
X171000000Y-101300000D03*
X171500000Y-101300000D03*
X172000000Y-101300000D03*
X172500000Y-101300000D03*
X173000000Y-101300000D03*
X173500000Y-101300000D03*
X174000000Y-101300000D03*
X174500000Y-101300000D03*
X175000000Y-101300000D03*
X175500000Y-101300000D03*
X176000000Y-101300000D03*
X176500000Y-101300000D03*
X177000000Y-101300000D03*
X177500000Y-101300000D03*
X178000000Y-101300000D03*
D22*
X179700000Y-103000000D03*
X179700000Y-103500000D03*
X179700000Y-104000000D03*
X179700000Y-104500000D03*
X179700000Y-105000000D03*
X179700000Y-105500000D03*
X179700000Y-106000000D03*
X179700000Y-106500000D03*
X179700000Y-107000000D03*
X179700000Y-107500000D03*
X179700000Y-108000000D03*
X179700000Y-108500000D03*
X179700000Y-109000000D03*
X179700000Y-109500000D03*
X179700000Y-110000000D03*
X179700000Y-110500000D03*
X179700000Y-111000000D03*
X179700000Y-111500000D03*
X179700000Y-112000000D03*
X179700000Y-112500000D03*
X179700000Y-113000000D03*
X179700000Y-113500000D03*
X179700000Y-114000000D03*
X179700000Y-114500000D03*
X179700000Y-115000000D03*
D21*
X178000000Y-116700000D03*
X177500000Y-116700000D03*
X177000000Y-116700000D03*
X176500000Y-116700000D03*
X176000000Y-116700000D03*
X175500000Y-116700000D03*
X175000000Y-116700000D03*
X174500000Y-116700000D03*
X174000000Y-116700000D03*
X173500000Y-116700000D03*
X173000000Y-116700000D03*
X172500000Y-116700000D03*
X172000000Y-116700000D03*
X171500000Y-116700000D03*
X171000000Y-116700000D03*
X170500000Y-116700000D03*
X170000000Y-116700000D03*
X169500000Y-116700000D03*
X169000000Y-116700000D03*
X168500000Y-116700000D03*
X168000000Y-116700000D03*
X167500000Y-116700000D03*
X167000000Y-116700000D03*
X166500000Y-116700000D03*
X166000000Y-116700000D03*
D22*
X164300000Y-115000000D03*
X164300000Y-114500000D03*
X164300000Y-114000000D03*
X164300000Y-113500000D03*
X164300000Y-113000000D03*
X164300000Y-112500000D03*
X164300000Y-112000000D03*
X164300000Y-111500000D03*
X164300000Y-111000000D03*
X164300000Y-110500000D03*
X164300000Y-110000000D03*
X164300000Y-109500000D03*
X164300000Y-109000000D03*
X164300000Y-108500000D03*
X164300000Y-108000000D03*
X164300000Y-107500000D03*
X164300000Y-107000000D03*
X164300000Y-106500000D03*
X164300000Y-106000000D03*
X164300000Y-105500000D03*
X164300000Y-105000000D03*
X164300000Y-104500000D03*
X164300000Y-104000000D03*
X164300000Y-103500000D03*
X164300000Y-103000000D03*
X157970000Y-112610000D03*
X157970000Y-113110000D03*
X157970000Y-113610000D03*
X157970000Y-114110000D03*
X157970000Y-114610000D03*
X157970000Y-115110000D03*
X157970000Y-115610000D03*
X157970000Y-116110000D03*
X157970000Y-116610000D03*
X157970000Y-117110000D03*
X157970000Y-117610000D03*
X157970000Y-118110000D03*
X157970000Y-118610000D03*
X157970000Y-119110000D03*
X157970000Y-119610000D03*
X157970000Y-120110000D03*
X157970000Y-120610000D03*
X157970000Y-121110000D03*
X157970000Y-121610000D03*
X157970000Y-122110000D03*
X157970000Y-122610000D03*
X157970000Y-123110000D03*
X157970000Y-123610000D03*
X157970000Y-124110000D03*
X157970000Y-124610000D03*
D21*
X156270000Y-126310000D03*
X155770000Y-126310000D03*
X155270000Y-126310000D03*
X154770000Y-126310000D03*
X154270000Y-126310000D03*
X153770000Y-126310000D03*
X153270000Y-126310000D03*
X152770000Y-126310000D03*
X152270000Y-126310000D03*
X151770000Y-126310000D03*
X151270000Y-126310000D03*
X150770000Y-126310000D03*
X150270000Y-126310000D03*
X149770000Y-126310000D03*
X149270000Y-126310000D03*
X148770000Y-126310000D03*
X148270000Y-126310000D03*
X147770000Y-126310000D03*
X147270000Y-126310000D03*
X146770000Y-126310000D03*
X146270000Y-126310000D03*
X145770000Y-126310000D03*
X145270000Y-126310000D03*
X144770000Y-126310000D03*
X144270000Y-126310000D03*
D22*
X142570000Y-124610000D03*
X142570000Y-124110000D03*
X142570000Y-123610000D03*
X142570000Y-123110000D03*
X142570000Y-122610000D03*
X142570000Y-122110000D03*
X142570000Y-121610000D03*
X142570000Y-121110000D03*
X142570000Y-120610000D03*
X142570000Y-120110000D03*
X142570000Y-119610000D03*
X142570000Y-119110000D03*
X142570000Y-118610000D03*
X142570000Y-118110000D03*
X142570000Y-117610000D03*
X142570000Y-117110000D03*
X142570000Y-116610000D03*
X142570000Y-116110000D03*
X142570000Y-115610000D03*
X142570000Y-115110000D03*
X142570000Y-114610000D03*
X142570000Y-114110000D03*
X142570000Y-113610000D03*
X142570000Y-113110000D03*
X142570000Y-112610000D03*
D21*
X144270000Y-110910000D03*
X144770000Y-110910000D03*
X145270000Y-110910000D03*
X145770000Y-110910000D03*
X146270000Y-110910000D03*
X146770000Y-110910000D03*
X147270000Y-110910000D03*
X147770000Y-110910000D03*
X148270000Y-110910000D03*
X148770000Y-110910000D03*
X149270000Y-110910000D03*
X149770000Y-110910000D03*
X150270000Y-110910000D03*
X150770000Y-110910000D03*
X151270000Y-110910000D03*
X151770000Y-110910000D03*
X152270000Y-110910000D03*
X152770000Y-110910000D03*
X153270000Y-110910000D03*
X153770000Y-110910000D03*
X154270000Y-110910000D03*
X154770000Y-110910000D03*
X155270000Y-110910000D03*
X155770000Y-110910000D03*
X156270000Y-110910000D03*
D23*
X189484000Y-118069360D03*
X189484000Y-108371640D03*
D24*
X139550140Y-135763000D03*
X149247860Y-135763000D03*
D19*
X171196000Y-88011000D03*
X171196000Y-90551000D03*
X171196000Y-93091000D03*
X171196000Y-95631000D03*
X171196000Y-98171000D03*
X162000000Y-127080000D03*
X162000000Y-124540000D03*
X162000000Y-122000000D03*
X162000000Y-119460000D03*
X162000000Y-116920000D03*
X191810000Y-129000000D03*
X189270000Y-129000000D03*
X186730000Y-129000000D03*
X184190000Y-129000000D03*
X177310000Y-129000000D03*
X174770000Y-129000000D03*
X172230000Y-129000000D03*
X169690000Y-129000000D03*
X139810000Y-129000000D03*
X137270000Y-129000000D03*
X134730000Y-129000000D03*
X132190000Y-129000000D03*
X125310000Y-129000000D03*
X122770000Y-129000000D03*
X120230000Y-129000000D03*
X117690000Y-129000000D03*
D25*
X153035000Y-102743000D03*
X153035000Y-97663000D03*
X153035000Y-100203000D03*
D26*
X158000000Y-98000000D03*
D27*
X158000000Y-95500000D03*
D26*
X147383500Y-90043000D03*
D27*
X152383500Y-90043000D03*
D26*
X115000000Y-109000000D03*
D27*
X115000000Y-114000000D03*
D17*
X181356000Y-92710000D03*
X181356000Y-100630000D03*
D18*
X149098000Y-103251000D03*
X138938000Y-103251000D03*
X126690000Y-118500000D03*
D28*
X130500000Y-118500000D03*
D18*
X142367000Y-91376500D03*
D28*
X138557000Y-91376500D03*
D18*
X135509000Y-93281500D03*
X135509000Y-103441500D03*
D29*
X112395000Y-137541000D03*
X112395000Y-82296000D03*
X197739000Y-82296000D03*
X197739000Y-137541000D03*
D30*
X195948000Y-108893500D03*
X195948000Y-117293500D03*
D31*
X193548000Y-113093500D03*
X193548000Y-112293500D03*
X193548000Y-113893500D03*
X193548000Y-111493500D03*
X193548000Y-114693500D03*
D19*
X162560000Y-83947000D03*
X160020000Y-83947000D03*
X157480000Y-83947000D03*
X189230000Y-83883500D03*
X186690000Y-83883500D03*
X184150000Y-83883500D03*
D15*
X139954000Y-113792000D03*
X137922000Y-115252500D03*
X161671000Y-132397500D03*
X153797000Y-132334000D03*
X143510000Y-132143500D03*
X151574500Y-133350000D03*
X139890500Y-122174000D03*
X144145000Y-106553000D03*
X180022500Y-123952000D03*
X159956500Y-102743000D03*
X185229500Y-112966500D03*
X183134000Y-105600500D03*
X192214500Y-106362500D03*
X186182000Y-106362500D03*
X165163500Y-97409000D03*
X162115500Y-90995500D03*
X160083500Y-90932000D03*
X164020500Y-98615500D03*
D32*
X179700000Y-103000000D02*
X184032000Y-103000000D01*
X184032000Y-103000000D02*
X184289000Y-102743000D01*
X166000000Y-116700000D02*
X166000000Y-115368500D01*
X176976000Y-115000000D02*
X179700000Y-115000000D01*
X176593500Y-114617500D02*
X176976000Y-115000000D01*
X166751000Y-114617500D02*
X176593500Y-114617500D01*
X166000000Y-115368500D02*
X166751000Y-114617500D01*
X142570000Y-117610000D02*
X143772000Y-117610000D01*
X144270000Y-118108000D02*
X144270000Y-126310000D01*
X143772000Y-117610000D02*
X144270000Y-118108000D01*
X140470000Y-112000000D02*
X140470000Y-110736000D01*
X147689000Y-106882500D02*
X148971000Y-106882500D01*
X146494500Y-108077000D02*
X147689000Y-106882500D01*
X143129000Y-108077000D02*
X146494500Y-108077000D01*
X140470000Y-110736000D02*
X143129000Y-108077000D01*
X150270000Y-110910000D02*
X150270000Y-107852000D01*
X150270000Y-107852000D02*
X149300500Y-106882500D01*
X149300500Y-106882500D02*
X148971000Y-106882500D01*
X162040000Y-110236000D02*
X162040000Y-116880000D01*
X162040000Y-116880000D02*
X162000000Y-116920000D01*
X162040000Y-110236000D02*
X162040000Y-109000000D01*
X162115500Y-109093000D02*
X162115500Y-109000000D01*
X162115500Y-109075500D02*
X162115500Y-109093000D01*
X162040000Y-109000000D02*
X162115500Y-109075500D01*
X150270000Y-110910000D02*
X150270000Y-112424000D01*
X150622000Y-112776000D02*
X156270000Y-112776000D01*
X150270000Y-112424000D02*
X150622000Y-112776000D01*
X156270000Y-110910000D02*
X156270000Y-112776000D01*
X156270000Y-112776000D02*
X156270000Y-113351000D01*
X156270000Y-113351000D02*
X155130500Y-114490500D01*
X155130500Y-114490500D02*
X155130500Y-119126000D01*
X155130500Y-119126000D02*
X156270000Y-120265500D01*
X156270000Y-120265500D02*
X156270000Y-126310000D01*
X179700000Y-103000000D02*
X174368000Y-103000000D01*
X173736000Y-103632000D02*
X166116000Y-103632000D01*
X174368000Y-103000000D02*
X173736000Y-103632000D01*
X164300000Y-109000000D02*
X162115500Y-109000000D01*
X162115500Y-109000000D02*
X158728000Y-109000000D01*
X158728000Y-109000000D02*
X158051500Y-109676500D01*
X156270000Y-110910000D02*
X156270000Y-109788000D01*
X156270000Y-109788000D02*
X156381500Y-109676500D01*
X156381500Y-109676500D02*
X158051500Y-109676500D01*
X139670000Y-116980000D02*
X139649500Y-116980000D01*
X139649500Y-116980000D02*
X137922000Y-115252500D01*
X140470000Y-113276000D02*
X140470000Y-112000000D01*
X139954000Y-113792000D02*
X140470000Y-113276000D01*
D33*
X171196000Y-98171000D02*
X169926000Y-98171000D01*
X162223000Y-98000000D02*
X158000000Y-98000000D01*
X169926000Y-98171000D02*
X167767000Y-96012000D01*
X167767000Y-96012000D02*
X164211000Y-96012000D01*
X164211000Y-96012000D02*
X162223000Y-98000000D01*
D32*
X165862000Y-119773000D02*
X171000000Y-119773000D01*
X171005500Y-119570500D02*
X171000000Y-119570500D01*
X171005500Y-119767500D02*
X171005500Y-119570500D01*
X171000000Y-119773000D02*
X171005500Y-119767500D01*
X156270000Y-110910000D02*
X156337000Y-110977000D01*
X139670000Y-116980000D02*
X139670000Y-116937000D01*
X164300000Y-109000000D02*
X165701000Y-109000000D01*
X165701000Y-109000000D02*
X166116000Y-108585000D01*
X166116000Y-108585000D02*
X166116000Y-103632000D01*
X165484000Y-103000000D02*
X164300000Y-103000000D01*
X166116000Y-103632000D02*
X165484000Y-103000000D01*
X162000000Y-116920000D02*
X165780000Y-116920000D01*
X165780000Y-116920000D02*
X166000000Y-116700000D01*
X180500000Y-118750000D02*
X180500000Y-115800000D01*
X180500000Y-115800000D02*
X179700000Y-115000000D01*
X158000000Y-98000000D02*
X159000000Y-98000000D01*
X159000000Y-98000000D02*
X162000000Y-101000000D01*
D33*
X153035000Y-97663000D02*
X157663000Y-97663000D01*
D32*
X157663000Y-97663000D02*
X158000000Y-98000000D01*
X164300000Y-103000000D02*
X164000000Y-103000000D01*
X164000000Y-103000000D02*
X162000000Y-101000000D01*
X166000000Y-116700000D02*
X165862000Y-116838000D01*
X165862000Y-116838000D02*
X165862000Y-119773000D01*
X171000000Y-116700000D02*
X171000000Y-119570500D01*
X171000000Y-119570500D02*
X171000000Y-120750000D01*
X171000000Y-120750000D02*
X170500000Y-121250000D01*
X144270000Y-126310000D02*
X144270000Y-128520000D01*
X144270000Y-128520000D02*
X144500000Y-128750000D01*
X159060000Y-126620000D02*
X156580000Y-126620000D01*
X156580000Y-126620000D02*
X156270000Y-126310000D01*
X142570000Y-117610000D02*
X140300000Y-117610000D01*
X140300000Y-117610000D02*
X139670000Y-116980000D01*
X142570000Y-112610000D02*
X141080000Y-112610000D01*
X141080000Y-112610000D02*
X140470000Y-112000000D01*
X153035000Y-100203000D02*
X149225000Y-100203000D01*
X149770000Y-110910000D02*
X149770000Y-122782500D01*
X150270000Y-123282500D02*
X150270000Y-126310000D01*
X149770000Y-122782500D02*
X150270000Y-123282500D01*
X142570000Y-118110000D02*
X138112500Y-118110000D01*
X138112500Y-118110000D02*
X137985500Y-118237000D01*
X149770000Y-110910000D02*
X149770000Y-109181500D01*
X149770000Y-109181500D02*
X148971000Y-108382500D01*
X164300000Y-109500000D02*
X166026500Y-109500000D01*
X166526500Y-109000000D02*
X179700000Y-109000000D01*
X166026500Y-109500000D02*
X166526500Y-109000000D01*
X172720000Y-102870000D02*
X171958000Y-102870000D01*
X172000000Y-102828000D02*
X172000000Y-101300000D01*
X171958000Y-102870000D02*
X172000000Y-102828000D01*
X172500000Y-101300000D02*
X172500000Y-102650000D01*
X172500000Y-102650000D02*
X172720000Y-102870000D01*
X151574500Y-133350000D02*
X152781000Y-133350000D01*
X163703000Y-130365500D02*
X163703000Y-129667000D01*
X161671000Y-132397500D02*
X163703000Y-130365500D01*
X152781000Y-133350000D02*
X153797000Y-132334000D01*
X149606000Y-132318000D02*
X150542500Y-132318000D01*
X150542500Y-132318000D02*
X151574500Y-133350000D01*
X171196000Y-95631000D02*
X169291000Y-95631000D01*
X166460000Y-94197000D02*
X164477000Y-92214000D01*
X164477000Y-92214000D02*
X158000000Y-92214000D01*
X167857000Y-94197000D02*
X166460000Y-94197000D01*
X169291000Y-95631000D02*
X167857000Y-94197000D01*
X193548000Y-114693500D02*
X193548000Y-114893500D01*
X193548000Y-114893500D02*
X195948000Y-117293500D01*
X165862000Y-121273000D02*
X163813000Y-121273000D01*
X163813000Y-121273000D02*
X162000000Y-119460000D01*
X159060000Y-128120000D02*
X159060000Y-128135500D01*
X159060000Y-128135500D02*
X160591500Y-129667000D01*
X160591500Y-129667000D02*
X163703000Y-129667000D01*
X163703000Y-129667000D02*
X163766500Y-129667000D01*
X167386000Y-122750000D02*
X167386000Y-122797000D01*
X167386000Y-126047500D02*
X167386000Y-122750000D01*
X163766500Y-129667000D02*
X167386000Y-126047500D01*
X150270000Y-126310000D02*
X150270000Y-129251500D01*
X150270000Y-129251500D02*
X150876000Y-129857500D01*
X150876000Y-129857500D02*
X150876000Y-132318000D01*
X144500000Y-130250000D02*
X144133500Y-130250000D01*
X134800000Y-134050000D02*
X143889500Y-134050000D01*
X145669000Y-131419000D02*
X144500000Y-130250000D01*
X145669000Y-132270500D02*
X145669000Y-131419000D01*
X143889500Y-134050000D02*
X145669000Y-132270500D01*
X134800000Y-134050000D02*
X135825000Y-134050000D01*
X137270000Y-132605000D02*
X137270000Y-129000000D01*
X135825000Y-134050000D02*
X137270000Y-132605000D01*
X154170000Y-134030000D02*
X153100000Y-134030000D01*
X153100000Y-134030000D02*
X151388000Y-132318000D01*
X149606000Y-132318000D02*
X150876000Y-132318000D01*
X150876000Y-132318000D02*
X151388000Y-132318000D01*
X151388000Y-132318000D02*
X152019000Y-131687000D01*
X149352000Y-100330000D02*
X149098000Y-100330000D01*
X138970000Y-112000000D02*
X137160000Y-113810000D01*
X137160000Y-113810000D02*
X135810000Y-113810000D01*
X170500000Y-116700000D02*
X170500000Y-115377000D01*
X171500000Y-115366000D02*
X171500000Y-116700000D01*
X171323000Y-115189000D02*
X171500000Y-115366000D01*
X170688000Y-115189000D02*
X171323000Y-115189000D01*
X170500000Y-115377000D02*
X170688000Y-115189000D01*
X171500000Y-116700000D02*
X171500000Y-123000000D01*
X171450000Y-122936000D02*
X171450000Y-123000000D01*
X171450000Y-122950000D02*
X171450000Y-122936000D01*
X171500000Y-123000000D02*
X171450000Y-122950000D01*
X189270000Y-129000000D02*
X189579000Y-129000000D01*
X189579000Y-129000000D02*
X191516000Y-130937000D01*
X193675000Y-130048000D02*
X193675000Y-122415000D01*
X192786000Y-130937000D02*
X193675000Y-130048000D01*
X191516000Y-130937000D02*
X192786000Y-130937000D01*
X174770000Y-129000000D02*
X174770000Y-130193000D01*
X187397000Y-127127000D02*
X189270000Y-129000000D01*
X181991000Y-127127000D02*
X187397000Y-127127000D01*
X178308000Y-130810000D02*
X181991000Y-127127000D01*
X175387000Y-130810000D02*
X178308000Y-130810000D01*
X174770000Y-130193000D02*
X175387000Y-130810000D01*
X173500000Y-123000000D02*
X177750000Y-123000000D01*
X177750000Y-123000000D02*
X180500000Y-120250000D01*
X153035000Y-100203000D02*
X155183000Y-100203000D01*
X155183000Y-100203000D02*
X156020000Y-101040000D01*
X149225000Y-100203000D02*
X149098000Y-100330000D01*
X130500000Y-123000000D02*
X130500000Y-123388000D01*
X130500000Y-123388000D02*
X132207000Y-125095000D01*
X137890000Y-124111000D02*
X137890000Y-119580000D01*
X136906000Y-125095000D02*
X137890000Y-124111000D01*
X132207000Y-125095000D02*
X136906000Y-125095000D01*
X122770000Y-129000000D02*
X122770000Y-128818000D01*
X122770000Y-128818000D02*
X128588000Y-123000000D01*
X126690000Y-118500000D02*
X126690000Y-121102000D01*
X128588000Y-123000000D02*
X130500000Y-123000000D01*
X126690000Y-121102000D02*
X128588000Y-123000000D01*
X115000000Y-114000000D02*
X115000000Y-115508000D01*
X117992000Y-118500000D02*
X126690000Y-118500000D01*
X115000000Y-115508000D02*
X117992000Y-118500000D01*
X137890000Y-117260000D02*
X138170000Y-116980000D01*
X142570000Y-117110000D02*
X141367000Y-117110000D01*
X141367000Y-117110000D02*
X138067000Y-113810000D01*
X138067000Y-113810000D02*
X135810000Y-113810000D01*
X135810000Y-113810000D02*
X135810000Y-114620000D01*
X157970000Y-117110000D02*
X157954000Y-117094000D01*
X157954000Y-117094000D02*
X156845000Y-117094000D01*
X156845000Y-117094000D02*
X156464000Y-117475000D01*
X156464000Y-117475000D02*
X156464000Y-118364000D01*
X156464000Y-118364000D02*
X156464000Y-118491000D01*
X156464000Y-118491000D02*
X156591000Y-118618000D01*
X156591000Y-118618000D02*
X157962000Y-118618000D01*
X157962000Y-118618000D02*
X157970000Y-118610000D01*
X157970000Y-119110000D02*
X157986000Y-119126000D01*
X157986000Y-119126000D02*
X161666000Y-119126000D01*
X161666000Y-119126000D02*
X162000000Y-119460000D01*
X157970000Y-119110000D02*
X157970000Y-118610000D01*
X165862000Y-121273000D02*
X167386000Y-122797000D01*
X167386000Y-122797000D02*
X167339000Y-122750000D01*
X167339000Y-122750000D02*
X170500000Y-122750000D01*
X170500000Y-122750000D02*
X170750000Y-123000000D01*
X170750000Y-123000000D02*
X171450000Y-123000000D01*
X171450000Y-123000000D02*
X173500000Y-123000000D01*
X179700000Y-109000000D02*
X181703000Y-109000000D01*
X182245000Y-108458000D02*
X183980000Y-108458000D01*
X181703000Y-109000000D02*
X182245000Y-108458000D01*
X183980000Y-107350000D02*
X183980000Y-108458000D01*
X183980000Y-108458000D02*
X183980000Y-108480000D01*
X183980000Y-108480000D02*
X185200000Y-109700000D01*
X184250000Y-107080000D02*
X183980000Y-107350000D01*
X181080000Y-100000000D02*
X181000000Y-99920000D01*
X171577000Y-102870000D02*
X172720000Y-102870000D01*
X181000000Y-99924000D02*
X181000000Y-99920000D01*
X172000000Y-101300000D02*
X172500000Y-101300000D01*
X170500000Y-101300000D02*
X170500000Y-102682000D01*
X172000000Y-102447000D02*
X172000000Y-101300000D01*
X170688000Y-102870000D02*
X171577000Y-102870000D01*
X170500000Y-102682000D02*
X170688000Y-102870000D01*
X158000000Y-92214000D02*
X158000000Y-95500000D01*
X172000000Y-116700000D02*
X172000000Y-119500000D01*
X172000000Y-119500000D02*
X173500000Y-121000000D01*
D34*
X135500000Y-123000000D02*
X133270000Y-120770000D01*
X133270000Y-120770000D02*
X133270000Y-113810000D01*
D32*
X179700000Y-111000000D02*
X186855640Y-111000000D01*
X186855640Y-111000000D02*
X189484000Y-108371640D01*
X189281500Y-103251000D02*
X189281500Y-108169140D01*
X189281500Y-108169140D02*
X189484000Y-108371640D01*
X179700000Y-111500000D02*
X180905500Y-111500000D01*
X187474860Y-118069360D02*
X189484000Y-118069360D01*
X180905500Y-111500000D02*
X187474860Y-118069360D01*
X189305500Y-123761500D02*
X189305500Y-118247860D01*
X189305500Y-118247860D02*
X189484000Y-118069360D01*
X149247860Y-135763000D02*
X153937000Y-135763000D01*
X153937000Y-135763000D02*
X154170000Y-135530000D01*
X148270000Y-126310000D02*
X148270000Y-134785140D01*
X148270000Y-134785140D02*
X149247860Y-135763000D01*
X134800000Y-135550000D02*
X139337140Y-135550000D01*
X139337140Y-135550000D02*
X139550140Y-135763000D01*
X139550140Y-135763000D02*
X143764000Y-135763000D01*
X147770000Y-131757000D02*
X147770000Y-126310000D01*
X143764000Y-135763000D02*
X147770000Y-131757000D01*
X142570000Y-118610000D02*
X140860000Y-118610000D01*
X140860000Y-118610000D02*
X139890000Y-119580000D01*
D34*
X147383500Y-90043000D02*
X149098000Y-91757500D01*
X149098000Y-91757500D02*
X149098000Y-97409000D01*
X139890500Y-122174000D02*
X139810000Y-122254500D01*
X139810000Y-122254500D02*
X139810000Y-129000000D01*
X149098000Y-103251000D02*
X147447000Y-103251000D01*
X147447000Y-103251000D02*
X144145000Y-106553000D01*
X149098000Y-97409000D02*
X146304000Y-97409000D01*
X146304000Y-97409000D02*
X145859500Y-97853500D01*
X145859500Y-97853500D02*
X145859500Y-100012500D01*
X145859500Y-100012500D02*
X149098000Y-103251000D01*
X149098000Y-103251000D02*
X150495000Y-103251000D01*
X150495000Y-103251000D02*
X151003000Y-102743000D01*
X151003000Y-102743000D02*
X153035000Y-102743000D01*
D32*
X149098000Y-103251000D02*
X152527000Y-103251000D01*
D34*
X153035000Y-102743000D02*
X159956500Y-102743000D01*
X180149500Y-124079000D02*
X180149500Y-126111000D01*
X180022500Y-123952000D02*
X180149500Y-124079000D01*
X177310000Y-129000000D02*
X177310000Y-128125000D01*
X177310000Y-128125000D02*
X179324000Y-126111000D01*
X179324000Y-126111000D02*
X180149500Y-126111000D01*
X188921000Y-126111000D02*
X191810000Y-129000000D01*
X180149500Y-126111000D02*
X188921000Y-126111000D01*
X140081000Y-128729000D02*
X139810000Y-129000000D01*
X125310000Y-129000000D02*
X127437000Y-126873000D01*
X127437000Y-126873000D02*
X138938000Y-126873000D01*
X138938000Y-126873000D02*
X139810000Y-127745000D01*
X139810000Y-127745000D02*
X139810000Y-129000000D01*
D32*
X177310000Y-128125000D02*
X179197000Y-126238000D01*
X179197000Y-126238000D02*
X189048000Y-126238000D01*
X189048000Y-126238000D02*
X191810000Y-129000000D01*
X139810000Y-129000000D02*
X139810000Y-127745000D01*
X138938000Y-126873000D02*
X127437000Y-126873000D01*
X139810000Y-127745000D02*
X138938000Y-126873000D01*
X149098000Y-97409000D02*
X148590000Y-97409000D01*
X153035000Y-102743000D02*
X155817000Y-102743000D01*
X155817000Y-102743000D02*
X156020000Y-102540000D01*
X149000000Y-97311000D02*
X149098000Y-97409000D01*
X152527000Y-103251000D02*
X153035000Y-102743000D01*
X171196000Y-88011000D02*
X171958000Y-88011000D01*
X171958000Y-88011000D02*
X175500000Y-91553000D01*
X175500000Y-91553000D02*
X175500000Y-101300000D01*
X171196000Y-90551000D02*
X170180000Y-90551000D01*
X176000000Y-90084500D02*
X176000000Y-101300000D01*
X172339000Y-86423500D02*
X176000000Y-90084500D01*
X170243500Y-86423500D02*
X172339000Y-86423500D01*
X169354500Y-87312500D02*
X170243500Y-86423500D01*
X169354500Y-89725500D02*
X169354500Y-87312500D01*
X170180000Y-90551000D02*
X169354500Y-89725500D01*
X171196000Y-93091000D02*
X172148500Y-93091000D01*
X172148500Y-93091000D02*
X173000000Y-93942500D01*
X173000000Y-93942500D02*
X173000000Y-101300000D01*
D34*
X181356000Y-92710000D02*
X181356000Y-88963500D01*
X181356000Y-88963500D02*
X175387000Y-82994500D01*
X139446000Y-87185500D02*
X139573000Y-87058500D01*
X139573000Y-87058500D02*
X139573000Y-85471000D01*
X174371000Y-81978500D02*
X175387000Y-82994500D01*
X148018500Y-81978500D02*
X174371000Y-81978500D01*
X145415000Y-84582000D02*
X148018500Y-81978500D01*
X140652500Y-84582000D02*
X145415000Y-84582000D01*
X139763500Y-85471000D02*
X140652500Y-84582000D01*
X139573000Y-85471000D02*
X139763500Y-85471000D01*
X136906000Y-87185500D02*
X139446000Y-87185500D01*
X128500000Y-92080000D02*
X133394500Y-87185500D01*
X133394500Y-87185500D02*
X136906000Y-87185500D01*
X175387000Y-82994500D02*
X175450500Y-82994500D01*
D32*
X162000000Y-127080000D02*
X161878000Y-127080000D01*
X161878000Y-127080000D02*
X160401000Y-125603000D01*
X160401000Y-125603000D02*
X160401000Y-122301000D01*
X160401000Y-122301000D02*
X160210000Y-122110000D01*
X160210000Y-122110000D02*
X157970000Y-122110000D01*
X162000000Y-124540000D02*
X162894000Y-124540000D01*
X162894000Y-124540000D02*
X163576000Y-125222000D01*
X163576000Y-125222000D02*
X163576000Y-128397000D01*
X163576000Y-128397000D02*
X163322000Y-128651000D01*
X163322000Y-128651000D02*
X161290000Y-128651000D01*
X161290000Y-128651000D02*
X159950998Y-127311998D01*
X159950998Y-127311998D02*
X159950998Y-123247998D01*
X159950998Y-123247998D02*
X159313000Y-122610000D01*
X159313000Y-122610000D02*
X157970000Y-122610000D01*
X157970000Y-119610000D02*
X159107000Y-119610000D01*
X159107000Y-119610000D02*
X161497000Y-122000000D01*
X161497000Y-122000000D02*
X162000000Y-122000000D01*
D34*
X142367000Y-89281000D02*
X136334500Y-89281000D01*
X131000500Y-94615000D02*
X131000500Y-95885000D01*
X136334500Y-89281000D02*
X131000500Y-94615000D01*
X123500000Y-99004000D02*
X123500000Y-105920000D01*
X131000500Y-95885000D02*
X126619000Y-95885000D01*
X126619000Y-95885000D02*
X123500000Y-99004000D01*
X142367000Y-91376500D02*
X142049500Y-91376500D01*
X141986000Y-87185500D02*
X142367000Y-87566500D01*
X142367000Y-87566500D02*
X142367000Y-89281000D01*
X142367000Y-89281000D02*
X142367000Y-91376500D01*
X123500000Y-105920000D02*
X118080000Y-105920000D01*
X118080000Y-105920000D02*
X115000000Y-109000000D01*
X133270000Y-106190000D02*
X133270000Y-104949000D01*
X132016500Y-103695500D02*
X123500000Y-103695500D01*
X133270000Y-104949000D02*
X132016500Y-103695500D01*
X123500000Y-103695500D02*
X123500000Y-105920000D01*
X138938000Y-107378500D02*
X138938000Y-103251000D01*
X130500000Y-118500000D02*
X130500000Y-114040000D01*
X130500000Y-114040000D02*
X130730000Y-113810000D01*
X130730000Y-113810000D02*
X130730000Y-112792500D01*
X136715500Y-109601000D02*
X138938000Y-107378500D01*
X133921500Y-109601000D02*
X136715500Y-109601000D01*
X130730000Y-112792500D02*
X133921500Y-109601000D01*
D32*
X130730000Y-113810000D02*
X130500000Y-114040000D01*
X138938000Y-100330000D02*
X138557000Y-100330000D01*
X138557000Y-100330000D02*
X137033000Y-101854000D01*
X137033000Y-104967000D02*
X135810000Y-106190000D01*
X137033000Y-101854000D02*
X137033000Y-104967000D01*
X138938000Y-97409000D02*
X138938000Y-100330000D01*
D34*
X128190000Y-106190000D02*
X130730000Y-106190000D01*
X128190000Y-106190000D02*
X128190000Y-113810000D01*
X123500000Y-116080000D02*
X125920000Y-116080000D01*
X125920000Y-116080000D02*
X128190000Y-113810000D01*
D32*
X123500000Y-116080000D02*
X125728000Y-116080000D01*
X125728000Y-116080000D02*
X127998000Y-113810000D01*
X127998000Y-113810000D02*
X128190000Y-113810000D01*
X179700000Y-108000000D02*
X180989898Y-108000000D01*
X185902500Y-112293500D02*
X193548000Y-112293500D01*
X185229500Y-112966500D02*
X185902500Y-112293500D01*
X182435500Y-106299000D02*
X183134000Y-105600500D01*
X181737000Y-106299000D02*
X182435500Y-106299000D01*
X181552002Y-106483998D02*
X181737000Y-106299000D01*
X181552002Y-107437896D02*
X181552002Y-106483998D01*
X180989898Y-108000000D02*
X181552002Y-107437896D01*
X154770000Y-126310000D02*
X154770000Y-127465000D01*
X184190000Y-136993000D02*
X184190000Y-129000000D01*
X183261000Y-137922000D02*
X184190000Y-136993000D01*
X158877000Y-137922000D02*
X183261000Y-137922000D01*
X158242000Y-137287000D02*
X158877000Y-137922000D01*
X158242000Y-130937000D02*
X158242000Y-137287000D01*
X154770000Y-127465000D02*
X158242000Y-130937000D01*
X154270000Y-126310000D02*
X154270000Y-127727000D01*
X186730000Y-137120000D02*
X186730000Y-129000000D01*
X185420000Y-138430000D02*
X186730000Y-137120000D01*
X158496000Y-138430000D02*
X185420000Y-138430000D01*
X157607000Y-137541000D02*
X158496000Y-138430000D01*
X157607000Y-131064000D02*
X157607000Y-137541000D01*
X154270000Y-127727000D02*
X157607000Y-131064000D01*
X155770000Y-126310000D02*
X155770000Y-127192204D01*
X169690000Y-135237000D02*
X169690000Y-129000000D01*
X167963002Y-136963998D02*
X169690000Y-135237000D01*
X159950998Y-136963998D02*
X167963002Y-136963998D01*
X159512000Y-136525000D02*
X159950998Y-136963998D01*
X159512000Y-130934204D02*
X159512000Y-136525000D01*
X155770000Y-127192204D02*
X159512000Y-130934204D01*
X155270000Y-126310000D02*
X155270000Y-127328602D01*
X172230000Y-136507000D02*
X172230000Y-129000000D01*
X171323000Y-137414000D02*
X172230000Y-136507000D01*
X159512000Y-137414000D02*
X171323000Y-137414000D01*
X158877000Y-136779000D02*
X159512000Y-137414000D01*
X158877000Y-130935602D02*
X158877000Y-136779000D01*
X155270000Y-127328602D02*
X158877000Y-130935602D01*
X152770000Y-126310000D02*
X152770000Y-128638602D01*
X132190000Y-136254000D02*
X132190000Y-129000000D01*
X133985000Y-138049000D02*
X132190000Y-136254000D01*
X154559000Y-138049000D02*
X133985000Y-138049000D01*
X155956000Y-136652000D02*
X154559000Y-138049000D01*
X155956000Y-131824602D02*
X155956000Y-136652000D01*
X152770000Y-128638602D02*
X155956000Y-131824602D01*
X152270000Y-126310000D02*
X152270000Y-128775000D01*
X133477000Y-130253000D02*
X134730000Y-129000000D01*
X133477000Y-136525000D02*
X133477000Y-130253000D01*
X134493000Y-137541000D02*
X133477000Y-136525000D01*
X154305000Y-137541000D02*
X134493000Y-137541000D01*
X155448000Y-136398000D02*
X154305000Y-137541000D01*
X155448000Y-131953000D02*
X155448000Y-136398000D01*
X152270000Y-128775000D02*
X155448000Y-131953000D01*
X153770000Y-126310000D02*
X153770000Y-127989000D01*
X117690000Y-138137000D02*
X117690000Y-129000000D01*
X118618000Y-139065000D02*
X117690000Y-138137000D01*
X155194000Y-139065000D02*
X118618000Y-139065000D01*
X156972000Y-137287000D02*
X155194000Y-139065000D01*
X156972000Y-131191000D02*
X156972000Y-137287000D01*
X153770000Y-127989000D02*
X156972000Y-131191000D01*
X153270000Y-126310000D02*
X153270000Y-128251000D01*
X120230000Y-136359000D02*
X120230000Y-129000000D01*
X122428000Y-138557000D02*
X120230000Y-136359000D01*
X154940000Y-138557000D02*
X122428000Y-138557000D01*
X156406002Y-137090998D02*
X154940000Y-138557000D01*
X156406002Y-131387002D02*
X156406002Y-137090998D01*
X153270000Y-128251000D02*
X156406002Y-131387002D01*
X164300000Y-108500000D02*
X156168000Y-108500000D01*
X155270000Y-109398000D02*
X155270000Y-110910000D01*
X156168000Y-108500000D02*
X155270000Y-109398000D01*
X164300000Y-108000000D02*
X155779000Y-108000000D01*
X154770000Y-109009000D02*
X154770000Y-110910000D01*
X155779000Y-108000000D02*
X154770000Y-109009000D01*
X164300000Y-107500000D02*
X155390000Y-107500000D01*
X154270000Y-108620000D02*
X154270000Y-110910000D01*
X155390000Y-107500000D02*
X154270000Y-108620000D01*
X164300000Y-107000000D02*
X154874000Y-107000000D01*
X153770000Y-108104000D02*
X153770000Y-110910000D01*
X154874000Y-107000000D02*
X153770000Y-108104000D01*
X153270000Y-107823000D02*
X153270000Y-107715000D01*
X153270000Y-107715000D02*
X154485000Y-106500000D01*
X164300000Y-106500000D02*
X154485000Y-106500000D01*
X153270000Y-107823000D02*
X153270000Y-110910000D01*
X164300000Y-106000000D02*
X154096000Y-106000000D01*
X152770000Y-107326000D02*
X152770000Y-110910000D01*
X154096000Y-106000000D02*
X152770000Y-107326000D01*
X164300000Y-105500000D02*
X153834000Y-105500000D01*
X152270000Y-107064000D02*
X152270000Y-110910000D01*
X153834000Y-105500000D02*
X152270000Y-107064000D01*
X164300000Y-105000000D02*
X153318000Y-105000000D01*
X151770000Y-106548000D02*
X151770000Y-110910000D01*
X153318000Y-105000000D02*
X151770000Y-106548000D01*
X164300000Y-104500000D02*
X152929000Y-104500000D01*
X151270000Y-106159000D02*
X151270000Y-110910000D01*
X152929000Y-104500000D02*
X151270000Y-106159000D01*
X164300000Y-104000000D02*
X152540000Y-104000000D01*
X150770000Y-105770000D02*
X150770000Y-110910000D01*
X152540000Y-104000000D02*
X150770000Y-105770000D01*
X179700000Y-108500000D02*
X181330000Y-108500000D01*
X181330000Y-108500000D02*
X182480000Y-107350000D01*
X152019000Y-130187000D02*
X150770000Y-128938000D01*
X150770000Y-128938000D02*
X150770000Y-126310000D01*
D34*
X138557000Y-91376500D02*
X136652000Y-93281500D01*
X136652000Y-93281500D02*
X135509000Y-93281500D01*
D32*
X181737000Y-104267000D02*
X184277000Y-104267000D01*
X180599500Y-107500000D02*
X181038500Y-107061000D01*
X181038500Y-107061000D02*
X181038500Y-104965500D01*
X181038500Y-104965500D02*
X181737000Y-104267000D01*
X179700000Y-107500000D02*
X180599500Y-107500000D01*
X194691000Y-113093500D02*
X193548000Y-113093500D01*
X195262500Y-112522000D02*
X194691000Y-113093500D01*
X195262500Y-110744000D02*
X195262500Y-112522000D01*
X195326000Y-110680500D02*
X195262500Y-110744000D01*
X193421000Y-110680500D02*
X195326000Y-110680500D01*
X192976500Y-110236000D02*
X193421000Y-110680500D01*
X192976500Y-107124500D02*
X192976500Y-110236000D01*
X192214500Y-106362500D02*
X192976500Y-107124500D01*
X186182000Y-106172000D02*
X186182000Y-106362500D01*
X184277000Y-104267000D02*
X186182000Y-106172000D01*
X179700000Y-109500000D02*
X176694500Y-109500000D01*
X176194500Y-110000000D02*
X176403000Y-109791500D01*
X176194500Y-110000000D02*
X164300000Y-110000000D01*
X176694500Y-109500000D02*
X176403000Y-109791500D01*
X179700000Y-109500000D02*
X183000000Y-109500000D01*
X183000000Y-109500000D02*
X183200000Y-109700000D01*
X149770000Y-126310000D02*
X149770000Y-124116000D01*
X149770000Y-124116000D02*
X149270000Y-123616000D01*
X149770000Y-124941500D02*
X149770000Y-126310000D01*
X149270000Y-110910000D02*
X149270000Y-123616000D01*
X149270000Y-123616000D02*
X149270000Y-123679500D01*
X149270000Y-123679500D02*
X149637750Y-124047250D01*
X149637750Y-124047250D02*
X149669500Y-124079000D01*
X149606000Y-130318000D02*
X149770000Y-130154000D01*
X149770000Y-130154000D02*
X149770000Y-126310000D01*
X160210500Y-89090500D02*
X160020000Y-88900000D01*
X166500000Y-98745500D02*
X165163500Y-97409000D01*
X162115500Y-90995500D02*
X160210500Y-89090500D01*
X166500000Y-101300000D02*
X166500000Y-98745500D01*
X160020000Y-88900000D02*
X160020000Y-83947000D01*
X157480000Y-83947000D02*
X157480000Y-88328500D01*
X160083500Y-90932000D02*
X157670500Y-88519000D01*
X164020500Y-98615500D02*
X166000000Y-100595000D01*
X157480000Y-88328500D02*
X157670500Y-88519000D01*
X166000000Y-101300000D02*
X166000000Y-100595000D01*
X186690000Y-83883500D02*
X186690000Y-94107000D01*
X184658000Y-96139000D02*
X180848000Y-96139000D01*
X180848000Y-96139000D02*
X178000000Y-98987000D01*
X178000000Y-98987000D02*
X178000000Y-101300000D01*
X186690000Y-94107000D02*
X184658000Y-96139000D01*
X180721000Y-94996000D02*
X182753000Y-94996000D01*
X177500000Y-101300000D02*
X177500000Y-98217000D01*
X180721000Y-94996000D02*
X177500000Y-98217000D01*
X184150000Y-93599000D02*
X184150000Y-83883500D01*
X182753000Y-94996000D02*
X184150000Y-93599000D01*
D35*
G36*
X195767203Y-80975997D02*
X195412154Y-81831050D01*
X195411346Y-82756888D01*
X195764903Y-83612559D01*
X196418997Y-84267797D01*
X197274050Y-84622846D01*
X198199888Y-84623654D01*
X199055559Y-84270097D01*
X199623000Y-83703647D01*
X199623000Y-136134186D01*
X199059003Y-135569203D01*
X198203950Y-135214154D01*
X197278112Y-135213346D01*
X196422441Y-135566903D01*
X195767203Y-136220997D01*
X195412154Y-137076050D01*
X195411346Y-138001888D01*
X195764903Y-138857559D01*
X196418997Y-139512797D01*
X196684395Y-139623000D01*
X113450414Y-139623000D01*
X113711559Y-139515097D01*
X114366797Y-138861003D01*
X114721846Y-138005950D01*
X114722654Y-137080112D01*
X114369097Y-136224441D01*
X113715003Y-135569203D01*
X112859950Y-135214154D01*
X111934112Y-135213346D01*
X111078441Y-135566903D01*
X110423203Y-136220997D01*
X110377000Y-136332266D01*
X110377000Y-129262798D01*
X116362771Y-129262798D01*
X116564369Y-129750703D01*
X116937334Y-130124319D01*
X117238000Y-130249167D01*
X117238000Y-138137000D01*
X117272406Y-138309973D01*
X117370388Y-138456612D01*
X118298388Y-139384612D01*
X118445027Y-139482594D01*
X118618000Y-139517000D01*
X155194000Y-139517000D01*
X155366973Y-139482594D01*
X155513612Y-139384612D01*
X157188551Y-137709673D01*
X157189406Y-137713973D01*
X157287388Y-137860612D01*
X158176388Y-138749612D01*
X158323027Y-138847594D01*
X158496000Y-138882000D01*
X185420000Y-138882000D01*
X185592973Y-138847594D01*
X185739612Y-138749612D01*
X187049612Y-137439612D01*
X187147594Y-137292973D01*
X187182000Y-137120000D01*
X187182000Y-130249052D01*
X187480703Y-130125631D01*
X187854319Y-129752666D01*
X188056769Y-129265115D01*
X188057229Y-128737202D01*
X187855631Y-128249297D01*
X187482666Y-127875681D01*
X186995115Y-127673231D01*
X186467202Y-127672771D01*
X185979297Y-127874369D01*
X185605681Y-128247334D01*
X185459891Y-128598433D01*
X185315631Y-128249297D01*
X184942666Y-127875681D01*
X184455115Y-127673231D01*
X183927202Y-127672771D01*
X183439297Y-127874369D01*
X183065681Y-128247334D01*
X182863231Y-128734885D01*
X182862771Y-129262798D01*
X183064369Y-129750703D01*
X183437334Y-130124319D01*
X183738000Y-130249167D01*
X183738000Y-136805775D01*
X183073776Y-137470000D01*
X171906224Y-137470000D01*
X172549612Y-136826612D01*
X172647594Y-136679973D01*
X172682000Y-136507000D01*
X172682000Y-130249052D01*
X172980703Y-130125631D01*
X173354319Y-129752666D01*
X173556769Y-129265115D01*
X173556771Y-129262798D01*
X175982771Y-129262798D01*
X176184369Y-129750703D01*
X176557334Y-130124319D01*
X177044885Y-130326769D01*
X177572798Y-130327229D01*
X178060703Y-130125631D01*
X178434319Y-129752666D01*
X178636769Y-129265115D01*
X178637229Y-128737202D01*
X178435631Y-128249297D01*
X178395479Y-128209075D01*
X179666554Y-126938000D01*
X188578446Y-126938000D01*
X190483137Y-128842691D01*
X190482771Y-129262798D01*
X190684369Y-129750703D01*
X191057334Y-130124319D01*
X191544885Y-130326769D01*
X192072798Y-130327229D01*
X192560703Y-130125631D01*
X192934319Y-129752666D01*
X193136769Y-129265115D01*
X193137229Y-128737202D01*
X192935631Y-128249297D01*
X192562666Y-127875681D01*
X192075115Y-127673231D01*
X191652417Y-127672863D01*
X189505777Y-125526223D01*
X189237479Y-125346952D01*
X188921000Y-125284000D01*
X180976500Y-125284000D01*
X180976500Y-124332551D01*
X181049321Y-124157179D01*
X181049678Y-123748613D01*
X180893656Y-123371011D01*
X180605008Y-123081860D01*
X180227679Y-122925179D01*
X179819113Y-122924822D01*
X179441511Y-123080844D01*
X179152360Y-123369492D01*
X178995679Y-123746821D01*
X178995322Y-124155387D01*
X179151344Y-124532989D01*
X179322500Y-124704443D01*
X179322500Y-125284298D01*
X179007521Y-125346952D01*
X178739223Y-125526223D01*
X176725223Y-127540223D01*
X176545952Y-127808521D01*
X176526302Y-127907306D01*
X176185681Y-128247334D01*
X175983231Y-128734885D01*
X175982771Y-129262798D01*
X173556771Y-129262798D01*
X173557229Y-128737202D01*
X173355631Y-128249297D01*
X172982666Y-127875681D01*
X172495115Y-127673231D01*
X171967202Y-127672771D01*
X171479297Y-127874369D01*
X171105681Y-128247334D01*
X170959891Y-128598433D01*
X170815631Y-128249297D01*
X170442666Y-127875681D01*
X169955115Y-127673231D01*
X169427202Y-127672771D01*
X168939297Y-127874369D01*
X168565681Y-128247334D01*
X168363231Y-128734885D01*
X168362771Y-129262798D01*
X168564369Y-129750703D01*
X168937334Y-130124319D01*
X169238000Y-130249167D01*
X169238000Y-135049776D01*
X167775778Y-136511998D01*
X160138222Y-136511998D01*
X159964000Y-136337776D01*
X159964000Y-130934204D01*
X159929594Y-130761231D01*
X159831612Y-130614592D01*
X156569762Y-127352742D01*
X156654270Y-127297229D01*
X156727625Y-127188555D01*
X156750999Y-127072000D01*
X158361683Y-127072000D01*
X158375785Y-127144684D01*
X158447771Y-127254270D01*
X158556445Y-127327625D01*
X158685000Y-127353406D01*
X159435000Y-127353406D01*
X159504550Y-127339912D01*
X159533404Y-127484971D01*
X159631386Y-127631610D01*
X160970388Y-128970612D01*
X161117027Y-129068594D01*
X161290000Y-129103000D01*
X163322000Y-129103000D01*
X163494973Y-129068594D01*
X163641612Y-128970612D01*
X163895612Y-128716612D01*
X163993594Y-128569973D01*
X164003534Y-128520000D01*
X164028000Y-128397000D01*
X164028000Y-125222000D01*
X163993594Y-125049027D01*
X163895613Y-124902388D01*
X163327180Y-124333955D01*
X163327229Y-124277202D01*
X163125631Y-123789297D01*
X162752666Y-123415681D01*
X162401567Y-123269891D01*
X162750703Y-123125631D01*
X163124319Y-122752666D01*
X163326769Y-122265115D01*
X163327229Y-121737202D01*
X163125631Y-121249297D01*
X162752666Y-120875681D01*
X162265115Y-120673231D01*
X161737202Y-120672771D01*
X161249297Y-120874369D01*
X161129841Y-120993617D01*
X159426612Y-119290388D01*
X159279973Y-119192406D01*
X159107000Y-119158000D01*
X158856888Y-119158000D01*
X158848555Y-119152375D01*
X158720000Y-119126594D01*
X157220000Y-119126594D01*
X157095316Y-119150785D01*
X156985730Y-119222771D01*
X156912375Y-119331445D01*
X156886594Y-119460000D01*
X156886594Y-119760000D01*
X156906317Y-119861654D01*
X156886594Y-119960000D01*
X156886594Y-120260000D01*
X156906317Y-120361654D01*
X156886594Y-120460000D01*
X156886594Y-120760000D01*
X156906317Y-120861654D01*
X156886594Y-120960000D01*
X156886594Y-121260000D01*
X156906317Y-121361654D01*
X156886594Y-121460000D01*
X156886594Y-121760000D01*
X156906317Y-121861654D01*
X156886594Y-121960000D01*
X156886594Y-122260000D01*
X156906317Y-122361654D01*
X156886594Y-122460000D01*
X156886594Y-122760000D01*
X156906317Y-122861654D01*
X156886594Y-122960000D01*
X156886594Y-123260000D01*
X156906317Y-123361654D01*
X156886594Y-123460000D01*
X156886594Y-123760000D01*
X156906317Y-123861654D01*
X156886594Y-123960000D01*
X156886594Y-124260000D01*
X156906317Y-124361654D01*
X156886594Y-124460000D01*
X156886594Y-124760000D01*
X156910785Y-124884684D01*
X156982771Y-124994270D01*
X157091445Y-125067625D01*
X157220000Y-125093406D01*
X158720000Y-125093406D01*
X158844684Y-125069215D01*
X158954270Y-124997229D01*
X159027625Y-124888555D01*
X159053406Y-124760000D01*
X159053406Y-124460000D01*
X159033683Y-124358346D01*
X159053406Y-124260000D01*
X159053406Y-123960000D01*
X159033683Y-123858346D01*
X159053406Y-123760000D01*
X159053406Y-123460000D01*
X159033683Y-123358346D01*
X159053406Y-123260000D01*
X159053406Y-123062000D01*
X159125776Y-123062000D01*
X159498998Y-123435223D01*
X159498998Y-125899428D01*
X159435000Y-125886594D01*
X158685000Y-125886594D01*
X158560316Y-125910785D01*
X158450730Y-125982771D01*
X158377375Y-126091445D01*
X158362022Y-126168000D01*
X156767224Y-126168000D01*
X156753406Y-126154182D01*
X156753406Y-125560000D01*
X156729215Y-125435316D01*
X156722000Y-125424332D01*
X156722000Y-120265500D01*
X156687594Y-120092527D01*
X156629746Y-120005952D01*
X156589612Y-119945887D01*
X155582500Y-118938776D01*
X155582500Y-117460000D01*
X156886594Y-117460000D01*
X156886594Y-117760000D01*
X156906317Y-117861654D01*
X156886594Y-117960000D01*
X156886594Y-118260000D01*
X156910785Y-118384684D01*
X156982771Y-118494270D01*
X157091445Y-118567625D01*
X157220000Y-118593406D01*
X158720000Y-118593406D01*
X158844684Y-118569215D01*
X158954270Y-118497229D01*
X159027625Y-118388555D01*
X159053406Y-118260000D01*
X159053406Y-117960000D01*
X159033683Y-117858346D01*
X159053406Y-117760000D01*
X159053406Y-117460000D01*
X159029215Y-117335316D01*
X158957229Y-117225730D01*
X158848555Y-117152375D01*
X158720000Y-117126594D01*
X157220000Y-117126594D01*
X157095316Y-117150785D01*
X156985730Y-117222771D01*
X156912375Y-117331445D01*
X156886594Y-117460000D01*
X155582500Y-117460000D01*
X155582500Y-114677724D01*
X156589612Y-113670613D01*
X156687594Y-113523973D01*
X156690156Y-113511094D01*
X156722000Y-113351000D01*
X156722000Y-112460000D01*
X156886594Y-112460000D01*
X156886594Y-112760000D01*
X156906317Y-112861654D01*
X156886594Y-112960000D01*
X156886594Y-113260000D01*
X156906317Y-113361654D01*
X156886594Y-113460000D01*
X156886594Y-113760000D01*
X156906317Y-113861654D01*
X156886594Y-113960000D01*
X156886594Y-114260000D01*
X156906317Y-114361654D01*
X156886594Y-114460000D01*
X156886594Y-114760000D01*
X156906317Y-114861654D01*
X156886594Y-114960000D01*
X156886594Y-115260000D01*
X156906317Y-115361654D01*
X156886594Y-115460000D01*
X156886594Y-115760000D01*
X156906317Y-115861654D01*
X156886594Y-115960000D01*
X156886594Y-116260000D01*
X156906317Y-116361654D01*
X156886594Y-116460000D01*
X156886594Y-116760000D01*
X156910785Y-116884684D01*
X156982771Y-116994270D01*
X157091445Y-117067625D01*
X157220000Y-117093406D01*
X158720000Y-117093406D01*
X158844684Y-117069215D01*
X158954270Y-116997229D01*
X159027625Y-116888555D01*
X159053406Y-116760000D01*
X159053406Y-116460000D01*
X159033683Y-116358346D01*
X159053406Y-116260000D01*
X159053406Y-115960000D01*
X159033683Y-115858346D01*
X159053406Y-115760000D01*
X159053406Y-115460000D01*
X159033683Y-115358346D01*
X159053406Y-115260000D01*
X159053406Y-114960000D01*
X159033683Y-114858346D01*
X159053406Y-114760000D01*
X159053406Y-114460000D01*
X159033683Y-114358346D01*
X159053406Y-114260000D01*
X159053406Y-113960000D01*
X159033683Y-113858346D01*
X159053406Y-113760000D01*
X159053406Y-113460000D01*
X159033683Y-113358346D01*
X159053406Y-113260000D01*
X159053406Y-112960000D01*
X159033683Y-112858346D01*
X159053406Y-112760000D01*
X159053406Y-112460000D01*
X159029215Y-112335316D01*
X158957229Y-112225730D01*
X158848555Y-112152375D01*
X158720000Y-112126594D01*
X157220000Y-112126594D01*
X157095316Y-112150785D01*
X156985730Y-112222771D01*
X156912375Y-112331445D01*
X156886594Y-112460000D01*
X156722000Y-112460000D01*
X156722000Y-111796888D01*
X156727625Y-111788555D01*
X156753406Y-111660000D01*
X156753406Y-111151751D01*
X156754594Y-111149973D01*
X156788999Y-110977000D01*
X156754594Y-110804027D01*
X156753406Y-110802249D01*
X156753406Y-110160000D01*
X156747294Y-110128500D01*
X157353183Y-110128500D01*
X157367285Y-110201184D01*
X157439271Y-110310770D01*
X157547945Y-110384125D01*
X157676500Y-110409906D01*
X158426500Y-110409906D01*
X158551184Y-110385715D01*
X158660770Y-110313729D01*
X158734125Y-110205055D01*
X158759906Y-110076500D01*
X158759906Y-109607319D01*
X158915225Y-109452000D01*
X161588000Y-109452000D01*
X161588000Y-109537683D01*
X161515316Y-109551785D01*
X161405730Y-109623771D01*
X161332375Y-109732445D01*
X161306594Y-109861000D01*
X161306594Y-110611000D01*
X161330785Y-110735684D01*
X161402771Y-110845270D01*
X161511445Y-110918625D01*
X161588000Y-110933978D01*
X161588000Y-115654420D01*
X161249297Y-115794369D01*
X160875681Y-116167334D01*
X160673231Y-116654885D01*
X160672771Y-117182798D01*
X160874369Y-117670703D01*
X161247334Y-118044319D01*
X161734885Y-118246769D01*
X162262798Y-118247229D01*
X162750703Y-118045631D01*
X163124319Y-117672666D01*
X163249167Y-117372000D01*
X165410000Y-117372000D01*
X165410000Y-119054533D01*
X165362316Y-119063785D01*
X165252730Y-119135771D01*
X165179375Y-119244445D01*
X165153594Y-119373000D01*
X165153594Y-120173000D01*
X165177785Y-120297684D01*
X165249771Y-120407270D01*
X165358445Y-120480625D01*
X165487000Y-120506406D01*
X166237000Y-120506406D01*
X166361684Y-120482215D01*
X166471270Y-120410229D01*
X166544625Y-120301555D01*
X166559978Y-120225000D01*
X170548000Y-120225000D01*
X170548000Y-120516594D01*
X170125000Y-120516594D01*
X170000316Y-120540785D01*
X169890730Y-120612771D01*
X169817375Y-120721445D01*
X169791594Y-120850000D01*
X169791594Y-121650000D01*
X169815785Y-121774684D01*
X169887771Y-121884270D01*
X169996445Y-121957625D01*
X170125000Y-121983406D01*
X170875000Y-121983406D01*
X170999684Y-121959215D01*
X171109270Y-121887229D01*
X171182625Y-121778555D01*
X171208406Y-121650000D01*
X171208406Y-121180818D01*
X171319612Y-121069612D01*
X171417594Y-120922973D01*
X171452000Y-120750000D01*
X171452000Y-119795151D01*
X171457500Y-119767500D01*
X171457500Y-119570500D01*
X171452000Y-119542849D01*
X171452000Y-117586888D01*
X171457625Y-117578555D01*
X171483406Y-117450000D01*
X171483406Y-115950000D01*
X171516594Y-115950000D01*
X171516594Y-117450000D01*
X171540785Y-117574684D01*
X171548000Y-117585668D01*
X171548000Y-119500000D01*
X171582406Y-119672973D01*
X171680388Y-119819612D01*
X172541594Y-120680819D01*
X172541594Y-121500000D01*
X172565785Y-121624684D01*
X172637771Y-121734270D01*
X172746445Y-121807625D01*
X172875000Y-121833406D01*
X174125000Y-121833406D01*
X174249684Y-121809215D01*
X174359270Y-121737229D01*
X174432625Y-121628555D01*
X174458406Y-121500000D01*
X174458406Y-120500000D01*
X174434215Y-120375316D01*
X174362229Y-120265730D01*
X174253555Y-120192375D01*
X174125000Y-120166594D01*
X173305819Y-120166594D01*
X172452000Y-119312776D01*
X172452000Y-117783406D01*
X172650000Y-117783406D01*
X172751654Y-117763683D01*
X172850000Y-117783406D01*
X173150000Y-117783406D01*
X173251654Y-117763683D01*
X173350000Y-117783406D01*
X173650000Y-117783406D01*
X173751654Y-117763683D01*
X173850000Y-117783406D01*
X174150000Y-117783406D01*
X174251654Y-117763683D01*
X174350000Y-117783406D01*
X174650000Y-117783406D01*
X174751654Y-117763683D01*
X174850000Y-117783406D01*
X175150000Y-117783406D01*
X175251654Y-117763683D01*
X175350000Y-117783406D01*
X175650000Y-117783406D01*
X175751654Y-117763683D01*
X175850000Y-117783406D01*
X176150000Y-117783406D01*
X176251654Y-117763683D01*
X176350000Y-117783406D01*
X176650000Y-117783406D01*
X176751654Y-117763683D01*
X176850000Y-117783406D01*
X177150000Y-117783406D01*
X177251654Y-117763683D01*
X177350000Y-117783406D01*
X177650000Y-117783406D01*
X177751654Y-117763683D01*
X177850000Y-117783406D01*
X178150000Y-117783406D01*
X178274684Y-117759215D01*
X178384270Y-117687229D01*
X178457625Y-117578555D01*
X178483406Y-117450000D01*
X178483406Y-115950000D01*
X178459215Y-115825316D01*
X178387229Y-115715730D01*
X178278555Y-115642375D01*
X178150000Y-115616594D01*
X177850000Y-115616594D01*
X177748346Y-115636317D01*
X177650000Y-115616594D01*
X177350000Y-115616594D01*
X177248346Y-115636317D01*
X177150000Y-115616594D01*
X176850000Y-115616594D01*
X176748346Y-115636317D01*
X176650000Y-115616594D01*
X176350000Y-115616594D01*
X176248346Y-115636317D01*
X176150000Y-115616594D01*
X175850000Y-115616594D01*
X175748346Y-115636317D01*
X175650000Y-115616594D01*
X175350000Y-115616594D01*
X175248346Y-115636317D01*
X175150000Y-115616594D01*
X174850000Y-115616594D01*
X174748346Y-115636317D01*
X174650000Y-115616594D01*
X174350000Y-115616594D01*
X174248346Y-115636317D01*
X174150000Y-115616594D01*
X173850000Y-115616594D01*
X173748346Y-115636317D01*
X173650000Y-115616594D01*
X173350000Y-115616594D01*
X173248346Y-115636317D01*
X173150000Y-115616594D01*
X172850000Y-115616594D01*
X172748346Y-115636317D01*
X172650000Y-115616594D01*
X172350000Y-115616594D01*
X172248346Y-115636317D01*
X172150000Y-115616594D01*
X171850000Y-115616594D01*
X171725316Y-115640785D01*
X171615730Y-115712771D01*
X171542375Y-115821445D01*
X171516594Y-115950000D01*
X171483406Y-115950000D01*
X171483406Y-115950000D01*
X171459215Y-115825316D01*
X171387229Y-115715730D01*
X171278555Y-115642375D01*
X171150000Y-115616594D01*
X170850000Y-115616594D01*
X170725316Y-115640785D01*
X170615730Y-115712771D01*
X170542375Y-115821445D01*
X170516594Y-115950000D01*
X170516594Y-117450000D01*
X170540785Y-117574684D01*
X170548000Y-117585668D01*
X170548000Y-119321000D01*
X166560317Y-119321000D01*
X166546215Y-119248316D01*
X166474229Y-119138730D01*
X166365555Y-119065375D01*
X166314000Y-119055036D01*
X166314000Y-117776186D01*
X166350000Y-117783406D01*
X166650000Y-117783406D01*
X166751654Y-117763683D01*
X166850000Y-117783406D01*
X167150000Y-117783406D01*
X167251654Y-117763683D01*
X167350000Y-117783406D01*
X167650000Y-117783406D01*
X167751654Y-117763683D01*
X167850000Y-117783406D01*
X168150000Y-117783406D01*
X168251654Y-117763683D01*
X168350000Y-117783406D01*
X168650000Y-117783406D01*
X168751654Y-117763683D01*
X168850000Y-117783406D01*
X169150000Y-117783406D01*
X169251654Y-117763683D01*
X169350000Y-117783406D01*
X169650000Y-117783406D01*
X169751654Y-117763683D01*
X169850000Y-117783406D01*
X170150000Y-117783406D01*
X170274684Y-117759215D01*
X170384270Y-117687229D01*
X170457625Y-117578555D01*
X170483406Y-117450000D01*
X170483406Y-115950000D01*
X170459215Y-115825316D01*
X170387229Y-115715730D01*
X170278555Y-115642375D01*
X170150000Y-115616594D01*
X169850000Y-115616594D01*
X169748346Y-115636317D01*
X169650000Y-115616594D01*
X169350000Y-115616594D01*
X169248346Y-115636317D01*
X169150000Y-115616594D01*
X168850000Y-115616594D01*
X168748346Y-115636317D01*
X168650000Y-115616594D01*
X168350000Y-115616594D01*
X168248346Y-115636317D01*
X168150000Y-115616594D01*
X167850000Y-115616594D01*
X167748346Y-115636317D01*
X167650000Y-115616594D01*
X167350000Y-115616594D01*
X167248346Y-115636317D01*
X167150000Y-115616594D01*
X166850000Y-115616594D01*
X166748346Y-115636317D01*
X166650000Y-115616594D01*
X166452000Y-115616594D01*
X166452000Y-115555724D01*
X166938225Y-115069500D01*
X176406276Y-115069500D01*
X176656388Y-115319612D01*
X176803027Y-115417594D01*
X176976000Y-115452000D01*
X178813112Y-115452000D01*
X178821445Y-115457625D01*
X178950000Y-115483406D01*
X179544182Y-115483406D01*
X180048000Y-115987224D01*
X180048000Y-118031533D01*
X180000316Y-118040785D01*
X179890730Y-118112771D01*
X179817375Y-118221445D01*
X179791594Y-118350000D01*
X179791594Y-119150000D01*
X179815785Y-119274684D01*
X179887771Y-119384270D01*
X179996445Y-119457625D01*
X180125000Y-119483406D01*
X180875000Y-119483406D01*
X180999684Y-119459215D01*
X181109270Y-119387229D01*
X181182625Y-119278555D01*
X181208406Y-119150000D01*
X181208406Y-118350000D01*
X181184215Y-118225316D01*
X181112229Y-118115730D01*
X181003555Y-118042375D01*
X180952000Y-118032036D01*
X180952000Y-115800000D01*
X180917594Y-115627027D01*
X180819612Y-115480388D01*
X180701269Y-115362045D01*
X180757625Y-115278555D01*
X180783406Y-115150000D01*
X180783406Y-114850000D01*
X180763683Y-114748346D01*
X180783406Y-114650000D01*
X180783406Y-114350000D01*
X180763683Y-114248346D01*
X180783406Y-114150000D01*
X180783406Y-113850000D01*
X180763683Y-113748346D01*
X180783406Y-113650000D01*
X180783406Y-113350000D01*
X180763683Y-113248346D01*
X180783406Y-113150000D01*
X180783406Y-112850000D01*
X180763683Y-112748346D01*
X180783406Y-112650000D01*
X180783406Y-112350000D01*
X180763683Y-112248346D01*
X180783406Y-112150000D01*
X180783406Y-112017130D01*
X187155248Y-118388972D01*
X187301887Y-118486954D01*
X187474860Y-118521360D01*
X188100304Y-118521360D01*
X188100304Y-120869710D01*
X188124495Y-120994394D01*
X188196481Y-121103980D01*
X188305155Y-121177335D01*
X188433710Y-121203116D01*
X188853500Y-121203116D01*
X188853500Y-123063183D01*
X188780816Y-123077285D01*
X188671230Y-123149271D01*
X188597875Y-123257945D01*
X188572094Y-123386500D01*
X188572094Y-124136500D01*
X188596285Y-124261184D01*
X188668271Y-124370770D01*
X188776945Y-124444125D01*
X188905500Y-124469906D01*
X189705500Y-124469906D01*
X189830184Y-124445715D01*
X189939770Y-124373729D01*
X190013125Y-124265055D01*
X190038906Y-124136500D01*
X190038906Y-123386500D01*
X190014715Y-123261816D01*
X189942729Y-123152230D01*
X189834055Y-123078875D01*
X189757500Y-123063522D01*
X189757500Y-121203116D01*
X190534290Y-121203116D01*
X190658974Y-121178925D01*
X190768560Y-121106939D01*
X190841915Y-120998265D01*
X190867696Y-120869710D01*
X190867696Y-115269010D01*
X190843505Y-115144326D01*
X190771519Y-115034740D01*
X190662845Y-114961385D01*
X190534290Y-114935604D01*
X188433710Y-114935604D01*
X188309026Y-114959795D01*
X188199440Y-115031781D01*
X188126085Y-115140455D01*
X188100304Y-115269010D01*
X188100304Y-117617360D01*
X187662084Y-117617360D01*
X183214611Y-113169887D01*
X184202322Y-113169887D01*
X184358344Y-113547489D01*
X184646992Y-113836640D01*
X185024321Y-113993321D01*
X185432887Y-113993678D01*
X185810489Y-113837656D01*
X186099640Y-113549008D01*
X186256321Y-113171679D01*
X186256678Y-112763113D01*
X186249400Y-112745500D01*
X192534247Y-112745500D01*
X192514594Y-112843500D01*
X192514594Y-113343500D01*
X192538785Y-113468184D01*
X192555136Y-113493076D01*
X192540375Y-113514945D01*
X192514594Y-113643500D01*
X192514594Y-114143500D01*
X192538785Y-114268184D01*
X192610771Y-114377770D01*
X192719445Y-114451125D01*
X192848000Y-114476906D01*
X194248000Y-114476906D01*
X194372684Y-114452715D01*
X194482270Y-114380729D01*
X194555625Y-114272055D01*
X194581406Y-114143500D01*
X194581406Y-113643500D01*
X194562392Y-113545500D01*
X194691000Y-113545500D01*
X194863973Y-113511094D01*
X195010612Y-113413112D01*
X195582112Y-112841612D01*
X195680094Y-112694973D01*
X195714500Y-112522000D01*
X195714500Y-110897015D01*
X195743594Y-110853473D01*
X195778000Y-110680500D01*
X195743594Y-110507527D01*
X195723134Y-110476906D01*
X197848000Y-110476906D01*
X197972684Y-110452715D01*
X198082270Y-110380729D01*
X198155625Y-110272055D01*
X198181406Y-110143500D01*
X198181406Y-107643500D01*
X198157215Y-107518816D01*
X198085229Y-107409230D01*
X197976555Y-107335875D01*
X197848000Y-107310094D01*
X194048000Y-107310094D01*
X193923316Y-107334285D01*
X193813730Y-107406271D01*
X193740375Y-107514945D01*
X193714594Y-107643500D01*
X193714594Y-110143500D01*
X193731086Y-110228500D01*
X193608224Y-110228500D01*
X193428500Y-110048776D01*
X193428500Y-107124500D01*
X193394094Y-106951527D01*
X193296112Y-106804888D01*
X193187799Y-106696575D01*
X193241321Y-106567679D01*
X193241678Y-106159113D01*
X193085656Y-105781511D01*
X192797008Y-105492360D01*
X192419679Y-105335679D01*
X192011113Y-105335322D01*
X191633511Y-105491344D01*
X191344360Y-105779992D01*
X191187679Y-106157321D01*
X191187322Y-106565887D01*
X191343344Y-106943489D01*
X191631992Y-107232640D01*
X192009321Y-107389321D01*
X192417887Y-107389678D01*
X192524500Y-107345626D01*
X192524500Y-110236000D01*
X192558906Y-110408973D01*
X192656888Y-110555612D01*
X193011370Y-110910094D01*
X192848000Y-110910094D01*
X192723316Y-110934285D01*
X192613730Y-111006271D01*
X192540375Y-111114945D01*
X192514594Y-111243500D01*
X192514594Y-111743500D01*
X192533608Y-111841500D01*
X185902500Y-111841500D01*
X185729527Y-111875906D01*
X185582888Y-111973888D01*
X185563575Y-111993201D01*
X185434679Y-111939679D01*
X185026113Y-111939322D01*
X184648511Y-112095344D01*
X184359360Y-112383992D01*
X184202679Y-112761321D01*
X184202322Y-113169887D01*
X183214611Y-113169887D01*
X181496724Y-111452000D01*
X186855640Y-111452000D01*
X187028613Y-111417594D01*
X187175252Y-111319612D01*
X188100304Y-110394560D01*
X188100304Y-111171990D01*
X188124495Y-111296674D01*
X188196481Y-111406260D01*
X188305155Y-111479615D01*
X188433710Y-111505396D01*
X190534290Y-111505396D01*
X190658974Y-111481205D01*
X190768560Y-111409219D01*
X190841915Y-111300545D01*
X190867696Y-111171990D01*
X190867696Y-105571290D01*
X190843505Y-105446606D01*
X190771519Y-105337020D01*
X190662845Y-105263665D01*
X190534290Y-105237884D01*
X189733500Y-105237884D01*
X189733500Y-104403093D01*
X195378796Y-104403093D01*
X195557606Y-104835846D01*
X195888412Y-105167230D01*
X196320853Y-105346795D01*
X196789093Y-105347204D01*
X197221846Y-105168394D01*
X197553230Y-104837588D01*
X197732795Y-104405147D01*
X197733204Y-103936907D01*
X197554394Y-103504154D01*
X197223588Y-103172770D01*
X196791147Y-102993205D01*
X196322907Y-102992796D01*
X195890154Y-103171606D01*
X195558770Y-103502412D01*
X195379205Y-103934853D01*
X195378796Y-104403093D01*
X189733500Y-104403093D01*
X189733500Y-103949317D01*
X189806184Y-103935215D01*
X189915770Y-103863229D01*
X189989125Y-103754555D01*
X190014906Y-103626000D01*
X190014906Y-102876000D01*
X189990715Y-102751316D01*
X189918729Y-102641730D01*
X189810055Y-102568375D01*
X189681500Y-102542594D01*
X188881500Y-102542594D01*
X188756816Y-102566785D01*
X188647230Y-102638771D01*
X188573875Y-102747445D01*
X188548094Y-102876000D01*
X188548094Y-103626000D01*
X188572285Y-103750684D01*
X188644271Y-103860270D01*
X188752945Y-103933625D01*
X188829500Y-103948978D01*
X188829500Y-105237884D01*
X188433710Y-105237884D01*
X188309026Y-105262075D01*
X188199440Y-105334061D01*
X188126085Y-105442735D01*
X188100304Y-105571290D01*
X188100304Y-109116111D01*
X186668416Y-110548000D01*
X183943875Y-110548000D01*
X184007625Y-110453555D01*
X184033406Y-110325000D01*
X184033406Y-109075000D01*
X184009215Y-108950316D01*
X183937229Y-108840730D01*
X183828555Y-108767375D01*
X183700000Y-108741594D01*
X182700000Y-108741594D01*
X182575316Y-108765785D01*
X182465730Y-108837771D01*
X182392375Y-108946445D01*
X182372009Y-109048000D01*
X180586888Y-109048000D01*
X180578555Y-109042375D01*
X180450000Y-109016594D01*
X178950000Y-109016594D01*
X178825316Y-109040785D01*
X178814332Y-109048000D01*
X176694500Y-109048000D01*
X176521527Y-109082406D01*
X176374888Y-109180388D01*
X176083391Y-109471885D01*
X176083388Y-109471887D01*
X176007275Y-109548000D01*
X165186888Y-109548000D01*
X165178555Y-109542375D01*
X165050000Y-109516594D01*
X163550000Y-109516594D01*
X163425316Y-109540785D01*
X163315730Y-109612771D01*
X163242375Y-109721445D01*
X163216594Y-109850000D01*
X163216594Y-110150000D01*
X163236317Y-110251654D01*
X163216594Y-110350000D01*
X163216594Y-110650000D01*
X163236317Y-110751654D01*
X163216594Y-110850000D01*
X163216594Y-111150000D01*
X163236317Y-111251654D01*
X163216594Y-111350000D01*
X163216594Y-111650000D01*
X163236317Y-111751654D01*
X163216594Y-111850000D01*
X163216594Y-112150000D01*
X163236317Y-112251654D01*
X163216594Y-112350000D01*
X163216594Y-112650000D01*
X163236317Y-112751654D01*
X163216594Y-112850000D01*
X163216594Y-113150000D01*
X163236317Y-113251654D01*
X163216594Y-113350000D01*
X163216594Y-113650000D01*
X163236317Y-113751654D01*
X163216594Y-113850000D01*
X163216594Y-114150000D01*
X163236317Y-114251654D01*
X163216594Y-114350000D01*
X163216594Y-114650000D01*
X163236317Y-114751654D01*
X163216594Y-114850000D01*
X163216594Y-115150000D01*
X163240785Y-115274684D01*
X163312771Y-115384270D01*
X163421445Y-115457625D01*
X163550000Y-115483406D01*
X165050000Y-115483406D01*
X165174684Y-115459215D01*
X165284270Y-115387229D01*
X165357625Y-115278555D01*
X165383406Y-115150000D01*
X165383406Y-114850000D01*
X165363683Y-114748346D01*
X165383406Y-114650000D01*
X165383406Y-114350000D01*
X165363683Y-114248346D01*
X165383406Y-114150000D01*
X165383406Y-113850000D01*
X165363683Y-113748346D01*
X165383406Y-113650000D01*
X165383406Y-113350000D01*
X165363683Y-113248346D01*
X165383406Y-113150000D01*
X165383406Y-112850000D01*
X165363683Y-112748346D01*
X165383406Y-112650000D01*
X165383406Y-112350000D01*
X165363683Y-112248346D01*
X165383406Y-112150000D01*
X165383406Y-111850000D01*
X165363683Y-111748346D01*
X165383406Y-111650000D01*
X165383406Y-111350000D01*
X165363683Y-111248346D01*
X165383406Y-111150000D01*
X165383406Y-110850000D01*
X165363683Y-110748346D01*
X165383406Y-110650000D01*
X165383406Y-110452000D01*
X176194500Y-110452000D01*
X176367473Y-110417594D01*
X176514112Y-110319612D01*
X176722613Y-110111112D01*
X176722615Y-110111109D01*
X176881724Y-109952000D01*
X178616594Y-109952000D01*
X178616594Y-110150000D01*
X178636317Y-110251654D01*
X178616594Y-110350000D01*
X178616594Y-110650000D01*
X178636317Y-110751654D01*
X178616594Y-110850000D01*
X178616594Y-111150000D01*
X178636317Y-111251654D01*
X178616594Y-111350000D01*
X178616594Y-111650000D01*
X178636317Y-111751654D01*
X178616594Y-111850000D01*
X178616594Y-112150000D01*
X178636317Y-112251654D01*
X178616594Y-112350000D01*
X178616594Y-112650000D01*
X178636317Y-112751654D01*
X178616594Y-112850000D01*
X178616594Y-113150000D01*
X178636317Y-113251654D01*
X178616594Y-113350000D01*
X178616594Y-113650000D01*
X178636317Y-113751654D01*
X178616594Y-113850000D01*
X178616594Y-114150000D01*
X178636317Y-114251654D01*
X178616594Y-114350000D01*
X178616594Y-114548000D01*
X177163224Y-114548000D01*
X176913112Y-114297888D01*
X176766473Y-114199906D01*
X176593500Y-114165500D01*
X166751000Y-114165500D01*
X166578027Y-114199906D01*
X166431387Y-114297888D01*
X165680388Y-115048888D01*
X165582406Y-115195527D01*
X165548000Y-115368500D01*
X165548000Y-115813112D01*
X165542375Y-115821445D01*
X165516594Y-115950000D01*
X165516594Y-116468000D01*
X163249052Y-116468000D01*
X163125631Y-116169297D01*
X162752666Y-115795681D01*
X162492000Y-115687442D01*
X162492000Y-110934317D01*
X162564684Y-110920215D01*
X162674270Y-110848229D01*
X162747625Y-110739555D01*
X162773406Y-110611000D01*
X162773406Y-109861000D01*
X162749215Y-109736316D01*
X162677229Y-109626730D01*
X162568555Y-109553375D01*
X162492000Y-109538022D01*
X162492000Y-109452000D01*
X163413112Y-109452000D01*
X163421445Y-109457625D01*
X163550000Y-109483406D01*
X165050000Y-109483406D01*
X165174684Y-109459215D01*
X165185668Y-109452000D01*
X165701000Y-109452000D01*
X165873973Y-109417594D01*
X166020612Y-109319612D01*
X166435613Y-108904612D01*
X166533594Y-108757973D01*
X166568000Y-108585000D01*
X166568000Y-104084000D01*
X173736000Y-104084000D01*
X173908973Y-104049594D01*
X174055612Y-103951612D01*
X174555224Y-103452000D01*
X178616594Y-103452000D01*
X178616594Y-103650000D01*
X178636317Y-103751654D01*
X178616594Y-103850000D01*
X178616594Y-104150000D01*
X178636317Y-104251654D01*
X178616594Y-104350000D01*
X178616594Y-104650000D01*
X178636317Y-104751654D01*
X178616594Y-104850000D01*
X178616594Y-105150000D01*
X178636317Y-105251654D01*
X178616594Y-105350000D01*
X178616594Y-105650000D01*
X178636317Y-105751654D01*
X178616594Y-105850000D01*
X178616594Y-106150000D01*
X178636317Y-106251654D01*
X178616594Y-106350000D01*
X178616594Y-106650000D01*
X178636317Y-106751654D01*
X178616594Y-106850000D01*
X178616594Y-107150000D01*
X178636317Y-107251654D01*
X178616594Y-107350000D01*
X178616594Y-107650000D01*
X178636317Y-107751654D01*
X178616594Y-107850000D01*
X178616594Y-108150000D01*
X178636317Y-108251654D01*
X178616594Y-108350000D01*
X178616594Y-108650000D01*
X178640785Y-108774684D01*
X178712771Y-108884270D01*
X178821445Y-108957625D01*
X178950000Y-108983406D01*
X180450000Y-108983406D01*
X180574684Y-108959215D01*
X180585668Y-108952000D01*
X181330000Y-108952000D01*
X181502973Y-108917594D01*
X181649612Y-108819612D01*
X182410819Y-108058406D01*
X182880000Y-108058406D01*
X183004684Y-108034215D01*
X183114270Y-107962229D01*
X183187625Y-107853555D01*
X183213406Y-107725000D01*
X183213406Y-106975000D01*
X183189215Y-106850316D01*
X183117229Y-106740730D01*
X183008555Y-106667375D01*
X182880000Y-106641594D01*
X182720717Y-106641594D01*
X182755112Y-106618612D01*
X182799925Y-106573799D01*
X182928821Y-106627321D01*
X183337387Y-106627678D01*
X183714989Y-106471656D01*
X184004140Y-106183008D01*
X184160821Y-105805679D01*
X184161178Y-105397113D01*
X184005156Y-105019511D01*
X183716508Y-104730360D01*
X183689150Y-104719000D01*
X184089776Y-104719000D01*
X185264595Y-105893819D01*
X185155179Y-106157321D01*
X185154822Y-106565887D01*
X185310844Y-106943489D01*
X185599492Y-107232640D01*
X185976821Y-107389321D01*
X186385387Y-107389678D01*
X186762989Y-107233656D01*
X187052140Y-106945008D01*
X187208821Y-106567679D01*
X187209178Y-106159113D01*
X187053156Y-105781511D01*
X186764508Y-105492360D01*
X186387179Y-105335679D01*
X185984551Y-105335327D01*
X184596612Y-103947388D01*
X184449973Y-103849406D01*
X184277000Y-103815000D01*
X181737000Y-103815000D01*
X181564027Y-103849406D01*
X181417388Y-103947388D01*
X180783406Y-104581370D01*
X180783406Y-104350000D01*
X180763683Y-104248346D01*
X180783406Y-104150000D01*
X180783406Y-103850000D01*
X180763683Y-103748346D01*
X180783406Y-103650000D01*
X180783406Y-103452000D01*
X184032000Y-103452000D01*
X184034986Y-103451406D01*
X184689000Y-103451406D01*
X184813684Y-103427215D01*
X184923270Y-103355229D01*
X184996625Y-103246555D01*
X185022406Y-103118000D01*
X185022406Y-102368000D01*
X184998215Y-102243316D01*
X184926229Y-102133730D01*
X184817555Y-102060375D01*
X184689000Y-102034594D01*
X183889000Y-102034594D01*
X183764316Y-102058785D01*
X183654730Y-102130771D01*
X183581375Y-102239445D01*
X183555594Y-102368000D01*
X183555594Y-102548000D01*
X180586888Y-102548000D01*
X180578555Y-102542375D01*
X180450000Y-102516594D01*
X178950000Y-102516594D01*
X178825316Y-102540785D01*
X178814332Y-102548000D01*
X174368000Y-102548000D01*
X174195027Y-102582406D01*
X174048388Y-102680388D01*
X173548776Y-103180000D01*
X166303224Y-103180000D01*
X165803612Y-102680388D01*
X165656973Y-102582406D01*
X165484000Y-102548000D01*
X165186888Y-102548000D01*
X165178555Y-102542375D01*
X165050000Y-102516594D01*
X164155818Y-102516594D01*
X162708406Y-101069182D01*
X162708406Y-100600000D01*
X162684215Y-100475316D01*
X162612229Y-100365730D01*
X162503555Y-100292375D01*
X162375000Y-100266594D01*
X161905818Y-100266594D01*
X160216224Y-98577000D01*
X162222995Y-98577000D01*
X162223000Y-98577001D01*
X162443808Y-98533078D01*
X162631001Y-98408001D01*
X164450001Y-96589000D01*
X164531266Y-96589000D01*
X164293360Y-96826492D01*
X164136679Y-97203821D01*
X164136343Y-97588601D01*
X163817113Y-97588322D01*
X163439511Y-97744344D01*
X163150360Y-98032992D01*
X162993679Y-98410321D01*
X162993322Y-98818887D01*
X163149344Y-99196489D01*
X163437992Y-99485640D01*
X163815321Y-99642321D01*
X164223887Y-99642678D01*
X164354490Y-99588714D01*
X165516594Y-100750818D01*
X165516594Y-102050000D01*
X165540785Y-102174684D01*
X165612771Y-102284270D01*
X165721445Y-102357625D01*
X165850000Y-102383406D01*
X166150000Y-102383406D01*
X166251654Y-102363683D01*
X166350000Y-102383406D01*
X166650000Y-102383406D01*
X166751654Y-102363683D01*
X166850000Y-102383406D01*
X167150000Y-102383406D01*
X167251654Y-102363683D01*
X167350000Y-102383406D01*
X167650000Y-102383406D01*
X167751654Y-102363683D01*
X167850000Y-102383406D01*
X168150000Y-102383406D01*
X168251654Y-102363683D01*
X168350000Y-102383406D01*
X168650000Y-102383406D01*
X168751654Y-102363683D01*
X168850000Y-102383406D01*
X169150000Y-102383406D01*
X169251654Y-102363683D01*
X169350000Y-102383406D01*
X169650000Y-102383406D01*
X169751654Y-102363683D01*
X169850000Y-102383406D01*
X170150000Y-102383406D01*
X170274684Y-102359215D01*
X170384270Y-102287229D01*
X170457625Y-102178555D01*
X170483406Y-102050000D01*
X170483406Y-100550000D01*
X170516594Y-100550000D01*
X170516594Y-102050000D01*
X170540785Y-102174684D01*
X170612771Y-102284270D01*
X170721445Y-102357625D01*
X170850000Y-102383406D01*
X171150000Y-102383406D01*
X171251654Y-102363683D01*
X171350000Y-102383406D01*
X171650000Y-102383406D01*
X171774684Y-102359215D01*
X171884270Y-102287229D01*
X171957625Y-102178555D01*
X171983406Y-102050000D01*
X171983406Y-100550000D01*
X171959215Y-100425316D01*
X171887229Y-100315730D01*
X171778555Y-100242375D01*
X171650000Y-100216594D01*
X171350000Y-100216594D01*
X171248346Y-100236317D01*
X171150000Y-100216594D01*
X170850000Y-100216594D01*
X170725316Y-100240785D01*
X170615730Y-100312771D01*
X170542375Y-100421445D01*
X170516594Y-100550000D01*
X170483406Y-100550000D01*
X170483406Y-100550000D01*
X170459215Y-100425316D01*
X170387229Y-100315730D01*
X170278555Y-100242375D01*
X170150000Y-100216594D01*
X169850000Y-100216594D01*
X169748346Y-100236317D01*
X169650000Y-100216594D01*
X169350000Y-100216594D01*
X169248346Y-100236317D01*
X169150000Y-100216594D01*
X168850000Y-100216594D01*
X168748346Y-100236317D01*
X168650000Y-100216594D01*
X168350000Y-100216594D01*
X168248346Y-100236317D01*
X168150000Y-100216594D01*
X167850000Y-100216594D01*
X167748346Y-100236317D01*
X167650000Y-100216594D01*
X167350000Y-100216594D01*
X167248346Y-100236317D01*
X167150000Y-100216594D01*
X166952000Y-100216594D01*
X166952000Y-98745500D01*
X166917594Y-98572527D01*
X166837060Y-98452000D01*
X166819612Y-98425887D01*
X166136799Y-97743074D01*
X166190321Y-97614179D01*
X166190678Y-97205613D01*
X166034656Y-96828011D01*
X165796061Y-96589000D01*
X167527998Y-96589000D01*
X169517999Y-98579001D01*
X169705192Y-98704078D01*
X169926000Y-98748000D01*
X169998596Y-98748000D01*
X170070369Y-98921703D01*
X170443334Y-99295319D01*
X170930885Y-99497769D01*
X171458798Y-99498229D01*
X171946703Y-99296631D01*
X172320319Y-98923666D01*
X172522769Y-98436115D01*
X172523229Y-97908202D01*
X172321631Y-97420297D01*
X171948666Y-97046681D01*
X171461115Y-96844231D01*
X170933202Y-96843771D01*
X170445297Y-97045369D01*
X170071681Y-97418334D01*
X170047521Y-97476519D01*
X168175001Y-95603999D01*
X167987808Y-95478922D01*
X167767000Y-95434999D01*
X167766995Y-95435000D01*
X164211005Y-95435000D01*
X164211000Y-95434999D01*
X163990192Y-95478922D01*
X163802999Y-95603999D01*
X163802997Y-95604002D01*
X161983998Y-97423000D01*
X158983406Y-97423000D01*
X158983406Y-97350000D01*
X158959215Y-97225316D01*
X158887229Y-97115730D01*
X158778555Y-97042375D01*
X158650000Y-97016594D01*
X157350000Y-97016594D01*
X157225316Y-97040785D01*
X157156484Y-97086000D01*
X154195866Y-97086000D01*
X154072551Y-96901446D01*
X153723147Y-96667982D01*
X153310997Y-96586000D01*
X152759003Y-96586000D01*
X152346853Y-96667982D01*
X151997449Y-96901446D01*
X151763985Y-97250850D01*
X151682003Y-97663000D01*
X151763985Y-98075150D01*
X151997449Y-98424554D01*
X152346853Y-98658018D01*
X152759003Y-98740000D01*
X153310997Y-98740000D01*
X153723147Y-98658018D01*
X154072551Y-98424554D01*
X154195866Y-98240000D01*
X157016594Y-98240000D01*
X157016594Y-98650000D01*
X157040785Y-98774684D01*
X157112771Y-98884270D01*
X157221445Y-98957625D01*
X157350000Y-98983406D01*
X158650000Y-98983406D01*
X158774684Y-98959215D01*
X158884270Y-98887229D01*
X158957625Y-98778555D01*
X158983406Y-98650000D01*
X158983406Y-98622630D01*
X161291594Y-100930818D01*
X161291594Y-101400000D01*
X161315785Y-101524684D01*
X161387771Y-101634270D01*
X161496445Y-101707625D01*
X161625000Y-101733406D01*
X162094182Y-101733406D01*
X163216594Y-102855818D01*
X163216594Y-103150000D01*
X163236317Y-103251654D01*
X163216594Y-103350000D01*
X163216594Y-103548000D01*
X160603760Y-103548000D01*
X160826640Y-103325508D01*
X160983321Y-102948179D01*
X160983678Y-102539613D01*
X160827656Y-102162011D01*
X160539008Y-101872860D01*
X160161679Y-101716179D01*
X159753113Y-101715822D01*
X159375511Y-101871844D01*
X159331278Y-101916000D01*
X156638975Y-101916000D01*
X156632229Y-101905730D01*
X156523555Y-101832375D01*
X156395000Y-101806594D01*
X155645000Y-101806594D01*
X155520316Y-101830785D01*
X155410730Y-101902771D01*
X155401800Y-101916000D01*
X153974604Y-101916000D01*
X153723147Y-101747982D01*
X153310997Y-101666000D01*
X152759003Y-101666000D01*
X152346853Y-101747982D01*
X152095396Y-101916000D01*
X151003000Y-101916000D01*
X150686521Y-101978952D01*
X150418222Y-102158223D01*
X150152446Y-102424000D01*
X150146746Y-102424000D01*
X149850377Y-102127113D01*
X149363013Y-101924741D01*
X148940928Y-101924373D01*
X146686500Y-99669946D01*
X146686500Y-98236000D01*
X148049254Y-98236000D01*
X148345623Y-98532887D01*
X148832987Y-98735259D01*
X149360697Y-98735719D01*
X149848414Y-98534199D01*
X150221887Y-98161377D01*
X150424259Y-97674013D01*
X150424719Y-97146303D01*
X150223199Y-96658586D01*
X149925000Y-96359866D01*
X149925000Y-91757500D01*
X149862048Y-91441021D01*
X149682777Y-91172723D01*
X148366906Y-89856852D01*
X148366906Y-89393000D01*
X148342715Y-89268316D01*
X148270729Y-89158730D01*
X148162055Y-89085375D01*
X148033500Y-89059594D01*
X146733500Y-89059594D01*
X146608816Y-89083785D01*
X146499230Y-89155771D01*
X146425875Y-89264445D01*
X146400094Y-89393000D01*
X146400094Y-90693000D01*
X146424285Y-90817684D01*
X146496271Y-90927270D01*
X146604945Y-91000625D01*
X146733500Y-91026406D01*
X147197352Y-91026406D01*
X148271000Y-92100054D01*
X148271000Y-96360254D01*
X148048866Y-96582000D01*
X146304000Y-96582000D01*
X145987521Y-96644952D01*
X145719223Y-96824223D01*
X145274723Y-97268723D01*
X145095452Y-97537021D01*
X145032500Y-97853500D01*
X145032500Y-100012500D01*
X145095452Y-100328979D01*
X145274723Y-100597277D01*
X147158777Y-102481332D01*
X147130521Y-102486952D01*
X146862223Y-102666223D01*
X144002571Y-105525875D01*
X143941613Y-105525822D01*
X143564011Y-105681844D01*
X143274860Y-105970492D01*
X143118179Y-106347821D01*
X143117822Y-106756387D01*
X143273844Y-107133989D01*
X143562492Y-107423140D01*
X143939821Y-107579821D01*
X144348387Y-107580178D01*
X144725989Y-107424156D01*
X145015140Y-107135508D01*
X145171821Y-106758179D01*
X145171876Y-106695678D01*
X147789554Y-104078000D01*
X148049254Y-104078000D01*
X148345623Y-104374887D01*
X148832987Y-104577259D01*
X149360697Y-104577719D01*
X149848414Y-104376199D01*
X150147134Y-104078000D01*
X150495000Y-104078000D01*
X150811479Y-104015048D01*
X151079777Y-103835777D01*
X151212554Y-103703000D01*
X152197776Y-103703000D01*
X150450388Y-105450388D01*
X150352406Y-105597027D01*
X150318000Y-105770000D01*
X150318000Y-107260776D01*
X149679406Y-106622182D01*
X149679406Y-106482500D01*
X149655215Y-106357816D01*
X149583229Y-106248230D01*
X149474555Y-106174875D01*
X149346000Y-106149094D01*
X148596000Y-106149094D01*
X148471316Y-106173285D01*
X148361730Y-106245271D01*
X148288375Y-106353945D01*
X148273022Y-106430500D01*
X147689000Y-106430500D01*
X147516027Y-106464906D01*
X147369388Y-106562888D01*
X146307276Y-107625000D01*
X143129000Y-107625000D01*
X142956027Y-107659406D01*
X142809388Y-107757388D01*
X140150388Y-110416388D01*
X140052406Y-110563027D01*
X140018000Y-110736000D01*
X140018000Y-111301683D01*
X139945316Y-111315785D01*
X139835730Y-111387771D01*
X139762375Y-111496445D01*
X139736594Y-111625000D01*
X139736594Y-112375000D01*
X139760785Y-112499684D01*
X139832771Y-112609270D01*
X139941445Y-112682625D01*
X140018000Y-112697978D01*
X140018000Y-112765056D01*
X139750613Y-112764822D01*
X139373011Y-112920844D01*
X139083860Y-113209492D01*
X138927179Y-113586821D01*
X138926822Y-113995387D01*
X139082844Y-114372989D01*
X139371492Y-114662140D01*
X139748821Y-114818821D01*
X140157387Y-114819178D01*
X140534989Y-114663156D01*
X140824140Y-114374508D01*
X140980821Y-113997179D01*
X140981178Y-113588613D01*
X140899256Y-113390346D01*
X140922000Y-113276000D01*
X140922000Y-113030572D01*
X141080000Y-113062000D01*
X141486594Y-113062000D01*
X141486594Y-113260000D01*
X141506317Y-113361654D01*
X141486594Y-113460000D01*
X141486594Y-113760000D01*
X141506317Y-113861654D01*
X141486594Y-113960000D01*
X141486594Y-114260000D01*
X141506317Y-114361654D01*
X141486594Y-114460000D01*
X141486594Y-114760000D01*
X141506317Y-114861654D01*
X141486594Y-114960000D01*
X141486594Y-115260000D01*
X141506317Y-115361654D01*
X141486594Y-115460000D01*
X141486594Y-115760000D01*
X141506317Y-115861654D01*
X141486594Y-115960000D01*
X141486594Y-116260000D01*
X141506317Y-116361654D01*
X141486594Y-116460000D01*
X141486594Y-116760000D01*
X141510785Y-116884684D01*
X141582771Y-116994270D01*
X141691445Y-117067625D01*
X141820000Y-117093406D01*
X143320000Y-117093406D01*
X143444684Y-117069215D01*
X143554270Y-116997229D01*
X143627625Y-116888555D01*
X143653406Y-116760000D01*
X143653406Y-116460000D01*
X143633683Y-116358346D01*
X143653406Y-116260000D01*
X143653406Y-115960000D01*
X143633683Y-115858346D01*
X143653406Y-115760000D01*
X143653406Y-115460000D01*
X143633683Y-115358346D01*
X143653406Y-115260000D01*
X143653406Y-114960000D01*
X143633683Y-114858346D01*
X143653406Y-114760000D01*
X143653406Y-114460000D01*
X143633683Y-114358346D01*
X143653406Y-114260000D01*
X143653406Y-113960000D01*
X143633683Y-113858346D01*
X143653406Y-113760000D01*
X143653406Y-113460000D01*
X143633683Y-113358346D01*
X143653406Y-113260000D01*
X143653406Y-112960000D01*
X143633683Y-112858346D01*
X143653406Y-112760000D01*
X143653406Y-112460000D01*
X143629215Y-112335316D01*
X143557229Y-112225730D01*
X143448555Y-112152375D01*
X143320000Y-112126594D01*
X141820000Y-112126594D01*
X141695316Y-112150785D01*
X141684332Y-112158000D01*
X141267224Y-112158000D01*
X141203406Y-112094182D01*
X141203406Y-111625000D01*
X141179215Y-111500316D01*
X141107229Y-111390730D01*
X140998555Y-111317375D01*
X140922000Y-111302022D01*
X140922000Y-110923224D01*
X143316224Y-108529000D01*
X146494500Y-108529000D01*
X146667473Y-108494594D01*
X146814112Y-108396612D01*
X147876224Y-107334500D01*
X148272683Y-107334500D01*
X148286785Y-107407184D01*
X148358771Y-107516770D01*
X148467445Y-107590125D01*
X148596000Y-107615906D01*
X149346000Y-107615906D01*
X149386772Y-107607996D01*
X149818000Y-108039224D01*
X149818000Y-110023112D01*
X149812375Y-110031445D01*
X149786594Y-110160000D01*
X149786594Y-111660000D01*
X149810785Y-111784684D01*
X149818000Y-111795668D01*
X149818000Y-112424000D01*
X149852406Y-112596973D01*
X149950388Y-112743612D01*
X150302388Y-113095612D01*
X150449027Y-113193594D01*
X150622000Y-113228000D01*
X155753775Y-113228000D01*
X154810888Y-114170888D01*
X154712906Y-114317527D01*
X154678500Y-114490500D01*
X154678500Y-119126000D01*
X154712906Y-119298973D01*
X154810888Y-119445612D01*
X155818000Y-120452725D01*
X155818000Y-125226594D01*
X155620000Y-125226594D01*
X155518346Y-125246317D01*
X155420000Y-125226594D01*
X155120000Y-125226594D01*
X155018346Y-125246317D01*
X154920000Y-125226594D01*
X154620000Y-125226594D01*
X154518346Y-125246317D01*
X154420000Y-125226594D01*
X154120000Y-125226594D01*
X154018346Y-125246317D01*
X153920000Y-125226594D01*
X153620000Y-125226594D01*
X153518346Y-125246317D01*
X153420000Y-125226594D01*
X153120000Y-125226594D01*
X153018346Y-125246317D01*
X152920000Y-125226594D01*
X152620000Y-125226594D01*
X152518346Y-125246317D01*
X152420000Y-125226594D01*
X152120000Y-125226594D01*
X152018346Y-125246317D01*
X151920000Y-125226594D01*
X151620000Y-125226594D01*
X151518346Y-125246317D01*
X151420000Y-125226594D01*
X151120000Y-125226594D01*
X151018346Y-125246317D01*
X150920000Y-125226594D01*
X150620000Y-125226594D01*
X150495316Y-125250785D01*
X150385730Y-125322771D01*
X150312375Y-125431445D01*
X150286594Y-125560000D01*
X150286594Y-127060000D01*
X150310785Y-127184684D01*
X150318000Y-127195668D01*
X150318000Y-128938000D01*
X150352406Y-129110973D01*
X150450388Y-129257612D01*
X151310594Y-130117818D01*
X151310594Y-130587000D01*
X151334785Y-130711684D01*
X151406771Y-130821270D01*
X151515445Y-130894625D01*
X151644000Y-130920406D01*
X152394000Y-130920406D01*
X152518684Y-130896215D01*
X152628270Y-130824229D01*
X152701625Y-130715555D01*
X152727406Y-130587000D01*
X152727406Y-129871630D01*
X154996000Y-132140224D01*
X154996000Y-136210776D01*
X154117776Y-137089000D01*
X152223899Y-137089000D01*
X152282480Y-137050519D01*
X152355835Y-136941845D01*
X152381616Y-136813290D01*
X152381616Y-136215000D01*
X153632927Y-136215000D01*
X153666445Y-136237625D01*
X153795000Y-136263406D01*
X154545000Y-136263406D01*
X154669684Y-136239215D01*
X154779270Y-136167229D01*
X154852625Y-136058555D01*
X154878406Y-135930000D01*
X154878406Y-135130000D01*
X154854215Y-135005316D01*
X154782229Y-134895730D01*
X154673555Y-134822375D01*
X154545000Y-134796594D01*
X153795000Y-134796594D01*
X153670316Y-134820785D01*
X153560730Y-134892771D01*
X153487375Y-135001445D01*
X153461594Y-135130000D01*
X153461594Y-135311000D01*
X152381616Y-135311000D01*
X152381616Y-134712710D01*
X152357425Y-134588026D01*
X152285439Y-134478440D01*
X152176765Y-134405085D01*
X152048210Y-134379304D01*
X148722000Y-134379304D01*
X148722000Y-131019127D01*
X148743771Y-131052270D01*
X148852445Y-131125625D01*
X148981000Y-131151406D01*
X150231000Y-131151406D01*
X150355684Y-131127215D01*
X150465270Y-131055229D01*
X150538625Y-130946555D01*
X150564406Y-130818000D01*
X150564406Y-129818000D01*
X150540215Y-129693316D01*
X150468229Y-129583730D01*
X150359555Y-129510375D01*
X150231000Y-129484594D01*
X150222000Y-129484594D01*
X150222000Y-127196888D01*
X150227625Y-127188555D01*
X150253406Y-127060000D01*
X150253406Y-125560000D01*
X150229215Y-125435316D01*
X150222000Y-125424332D01*
X150222000Y-124116000D01*
X150187594Y-123943027D01*
X150089612Y-123796388D01*
X149722000Y-123428776D01*
X149722000Y-111796888D01*
X149727625Y-111788555D01*
X149753406Y-111660000D01*
X149753406Y-110160000D01*
X149729215Y-110035316D01*
X149657229Y-109925730D01*
X149548555Y-109852375D01*
X149420000Y-109826594D01*
X149120000Y-109826594D01*
X149018346Y-109846317D01*
X148920000Y-109826594D01*
X148620000Y-109826594D01*
X148518346Y-109846317D01*
X148420000Y-109826594D01*
X148120000Y-109826594D01*
X148018346Y-109846317D01*
X147920000Y-109826594D01*
X147620000Y-109826594D01*
X147518346Y-109846317D01*
X147420000Y-109826594D01*
X147120000Y-109826594D01*
X147018346Y-109846317D01*
X146920000Y-109826594D01*
X146620000Y-109826594D01*
X146518346Y-109846317D01*
X146420000Y-109826594D01*
X146120000Y-109826594D01*
X146018346Y-109846317D01*
X145920000Y-109826594D01*
X145620000Y-109826594D01*
X145518346Y-109846317D01*
X145420000Y-109826594D01*
X145120000Y-109826594D01*
X145018346Y-109846317D01*
X144920000Y-109826594D01*
X144620000Y-109826594D01*
X144518346Y-109846317D01*
X144420000Y-109826594D01*
X144120000Y-109826594D01*
X143995316Y-109850785D01*
X143885730Y-109922771D01*
X143812375Y-110031445D01*
X143786594Y-110160000D01*
X143786594Y-111660000D01*
X143810785Y-111784684D01*
X143882771Y-111894270D01*
X143991445Y-111967625D01*
X144120000Y-111993406D01*
X144420000Y-111993406D01*
X144521654Y-111973683D01*
X144620000Y-111993406D01*
X144920000Y-111993406D01*
X145021654Y-111973683D01*
X145120000Y-111993406D01*
X145420000Y-111993406D01*
X145521654Y-111973683D01*
X145620000Y-111993406D01*
X145920000Y-111993406D01*
X146021654Y-111973683D01*
X146120000Y-111993406D01*
X146420000Y-111993406D01*
X146521654Y-111973683D01*
X146620000Y-111993406D01*
X146920000Y-111993406D01*
X147021654Y-111973683D01*
X147120000Y-111993406D01*
X147420000Y-111993406D01*
X147521654Y-111973683D01*
X147620000Y-111993406D01*
X147920000Y-111993406D01*
X148021654Y-111973683D01*
X148120000Y-111993406D01*
X148420000Y-111993406D01*
X148521654Y-111973683D01*
X148620000Y-111993406D01*
X148818000Y-111993406D01*
X148818000Y-123679500D01*
X148852406Y-123852473D01*
X148950388Y-123999112D01*
X149318000Y-124366724D01*
X149318000Y-125226594D01*
X149120000Y-125226594D01*
X149018346Y-125246317D01*
X148920000Y-125226594D01*
X148620000Y-125226594D01*
X148518346Y-125246317D01*
X148420000Y-125226594D01*
X148120000Y-125226594D01*
X148018346Y-125246317D01*
X147920000Y-125226594D01*
X147620000Y-125226594D01*
X147518346Y-125246317D01*
X147420000Y-125226594D01*
X147120000Y-125226594D01*
X147018346Y-125246317D01*
X146920000Y-125226594D01*
X146620000Y-125226594D01*
X146518346Y-125246317D01*
X146420000Y-125226594D01*
X146120000Y-125226594D01*
X146018346Y-125246317D01*
X145920000Y-125226594D01*
X145620000Y-125226594D01*
X145518346Y-125246317D01*
X145420000Y-125226594D01*
X145120000Y-125226594D01*
X145018346Y-125246317D01*
X144920000Y-125226594D01*
X144722000Y-125226594D01*
X144722000Y-118108000D01*
X144687594Y-117935027D01*
X144683064Y-117928248D01*
X144589612Y-117788387D01*
X144091612Y-117290388D01*
X143944973Y-117192406D01*
X143772000Y-117158000D01*
X143456888Y-117158000D01*
X143448555Y-117152375D01*
X143320000Y-117126594D01*
X141820000Y-117126594D01*
X141695316Y-117150785D01*
X141684332Y-117158000D01*
X140487225Y-117158000D01*
X140403406Y-117074181D01*
X140403406Y-116605000D01*
X140379215Y-116480316D01*
X140307229Y-116370730D01*
X140198555Y-116297375D01*
X140070000Y-116271594D01*
X139580318Y-116271594D01*
X138895299Y-115586575D01*
X138948821Y-115457679D01*
X138949178Y-115049113D01*
X138793156Y-114671511D01*
X138504508Y-114382360D01*
X138127179Y-114225679D01*
X137718613Y-114225322D01*
X137341011Y-114381344D01*
X137051860Y-114669992D01*
X136895179Y-115047321D01*
X136894822Y-115455887D01*
X137050844Y-115833489D01*
X137339492Y-116122640D01*
X137716821Y-116279321D01*
X138125387Y-116279678D01*
X138255990Y-116225714D01*
X138936594Y-116906318D01*
X138936594Y-117355000D01*
X138960785Y-117479684D01*
X139032771Y-117589270D01*
X139141445Y-117662625D01*
X139270000Y-117688406D01*
X139739181Y-117688406D01*
X139980388Y-117929613D01*
X140127027Y-118027594D01*
X140300000Y-118062000D01*
X141683112Y-118062000D01*
X141691445Y-118067625D01*
X141820000Y-118093406D01*
X143320000Y-118093406D01*
X143444684Y-118069215D01*
X143455668Y-118062000D01*
X143584776Y-118062000D01*
X143818000Y-118295225D01*
X143818000Y-125423112D01*
X143812375Y-125431445D01*
X143786594Y-125560000D01*
X143786594Y-127060000D01*
X143810785Y-127184684D01*
X143818000Y-127195668D01*
X143818000Y-128220519D01*
X143817375Y-128221445D01*
X143791594Y-128350000D01*
X143791594Y-129150000D01*
X143815785Y-129274684D01*
X143887771Y-129384270D01*
X143996445Y-129457625D01*
X144125000Y-129483406D01*
X144875000Y-129483406D01*
X144999684Y-129459215D01*
X145109270Y-129387229D01*
X145182625Y-129278555D01*
X145208406Y-129150000D01*
X145208406Y-128350000D01*
X145184215Y-128225316D01*
X145112229Y-128115730D01*
X145003555Y-128042375D01*
X144875000Y-128016594D01*
X144722000Y-128016594D01*
X144722000Y-127393406D01*
X144920000Y-127393406D01*
X145021654Y-127373683D01*
X145120000Y-127393406D01*
X145420000Y-127393406D01*
X145521654Y-127373683D01*
X145620000Y-127393406D01*
X145920000Y-127393406D01*
X146021654Y-127373683D01*
X146120000Y-127393406D01*
X146420000Y-127393406D01*
X146521654Y-127373683D01*
X146620000Y-127393406D01*
X146920000Y-127393406D01*
X147021654Y-127373683D01*
X147120000Y-127393406D01*
X147318000Y-127393406D01*
X147318000Y-131569775D01*
X143576776Y-135311000D01*
X142683896Y-135311000D01*
X142683896Y-134712710D01*
X142659705Y-134588026D01*
X142587719Y-134478440D01*
X142479045Y-134405085D01*
X142350490Y-134379304D01*
X136749790Y-134379304D01*
X136625106Y-134403495D01*
X136515520Y-134475481D01*
X136442165Y-134584155D01*
X136416384Y-134712710D01*
X136416384Y-135098000D01*
X135498317Y-135098000D01*
X135484215Y-135025316D01*
X135412229Y-134915730D01*
X135303555Y-134842375D01*
X135175000Y-134816594D01*
X134425000Y-134816594D01*
X134300316Y-134840785D01*
X134190730Y-134912771D01*
X134117375Y-135021445D01*
X134091594Y-135150000D01*
X134091594Y-135950000D01*
X134115785Y-136074684D01*
X134187771Y-136184270D01*
X134296445Y-136257625D01*
X134425000Y-136283406D01*
X135175000Y-136283406D01*
X135299684Y-136259215D01*
X135409270Y-136187229D01*
X135482625Y-136078555D01*
X135497978Y-136002000D01*
X136416384Y-136002000D01*
X136416384Y-136813290D01*
X136440575Y-136937974D01*
X136512561Y-137047560D01*
X136573954Y-137089000D01*
X134680224Y-137089000D01*
X133929000Y-136337776D01*
X133929000Y-130440224D01*
X134166398Y-130202826D01*
X134464885Y-130326769D01*
X134992798Y-130327229D01*
X135480703Y-130125631D01*
X135854319Y-129752666D01*
X136056769Y-129265115D01*
X136057229Y-128737202D01*
X135855631Y-128249297D01*
X135482666Y-127875681D01*
X135059582Y-127700000D01*
X138595446Y-127700000D01*
X138914430Y-128018984D01*
X138685681Y-128247334D01*
X138483231Y-128734885D01*
X138482771Y-129262798D01*
X138684369Y-129750703D01*
X139057334Y-130124319D01*
X139544885Y-130326769D01*
X140072798Y-130327229D01*
X140560703Y-130125631D01*
X140934319Y-129752666D01*
X141136769Y-129265115D01*
X141137229Y-128737202D01*
X140935631Y-128249297D01*
X140637000Y-127950145D01*
X140637000Y-122879933D01*
X140760640Y-122756508D01*
X140917321Y-122379179D01*
X140917678Y-121970613D01*
X140761656Y-121593011D01*
X140473008Y-121303860D01*
X140095679Y-121147179D01*
X139687113Y-121146822D01*
X139309511Y-121302844D01*
X139020360Y-121591492D01*
X138863679Y-121968821D01*
X138863322Y-122377387D01*
X138983000Y-122667030D01*
X138983000Y-126054951D01*
X138938000Y-126046000D01*
X127437000Y-126046000D01*
X127120521Y-126108952D01*
X126852223Y-126288223D01*
X125467309Y-127673137D01*
X125047202Y-127672771D01*
X124559297Y-127874369D01*
X124185681Y-128247334D01*
X123983231Y-128734885D01*
X123982771Y-129262798D01*
X124184369Y-129750703D01*
X124557334Y-130124319D01*
X125044885Y-130326769D01*
X125572798Y-130327229D01*
X126060703Y-130125631D01*
X126434319Y-129752666D01*
X126636769Y-129265115D01*
X126637137Y-128842417D01*
X127779554Y-127700000D01*
X131861303Y-127700000D01*
X131439297Y-127874369D01*
X131065681Y-128247334D01*
X130863231Y-128734885D01*
X130862771Y-129262798D01*
X131064369Y-129750703D01*
X131437334Y-130124319D01*
X131738000Y-130249167D01*
X131738000Y-136254000D01*
X131772406Y-136426973D01*
X131870388Y-136573612D01*
X133401775Y-138105000D01*
X122615225Y-138105000D01*
X120682000Y-136171776D01*
X120682000Y-130249052D01*
X120980703Y-130125631D01*
X121354319Y-129752666D01*
X121556769Y-129265115D01*
X121557229Y-128737202D01*
X121355631Y-128249297D01*
X120982666Y-127875681D01*
X120495115Y-127673231D01*
X119967202Y-127672771D01*
X119479297Y-127874369D01*
X119105681Y-128247334D01*
X118959891Y-128598433D01*
X118815631Y-128249297D01*
X118442666Y-127875681D01*
X117955115Y-127673231D01*
X117427202Y-127672771D01*
X116939297Y-127874369D01*
X116565681Y-128247334D01*
X116363231Y-128734885D01*
X116362771Y-129262798D01*
X110377000Y-129262798D01*
X110377000Y-108350000D01*
X114016594Y-108350000D01*
X114016594Y-109650000D01*
X114040785Y-109774684D01*
X114112771Y-109884270D01*
X114221445Y-109957625D01*
X114350000Y-109983406D01*
X115650000Y-109983406D01*
X115774684Y-109959215D01*
X115884270Y-109887229D01*
X115957625Y-109778555D01*
X115983406Y-109650000D01*
X115983406Y-109186148D01*
X118422554Y-106747000D01*
X122451254Y-106747000D01*
X122747623Y-107043887D01*
X123234987Y-107246259D01*
X123762697Y-107246719D01*
X124250414Y-107045199D01*
X124623887Y-106672377D01*
X124826259Y-106185013D01*
X124826719Y-105657303D01*
X124625199Y-105169586D01*
X124327000Y-104870866D01*
X124327000Y-104522500D01*
X131673946Y-104522500D01*
X132401010Y-105249565D01*
X132185925Y-105464275D01*
X131999783Y-105912554D01*
X131815340Y-105466168D01*
X131455725Y-105105925D01*
X130985625Y-104910722D01*
X130476608Y-104910278D01*
X130006168Y-105104660D01*
X129747377Y-105363000D01*
X129172352Y-105363000D01*
X128915725Y-105105925D01*
X128445625Y-104910722D01*
X127936608Y-104910278D01*
X127466168Y-105104660D01*
X127105925Y-105464275D01*
X126910722Y-105934375D01*
X126910278Y-106443392D01*
X127104660Y-106913832D01*
X127363000Y-107172623D01*
X127363000Y-112827648D01*
X127105925Y-113084275D01*
X126910722Y-113554375D01*
X126910403Y-113920043D01*
X125577446Y-115253000D01*
X124548746Y-115253000D01*
X124252377Y-114956113D01*
X123765013Y-114753741D01*
X123237303Y-114753281D01*
X122749586Y-114954801D01*
X122376113Y-115327623D01*
X122173741Y-115814987D01*
X122173281Y-116342697D01*
X122374801Y-116830414D01*
X122747623Y-117203887D01*
X123234987Y-117406259D01*
X123762697Y-117406719D01*
X124250414Y-117205199D01*
X124549134Y-116907000D01*
X125920000Y-116907000D01*
X126236479Y-116844048D01*
X126504777Y-116664777D01*
X128080149Y-115089405D01*
X128443392Y-115089722D01*
X128913832Y-114895340D01*
X129274075Y-114535725D01*
X129460217Y-114087446D01*
X129644660Y-114533832D01*
X129673000Y-114562221D01*
X129673000Y-117167104D01*
X129500510Y-117167104D01*
X129375826Y-117191295D01*
X129266240Y-117263281D01*
X129192885Y-117371955D01*
X129167104Y-117500510D01*
X129167104Y-119499490D01*
X129191295Y-119624174D01*
X129263281Y-119733760D01*
X129371955Y-119807115D01*
X129500510Y-119832896D01*
X131499490Y-119832896D01*
X131624174Y-119808705D01*
X131733760Y-119736719D01*
X131807115Y-119628045D01*
X131832896Y-119499490D01*
X131832896Y-117500510D01*
X131808705Y-117375826D01*
X131736719Y-117266240D01*
X131628045Y-117192885D01*
X131499490Y-117167104D01*
X131327000Y-117167104D01*
X131327000Y-114947746D01*
X131453832Y-114895340D01*
X131814075Y-114535725D01*
X132000217Y-114087446D01*
X132184660Y-114533832D01*
X132443000Y-114792623D01*
X132443000Y-120770000D01*
X132505952Y-121086479D01*
X132685223Y-121354777D01*
X134466594Y-123136148D01*
X134466594Y-123700000D01*
X134490785Y-123824684D01*
X134562771Y-123934270D01*
X134671445Y-124007625D01*
X134800000Y-124033406D01*
X136200000Y-124033406D01*
X136324684Y-124009215D01*
X136434270Y-123937229D01*
X136507625Y-123828555D01*
X136533406Y-123700000D01*
X136533406Y-122300000D01*
X136509215Y-122175316D01*
X136437229Y-122065730D01*
X136328555Y-121992375D01*
X136200000Y-121966594D01*
X135636148Y-121966594D01*
X134097000Y-120427446D01*
X134097000Y-118955000D01*
X139056594Y-118955000D01*
X139056594Y-120205000D01*
X139080785Y-120329684D01*
X139152771Y-120439270D01*
X139261445Y-120512625D01*
X139390000Y-120538406D01*
X140390000Y-120538406D01*
X140514684Y-120514215D01*
X140624270Y-120442229D01*
X140697625Y-120333555D01*
X140723406Y-120205000D01*
X140723406Y-119385818D01*
X141047224Y-119062000D01*
X141486594Y-119062000D01*
X141486594Y-119260000D01*
X141506317Y-119361654D01*
X141486594Y-119460000D01*
X141486594Y-119760000D01*
X141506317Y-119861654D01*
X141486594Y-119960000D01*
X141486594Y-120260000D01*
X141506317Y-120361654D01*
X141486594Y-120460000D01*
X141486594Y-120760000D01*
X141506317Y-120861654D01*
X141486594Y-120960000D01*
X141486594Y-121260000D01*
X141506317Y-121361654D01*
X141486594Y-121460000D01*
X141486594Y-121760000D01*
X141506317Y-121861654D01*
X141486594Y-121960000D01*
X141486594Y-122260000D01*
X141506317Y-122361654D01*
X141486594Y-122460000D01*
X141486594Y-122760000D01*
X141506317Y-122861654D01*
X141486594Y-122960000D01*
X141486594Y-123260000D01*
X141506317Y-123361654D01*
X141486594Y-123460000D01*
X141486594Y-123760000D01*
X141506317Y-123861654D01*
X141486594Y-123960000D01*
X141486594Y-124260000D01*
X141506317Y-124361654D01*
X141486594Y-124460000D01*
X141486594Y-124760000D01*
X141510785Y-124884684D01*
X141582771Y-124994270D01*
X141691445Y-125067625D01*
X141820000Y-125093406D01*
X143320000Y-125093406D01*
X143444684Y-125069215D01*
X143554270Y-124997229D01*
X143627625Y-124888555D01*
X143653406Y-124760000D01*
X143653406Y-124460000D01*
X143633683Y-124358346D01*
X143653406Y-124260000D01*
X143653406Y-123960000D01*
X143633683Y-123858346D01*
X143653406Y-123760000D01*
X143653406Y-123460000D01*
X143633683Y-123358346D01*
X143653406Y-123260000D01*
X143653406Y-122960000D01*
X143633683Y-122858346D01*
X143653406Y-122760000D01*
X143653406Y-122460000D01*
X143633683Y-122358346D01*
X143653406Y-122260000D01*
X143653406Y-121960000D01*
X143633683Y-121858346D01*
X143653406Y-121760000D01*
X143653406Y-121460000D01*
X143633683Y-121358346D01*
X143653406Y-121260000D01*
X143653406Y-120960000D01*
X143633683Y-120858346D01*
X143653406Y-120760000D01*
X143653406Y-120460000D01*
X143633683Y-120358346D01*
X143653406Y-120260000D01*
X143653406Y-119960000D01*
X143633683Y-119858346D01*
X143653406Y-119760000D01*
X143653406Y-119460000D01*
X143633683Y-119358346D01*
X143653406Y-119260000D01*
X143653406Y-118960000D01*
X143633683Y-118858346D01*
X143653406Y-118760000D01*
X143653406Y-118460000D01*
X143629215Y-118335316D01*
X143557229Y-118225730D01*
X143448555Y-118152375D01*
X143320000Y-118126594D01*
X141820000Y-118126594D01*
X141695316Y-118150785D01*
X141684332Y-118158000D01*
X140860000Y-118158000D01*
X140687027Y-118192406D01*
X140540388Y-118290388D01*
X140209182Y-118621594D01*
X139390000Y-118621594D01*
X139265316Y-118645785D01*
X139155730Y-118717771D01*
X139082375Y-118826445D01*
X139056594Y-118955000D01*
X134097000Y-118955000D01*
X134097000Y-114792352D01*
X134354075Y-114535725D01*
X134549278Y-114065625D01*
X134549722Y-113556608D01*
X134355340Y-113086168D01*
X133995725Y-112725925D01*
X133525625Y-112530722D01*
X133016608Y-112530278D01*
X132546168Y-112724660D01*
X132185925Y-113084275D01*
X131999783Y-113532554D01*
X131815340Y-113086168D01*
X131710704Y-112981350D01*
X134264055Y-110428000D01*
X136715500Y-110428000D01*
X137031979Y-110365048D01*
X137300277Y-110185777D01*
X139522778Y-107963277D01*
X139702048Y-107694979D01*
X139765000Y-107378500D01*
X139765000Y-104299746D01*
X140061887Y-104003377D01*
X140264259Y-103516013D01*
X140264719Y-102988303D01*
X140063199Y-102500586D01*
X139690377Y-102127113D01*
X139203013Y-101924741D01*
X138675303Y-101924281D01*
X138187586Y-102125801D01*
X137814113Y-102498623D01*
X137611741Y-102985987D01*
X137611281Y-103513697D01*
X137812801Y-104001414D01*
X138111000Y-104300134D01*
X138111000Y-107035945D01*
X136372946Y-108774000D01*
X133921500Y-108774000D01*
X133605021Y-108836952D01*
X133336723Y-109016222D01*
X130145223Y-112207723D01*
X129965952Y-112476021D01*
X129903000Y-112792500D01*
X129903000Y-112827648D01*
X129645925Y-113084275D01*
X129459783Y-113532554D01*
X129275340Y-113086168D01*
X129017000Y-112827377D01*
X129017000Y-107172352D01*
X129172623Y-107017000D01*
X129747648Y-107017000D01*
X130004275Y-107274075D01*
X130474375Y-107469278D01*
X130983392Y-107469722D01*
X131453832Y-107275340D01*
X131814075Y-106915725D01*
X132000217Y-106467446D01*
X132184660Y-106913832D01*
X132544275Y-107274075D01*
X133014375Y-107469278D01*
X133523392Y-107469722D01*
X133993832Y-107275340D01*
X134354075Y-106915725D01*
X134540217Y-106467446D01*
X134724660Y-106913832D01*
X135084275Y-107274075D01*
X135554375Y-107469278D01*
X136063392Y-107469722D01*
X136533832Y-107275340D01*
X136894075Y-106915725D01*
X137089278Y-106445625D01*
X137089722Y-105936608D01*
X136976539Y-105662685D01*
X137352612Y-105286612D01*
X137450594Y-105139973D01*
X137459937Y-105093000D01*
X137485000Y-104967000D01*
X137485000Y-102041224D01*
X138129030Y-101397195D01*
X138185623Y-101453887D01*
X138672987Y-101656259D01*
X139200697Y-101656719D01*
X139688414Y-101455199D01*
X140061887Y-101082377D01*
X140264259Y-100595013D01*
X140264719Y-100067303D01*
X140063199Y-99579586D01*
X139690377Y-99206113D01*
X139390000Y-99081385D01*
X139390000Y-98657501D01*
X139688414Y-98534199D01*
X140061887Y-98161377D01*
X140264259Y-97674013D01*
X140264719Y-97146303D01*
X140063199Y-96658586D01*
X139690377Y-96285113D01*
X139203013Y-96082741D01*
X138675303Y-96082281D01*
X138187586Y-96283801D01*
X137814113Y-96656623D01*
X137611741Y-97143987D01*
X137611281Y-97671697D01*
X137812801Y-98159414D01*
X138185623Y-98532887D01*
X138486000Y-98657615D01*
X138486000Y-99081499D01*
X138187586Y-99204801D01*
X137814113Y-99577623D01*
X137611741Y-100064987D01*
X137611281Y-100592697D01*
X137624087Y-100623689D01*
X136713388Y-101534388D01*
X136615406Y-101681027D01*
X136581000Y-101854000D01*
X136581000Y-104779776D01*
X136337261Y-105023515D01*
X136065625Y-104910722D01*
X135556608Y-104910278D01*
X135086168Y-105104660D01*
X134725925Y-105464275D01*
X134539783Y-105912554D01*
X134355340Y-105466168D01*
X134097000Y-105207377D01*
X134097000Y-104949000D01*
X134034048Y-104632521D01*
X134022829Y-104615730D01*
X133854778Y-104364223D01*
X132601277Y-103110723D01*
X132332979Y-102931452D01*
X132016500Y-102868500D01*
X124327000Y-102868500D01*
X124327000Y-99346554D01*
X126961554Y-96712000D01*
X131000500Y-96712000D01*
X131316979Y-96649048D01*
X131585277Y-96469777D01*
X131764548Y-96201479D01*
X131827500Y-95885000D01*
X131827500Y-94957554D01*
X136677054Y-90108000D01*
X137371621Y-90108000D01*
X137323240Y-90139781D01*
X137249885Y-90248455D01*
X137224104Y-90377010D01*
X137224104Y-91539842D01*
X136433705Y-92330241D01*
X136261377Y-92157613D01*
X135774013Y-91955241D01*
X135246303Y-91954781D01*
X134758586Y-92156301D01*
X134385113Y-92529123D01*
X134182741Y-93016487D01*
X134182281Y-93544197D01*
X134383801Y-94031914D01*
X134756623Y-94405387D01*
X135243987Y-94607759D01*
X135771697Y-94608219D01*
X136259414Y-94406699D01*
X136558134Y-94108500D01*
X136652000Y-94108500D01*
X136968479Y-94045548D01*
X137236777Y-93866277D01*
X138393658Y-92709396D01*
X139556490Y-92709396D01*
X139681174Y-92685205D01*
X139790760Y-92613219D01*
X139864115Y-92504545D01*
X139889896Y-92375990D01*
X139889896Y-90377010D01*
X139865705Y-90252326D01*
X139793719Y-90142740D01*
X139742252Y-90108000D01*
X141540000Y-90108000D01*
X141540000Y-90327754D01*
X141243113Y-90624123D01*
X141040741Y-91111487D01*
X141040281Y-91639197D01*
X141241801Y-92126914D01*
X141614623Y-92500387D01*
X142101987Y-92702759D01*
X142629697Y-92703219D01*
X143117414Y-92501699D01*
X143490887Y-92128877D01*
X143693259Y-91641513D01*
X143693719Y-91113803D01*
X143492199Y-90626086D01*
X143194000Y-90327366D01*
X143194000Y-87736641D01*
X143312769Y-87450615D01*
X143313229Y-86922702D01*
X143111631Y-86434797D01*
X142738666Y-86061181D01*
X142251115Y-85858731D01*
X141723202Y-85858271D01*
X141235297Y-86059869D01*
X140861681Y-86432834D01*
X140715891Y-86783933D01*
X140571631Y-86434797D01*
X140400000Y-86262866D01*
X140400000Y-86004054D01*
X140995054Y-85409000D01*
X145415000Y-85409000D01*
X145731479Y-85346048D01*
X145999777Y-85166777D01*
X148361054Y-82805500D01*
X156767703Y-82805500D01*
X156729297Y-82821369D01*
X156355681Y-83194334D01*
X156153231Y-83681885D01*
X156152771Y-84209798D01*
X156354369Y-84697703D01*
X156727334Y-85071319D01*
X157028000Y-85196167D01*
X157028000Y-88328500D01*
X157062406Y-88501473D01*
X157160388Y-88648112D01*
X159110201Y-90597925D01*
X159056679Y-90726821D01*
X159056322Y-91135387D01*
X159212344Y-91512989D01*
X159500992Y-91802140D01*
X159878321Y-91958821D01*
X160286887Y-91959178D01*
X160664489Y-91803156D01*
X160953640Y-91514508D01*
X161088330Y-91190140D01*
X161088322Y-91198887D01*
X161244344Y-91576489D01*
X161532992Y-91865640D01*
X161910321Y-92022321D01*
X162318887Y-92022678D01*
X162696489Y-91866656D01*
X162985640Y-91578008D01*
X163142321Y-91200679D01*
X163142678Y-90792113D01*
X162986656Y-90414511D01*
X162698008Y-90125360D01*
X162320679Y-89968679D01*
X161912113Y-89968322D01*
X161781510Y-90022286D01*
X160472000Y-88712776D01*
X160472000Y-87312500D01*
X168902500Y-87312500D01*
X168902500Y-89725500D01*
X168936906Y-89898473D01*
X169034888Y-90045112D01*
X169860388Y-90870612D01*
X169904396Y-90900018D01*
X170070369Y-91301703D01*
X170443334Y-91675319D01*
X170794433Y-91821109D01*
X170445297Y-91965369D01*
X170071681Y-92338334D01*
X169869231Y-92825885D01*
X169868771Y-93353798D01*
X170070369Y-93841703D01*
X170443334Y-94215319D01*
X170930885Y-94417769D01*
X171458798Y-94418229D01*
X171946703Y-94216631D01*
X172291105Y-93872829D01*
X172548000Y-94129724D01*
X172548000Y-100413112D01*
X172542375Y-100421445D01*
X172516594Y-100550000D01*
X172516594Y-102050000D01*
X172540785Y-102174684D01*
X172612771Y-102284270D01*
X172721445Y-102357625D01*
X172850000Y-102383406D01*
X173150000Y-102383406D01*
X173251654Y-102363683D01*
X173350000Y-102383406D01*
X173650000Y-102383406D01*
X173751654Y-102363683D01*
X173850000Y-102383406D01*
X174150000Y-102383406D01*
X174251654Y-102363683D01*
X174350000Y-102383406D01*
X174650000Y-102383406D01*
X174751654Y-102363683D01*
X174850000Y-102383406D01*
X175150000Y-102383406D01*
X175251654Y-102363683D01*
X175350000Y-102383406D01*
X175650000Y-102383406D01*
X175751654Y-102363683D01*
X175850000Y-102383406D01*
X176150000Y-102383406D01*
X176251654Y-102363683D01*
X176350000Y-102383406D01*
X176650000Y-102383406D01*
X176751654Y-102363683D01*
X176850000Y-102383406D01*
X177150000Y-102383406D01*
X177251654Y-102363683D01*
X177350000Y-102383406D01*
X177650000Y-102383406D01*
X177751654Y-102363683D01*
X177850000Y-102383406D01*
X178150000Y-102383406D01*
X178274684Y-102359215D01*
X178384270Y-102287229D01*
X178457625Y-102178555D01*
X178483406Y-102050000D01*
X178483406Y-100550000D01*
X178459215Y-100425316D01*
X178452000Y-100414332D01*
X178452000Y-99174224D01*
X181035224Y-96591000D01*
X184658000Y-96591000D01*
X184830973Y-96556594D01*
X184977612Y-96458612D01*
X187009612Y-94426612D01*
X187107594Y-94279973D01*
X187142000Y-94107000D01*
X187142000Y-89403093D01*
X195378796Y-89403093D01*
X195557606Y-89835846D01*
X195888412Y-90167230D01*
X196320853Y-90346795D01*
X196789093Y-90347204D01*
X197221846Y-90168394D01*
X197553230Y-89837588D01*
X197732795Y-89405147D01*
X197733204Y-88936907D01*
X197554394Y-88504154D01*
X197223588Y-88172770D01*
X196791147Y-87993205D01*
X196322907Y-87992796D01*
X195890154Y-88171606D01*
X195558770Y-88502412D01*
X195379205Y-88934853D01*
X195378796Y-89403093D01*
X187142000Y-89403093D01*
X187142000Y-85132552D01*
X187440703Y-85009131D01*
X187814319Y-84636166D01*
X188016769Y-84148615D01*
X188017229Y-83620702D01*
X187815631Y-83132797D01*
X187442666Y-82759181D01*
X186955115Y-82556731D01*
X186427202Y-82556271D01*
X185939297Y-82757869D01*
X185565681Y-83130834D01*
X185419891Y-83481933D01*
X185275631Y-83132797D01*
X184902666Y-82759181D01*
X184415115Y-82556731D01*
X183887202Y-82556271D01*
X183399297Y-82757869D01*
X183025681Y-83130834D01*
X182823231Y-83618385D01*
X182822771Y-84146298D01*
X183024369Y-84634203D01*
X183397334Y-85007819D01*
X183698000Y-85132667D01*
X183698000Y-93411775D01*
X182565776Y-94544000D01*
X180721000Y-94544000D01*
X180548027Y-94578406D01*
X180401388Y-94676388D01*
X177180388Y-97897388D01*
X177082406Y-98044027D01*
X177048000Y-98217000D01*
X177048000Y-100216594D01*
X176850000Y-100216594D01*
X176748346Y-100236317D01*
X176650000Y-100216594D01*
X176452000Y-100216594D01*
X176452000Y-90084500D01*
X176417594Y-89911527D01*
X176319612Y-89764888D01*
X172658612Y-86103888D01*
X172511973Y-86005906D01*
X172339000Y-85971500D01*
X170243500Y-85971500D01*
X170070527Y-86005906D01*
X169923888Y-86103888D01*
X169034888Y-86992888D01*
X168936906Y-87139527D01*
X168902500Y-87312500D01*
X160472000Y-87312500D01*
X160472000Y-85196052D01*
X160770703Y-85072631D01*
X161144319Y-84699666D01*
X161346769Y-84212115D01*
X161347229Y-83684202D01*
X161145631Y-83196297D01*
X160772666Y-82822681D01*
X160731290Y-82805500D01*
X174028446Y-82805500D01*
X180529000Y-89306054D01*
X180529000Y-91074893D01*
X180322440Y-91160242D01*
X179808048Y-91673736D01*
X179529318Y-92344993D01*
X179528684Y-93071818D01*
X179806242Y-93743560D01*
X180319736Y-94257952D01*
X180990993Y-94536682D01*
X181717818Y-94537316D01*
X182389560Y-94259758D01*
X182903952Y-93746264D01*
X183182682Y-93075007D01*
X183183316Y-92348182D01*
X182905758Y-91676440D01*
X182392264Y-91162048D01*
X182183000Y-91075154D01*
X182183000Y-88963500D01*
X182120048Y-88647021D01*
X181940777Y-88378723D01*
X176163145Y-82601091D01*
X176035277Y-82409723D01*
X175843909Y-82281855D01*
X174955777Y-81393723D01*
X174687479Y-81214452D01*
X174371000Y-81151500D01*
X148018500Y-81151500D01*
X147702021Y-81214452D01*
X147433723Y-81393723D01*
X145072446Y-83755000D01*
X140652500Y-83755000D01*
X140336021Y-83817952D01*
X140067723Y-83997223D01*
X139383190Y-84681756D01*
X139256521Y-84706952D01*
X138988223Y-84886223D01*
X138808952Y-85154521D01*
X138746000Y-85471000D01*
X138746000Y-86038919D01*
X138695297Y-86059869D01*
X138396145Y-86358500D01*
X137955467Y-86358500D01*
X137658666Y-86061181D01*
X137171115Y-85858731D01*
X136643202Y-85858271D01*
X136155297Y-86059869D01*
X135856145Y-86358500D01*
X133394500Y-86358500D01*
X133078021Y-86421452D01*
X132809722Y-86600723D01*
X129071418Y-90339027D01*
X128865007Y-90253318D01*
X128138182Y-90252684D01*
X127466440Y-90530242D01*
X126952048Y-91043736D01*
X126673318Y-91714993D01*
X126672684Y-92441818D01*
X126950242Y-93113560D01*
X127463736Y-93627952D01*
X128134993Y-93906682D01*
X128861818Y-93907316D01*
X129533560Y-93629758D01*
X130047952Y-93116264D01*
X130326682Y-92445007D01*
X130327316Y-91718182D01*
X130240787Y-91508767D01*
X133737055Y-88012500D01*
X135856533Y-88012500D01*
X136153334Y-88309819D01*
X136500558Y-88454000D01*
X136334500Y-88454000D01*
X136018021Y-88516952D01*
X135749723Y-88696223D01*
X130415723Y-94030223D01*
X130236452Y-94298521D01*
X130173500Y-94615000D01*
X130173500Y-95058000D01*
X126619000Y-95058000D01*
X126302521Y-95120952D01*
X126034223Y-95300223D01*
X122915223Y-98419223D01*
X122735952Y-98687521D01*
X122673000Y-99004000D01*
X122673000Y-104871254D01*
X122450866Y-105093000D01*
X118080000Y-105093000D01*
X117763521Y-105155952D01*
X117495223Y-105335223D01*
X114813852Y-108016594D01*
X114350000Y-108016594D01*
X114225316Y-108040785D01*
X114115730Y-108112771D01*
X114042375Y-108221445D01*
X114016594Y-108350000D01*
X110377000Y-108350000D01*
X110377000Y-103773093D01*
X112122796Y-103773093D01*
X112301606Y-104205846D01*
X112632412Y-104537230D01*
X113064853Y-104716795D01*
X113533093Y-104717204D01*
X113965846Y-104538394D01*
X114297230Y-104207588D01*
X114476795Y-103775147D01*
X114477204Y-103306907D01*
X114298394Y-102874154D01*
X113967588Y-102542770D01*
X113535147Y-102363205D01*
X113066907Y-102362796D01*
X112634154Y-102541606D01*
X112302770Y-102872412D01*
X112123205Y-103304853D01*
X112122796Y-103773093D01*
X110377000Y-103773093D01*
X110377000Y-88773093D01*
X112122796Y-88773093D01*
X112301606Y-89205846D01*
X112632412Y-89537230D01*
X113064853Y-89716795D01*
X113533093Y-89717204D01*
X113965846Y-89538394D01*
X114297230Y-89207588D01*
X114476795Y-88775147D01*
X114477204Y-88306907D01*
X114298394Y-87874154D01*
X113967588Y-87542770D01*
X113535147Y-87363205D01*
X113066907Y-87362796D01*
X112634154Y-87541606D01*
X112302770Y-87872412D01*
X112123205Y-88304853D01*
X112122796Y-88773093D01*
X110377000Y-88773093D01*
X110377000Y-83506306D01*
X110420903Y-83612559D01*
X111074997Y-84267797D01*
X111930050Y-84622846D01*
X112855888Y-84623654D01*
X113711559Y-84270097D01*
X114366797Y-83616003D01*
X114721846Y-82760950D01*
X114722188Y-82368298D01*
X135578771Y-82368298D01*
X135780369Y-82856203D01*
X136153334Y-83229819D01*
X136640885Y-83432269D01*
X137168798Y-83432729D01*
X137656703Y-83231131D01*
X138030319Y-82858166D01*
X138176109Y-82507067D01*
X138320369Y-82856203D01*
X138693334Y-83229819D01*
X139180885Y-83432269D01*
X139708798Y-83432729D01*
X140196703Y-83231131D01*
X140570319Y-82858166D01*
X140716109Y-82507067D01*
X140860369Y-82856203D01*
X141233334Y-83229819D01*
X141720885Y-83432269D01*
X142248798Y-83432729D01*
X142736703Y-83231131D01*
X143110319Y-82858166D01*
X143312769Y-82370615D01*
X143313229Y-81842702D01*
X143111631Y-81354797D01*
X142738666Y-80981181D01*
X142251115Y-80778731D01*
X141723202Y-80778271D01*
X141235297Y-80979869D01*
X140861681Y-81352834D01*
X140715891Y-81703933D01*
X140571631Y-81354797D01*
X140198666Y-80981181D01*
X139711115Y-80778731D01*
X139183202Y-80778271D01*
X138695297Y-80979869D01*
X138321681Y-81352834D01*
X138175891Y-81703933D01*
X138031631Y-81354797D01*
X137658666Y-80981181D01*
X137171115Y-80778731D01*
X136643202Y-80778271D01*
X136155297Y-80979869D01*
X135781681Y-81352834D01*
X135579231Y-81840385D01*
X135578771Y-82368298D01*
X114722188Y-82368298D01*
X114722654Y-81835112D01*
X114369097Y-80979441D01*
X113767708Y-80377000D01*
X196367248Y-80377000D01*
X195767203Y-80975997D01*
X195767203Y-80975997D01*
G37*
X195767203Y-80975997D02*
X195412154Y-81831050D01*
X195411346Y-82756888D01*
X195764903Y-83612559D01*
X196418997Y-84267797D01*
X197274050Y-84622846D01*
X198199888Y-84623654D01*
X199055559Y-84270097D01*
X199623000Y-83703647D01*
X199623000Y-136134186D01*
X199059003Y-135569203D01*
X198203950Y-135214154D01*
X197278112Y-135213346D01*
X196422441Y-135566903D01*
X195767203Y-136220997D01*
X195412154Y-137076050D01*
X195411346Y-138001888D01*
X195764903Y-138857559D01*
X196418997Y-139512797D01*
X196684395Y-139623000D01*
X113450414Y-139623000D01*
X113711559Y-139515097D01*
X114366797Y-138861003D01*
X114721846Y-138005950D01*
X114722654Y-137080112D01*
X114369097Y-136224441D01*
X113715003Y-135569203D01*
X112859950Y-135214154D01*
X111934112Y-135213346D01*
X111078441Y-135566903D01*
X110423203Y-136220997D01*
X110377000Y-136332266D01*
X110377000Y-129262798D01*
X116362771Y-129262798D01*
X116564369Y-129750703D01*
X116937334Y-130124319D01*
X117238000Y-130249167D01*
X117238000Y-138137000D01*
X117272406Y-138309973D01*
X117370388Y-138456612D01*
X118298388Y-139384612D01*
X118445027Y-139482594D01*
X118618000Y-139517000D01*
X155194000Y-139517000D01*
X155366973Y-139482594D01*
X155513612Y-139384612D01*
X157188551Y-137709673D01*
X157189406Y-137713973D01*
X157287388Y-137860612D01*
X158176388Y-138749612D01*
X158323027Y-138847594D01*
X158496000Y-138882000D01*
X185420000Y-138882000D01*
X185592973Y-138847594D01*
X185739612Y-138749612D01*
X187049612Y-137439612D01*
X187147594Y-137292973D01*
X187182000Y-137120000D01*
X187182000Y-130249052D01*
X187480703Y-130125631D01*
X187854319Y-129752666D01*
X188056769Y-129265115D01*
X188057229Y-128737202D01*
X187855631Y-128249297D01*
X187482666Y-127875681D01*
X186995115Y-127673231D01*
X186467202Y-127672771D01*
X185979297Y-127874369D01*
X185605681Y-128247334D01*
X185459891Y-128598433D01*
X185315631Y-128249297D01*
X184942666Y-127875681D01*
X184455115Y-127673231D01*
X183927202Y-127672771D01*
X183439297Y-127874369D01*
X183065681Y-128247334D01*
X182863231Y-128734885D01*
X182862771Y-129262798D01*
X183064369Y-129750703D01*
X183437334Y-130124319D01*
X183738000Y-130249167D01*
X183738000Y-136805775D01*
X183073776Y-137470000D01*
X171906224Y-137470000D01*
X172549612Y-136826612D01*
X172647594Y-136679973D01*
X172682000Y-136507000D01*
X172682000Y-130249052D01*
X172980703Y-130125631D01*
X173354319Y-129752666D01*
X173556769Y-129265115D01*
X173556771Y-129262798D01*
X175982771Y-129262798D01*
X176184369Y-129750703D01*
X176557334Y-130124319D01*
X177044885Y-130326769D01*
X177572798Y-130327229D01*
X178060703Y-130125631D01*
X178434319Y-129752666D01*
X178636769Y-129265115D01*
X178637229Y-128737202D01*
X178435631Y-128249297D01*
X178395479Y-128209075D01*
X179666554Y-126938000D01*
X188578446Y-126938000D01*
X190483137Y-128842691D01*
X190482771Y-129262798D01*
X190684369Y-129750703D01*
X191057334Y-130124319D01*
X191544885Y-130326769D01*
X192072798Y-130327229D01*
X192560703Y-130125631D01*
X192934319Y-129752666D01*
X193136769Y-129265115D01*
X193137229Y-128737202D01*
X192935631Y-128249297D01*
X192562666Y-127875681D01*
X192075115Y-127673231D01*
X191652417Y-127672863D01*
X189505777Y-125526223D01*
X189237479Y-125346952D01*
X188921000Y-125284000D01*
X180976500Y-125284000D01*
X180976500Y-124332551D01*
X181049321Y-124157179D01*
X181049678Y-123748613D01*
X180893656Y-123371011D01*
X180605008Y-123081860D01*
X180227679Y-122925179D01*
X179819113Y-122924822D01*
X179441511Y-123080844D01*
X179152360Y-123369492D01*
X178995679Y-123746821D01*
X178995322Y-124155387D01*
X179151344Y-124532989D01*
X179322500Y-124704443D01*
X179322500Y-125284298D01*
X179007521Y-125346952D01*
X178739223Y-125526223D01*
X176725223Y-127540223D01*
X176545952Y-127808521D01*
X176526302Y-127907306D01*
X176185681Y-128247334D01*
X175983231Y-128734885D01*
X175982771Y-129262798D01*
X173556771Y-129262798D01*
X173557229Y-128737202D01*
X173355631Y-128249297D01*
X172982666Y-127875681D01*
X172495115Y-127673231D01*
X171967202Y-127672771D01*
X171479297Y-127874369D01*
X171105681Y-128247334D01*
X170959891Y-128598433D01*
X170815631Y-128249297D01*
X170442666Y-127875681D01*
X169955115Y-127673231D01*
X169427202Y-127672771D01*
X168939297Y-127874369D01*
X168565681Y-128247334D01*
X168363231Y-128734885D01*
X168362771Y-129262798D01*
X168564369Y-129750703D01*
X168937334Y-130124319D01*
X169238000Y-130249167D01*
X169238000Y-135049776D01*
X167775778Y-136511998D01*
X160138222Y-136511998D01*
X159964000Y-136337776D01*
X159964000Y-130934204D01*
X159929594Y-130761231D01*
X159831612Y-130614592D01*
X156569762Y-127352742D01*
X156654270Y-127297229D01*
X156727625Y-127188555D01*
X156750999Y-127072000D01*
X158361683Y-127072000D01*
X158375785Y-127144684D01*
X158447771Y-127254270D01*
X158556445Y-127327625D01*
X158685000Y-127353406D01*
X159435000Y-127353406D01*
X159504550Y-127339912D01*
X159533404Y-127484971D01*
X159631386Y-127631610D01*
X160970388Y-128970612D01*
X161117027Y-129068594D01*
X161290000Y-129103000D01*
X163322000Y-129103000D01*
X163494973Y-129068594D01*
X163641612Y-128970612D01*
X163895612Y-128716612D01*
X163993594Y-128569973D01*
X164003534Y-128520000D01*
X164028000Y-128397000D01*
X164028000Y-125222000D01*
X163993594Y-125049027D01*
X163895613Y-124902388D01*
X163327180Y-124333955D01*
X163327229Y-124277202D01*
X163125631Y-123789297D01*
X162752666Y-123415681D01*
X162401567Y-123269891D01*
X162750703Y-123125631D01*
X163124319Y-122752666D01*
X163326769Y-122265115D01*
X163327229Y-121737202D01*
X163125631Y-121249297D01*
X162752666Y-120875681D01*
X162265115Y-120673231D01*
X161737202Y-120672771D01*
X161249297Y-120874369D01*
X161129841Y-120993617D01*
X159426612Y-119290388D01*
X159279973Y-119192406D01*
X159107000Y-119158000D01*
X158856888Y-119158000D01*
X158848555Y-119152375D01*
X158720000Y-119126594D01*
X157220000Y-119126594D01*
X157095316Y-119150785D01*
X156985730Y-119222771D01*
X156912375Y-119331445D01*
X156886594Y-119460000D01*
X156886594Y-119760000D01*
X156906317Y-119861654D01*
X156886594Y-119960000D01*
X156886594Y-120260000D01*
X156906317Y-120361654D01*
X156886594Y-120460000D01*
X156886594Y-120760000D01*
X156906317Y-120861654D01*
X156886594Y-120960000D01*
X156886594Y-121260000D01*
X156906317Y-121361654D01*
X156886594Y-121460000D01*
X156886594Y-121760000D01*
X156906317Y-121861654D01*
X156886594Y-121960000D01*
X156886594Y-122260000D01*
X156906317Y-122361654D01*
X156886594Y-122460000D01*
X156886594Y-122760000D01*
X156906317Y-122861654D01*
X156886594Y-122960000D01*
X156886594Y-123260000D01*
X156906317Y-123361654D01*
X156886594Y-123460000D01*
X156886594Y-123760000D01*
X156906317Y-123861654D01*
X156886594Y-123960000D01*
X156886594Y-124260000D01*
X156906317Y-124361654D01*
X156886594Y-124460000D01*
X156886594Y-124760000D01*
X156910785Y-124884684D01*
X156982771Y-124994270D01*
X157091445Y-125067625D01*
X157220000Y-125093406D01*
X158720000Y-125093406D01*
X158844684Y-125069215D01*
X158954270Y-124997229D01*
X159027625Y-124888555D01*
X159053406Y-124760000D01*
X159053406Y-124460000D01*
X159033683Y-124358346D01*
X159053406Y-124260000D01*
X159053406Y-123960000D01*
X159033683Y-123858346D01*
X159053406Y-123760000D01*
X159053406Y-123460000D01*
X159033683Y-123358346D01*
X159053406Y-123260000D01*
X159053406Y-123062000D01*
X159125776Y-123062000D01*
X159498998Y-123435223D01*
X159498998Y-125899428D01*
X159435000Y-125886594D01*
X158685000Y-125886594D01*
X158560316Y-125910785D01*
X158450730Y-125982771D01*
X158377375Y-126091445D01*
X158362022Y-126168000D01*
X156767224Y-126168000D01*
X156753406Y-126154182D01*
X156753406Y-125560000D01*
X156729215Y-125435316D01*
X156722000Y-125424332D01*
X156722000Y-120265500D01*
X156687594Y-120092527D01*
X156629746Y-120005952D01*
X156589612Y-119945887D01*
X155582500Y-118938776D01*
X155582500Y-117460000D01*
X156886594Y-117460000D01*
X156886594Y-117760000D01*
X156906317Y-117861654D01*
X156886594Y-117960000D01*
X156886594Y-118260000D01*
X156910785Y-118384684D01*
X156982771Y-118494270D01*
X157091445Y-118567625D01*
X157220000Y-118593406D01*
X158720000Y-118593406D01*
X158844684Y-118569215D01*
X158954270Y-118497229D01*
X159027625Y-118388555D01*
X159053406Y-118260000D01*
X159053406Y-117960000D01*
X159033683Y-117858346D01*
X159053406Y-117760000D01*
X159053406Y-117460000D01*
X159029215Y-117335316D01*
X158957229Y-117225730D01*
X158848555Y-117152375D01*
X158720000Y-117126594D01*
X157220000Y-117126594D01*
X157095316Y-117150785D01*
X156985730Y-117222771D01*
X156912375Y-117331445D01*
X156886594Y-117460000D01*
X155582500Y-117460000D01*
X155582500Y-114677724D01*
X156589612Y-113670613D01*
X156687594Y-113523973D01*
X156690156Y-113511094D01*
X156722000Y-113351000D01*
X156722000Y-112460000D01*
X156886594Y-112460000D01*
X156886594Y-112760000D01*
X156906317Y-112861654D01*
X156886594Y-112960000D01*
X156886594Y-113260000D01*
X156906317Y-113361654D01*
X156886594Y-113460000D01*
X156886594Y-113760000D01*
X156906317Y-113861654D01*
X156886594Y-113960000D01*
X156886594Y-114260000D01*
X156906317Y-114361654D01*
X156886594Y-114460000D01*
X156886594Y-114760000D01*
X156906317Y-114861654D01*
X156886594Y-114960000D01*
X156886594Y-115260000D01*
X156906317Y-115361654D01*
X156886594Y-115460000D01*
X156886594Y-115760000D01*
X156906317Y-115861654D01*
X156886594Y-115960000D01*
X156886594Y-116260000D01*
X156906317Y-116361654D01*
X156886594Y-116460000D01*
X156886594Y-116760000D01*
X156910785Y-116884684D01*
X156982771Y-116994270D01*
X157091445Y-117067625D01*
X157220000Y-117093406D01*
X158720000Y-117093406D01*
X158844684Y-117069215D01*
X158954270Y-116997229D01*
X159027625Y-116888555D01*
X159053406Y-116760000D01*
X159053406Y-116460000D01*
X159033683Y-116358346D01*
X159053406Y-116260000D01*
X159053406Y-115960000D01*
X159033683Y-115858346D01*
X159053406Y-115760000D01*
X159053406Y-115460000D01*
X159033683Y-115358346D01*
X159053406Y-115260000D01*
X159053406Y-114960000D01*
X159033683Y-114858346D01*
X159053406Y-114760000D01*
X159053406Y-114460000D01*
X159033683Y-114358346D01*
X159053406Y-114260000D01*
X159053406Y-113960000D01*
X159033683Y-113858346D01*
X159053406Y-113760000D01*
X159053406Y-113460000D01*
X159033683Y-113358346D01*
X159053406Y-113260000D01*
X159053406Y-112960000D01*
X159033683Y-112858346D01*
X159053406Y-112760000D01*
X159053406Y-112460000D01*
X159029215Y-112335316D01*
X158957229Y-112225730D01*
X158848555Y-112152375D01*
X158720000Y-112126594D01*
X157220000Y-112126594D01*
X157095316Y-112150785D01*
X156985730Y-112222771D01*
X156912375Y-112331445D01*
X156886594Y-112460000D01*
X156722000Y-112460000D01*
X156722000Y-111796888D01*
X156727625Y-111788555D01*
X156753406Y-111660000D01*
X156753406Y-111151751D01*
X156754594Y-111149973D01*
X156788999Y-110977000D01*
X156754594Y-110804027D01*
X156753406Y-110802249D01*
X156753406Y-110160000D01*
X156747294Y-110128500D01*
X157353183Y-110128500D01*
X157367285Y-110201184D01*
X157439271Y-110310770D01*
X157547945Y-110384125D01*
X157676500Y-110409906D01*
X158426500Y-110409906D01*
X158551184Y-110385715D01*
X158660770Y-110313729D01*
X158734125Y-110205055D01*
X158759906Y-110076500D01*
X158759906Y-109607319D01*
X158915225Y-109452000D01*
X161588000Y-109452000D01*
X161588000Y-109537683D01*
X161515316Y-109551785D01*
X161405730Y-109623771D01*
X161332375Y-109732445D01*
X161306594Y-109861000D01*
X161306594Y-110611000D01*
X161330785Y-110735684D01*
X161402771Y-110845270D01*
X161511445Y-110918625D01*
X161588000Y-110933978D01*
X161588000Y-115654420D01*
X161249297Y-115794369D01*
X160875681Y-116167334D01*
X160673231Y-116654885D01*
X160672771Y-117182798D01*
X160874369Y-117670703D01*
X161247334Y-118044319D01*
X161734885Y-118246769D01*
X162262798Y-118247229D01*
X162750703Y-118045631D01*
X163124319Y-117672666D01*
X163249167Y-117372000D01*
X165410000Y-117372000D01*
X165410000Y-119054533D01*
X165362316Y-119063785D01*
X165252730Y-119135771D01*
X165179375Y-119244445D01*
X165153594Y-119373000D01*
X165153594Y-120173000D01*
X165177785Y-120297684D01*
X165249771Y-120407270D01*
X165358445Y-120480625D01*
X165487000Y-120506406D01*
X166237000Y-120506406D01*
X166361684Y-120482215D01*
X166471270Y-120410229D01*
X166544625Y-120301555D01*
X166559978Y-120225000D01*
X170548000Y-120225000D01*
X170548000Y-120516594D01*
X170125000Y-120516594D01*
X170000316Y-120540785D01*
X169890730Y-120612771D01*
X169817375Y-120721445D01*
X169791594Y-120850000D01*
X169791594Y-121650000D01*
X169815785Y-121774684D01*
X169887771Y-121884270D01*
X169996445Y-121957625D01*
X170125000Y-121983406D01*
X170875000Y-121983406D01*
X170999684Y-121959215D01*
X171109270Y-121887229D01*
X171182625Y-121778555D01*
X171208406Y-121650000D01*
X171208406Y-121180818D01*
X171319612Y-121069612D01*
X171417594Y-120922973D01*
X171452000Y-120750000D01*
X171452000Y-119795151D01*
X171457500Y-119767500D01*
X171457500Y-119570500D01*
X171452000Y-119542849D01*
X171452000Y-117586888D01*
X171457625Y-117578555D01*
X171483406Y-117450000D01*
X171483406Y-115950000D01*
X171516594Y-115950000D01*
X171516594Y-117450000D01*
X171540785Y-117574684D01*
X171548000Y-117585668D01*
X171548000Y-119500000D01*
X171582406Y-119672973D01*
X171680388Y-119819612D01*
X172541594Y-120680819D01*
X172541594Y-121500000D01*
X172565785Y-121624684D01*
X172637771Y-121734270D01*
X172746445Y-121807625D01*
X172875000Y-121833406D01*
X174125000Y-121833406D01*
X174249684Y-121809215D01*
X174359270Y-121737229D01*
X174432625Y-121628555D01*
X174458406Y-121500000D01*
X174458406Y-120500000D01*
X174434215Y-120375316D01*
X174362229Y-120265730D01*
X174253555Y-120192375D01*
X174125000Y-120166594D01*
X173305819Y-120166594D01*
X172452000Y-119312776D01*
X172452000Y-117783406D01*
X172650000Y-117783406D01*
X172751654Y-117763683D01*
X172850000Y-117783406D01*
X173150000Y-117783406D01*
X173251654Y-117763683D01*
X173350000Y-117783406D01*
X173650000Y-117783406D01*
X173751654Y-117763683D01*
X173850000Y-117783406D01*
X174150000Y-117783406D01*
X174251654Y-117763683D01*
X174350000Y-117783406D01*
X174650000Y-117783406D01*
X174751654Y-117763683D01*
X174850000Y-117783406D01*
X175150000Y-117783406D01*
X175251654Y-117763683D01*
X175350000Y-117783406D01*
X175650000Y-117783406D01*
X175751654Y-117763683D01*
X175850000Y-117783406D01*
X176150000Y-117783406D01*
X176251654Y-117763683D01*
X176350000Y-117783406D01*
X176650000Y-117783406D01*
X176751654Y-117763683D01*
X176850000Y-117783406D01*
X177150000Y-117783406D01*
X177251654Y-117763683D01*
X177350000Y-117783406D01*
X177650000Y-117783406D01*
X177751654Y-117763683D01*
X177850000Y-117783406D01*
X178150000Y-117783406D01*
X178274684Y-117759215D01*
X178384270Y-117687229D01*
X178457625Y-117578555D01*
X178483406Y-117450000D01*
X178483406Y-115950000D01*
X178459215Y-115825316D01*
X178387229Y-115715730D01*
X178278555Y-115642375D01*
X178150000Y-115616594D01*
X177850000Y-115616594D01*
X177748346Y-115636317D01*
X177650000Y-115616594D01*
X177350000Y-115616594D01*
X177248346Y-115636317D01*
X177150000Y-115616594D01*
X176850000Y-115616594D01*
X176748346Y-115636317D01*
X176650000Y-115616594D01*
X176350000Y-115616594D01*
X176248346Y-115636317D01*
X176150000Y-115616594D01*
X175850000Y-115616594D01*
X175748346Y-115636317D01*
X175650000Y-115616594D01*
X175350000Y-115616594D01*
X175248346Y-115636317D01*
X175150000Y-115616594D01*
X174850000Y-115616594D01*
X174748346Y-115636317D01*
X174650000Y-115616594D01*
X174350000Y-115616594D01*
X174248346Y-115636317D01*
X174150000Y-115616594D01*
X173850000Y-115616594D01*
X173748346Y-115636317D01*
X173650000Y-115616594D01*
X173350000Y-115616594D01*
X173248346Y-115636317D01*
X173150000Y-115616594D01*
X172850000Y-115616594D01*
X172748346Y-115636317D01*
X172650000Y-115616594D01*
X172350000Y-115616594D01*
X172248346Y-115636317D01*
X172150000Y-115616594D01*
X171850000Y-115616594D01*
X171725316Y-115640785D01*
X171615730Y-115712771D01*
X171542375Y-115821445D01*
X171516594Y-115950000D01*
X171483406Y-115950000D01*
X171483406Y-115950000D01*
X171459215Y-115825316D01*
X171387229Y-115715730D01*
X171278555Y-115642375D01*
X171150000Y-115616594D01*
X170850000Y-115616594D01*
X170725316Y-115640785D01*
X170615730Y-115712771D01*
X170542375Y-115821445D01*
X170516594Y-115950000D01*
X170516594Y-117450000D01*
X170540785Y-117574684D01*
X170548000Y-117585668D01*
X170548000Y-119321000D01*
X166560317Y-119321000D01*
X166546215Y-119248316D01*
X166474229Y-119138730D01*
X166365555Y-119065375D01*
X166314000Y-119055036D01*
X166314000Y-117776186D01*
X166350000Y-117783406D01*
X166650000Y-117783406D01*
X166751654Y-117763683D01*
X166850000Y-117783406D01*
X167150000Y-117783406D01*
X167251654Y-117763683D01*
X167350000Y-117783406D01*
X167650000Y-117783406D01*
X167751654Y-117763683D01*
X167850000Y-117783406D01*
X168150000Y-117783406D01*
X168251654Y-117763683D01*
X168350000Y-117783406D01*
X168650000Y-117783406D01*
X168751654Y-117763683D01*
X168850000Y-117783406D01*
X169150000Y-117783406D01*
X169251654Y-117763683D01*
X169350000Y-117783406D01*
X169650000Y-117783406D01*
X169751654Y-117763683D01*
X169850000Y-117783406D01*
X170150000Y-117783406D01*
X170274684Y-117759215D01*
X170384270Y-117687229D01*
X170457625Y-117578555D01*
X170483406Y-117450000D01*
X170483406Y-115950000D01*
X170459215Y-115825316D01*
X170387229Y-115715730D01*
X170278555Y-115642375D01*
X170150000Y-115616594D01*
X169850000Y-115616594D01*
X169748346Y-115636317D01*
X169650000Y-115616594D01*
X169350000Y-115616594D01*
X169248346Y-115636317D01*
X169150000Y-115616594D01*
X168850000Y-115616594D01*
X168748346Y-115636317D01*
X168650000Y-115616594D01*
X168350000Y-115616594D01*
X168248346Y-115636317D01*
X168150000Y-115616594D01*
X167850000Y-115616594D01*
X167748346Y-115636317D01*
X167650000Y-115616594D01*
X167350000Y-115616594D01*
X167248346Y-115636317D01*
X167150000Y-115616594D01*
X166850000Y-115616594D01*
X166748346Y-115636317D01*
X166650000Y-115616594D01*
X166452000Y-115616594D01*
X166452000Y-115555724D01*
X166938225Y-115069500D01*
X176406276Y-115069500D01*
X176656388Y-115319612D01*
X176803027Y-115417594D01*
X176976000Y-115452000D01*
X178813112Y-115452000D01*
X178821445Y-115457625D01*
X178950000Y-115483406D01*
X179544182Y-115483406D01*
X180048000Y-115987224D01*
X180048000Y-118031533D01*
X180000316Y-118040785D01*
X179890730Y-118112771D01*
X179817375Y-118221445D01*
X179791594Y-118350000D01*
X179791594Y-119150000D01*
X179815785Y-119274684D01*
X179887771Y-119384270D01*
X179996445Y-119457625D01*
X180125000Y-119483406D01*
X180875000Y-119483406D01*
X180999684Y-119459215D01*
X181109270Y-119387229D01*
X181182625Y-119278555D01*
X181208406Y-119150000D01*
X181208406Y-118350000D01*
X181184215Y-118225316D01*
X181112229Y-118115730D01*
X181003555Y-118042375D01*
X180952000Y-118032036D01*
X180952000Y-115800000D01*
X180917594Y-115627027D01*
X180819612Y-115480388D01*
X180701269Y-115362045D01*
X180757625Y-115278555D01*
X180783406Y-115150000D01*
X180783406Y-114850000D01*
X180763683Y-114748346D01*
X180783406Y-114650000D01*
X180783406Y-114350000D01*
X180763683Y-114248346D01*
X180783406Y-114150000D01*
X180783406Y-113850000D01*
X180763683Y-113748346D01*
X180783406Y-113650000D01*
X180783406Y-113350000D01*
X180763683Y-113248346D01*
X180783406Y-113150000D01*
X180783406Y-112850000D01*
X180763683Y-112748346D01*
X180783406Y-112650000D01*
X180783406Y-112350000D01*
X180763683Y-112248346D01*
X180783406Y-112150000D01*
X180783406Y-112017130D01*
X187155248Y-118388972D01*
X187301887Y-118486954D01*
X187474860Y-118521360D01*
X188100304Y-118521360D01*
X188100304Y-120869710D01*
X188124495Y-120994394D01*
X188196481Y-121103980D01*
X188305155Y-121177335D01*
X188433710Y-121203116D01*
X188853500Y-121203116D01*
X188853500Y-123063183D01*
X188780816Y-123077285D01*
X188671230Y-123149271D01*
X188597875Y-123257945D01*
X188572094Y-123386500D01*
X188572094Y-124136500D01*
X188596285Y-124261184D01*
X188668271Y-124370770D01*
X188776945Y-124444125D01*
X188905500Y-124469906D01*
X189705500Y-124469906D01*
X189830184Y-124445715D01*
X189939770Y-124373729D01*
X190013125Y-124265055D01*
X190038906Y-124136500D01*
X190038906Y-123386500D01*
X190014715Y-123261816D01*
X189942729Y-123152230D01*
X189834055Y-123078875D01*
X189757500Y-123063522D01*
X189757500Y-121203116D01*
X190534290Y-121203116D01*
X190658974Y-121178925D01*
X190768560Y-121106939D01*
X190841915Y-120998265D01*
X190867696Y-120869710D01*
X190867696Y-115269010D01*
X190843505Y-115144326D01*
X190771519Y-115034740D01*
X190662845Y-114961385D01*
X190534290Y-114935604D01*
X188433710Y-114935604D01*
X188309026Y-114959795D01*
X188199440Y-115031781D01*
X188126085Y-115140455D01*
X188100304Y-115269010D01*
X188100304Y-117617360D01*
X187662084Y-117617360D01*
X183214611Y-113169887D01*
X184202322Y-113169887D01*
X184358344Y-113547489D01*
X184646992Y-113836640D01*
X185024321Y-113993321D01*
X185432887Y-113993678D01*
X185810489Y-113837656D01*
X186099640Y-113549008D01*
X186256321Y-113171679D01*
X186256678Y-112763113D01*
X186249400Y-112745500D01*
X192534247Y-112745500D01*
X192514594Y-112843500D01*
X192514594Y-113343500D01*
X192538785Y-113468184D01*
X192555136Y-113493076D01*
X192540375Y-113514945D01*
X192514594Y-113643500D01*
X192514594Y-114143500D01*
X192538785Y-114268184D01*
X192610771Y-114377770D01*
X192719445Y-114451125D01*
X192848000Y-114476906D01*
X194248000Y-114476906D01*
X194372684Y-114452715D01*
X194482270Y-114380729D01*
X194555625Y-114272055D01*
X194581406Y-114143500D01*
X194581406Y-113643500D01*
X194562392Y-113545500D01*
X194691000Y-113545500D01*
X194863973Y-113511094D01*
X195010612Y-113413112D01*
X195582112Y-112841612D01*
X195680094Y-112694973D01*
X195714500Y-112522000D01*
X195714500Y-110897015D01*
X195743594Y-110853473D01*
X195778000Y-110680500D01*
X195743594Y-110507527D01*
X195723134Y-110476906D01*
X197848000Y-110476906D01*
X197972684Y-110452715D01*
X198082270Y-110380729D01*
X198155625Y-110272055D01*
X198181406Y-110143500D01*
X198181406Y-107643500D01*
X198157215Y-107518816D01*
X198085229Y-107409230D01*
X197976555Y-107335875D01*
X197848000Y-107310094D01*
X194048000Y-107310094D01*
X193923316Y-107334285D01*
X193813730Y-107406271D01*
X193740375Y-107514945D01*
X193714594Y-107643500D01*
X193714594Y-110143500D01*
X193731086Y-110228500D01*
X193608224Y-110228500D01*
X193428500Y-110048776D01*
X193428500Y-107124500D01*
X193394094Y-106951527D01*
X193296112Y-106804888D01*
X193187799Y-106696575D01*
X193241321Y-106567679D01*
X193241678Y-106159113D01*
X193085656Y-105781511D01*
X192797008Y-105492360D01*
X192419679Y-105335679D01*
X192011113Y-105335322D01*
X191633511Y-105491344D01*
X191344360Y-105779992D01*
X191187679Y-106157321D01*
X191187322Y-106565887D01*
X191343344Y-106943489D01*
X191631992Y-107232640D01*
X192009321Y-107389321D01*
X192417887Y-107389678D01*
X192524500Y-107345626D01*
X192524500Y-110236000D01*
X192558906Y-110408973D01*
X192656888Y-110555612D01*
X193011370Y-110910094D01*
X192848000Y-110910094D01*
X192723316Y-110934285D01*
X192613730Y-111006271D01*
X192540375Y-111114945D01*
X192514594Y-111243500D01*
X192514594Y-111743500D01*
X192533608Y-111841500D01*
X185902500Y-111841500D01*
X185729527Y-111875906D01*
X185582888Y-111973888D01*
X185563575Y-111993201D01*
X185434679Y-111939679D01*
X185026113Y-111939322D01*
X184648511Y-112095344D01*
X184359360Y-112383992D01*
X184202679Y-112761321D01*
X184202322Y-113169887D01*
X183214611Y-113169887D01*
X181496724Y-111452000D01*
X186855640Y-111452000D01*
X187028613Y-111417594D01*
X187175252Y-111319612D01*
X188100304Y-110394560D01*
X188100304Y-111171990D01*
X188124495Y-111296674D01*
X188196481Y-111406260D01*
X188305155Y-111479615D01*
X188433710Y-111505396D01*
X190534290Y-111505396D01*
X190658974Y-111481205D01*
X190768560Y-111409219D01*
X190841915Y-111300545D01*
X190867696Y-111171990D01*
X190867696Y-105571290D01*
X190843505Y-105446606D01*
X190771519Y-105337020D01*
X190662845Y-105263665D01*
X190534290Y-105237884D01*
X189733500Y-105237884D01*
X189733500Y-104403093D01*
X195378796Y-104403093D01*
X195557606Y-104835846D01*
X195888412Y-105167230D01*
X196320853Y-105346795D01*
X196789093Y-105347204D01*
X197221846Y-105168394D01*
X197553230Y-104837588D01*
X197732795Y-104405147D01*
X197733204Y-103936907D01*
X197554394Y-103504154D01*
X197223588Y-103172770D01*
X196791147Y-102993205D01*
X196322907Y-102992796D01*
X195890154Y-103171606D01*
X195558770Y-103502412D01*
X195379205Y-103934853D01*
X195378796Y-104403093D01*
X189733500Y-104403093D01*
X189733500Y-103949317D01*
X189806184Y-103935215D01*
X189915770Y-103863229D01*
X189989125Y-103754555D01*
X190014906Y-103626000D01*
X190014906Y-102876000D01*
X189990715Y-102751316D01*
X189918729Y-102641730D01*
X189810055Y-102568375D01*
X189681500Y-102542594D01*
X188881500Y-102542594D01*
X188756816Y-102566785D01*
X188647230Y-102638771D01*
X188573875Y-102747445D01*
X188548094Y-102876000D01*
X188548094Y-103626000D01*
X188572285Y-103750684D01*
X188644271Y-103860270D01*
X188752945Y-103933625D01*
X188829500Y-103948978D01*
X188829500Y-105237884D01*
X188433710Y-105237884D01*
X188309026Y-105262075D01*
X188199440Y-105334061D01*
X188126085Y-105442735D01*
X188100304Y-105571290D01*
X188100304Y-109116111D01*
X186668416Y-110548000D01*
X183943875Y-110548000D01*
X184007625Y-110453555D01*
X184033406Y-110325000D01*
X184033406Y-109075000D01*
X184009215Y-108950316D01*
X183937229Y-108840730D01*
X183828555Y-108767375D01*
X183700000Y-108741594D01*
X182700000Y-108741594D01*
X182575316Y-108765785D01*
X182465730Y-108837771D01*
X182392375Y-108946445D01*
X182372009Y-109048000D01*
X180586888Y-109048000D01*
X180578555Y-109042375D01*
X180450000Y-109016594D01*
X178950000Y-109016594D01*
X178825316Y-109040785D01*
X178814332Y-109048000D01*
X176694500Y-109048000D01*
X176521527Y-109082406D01*
X176374888Y-109180388D01*
X176083391Y-109471885D01*
X176083388Y-109471887D01*
X176007275Y-109548000D01*
X165186888Y-109548000D01*
X165178555Y-109542375D01*
X165050000Y-109516594D01*
X163550000Y-109516594D01*
X163425316Y-109540785D01*
X163315730Y-109612771D01*
X163242375Y-109721445D01*
X163216594Y-109850000D01*
X163216594Y-110150000D01*
X163236317Y-110251654D01*
X163216594Y-110350000D01*
X163216594Y-110650000D01*
X163236317Y-110751654D01*
X163216594Y-110850000D01*
X163216594Y-111150000D01*
X163236317Y-111251654D01*
X163216594Y-111350000D01*
X163216594Y-111650000D01*
X163236317Y-111751654D01*
X163216594Y-111850000D01*
X163216594Y-112150000D01*
X163236317Y-112251654D01*
X163216594Y-112350000D01*
X163216594Y-112650000D01*
X163236317Y-112751654D01*
X163216594Y-112850000D01*
X163216594Y-113150000D01*
X163236317Y-113251654D01*
X163216594Y-113350000D01*
X163216594Y-113650000D01*
X163236317Y-113751654D01*
X163216594Y-113850000D01*
X163216594Y-114150000D01*
X163236317Y-114251654D01*
X163216594Y-114350000D01*
X163216594Y-114650000D01*
X163236317Y-114751654D01*
X163216594Y-114850000D01*
X163216594Y-115150000D01*
X163240785Y-115274684D01*
X163312771Y-115384270D01*
X163421445Y-115457625D01*
X163550000Y-115483406D01*
X165050000Y-115483406D01*
X165174684Y-115459215D01*
X165284270Y-115387229D01*
X165357625Y-115278555D01*
X165383406Y-115150000D01*
X165383406Y-114850000D01*
X165363683Y-114748346D01*
X165383406Y-114650000D01*
X165383406Y-114350000D01*
X165363683Y-114248346D01*
X165383406Y-114150000D01*
X165383406Y-113850000D01*
X165363683Y-113748346D01*
X165383406Y-113650000D01*
X165383406Y-113350000D01*
X165363683Y-113248346D01*
X165383406Y-113150000D01*
X165383406Y-112850000D01*
X165363683Y-112748346D01*
X165383406Y-112650000D01*
X165383406Y-112350000D01*
X165363683Y-112248346D01*
X165383406Y-112150000D01*
X165383406Y-111850000D01*
X165363683Y-111748346D01*
X165383406Y-111650000D01*
X165383406Y-111350000D01*
X165363683Y-111248346D01*
X165383406Y-111150000D01*
X165383406Y-110850000D01*
X165363683Y-110748346D01*
X165383406Y-110650000D01*
X165383406Y-110452000D01*
X176194500Y-110452000D01*
X176367473Y-110417594D01*
X176514112Y-110319612D01*
X176722613Y-110111112D01*
X176722615Y-110111109D01*
X176881724Y-109952000D01*
X178616594Y-109952000D01*
X178616594Y-110150000D01*
X178636317Y-110251654D01*
X178616594Y-110350000D01*
X178616594Y-110650000D01*
X178636317Y-110751654D01*
X178616594Y-110850000D01*
X178616594Y-111150000D01*
X178636317Y-111251654D01*
X178616594Y-111350000D01*
X178616594Y-111650000D01*
X178636317Y-111751654D01*
X178616594Y-111850000D01*
X178616594Y-112150000D01*
X178636317Y-112251654D01*
X178616594Y-112350000D01*
X178616594Y-112650000D01*
X178636317Y-112751654D01*
X178616594Y-112850000D01*
X178616594Y-113150000D01*
X178636317Y-113251654D01*
X178616594Y-113350000D01*
X178616594Y-113650000D01*
X178636317Y-113751654D01*
X178616594Y-113850000D01*
X178616594Y-114150000D01*
X178636317Y-114251654D01*
X178616594Y-114350000D01*
X178616594Y-114548000D01*
X177163224Y-114548000D01*
X176913112Y-114297888D01*
X176766473Y-114199906D01*
X176593500Y-114165500D01*
X166751000Y-114165500D01*
X166578027Y-114199906D01*
X166431387Y-114297888D01*
X165680388Y-115048888D01*
X165582406Y-115195527D01*
X165548000Y-115368500D01*
X165548000Y-115813112D01*
X165542375Y-115821445D01*
X165516594Y-115950000D01*
X165516594Y-116468000D01*
X163249052Y-116468000D01*
X163125631Y-116169297D01*
X162752666Y-115795681D01*
X162492000Y-115687442D01*
X162492000Y-110934317D01*
X162564684Y-110920215D01*
X162674270Y-110848229D01*
X162747625Y-110739555D01*
X162773406Y-110611000D01*
X162773406Y-109861000D01*
X162749215Y-109736316D01*
X162677229Y-109626730D01*
X162568555Y-109553375D01*
X162492000Y-109538022D01*
X162492000Y-109452000D01*
X163413112Y-109452000D01*
X163421445Y-109457625D01*
X163550000Y-109483406D01*
X165050000Y-109483406D01*
X165174684Y-109459215D01*
X165185668Y-109452000D01*
X165701000Y-109452000D01*
X165873973Y-109417594D01*
X166020612Y-109319612D01*
X166435613Y-108904612D01*
X166533594Y-108757973D01*
X166568000Y-108585000D01*
X166568000Y-104084000D01*
X173736000Y-104084000D01*
X173908973Y-104049594D01*
X174055612Y-103951612D01*
X174555224Y-103452000D01*
X178616594Y-103452000D01*
X178616594Y-103650000D01*
X178636317Y-103751654D01*
X178616594Y-103850000D01*
X178616594Y-104150000D01*
X178636317Y-104251654D01*
X178616594Y-104350000D01*
X178616594Y-104650000D01*
X178636317Y-104751654D01*
X178616594Y-104850000D01*
X178616594Y-105150000D01*
X178636317Y-105251654D01*
X178616594Y-105350000D01*
X178616594Y-105650000D01*
X178636317Y-105751654D01*
X178616594Y-105850000D01*
X178616594Y-106150000D01*
X178636317Y-106251654D01*
X178616594Y-106350000D01*
X178616594Y-106650000D01*
X178636317Y-106751654D01*
X178616594Y-106850000D01*
X178616594Y-107150000D01*
X178636317Y-107251654D01*
X178616594Y-107350000D01*
X178616594Y-107650000D01*
X178636317Y-107751654D01*
X178616594Y-107850000D01*
X178616594Y-108150000D01*
X178636317Y-108251654D01*
X178616594Y-108350000D01*
X178616594Y-108650000D01*
X178640785Y-108774684D01*
X178712771Y-108884270D01*
X178821445Y-108957625D01*
X178950000Y-108983406D01*
X180450000Y-108983406D01*
X180574684Y-108959215D01*
X180585668Y-108952000D01*
X181330000Y-108952000D01*
X181502973Y-108917594D01*
X181649612Y-108819612D01*
X182410819Y-108058406D01*
X182880000Y-108058406D01*
X183004684Y-108034215D01*
X183114270Y-107962229D01*
X183187625Y-107853555D01*
X183213406Y-107725000D01*
X183213406Y-106975000D01*
X183189215Y-106850316D01*
X183117229Y-106740730D01*
X183008555Y-106667375D01*
X182880000Y-106641594D01*
X182720717Y-106641594D01*
X182755112Y-106618612D01*
X182799925Y-106573799D01*
X182928821Y-106627321D01*
X183337387Y-106627678D01*
X183714989Y-106471656D01*
X184004140Y-106183008D01*
X184160821Y-105805679D01*
X184161178Y-105397113D01*
X184005156Y-105019511D01*
X183716508Y-104730360D01*
X183689150Y-104719000D01*
X184089776Y-104719000D01*
X185264595Y-105893819D01*
X185155179Y-106157321D01*
X185154822Y-106565887D01*
X185310844Y-106943489D01*
X185599492Y-107232640D01*
X185976821Y-107389321D01*
X186385387Y-107389678D01*
X186762989Y-107233656D01*
X187052140Y-106945008D01*
X187208821Y-106567679D01*
X187209178Y-106159113D01*
X187053156Y-105781511D01*
X186764508Y-105492360D01*
X186387179Y-105335679D01*
X185984551Y-105335327D01*
X184596612Y-103947388D01*
X184449973Y-103849406D01*
X184277000Y-103815000D01*
X181737000Y-103815000D01*
X181564027Y-103849406D01*
X181417388Y-103947388D01*
X180783406Y-104581370D01*
X180783406Y-104350000D01*
X180763683Y-104248346D01*
X180783406Y-104150000D01*
X180783406Y-103850000D01*
X180763683Y-103748346D01*
X180783406Y-103650000D01*
X180783406Y-103452000D01*
X184032000Y-103452000D01*
X184034986Y-103451406D01*
X184689000Y-103451406D01*
X184813684Y-103427215D01*
X184923270Y-103355229D01*
X184996625Y-103246555D01*
X185022406Y-103118000D01*
X185022406Y-102368000D01*
X184998215Y-102243316D01*
X184926229Y-102133730D01*
X184817555Y-102060375D01*
X184689000Y-102034594D01*
X183889000Y-102034594D01*
X183764316Y-102058785D01*
X183654730Y-102130771D01*
X183581375Y-102239445D01*
X183555594Y-102368000D01*
X183555594Y-102548000D01*
X180586888Y-102548000D01*
X180578555Y-102542375D01*
X180450000Y-102516594D01*
X178950000Y-102516594D01*
X178825316Y-102540785D01*
X178814332Y-102548000D01*
X174368000Y-102548000D01*
X174195027Y-102582406D01*
X174048388Y-102680388D01*
X173548776Y-103180000D01*
X166303224Y-103180000D01*
X165803612Y-102680388D01*
X165656973Y-102582406D01*
X165484000Y-102548000D01*
X165186888Y-102548000D01*
X165178555Y-102542375D01*
X165050000Y-102516594D01*
X164155818Y-102516594D01*
X162708406Y-101069182D01*
X162708406Y-100600000D01*
X162684215Y-100475316D01*
X162612229Y-100365730D01*
X162503555Y-100292375D01*
X162375000Y-100266594D01*
X161905818Y-100266594D01*
X160216224Y-98577000D01*
X162222995Y-98577000D01*
X162223000Y-98577001D01*
X162443808Y-98533078D01*
X162631001Y-98408001D01*
X164450001Y-96589000D01*
X164531266Y-96589000D01*
X164293360Y-96826492D01*
X164136679Y-97203821D01*
X164136343Y-97588601D01*
X163817113Y-97588322D01*
X163439511Y-97744344D01*
X163150360Y-98032992D01*
X162993679Y-98410321D01*
X162993322Y-98818887D01*
X163149344Y-99196489D01*
X163437992Y-99485640D01*
X163815321Y-99642321D01*
X164223887Y-99642678D01*
X164354490Y-99588714D01*
X165516594Y-100750818D01*
X165516594Y-102050000D01*
X165540785Y-102174684D01*
X165612771Y-102284270D01*
X165721445Y-102357625D01*
X165850000Y-102383406D01*
X166150000Y-102383406D01*
X166251654Y-102363683D01*
X166350000Y-102383406D01*
X166650000Y-102383406D01*
X166751654Y-102363683D01*
X166850000Y-102383406D01*
X167150000Y-102383406D01*
X167251654Y-102363683D01*
X167350000Y-102383406D01*
X167650000Y-102383406D01*
X167751654Y-102363683D01*
X167850000Y-102383406D01*
X168150000Y-102383406D01*
X168251654Y-102363683D01*
X168350000Y-102383406D01*
X168650000Y-102383406D01*
X168751654Y-102363683D01*
X168850000Y-102383406D01*
X169150000Y-102383406D01*
X169251654Y-102363683D01*
X169350000Y-102383406D01*
X169650000Y-102383406D01*
X169751654Y-102363683D01*
X169850000Y-102383406D01*
X170150000Y-102383406D01*
X170274684Y-102359215D01*
X170384270Y-102287229D01*
X170457625Y-102178555D01*
X170483406Y-102050000D01*
X170483406Y-100550000D01*
X170516594Y-100550000D01*
X170516594Y-102050000D01*
X170540785Y-102174684D01*
X170612771Y-102284270D01*
X170721445Y-102357625D01*
X170850000Y-102383406D01*
X171150000Y-102383406D01*
X171251654Y-102363683D01*
X171350000Y-102383406D01*
X171650000Y-102383406D01*
X171774684Y-102359215D01*
X171884270Y-102287229D01*
X171957625Y-102178555D01*
X171983406Y-102050000D01*
X171983406Y-100550000D01*
X171959215Y-100425316D01*
X171887229Y-100315730D01*
X171778555Y-100242375D01*
X171650000Y-100216594D01*
X171350000Y-100216594D01*
X171248346Y-100236317D01*
X171150000Y-100216594D01*
X170850000Y-100216594D01*
X170725316Y-100240785D01*
X170615730Y-100312771D01*
X170542375Y-100421445D01*
X170516594Y-100550000D01*
X170483406Y-100550000D01*
X170483406Y-100550000D01*
X170459215Y-100425316D01*
X170387229Y-100315730D01*
X170278555Y-100242375D01*
X170150000Y-100216594D01*
X169850000Y-100216594D01*
X169748346Y-100236317D01*
X169650000Y-100216594D01*
X169350000Y-100216594D01*
X169248346Y-100236317D01*
X169150000Y-100216594D01*
X168850000Y-100216594D01*
X168748346Y-100236317D01*
X168650000Y-100216594D01*
X168350000Y-100216594D01*
X168248346Y-100236317D01*
X168150000Y-100216594D01*
X167850000Y-100216594D01*
X167748346Y-100236317D01*
X167650000Y-100216594D01*
X167350000Y-100216594D01*
X167248346Y-100236317D01*
X167150000Y-100216594D01*
X166952000Y-100216594D01*
X166952000Y-98745500D01*
X166917594Y-98572527D01*
X166837060Y-98452000D01*
X166819612Y-98425887D01*
X166136799Y-97743074D01*
X166190321Y-97614179D01*
X166190678Y-97205613D01*
X166034656Y-96828011D01*
X165796061Y-96589000D01*
X167527998Y-96589000D01*
X169517999Y-98579001D01*
X169705192Y-98704078D01*
X169926000Y-98748000D01*
X169998596Y-98748000D01*
X170070369Y-98921703D01*
X170443334Y-99295319D01*
X170930885Y-99497769D01*
X171458798Y-99498229D01*
X171946703Y-99296631D01*
X172320319Y-98923666D01*
X172522769Y-98436115D01*
X172523229Y-97908202D01*
X172321631Y-97420297D01*
X171948666Y-97046681D01*
X171461115Y-96844231D01*
X170933202Y-96843771D01*
X170445297Y-97045369D01*
X170071681Y-97418334D01*
X170047521Y-97476519D01*
X168175001Y-95603999D01*
X167987808Y-95478922D01*
X167767000Y-95434999D01*
X167766995Y-95435000D01*
X164211005Y-95435000D01*
X164211000Y-95434999D01*
X163990192Y-95478922D01*
X163802999Y-95603999D01*
X163802997Y-95604002D01*
X161983998Y-97423000D01*
X158983406Y-97423000D01*
X158983406Y-97350000D01*
X158959215Y-97225316D01*
X158887229Y-97115730D01*
X158778555Y-97042375D01*
X158650000Y-97016594D01*
X157350000Y-97016594D01*
X157225316Y-97040785D01*
X157156484Y-97086000D01*
X154195866Y-97086000D01*
X154072551Y-96901446D01*
X153723147Y-96667982D01*
X153310997Y-96586000D01*
X152759003Y-96586000D01*
X152346853Y-96667982D01*
X151997449Y-96901446D01*
X151763985Y-97250850D01*
X151682003Y-97663000D01*
X151763985Y-98075150D01*
X151997449Y-98424554D01*
X152346853Y-98658018D01*
X152759003Y-98740000D01*
X153310997Y-98740000D01*
X153723147Y-98658018D01*
X154072551Y-98424554D01*
X154195866Y-98240000D01*
X157016594Y-98240000D01*
X157016594Y-98650000D01*
X157040785Y-98774684D01*
X157112771Y-98884270D01*
X157221445Y-98957625D01*
X157350000Y-98983406D01*
X158650000Y-98983406D01*
X158774684Y-98959215D01*
X158884270Y-98887229D01*
X158957625Y-98778555D01*
X158983406Y-98650000D01*
X158983406Y-98622630D01*
X161291594Y-100930818D01*
X161291594Y-101400000D01*
X161315785Y-101524684D01*
X161387771Y-101634270D01*
X161496445Y-101707625D01*
X161625000Y-101733406D01*
X162094182Y-101733406D01*
X163216594Y-102855818D01*
X163216594Y-103150000D01*
X163236317Y-103251654D01*
X163216594Y-103350000D01*
X163216594Y-103548000D01*
X160603760Y-103548000D01*
X160826640Y-103325508D01*
X160983321Y-102948179D01*
X160983678Y-102539613D01*
X160827656Y-102162011D01*
X160539008Y-101872860D01*
X160161679Y-101716179D01*
X159753113Y-101715822D01*
X159375511Y-101871844D01*
X159331278Y-101916000D01*
X156638975Y-101916000D01*
X156632229Y-101905730D01*
X156523555Y-101832375D01*
X156395000Y-101806594D01*
X155645000Y-101806594D01*
X155520316Y-101830785D01*
X155410730Y-101902771D01*
X155401800Y-101916000D01*
X153974604Y-101916000D01*
X153723147Y-101747982D01*
X153310997Y-101666000D01*
X152759003Y-101666000D01*
X152346853Y-101747982D01*
X152095396Y-101916000D01*
X151003000Y-101916000D01*
X150686521Y-101978952D01*
X150418222Y-102158223D01*
X150152446Y-102424000D01*
X150146746Y-102424000D01*
X149850377Y-102127113D01*
X149363013Y-101924741D01*
X148940928Y-101924373D01*
X146686500Y-99669946D01*
X146686500Y-98236000D01*
X148049254Y-98236000D01*
X148345623Y-98532887D01*
X148832987Y-98735259D01*
X149360697Y-98735719D01*
X149848414Y-98534199D01*
X150221887Y-98161377D01*
X150424259Y-97674013D01*
X150424719Y-97146303D01*
X150223199Y-96658586D01*
X149925000Y-96359866D01*
X149925000Y-91757500D01*
X149862048Y-91441021D01*
X149682777Y-91172723D01*
X148366906Y-89856852D01*
X148366906Y-89393000D01*
X148342715Y-89268316D01*
X148270729Y-89158730D01*
X148162055Y-89085375D01*
X148033500Y-89059594D01*
X146733500Y-89059594D01*
X146608816Y-89083785D01*
X146499230Y-89155771D01*
X146425875Y-89264445D01*
X146400094Y-89393000D01*
X146400094Y-90693000D01*
X146424285Y-90817684D01*
X146496271Y-90927270D01*
X146604945Y-91000625D01*
X146733500Y-91026406D01*
X147197352Y-91026406D01*
X148271000Y-92100054D01*
X148271000Y-96360254D01*
X148048866Y-96582000D01*
X146304000Y-96582000D01*
X145987521Y-96644952D01*
X145719223Y-96824223D01*
X145274723Y-97268723D01*
X145095452Y-97537021D01*
X145032500Y-97853500D01*
X145032500Y-100012500D01*
X145095452Y-100328979D01*
X145274723Y-100597277D01*
X147158777Y-102481332D01*
X147130521Y-102486952D01*
X146862223Y-102666223D01*
X144002571Y-105525875D01*
X143941613Y-105525822D01*
X143564011Y-105681844D01*
X143274860Y-105970492D01*
X143118179Y-106347821D01*
X143117822Y-106756387D01*
X143273844Y-107133989D01*
X143562492Y-107423140D01*
X143939821Y-107579821D01*
X144348387Y-107580178D01*
X144725989Y-107424156D01*
X145015140Y-107135508D01*
X145171821Y-106758179D01*
X145171876Y-106695678D01*
X147789554Y-104078000D01*
X148049254Y-104078000D01*
X148345623Y-104374887D01*
X148832987Y-104577259D01*
X149360697Y-104577719D01*
X149848414Y-104376199D01*
X150147134Y-104078000D01*
X150495000Y-104078000D01*
X150811479Y-104015048D01*
X151079777Y-103835777D01*
X151212554Y-103703000D01*
X152197776Y-103703000D01*
X150450388Y-105450388D01*
X150352406Y-105597027D01*
X150318000Y-105770000D01*
X150318000Y-107260776D01*
X149679406Y-106622182D01*
X149679406Y-106482500D01*
X149655215Y-106357816D01*
X149583229Y-106248230D01*
X149474555Y-106174875D01*
X149346000Y-106149094D01*
X148596000Y-106149094D01*
X148471316Y-106173285D01*
X148361730Y-106245271D01*
X148288375Y-106353945D01*
X148273022Y-106430500D01*
X147689000Y-106430500D01*
X147516027Y-106464906D01*
X147369388Y-106562888D01*
X146307276Y-107625000D01*
X143129000Y-107625000D01*
X142956027Y-107659406D01*
X142809388Y-107757388D01*
X140150388Y-110416388D01*
X140052406Y-110563027D01*
X140018000Y-110736000D01*
X140018000Y-111301683D01*
X139945316Y-111315785D01*
X139835730Y-111387771D01*
X139762375Y-111496445D01*
X139736594Y-111625000D01*
X139736594Y-112375000D01*
X139760785Y-112499684D01*
X139832771Y-112609270D01*
X139941445Y-112682625D01*
X140018000Y-112697978D01*
X140018000Y-112765056D01*
X139750613Y-112764822D01*
X139373011Y-112920844D01*
X139083860Y-113209492D01*
X138927179Y-113586821D01*
X138926822Y-113995387D01*
X139082844Y-114372989D01*
X139371492Y-114662140D01*
X139748821Y-114818821D01*
X140157387Y-114819178D01*
X140534989Y-114663156D01*
X140824140Y-114374508D01*
X140980821Y-113997179D01*
X140981178Y-113588613D01*
X140899256Y-113390346D01*
X140922000Y-113276000D01*
X140922000Y-113030572D01*
X141080000Y-113062000D01*
X141486594Y-113062000D01*
X141486594Y-113260000D01*
X141506317Y-113361654D01*
X141486594Y-113460000D01*
X141486594Y-113760000D01*
X141506317Y-113861654D01*
X141486594Y-113960000D01*
X141486594Y-114260000D01*
X141506317Y-114361654D01*
X141486594Y-114460000D01*
X141486594Y-114760000D01*
X141506317Y-114861654D01*
X141486594Y-114960000D01*
X141486594Y-115260000D01*
X141506317Y-115361654D01*
X141486594Y-115460000D01*
X141486594Y-115760000D01*
X141506317Y-115861654D01*
X141486594Y-115960000D01*
X141486594Y-116260000D01*
X141506317Y-116361654D01*
X141486594Y-116460000D01*
X141486594Y-116760000D01*
X141510785Y-116884684D01*
X141582771Y-116994270D01*
X141691445Y-117067625D01*
X141820000Y-117093406D01*
X143320000Y-117093406D01*
X143444684Y-117069215D01*
X143554270Y-116997229D01*
X143627625Y-116888555D01*
X143653406Y-116760000D01*
X143653406Y-116460000D01*
X143633683Y-116358346D01*
X143653406Y-116260000D01*
X143653406Y-115960000D01*
X143633683Y-115858346D01*
X143653406Y-115760000D01*
X143653406Y-115460000D01*
X143633683Y-115358346D01*
X143653406Y-115260000D01*
X143653406Y-114960000D01*
X143633683Y-114858346D01*
X143653406Y-114760000D01*
X143653406Y-114460000D01*
X143633683Y-114358346D01*
X143653406Y-114260000D01*
X143653406Y-113960000D01*
X143633683Y-113858346D01*
X143653406Y-113760000D01*
X143653406Y-113460000D01*
X143633683Y-113358346D01*
X143653406Y-113260000D01*
X143653406Y-112960000D01*
X143633683Y-112858346D01*
X143653406Y-112760000D01*
X143653406Y-112460000D01*
X143629215Y-112335316D01*
X143557229Y-112225730D01*
X143448555Y-112152375D01*
X143320000Y-112126594D01*
X141820000Y-112126594D01*
X141695316Y-112150785D01*
X141684332Y-112158000D01*
X141267224Y-112158000D01*
X141203406Y-112094182D01*
X141203406Y-111625000D01*
X141179215Y-111500316D01*
X141107229Y-111390730D01*
X140998555Y-111317375D01*
X140922000Y-111302022D01*
X140922000Y-110923224D01*
X143316224Y-108529000D01*
X146494500Y-108529000D01*
X146667473Y-108494594D01*
X146814112Y-108396612D01*
X147876224Y-107334500D01*
X148272683Y-107334500D01*
X148286785Y-107407184D01*
X148358771Y-107516770D01*
X148467445Y-107590125D01*
X148596000Y-107615906D01*
X149346000Y-107615906D01*
X149386772Y-107607996D01*
X149818000Y-108039224D01*
X149818000Y-110023112D01*
X149812375Y-110031445D01*
X149786594Y-110160000D01*
X149786594Y-111660000D01*
X149810785Y-111784684D01*
X149818000Y-111795668D01*
X149818000Y-112424000D01*
X149852406Y-112596973D01*
X149950388Y-112743612D01*
X150302388Y-113095612D01*
X150449027Y-113193594D01*
X150622000Y-113228000D01*
X155753775Y-113228000D01*
X154810888Y-114170888D01*
X154712906Y-114317527D01*
X154678500Y-114490500D01*
X154678500Y-119126000D01*
X154712906Y-119298973D01*
X154810888Y-119445612D01*
X155818000Y-120452725D01*
X155818000Y-125226594D01*
X155620000Y-125226594D01*
X155518346Y-125246317D01*
X155420000Y-125226594D01*
X155120000Y-125226594D01*
X155018346Y-125246317D01*
X154920000Y-125226594D01*
X154620000Y-125226594D01*
X154518346Y-125246317D01*
X154420000Y-125226594D01*
X154120000Y-125226594D01*
X154018346Y-125246317D01*
X153920000Y-125226594D01*
X153620000Y-125226594D01*
X153518346Y-125246317D01*
X153420000Y-125226594D01*
X153120000Y-125226594D01*
X153018346Y-125246317D01*
X152920000Y-125226594D01*
X152620000Y-125226594D01*
X152518346Y-125246317D01*
X152420000Y-125226594D01*
X152120000Y-125226594D01*
X152018346Y-125246317D01*
X151920000Y-125226594D01*
X151620000Y-125226594D01*
X151518346Y-125246317D01*
X151420000Y-125226594D01*
X151120000Y-125226594D01*
X151018346Y-125246317D01*
X150920000Y-125226594D01*
X150620000Y-125226594D01*
X150495316Y-125250785D01*
X150385730Y-125322771D01*
X150312375Y-125431445D01*
X150286594Y-125560000D01*
X150286594Y-127060000D01*
X150310785Y-127184684D01*
X150318000Y-127195668D01*
X150318000Y-128938000D01*
X150352406Y-129110973D01*
X150450388Y-129257612D01*
X151310594Y-130117818D01*
X151310594Y-130587000D01*
X151334785Y-130711684D01*
X151406771Y-130821270D01*
X151515445Y-130894625D01*
X151644000Y-130920406D01*
X152394000Y-130920406D01*
X152518684Y-130896215D01*
X152628270Y-130824229D01*
X152701625Y-130715555D01*
X152727406Y-130587000D01*
X152727406Y-129871630D01*
X154996000Y-132140224D01*
X154996000Y-136210776D01*
X154117776Y-137089000D01*
X152223899Y-137089000D01*
X152282480Y-137050519D01*
X152355835Y-136941845D01*
X152381616Y-136813290D01*
X152381616Y-136215000D01*
X153632927Y-136215000D01*
X153666445Y-136237625D01*
X153795000Y-136263406D01*
X154545000Y-136263406D01*
X154669684Y-136239215D01*
X154779270Y-136167229D01*
X154852625Y-136058555D01*
X154878406Y-135930000D01*
X154878406Y-135130000D01*
X154854215Y-135005316D01*
X154782229Y-134895730D01*
X154673555Y-134822375D01*
X154545000Y-134796594D01*
X153795000Y-134796594D01*
X153670316Y-134820785D01*
X153560730Y-134892771D01*
X153487375Y-135001445D01*
X153461594Y-135130000D01*
X153461594Y-135311000D01*
X152381616Y-135311000D01*
X152381616Y-134712710D01*
X152357425Y-134588026D01*
X152285439Y-134478440D01*
X152176765Y-134405085D01*
X152048210Y-134379304D01*
X148722000Y-134379304D01*
X148722000Y-131019127D01*
X148743771Y-131052270D01*
X148852445Y-131125625D01*
X148981000Y-131151406D01*
X150231000Y-131151406D01*
X150355684Y-131127215D01*
X150465270Y-131055229D01*
X150538625Y-130946555D01*
X150564406Y-130818000D01*
X150564406Y-129818000D01*
X150540215Y-129693316D01*
X150468229Y-129583730D01*
X150359555Y-129510375D01*
X150231000Y-129484594D01*
X150222000Y-129484594D01*
X150222000Y-127196888D01*
X150227625Y-127188555D01*
X150253406Y-127060000D01*
X150253406Y-125560000D01*
X150229215Y-125435316D01*
X150222000Y-125424332D01*
X150222000Y-124116000D01*
X150187594Y-123943027D01*
X150089612Y-123796388D01*
X149722000Y-123428776D01*
X149722000Y-111796888D01*
X149727625Y-111788555D01*
X149753406Y-111660000D01*
X149753406Y-110160000D01*
X149729215Y-110035316D01*
X149657229Y-109925730D01*
X149548555Y-109852375D01*
X149420000Y-109826594D01*
X149120000Y-109826594D01*
X149018346Y-109846317D01*
X148920000Y-109826594D01*
X148620000Y-109826594D01*
X148518346Y-109846317D01*
X148420000Y-109826594D01*
X148120000Y-109826594D01*
X148018346Y-109846317D01*
X147920000Y-109826594D01*
X147620000Y-109826594D01*
X147518346Y-109846317D01*
X147420000Y-109826594D01*
X147120000Y-109826594D01*
X147018346Y-109846317D01*
X146920000Y-109826594D01*
X146620000Y-109826594D01*
X146518346Y-109846317D01*
X146420000Y-109826594D01*
X146120000Y-109826594D01*
X146018346Y-109846317D01*
X145920000Y-109826594D01*
X145620000Y-109826594D01*
X145518346Y-109846317D01*
X145420000Y-109826594D01*
X145120000Y-109826594D01*
X145018346Y-109846317D01*
X144920000Y-109826594D01*
X144620000Y-109826594D01*
X144518346Y-109846317D01*
X144420000Y-109826594D01*
X144120000Y-109826594D01*
X143995316Y-109850785D01*
X143885730Y-109922771D01*
X143812375Y-110031445D01*
X143786594Y-110160000D01*
X143786594Y-111660000D01*
X143810785Y-111784684D01*
X143882771Y-111894270D01*
X143991445Y-111967625D01*
X144120000Y-111993406D01*
X144420000Y-111993406D01*
X144521654Y-111973683D01*
X144620000Y-111993406D01*
X144920000Y-111993406D01*
X145021654Y-111973683D01*
X145120000Y-111993406D01*
X145420000Y-111993406D01*
X145521654Y-111973683D01*
X145620000Y-111993406D01*
X145920000Y-111993406D01*
X146021654Y-111973683D01*
X146120000Y-111993406D01*
X146420000Y-111993406D01*
X146521654Y-111973683D01*
X146620000Y-111993406D01*
X146920000Y-111993406D01*
X147021654Y-111973683D01*
X147120000Y-111993406D01*
X147420000Y-111993406D01*
X147521654Y-111973683D01*
X147620000Y-111993406D01*
X147920000Y-111993406D01*
X148021654Y-111973683D01*
X148120000Y-111993406D01*
X148420000Y-111993406D01*
X148521654Y-111973683D01*
X148620000Y-111993406D01*
X148818000Y-111993406D01*
X148818000Y-123679500D01*
X148852406Y-123852473D01*
X148950388Y-123999112D01*
X149318000Y-124366724D01*
X149318000Y-125226594D01*
X149120000Y-125226594D01*
X149018346Y-125246317D01*
X148920000Y-125226594D01*
X148620000Y-125226594D01*
X148518346Y-125246317D01*
X148420000Y-125226594D01*
X148120000Y-125226594D01*
X148018346Y-125246317D01*
X147920000Y-125226594D01*
X147620000Y-125226594D01*
X147518346Y-125246317D01*
X147420000Y-125226594D01*
X147120000Y-125226594D01*
X147018346Y-125246317D01*
X146920000Y-125226594D01*
X146620000Y-125226594D01*
X146518346Y-125246317D01*
X146420000Y-125226594D01*
X146120000Y-125226594D01*
X146018346Y-125246317D01*
X145920000Y-125226594D01*
X145620000Y-125226594D01*
X145518346Y-125246317D01*
X145420000Y-125226594D01*
X145120000Y-125226594D01*
X145018346Y-125246317D01*
X144920000Y-125226594D01*
X144722000Y-125226594D01*
X144722000Y-118108000D01*
X144687594Y-117935027D01*
X144683064Y-117928248D01*
X144589612Y-117788387D01*
X144091612Y-117290388D01*
X143944973Y-117192406D01*
X143772000Y-117158000D01*
X143456888Y-117158000D01*
X143448555Y-117152375D01*
X143320000Y-117126594D01*
X141820000Y-117126594D01*
X141695316Y-117150785D01*
X141684332Y-117158000D01*
X140487225Y-117158000D01*
X140403406Y-117074181D01*
X140403406Y-116605000D01*
X140379215Y-116480316D01*
X140307229Y-116370730D01*
X140198555Y-116297375D01*
X140070000Y-116271594D01*
X139580318Y-116271594D01*
X138895299Y-115586575D01*
X138948821Y-115457679D01*
X138949178Y-115049113D01*
X138793156Y-114671511D01*
X138504508Y-114382360D01*
X138127179Y-114225679D01*
X137718613Y-114225322D01*
X137341011Y-114381344D01*
X137051860Y-114669992D01*
X136895179Y-115047321D01*
X136894822Y-115455887D01*
X137050844Y-115833489D01*
X137339492Y-116122640D01*
X137716821Y-116279321D01*
X138125387Y-116279678D01*
X138255990Y-116225714D01*
X138936594Y-116906318D01*
X138936594Y-117355000D01*
X138960785Y-117479684D01*
X139032771Y-117589270D01*
X139141445Y-117662625D01*
X139270000Y-117688406D01*
X139739181Y-117688406D01*
X139980388Y-117929613D01*
X140127027Y-118027594D01*
X140300000Y-118062000D01*
X141683112Y-118062000D01*
X141691445Y-118067625D01*
X141820000Y-118093406D01*
X143320000Y-118093406D01*
X143444684Y-118069215D01*
X143455668Y-118062000D01*
X143584776Y-118062000D01*
X143818000Y-118295225D01*
X143818000Y-125423112D01*
X143812375Y-125431445D01*
X143786594Y-125560000D01*
X143786594Y-127060000D01*
X143810785Y-127184684D01*
X143818000Y-127195668D01*
X143818000Y-128220519D01*
X143817375Y-128221445D01*
X143791594Y-128350000D01*
X143791594Y-129150000D01*
X143815785Y-129274684D01*
X143887771Y-129384270D01*
X143996445Y-129457625D01*
X144125000Y-129483406D01*
X144875000Y-129483406D01*
X144999684Y-129459215D01*
X145109270Y-129387229D01*
X145182625Y-129278555D01*
X145208406Y-129150000D01*
X145208406Y-128350000D01*
X145184215Y-128225316D01*
X145112229Y-128115730D01*
X145003555Y-128042375D01*
X144875000Y-128016594D01*
X144722000Y-128016594D01*
X144722000Y-127393406D01*
X144920000Y-127393406D01*
X145021654Y-127373683D01*
X145120000Y-127393406D01*
X145420000Y-127393406D01*
X145521654Y-127373683D01*
X145620000Y-127393406D01*
X145920000Y-127393406D01*
X146021654Y-127373683D01*
X146120000Y-127393406D01*
X146420000Y-127393406D01*
X146521654Y-127373683D01*
X146620000Y-127393406D01*
X146920000Y-127393406D01*
X147021654Y-127373683D01*
X147120000Y-127393406D01*
X147318000Y-127393406D01*
X147318000Y-131569775D01*
X143576776Y-135311000D01*
X142683896Y-135311000D01*
X142683896Y-134712710D01*
X142659705Y-134588026D01*
X142587719Y-134478440D01*
X142479045Y-134405085D01*
X142350490Y-134379304D01*
X136749790Y-134379304D01*
X136625106Y-134403495D01*
X136515520Y-134475481D01*
X136442165Y-134584155D01*
X136416384Y-134712710D01*
X136416384Y-135098000D01*
X135498317Y-135098000D01*
X135484215Y-135025316D01*
X135412229Y-134915730D01*
X135303555Y-134842375D01*
X135175000Y-134816594D01*
X134425000Y-134816594D01*
X134300316Y-134840785D01*
X134190730Y-134912771D01*
X134117375Y-135021445D01*
X134091594Y-135150000D01*
X134091594Y-135950000D01*
X134115785Y-136074684D01*
X134187771Y-136184270D01*
X134296445Y-136257625D01*
X134425000Y-136283406D01*
X135175000Y-136283406D01*
X135299684Y-136259215D01*
X135409270Y-136187229D01*
X135482625Y-136078555D01*
X135497978Y-136002000D01*
X136416384Y-136002000D01*
X136416384Y-136813290D01*
X136440575Y-136937974D01*
X136512561Y-137047560D01*
X136573954Y-137089000D01*
X134680224Y-137089000D01*
X133929000Y-136337776D01*
X133929000Y-130440224D01*
X134166398Y-130202826D01*
X134464885Y-130326769D01*
X134992798Y-130327229D01*
X135480703Y-130125631D01*
X135854319Y-129752666D01*
X136056769Y-129265115D01*
X136057229Y-128737202D01*
X135855631Y-128249297D01*
X135482666Y-127875681D01*
X135059582Y-127700000D01*
X138595446Y-127700000D01*
X138914430Y-128018984D01*
X138685681Y-128247334D01*
X138483231Y-128734885D01*
X138482771Y-129262798D01*
X138684369Y-129750703D01*
X139057334Y-130124319D01*
X139544885Y-130326769D01*
X140072798Y-130327229D01*
X140560703Y-130125631D01*
X140934319Y-129752666D01*
X141136769Y-129265115D01*
X141137229Y-128737202D01*
X140935631Y-128249297D01*
X140637000Y-127950145D01*
X140637000Y-122879933D01*
X140760640Y-122756508D01*
X140917321Y-122379179D01*
X140917678Y-121970613D01*
X140761656Y-121593011D01*
X140473008Y-121303860D01*
X140095679Y-121147179D01*
X139687113Y-121146822D01*
X139309511Y-121302844D01*
X139020360Y-121591492D01*
X138863679Y-121968821D01*
X138863322Y-122377387D01*
X138983000Y-122667030D01*
X138983000Y-126054951D01*
X138938000Y-126046000D01*
X127437000Y-126046000D01*
X127120521Y-126108952D01*
X126852223Y-126288223D01*
X125467309Y-127673137D01*
X125047202Y-127672771D01*
X124559297Y-127874369D01*
X124185681Y-128247334D01*
X123983231Y-128734885D01*
X123982771Y-129262798D01*
X124184369Y-129750703D01*
X124557334Y-130124319D01*
X125044885Y-130326769D01*
X125572798Y-130327229D01*
X126060703Y-130125631D01*
X126434319Y-129752666D01*
X126636769Y-129265115D01*
X126637137Y-128842417D01*
X127779554Y-127700000D01*
X131861303Y-127700000D01*
X131439297Y-127874369D01*
X131065681Y-128247334D01*
X130863231Y-128734885D01*
X130862771Y-129262798D01*
X131064369Y-129750703D01*
X131437334Y-130124319D01*
X131738000Y-130249167D01*
X131738000Y-136254000D01*
X131772406Y-136426973D01*
X131870388Y-136573612D01*
X133401775Y-138105000D01*
X122615225Y-138105000D01*
X120682000Y-136171776D01*
X120682000Y-130249052D01*
X120980703Y-130125631D01*
X121354319Y-129752666D01*
X121556769Y-129265115D01*
X121557229Y-128737202D01*
X121355631Y-128249297D01*
X120982666Y-127875681D01*
X120495115Y-127673231D01*
X119967202Y-127672771D01*
X119479297Y-127874369D01*
X119105681Y-128247334D01*
X118959891Y-128598433D01*
X118815631Y-128249297D01*
X118442666Y-127875681D01*
X117955115Y-127673231D01*
X117427202Y-127672771D01*
X116939297Y-127874369D01*
X116565681Y-128247334D01*
X116363231Y-128734885D01*
X116362771Y-129262798D01*
X110377000Y-129262798D01*
X110377000Y-108350000D01*
X114016594Y-108350000D01*
X114016594Y-109650000D01*
X114040785Y-109774684D01*
X114112771Y-109884270D01*
X114221445Y-109957625D01*
X114350000Y-109983406D01*
X115650000Y-109983406D01*
X115774684Y-109959215D01*
X115884270Y-109887229D01*
X115957625Y-109778555D01*
X115983406Y-109650000D01*
X115983406Y-109186148D01*
X118422554Y-106747000D01*
X122451254Y-106747000D01*
X122747623Y-107043887D01*
X123234987Y-107246259D01*
X123762697Y-107246719D01*
X124250414Y-107045199D01*
X124623887Y-106672377D01*
X124826259Y-106185013D01*
X124826719Y-105657303D01*
X124625199Y-105169586D01*
X124327000Y-104870866D01*
X124327000Y-104522500D01*
X131673946Y-104522500D01*
X132401010Y-105249565D01*
X132185925Y-105464275D01*
X131999783Y-105912554D01*
X131815340Y-105466168D01*
X131455725Y-105105925D01*
X130985625Y-104910722D01*
X130476608Y-104910278D01*
X130006168Y-105104660D01*
X129747377Y-105363000D01*
X129172352Y-105363000D01*
X128915725Y-105105925D01*
X128445625Y-104910722D01*
X127936608Y-104910278D01*
X127466168Y-105104660D01*
X127105925Y-105464275D01*
X126910722Y-105934375D01*
X126910278Y-106443392D01*
X127104660Y-106913832D01*
X127363000Y-107172623D01*
X127363000Y-112827648D01*
X127105925Y-113084275D01*
X126910722Y-113554375D01*
X126910403Y-113920043D01*
X125577446Y-115253000D01*
X124548746Y-115253000D01*
X124252377Y-114956113D01*
X123765013Y-114753741D01*
X123237303Y-114753281D01*
X122749586Y-114954801D01*
X122376113Y-115327623D01*
X122173741Y-115814987D01*
X122173281Y-116342697D01*
X122374801Y-116830414D01*
X122747623Y-117203887D01*
X123234987Y-117406259D01*
X123762697Y-117406719D01*
X124250414Y-117205199D01*
X124549134Y-116907000D01*
X125920000Y-116907000D01*
X126236479Y-116844048D01*
X126504777Y-116664777D01*
X128080149Y-115089405D01*
X128443392Y-115089722D01*
X128913832Y-114895340D01*
X129274075Y-114535725D01*
X129460217Y-114087446D01*
X129644660Y-114533832D01*
X129673000Y-114562221D01*
X129673000Y-117167104D01*
X129500510Y-117167104D01*
X129375826Y-117191295D01*
X129266240Y-117263281D01*
X129192885Y-117371955D01*
X129167104Y-117500510D01*
X129167104Y-119499490D01*
X129191295Y-119624174D01*
X129263281Y-119733760D01*
X129371955Y-119807115D01*
X129500510Y-119832896D01*
X131499490Y-119832896D01*
X131624174Y-119808705D01*
X131733760Y-119736719D01*
X131807115Y-119628045D01*
X131832896Y-119499490D01*
X131832896Y-117500510D01*
X131808705Y-117375826D01*
X131736719Y-117266240D01*
X131628045Y-117192885D01*
X131499490Y-117167104D01*
X131327000Y-117167104D01*
X131327000Y-114947746D01*
X131453832Y-114895340D01*
X131814075Y-114535725D01*
X132000217Y-114087446D01*
X132184660Y-114533832D01*
X132443000Y-114792623D01*
X132443000Y-120770000D01*
X132505952Y-121086479D01*
X132685223Y-121354777D01*
X134466594Y-123136148D01*
X134466594Y-123700000D01*
X134490785Y-123824684D01*
X134562771Y-123934270D01*
X134671445Y-124007625D01*
X134800000Y-124033406D01*
X136200000Y-124033406D01*
X136324684Y-124009215D01*
X136434270Y-123937229D01*
X136507625Y-123828555D01*
X136533406Y-123700000D01*
X136533406Y-122300000D01*
X136509215Y-122175316D01*
X136437229Y-122065730D01*
X136328555Y-121992375D01*
X136200000Y-121966594D01*
X135636148Y-121966594D01*
X134097000Y-120427446D01*
X134097000Y-118955000D01*
X139056594Y-118955000D01*
X139056594Y-120205000D01*
X139080785Y-120329684D01*
X139152771Y-120439270D01*
X139261445Y-120512625D01*
X139390000Y-120538406D01*
X140390000Y-120538406D01*
X140514684Y-120514215D01*
X140624270Y-120442229D01*
X140697625Y-120333555D01*
X140723406Y-120205000D01*
X140723406Y-119385818D01*
X141047224Y-119062000D01*
X141486594Y-119062000D01*
X141486594Y-119260000D01*
X141506317Y-119361654D01*
X141486594Y-119460000D01*
X141486594Y-119760000D01*
X141506317Y-119861654D01*
X141486594Y-119960000D01*
X141486594Y-120260000D01*
X141506317Y-120361654D01*
X141486594Y-120460000D01*
X141486594Y-120760000D01*
X141506317Y-120861654D01*
X141486594Y-120960000D01*
X141486594Y-121260000D01*
X141506317Y-121361654D01*
X141486594Y-121460000D01*
X141486594Y-121760000D01*
X141506317Y-121861654D01*
X141486594Y-121960000D01*
X141486594Y-122260000D01*
X141506317Y-122361654D01*
X141486594Y-122460000D01*
X141486594Y-122760000D01*
X141506317Y-122861654D01*
X141486594Y-122960000D01*
X141486594Y-123260000D01*
X141506317Y-123361654D01*
X141486594Y-123460000D01*
X141486594Y-123760000D01*
X141506317Y-123861654D01*
X141486594Y-123960000D01*
X141486594Y-124260000D01*
X141506317Y-124361654D01*
X141486594Y-124460000D01*
X141486594Y-124760000D01*
X141510785Y-124884684D01*
X141582771Y-124994270D01*
X141691445Y-125067625D01*
X141820000Y-125093406D01*
X143320000Y-125093406D01*
X143444684Y-125069215D01*
X143554270Y-124997229D01*
X143627625Y-124888555D01*
X143653406Y-124760000D01*
X143653406Y-124460000D01*
X143633683Y-124358346D01*
X143653406Y-124260000D01*
X143653406Y-123960000D01*
X143633683Y-123858346D01*
X143653406Y-123760000D01*
X143653406Y-123460000D01*
X143633683Y-123358346D01*
X143653406Y-123260000D01*
X143653406Y-122960000D01*
X143633683Y-122858346D01*
X143653406Y-122760000D01*
X143653406Y-122460000D01*
X143633683Y-122358346D01*
X143653406Y-122260000D01*
X143653406Y-121960000D01*
X143633683Y-121858346D01*
X143653406Y-121760000D01*
X143653406Y-121460000D01*
X143633683Y-121358346D01*
X143653406Y-121260000D01*
X143653406Y-120960000D01*
X143633683Y-120858346D01*
X143653406Y-120760000D01*
X143653406Y-120460000D01*
X143633683Y-120358346D01*
X143653406Y-120260000D01*
X143653406Y-119960000D01*
X143633683Y-119858346D01*
X143653406Y-119760000D01*
X143653406Y-119460000D01*
X143633683Y-119358346D01*
X143653406Y-119260000D01*
X143653406Y-118960000D01*
X143633683Y-118858346D01*
X143653406Y-118760000D01*
X143653406Y-118460000D01*
X143629215Y-118335316D01*
X143557229Y-118225730D01*
X143448555Y-118152375D01*
X143320000Y-118126594D01*
X141820000Y-118126594D01*
X141695316Y-118150785D01*
X141684332Y-118158000D01*
X140860000Y-118158000D01*
X140687027Y-118192406D01*
X140540388Y-118290388D01*
X140209182Y-118621594D01*
X139390000Y-118621594D01*
X139265316Y-118645785D01*
X139155730Y-118717771D01*
X139082375Y-118826445D01*
X139056594Y-118955000D01*
X134097000Y-118955000D01*
X134097000Y-114792352D01*
X134354075Y-114535725D01*
X134549278Y-114065625D01*
X134549722Y-113556608D01*
X134355340Y-113086168D01*
X133995725Y-112725925D01*
X133525625Y-112530722D01*
X133016608Y-112530278D01*
X132546168Y-112724660D01*
X132185925Y-113084275D01*
X131999783Y-113532554D01*
X131815340Y-113086168D01*
X131710704Y-112981350D01*
X134264055Y-110428000D01*
X136715500Y-110428000D01*
X137031979Y-110365048D01*
X137300277Y-110185777D01*
X139522778Y-107963277D01*
X139702048Y-107694979D01*
X139765000Y-107378500D01*
X139765000Y-104299746D01*
X140061887Y-104003377D01*
X140264259Y-103516013D01*
X140264719Y-102988303D01*
X140063199Y-102500586D01*
X139690377Y-102127113D01*
X139203013Y-101924741D01*
X138675303Y-101924281D01*
X138187586Y-102125801D01*
X137814113Y-102498623D01*
X137611741Y-102985987D01*
X137611281Y-103513697D01*
X137812801Y-104001414D01*
X138111000Y-104300134D01*
X138111000Y-107035945D01*
X136372946Y-108774000D01*
X133921500Y-108774000D01*
X133605021Y-108836952D01*
X133336723Y-109016222D01*
X130145223Y-112207723D01*
X129965952Y-112476021D01*
X129903000Y-112792500D01*
X129903000Y-112827648D01*
X129645925Y-113084275D01*
X129459783Y-113532554D01*
X129275340Y-113086168D01*
X129017000Y-112827377D01*
X129017000Y-107172352D01*
X129172623Y-107017000D01*
X129747648Y-107017000D01*
X130004275Y-107274075D01*
X130474375Y-107469278D01*
X130983392Y-107469722D01*
X131453832Y-107275340D01*
X131814075Y-106915725D01*
X132000217Y-106467446D01*
X132184660Y-106913832D01*
X132544275Y-107274075D01*
X133014375Y-107469278D01*
X133523392Y-107469722D01*
X133993832Y-107275340D01*
X134354075Y-106915725D01*
X134540217Y-106467446D01*
X134724660Y-106913832D01*
X135084275Y-107274075D01*
X135554375Y-107469278D01*
X136063392Y-107469722D01*
X136533832Y-107275340D01*
X136894075Y-106915725D01*
X137089278Y-106445625D01*
X137089722Y-105936608D01*
X136976539Y-105662685D01*
X137352612Y-105286612D01*
X137450594Y-105139973D01*
X137459937Y-105093000D01*
X137485000Y-104967000D01*
X137485000Y-102041224D01*
X138129030Y-101397195D01*
X138185623Y-101453887D01*
X138672987Y-101656259D01*
X139200697Y-101656719D01*
X139688414Y-101455199D01*
X140061887Y-101082377D01*
X140264259Y-100595013D01*
X140264719Y-100067303D01*
X140063199Y-99579586D01*
X139690377Y-99206113D01*
X139390000Y-99081385D01*
X139390000Y-98657501D01*
X139688414Y-98534199D01*
X140061887Y-98161377D01*
X140264259Y-97674013D01*
X140264719Y-97146303D01*
X140063199Y-96658586D01*
X139690377Y-96285113D01*
X139203013Y-96082741D01*
X138675303Y-96082281D01*
X138187586Y-96283801D01*
X137814113Y-96656623D01*
X137611741Y-97143987D01*
X137611281Y-97671697D01*
X137812801Y-98159414D01*
X138185623Y-98532887D01*
X138486000Y-98657615D01*
X138486000Y-99081499D01*
X138187586Y-99204801D01*
X137814113Y-99577623D01*
X137611741Y-100064987D01*
X137611281Y-100592697D01*
X137624087Y-100623689D01*
X136713388Y-101534388D01*
X136615406Y-101681027D01*
X136581000Y-101854000D01*
X136581000Y-104779776D01*
X136337261Y-105023515D01*
X136065625Y-104910722D01*
X135556608Y-104910278D01*
X135086168Y-105104660D01*
X134725925Y-105464275D01*
X134539783Y-105912554D01*
X134355340Y-105466168D01*
X134097000Y-105207377D01*
X134097000Y-104949000D01*
X134034048Y-104632521D01*
X134022829Y-104615730D01*
X133854778Y-104364223D01*
X132601277Y-103110723D01*
X132332979Y-102931452D01*
X132016500Y-102868500D01*
X124327000Y-102868500D01*
X124327000Y-99346554D01*
X126961554Y-96712000D01*
X131000500Y-96712000D01*
X131316979Y-96649048D01*
X131585277Y-96469777D01*
X131764548Y-96201479D01*
X131827500Y-95885000D01*
X131827500Y-94957554D01*
X136677054Y-90108000D01*
X137371621Y-90108000D01*
X137323240Y-90139781D01*
X137249885Y-90248455D01*
X137224104Y-90377010D01*
X137224104Y-91539842D01*
X136433705Y-92330241D01*
X136261377Y-92157613D01*
X135774013Y-91955241D01*
X135246303Y-91954781D01*
X134758586Y-92156301D01*
X134385113Y-92529123D01*
X134182741Y-93016487D01*
X134182281Y-93544197D01*
X134383801Y-94031914D01*
X134756623Y-94405387D01*
X135243987Y-94607759D01*
X135771697Y-94608219D01*
X136259414Y-94406699D01*
X136558134Y-94108500D01*
X136652000Y-94108500D01*
X136968479Y-94045548D01*
X137236777Y-93866277D01*
X138393658Y-92709396D01*
X139556490Y-92709396D01*
X139681174Y-92685205D01*
X139790760Y-92613219D01*
X139864115Y-92504545D01*
X139889896Y-92375990D01*
X139889896Y-90377010D01*
X139865705Y-90252326D01*
X139793719Y-90142740D01*
X139742252Y-90108000D01*
X141540000Y-90108000D01*
X141540000Y-90327754D01*
X141243113Y-90624123D01*
X141040741Y-91111487D01*
X141040281Y-91639197D01*
X141241801Y-92126914D01*
X141614623Y-92500387D01*
X142101987Y-92702759D01*
X142629697Y-92703219D01*
X143117414Y-92501699D01*
X143490887Y-92128877D01*
X143693259Y-91641513D01*
X143693719Y-91113803D01*
X143492199Y-90626086D01*
X143194000Y-90327366D01*
X143194000Y-87736641D01*
X143312769Y-87450615D01*
X143313229Y-86922702D01*
X143111631Y-86434797D01*
X142738666Y-86061181D01*
X142251115Y-85858731D01*
X141723202Y-85858271D01*
X141235297Y-86059869D01*
X140861681Y-86432834D01*
X140715891Y-86783933D01*
X140571631Y-86434797D01*
X140400000Y-86262866D01*
X140400000Y-86004054D01*
X140995054Y-85409000D01*
X145415000Y-85409000D01*
X145731479Y-85346048D01*
X145999777Y-85166777D01*
X148361054Y-82805500D01*
X156767703Y-82805500D01*
X156729297Y-82821369D01*
X156355681Y-83194334D01*
X156153231Y-83681885D01*
X156152771Y-84209798D01*
X156354369Y-84697703D01*
X156727334Y-85071319D01*
X157028000Y-85196167D01*
X157028000Y-88328500D01*
X157062406Y-88501473D01*
X157160388Y-88648112D01*
X159110201Y-90597925D01*
X159056679Y-90726821D01*
X159056322Y-91135387D01*
X159212344Y-91512989D01*
X159500992Y-91802140D01*
X159878321Y-91958821D01*
X160286887Y-91959178D01*
X160664489Y-91803156D01*
X160953640Y-91514508D01*
X161088330Y-91190140D01*
X161088322Y-91198887D01*
X161244344Y-91576489D01*
X161532992Y-91865640D01*
X161910321Y-92022321D01*
X162318887Y-92022678D01*
X162696489Y-91866656D01*
X162985640Y-91578008D01*
X163142321Y-91200679D01*
X163142678Y-90792113D01*
X162986656Y-90414511D01*
X162698008Y-90125360D01*
X162320679Y-89968679D01*
X161912113Y-89968322D01*
X161781510Y-90022286D01*
X160472000Y-88712776D01*
X160472000Y-87312500D01*
X168902500Y-87312500D01*
X168902500Y-89725500D01*
X168936906Y-89898473D01*
X169034888Y-90045112D01*
X169860388Y-90870612D01*
X169904396Y-90900018D01*
X170070369Y-91301703D01*
X170443334Y-91675319D01*
X170794433Y-91821109D01*
X170445297Y-91965369D01*
X170071681Y-92338334D01*
X169869231Y-92825885D01*
X169868771Y-93353798D01*
X170070369Y-93841703D01*
X170443334Y-94215319D01*
X170930885Y-94417769D01*
X171458798Y-94418229D01*
X171946703Y-94216631D01*
X172291105Y-93872829D01*
X172548000Y-94129724D01*
X172548000Y-100413112D01*
X172542375Y-100421445D01*
X172516594Y-100550000D01*
X172516594Y-102050000D01*
X172540785Y-102174684D01*
X172612771Y-102284270D01*
X172721445Y-102357625D01*
X172850000Y-102383406D01*
X173150000Y-102383406D01*
X173251654Y-102363683D01*
X173350000Y-102383406D01*
X173650000Y-102383406D01*
X173751654Y-102363683D01*
X173850000Y-102383406D01*
X174150000Y-102383406D01*
X174251654Y-102363683D01*
X174350000Y-102383406D01*
X174650000Y-102383406D01*
X174751654Y-102363683D01*
X174850000Y-102383406D01*
X175150000Y-102383406D01*
X175251654Y-102363683D01*
X175350000Y-102383406D01*
X175650000Y-102383406D01*
X175751654Y-102363683D01*
X175850000Y-102383406D01*
X176150000Y-102383406D01*
X176251654Y-102363683D01*
X176350000Y-102383406D01*
X176650000Y-102383406D01*
X176751654Y-102363683D01*
X176850000Y-102383406D01*
X177150000Y-102383406D01*
X177251654Y-102363683D01*
X177350000Y-102383406D01*
X177650000Y-102383406D01*
X177751654Y-102363683D01*
X177850000Y-102383406D01*
X178150000Y-102383406D01*
X178274684Y-102359215D01*
X178384270Y-102287229D01*
X178457625Y-102178555D01*
X178483406Y-102050000D01*
X178483406Y-100550000D01*
X178459215Y-100425316D01*
X178452000Y-100414332D01*
X178452000Y-99174224D01*
X181035224Y-96591000D01*
X184658000Y-96591000D01*
X184830973Y-96556594D01*
X184977612Y-96458612D01*
X187009612Y-94426612D01*
X187107594Y-94279973D01*
X187142000Y-94107000D01*
X187142000Y-89403093D01*
X195378796Y-89403093D01*
X195557606Y-89835846D01*
X195888412Y-90167230D01*
X196320853Y-90346795D01*
X196789093Y-90347204D01*
X197221846Y-90168394D01*
X197553230Y-89837588D01*
X197732795Y-89405147D01*
X197733204Y-88936907D01*
X197554394Y-88504154D01*
X197223588Y-88172770D01*
X196791147Y-87993205D01*
X196322907Y-87992796D01*
X195890154Y-88171606D01*
X195558770Y-88502412D01*
X195379205Y-88934853D01*
X195378796Y-89403093D01*
X187142000Y-89403093D01*
X187142000Y-85132552D01*
X187440703Y-85009131D01*
X187814319Y-84636166D01*
X188016769Y-84148615D01*
X188017229Y-83620702D01*
X187815631Y-83132797D01*
X187442666Y-82759181D01*
X186955115Y-82556731D01*
X186427202Y-82556271D01*
X185939297Y-82757869D01*
X185565681Y-83130834D01*
X185419891Y-83481933D01*
X185275631Y-83132797D01*
X184902666Y-82759181D01*
X184415115Y-82556731D01*
X183887202Y-82556271D01*
X183399297Y-82757869D01*
X183025681Y-83130834D01*
X182823231Y-83618385D01*
X182822771Y-84146298D01*
X183024369Y-84634203D01*
X183397334Y-85007819D01*
X183698000Y-85132667D01*
X183698000Y-93411775D01*
X182565776Y-94544000D01*
X180721000Y-94544000D01*
X180548027Y-94578406D01*
X180401388Y-94676388D01*
X177180388Y-97897388D01*
X177082406Y-98044027D01*
X177048000Y-98217000D01*
X177048000Y-100216594D01*
X176850000Y-100216594D01*
X176748346Y-100236317D01*
X176650000Y-100216594D01*
X176452000Y-100216594D01*
X176452000Y-90084500D01*
X176417594Y-89911527D01*
X176319612Y-89764888D01*
X172658612Y-86103888D01*
X172511973Y-86005906D01*
X172339000Y-85971500D01*
X170243500Y-85971500D01*
X170070527Y-86005906D01*
X169923888Y-86103888D01*
X169034888Y-86992888D01*
X168936906Y-87139527D01*
X168902500Y-87312500D01*
X160472000Y-87312500D01*
X160472000Y-85196052D01*
X160770703Y-85072631D01*
X161144319Y-84699666D01*
X161346769Y-84212115D01*
X161347229Y-83684202D01*
X161145631Y-83196297D01*
X160772666Y-82822681D01*
X160731290Y-82805500D01*
X174028446Y-82805500D01*
X180529000Y-89306054D01*
X180529000Y-91074893D01*
X180322440Y-91160242D01*
X179808048Y-91673736D01*
X179529318Y-92344993D01*
X179528684Y-93071818D01*
X179806242Y-93743560D01*
X180319736Y-94257952D01*
X180990993Y-94536682D01*
X181717818Y-94537316D01*
X182389560Y-94259758D01*
X182903952Y-93746264D01*
X183182682Y-93075007D01*
X183183316Y-92348182D01*
X182905758Y-91676440D01*
X182392264Y-91162048D01*
X182183000Y-91075154D01*
X182183000Y-88963500D01*
X182120048Y-88647021D01*
X181940777Y-88378723D01*
X176163145Y-82601091D01*
X176035277Y-82409723D01*
X175843909Y-82281855D01*
X174955777Y-81393723D01*
X174687479Y-81214452D01*
X174371000Y-81151500D01*
X148018500Y-81151500D01*
X147702021Y-81214452D01*
X147433723Y-81393723D01*
X145072446Y-83755000D01*
X140652500Y-83755000D01*
X140336021Y-83817952D01*
X140067723Y-83997223D01*
X139383190Y-84681756D01*
X139256521Y-84706952D01*
X138988223Y-84886223D01*
X138808952Y-85154521D01*
X138746000Y-85471000D01*
X138746000Y-86038919D01*
X138695297Y-86059869D01*
X138396145Y-86358500D01*
X137955467Y-86358500D01*
X137658666Y-86061181D01*
X137171115Y-85858731D01*
X136643202Y-85858271D01*
X136155297Y-86059869D01*
X135856145Y-86358500D01*
X133394500Y-86358500D01*
X133078021Y-86421452D01*
X132809722Y-86600723D01*
X129071418Y-90339027D01*
X128865007Y-90253318D01*
X128138182Y-90252684D01*
X127466440Y-90530242D01*
X126952048Y-91043736D01*
X126673318Y-91714993D01*
X126672684Y-92441818D01*
X126950242Y-93113560D01*
X127463736Y-93627952D01*
X128134993Y-93906682D01*
X128861818Y-93907316D01*
X129533560Y-93629758D01*
X130047952Y-93116264D01*
X130326682Y-92445007D01*
X130327316Y-91718182D01*
X130240787Y-91508767D01*
X133737055Y-88012500D01*
X135856533Y-88012500D01*
X136153334Y-88309819D01*
X136500558Y-88454000D01*
X136334500Y-88454000D01*
X136018021Y-88516952D01*
X135749723Y-88696223D01*
X130415723Y-94030223D01*
X130236452Y-94298521D01*
X130173500Y-94615000D01*
X130173500Y-95058000D01*
X126619000Y-95058000D01*
X126302521Y-95120952D01*
X126034223Y-95300223D01*
X122915223Y-98419223D01*
X122735952Y-98687521D01*
X122673000Y-99004000D01*
X122673000Y-104871254D01*
X122450866Y-105093000D01*
X118080000Y-105093000D01*
X117763521Y-105155952D01*
X117495223Y-105335223D01*
X114813852Y-108016594D01*
X114350000Y-108016594D01*
X114225316Y-108040785D01*
X114115730Y-108112771D01*
X114042375Y-108221445D01*
X114016594Y-108350000D01*
X110377000Y-108350000D01*
X110377000Y-103773093D01*
X112122796Y-103773093D01*
X112301606Y-104205846D01*
X112632412Y-104537230D01*
X113064853Y-104716795D01*
X113533093Y-104717204D01*
X113965846Y-104538394D01*
X114297230Y-104207588D01*
X114476795Y-103775147D01*
X114477204Y-103306907D01*
X114298394Y-102874154D01*
X113967588Y-102542770D01*
X113535147Y-102363205D01*
X113066907Y-102362796D01*
X112634154Y-102541606D01*
X112302770Y-102872412D01*
X112123205Y-103304853D01*
X112122796Y-103773093D01*
X110377000Y-103773093D01*
X110377000Y-88773093D01*
X112122796Y-88773093D01*
X112301606Y-89205846D01*
X112632412Y-89537230D01*
X113064853Y-89716795D01*
X113533093Y-89717204D01*
X113965846Y-89538394D01*
X114297230Y-89207588D01*
X114476795Y-88775147D01*
X114477204Y-88306907D01*
X114298394Y-87874154D01*
X113967588Y-87542770D01*
X113535147Y-87363205D01*
X113066907Y-87362796D01*
X112634154Y-87541606D01*
X112302770Y-87872412D01*
X112123205Y-88304853D01*
X112122796Y-88773093D01*
X110377000Y-88773093D01*
X110377000Y-83506306D01*
X110420903Y-83612559D01*
X111074997Y-84267797D01*
X111930050Y-84622846D01*
X112855888Y-84623654D01*
X113711559Y-84270097D01*
X114366797Y-83616003D01*
X114721846Y-82760950D01*
X114722188Y-82368298D01*
X135578771Y-82368298D01*
X135780369Y-82856203D01*
X136153334Y-83229819D01*
X136640885Y-83432269D01*
X137168798Y-83432729D01*
X137656703Y-83231131D01*
X138030319Y-82858166D01*
X138176109Y-82507067D01*
X138320369Y-82856203D01*
X138693334Y-83229819D01*
X139180885Y-83432269D01*
X139708798Y-83432729D01*
X140196703Y-83231131D01*
X140570319Y-82858166D01*
X140716109Y-82507067D01*
X140860369Y-82856203D01*
X141233334Y-83229819D01*
X141720885Y-83432269D01*
X142248798Y-83432729D01*
X142736703Y-83231131D01*
X143110319Y-82858166D01*
X143312769Y-82370615D01*
X143313229Y-81842702D01*
X143111631Y-81354797D01*
X142738666Y-80981181D01*
X142251115Y-80778731D01*
X141723202Y-80778271D01*
X141235297Y-80979869D01*
X140861681Y-81352834D01*
X140715891Y-81703933D01*
X140571631Y-81354797D01*
X140198666Y-80981181D01*
X139711115Y-80778731D01*
X139183202Y-80778271D01*
X138695297Y-80979869D01*
X138321681Y-81352834D01*
X138175891Y-81703933D01*
X138031631Y-81354797D01*
X137658666Y-80981181D01*
X137171115Y-80778731D01*
X136643202Y-80778271D01*
X136155297Y-80979869D01*
X135781681Y-81352834D01*
X135579231Y-81840385D01*
X135578771Y-82368298D01*
X114722188Y-82368298D01*
X114722654Y-81835112D01*
X114369097Y-80979441D01*
X113767708Y-80377000D01*
X196367248Y-80377000D01*
X195767203Y-80975997D01*
M02*
