G04 #@! TF.FileFunction,Copper,L2,Bot,Signal*
%FSLAX46Y46*%
G04 Gerber Fmt 4.6, Leading zero omitted, Abs format (unit mm)*
G04 Created by KiCad (PCBNEW (2015-07-11 BZR 5925, Git c291b88)-product) date 2015/07/28 4:08:13*
%MOMM*%
G01*
G04 APERTURE LIST*
%ADD10C,0.100000*%
%ADD11R,0.800000X0.750000*%
%ADD12R,1.000000X1.250000*%
%ADD13R,1.400000X1.400000*%
%ADD14C,1.400000*%
%ADD15R,0.750000X0.800000*%
%ADD16C,3.000000*%
%ADD17C,1.998980*%
%ADD18C,1.905000*%
%ADD19R,1.500000X0.300000*%
%ADD20R,0.300000X1.500000*%
%ADD21R,5.600700X2.100580*%
%ADD22C,2.000000*%
%ADD23O,2.000000X1.500000*%
%ADD24R,1.300000X1.300000*%
%ADD25C,1.300000*%
%ADD26R,1.998980X1.998980*%
%ADD27R,0.500000X0.900000*%
%ADD28R,2.000000X2.000000*%
%ADD29C,1.524000*%
%ADD30C,3.200000*%
%ADD31C,0.600000*%
%ADD32C,0.250000*%
%ADD33C,1.000000*%
%ADD34C,0.254000*%
G04 APERTURE END LIST*
D10*
X181000000Y-57600000D02*
X81000000Y-57600000D01*
X181000000Y-107600000D02*
X181000000Y-57600000D01*
X81000000Y-107600000D02*
X181000000Y-107600000D01*
X81000000Y-57600000D02*
X81000000Y-107600000D01*
D11*
X134850000Y-83050000D03*
X133350000Y-83050000D03*
X152600000Y-66700000D03*
X154100000Y-66700000D03*
D12*
X153650000Y-72850000D03*
X155650000Y-72850000D03*
D11*
X126550000Y-87700000D03*
X125050000Y-87700000D03*
X126250000Y-91400000D03*
X124750000Y-91400000D03*
D13*
X93000000Y-95000000D03*
D14*
X98000000Y-95000000D03*
D11*
X141350000Y-59900000D03*
X139850000Y-59900000D03*
D15*
X159650000Y-63400000D03*
X159650000Y-64900000D03*
D11*
X147000000Y-85450000D03*
X148500000Y-85450000D03*
X127550000Y-101400000D03*
X126050000Y-101400000D03*
D12*
X126600000Y-94250000D03*
X124600000Y-94250000D03*
D11*
X153700000Y-80450000D03*
X155200000Y-80450000D03*
X153900000Y-75400000D03*
X155400000Y-75400000D03*
D15*
X121800000Y-85950000D03*
X121800000Y-87450000D03*
D11*
X133300000Y-66700000D03*
X131800000Y-66700000D03*
X145450000Y-101400000D03*
X146950000Y-101400000D03*
D16*
X100000000Y-77200000D03*
X100000000Y-69280000D03*
D17*
X118080000Y-79600000D03*
X107920000Y-79600000D03*
X118080000Y-82600000D03*
X107920000Y-82600000D03*
X82600000Y-86120000D03*
X82600000Y-96280000D03*
D18*
X87690000Y-92410000D03*
X90230000Y-92410000D03*
X92770000Y-92410000D03*
X95310000Y-92410000D03*
X95310000Y-84790000D03*
X92770000Y-84790000D03*
X90230000Y-84790000D03*
X87690000Y-84790000D03*
D19*
X135100000Y-80400000D03*
X135100000Y-79900000D03*
X135100000Y-79400000D03*
X135100000Y-78900000D03*
X135100000Y-78400000D03*
X135100000Y-77900000D03*
X135100000Y-77400000D03*
X135100000Y-76900000D03*
X135100000Y-76400000D03*
X135100000Y-75900000D03*
X135100000Y-75400000D03*
X135100000Y-74900000D03*
X135100000Y-74400000D03*
X135100000Y-73900000D03*
X135100000Y-73400000D03*
X135100000Y-72900000D03*
X135100000Y-72400000D03*
X135100000Y-71900000D03*
X135100000Y-71400000D03*
X135100000Y-70900000D03*
X135100000Y-70400000D03*
X135100000Y-69900000D03*
X135100000Y-69400000D03*
X135100000Y-68900000D03*
X135100000Y-68400000D03*
D20*
X136800000Y-66700000D03*
X137300000Y-66700000D03*
X137800000Y-66700000D03*
X138300000Y-66700000D03*
X138800000Y-66700000D03*
X139300000Y-66700000D03*
X139800000Y-66700000D03*
X140300000Y-66700000D03*
X140800000Y-66700000D03*
X141300000Y-66700000D03*
X141800000Y-66700000D03*
X142300000Y-66700000D03*
X142800000Y-66700000D03*
X143300000Y-66700000D03*
X143800000Y-66700000D03*
X144300000Y-66700000D03*
X144800000Y-66700000D03*
X145300000Y-66700000D03*
X145800000Y-66700000D03*
X146300000Y-66700000D03*
X146800000Y-66700000D03*
X147300000Y-66700000D03*
X147800000Y-66700000D03*
X148300000Y-66700000D03*
X148800000Y-66700000D03*
D19*
X150500000Y-68400000D03*
X150500000Y-68900000D03*
X150500000Y-69400000D03*
X150500000Y-69900000D03*
X150500000Y-70400000D03*
X150500000Y-70900000D03*
X150500000Y-71400000D03*
X150500000Y-71900000D03*
X150500000Y-72400000D03*
X150500000Y-72900000D03*
X150500000Y-73400000D03*
X150500000Y-73900000D03*
X150500000Y-74400000D03*
X150500000Y-74900000D03*
X150500000Y-75400000D03*
X150500000Y-75900000D03*
X150500000Y-76400000D03*
X150500000Y-76900000D03*
X150500000Y-77400000D03*
X150500000Y-77900000D03*
X150500000Y-78400000D03*
X150500000Y-78900000D03*
X150500000Y-79400000D03*
X150500000Y-79900000D03*
X150500000Y-80400000D03*
D20*
X148800000Y-82100000D03*
X148300000Y-82100000D03*
X147800000Y-82100000D03*
X147300000Y-82100000D03*
X146800000Y-82100000D03*
X146300000Y-82100000D03*
X145800000Y-82100000D03*
X145300000Y-82100000D03*
X144800000Y-82100000D03*
X144300000Y-82100000D03*
X143800000Y-82100000D03*
X143300000Y-82100000D03*
X142800000Y-82100000D03*
X142300000Y-82100000D03*
X141800000Y-82100000D03*
X141300000Y-82100000D03*
X140800000Y-82100000D03*
X140300000Y-82100000D03*
X139800000Y-82100000D03*
X139300000Y-82100000D03*
X138800000Y-82100000D03*
X138300000Y-82100000D03*
X137800000Y-82100000D03*
X137300000Y-82100000D03*
X136800000Y-82100000D03*
D19*
X145000000Y-87700000D03*
X145000000Y-88200000D03*
X145000000Y-88700000D03*
X145000000Y-89200000D03*
X145000000Y-89700000D03*
X145000000Y-90200000D03*
X145000000Y-90700000D03*
X145000000Y-91200000D03*
X145000000Y-91700000D03*
X145000000Y-92200000D03*
X145000000Y-92700000D03*
X145000000Y-93200000D03*
X145000000Y-93700000D03*
X145000000Y-94200000D03*
X145000000Y-94700000D03*
X145000000Y-95200000D03*
X145000000Y-95700000D03*
X145000000Y-96200000D03*
X145000000Y-96700000D03*
X145000000Y-97200000D03*
X145000000Y-97700000D03*
X145000000Y-98200000D03*
X145000000Y-98700000D03*
X145000000Y-99200000D03*
X145000000Y-99700000D03*
D20*
X143300000Y-101400000D03*
X142800000Y-101400000D03*
X142300000Y-101400000D03*
X141800000Y-101400000D03*
X141300000Y-101400000D03*
X140800000Y-101400000D03*
X140300000Y-101400000D03*
X139800000Y-101400000D03*
X139300000Y-101400000D03*
X138800000Y-101400000D03*
X138300000Y-101400000D03*
X137800000Y-101400000D03*
X137300000Y-101400000D03*
X136800000Y-101400000D03*
X136300000Y-101400000D03*
X135800000Y-101400000D03*
X135300000Y-101400000D03*
X134800000Y-101400000D03*
X134300000Y-101400000D03*
X133800000Y-101400000D03*
X133300000Y-101400000D03*
X132800000Y-101400000D03*
X132300000Y-101400000D03*
X131800000Y-101400000D03*
X131300000Y-101400000D03*
D19*
X129600000Y-99700000D03*
X129600000Y-99200000D03*
X129600000Y-98700000D03*
X129600000Y-98200000D03*
X129600000Y-97700000D03*
X129600000Y-97200000D03*
X129600000Y-96700000D03*
X129600000Y-96200000D03*
X129600000Y-95700000D03*
X129600000Y-95200000D03*
X129600000Y-94700000D03*
X129600000Y-94200000D03*
X129600000Y-93700000D03*
X129600000Y-93200000D03*
X129600000Y-92700000D03*
X129600000Y-92200000D03*
X129600000Y-91700000D03*
X129600000Y-91200000D03*
X129600000Y-90700000D03*
X129600000Y-90200000D03*
X129600000Y-89700000D03*
X129600000Y-89200000D03*
X129600000Y-88700000D03*
X129600000Y-88200000D03*
X129600000Y-87700000D03*
D20*
X131300000Y-86000000D03*
X131800000Y-86000000D03*
X132300000Y-86000000D03*
X132800000Y-86000000D03*
X133300000Y-86000000D03*
X133800000Y-86000000D03*
X134300000Y-86000000D03*
X134800000Y-86000000D03*
X135300000Y-86000000D03*
X135800000Y-86000000D03*
X136300000Y-86000000D03*
X136800000Y-86000000D03*
X137300000Y-86000000D03*
X137800000Y-86000000D03*
X138300000Y-86000000D03*
X138800000Y-86000000D03*
X139300000Y-86000000D03*
X139800000Y-86000000D03*
X140300000Y-86000000D03*
X140800000Y-86000000D03*
X141300000Y-86000000D03*
X141800000Y-86000000D03*
X142300000Y-86000000D03*
X142800000Y-86000000D03*
X143300000Y-86000000D03*
D21*
X155348860Y-61350000D03*
X145651140Y-61350000D03*
D22*
X130100000Y-71370000D03*
X130100000Y-73910000D03*
X130100000Y-76450000D03*
X130100000Y-78990000D03*
X130100000Y-81530000D03*
X167720000Y-92500000D03*
X170260000Y-92500000D03*
X172800000Y-92500000D03*
X175340000Y-92500000D03*
X177880000Y-92500000D03*
D23*
X120900000Y-83440000D03*
X120900000Y-78360000D03*
X120900000Y-80900000D03*
D24*
X120900000Y-73850000D03*
D25*
X118400000Y-73850000D03*
D24*
X116200000Y-87400000D03*
D25*
X116200000Y-92400000D03*
D24*
X113400000Y-72400000D03*
D25*
X108400000Y-72400000D03*
D16*
X162200000Y-71200000D03*
X162200000Y-79120000D03*
D17*
X86190000Y-96100000D03*
D26*
X90000000Y-96100000D03*
D22*
X125340000Y-61400000D03*
X122800000Y-61400000D03*
X120260000Y-61400000D03*
X169840000Y-61400000D03*
X167300000Y-61400000D03*
X164760000Y-61400000D03*
X172212000Y-104140000D03*
X169672000Y-104140000D03*
X167132000Y-104140000D03*
X164592000Y-104140000D03*
X158810000Y-104100000D03*
X156270000Y-104100000D03*
X153730000Y-104100000D03*
X151190000Y-104100000D03*
X110810000Y-104100000D03*
X108270000Y-104100000D03*
X105730000Y-104100000D03*
X103190000Y-104100000D03*
X97282000Y-104140000D03*
X94742000Y-104140000D03*
X92202000Y-104140000D03*
X89662000Y-104140000D03*
D27*
X110350000Y-63700000D03*
X108850000Y-63700000D03*
D28*
X113200000Y-63700000D03*
D22*
X115740000Y-63700000D03*
D24*
X105100000Y-87400000D03*
D25*
X105100000Y-92400000D03*
D29*
X97560000Y-60600000D03*
X100100000Y-60600000D03*
X102640000Y-60600000D03*
X95020000Y-60600000D03*
X105180000Y-60600000D03*
D27*
X156950000Y-88000000D03*
X158450000Y-88000000D03*
X158450000Y-91000000D03*
X156950000Y-91000000D03*
X156950000Y-94000000D03*
X158450000Y-94000000D03*
X158450000Y-97000000D03*
X156950000Y-97000000D03*
D30*
X178000000Y-60600000D03*
X84000000Y-60600000D03*
X84000000Y-104600000D03*
X178000000Y-104600000D03*
D27*
X158350000Y-85600000D03*
X156850000Y-85600000D03*
X158350000Y-82000000D03*
X156850000Y-82000000D03*
D31*
X137400000Y-88500000D03*
X148600000Y-80500000D03*
X142800000Y-80500000D03*
X148500000Y-86900000D03*
X146800000Y-83800000D03*
X140100000Y-89800000D03*
X155800000Y-71200000D03*
X155600000Y-66800000D03*
X135300000Y-102750000D03*
X132800000Y-99850000D03*
X146700000Y-94700000D03*
X142000000Y-65000000D03*
X142300000Y-68150000D03*
X137800000Y-99950000D03*
X141200000Y-62200000D03*
X144250000Y-79550000D03*
X136800000Y-99900000D03*
X150000000Y-87700000D03*
X155600000Y-87700000D03*
X150100000Y-90700000D03*
X155500000Y-91000000D03*
X150600000Y-93700000D03*
X155400000Y-93900000D03*
X150700000Y-96700000D03*
X155600000Y-96900000D03*
X155500000Y-85500000D03*
X148300000Y-83800000D03*
X155300000Y-82000000D03*
X150600000Y-82000000D03*
D32*
X115740000Y-63700000D02*
X118300000Y-66260000D01*
X118300000Y-71250000D02*
X120900000Y-73850000D01*
X118300000Y-69200000D02*
X118300000Y-71250000D01*
X118300000Y-66260000D02*
X118300000Y-69200000D01*
D33*
X120900000Y-78360000D02*
X124360000Y-78360000D01*
X127530000Y-81530000D02*
X130100000Y-81530000D01*
X124360000Y-78360000D02*
X127530000Y-81530000D01*
X120900000Y-78360000D02*
X120900000Y-73850000D01*
D32*
X177880000Y-92500000D02*
X177880000Y-89280000D01*
X173100000Y-84500000D02*
X143300000Y-84500000D01*
X177880000Y-89280000D02*
X173100000Y-84500000D01*
X137300000Y-86000000D02*
X137300000Y-88400000D01*
X137300000Y-88400000D02*
X137400000Y-88500000D01*
X136800000Y-82100000D02*
X136800000Y-83400000D01*
X137300000Y-83900000D02*
X137300000Y-86000000D01*
X136800000Y-83400000D02*
X137300000Y-83900000D01*
X130100000Y-81530000D02*
X129600000Y-82030000D01*
X129600000Y-82030000D02*
X129600000Y-87700000D01*
X133300000Y-66700000D02*
X136800000Y-66700000D01*
X137200000Y-80500000D02*
X136800000Y-80100000D01*
X136800000Y-80100000D02*
X136800000Y-66700000D01*
X143300000Y-101400000D02*
X143300000Y-86900000D01*
X143300000Y-86900000D02*
X143300000Y-86000000D01*
X131000000Y-92600000D02*
X131300000Y-92900000D01*
X131300000Y-92900000D02*
X131300000Y-101400000D01*
X129600000Y-87700000D02*
X130700000Y-87700000D01*
X130900000Y-92700000D02*
X129600000Y-92700000D01*
X131000000Y-92600000D02*
X130900000Y-92700000D01*
X131000000Y-88000000D02*
X131000000Y-92600000D01*
X130700000Y-87700000D02*
X131000000Y-88000000D01*
X148600000Y-76200000D02*
X148800000Y-76000000D01*
X148800000Y-76000000D02*
X148800000Y-66700000D01*
X148600000Y-80500000D02*
X148600000Y-76200000D01*
X149400000Y-75400000D02*
X150500000Y-75400000D01*
X148600000Y-76200000D02*
X149400000Y-75400000D01*
X142800000Y-82100000D02*
X142800000Y-83800000D01*
X142800000Y-83800000D02*
X143300000Y-84300000D01*
X143300000Y-84300000D02*
X143300000Y-84500000D01*
X143300000Y-84500000D02*
X143300000Y-86000000D01*
X148700000Y-80400000D02*
X150500000Y-80400000D01*
X148600000Y-80500000D02*
X148700000Y-80400000D01*
X150500000Y-80400000D02*
X153650000Y-80400000D01*
X153650000Y-80400000D02*
X153700000Y-80450000D01*
X136800000Y-82100000D02*
X136800000Y-80900000D01*
X137200000Y-80500000D02*
X142800000Y-80500000D01*
X136800000Y-80900000D02*
X137200000Y-80500000D01*
X130100000Y-81530000D02*
X136230000Y-81530000D01*
X136230000Y-81530000D02*
X136800000Y-82100000D01*
X143300000Y-86000000D02*
X143850000Y-85450000D01*
X143850000Y-85450000D02*
X147000000Y-85450000D01*
X148800000Y-66700000D02*
X152600000Y-66700000D01*
X150500000Y-75400000D02*
X153900000Y-75400000D01*
X136800000Y-82100000D02*
X136800000Y-82700000D01*
X136800000Y-82700000D02*
X136450000Y-83050000D01*
X136450000Y-83050000D02*
X134850000Y-83050000D01*
X129600000Y-87700000D02*
X126550000Y-87700000D01*
X129600000Y-92700000D02*
X127550000Y-92700000D01*
X127550000Y-92700000D02*
X126250000Y-91400000D01*
X127550000Y-101400000D02*
X131300000Y-101400000D01*
X143300000Y-101400000D02*
X145450000Y-101400000D01*
X142800000Y-80500000D02*
X142800000Y-82100000D01*
X143300000Y-82100000D02*
X143300000Y-83200000D01*
X148500000Y-86900000D02*
X148500000Y-85450000D01*
X146600000Y-83600000D02*
X146800000Y-83800000D01*
X143700000Y-83600000D02*
X146600000Y-83600000D01*
X143300000Y-83200000D02*
X143700000Y-83600000D01*
X145000000Y-94200000D02*
X145000000Y-93700000D01*
X154100000Y-66700000D02*
X155500000Y-66700000D01*
X155800000Y-71200000D02*
X155800000Y-72700000D01*
X155500000Y-66700000D02*
X155600000Y-66800000D01*
X155800000Y-72700000D02*
X155650000Y-72850000D01*
X150500000Y-74400000D02*
X152100000Y-74400000D01*
X152100000Y-74400000D02*
X153650000Y-72850000D01*
D33*
X92770000Y-92410000D02*
X92770000Y-94770000D01*
X92770000Y-94770000D02*
X93000000Y-95000000D01*
D32*
X145651140Y-61350000D02*
X144800000Y-62201140D01*
X144800000Y-62201140D02*
X144800000Y-66700000D01*
X141350000Y-59900000D02*
X144201140Y-59900000D01*
X144201140Y-59900000D02*
X145651140Y-61350000D01*
X155348860Y-61350000D02*
X157600000Y-61350000D01*
X157600000Y-61350000D02*
X159650000Y-63400000D01*
X145300000Y-66700000D02*
X145300000Y-63950000D01*
X151950000Y-61350000D02*
X155348860Y-61350000D01*
X150000000Y-63300000D02*
X151950000Y-61350000D01*
X145950000Y-63300000D02*
X150000000Y-63300000D01*
X145300000Y-63950000D02*
X145950000Y-63300000D01*
X135300000Y-101400000D02*
X135300000Y-102750000D01*
X134800000Y-101400000D02*
X134800000Y-100200000D01*
X134450000Y-99850000D02*
X132800000Y-99850000D01*
X134800000Y-100200000D02*
X134450000Y-99850000D01*
X129600000Y-93700000D02*
X127150000Y-93700000D01*
X127150000Y-93700000D02*
X126600000Y-94250000D01*
D33*
X120900000Y-83440000D02*
X120060000Y-82600000D01*
X120060000Y-82600000D02*
X118080000Y-82600000D01*
D32*
X120900000Y-83440000D02*
X121800000Y-84340000D01*
X121800000Y-84340000D02*
X121800000Y-85950000D01*
D33*
X110810000Y-104100000D02*
X110810000Y-88290000D01*
X110810000Y-88290000D02*
X111700000Y-87400000D01*
X116200000Y-87400000D02*
X111700000Y-87400000D01*
X111700000Y-87400000D02*
X105100000Y-87400000D01*
X118080000Y-82600000D02*
X118080000Y-85520000D01*
X118080000Y-85520000D02*
X116200000Y-87400000D01*
D32*
X130100000Y-71370000D02*
X130570000Y-70900000D01*
X130570000Y-70900000D02*
X135100000Y-70900000D01*
X128900000Y-69600000D02*
X128800000Y-69600000D01*
X128300000Y-70100000D02*
X128300000Y-70300000D01*
X128800000Y-69600000D02*
X128300000Y-70100000D01*
X130600000Y-69600000D02*
X129000000Y-69600000D01*
X132300000Y-70400000D02*
X132000000Y-70400000D01*
X132000000Y-70400000D02*
X131800000Y-70400000D01*
X131800000Y-70400000D02*
X131600000Y-70400000D01*
X131600000Y-70400000D02*
X131400000Y-70400000D01*
X131400000Y-70400000D02*
X130600000Y-69600000D01*
X135100000Y-70400000D02*
X132300000Y-70400000D01*
X128300000Y-72110000D02*
X130100000Y-73910000D01*
X128300000Y-70300000D02*
X128300000Y-72110000D01*
X129000000Y-69600000D02*
X128900000Y-69600000D01*
X135100000Y-73400000D02*
X132900000Y-73400000D01*
X132900000Y-73400000D02*
X130100000Y-76200000D01*
X130100000Y-76200000D02*
X130100000Y-76450000D01*
D33*
X100100000Y-60600000D02*
X100000000Y-60700000D01*
X100000000Y-60700000D02*
X100000000Y-69280000D01*
X100100000Y-60600000D02*
X100100000Y-59400000D01*
X162200000Y-61900000D02*
X162200000Y-71200000D01*
X158900000Y-58600000D02*
X162200000Y-61900000D01*
X155100000Y-58600000D02*
X158900000Y-58600000D01*
X100900000Y-58600000D02*
X155100000Y-58600000D01*
X100100000Y-59400000D02*
X100900000Y-58600000D01*
X100100000Y-68580000D02*
X100000000Y-68680000D01*
X97560000Y-60600000D02*
X100100000Y-60600000D01*
D32*
X145000000Y-97200000D02*
X149600000Y-97200000D01*
X162420000Y-97800000D02*
X167720000Y-92500000D01*
X150200000Y-97800000D02*
X162420000Y-97800000D01*
X149600000Y-97200000D02*
X150200000Y-97800000D01*
X167180000Y-93300000D02*
X167200000Y-93280000D01*
X167200000Y-93280000D02*
X167080000Y-93280000D01*
X145000000Y-97700000D02*
X148900000Y-97700000D01*
X164460000Y-98300000D02*
X170260000Y-92500000D01*
X149500000Y-98300000D02*
X164460000Y-98300000D01*
X148900000Y-97700000D02*
X149500000Y-98300000D01*
X146700000Y-94700000D02*
X145000000Y-94700000D01*
D33*
X92600000Y-82800000D02*
X92600000Y-78100000D01*
X103000000Y-73500000D02*
X106900000Y-69600000D01*
X97200000Y-73500000D02*
X103000000Y-73500000D01*
X92600000Y-78100000D02*
X97200000Y-73500000D01*
X113400000Y-72400000D02*
X110700000Y-69700000D01*
X110700000Y-69700000D02*
X107000000Y-69700000D01*
X107000000Y-69700000D02*
X106900000Y-69600000D01*
X102640000Y-65340000D02*
X102640000Y-60600000D01*
X106900000Y-69600000D02*
X102640000Y-65340000D01*
X84600000Y-82800000D02*
X82600000Y-84800000D01*
X92770000Y-82800000D02*
X92600000Y-82800000D01*
X92600000Y-82800000D02*
X84800000Y-82800000D01*
X84600000Y-82800000D02*
X84800000Y-82800000D01*
X82600000Y-84800000D02*
X82600000Y-86120000D01*
X92770000Y-84790000D02*
X92770000Y-82800000D01*
X113340000Y-72340000D02*
X113400000Y-72400000D01*
X105100000Y-92400000D02*
X102100000Y-92400000D01*
X93440000Y-89200000D02*
X90230000Y-92410000D01*
X98900000Y-89200000D02*
X93440000Y-89200000D01*
X102100000Y-92400000D02*
X98900000Y-89200000D01*
X90000000Y-96100000D02*
X90000000Y-92640000D01*
X90000000Y-92640000D02*
X90230000Y-92410000D01*
X107920000Y-79600000D02*
X107920000Y-82600000D01*
X95310000Y-84790000D02*
X99710000Y-84790000D01*
X101900000Y-82600000D02*
X107920000Y-82600000D01*
X99710000Y-84790000D02*
X101900000Y-82600000D01*
X82600000Y-96280000D02*
X82600000Y-95200000D01*
X82600000Y-95200000D02*
X85390000Y-92410000D01*
X87690000Y-92410000D02*
X85390000Y-92410000D01*
X87690000Y-92410000D02*
X87690000Y-84790000D01*
X90230000Y-84790000D02*
X87690000Y-84790000D01*
D32*
X142000000Y-65000000D02*
X141800000Y-65200000D01*
X141800000Y-65200000D02*
X141800000Y-66700000D01*
X164592000Y-104140000D02*
X164592000Y-105198000D01*
X141800000Y-104599998D02*
X143900000Y-106699998D01*
X143900000Y-106699998D02*
X163090002Y-106699998D01*
X141800000Y-104599998D02*
X141800000Y-101400000D01*
X164592000Y-105198000D02*
X163090002Y-106699998D01*
X167132000Y-104140000D02*
X167132000Y-105198000D01*
X141300000Y-104300000D02*
X141300000Y-101400000D01*
X141300000Y-104300000D02*
X141300000Y-104350000D01*
X141300000Y-104800000D02*
X143650000Y-107150000D01*
X143650000Y-107150000D02*
X165180000Y-107150000D01*
X141300000Y-104350000D02*
X141300000Y-104800000D01*
X167132000Y-105198000D02*
X165180000Y-107150000D01*
X151190000Y-104100000D02*
X149490006Y-105799994D01*
X142800000Y-104327202D02*
X144272792Y-105799994D01*
X144272792Y-105799994D02*
X149490006Y-105799994D01*
X142800000Y-104327202D02*
X142800000Y-101400000D01*
X153730000Y-104100000D02*
X151580004Y-106249996D01*
X142300000Y-104463600D02*
X142300000Y-101400000D01*
X144086396Y-106249996D02*
X151580004Y-106249996D01*
X142300000Y-104463600D02*
X144086396Y-106249996D01*
X153730000Y-104100000D02*
X153730000Y-104170000D01*
X139800000Y-101400000D02*
X139800000Y-104450000D01*
X139800000Y-104450000D02*
X137999998Y-106250002D01*
X105340002Y-106250002D02*
X103190000Y-104100000D01*
X137999998Y-106250002D02*
X105340002Y-106250002D01*
X107430000Y-105800000D02*
X105730000Y-104100000D01*
X137800000Y-105800000D02*
X107430000Y-105800000D01*
X139300000Y-101400000D02*
X139300000Y-104300000D01*
X139300000Y-104300000D02*
X137800000Y-105800000D01*
X89662000Y-104140000D02*
X89662000Y-105072000D01*
X89662000Y-105072000D02*
X91740006Y-107150006D01*
X140800000Y-104850000D02*
X138499994Y-107150006D01*
X138499994Y-107150006D02*
X91740006Y-107150006D01*
X140800000Y-101400000D02*
X140800000Y-104850000D01*
X92202000Y-104140000D02*
X92202000Y-105072000D01*
X92202000Y-105072000D02*
X93830004Y-106700004D01*
X140300000Y-104650000D02*
X138249996Y-106700004D01*
X138249996Y-106700004D02*
X93830004Y-106700004D01*
X140300000Y-101400000D02*
X140300000Y-104650000D01*
X142300000Y-82100000D02*
X142300000Y-86000000D01*
X141800000Y-86000000D02*
X141800000Y-82100000D01*
X141300000Y-82100000D02*
X141300000Y-86000000D01*
X140800000Y-86000000D02*
X140800000Y-82100000D01*
X140300000Y-86000000D02*
X140300000Y-82100000D01*
X139800000Y-82100000D02*
X139800000Y-86000000D01*
X139300000Y-86000000D02*
X139300000Y-82100000D01*
X138800000Y-82100000D02*
X138800000Y-86000000D01*
X138300000Y-82100000D02*
X138300000Y-86000000D01*
X137800000Y-86000000D02*
X137800000Y-82100000D01*
X142300000Y-66700000D02*
X142300000Y-68150000D01*
X137800000Y-101400000D02*
X137800000Y-99950000D01*
X110350000Y-63700000D02*
X113200000Y-63700000D01*
X141300000Y-66700000D02*
X141300000Y-62300000D01*
X141300000Y-62300000D02*
X141200000Y-62200000D01*
X143300000Y-66700000D02*
X143300000Y-79500000D01*
X143300000Y-79500000D02*
X143800000Y-80000000D01*
X143800000Y-82100000D02*
X143800000Y-80000000D01*
X143800000Y-80000000D02*
X144250000Y-79550000D01*
X136300000Y-86000000D02*
X136300000Y-97100000D01*
X136800000Y-97600000D02*
X136800000Y-99900000D01*
X136300000Y-97100000D02*
X136800000Y-97600000D01*
X136800000Y-101400000D02*
X136800000Y-99900000D01*
X135100000Y-68400000D02*
X125300000Y-68400000D01*
X122800000Y-65900000D02*
X122800000Y-61400000D01*
X125300000Y-68400000D02*
X122800000Y-65900000D01*
X135100000Y-68900000D02*
X122800000Y-68900000D01*
X120260000Y-66360000D02*
X120260000Y-61400000D01*
X122800000Y-68900000D02*
X120260000Y-66360000D01*
X167300000Y-61400000D02*
X167300000Y-70700000D01*
X155900000Y-68900000D02*
X150500000Y-68900000D01*
X161200000Y-74200000D02*
X155900000Y-68900000D01*
X163800000Y-74200000D02*
X161200000Y-74200000D01*
X167300000Y-70700000D02*
X163800000Y-74200000D01*
X164760000Y-61400000D02*
X164760000Y-71940000D01*
X156400000Y-68400000D02*
X150500000Y-68400000D01*
X161600000Y-73600000D02*
X156400000Y-68400000D01*
X163100000Y-73600000D02*
X161600000Y-73600000D01*
X164760000Y-71940000D02*
X163100000Y-73600000D01*
X147100000Y-89700000D02*
X145000000Y-89700000D01*
X149100000Y-87700000D02*
X150000000Y-87700000D01*
X147100000Y-89700000D02*
X149100000Y-87700000D01*
X156950000Y-88000000D02*
X155900000Y-88000000D01*
X155900000Y-88000000D02*
X155600000Y-87700000D01*
X149600000Y-90200000D02*
X145000000Y-90200000D01*
X149600000Y-90200000D02*
X150100000Y-90700000D01*
X155500000Y-91000000D02*
X156950000Y-91000000D01*
X147500000Y-90700000D02*
X145000000Y-90700000D01*
X147600000Y-90700000D02*
X150600000Y-93700000D01*
X147500000Y-90700000D02*
X147600000Y-90700000D01*
X156950000Y-94000000D02*
X155500000Y-94000000D01*
X155500000Y-94000000D02*
X155400000Y-93900000D01*
X146800000Y-91200000D02*
X145000000Y-91200000D01*
X150700000Y-95100000D02*
X150700000Y-96700000D01*
X146800000Y-91200000D02*
X150700000Y-95100000D01*
X155700000Y-97000000D02*
X156950000Y-97000000D01*
X155600000Y-96900000D02*
X155700000Y-97000000D01*
X156850000Y-85600000D02*
X155600000Y-85600000D01*
X155600000Y-85600000D02*
X155500000Y-85500000D01*
X148300000Y-83800000D02*
X148300000Y-82100000D01*
X155300000Y-82000000D02*
X156850000Y-82000000D01*
X150500000Y-82100000D02*
X150600000Y-82000000D01*
X150500000Y-82100000D02*
X148800000Y-82100000D01*
D34*
G36*
X131225631Y-80779297D02*
X130852666Y-80405681D01*
X130365115Y-80203231D01*
X129837202Y-80202771D01*
X129349297Y-80404369D01*
X129050145Y-80703000D01*
X127872554Y-80703000D01*
X124944777Y-77775223D01*
X124676479Y-77595952D01*
X124360000Y-77533000D01*
X121839604Y-77533000D01*
X121727000Y-77457760D01*
X121727000Y-74774849D01*
X121784270Y-74737229D01*
X121857625Y-74628555D01*
X121883406Y-74500000D01*
X121883406Y-73200000D01*
X121859215Y-73075316D01*
X121787229Y-72965730D01*
X121678555Y-72892375D01*
X121550000Y-72866594D01*
X120555818Y-72866594D01*
X118752000Y-71062776D01*
X118752000Y-66260000D01*
X118717594Y-66087027D01*
X118619612Y-65940388D01*
X116942826Y-64263602D01*
X117066769Y-63965115D01*
X117067229Y-63437202D01*
X116865631Y-62949297D01*
X116492666Y-62575681D01*
X116005115Y-62373231D01*
X115477202Y-62372771D01*
X114989297Y-62574369D01*
X114615681Y-62947334D01*
X114533406Y-63145473D01*
X114533406Y-62700000D01*
X114509215Y-62575316D01*
X114437229Y-62465730D01*
X114328555Y-62392375D01*
X114200000Y-62366594D01*
X112200000Y-62366594D01*
X112075316Y-62390785D01*
X111965730Y-62462771D01*
X111892375Y-62571445D01*
X111866594Y-62700000D01*
X111866594Y-63248000D01*
X110933018Y-63248000D01*
X110909215Y-63125316D01*
X110837229Y-63015730D01*
X110728555Y-62942375D01*
X110600000Y-62916594D01*
X110100000Y-62916594D01*
X109975316Y-62940785D01*
X109865730Y-63012771D01*
X109792375Y-63121445D01*
X109766594Y-63250000D01*
X109766594Y-64150000D01*
X109790785Y-64274684D01*
X109862771Y-64384270D01*
X109971445Y-64457625D01*
X110100000Y-64483406D01*
X110600000Y-64483406D01*
X110724684Y-64459215D01*
X110834270Y-64387229D01*
X110907625Y-64278555D01*
X110933005Y-64152000D01*
X111866594Y-64152000D01*
X111866594Y-64700000D01*
X111890785Y-64824684D01*
X111962771Y-64934270D01*
X112071445Y-65007625D01*
X112200000Y-65033406D01*
X114200000Y-65033406D01*
X114324684Y-65009215D01*
X114434270Y-64937229D01*
X114507625Y-64828555D01*
X114533406Y-64700000D01*
X114533406Y-64254757D01*
X114614369Y-64450703D01*
X114987334Y-64824319D01*
X115474885Y-65026769D01*
X116002798Y-65027229D01*
X116303682Y-64902906D01*
X117848000Y-66447224D01*
X117848000Y-71250000D01*
X117882406Y-71422973D01*
X117980388Y-71569612D01*
X119916594Y-73505818D01*
X119916594Y-74500000D01*
X119940785Y-74624684D01*
X120012771Y-74734270D01*
X120073000Y-74774925D01*
X120073000Y-77457760D01*
X119862449Y-77598446D01*
X119628985Y-77947850D01*
X119547003Y-78360000D01*
X119628985Y-78772150D01*
X119862449Y-79121554D01*
X120211853Y-79355018D01*
X120624003Y-79437000D01*
X121175997Y-79437000D01*
X121588147Y-79355018D01*
X121839604Y-79187000D01*
X124017446Y-79187000D01*
X126945223Y-82114777D01*
X127213521Y-82294048D01*
X127530000Y-82357000D01*
X129050533Y-82357000D01*
X129148000Y-82454637D01*
X129148000Y-87216594D01*
X128850000Y-87216594D01*
X128725316Y-87240785D01*
X128714332Y-87248000D01*
X127268467Y-87248000D01*
X127259215Y-87200316D01*
X127187229Y-87090730D01*
X127078555Y-87017375D01*
X126950000Y-86991594D01*
X126150000Y-86991594D01*
X126025316Y-87015785D01*
X125915730Y-87087771D01*
X125842375Y-87196445D01*
X125816594Y-87325000D01*
X125816594Y-88075000D01*
X125840785Y-88199684D01*
X125912771Y-88309270D01*
X126021445Y-88382625D01*
X126150000Y-88408406D01*
X126950000Y-88408406D01*
X127074684Y-88384215D01*
X127184270Y-88312229D01*
X127257625Y-88203555D01*
X127267964Y-88152000D01*
X128516594Y-88152000D01*
X128516594Y-88350000D01*
X128536317Y-88451654D01*
X128516594Y-88550000D01*
X128516594Y-88850000D01*
X128536317Y-88951654D01*
X128516594Y-89050000D01*
X128516594Y-89350000D01*
X128536317Y-89451654D01*
X128516594Y-89550000D01*
X128516594Y-89850000D01*
X128536317Y-89951654D01*
X128516594Y-90050000D01*
X128516594Y-90350000D01*
X128536317Y-90451654D01*
X128516594Y-90550000D01*
X128516594Y-90850000D01*
X128536317Y-90951654D01*
X128516594Y-91050000D01*
X128516594Y-91350000D01*
X128536317Y-91451654D01*
X128516594Y-91550000D01*
X128516594Y-91850000D01*
X128540785Y-91974684D01*
X128612771Y-92084270D01*
X128721445Y-92157625D01*
X128850000Y-92183406D01*
X130350000Y-92183406D01*
X130474684Y-92159215D01*
X130548000Y-92111054D01*
X130548000Y-92248000D01*
X130486888Y-92248000D01*
X130478555Y-92242375D01*
X130350000Y-92216594D01*
X128850000Y-92216594D01*
X128725316Y-92240785D01*
X128714332Y-92248000D01*
X127737225Y-92248000D01*
X126983406Y-91494182D01*
X126983406Y-91025000D01*
X126959215Y-90900316D01*
X126887229Y-90790730D01*
X126778555Y-90717375D01*
X126650000Y-90691594D01*
X125850000Y-90691594D01*
X125725316Y-90715785D01*
X125615730Y-90787771D01*
X125542375Y-90896445D01*
X125516594Y-91025000D01*
X125516594Y-91775000D01*
X125540785Y-91899684D01*
X125612771Y-92009270D01*
X125721445Y-92082625D01*
X125850000Y-92108406D01*
X126319182Y-92108406D01*
X127230388Y-93019613D01*
X127377027Y-93117594D01*
X127550000Y-93152000D01*
X128713112Y-93152000D01*
X128721445Y-93157625D01*
X128850000Y-93183406D01*
X130350000Y-93183406D01*
X130474684Y-93159215D01*
X130485668Y-93152000D01*
X130848000Y-93152000D01*
X130848000Y-100513112D01*
X130842375Y-100521445D01*
X130816594Y-100650000D01*
X130816594Y-100948000D01*
X128268467Y-100948000D01*
X128259215Y-100900316D01*
X128187229Y-100790730D01*
X128078555Y-100717375D01*
X127950000Y-100691594D01*
X127150000Y-100691594D01*
X127025316Y-100715785D01*
X126915730Y-100787771D01*
X126842375Y-100896445D01*
X126816594Y-101025000D01*
X126816594Y-101775000D01*
X126840785Y-101899684D01*
X126912771Y-102009270D01*
X127021445Y-102082625D01*
X127150000Y-102108406D01*
X127950000Y-102108406D01*
X128074684Y-102084215D01*
X128184270Y-102012229D01*
X128257625Y-101903555D01*
X128267964Y-101852000D01*
X130816594Y-101852000D01*
X130816594Y-102150000D01*
X130840785Y-102274684D01*
X130912771Y-102384270D01*
X131021445Y-102457625D01*
X131150000Y-102483406D01*
X131450000Y-102483406D01*
X131551654Y-102463683D01*
X131650000Y-102483406D01*
X131950000Y-102483406D01*
X132051654Y-102463683D01*
X132150000Y-102483406D01*
X132450000Y-102483406D01*
X132551654Y-102463683D01*
X132650000Y-102483406D01*
X132950000Y-102483406D01*
X133051654Y-102463683D01*
X133150000Y-102483406D01*
X133450000Y-102483406D01*
X133551654Y-102463683D01*
X133650000Y-102483406D01*
X133950000Y-102483406D01*
X134051654Y-102463683D01*
X134150000Y-102483406D01*
X134450000Y-102483406D01*
X134551654Y-102463683D01*
X134650000Y-102483406D01*
X134731794Y-102483406D01*
X134673109Y-102624735D01*
X134672891Y-102874171D01*
X134768145Y-103104703D01*
X134944369Y-103281235D01*
X135174735Y-103376891D01*
X135424171Y-103377109D01*
X135654703Y-103281855D01*
X135831235Y-103105631D01*
X135926891Y-102875265D01*
X135927109Y-102625829D01*
X135868261Y-102483406D01*
X135950000Y-102483406D01*
X136051654Y-102463683D01*
X136150000Y-102483406D01*
X136450000Y-102483406D01*
X136551654Y-102463683D01*
X136650000Y-102483406D01*
X136950000Y-102483406D01*
X137074684Y-102459215D01*
X137184270Y-102387229D01*
X137257625Y-102278555D01*
X137283406Y-102150000D01*
X137283406Y-100650000D01*
X137259215Y-100525316D01*
X137252000Y-100514332D01*
X137252000Y-100334728D01*
X137275099Y-100311669D01*
X137348000Y-100384698D01*
X137348000Y-100513112D01*
X137342375Y-100521445D01*
X137316594Y-100650000D01*
X137316594Y-102150000D01*
X137340785Y-102274684D01*
X137412771Y-102384270D01*
X137521445Y-102457625D01*
X137650000Y-102483406D01*
X137950000Y-102483406D01*
X138051654Y-102463683D01*
X138150000Y-102483406D01*
X138450000Y-102483406D01*
X138551654Y-102463683D01*
X138650000Y-102483406D01*
X138848000Y-102483406D01*
X138848000Y-104112775D01*
X137612776Y-105348000D01*
X111264547Y-105348000D01*
X111560703Y-105225631D01*
X111934319Y-104852666D01*
X112136769Y-104365115D01*
X112137229Y-103837202D01*
X111935631Y-103349297D01*
X111637000Y-103050145D01*
X111637000Y-93625000D01*
X125766594Y-93625000D01*
X125766594Y-94875000D01*
X125790785Y-94999684D01*
X125862771Y-95109270D01*
X125971445Y-95182625D01*
X126100000Y-95208406D01*
X127100000Y-95208406D01*
X127224684Y-95184215D01*
X127334270Y-95112229D01*
X127407625Y-95003555D01*
X127433406Y-94875000D01*
X127433406Y-94152000D01*
X128516594Y-94152000D01*
X128516594Y-94350000D01*
X128536317Y-94451654D01*
X128516594Y-94550000D01*
X128516594Y-94850000D01*
X128536317Y-94951654D01*
X128516594Y-95050000D01*
X128516594Y-95350000D01*
X128536317Y-95451654D01*
X128516594Y-95550000D01*
X128516594Y-95850000D01*
X128536317Y-95951654D01*
X128516594Y-96050000D01*
X128516594Y-96350000D01*
X128536317Y-96451654D01*
X128516594Y-96550000D01*
X128516594Y-96850000D01*
X128536317Y-96951654D01*
X128516594Y-97050000D01*
X128516594Y-97350000D01*
X128536317Y-97451654D01*
X128516594Y-97550000D01*
X128516594Y-97850000D01*
X128536317Y-97951654D01*
X128516594Y-98050000D01*
X128516594Y-98350000D01*
X128536317Y-98451654D01*
X128516594Y-98550000D01*
X128516594Y-98850000D01*
X128536317Y-98951654D01*
X128516594Y-99050000D01*
X128516594Y-99350000D01*
X128536317Y-99451654D01*
X128516594Y-99550000D01*
X128516594Y-99850000D01*
X128540785Y-99974684D01*
X128612771Y-100084270D01*
X128721445Y-100157625D01*
X128850000Y-100183406D01*
X130350000Y-100183406D01*
X130474684Y-100159215D01*
X130584270Y-100087229D01*
X130657625Y-99978555D01*
X130683406Y-99850000D01*
X130683406Y-99550000D01*
X130663683Y-99448346D01*
X130683406Y-99350000D01*
X130683406Y-99050000D01*
X130663683Y-98948346D01*
X130683406Y-98850000D01*
X130683406Y-98550000D01*
X130663683Y-98448346D01*
X130683406Y-98350000D01*
X130683406Y-98050000D01*
X130663683Y-97948346D01*
X130683406Y-97850000D01*
X130683406Y-97550000D01*
X130663683Y-97448346D01*
X130683406Y-97350000D01*
X130683406Y-97050000D01*
X130663683Y-96948346D01*
X130683406Y-96850000D01*
X130683406Y-96550000D01*
X130663683Y-96448346D01*
X130683406Y-96350000D01*
X130683406Y-96050000D01*
X130663683Y-95948346D01*
X130683406Y-95850000D01*
X130683406Y-95550000D01*
X130663683Y-95448346D01*
X130683406Y-95350000D01*
X130683406Y-95050000D01*
X130663683Y-94948346D01*
X130683406Y-94850000D01*
X130683406Y-94550000D01*
X130663683Y-94448346D01*
X130683406Y-94350000D01*
X130683406Y-94050000D01*
X130663683Y-93948346D01*
X130683406Y-93850000D01*
X130683406Y-93550000D01*
X130659215Y-93425316D01*
X130587229Y-93315730D01*
X130478555Y-93242375D01*
X130350000Y-93216594D01*
X128850000Y-93216594D01*
X128725316Y-93240785D01*
X128714332Y-93248000D01*
X127150000Y-93248000D01*
X126989123Y-93280000D01*
X126977027Y-93282406D01*
X126963276Y-93291594D01*
X126100000Y-93291594D01*
X125975316Y-93315785D01*
X125865730Y-93387771D01*
X125792375Y-93496445D01*
X125766594Y-93625000D01*
X111637000Y-93625000D01*
X111637000Y-88632554D01*
X112042554Y-88227000D01*
X115275151Y-88227000D01*
X115312771Y-88284270D01*
X115421445Y-88357625D01*
X115550000Y-88383406D01*
X116850000Y-88383406D01*
X116974684Y-88359215D01*
X117084270Y-88287229D01*
X117157625Y-88178555D01*
X117183406Y-88050000D01*
X117183406Y-87586148D01*
X118664777Y-86104778D01*
X118844048Y-85836479D01*
X118856680Y-85772973D01*
X118907000Y-85520000D01*
X118907000Y-83648746D01*
X119129134Y-83427000D01*
X119549589Y-83427000D01*
X119547003Y-83440000D01*
X119628985Y-83852150D01*
X119862449Y-84201554D01*
X120211853Y-84435018D01*
X120624003Y-84517000D01*
X121175997Y-84517000D01*
X121310935Y-84490159D01*
X121348000Y-84527224D01*
X121348000Y-85231533D01*
X121300316Y-85240785D01*
X121190730Y-85312771D01*
X121117375Y-85421445D01*
X121091594Y-85550000D01*
X121091594Y-86350000D01*
X121115785Y-86474684D01*
X121187771Y-86584270D01*
X121296445Y-86657625D01*
X121425000Y-86683406D01*
X122175000Y-86683406D01*
X122299684Y-86659215D01*
X122409270Y-86587229D01*
X122482625Y-86478555D01*
X122508406Y-86350000D01*
X122508406Y-85550000D01*
X122484215Y-85425316D01*
X122412229Y-85315730D01*
X122303555Y-85242375D01*
X122252000Y-85232036D01*
X122252000Y-84340000D01*
X122217594Y-84167027D01*
X122119612Y-84020388D01*
X122083039Y-83983815D01*
X122171015Y-83852150D01*
X122252997Y-83440000D01*
X122171015Y-83027850D01*
X121937551Y-82678446D01*
X121588147Y-82444982D01*
X121175997Y-82363000D01*
X120992554Y-82363000D01*
X120644777Y-82015223D01*
X120376479Y-81835952D01*
X120060000Y-81773000D01*
X119128746Y-81773000D01*
X118832377Y-81476113D01*
X118345013Y-81273741D01*
X117817303Y-81273281D01*
X117329586Y-81474801D01*
X116956113Y-81847623D01*
X116753741Y-82334987D01*
X116753281Y-82862697D01*
X116954801Y-83350414D01*
X117253000Y-83649134D01*
X117253000Y-85177445D01*
X116013852Y-86416594D01*
X115550000Y-86416594D01*
X115425316Y-86440785D01*
X115315730Y-86512771D01*
X115275075Y-86573000D01*
X106024849Y-86573000D01*
X105987229Y-86515730D01*
X105878555Y-86442375D01*
X105750000Y-86416594D01*
X104450000Y-86416594D01*
X104325316Y-86440785D01*
X104215730Y-86512771D01*
X104142375Y-86621445D01*
X104116594Y-86750000D01*
X104116594Y-88050000D01*
X104140785Y-88174684D01*
X104212771Y-88284270D01*
X104321445Y-88357625D01*
X104450000Y-88383406D01*
X105750000Y-88383406D01*
X105874684Y-88359215D01*
X105984270Y-88287229D01*
X106024925Y-88227000D01*
X109995532Y-88227000D01*
X109983000Y-88290000D01*
X109983000Y-103050533D01*
X109685681Y-103347334D01*
X109483231Y-103834885D01*
X109482771Y-104362798D01*
X109684369Y-104850703D01*
X110057334Y-105224319D01*
X110355189Y-105348000D01*
X107617224Y-105348000D01*
X106932826Y-104663602D01*
X107056769Y-104365115D01*
X107057229Y-103837202D01*
X106855631Y-103349297D01*
X106482666Y-102975681D01*
X105995115Y-102773231D01*
X105467202Y-102772771D01*
X104979297Y-102974369D01*
X104605681Y-103347334D01*
X104459891Y-103698433D01*
X104315631Y-103349297D01*
X103942666Y-102975681D01*
X103455115Y-102773231D01*
X102927202Y-102772771D01*
X102439297Y-102974369D01*
X102065681Y-103347334D01*
X101863231Y-103834885D01*
X101862771Y-104362798D01*
X102064369Y-104850703D01*
X102437334Y-105224319D01*
X102924885Y-105426769D01*
X103452798Y-105427229D01*
X103753682Y-105302906D01*
X104698780Y-106248004D01*
X94017229Y-106248004D01*
X92993815Y-105224591D01*
X93326319Y-104892666D01*
X93528769Y-104405115D01*
X93528771Y-104402798D01*
X95954771Y-104402798D01*
X96156369Y-104890703D01*
X96529334Y-105264319D01*
X97016885Y-105466769D01*
X97544798Y-105467229D01*
X98032703Y-105265631D01*
X98406319Y-104892666D01*
X98608769Y-104405115D01*
X98609229Y-103877202D01*
X98407631Y-103389297D01*
X98034666Y-103015681D01*
X97547115Y-102813231D01*
X97019202Y-102812771D01*
X96531297Y-103014369D01*
X96157681Y-103387334D01*
X95955231Y-103874885D01*
X95954771Y-104402798D01*
X93528771Y-104402798D01*
X93529229Y-103877202D01*
X93327631Y-103389297D01*
X92954666Y-103015681D01*
X92467115Y-102813231D01*
X91939202Y-102812771D01*
X91451297Y-103014369D01*
X91077681Y-103387334D01*
X90931891Y-103738433D01*
X90787631Y-103389297D01*
X90414666Y-103015681D01*
X89927115Y-102813231D01*
X89399202Y-102812771D01*
X88911297Y-103014369D01*
X88537681Y-103387334D01*
X88335231Y-103874885D01*
X88334771Y-104402798D01*
X88536369Y-104890703D01*
X88909334Y-105264319D01*
X89396885Y-105466769D01*
X89417563Y-105466787D01*
X91173776Y-107223000D01*
X81377000Y-107223000D01*
X81377000Y-104981622D01*
X82072666Y-104981622D01*
X82365416Y-105690132D01*
X82907017Y-106232678D01*
X83615014Y-106526665D01*
X84381622Y-106527334D01*
X85090132Y-106234584D01*
X85632678Y-105692983D01*
X85926665Y-104984986D01*
X85927334Y-104218378D01*
X85634584Y-103509868D01*
X85092983Y-102967322D01*
X84384986Y-102673335D01*
X83618378Y-102672666D01*
X82909868Y-102965416D01*
X82367322Y-103507017D01*
X82073335Y-104215014D01*
X82072666Y-104981622D01*
X81377000Y-104981622D01*
X81377000Y-96793717D01*
X81474801Y-97030414D01*
X81847623Y-97403887D01*
X82334987Y-97606259D01*
X82862697Y-97606719D01*
X83350414Y-97405199D01*
X83723887Y-97032377D01*
X83926259Y-96545013D01*
X83926719Y-96017303D01*
X83725199Y-95529586D01*
X83582708Y-95386846D01*
X85732554Y-93237000D01*
X86707648Y-93237000D01*
X86964275Y-93494075D01*
X87434375Y-93689278D01*
X87943392Y-93689722D01*
X88413832Y-93495340D01*
X88774075Y-93135725D01*
X88960217Y-92687446D01*
X89144660Y-93133832D01*
X89173000Y-93162221D01*
X89173000Y-94767104D01*
X89000510Y-94767104D01*
X88875826Y-94791295D01*
X88766240Y-94863281D01*
X88692885Y-94971955D01*
X88667104Y-95100510D01*
X88667104Y-97099490D01*
X88691295Y-97224174D01*
X88763281Y-97333760D01*
X88871955Y-97407115D01*
X89000510Y-97432896D01*
X90999490Y-97432896D01*
X91124174Y-97408705D01*
X91233760Y-97336719D01*
X91307115Y-97228045D01*
X91332896Y-97099490D01*
X91332896Y-95100510D01*
X91308705Y-94975826D01*
X91236719Y-94866240D01*
X91128045Y-94792885D01*
X90999490Y-94767104D01*
X90827000Y-94767104D01*
X90827000Y-93547746D01*
X90953832Y-93495340D01*
X91314075Y-93135725D01*
X91500217Y-92687446D01*
X91684660Y-93133832D01*
X91943000Y-93392623D01*
X91943000Y-94770000D01*
X91966594Y-94888614D01*
X91966594Y-95700000D01*
X91990785Y-95824684D01*
X92062771Y-95934270D01*
X92171445Y-96007625D01*
X92300000Y-96033406D01*
X93700000Y-96033406D01*
X93824684Y-96009215D01*
X93934270Y-95937229D01*
X94007625Y-95828555D01*
X94033406Y-95700000D01*
X94033406Y-94300000D01*
X94009215Y-94175316D01*
X93937229Y-94065730D01*
X93828555Y-93992375D01*
X93700000Y-93966594D01*
X93597000Y-93966594D01*
X93597000Y-93392352D01*
X93854075Y-93135725D01*
X94049278Y-92665625D01*
X94049722Y-92156608D01*
X93855340Y-91686168D01*
X93495725Y-91325925D01*
X93025625Y-91130722D01*
X92679135Y-91130420D01*
X93782555Y-90027000D01*
X98557446Y-90027000D01*
X101515222Y-92984777D01*
X101765490Y-93152000D01*
X101783521Y-93164048D01*
X102100000Y-93227000D01*
X104545074Y-93227000D01*
X104545851Y-93227778D01*
X104904810Y-93376830D01*
X105293485Y-93377170D01*
X105652703Y-93228744D01*
X105927778Y-92954149D01*
X106076830Y-92595190D01*
X106077170Y-92206515D01*
X105928744Y-91847297D01*
X105654149Y-91572222D01*
X105295190Y-91423170D01*
X104906515Y-91422830D01*
X104547297Y-91571256D01*
X104545550Y-91573000D01*
X102442555Y-91573000D01*
X99484777Y-88615223D01*
X99216479Y-88435952D01*
X98900000Y-88373000D01*
X93440000Y-88373000D01*
X93123521Y-88435952D01*
X92855223Y-88615222D01*
X90339851Y-91130595D01*
X89976608Y-91130278D01*
X89506168Y-91324660D01*
X89145925Y-91684275D01*
X88959783Y-92132554D01*
X88775340Y-91686168D01*
X88517000Y-91427377D01*
X88517000Y-85772352D01*
X88672623Y-85617000D01*
X89247648Y-85617000D01*
X89504275Y-85874075D01*
X89974375Y-86069278D01*
X90483392Y-86069722D01*
X90953832Y-85875340D01*
X91314075Y-85515725D01*
X91500217Y-85067446D01*
X91684660Y-85513832D01*
X92044275Y-85874075D01*
X92514375Y-86069278D01*
X93023392Y-86069722D01*
X93493832Y-85875340D01*
X93854075Y-85515725D01*
X94040217Y-85067446D01*
X94224660Y-85513832D01*
X94584275Y-85874075D01*
X95054375Y-86069278D01*
X95563392Y-86069722D01*
X96033832Y-85875340D01*
X96292623Y-85617000D01*
X99710000Y-85617000D01*
X100026479Y-85554048D01*
X100294777Y-85374777D01*
X102242555Y-83427000D01*
X106871254Y-83427000D01*
X107167623Y-83723887D01*
X107654987Y-83926259D01*
X108182697Y-83926719D01*
X108670414Y-83725199D01*
X109043887Y-83352377D01*
X109246259Y-82865013D01*
X109246719Y-82337303D01*
X109045199Y-81849586D01*
X108747000Y-81550866D01*
X108747000Y-80648746D01*
X109043887Y-80352377D01*
X109246259Y-79865013D01*
X109246719Y-79337303D01*
X109045199Y-78849586D01*
X108672377Y-78476113D01*
X108185013Y-78273741D01*
X107657303Y-78273281D01*
X107169586Y-78474801D01*
X106796113Y-78847623D01*
X106593741Y-79334987D01*
X106593281Y-79862697D01*
X106794801Y-80350414D01*
X107093000Y-80649134D01*
X107093000Y-81551254D01*
X106870866Y-81773000D01*
X101900000Y-81773000D01*
X101583521Y-81835952D01*
X101315223Y-82015222D01*
X99367446Y-83963000D01*
X96292352Y-83963000D01*
X96035725Y-83705925D01*
X95565625Y-83510722D01*
X95056608Y-83510278D01*
X94586168Y-83704660D01*
X94225925Y-84064275D01*
X94039783Y-84512554D01*
X93855340Y-84066168D01*
X93597000Y-83807377D01*
X93597000Y-82800000D01*
X93534048Y-82483521D01*
X93427000Y-82323312D01*
X93427000Y-78442554D01*
X97542555Y-74327000D01*
X103000000Y-74327000D01*
X103316479Y-74264048D01*
X103584777Y-74084777D01*
X107142554Y-70527000D01*
X110357446Y-70527000D01*
X112416594Y-72586149D01*
X112416594Y-73050000D01*
X112440785Y-73174684D01*
X112512771Y-73284270D01*
X112621445Y-73357625D01*
X112750000Y-73383406D01*
X114050000Y-73383406D01*
X114174684Y-73359215D01*
X114284270Y-73287229D01*
X114357625Y-73178555D01*
X114383406Y-73050000D01*
X114383406Y-71750000D01*
X114359215Y-71625316D01*
X114287229Y-71515730D01*
X114178555Y-71442375D01*
X114050000Y-71416594D01*
X113586149Y-71416594D01*
X111284777Y-69115223D01*
X111016479Y-68935952D01*
X110700000Y-68873000D01*
X107342554Y-68873000D01*
X103467000Y-64997446D01*
X103467000Y-61313178D01*
X103562671Y-61217674D01*
X103728811Y-60817566D01*
X103728812Y-60815665D01*
X104090811Y-60815665D01*
X104256252Y-61216063D01*
X104562326Y-61522671D01*
X104962434Y-61688811D01*
X105395665Y-61689189D01*
X105459536Y-61662798D01*
X118932771Y-61662798D01*
X119134369Y-62150703D01*
X119507334Y-62524319D01*
X119808000Y-62649167D01*
X119808000Y-66360000D01*
X119842406Y-66532973D01*
X119940388Y-66679612D01*
X122480387Y-69219612D01*
X122581583Y-69287229D01*
X122627027Y-69317594D01*
X122800000Y-69352000D01*
X128408776Y-69352000D01*
X127980388Y-69780388D01*
X127882406Y-69927027D01*
X127848000Y-70100000D01*
X127848000Y-72110000D01*
X127882406Y-72282973D01*
X127980388Y-72429612D01*
X128897174Y-73346399D01*
X128773231Y-73644885D01*
X128772771Y-74172798D01*
X128974369Y-74660703D01*
X129347334Y-75034319D01*
X129698433Y-75180109D01*
X129349297Y-75324369D01*
X128975681Y-75697334D01*
X128773231Y-76184885D01*
X128772771Y-76712798D01*
X128974369Y-77200703D01*
X129347334Y-77574319D01*
X129834885Y-77776769D01*
X130362798Y-77777229D01*
X130850703Y-77575631D01*
X131224319Y-77202666D01*
X131426769Y-76715115D01*
X131427174Y-76250000D01*
X134016594Y-76250000D01*
X134016594Y-76550000D01*
X134036317Y-76651654D01*
X134016594Y-76750000D01*
X134016594Y-77050000D01*
X134036317Y-77151654D01*
X134016594Y-77250000D01*
X134016594Y-77550000D01*
X134036317Y-77651654D01*
X134016594Y-77750000D01*
X134016594Y-78050000D01*
X134036317Y-78151654D01*
X134016594Y-78250000D01*
X134016594Y-78550000D01*
X134036317Y-78651654D01*
X134016594Y-78750000D01*
X134016594Y-79050000D01*
X134036317Y-79151654D01*
X134016594Y-79250000D01*
X134016594Y-79550000D01*
X134036317Y-79651654D01*
X134016594Y-79750000D01*
X134016594Y-80050000D01*
X134036317Y-80151654D01*
X134016594Y-80250000D01*
X134016594Y-80550000D01*
X134040785Y-80674684D01*
X134112771Y-80784270D01*
X134221445Y-80857625D01*
X134350000Y-80883406D01*
X135850000Y-80883406D01*
X135974684Y-80859215D01*
X136084270Y-80787229D01*
X136157625Y-80678555D01*
X136183406Y-80550000D01*
X136183406Y-80250000D01*
X136163683Y-80148346D01*
X136183406Y-80050000D01*
X136183406Y-79750000D01*
X136163683Y-79648346D01*
X136183406Y-79550000D01*
X136183406Y-79250000D01*
X136163683Y-79148346D01*
X136183406Y-79050000D01*
X136183406Y-78750000D01*
X136163683Y-78648346D01*
X136183406Y-78550000D01*
X136183406Y-78250000D01*
X136163683Y-78148346D01*
X136183406Y-78050000D01*
X136183406Y-77750000D01*
X136163683Y-77648346D01*
X136183406Y-77550000D01*
X136183406Y-77250000D01*
X136163683Y-77148346D01*
X136183406Y-77050000D01*
X136183406Y-76750000D01*
X136163683Y-76648346D01*
X136183406Y-76550000D01*
X136183406Y-76250000D01*
X136159215Y-76125316D01*
X136087229Y-76015730D01*
X135978555Y-75942375D01*
X135850000Y-75916594D01*
X134350000Y-75916594D01*
X134225316Y-75940785D01*
X134115730Y-76012771D01*
X134042375Y-76121445D01*
X134016594Y-76250000D01*
X131427174Y-76250000D01*
X131427229Y-76187202D01*
X131229811Y-75709413D01*
X132189224Y-74750000D01*
X134016594Y-74750000D01*
X134016594Y-75050000D01*
X134036317Y-75151654D01*
X134016594Y-75250000D01*
X134016594Y-75550000D01*
X134040785Y-75674684D01*
X134112771Y-75784270D01*
X134221445Y-75857625D01*
X134350000Y-75883406D01*
X135850000Y-75883406D01*
X135974684Y-75859215D01*
X136084270Y-75787229D01*
X136157625Y-75678555D01*
X136183406Y-75550000D01*
X136183406Y-75250000D01*
X136163683Y-75148346D01*
X136183406Y-75050000D01*
X136183406Y-74750000D01*
X136159215Y-74625316D01*
X136087229Y-74515730D01*
X135978555Y-74442375D01*
X135850000Y-74416594D01*
X134350000Y-74416594D01*
X134225316Y-74440785D01*
X134115730Y-74512771D01*
X134042375Y-74621445D01*
X134016594Y-74750000D01*
X132189224Y-74750000D01*
X133087224Y-73852000D01*
X134213112Y-73852000D01*
X134221445Y-73857625D01*
X134350000Y-73883406D01*
X135850000Y-73883406D01*
X135974684Y-73859215D01*
X136084270Y-73787229D01*
X136157625Y-73678555D01*
X136183406Y-73550000D01*
X136183406Y-73250000D01*
X136163683Y-73148346D01*
X136183406Y-73050000D01*
X136183406Y-72750000D01*
X136163683Y-72648346D01*
X136183406Y-72550000D01*
X136183406Y-72250000D01*
X136163683Y-72148346D01*
X136183406Y-72050000D01*
X136183406Y-71750000D01*
X136163683Y-71648346D01*
X136183406Y-71550000D01*
X136183406Y-71250000D01*
X136163683Y-71148346D01*
X136183406Y-71050000D01*
X136183406Y-70750000D01*
X136163683Y-70648346D01*
X136183406Y-70550000D01*
X136183406Y-70250000D01*
X136163683Y-70148346D01*
X136183406Y-70050000D01*
X136183406Y-69750000D01*
X136163683Y-69648346D01*
X136183406Y-69550000D01*
X136183406Y-69250000D01*
X136163683Y-69148346D01*
X136183406Y-69050000D01*
X136183406Y-68750000D01*
X136163683Y-68648346D01*
X136183406Y-68550000D01*
X136183406Y-68250000D01*
X136159215Y-68125316D01*
X136087229Y-68015730D01*
X135978555Y-67942375D01*
X135850000Y-67916594D01*
X134350000Y-67916594D01*
X134225316Y-67940785D01*
X134214332Y-67948000D01*
X125487224Y-67948000D01*
X123252000Y-65712776D01*
X123252000Y-62649052D01*
X123550703Y-62525631D01*
X123924319Y-62152666D01*
X124126769Y-61665115D01*
X124127229Y-61137202D01*
X123925631Y-60649297D01*
X123552666Y-60275681D01*
X123065115Y-60073231D01*
X122537202Y-60072771D01*
X122049297Y-60274369D01*
X121675681Y-60647334D01*
X121529891Y-60998433D01*
X121385631Y-60649297D01*
X121012666Y-60275681D01*
X120525115Y-60073231D01*
X119997202Y-60072771D01*
X119509297Y-60274369D01*
X119135681Y-60647334D01*
X118933231Y-61134885D01*
X118932771Y-61662798D01*
X105459536Y-61662798D01*
X105796063Y-61523748D01*
X106102671Y-61217674D01*
X106268811Y-60817566D01*
X106269189Y-60384335D01*
X106103748Y-59983937D01*
X105797674Y-59677329D01*
X105397566Y-59511189D01*
X104964335Y-59510811D01*
X104563937Y-59676252D01*
X104257329Y-59982326D01*
X104091189Y-60382434D01*
X104090811Y-60815665D01*
X103728812Y-60815665D01*
X103729189Y-60384335D01*
X103563748Y-59983937D01*
X103257674Y-59677329D01*
X102857566Y-59511189D01*
X102424335Y-59510811D01*
X102023937Y-59676252D01*
X101717329Y-59982326D01*
X101551189Y-60382434D01*
X101550811Y-60815665D01*
X101716252Y-61216063D01*
X101813000Y-61312980D01*
X101813000Y-65340000D01*
X101875952Y-65656479D01*
X102055223Y-65924777D01*
X105730446Y-69600000D01*
X102657446Y-72673000D01*
X97200000Y-72673000D01*
X96883521Y-72735952D01*
X96615222Y-72915223D01*
X92015223Y-77515223D01*
X91835952Y-77783521D01*
X91773000Y-78100000D01*
X91773000Y-81973000D01*
X84600000Y-81973000D01*
X84313444Y-82030000D01*
X84283521Y-82035952D01*
X84015223Y-82215223D01*
X82015223Y-84215223D01*
X81835952Y-84483521D01*
X81773000Y-84800000D01*
X81773000Y-85071254D01*
X81476113Y-85367623D01*
X81377000Y-85606313D01*
X81377000Y-80973093D01*
X83622796Y-80973093D01*
X83801606Y-81405846D01*
X84132412Y-81737230D01*
X84564853Y-81916795D01*
X85033093Y-81917204D01*
X85465846Y-81738394D01*
X85797230Y-81407588D01*
X85976795Y-80975147D01*
X85977204Y-80506907D01*
X85798394Y-80074154D01*
X85467588Y-79742770D01*
X85035147Y-79563205D01*
X84566907Y-79562796D01*
X84134154Y-79741606D01*
X83802770Y-80072412D01*
X83623205Y-80504853D01*
X83622796Y-80973093D01*
X81377000Y-80973093D01*
X81377000Y-65973093D01*
X83622796Y-65973093D01*
X83801606Y-66405846D01*
X84132412Y-66737230D01*
X84564853Y-66916795D01*
X85033093Y-66917204D01*
X85465846Y-66738394D01*
X85797230Y-66407588D01*
X85976795Y-65975147D01*
X85977204Y-65506907D01*
X85798394Y-65074154D01*
X85467588Y-64742770D01*
X85035147Y-64563205D01*
X84566907Y-64562796D01*
X84134154Y-64741606D01*
X83802770Y-65072412D01*
X83623205Y-65504853D01*
X83622796Y-65973093D01*
X81377000Y-65973093D01*
X81377000Y-60981622D01*
X82072666Y-60981622D01*
X82365416Y-61690132D01*
X82907017Y-62232678D01*
X83615014Y-62526665D01*
X84381622Y-62527334D01*
X85090132Y-62234584D01*
X85632678Y-61692983D01*
X85926665Y-60984986D01*
X85926812Y-60815665D01*
X93930811Y-60815665D01*
X94096252Y-61216063D01*
X94402326Y-61522671D01*
X94802434Y-61688811D01*
X95235665Y-61689189D01*
X95636063Y-61523748D01*
X95942671Y-61217674D01*
X96108811Y-60817566D01*
X96109189Y-60384335D01*
X95943748Y-59983937D01*
X95637674Y-59677329D01*
X95237566Y-59511189D01*
X94804335Y-59510811D01*
X94403937Y-59676252D01*
X94097329Y-59982326D01*
X93931189Y-60382434D01*
X93930811Y-60815665D01*
X85926812Y-60815665D01*
X85927334Y-60218378D01*
X85634584Y-59509868D01*
X85092983Y-58967322D01*
X84384986Y-58673335D01*
X83618378Y-58672666D01*
X82909868Y-58965416D01*
X82367322Y-59507017D01*
X82073335Y-60215014D01*
X82072666Y-60981622D01*
X81377000Y-60981622D01*
X81377000Y-57977000D01*
X100372428Y-57977000D01*
X100315223Y-58015223D01*
X99515223Y-58815223D01*
X99335952Y-59083521D01*
X99273000Y-59400000D01*
X99273000Y-59773000D01*
X98273178Y-59773000D01*
X98177674Y-59677329D01*
X97777566Y-59511189D01*
X97344335Y-59510811D01*
X96943937Y-59676252D01*
X96637329Y-59982326D01*
X96471189Y-60382434D01*
X96470811Y-60815665D01*
X96636252Y-61216063D01*
X96942326Y-61522671D01*
X97342434Y-61688811D01*
X97775665Y-61689189D01*
X98176063Y-61523748D01*
X98272980Y-61427000D01*
X99173000Y-61427000D01*
X99173000Y-67644893D01*
X98966440Y-67730242D01*
X98452048Y-68243736D01*
X98173318Y-68914993D01*
X98172684Y-69641818D01*
X98450242Y-70313560D01*
X98963736Y-70827952D01*
X99634993Y-71106682D01*
X100361818Y-71107316D01*
X101033560Y-70829758D01*
X101547952Y-70316264D01*
X101826682Y-69645007D01*
X101827316Y-68918182D01*
X101549758Y-68246440D01*
X101036264Y-67732048D01*
X100827000Y-67645154D01*
X100827000Y-61413004D01*
X101022671Y-61217674D01*
X101188811Y-60817566D01*
X101189189Y-60384335D01*
X101023748Y-59983937D01*
X100927000Y-59887020D01*
X100927000Y-59742554D01*
X101242554Y-59427000D01*
X140636247Y-59427000D01*
X140616594Y-59525000D01*
X140616594Y-60275000D01*
X140640785Y-60399684D01*
X140712771Y-60509270D01*
X140821445Y-60582625D01*
X140950000Y-60608406D01*
X141750000Y-60608406D01*
X141874684Y-60584215D01*
X141984270Y-60512229D01*
X142057625Y-60403555D01*
X142067964Y-60352000D01*
X142517384Y-60352000D01*
X142517384Y-62400290D01*
X142541575Y-62524974D01*
X142613561Y-62634560D01*
X142722235Y-62707915D01*
X142850790Y-62733696D01*
X144348000Y-62733696D01*
X144348000Y-65616594D01*
X144150000Y-65616594D01*
X144048346Y-65636317D01*
X143950000Y-65616594D01*
X143650000Y-65616594D01*
X143548346Y-65636317D01*
X143450000Y-65616594D01*
X143150000Y-65616594D01*
X143025316Y-65640785D01*
X142915730Y-65712771D01*
X142842375Y-65821445D01*
X142816594Y-65950000D01*
X142816594Y-67450000D01*
X142840785Y-67574684D01*
X142848000Y-67585668D01*
X142848000Y-67834371D01*
X142831855Y-67795297D01*
X142752000Y-67715302D01*
X142752000Y-67586888D01*
X142757625Y-67578555D01*
X142783406Y-67450000D01*
X142783406Y-65950000D01*
X142759215Y-65825316D01*
X142687229Y-65715730D01*
X142578555Y-65642375D01*
X142450000Y-65616594D01*
X142252000Y-65616594D01*
X142252000Y-65574291D01*
X142354703Y-65531855D01*
X142531235Y-65355631D01*
X142626891Y-65125265D01*
X142627109Y-64875829D01*
X142531855Y-64645297D01*
X142355631Y-64468765D01*
X142125265Y-64373109D01*
X141875829Y-64372891D01*
X141752000Y-64424056D01*
X141752000Y-62505623D01*
X141826891Y-62325265D01*
X141827109Y-62075829D01*
X141731855Y-61845297D01*
X141555631Y-61668765D01*
X141325265Y-61573109D01*
X141075829Y-61572891D01*
X140845297Y-61668145D01*
X140668765Y-61844369D01*
X140573109Y-62074735D01*
X140572891Y-62324171D01*
X140668145Y-62554703D01*
X140844369Y-62731235D01*
X140848000Y-62732743D01*
X140848000Y-65616594D01*
X140650000Y-65616594D01*
X140548346Y-65636317D01*
X140450000Y-65616594D01*
X140150000Y-65616594D01*
X140048346Y-65636317D01*
X139950000Y-65616594D01*
X139650000Y-65616594D01*
X139548346Y-65636317D01*
X139450000Y-65616594D01*
X139150000Y-65616594D01*
X139048346Y-65636317D01*
X138950000Y-65616594D01*
X138650000Y-65616594D01*
X138548346Y-65636317D01*
X138450000Y-65616594D01*
X138150000Y-65616594D01*
X138048346Y-65636317D01*
X137950000Y-65616594D01*
X137650000Y-65616594D01*
X137548346Y-65636317D01*
X137450000Y-65616594D01*
X137150000Y-65616594D01*
X137048346Y-65636317D01*
X136950000Y-65616594D01*
X136650000Y-65616594D01*
X136525316Y-65640785D01*
X136415730Y-65712771D01*
X136342375Y-65821445D01*
X136316594Y-65950000D01*
X136316594Y-66248000D01*
X134018467Y-66248000D01*
X134009215Y-66200316D01*
X133937229Y-66090730D01*
X133828555Y-66017375D01*
X133700000Y-65991594D01*
X132900000Y-65991594D01*
X132775316Y-66015785D01*
X132665730Y-66087771D01*
X132592375Y-66196445D01*
X132566594Y-66325000D01*
X132566594Y-67075000D01*
X132590785Y-67199684D01*
X132662771Y-67309270D01*
X132771445Y-67382625D01*
X132900000Y-67408406D01*
X133700000Y-67408406D01*
X133824684Y-67384215D01*
X133934270Y-67312229D01*
X134007625Y-67203555D01*
X134017964Y-67152000D01*
X136316594Y-67152000D01*
X136316594Y-67450000D01*
X136340785Y-67574684D01*
X136348000Y-67585668D01*
X136348000Y-80100000D01*
X136382406Y-80272973D01*
X136480388Y-80419612D01*
X136560776Y-80500000D01*
X136480388Y-80580388D01*
X136382406Y-80727027D01*
X136348000Y-80900000D01*
X136348000Y-81101471D01*
X136230000Y-81078000D01*
X131349052Y-81078000D01*
X131225631Y-80779297D01*
X131225631Y-80779297D01*
G37*
X131225631Y-80779297D02*
X130852666Y-80405681D01*
X130365115Y-80203231D01*
X129837202Y-80202771D01*
X129349297Y-80404369D01*
X129050145Y-80703000D01*
X127872554Y-80703000D01*
X124944777Y-77775223D01*
X124676479Y-77595952D01*
X124360000Y-77533000D01*
X121839604Y-77533000D01*
X121727000Y-77457760D01*
X121727000Y-74774849D01*
X121784270Y-74737229D01*
X121857625Y-74628555D01*
X121883406Y-74500000D01*
X121883406Y-73200000D01*
X121859215Y-73075316D01*
X121787229Y-72965730D01*
X121678555Y-72892375D01*
X121550000Y-72866594D01*
X120555818Y-72866594D01*
X118752000Y-71062776D01*
X118752000Y-66260000D01*
X118717594Y-66087027D01*
X118619612Y-65940388D01*
X116942826Y-64263602D01*
X117066769Y-63965115D01*
X117067229Y-63437202D01*
X116865631Y-62949297D01*
X116492666Y-62575681D01*
X116005115Y-62373231D01*
X115477202Y-62372771D01*
X114989297Y-62574369D01*
X114615681Y-62947334D01*
X114533406Y-63145473D01*
X114533406Y-62700000D01*
X114509215Y-62575316D01*
X114437229Y-62465730D01*
X114328555Y-62392375D01*
X114200000Y-62366594D01*
X112200000Y-62366594D01*
X112075316Y-62390785D01*
X111965730Y-62462771D01*
X111892375Y-62571445D01*
X111866594Y-62700000D01*
X111866594Y-63248000D01*
X110933018Y-63248000D01*
X110909215Y-63125316D01*
X110837229Y-63015730D01*
X110728555Y-62942375D01*
X110600000Y-62916594D01*
X110100000Y-62916594D01*
X109975316Y-62940785D01*
X109865730Y-63012771D01*
X109792375Y-63121445D01*
X109766594Y-63250000D01*
X109766594Y-64150000D01*
X109790785Y-64274684D01*
X109862771Y-64384270D01*
X109971445Y-64457625D01*
X110100000Y-64483406D01*
X110600000Y-64483406D01*
X110724684Y-64459215D01*
X110834270Y-64387229D01*
X110907625Y-64278555D01*
X110933005Y-64152000D01*
X111866594Y-64152000D01*
X111866594Y-64700000D01*
X111890785Y-64824684D01*
X111962771Y-64934270D01*
X112071445Y-65007625D01*
X112200000Y-65033406D01*
X114200000Y-65033406D01*
X114324684Y-65009215D01*
X114434270Y-64937229D01*
X114507625Y-64828555D01*
X114533406Y-64700000D01*
X114533406Y-64254757D01*
X114614369Y-64450703D01*
X114987334Y-64824319D01*
X115474885Y-65026769D01*
X116002798Y-65027229D01*
X116303682Y-64902906D01*
X117848000Y-66447224D01*
X117848000Y-71250000D01*
X117882406Y-71422973D01*
X117980388Y-71569612D01*
X119916594Y-73505818D01*
X119916594Y-74500000D01*
X119940785Y-74624684D01*
X120012771Y-74734270D01*
X120073000Y-74774925D01*
X120073000Y-77457760D01*
X119862449Y-77598446D01*
X119628985Y-77947850D01*
X119547003Y-78360000D01*
X119628985Y-78772150D01*
X119862449Y-79121554D01*
X120211853Y-79355018D01*
X120624003Y-79437000D01*
X121175997Y-79437000D01*
X121588147Y-79355018D01*
X121839604Y-79187000D01*
X124017446Y-79187000D01*
X126945223Y-82114777D01*
X127213521Y-82294048D01*
X127530000Y-82357000D01*
X129050533Y-82357000D01*
X129148000Y-82454637D01*
X129148000Y-87216594D01*
X128850000Y-87216594D01*
X128725316Y-87240785D01*
X128714332Y-87248000D01*
X127268467Y-87248000D01*
X127259215Y-87200316D01*
X127187229Y-87090730D01*
X127078555Y-87017375D01*
X126950000Y-86991594D01*
X126150000Y-86991594D01*
X126025316Y-87015785D01*
X125915730Y-87087771D01*
X125842375Y-87196445D01*
X125816594Y-87325000D01*
X125816594Y-88075000D01*
X125840785Y-88199684D01*
X125912771Y-88309270D01*
X126021445Y-88382625D01*
X126150000Y-88408406D01*
X126950000Y-88408406D01*
X127074684Y-88384215D01*
X127184270Y-88312229D01*
X127257625Y-88203555D01*
X127267964Y-88152000D01*
X128516594Y-88152000D01*
X128516594Y-88350000D01*
X128536317Y-88451654D01*
X128516594Y-88550000D01*
X128516594Y-88850000D01*
X128536317Y-88951654D01*
X128516594Y-89050000D01*
X128516594Y-89350000D01*
X128536317Y-89451654D01*
X128516594Y-89550000D01*
X128516594Y-89850000D01*
X128536317Y-89951654D01*
X128516594Y-90050000D01*
X128516594Y-90350000D01*
X128536317Y-90451654D01*
X128516594Y-90550000D01*
X128516594Y-90850000D01*
X128536317Y-90951654D01*
X128516594Y-91050000D01*
X128516594Y-91350000D01*
X128536317Y-91451654D01*
X128516594Y-91550000D01*
X128516594Y-91850000D01*
X128540785Y-91974684D01*
X128612771Y-92084270D01*
X128721445Y-92157625D01*
X128850000Y-92183406D01*
X130350000Y-92183406D01*
X130474684Y-92159215D01*
X130548000Y-92111054D01*
X130548000Y-92248000D01*
X130486888Y-92248000D01*
X130478555Y-92242375D01*
X130350000Y-92216594D01*
X128850000Y-92216594D01*
X128725316Y-92240785D01*
X128714332Y-92248000D01*
X127737225Y-92248000D01*
X126983406Y-91494182D01*
X126983406Y-91025000D01*
X126959215Y-90900316D01*
X126887229Y-90790730D01*
X126778555Y-90717375D01*
X126650000Y-90691594D01*
X125850000Y-90691594D01*
X125725316Y-90715785D01*
X125615730Y-90787771D01*
X125542375Y-90896445D01*
X125516594Y-91025000D01*
X125516594Y-91775000D01*
X125540785Y-91899684D01*
X125612771Y-92009270D01*
X125721445Y-92082625D01*
X125850000Y-92108406D01*
X126319182Y-92108406D01*
X127230388Y-93019613D01*
X127377027Y-93117594D01*
X127550000Y-93152000D01*
X128713112Y-93152000D01*
X128721445Y-93157625D01*
X128850000Y-93183406D01*
X130350000Y-93183406D01*
X130474684Y-93159215D01*
X130485668Y-93152000D01*
X130848000Y-93152000D01*
X130848000Y-100513112D01*
X130842375Y-100521445D01*
X130816594Y-100650000D01*
X130816594Y-100948000D01*
X128268467Y-100948000D01*
X128259215Y-100900316D01*
X128187229Y-100790730D01*
X128078555Y-100717375D01*
X127950000Y-100691594D01*
X127150000Y-100691594D01*
X127025316Y-100715785D01*
X126915730Y-100787771D01*
X126842375Y-100896445D01*
X126816594Y-101025000D01*
X126816594Y-101775000D01*
X126840785Y-101899684D01*
X126912771Y-102009270D01*
X127021445Y-102082625D01*
X127150000Y-102108406D01*
X127950000Y-102108406D01*
X128074684Y-102084215D01*
X128184270Y-102012229D01*
X128257625Y-101903555D01*
X128267964Y-101852000D01*
X130816594Y-101852000D01*
X130816594Y-102150000D01*
X130840785Y-102274684D01*
X130912771Y-102384270D01*
X131021445Y-102457625D01*
X131150000Y-102483406D01*
X131450000Y-102483406D01*
X131551654Y-102463683D01*
X131650000Y-102483406D01*
X131950000Y-102483406D01*
X132051654Y-102463683D01*
X132150000Y-102483406D01*
X132450000Y-102483406D01*
X132551654Y-102463683D01*
X132650000Y-102483406D01*
X132950000Y-102483406D01*
X133051654Y-102463683D01*
X133150000Y-102483406D01*
X133450000Y-102483406D01*
X133551654Y-102463683D01*
X133650000Y-102483406D01*
X133950000Y-102483406D01*
X134051654Y-102463683D01*
X134150000Y-102483406D01*
X134450000Y-102483406D01*
X134551654Y-102463683D01*
X134650000Y-102483406D01*
X134731794Y-102483406D01*
X134673109Y-102624735D01*
X134672891Y-102874171D01*
X134768145Y-103104703D01*
X134944369Y-103281235D01*
X135174735Y-103376891D01*
X135424171Y-103377109D01*
X135654703Y-103281855D01*
X135831235Y-103105631D01*
X135926891Y-102875265D01*
X135927109Y-102625829D01*
X135868261Y-102483406D01*
X135950000Y-102483406D01*
X136051654Y-102463683D01*
X136150000Y-102483406D01*
X136450000Y-102483406D01*
X136551654Y-102463683D01*
X136650000Y-102483406D01*
X136950000Y-102483406D01*
X137074684Y-102459215D01*
X137184270Y-102387229D01*
X137257625Y-102278555D01*
X137283406Y-102150000D01*
X137283406Y-100650000D01*
X137259215Y-100525316D01*
X137252000Y-100514332D01*
X137252000Y-100334728D01*
X137275099Y-100311669D01*
X137348000Y-100384698D01*
X137348000Y-100513112D01*
X137342375Y-100521445D01*
X137316594Y-100650000D01*
X137316594Y-102150000D01*
X137340785Y-102274684D01*
X137412771Y-102384270D01*
X137521445Y-102457625D01*
X137650000Y-102483406D01*
X137950000Y-102483406D01*
X138051654Y-102463683D01*
X138150000Y-102483406D01*
X138450000Y-102483406D01*
X138551654Y-102463683D01*
X138650000Y-102483406D01*
X138848000Y-102483406D01*
X138848000Y-104112775D01*
X137612776Y-105348000D01*
X111264547Y-105348000D01*
X111560703Y-105225631D01*
X111934319Y-104852666D01*
X112136769Y-104365115D01*
X112137229Y-103837202D01*
X111935631Y-103349297D01*
X111637000Y-103050145D01*
X111637000Y-93625000D01*
X125766594Y-93625000D01*
X125766594Y-94875000D01*
X125790785Y-94999684D01*
X125862771Y-95109270D01*
X125971445Y-95182625D01*
X126100000Y-95208406D01*
X127100000Y-95208406D01*
X127224684Y-95184215D01*
X127334270Y-95112229D01*
X127407625Y-95003555D01*
X127433406Y-94875000D01*
X127433406Y-94152000D01*
X128516594Y-94152000D01*
X128516594Y-94350000D01*
X128536317Y-94451654D01*
X128516594Y-94550000D01*
X128516594Y-94850000D01*
X128536317Y-94951654D01*
X128516594Y-95050000D01*
X128516594Y-95350000D01*
X128536317Y-95451654D01*
X128516594Y-95550000D01*
X128516594Y-95850000D01*
X128536317Y-95951654D01*
X128516594Y-96050000D01*
X128516594Y-96350000D01*
X128536317Y-96451654D01*
X128516594Y-96550000D01*
X128516594Y-96850000D01*
X128536317Y-96951654D01*
X128516594Y-97050000D01*
X128516594Y-97350000D01*
X128536317Y-97451654D01*
X128516594Y-97550000D01*
X128516594Y-97850000D01*
X128536317Y-97951654D01*
X128516594Y-98050000D01*
X128516594Y-98350000D01*
X128536317Y-98451654D01*
X128516594Y-98550000D01*
X128516594Y-98850000D01*
X128536317Y-98951654D01*
X128516594Y-99050000D01*
X128516594Y-99350000D01*
X128536317Y-99451654D01*
X128516594Y-99550000D01*
X128516594Y-99850000D01*
X128540785Y-99974684D01*
X128612771Y-100084270D01*
X128721445Y-100157625D01*
X128850000Y-100183406D01*
X130350000Y-100183406D01*
X130474684Y-100159215D01*
X130584270Y-100087229D01*
X130657625Y-99978555D01*
X130683406Y-99850000D01*
X130683406Y-99550000D01*
X130663683Y-99448346D01*
X130683406Y-99350000D01*
X130683406Y-99050000D01*
X130663683Y-98948346D01*
X130683406Y-98850000D01*
X130683406Y-98550000D01*
X130663683Y-98448346D01*
X130683406Y-98350000D01*
X130683406Y-98050000D01*
X130663683Y-97948346D01*
X130683406Y-97850000D01*
X130683406Y-97550000D01*
X130663683Y-97448346D01*
X130683406Y-97350000D01*
X130683406Y-97050000D01*
X130663683Y-96948346D01*
X130683406Y-96850000D01*
X130683406Y-96550000D01*
X130663683Y-96448346D01*
X130683406Y-96350000D01*
X130683406Y-96050000D01*
X130663683Y-95948346D01*
X130683406Y-95850000D01*
X130683406Y-95550000D01*
X130663683Y-95448346D01*
X130683406Y-95350000D01*
X130683406Y-95050000D01*
X130663683Y-94948346D01*
X130683406Y-94850000D01*
X130683406Y-94550000D01*
X130663683Y-94448346D01*
X130683406Y-94350000D01*
X130683406Y-94050000D01*
X130663683Y-93948346D01*
X130683406Y-93850000D01*
X130683406Y-93550000D01*
X130659215Y-93425316D01*
X130587229Y-93315730D01*
X130478555Y-93242375D01*
X130350000Y-93216594D01*
X128850000Y-93216594D01*
X128725316Y-93240785D01*
X128714332Y-93248000D01*
X127150000Y-93248000D01*
X126989123Y-93280000D01*
X126977027Y-93282406D01*
X126963276Y-93291594D01*
X126100000Y-93291594D01*
X125975316Y-93315785D01*
X125865730Y-93387771D01*
X125792375Y-93496445D01*
X125766594Y-93625000D01*
X111637000Y-93625000D01*
X111637000Y-88632554D01*
X112042554Y-88227000D01*
X115275151Y-88227000D01*
X115312771Y-88284270D01*
X115421445Y-88357625D01*
X115550000Y-88383406D01*
X116850000Y-88383406D01*
X116974684Y-88359215D01*
X117084270Y-88287229D01*
X117157625Y-88178555D01*
X117183406Y-88050000D01*
X117183406Y-87586148D01*
X118664777Y-86104778D01*
X118844048Y-85836479D01*
X118856680Y-85772973D01*
X118907000Y-85520000D01*
X118907000Y-83648746D01*
X119129134Y-83427000D01*
X119549589Y-83427000D01*
X119547003Y-83440000D01*
X119628985Y-83852150D01*
X119862449Y-84201554D01*
X120211853Y-84435018D01*
X120624003Y-84517000D01*
X121175997Y-84517000D01*
X121310935Y-84490159D01*
X121348000Y-84527224D01*
X121348000Y-85231533D01*
X121300316Y-85240785D01*
X121190730Y-85312771D01*
X121117375Y-85421445D01*
X121091594Y-85550000D01*
X121091594Y-86350000D01*
X121115785Y-86474684D01*
X121187771Y-86584270D01*
X121296445Y-86657625D01*
X121425000Y-86683406D01*
X122175000Y-86683406D01*
X122299684Y-86659215D01*
X122409270Y-86587229D01*
X122482625Y-86478555D01*
X122508406Y-86350000D01*
X122508406Y-85550000D01*
X122484215Y-85425316D01*
X122412229Y-85315730D01*
X122303555Y-85242375D01*
X122252000Y-85232036D01*
X122252000Y-84340000D01*
X122217594Y-84167027D01*
X122119612Y-84020388D01*
X122083039Y-83983815D01*
X122171015Y-83852150D01*
X122252997Y-83440000D01*
X122171015Y-83027850D01*
X121937551Y-82678446D01*
X121588147Y-82444982D01*
X121175997Y-82363000D01*
X120992554Y-82363000D01*
X120644777Y-82015223D01*
X120376479Y-81835952D01*
X120060000Y-81773000D01*
X119128746Y-81773000D01*
X118832377Y-81476113D01*
X118345013Y-81273741D01*
X117817303Y-81273281D01*
X117329586Y-81474801D01*
X116956113Y-81847623D01*
X116753741Y-82334987D01*
X116753281Y-82862697D01*
X116954801Y-83350414D01*
X117253000Y-83649134D01*
X117253000Y-85177445D01*
X116013852Y-86416594D01*
X115550000Y-86416594D01*
X115425316Y-86440785D01*
X115315730Y-86512771D01*
X115275075Y-86573000D01*
X106024849Y-86573000D01*
X105987229Y-86515730D01*
X105878555Y-86442375D01*
X105750000Y-86416594D01*
X104450000Y-86416594D01*
X104325316Y-86440785D01*
X104215730Y-86512771D01*
X104142375Y-86621445D01*
X104116594Y-86750000D01*
X104116594Y-88050000D01*
X104140785Y-88174684D01*
X104212771Y-88284270D01*
X104321445Y-88357625D01*
X104450000Y-88383406D01*
X105750000Y-88383406D01*
X105874684Y-88359215D01*
X105984270Y-88287229D01*
X106024925Y-88227000D01*
X109995532Y-88227000D01*
X109983000Y-88290000D01*
X109983000Y-103050533D01*
X109685681Y-103347334D01*
X109483231Y-103834885D01*
X109482771Y-104362798D01*
X109684369Y-104850703D01*
X110057334Y-105224319D01*
X110355189Y-105348000D01*
X107617224Y-105348000D01*
X106932826Y-104663602D01*
X107056769Y-104365115D01*
X107057229Y-103837202D01*
X106855631Y-103349297D01*
X106482666Y-102975681D01*
X105995115Y-102773231D01*
X105467202Y-102772771D01*
X104979297Y-102974369D01*
X104605681Y-103347334D01*
X104459891Y-103698433D01*
X104315631Y-103349297D01*
X103942666Y-102975681D01*
X103455115Y-102773231D01*
X102927202Y-102772771D01*
X102439297Y-102974369D01*
X102065681Y-103347334D01*
X101863231Y-103834885D01*
X101862771Y-104362798D01*
X102064369Y-104850703D01*
X102437334Y-105224319D01*
X102924885Y-105426769D01*
X103452798Y-105427229D01*
X103753682Y-105302906D01*
X104698780Y-106248004D01*
X94017229Y-106248004D01*
X92993815Y-105224591D01*
X93326319Y-104892666D01*
X93528769Y-104405115D01*
X93528771Y-104402798D01*
X95954771Y-104402798D01*
X96156369Y-104890703D01*
X96529334Y-105264319D01*
X97016885Y-105466769D01*
X97544798Y-105467229D01*
X98032703Y-105265631D01*
X98406319Y-104892666D01*
X98608769Y-104405115D01*
X98609229Y-103877202D01*
X98407631Y-103389297D01*
X98034666Y-103015681D01*
X97547115Y-102813231D01*
X97019202Y-102812771D01*
X96531297Y-103014369D01*
X96157681Y-103387334D01*
X95955231Y-103874885D01*
X95954771Y-104402798D01*
X93528771Y-104402798D01*
X93529229Y-103877202D01*
X93327631Y-103389297D01*
X92954666Y-103015681D01*
X92467115Y-102813231D01*
X91939202Y-102812771D01*
X91451297Y-103014369D01*
X91077681Y-103387334D01*
X90931891Y-103738433D01*
X90787631Y-103389297D01*
X90414666Y-103015681D01*
X89927115Y-102813231D01*
X89399202Y-102812771D01*
X88911297Y-103014369D01*
X88537681Y-103387334D01*
X88335231Y-103874885D01*
X88334771Y-104402798D01*
X88536369Y-104890703D01*
X88909334Y-105264319D01*
X89396885Y-105466769D01*
X89417563Y-105466787D01*
X91173776Y-107223000D01*
X81377000Y-107223000D01*
X81377000Y-104981622D01*
X82072666Y-104981622D01*
X82365416Y-105690132D01*
X82907017Y-106232678D01*
X83615014Y-106526665D01*
X84381622Y-106527334D01*
X85090132Y-106234584D01*
X85632678Y-105692983D01*
X85926665Y-104984986D01*
X85927334Y-104218378D01*
X85634584Y-103509868D01*
X85092983Y-102967322D01*
X84384986Y-102673335D01*
X83618378Y-102672666D01*
X82909868Y-102965416D01*
X82367322Y-103507017D01*
X82073335Y-104215014D01*
X82072666Y-104981622D01*
X81377000Y-104981622D01*
X81377000Y-96793717D01*
X81474801Y-97030414D01*
X81847623Y-97403887D01*
X82334987Y-97606259D01*
X82862697Y-97606719D01*
X83350414Y-97405199D01*
X83723887Y-97032377D01*
X83926259Y-96545013D01*
X83926719Y-96017303D01*
X83725199Y-95529586D01*
X83582708Y-95386846D01*
X85732554Y-93237000D01*
X86707648Y-93237000D01*
X86964275Y-93494075D01*
X87434375Y-93689278D01*
X87943392Y-93689722D01*
X88413832Y-93495340D01*
X88774075Y-93135725D01*
X88960217Y-92687446D01*
X89144660Y-93133832D01*
X89173000Y-93162221D01*
X89173000Y-94767104D01*
X89000510Y-94767104D01*
X88875826Y-94791295D01*
X88766240Y-94863281D01*
X88692885Y-94971955D01*
X88667104Y-95100510D01*
X88667104Y-97099490D01*
X88691295Y-97224174D01*
X88763281Y-97333760D01*
X88871955Y-97407115D01*
X89000510Y-97432896D01*
X90999490Y-97432896D01*
X91124174Y-97408705D01*
X91233760Y-97336719D01*
X91307115Y-97228045D01*
X91332896Y-97099490D01*
X91332896Y-95100510D01*
X91308705Y-94975826D01*
X91236719Y-94866240D01*
X91128045Y-94792885D01*
X90999490Y-94767104D01*
X90827000Y-94767104D01*
X90827000Y-93547746D01*
X90953832Y-93495340D01*
X91314075Y-93135725D01*
X91500217Y-92687446D01*
X91684660Y-93133832D01*
X91943000Y-93392623D01*
X91943000Y-94770000D01*
X91966594Y-94888614D01*
X91966594Y-95700000D01*
X91990785Y-95824684D01*
X92062771Y-95934270D01*
X92171445Y-96007625D01*
X92300000Y-96033406D01*
X93700000Y-96033406D01*
X93824684Y-96009215D01*
X93934270Y-95937229D01*
X94007625Y-95828555D01*
X94033406Y-95700000D01*
X94033406Y-94300000D01*
X94009215Y-94175316D01*
X93937229Y-94065730D01*
X93828555Y-93992375D01*
X93700000Y-93966594D01*
X93597000Y-93966594D01*
X93597000Y-93392352D01*
X93854075Y-93135725D01*
X94049278Y-92665625D01*
X94049722Y-92156608D01*
X93855340Y-91686168D01*
X93495725Y-91325925D01*
X93025625Y-91130722D01*
X92679135Y-91130420D01*
X93782555Y-90027000D01*
X98557446Y-90027000D01*
X101515222Y-92984777D01*
X101765490Y-93152000D01*
X101783521Y-93164048D01*
X102100000Y-93227000D01*
X104545074Y-93227000D01*
X104545851Y-93227778D01*
X104904810Y-93376830D01*
X105293485Y-93377170D01*
X105652703Y-93228744D01*
X105927778Y-92954149D01*
X106076830Y-92595190D01*
X106077170Y-92206515D01*
X105928744Y-91847297D01*
X105654149Y-91572222D01*
X105295190Y-91423170D01*
X104906515Y-91422830D01*
X104547297Y-91571256D01*
X104545550Y-91573000D01*
X102442555Y-91573000D01*
X99484777Y-88615223D01*
X99216479Y-88435952D01*
X98900000Y-88373000D01*
X93440000Y-88373000D01*
X93123521Y-88435952D01*
X92855223Y-88615222D01*
X90339851Y-91130595D01*
X89976608Y-91130278D01*
X89506168Y-91324660D01*
X89145925Y-91684275D01*
X88959783Y-92132554D01*
X88775340Y-91686168D01*
X88517000Y-91427377D01*
X88517000Y-85772352D01*
X88672623Y-85617000D01*
X89247648Y-85617000D01*
X89504275Y-85874075D01*
X89974375Y-86069278D01*
X90483392Y-86069722D01*
X90953832Y-85875340D01*
X91314075Y-85515725D01*
X91500217Y-85067446D01*
X91684660Y-85513832D01*
X92044275Y-85874075D01*
X92514375Y-86069278D01*
X93023392Y-86069722D01*
X93493832Y-85875340D01*
X93854075Y-85515725D01*
X94040217Y-85067446D01*
X94224660Y-85513832D01*
X94584275Y-85874075D01*
X95054375Y-86069278D01*
X95563392Y-86069722D01*
X96033832Y-85875340D01*
X96292623Y-85617000D01*
X99710000Y-85617000D01*
X100026479Y-85554048D01*
X100294777Y-85374777D01*
X102242555Y-83427000D01*
X106871254Y-83427000D01*
X107167623Y-83723887D01*
X107654987Y-83926259D01*
X108182697Y-83926719D01*
X108670414Y-83725199D01*
X109043887Y-83352377D01*
X109246259Y-82865013D01*
X109246719Y-82337303D01*
X109045199Y-81849586D01*
X108747000Y-81550866D01*
X108747000Y-80648746D01*
X109043887Y-80352377D01*
X109246259Y-79865013D01*
X109246719Y-79337303D01*
X109045199Y-78849586D01*
X108672377Y-78476113D01*
X108185013Y-78273741D01*
X107657303Y-78273281D01*
X107169586Y-78474801D01*
X106796113Y-78847623D01*
X106593741Y-79334987D01*
X106593281Y-79862697D01*
X106794801Y-80350414D01*
X107093000Y-80649134D01*
X107093000Y-81551254D01*
X106870866Y-81773000D01*
X101900000Y-81773000D01*
X101583521Y-81835952D01*
X101315223Y-82015222D01*
X99367446Y-83963000D01*
X96292352Y-83963000D01*
X96035725Y-83705925D01*
X95565625Y-83510722D01*
X95056608Y-83510278D01*
X94586168Y-83704660D01*
X94225925Y-84064275D01*
X94039783Y-84512554D01*
X93855340Y-84066168D01*
X93597000Y-83807377D01*
X93597000Y-82800000D01*
X93534048Y-82483521D01*
X93427000Y-82323312D01*
X93427000Y-78442554D01*
X97542555Y-74327000D01*
X103000000Y-74327000D01*
X103316479Y-74264048D01*
X103584777Y-74084777D01*
X107142554Y-70527000D01*
X110357446Y-70527000D01*
X112416594Y-72586149D01*
X112416594Y-73050000D01*
X112440785Y-73174684D01*
X112512771Y-73284270D01*
X112621445Y-73357625D01*
X112750000Y-73383406D01*
X114050000Y-73383406D01*
X114174684Y-73359215D01*
X114284270Y-73287229D01*
X114357625Y-73178555D01*
X114383406Y-73050000D01*
X114383406Y-71750000D01*
X114359215Y-71625316D01*
X114287229Y-71515730D01*
X114178555Y-71442375D01*
X114050000Y-71416594D01*
X113586149Y-71416594D01*
X111284777Y-69115223D01*
X111016479Y-68935952D01*
X110700000Y-68873000D01*
X107342554Y-68873000D01*
X103467000Y-64997446D01*
X103467000Y-61313178D01*
X103562671Y-61217674D01*
X103728811Y-60817566D01*
X103728812Y-60815665D01*
X104090811Y-60815665D01*
X104256252Y-61216063D01*
X104562326Y-61522671D01*
X104962434Y-61688811D01*
X105395665Y-61689189D01*
X105459536Y-61662798D01*
X118932771Y-61662798D01*
X119134369Y-62150703D01*
X119507334Y-62524319D01*
X119808000Y-62649167D01*
X119808000Y-66360000D01*
X119842406Y-66532973D01*
X119940388Y-66679612D01*
X122480387Y-69219612D01*
X122581583Y-69287229D01*
X122627027Y-69317594D01*
X122800000Y-69352000D01*
X128408776Y-69352000D01*
X127980388Y-69780388D01*
X127882406Y-69927027D01*
X127848000Y-70100000D01*
X127848000Y-72110000D01*
X127882406Y-72282973D01*
X127980388Y-72429612D01*
X128897174Y-73346399D01*
X128773231Y-73644885D01*
X128772771Y-74172798D01*
X128974369Y-74660703D01*
X129347334Y-75034319D01*
X129698433Y-75180109D01*
X129349297Y-75324369D01*
X128975681Y-75697334D01*
X128773231Y-76184885D01*
X128772771Y-76712798D01*
X128974369Y-77200703D01*
X129347334Y-77574319D01*
X129834885Y-77776769D01*
X130362798Y-77777229D01*
X130850703Y-77575631D01*
X131224319Y-77202666D01*
X131426769Y-76715115D01*
X131427174Y-76250000D01*
X134016594Y-76250000D01*
X134016594Y-76550000D01*
X134036317Y-76651654D01*
X134016594Y-76750000D01*
X134016594Y-77050000D01*
X134036317Y-77151654D01*
X134016594Y-77250000D01*
X134016594Y-77550000D01*
X134036317Y-77651654D01*
X134016594Y-77750000D01*
X134016594Y-78050000D01*
X134036317Y-78151654D01*
X134016594Y-78250000D01*
X134016594Y-78550000D01*
X134036317Y-78651654D01*
X134016594Y-78750000D01*
X134016594Y-79050000D01*
X134036317Y-79151654D01*
X134016594Y-79250000D01*
X134016594Y-79550000D01*
X134036317Y-79651654D01*
X134016594Y-79750000D01*
X134016594Y-80050000D01*
X134036317Y-80151654D01*
X134016594Y-80250000D01*
X134016594Y-80550000D01*
X134040785Y-80674684D01*
X134112771Y-80784270D01*
X134221445Y-80857625D01*
X134350000Y-80883406D01*
X135850000Y-80883406D01*
X135974684Y-80859215D01*
X136084270Y-80787229D01*
X136157625Y-80678555D01*
X136183406Y-80550000D01*
X136183406Y-80250000D01*
X136163683Y-80148346D01*
X136183406Y-80050000D01*
X136183406Y-79750000D01*
X136163683Y-79648346D01*
X136183406Y-79550000D01*
X136183406Y-79250000D01*
X136163683Y-79148346D01*
X136183406Y-79050000D01*
X136183406Y-78750000D01*
X136163683Y-78648346D01*
X136183406Y-78550000D01*
X136183406Y-78250000D01*
X136163683Y-78148346D01*
X136183406Y-78050000D01*
X136183406Y-77750000D01*
X136163683Y-77648346D01*
X136183406Y-77550000D01*
X136183406Y-77250000D01*
X136163683Y-77148346D01*
X136183406Y-77050000D01*
X136183406Y-76750000D01*
X136163683Y-76648346D01*
X136183406Y-76550000D01*
X136183406Y-76250000D01*
X136159215Y-76125316D01*
X136087229Y-76015730D01*
X135978555Y-75942375D01*
X135850000Y-75916594D01*
X134350000Y-75916594D01*
X134225316Y-75940785D01*
X134115730Y-76012771D01*
X134042375Y-76121445D01*
X134016594Y-76250000D01*
X131427174Y-76250000D01*
X131427229Y-76187202D01*
X131229811Y-75709413D01*
X132189224Y-74750000D01*
X134016594Y-74750000D01*
X134016594Y-75050000D01*
X134036317Y-75151654D01*
X134016594Y-75250000D01*
X134016594Y-75550000D01*
X134040785Y-75674684D01*
X134112771Y-75784270D01*
X134221445Y-75857625D01*
X134350000Y-75883406D01*
X135850000Y-75883406D01*
X135974684Y-75859215D01*
X136084270Y-75787229D01*
X136157625Y-75678555D01*
X136183406Y-75550000D01*
X136183406Y-75250000D01*
X136163683Y-75148346D01*
X136183406Y-75050000D01*
X136183406Y-74750000D01*
X136159215Y-74625316D01*
X136087229Y-74515730D01*
X135978555Y-74442375D01*
X135850000Y-74416594D01*
X134350000Y-74416594D01*
X134225316Y-74440785D01*
X134115730Y-74512771D01*
X134042375Y-74621445D01*
X134016594Y-74750000D01*
X132189224Y-74750000D01*
X133087224Y-73852000D01*
X134213112Y-73852000D01*
X134221445Y-73857625D01*
X134350000Y-73883406D01*
X135850000Y-73883406D01*
X135974684Y-73859215D01*
X136084270Y-73787229D01*
X136157625Y-73678555D01*
X136183406Y-73550000D01*
X136183406Y-73250000D01*
X136163683Y-73148346D01*
X136183406Y-73050000D01*
X136183406Y-72750000D01*
X136163683Y-72648346D01*
X136183406Y-72550000D01*
X136183406Y-72250000D01*
X136163683Y-72148346D01*
X136183406Y-72050000D01*
X136183406Y-71750000D01*
X136163683Y-71648346D01*
X136183406Y-71550000D01*
X136183406Y-71250000D01*
X136163683Y-71148346D01*
X136183406Y-71050000D01*
X136183406Y-70750000D01*
X136163683Y-70648346D01*
X136183406Y-70550000D01*
X136183406Y-70250000D01*
X136163683Y-70148346D01*
X136183406Y-70050000D01*
X136183406Y-69750000D01*
X136163683Y-69648346D01*
X136183406Y-69550000D01*
X136183406Y-69250000D01*
X136163683Y-69148346D01*
X136183406Y-69050000D01*
X136183406Y-68750000D01*
X136163683Y-68648346D01*
X136183406Y-68550000D01*
X136183406Y-68250000D01*
X136159215Y-68125316D01*
X136087229Y-68015730D01*
X135978555Y-67942375D01*
X135850000Y-67916594D01*
X134350000Y-67916594D01*
X134225316Y-67940785D01*
X134214332Y-67948000D01*
X125487224Y-67948000D01*
X123252000Y-65712776D01*
X123252000Y-62649052D01*
X123550703Y-62525631D01*
X123924319Y-62152666D01*
X124126769Y-61665115D01*
X124127229Y-61137202D01*
X123925631Y-60649297D01*
X123552666Y-60275681D01*
X123065115Y-60073231D01*
X122537202Y-60072771D01*
X122049297Y-60274369D01*
X121675681Y-60647334D01*
X121529891Y-60998433D01*
X121385631Y-60649297D01*
X121012666Y-60275681D01*
X120525115Y-60073231D01*
X119997202Y-60072771D01*
X119509297Y-60274369D01*
X119135681Y-60647334D01*
X118933231Y-61134885D01*
X118932771Y-61662798D01*
X105459536Y-61662798D01*
X105796063Y-61523748D01*
X106102671Y-61217674D01*
X106268811Y-60817566D01*
X106269189Y-60384335D01*
X106103748Y-59983937D01*
X105797674Y-59677329D01*
X105397566Y-59511189D01*
X104964335Y-59510811D01*
X104563937Y-59676252D01*
X104257329Y-59982326D01*
X104091189Y-60382434D01*
X104090811Y-60815665D01*
X103728812Y-60815665D01*
X103729189Y-60384335D01*
X103563748Y-59983937D01*
X103257674Y-59677329D01*
X102857566Y-59511189D01*
X102424335Y-59510811D01*
X102023937Y-59676252D01*
X101717329Y-59982326D01*
X101551189Y-60382434D01*
X101550811Y-60815665D01*
X101716252Y-61216063D01*
X101813000Y-61312980D01*
X101813000Y-65340000D01*
X101875952Y-65656479D01*
X102055223Y-65924777D01*
X105730446Y-69600000D01*
X102657446Y-72673000D01*
X97200000Y-72673000D01*
X96883521Y-72735952D01*
X96615222Y-72915223D01*
X92015223Y-77515223D01*
X91835952Y-77783521D01*
X91773000Y-78100000D01*
X91773000Y-81973000D01*
X84600000Y-81973000D01*
X84313444Y-82030000D01*
X84283521Y-82035952D01*
X84015223Y-82215223D01*
X82015223Y-84215223D01*
X81835952Y-84483521D01*
X81773000Y-84800000D01*
X81773000Y-85071254D01*
X81476113Y-85367623D01*
X81377000Y-85606313D01*
X81377000Y-80973093D01*
X83622796Y-80973093D01*
X83801606Y-81405846D01*
X84132412Y-81737230D01*
X84564853Y-81916795D01*
X85033093Y-81917204D01*
X85465846Y-81738394D01*
X85797230Y-81407588D01*
X85976795Y-80975147D01*
X85977204Y-80506907D01*
X85798394Y-80074154D01*
X85467588Y-79742770D01*
X85035147Y-79563205D01*
X84566907Y-79562796D01*
X84134154Y-79741606D01*
X83802770Y-80072412D01*
X83623205Y-80504853D01*
X83622796Y-80973093D01*
X81377000Y-80973093D01*
X81377000Y-65973093D01*
X83622796Y-65973093D01*
X83801606Y-66405846D01*
X84132412Y-66737230D01*
X84564853Y-66916795D01*
X85033093Y-66917204D01*
X85465846Y-66738394D01*
X85797230Y-66407588D01*
X85976795Y-65975147D01*
X85977204Y-65506907D01*
X85798394Y-65074154D01*
X85467588Y-64742770D01*
X85035147Y-64563205D01*
X84566907Y-64562796D01*
X84134154Y-64741606D01*
X83802770Y-65072412D01*
X83623205Y-65504853D01*
X83622796Y-65973093D01*
X81377000Y-65973093D01*
X81377000Y-60981622D01*
X82072666Y-60981622D01*
X82365416Y-61690132D01*
X82907017Y-62232678D01*
X83615014Y-62526665D01*
X84381622Y-62527334D01*
X85090132Y-62234584D01*
X85632678Y-61692983D01*
X85926665Y-60984986D01*
X85926812Y-60815665D01*
X93930811Y-60815665D01*
X94096252Y-61216063D01*
X94402326Y-61522671D01*
X94802434Y-61688811D01*
X95235665Y-61689189D01*
X95636063Y-61523748D01*
X95942671Y-61217674D01*
X96108811Y-60817566D01*
X96109189Y-60384335D01*
X95943748Y-59983937D01*
X95637674Y-59677329D01*
X95237566Y-59511189D01*
X94804335Y-59510811D01*
X94403937Y-59676252D01*
X94097329Y-59982326D01*
X93931189Y-60382434D01*
X93930811Y-60815665D01*
X85926812Y-60815665D01*
X85927334Y-60218378D01*
X85634584Y-59509868D01*
X85092983Y-58967322D01*
X84384986Y-58673335D01*
X83618378Y-58672666D01*
X82909868Y-58965416D01*
X82367322Y-59507017D01*
X82073335Y-60215014D01*
X82072666Y-60981622D01*
X81377000Y-60981622D01*
X81377000Y-57977000D01*
X100372428Y-57977000D01*
X100315223Y-58015223D01*
X99515223Y-58815223D01*
X99335952Y-59083521D01*
X99273000Y-59400000D01*
X99273000Y-59773000D01*
X98273178Y-59773000D01*
X98177674Y-59677329D01*
X97777566Y-59511189D01*
X97344335Y-59510811D01*
X96943937Y-59676252D01*
X96637329Y-59982326D01*
X96471189Y-60382434D01*
X96470811Y-60815665D01*
X96636252Y-61216063D01*
X96942326Y-61522671D01*
X97342434Y-61688811D01*
X97775665Y-61689189D01*
X98176063Y-61523748D01*
X98272980Y-61427000D01*
X99173000Y-61427000D01*
X99173000Y-67644893D01*
X98966440Y-67730242D01*
X98452048Y-68243736D01*
X98173318Y-68914993D01*
X98172684Y-69641818D01*
X98450242Y-70313560D01*
X98963736Y-70827952D01*
X99634993Y-71106682D01*
X100361818Y-71107316D01*
X101033560Y-70829758D01*
X101547952Y-70316264D01*
X101826682Y-69645007D01*
X101827316Y-68918182D01*
X101549758Y-68246440D01*
X101036264Y-67732048D01*
X100827000Y-67645154D01*
X100827000Y-61413004D01*
X101022671Y-61217674D01*
X101188811Y-60817566D01*
X101189189Y-60384335D01*
X101023748Y-59983937D01*
X100927000Y-59887020D01*
X100927000Y-59742554D01*
X101242554Y-59427000D01*
X140636247Y-59427000D01*
X140616594Y-59525000D01*
X140616594Y-60275000D01*
X140640785Y-60399684D01*
X140712771Y-60509270D01*
X140821445Y-60582625D01*
X140950000Y-60608406D01*
X141750000Y-60608406D01*
X141874684Y-60584215D01*
X141984270Y-60512229D01*
X142057625Y-60403555D01*
X142067964Y-60352000D01*
X142517384Y-60352000D01*
X142517384Y-62400290D01*
X142541575Y-62524974D01*
X142613561Y-62634560D01*
X142722235Y-62707915D01*
X142850790Y-62733696D01*
X144348000Y-62733696D01*
X144348000Y-65616594D01*
X144150000Y-65616594D01*
X144048346Y-65636317D01*
X143950000Y-65616594D01*
X143650000Y-65616594D01*
X143548346Y-65636317D01*
X143450000Y-65616594D01*
X143150000Y-65616594D01*
X143025316Y-65640785D01*
X142915730Y-65712771D01*
X142842375Y-65821445D01*
X142816594Y-65950000D01*
X142816594Y-67450000D01*
X142840785Y-67574684D01*
X142848000Y-67585668D01*
X142848000Y-67834371D01*
X142831855Y-67795297D01*
X142752000Y-67715302D01*
X142752000Y-67586888D01*
X142757625Y-67578555D01*
X142783406Y-67450000D01*
X142783406Y-65950000D01*
X142759215Y-65825316D01*
X142687229Y-65715730D01*
X142578555Y-65642375D01*
X142450000Y-65616594D01*
X142252000Y-65616594D01*
X142252000Y-65574291D01*
X142354703Y-65531855D01*
X142531235Y-65355631D01*
X142626891Y-65125265D01*
X142627109Y-64875829D01*
X142531855Y-64645297D01*
X142355631Y-64468765D01*
X142125265Y-64373109D01*
X141875829Y-64372891D01*
X141752000Y-64424056D01*
X141752000Y-62505623D01*
X141826891Y-62325265D01*
X141827109Y-62075829D01*
X141731855Y-61845297D01*
X141555631Y-61668765D01*
X141325265Y-61573109D01*
X141075829Y-61572891D01*
X140845297Y-61668145D01*
X140668765Y-61844369D01*
X140573109Y-62074735D01*
X140572891Y-62324171D01*
X140668145Y-62554703D01*
X140844369Y-62731235D01*
X140848000Y-62732743D01*
X140848000Y-65616594D01*
X140650000Y-65616594D01*
X140548346Y-65636317D01*
X140450000Y-65616594D01*
X140150000Y-65616594D01*
X140048346Y-65636317D01*
X139950000Y-65616594D01*
X139650000Y-65616594D01*
X139548346Y-65636317D01*
X139450000Y-65616594D01*
X139150000Y-65616594D01*
X139048346Y-65636317D01*
X138950000Y-65616594D01*
X138650000Y-65616594D01*
X138548346Y-65636317D01*
X138450000Y-65616594D01*
X138150000Y-65616594D01*
X138048346Y-65636317D01*
X137950000Y-65616594D01*
X137650000Y-65616594D01*
X137548346Y-65636317D01*
X137450000Y-65616594D01*
X137150000Y-65616594D01*
X137048346Y-65636317D01*
X136950000Y-65616594D01*
X136650000Y-65616594D01*
X136525316Y-65640785D01*
X136415730Y-65712771D01*
X136342375Y-65821445D01*
X136316594Y-65950000D01*
X136316594Y-66248000D01*
X134018467Y-66248000D01*
X134009215Y-66200316D01*
X133937229Y-66090730D01*
X133828555Y-66017375D01*
X133700000Y-65991594D01*
X132900000Y-65991594D01*
X132775316Y-66015785D01*
X132665730Y-66087771D01*
X132592375Y-66196445D01*
X132566594Y-66325000D01*
X132566594Y-67075000D01*
X132590785Y-67199684D01*
X132662771Y-67309270D01*
X132771445Y-67382625D01*
X132900000Y-67408406D01*
X133700000Y-67408406D01*
X133824684Y-67384215D01*
X133934270Y-67312229D01*
X134007625Y-67203555D01*
X134017964Y-67152000D01*
X136316594Y-67152000D01*
X136316594Y-67450000D01*
X136340785Y-67574684D01*
X136348000Y-67585668D01*
X136348000Y-80100000D01*
X136382406Y-80272973D01*
X136480388Y-80419612D01*
X136560776Y-80500000D01*
X136480388Y-80580388D01*
X136382406Y-80727027D01*
X136348000Y-80900000D01*
X136348000Y-81101471D01*
X136230000Y-81078000D01*
X131349052Y-81078000D01*
X131225631Y-80779297D01*
G36*
X143757625Y-86878555D02*
X143783406Y-86750000D01*
X143783406Y-86155818D01*
X144037225Y-85902000D01*
X146281533Y-85902000D01*
X146290785Y-85949684D01*
X146362771Y-86059270D01*
X146471445Y-86132625D01*
X146600000Y-86158406D01*
X147400000Y-86158406D01*
X147524684Y-86134215D01*
X147634270Y-86062229D01*
X147707625Y-85953555D01*
X147733406Y-85825000D01*
X147733406Y-85075000D01*
X147709542Y-84952000D01*
X155184371Y-84952000D01*
X155145297Y-84968145D01*
X154968765Y-85144369D01*
X154873109Y-85374735D01*
X154872891Y-85624171D01*
X154968145Y-85854703D01*
X155144369Y-86031235D01*
X155374735Y-86126891D01*
X155624171Y-86127109D01*
X155805948Y-86052000D01*
X156266982Y-86052000D01*
X156290785Y-86174684D01*
X156362771Y-86284270D01*
X156471445Y-86357625D01*
X156600000Y-86383406D01*
X157100000Y-86383406D01*
X157224684Y-86359215D01*
X157334270Y-86287229D01*
X157407625Y-86178555D01*
X157433406Y-86050000D01*
X157433406Y-85150000D01*
X157409215Y-85025316D01*
X157361054Y-84952000D01*
X172912776Y-84952000D01*
X177428000Y-89467224D01*
X177428000Y-91250948D01*
X177129297Y-91374369D01*
X176755681Y-91747334D01*
X176553231Y-92234885D01*
X176552771Y-92762798D01*
X176754369Y-93250703D01*
X177127334Y-93624319D01*
X177614885Y-93826769D01*
X178142798Y-93827229D01*
X178630703Y-93625631D01*
X179004319Y-93252666D01*
X179206769Y-92765115D01*
X179207229Y-92237202D01*
X179005631Y-91749297D01*
X178632666Y-91375681D01*
X178332000Y-91250833D01*
X178332000Y-89280000D01*
X178297594Y-89107027D01*
X178199612Y-88960388D01*
X173419612Y-84180388D01*
X173272973Y-84082406D01*
X173100000Y-84048000D01*
X148875927Y-84048000D01*
X148926891Y-83925265D01*
X148927109Y-83675829D01*
X148831855Y-83445297D01*
X148752000Y-83365302D01*
X148752000Y-83183406D01*
X148950000Y-83183406D01*
X149074684Y-83159215D01*
X149184270Y-83087229D01*
X149257625Y-82978555D01*
X149274763Y-82893093D01*
X176222796Y-82893093D01*
X176401606Y-83325846D01*
X176732412Y-83657230D01*
X177164853Y-83836795D01*
X177633093Y-83837204D01*
X178065846Y-83658394D01*
X178397230Y-83327588D01*
X178576795Y-82895147D01*
X178577204Y-82426907D01*
X178398394Y-81994154D01*
X178067588Y-81662770D01*
X177635147Y-81483205D01*
X177166907Y-81482796D01*
X176734154Y-81661606D01*
X176402770Y-81992412D01*
X176223205Y-82424853D01*
X176222796Y-82893093D01*
X149274763Y-82893093D01*
X149283406Y-82850000D01*
X149283406Y-82552000D01*
X150294377Y-82552000D01*
X150474735Y-82626891D01*
X150724171Y-82627109D01*
X150954703Y-82531855D01*
X151131235Y-82355631D01*
X151226891Y-82125265D01*
X151226891Y-82124171D01*
X154672891Y-82124171D01*
X154768145Y-82354703D01*
X154944369Y-82531235D01*
X155174735Y-82626891D01*
X155424171Y-82627109D01*
X155654703Y-82531855D01*
X155734698Y-82452000D01*
X156266982Y-82452000D01*
X156290785Y-82574684D01*
X156362771Y-82684270D01*
X156471445Y-82757625D01*
X156600000Y-82783406D01*
X157100000Y-82783406D01*
X157224684Y-82759215D01*
X157334270Y-82687229D01*
X157407625Y-82578555D01*
X157433406Y-82450000D01*
X157433406Y-81550000D01*
X157409215Y-81425316D01*
X157337229Y-81315730D01*
X157228555Y-81242375D01*
X157100000Y-81216594D01*
X156600000Y-81216594D01*
X156475316Y-81240785D01*
X156365730Y-81312771D01*
X156292375Y-81421445D01*
X156266995Y-81548000D01*
X155734728Y-81548000D01*
X155655631Y-81468765D01*
X155425265Y-81373109D01*
X155175829Y-81372891D01*
X154945297Y-81468145D01*
X154768765Y-81644369D01*
X154673109Y-81874735D01*
X154672891Y-82124171D01*
X151226891Y-82124171D01*
X151227109Y-81875829D01*
X151131855Y-81645297D01*
X150955631Y-81468765D01*
X150725265Y-81373109D01*
X150475829Y-81372891D01*
X150245297Y-81468145D01*
X150068765Y-81644369D01*
X150067257Y-81648000D01*
X149283406Y-81648000D01*
X149283406Y-81350000D01*
X149259215Y-81225316D01*
X149187229Y-81115730D01*
X149078555Y-81042375D01*
X148966646Y-81019932D01*
X149131235Y-80855631D01*
X149132743Y-80852000D01*
X149613112Y-80852000D01*
X149621445Y-80857625D01*
X149750000Y-80883406D01*
X151250000Y-80883406D01*
X151374684Y-80859215D01*
X151385668Y-80852000D01*
X152971832Y-80852000D01*
X152990785Y-80949684D01*
X153062771Y-81059270D01*
X153171445Y-81132625D01*
X153300000Y-81158406D01*
X154100000Y-81158406D01*
X154224684Y-81134215D01*
X154334270Y-81062229D01*
X154407625Y-80953555D01*
X154433406Y-80825000D01*
X154433406Y-80075000D01*
X154409215Y-79950316D01*
X154337229Y-79840730D01*
X154228555Y-79767375D01*
X154100000Y-79741594D01*
X153300000Y-79741594D01*
X153175316Y-79765785D01*
X153065730Y-79837771D01*
X152992375Y-79946445D01*
X152992063Y-79948000D01*
X151583406Y-79948000D01*
X151583406Y-79750000D01*
X151563683Y-79648346D01*
X151583406Y-79550000D01*
X151583406Y-79250000D01*
X151563683Y-79148346D01*
X151583406Y-79050000D01*
X151583406Y-78750000D01*
X151563683Y-78648346D01*
X151583406Y-78550000D01*
X151583406Y-78250000D01*
X151563683Y-78148346D01*
X151583406Y-78050000D01*
X151583406Y-77750000D01*
X151563683Y-77648346D01*
X151583406Y-77550000D01*
X151583406Y-77250000D01*
X151563683Y-77148346D01*
X151583406Y-77050000D01*
X151583406Y-76750000D01*
X151563683Y-76648346D01*
X151583406Y-76550000D01*
X151583406Y-76250000D01*
X151559215Y-76125316D01*
X151487229Y-76015730D01*
X151378555Y-75942375D01*
X151250000Y-75916594D01*
X149750000Y-75916594D01*
X149625316Y-75940785D01*
X149515730Y-76012771D01*
X149442375Y-76121445D01*
X149416594Y-76250000D01*
X149416594Y-76550000D01*
X149436317Y-76651654D01*
X149416594Y-76750000D01*
X149416594Y-77050000D01*
X149436317Y-77151654D01*
X149416594Y-77250000D01*
X149416594Y-77550000D01*
X149436317Y-77651654D01*
X149416594Y-77750000D01*
X149416594Y-78050000D01*
X149436317Y-78151654D01*
X149416594Y-78250000D01*
X149416594Y-78550000D01*
X149436317Y-78651654D01*
X149416594Y-78750000D01*
X149416594Y-79050000D01*
X149436317Y-79151654D01*
X149416594Y-79250000D01*
X149416594Y-79550000D01*
X149436317Y-79651654D01*
X149416594Y-79750000D01*
X149416594Y-79948000D01*
X149052000Y-79948000D01*
X149052000Y-76387224D01*
X149587224Y-75852000D01*
X149613112Y-75852000D01*
X149621445Y-75857625D01*
X149750000Y-75883406D01*
X151250000Y-75883406D01*
X151374684Y-75859215D01*
X151385668Y-75852000D01*
X153181533Y-75852000D01*
X153190785Y-75899684D01*
X153262771Y-76009270D01*
X153371445Y-76082625D01*
X153500000Y-76108406D01*
X154300000Y-76108406D01*
X154424684Y-76084215D01*
X154534270Y-76012229D01*
X154607625Y-75903555D01*
X154633406Y-75775000D01*
X154633406Y-75025000D01*
X154609215Y-74900316D01*
X154537229Y-74790730D01*
X154428555Y-74717375D01*
X154300000Y-74691594D01*
X153500000Y-74691594D01*
X153375316Y-74715785D01*
X153265730Y-74787771D01*
X153192375Y-74896445D01*
X153182036Y-74948000D01*
X151386888Y-74948000D01*
X151378555Y-74942375D01*
X151250000Y-74916594D01*
X149750000Y-74916594D01*
X149625316Y-74940785D01*
X149614332Y-74948000D01*
X149400000Y-74948000D01*
X149252000Y-74977439D01*
X149252000Y-67586888D01*
X149257625Y-67578555D01*
X149283406Y-67450000D01*
X149283406Y-67152000D01*
X151881533Y-67152000D01*
X151890785Y-67199684D01*
X151962771Y-67309270D01*
X152071445Y-67382625D01*
X152200000Y-67408406D01*
X153000000Y-67408406D01*
X153124684Y-67384215D01*
X153234270Y-67312229D01*
X153307625Y-67203555D01*
X153333406Y-67075000D01*
X153333406Y-66325000D01*
X153309215Y-66200316D01*
X153237229Y-66090730D01*
X153128555Y-66017375D01*
X153000000Y-65991594D01*
X152200000Y-65991594D01*
X152075316Y-66015785D01*
X151965730Y-66087771D01*
X151892375Y-66196445D01*
X151882036Y-66248000D01*
X149283406Y-66248000D01*
X149283406Y-65950000D01*
X149259215Y-65825316D01*
X149187229Y-65715730D01*
X149078555Y-65642375D01*
X148950000Y-65616594D01*
X148650000Y-65616594D01*
X148548346Y-65636317D01*
X148450000Y-65616594D01*
X148150000Y-65616594D01*
X148048346Y-65636317D01*
X147950000Y-65616594D01*
X147650000Y-65616594D01*
X147548346Y-65636317D01*
X147450000Y-65616594D01*
X147150000Y-65616594D01*
X147048346Y-65636317D01*
X146950000Y-65616594D01*
X146650000Y-65616594D01*
X146548346Y-65636317D01*
X146450000Y-65616594D01*
X146150000Y-65616594D01*
X146048346Y-65636317D01*
X145950000Y-65616594D01*
X145752000Y-65616594D01*
X145752000Y-64137224D01*
X146137224Y-63752000D01*
X150000000Y-63752000D01*
X150172973Y-63717594D01*
X150319612Y-63619612D01*
X152137225Y-61802000D01*
X152215104Y-61802000D01*
X152215104Y-62400290D01*
X152239295Y-62524974D01*
X152311281Y-62634560D01*
X152419955Y-62707915D01*
X152548510Y-62733696D01*
X158149210Y-62733696D01*
X158273894Y-62709505D01*
X158301890Y-62691114D01*
X158941594Y-63330818D01*
X158941594Y-63800000D01*
X158965785Y-63924684D01*
X159037771Y-64034270D01*
X159146445Y-64107625D01*
X159275000Y-64133406D01*
X160025000Y-64133406D01*
X160149684Y-64109215D01*
X160259270Y-64037229D01*
X160332625Y-63928555D01*
X160358406Y-63800000D01*
X160358406Y-63000000D01*
X160334215Y-62875316D01*
X160262229Y-62765730D01*
X160153555Y-62692375D01*
X160025000Y-62666594D01*
X159555818Y-62666594D01*
X158482616Y-61593392D01*
X158482616Y-60299710D01*
X158458425Y-60175026D01*
X158386439Y-60065440D01*
X158277765Y-59992085D01*
X158149210Y-59966304D01*
X152548510Y-59966304D01*
X152423826Y-59990495D01*
X152314240Y-60062481D01*
X152240885Y-60171155D01*
X152215104Y-60299710D01*
X152215104Y-60898000D01*
X151950000Y-60898000D01*
X151777027Y-60932406D01*
X151630387Y-61030388D01*
X149812776Y-62848000D01*
X145950000Y-62848000D01*
X145777027Y-62882406D01*
X145630388Y-62980388D01*
X145252000Y-63358776D01*
X145252000Y-62733696D01*
X148451490Y-62733696D01*
X148576174Y-62709505D01*
X148685760Y-62637519D01*
X148759115Y-62528845D01*
X148784896Y-62400290D01*
X148784896Y-60299710D01*
X148760705Y-60175026D01*
X148688719Y-60065440D01*
X148580045Y-59992085D01*
X148451490Y-59966304D01*
X144906668Y-59966304D01*
X144520752Y-59580388D01*
X144374113Y-59482406D01*
X144201140Y-59448000D01*
X142068467Y-59448000D01*
X142064392Y-59427000D01*
X158557446Y-59427000D01*
X161373000Y-62242554D01*
X161373000Y-69564893D01*
X161166440Y-69650242D01*
X160652048Y-70163736D01*
X160373318Y-70834993D01*
X160372684Y-71561818D01*
X160493542Y-71854318D01*
X156719612Y-68080388D01*
X156572973Y-67982406D01*
X156400000Y-67948000D01*
X151386888Y-67948000D01*
X151378555Y-67942375D01*
X151250000Y-67916594D01*
X149750000Y-67916594D01*
X149625316Y-67940785D01*
X149515730Y-68012771D01*
X149442375Y-68121445D01*
X149416594Y-68250000D01*
X149416594Y-68550000D01*
X149436317Y-68651654D01*
X149416594Y-68750000D01*
X149416594Y-69050000D01*
X149436317Y-69151654D01*
X149416594Y-69250000D01*
X149416594Y-69550000D01*
X149436317Y-69651654D01*
X149416594Y-69750000D01*
X149416594Y-70050000D01*
X149436317Y-70151654D01*
X149416594Y-70250000D01*
X149416594Y-70550000D01*
X149436317Y-70651654D01*
X149416594Y-70750000D01*
X149416594Y-71050000D01*
X149436317Y-71151654D01*
X149416594Y-71250000D01*
X149416594Y-71550000D01*
X149436317Y-71651654D01*
X149416594Y-71750000D01*
X149416594Y-72050000D01*
X149436317Y-72151654D01*
X149416594Y-72250000D01*
X149416594Y-72550000D01*
X149436317Y-72651654D01*
X149416594Y-72750000D01*
X149416594Y-73050000D01*
X149436317Y-73151654D01*
X149416594Y-73250000D01*
X149416594Y-73550000D01*
X149436317Y-73651654D01*
X149416594Y-73750000D01*
X149416594Y-74050000D01*
X149436317Y-74151654D01*
X149416594Y-74250000D01*
X149416594Y-74550000D01*
X149440785Y-74674684D01*
X149512771Y-74784270D01*
X149621445Y-74857625D01*
X149750000Y-74883406D01*
X151250000Y-74883406D01*
X151374684Y-74859215D01*
X151385668Y-74852000D01*
X152100000Y-74852000D01*
X152272973Y-74817594D01*
X152419612Y-74719612D01*
X153330818Y-73808406D01*
X154150000Y-73808406D01*
X154274684Y-73784215D01*
X154384270Y-73712229D01*
X154457625Y-73603555D01*
X154483406Y-73475000D01*
X154483406Y-72225000D01*
X154459215Y-72100316D01*
X154387229Y-71990730D01*
X154278555Y-71917375D01*
X154150000Y-71891594D01*
X153150000Y-71891594D01*
X153025316Y-71915785D01*
X152915730Y-71987771D01*
X152842375Y-72096445D01*
X152816594Y-72225000D01*
X152816594Y-73044182D01*
X151912776Y-73948000D01*
X151583406Y-73948000D01*
X151583406Y-73750000D01*
X151563683Y-73648346D01*
X151583406Y-73550000D01*
X151583406Y-73250000D01*
X151563683Y-73148346D01*
X151583406Y-73050000D01*
X151583406Y-72750000D01*
X151563683Y-72648346D01*
X151583406Y-72550000D01*
X151583406Y-72250000D01*
X151563683Y-72148346D01*
X151583406Y-72050000D01*
X151583406Y-71750000D01*
X151563683Y-71648346D01*
X151583406Y-71550000D01*
X151583406Y-71250000D01*
X151563683Y-71148346D01*
X151583406Y-71050000D01*
X151583406Y-70750000D01*
X151563683Y-70648346D01*
X151583406Y-70550000D01*
X151583406Y-70250000D01*
X151563683Y-70148346D01*
X151583406Y-70050000D01*
X151583406Y-69750000D01*
X151563683Y-69648346D01*
X151583406Y-69550000D01*
X151583406Y-69352000D01*
X155712776Y-69352000D01*
X160880388Y-74519612D01*
X161027027Y-74617594D01*
X161200000Y-74652000D01*
X163800000Y-74652000D01*
X163972973Y-74617594D01*
X164119612Y-74519612D01*
X167619612Y-71019613D01*
X167717594Y-70872973D01*
X167724514Y-70838182D01*
X167752000Y-70700000D01*
X167752000Y-67893093D01*
X176222796Y-67893093D01*
X176401606Y-68325846D01*
X176732412Y-68657230D01*
X177164853Y-68836795D01*
X177633093Y-68837204D01*
X178065846Y-68658394D01*
X178397230Y-68327588D01*
X178576795Y-67895147D01*
X178577204Y-67426907D01*
X178398394Y-66994154D01*
X178067588Y-66662770D01*
X177635147Y-66483205D01*
X177166907Y-66482796D01*
X176734154Y-66661606D01*
X176402770Y-66992412D01*
X176223205Y-67424853D01*
X176222796Y-67893093D01*
X167752000Y-67893093D01*
X167752000Y-62649052D01*
X168050703Y-62525631D01*
X168424319Y-62152666D01*
X168626769Y-61665115D01*
X168627229Y-61137202D01*
X168562945Y-60981622D01*
X176072666Y-60981622D01*
X176365416Y-61690132D01*
X176907017Y-62232678D01*
X177615014Y-62526665D01*
X178381622Y-62527334D01*
X179090132Y-62234584D01*
X179632678Y-61692983D01*
X179926665Y-60984986D01*
X179927334Y-60218378D01*
X179634584Y-59509868D01*
X179092983Y-58967322D01*
X178384986Y-58673335D01*
X177618378Y-58672666D01*
X176909868Y-58965416D01*
X176367322Y-59507017D01*
X176073335Y-60215014D01*
X176072666Y-60981622D01*
X168562945Y-60981622D01*
X168425631Y-60649297D01*
X168052666Y-60275681D01*
X167565115Y-60073231D01*
X167037202Y-60072771D01*
X166549297Y-60274369D01*
X166175681Y-60647334D01*
X166029891Y-60998433D01*
X165885631Y-60649297D01*
X165512666Y-60275681D01*
X165025115Y-60073231D01*
X164497202Y-60072771D01*
X164009297Y-60274369D01*
X163635681Y-60647334D01*
X163433231Y-61134885D01*
X163432771Y-61662798D01*
X163634369Y-62150703D01*
X164007334Y-62524319D01*
X164308000Y-62649167D01*
X164308000Y-71752775D01*
X162912776Y-73148000D01*
X161787225Y-73148000D01*
X161545840Y-72906615D01*
X161834993Y-73026682D01*
X162561818Y-73027316D01*
X163233560Y-72749758D01*
X163747952Y-72236264D01*
X164026682Y-71565007D01*
X164027316Y-70838182D01*
X163749758Y-70166440D01*
X163236264Y-69652048D01*
X163027000Y-69565154D01*
X163027000Y-61900000D01*
X162964048Y-61583521D01*
X162784777Y-61315223D01*
X159484777Y-58015223D01*
X159427572Y-57977000D01*
X180623000Y-57977000D01*
X180623000Y-107223000D01*
X165746224Y-107223000D01*
X167451612Y-105517612D01*
X167519784Y-105415586D01*
X167882703Y-105265631D01*
X168256319Y-104892666D01*
X168458769Y-104405115D01*
X168458771Y-104402798D01*
X170884771Y-104402798D01*
X171086369Y-104890703D01*
X171459334Y-105264319D01*
X171946885Y-105466769D01*
X172474798Y-105467229D01*
X172962703Y-105265631D01*
X173247207Y-104981622D01*
X176072666Y-104981622D01*
X176365416Y-105690132D01*
X176907017Y-106232678D01*
X177615014Y-106526665D01*
X178381622Y-106527334D01*
X179090132Y-106234584D01*
X179632678Y-105692983D01*
X179926665Y-104984986D01*
X179927334Y-104218378D01*
X179634584Y-103509868D01*
X179092983Y-102967322D01*
X178384986Y-102673335D01*
X177618378Y-102672666D01*
X176909868Y-102965416D01*
X176367322Y-103507017D01*
X176073335Y-104215014D01*
X176072666Y-104981622D01*
X173247207Y-104981622D01*
X173336319Y-104892666D01*
X173538769Y-104405115D01*
X173539229Y-103877202D01*
X173337631Y-103389297D01*
X172964666Y-103015681D01*
X172477115Y-102813231D01*
X171949202Y-102812771D01*
X171461297Y-103014369D01*
X171087681Y-103387334D01*
X170885231Y-103874885D01*
X170884771Y-104402798D01*
X168458771Y-104402798D01*
X168459229Y-103877202D01*
X168257631Y-103389297D01*
X167884666Y-103015681D01*
X167397115Y-102813231D01*
X166869202Y-102812771D01*
X166381297Y-103014369D01*
X166007681Y-103387334D01*
X165861891Y-103738433D01*
X165717631Y-103389297D01*
X165344666Y-103015681D01*
X164857115Y-102813231D01*
X164329202Y-102812771D01*
X163841297Y-103014369D01*
X163467681Y-103387334D01*
X163265231Y-103874885D01*
X163264771Y-104402798D01*
X163466369Y-104890703D01*
X163839334Y-105264319D01*
X163872631Y-105278145D01*
X162902778Y-106247998D01*
X152221226Y-106247998D01*
X153166399Y-105302826D01*
X153464885Y-105426769D01*
X153992798Y-105427229D01*
X154480703Y-105225631D01*
X154854319Y-104852666D01*
X155056769Y-104365115D01*
X155056771Y-104362798D01*
X157482771Y-104362798D01*
X157684369Y-104850703D01*
X158057334Y-105224319D01*
X158544885Y-105426769D01*
X159072798Y-105427229D01*
X159560703Y-105225631D01*
X159934319Y-104852666D01*
X160136769Y-104365115D01*
X160137229Y-103837202D01*
X159935631Y-103349297D01*
X159562666Y-102975681D01*
X159075115Y-102773231D01*
X158547202Y-102772771D01*
X158059297Y-102974369D01*
X157685681Y-103347334D01*
X157483231Y-103834885D01*
X157482771Y-104362798D01*
X155056771Y-104362798D01*
X155057229Y-103837202D01*
X154855631Y-103349297D01*
X154482666Y-102975681D01*
X153995115Y-102773231D01*
X153467202Y-102772771D01*
X152979297Y-102974369D01*
X152605681Y-103347334D01*
X152459891Y-103698433D01*
X152315631Y-103349297D01*
X151942666Y-102975681D01*
X151455115Y-102773231D01*
X150927202Y-102772771D01*
X150439297Y-102974369D01*
X150065681Y-103347334D01*
X149863231Y-103834885D01*
X149862771Y-104362798D01*
X149987094Y-104663682D01*
X149302782Y-105347994D01*
X144460017Y-105347994D01*
X143252000Y-104139978D01*
X143252000Y-102483406D01*
X143450000Y-102483406D01*
X143574684Y-102459215D01*
X143684270Y-102387229D01*
X143757625Y-102278555D01*
X143783406Y-102150000D01*
X143783406Y-101852000D01*
X144731533Y-101852000D01*
X144740785Y-101899684D01*
X144812771Y-102009270D01*
X144921445Y-102082625D01*
X145050000Y-102108406D01*
X145850000Y-102108406D01*
X145974684Y-102084215D01*
X146084270Y-102012229D01*
X146157625Y-101903555D01*
X146183406Y-101775000D01*
X146183406Y-101025000D01*
X146159215Y-100900316D01*
X146087229Y-100790730D01*
X145978555Y-100717375D01*
X145850000Y-100691594D01*
X145050000Y-100691594D01*
X144925316Y-100715785D01*
X144815730Y-100787771D01*
X144742375Y-100896445D01*
X144732036Y-100948000D01*
X143783406Y-100948000D01*
X143783406Y-100650000D01*
X143759215Y-100525316D01*
X143752000Y-100514332D01*
X143752000Y-94550000D01*
X143916594Y-94550000D01*
X143916594Y-94850000D01*
X143936317Y-94951654D01*
X143916594Y-95050000D01*
X143916594Y-95350000D01*
X143936317Y-95451654D01*
X143916594Y-95550000D01*
X143916594Y-95850000D01*
X143936317Y-95951654D01*
X143916594Y-96050000D01*
X143916594Y-96350000D01*
X143936317Y-96451654D01*
X143916594Y-96550000D01*
X143916594Y-96850000D01*
X143936317Y-96951654D01*
X143916594Y-97050000D01*
X143916594Y-97350000D01*
X143936317Y-97451654D01*
X143916594Y-97550000D01*
X143916594Y-97850000D01*
X143936317Y-97951654D01*
X143916594Y-98050000D01*
X143916594Y-98350000D01*
X143936317Y-98451654D01*
X143916594Y-98550000D01*
X143916594Y-98850000D01*
X143936317Y-98951654D01*
X143916594Y-99050000D01*
X143916594Y-99350000D01*
X143936317Y-99451654D01*
X143916594Y-99550000D01*
X143916594Y-99850000D01*
X143940785Y-99974684D01*
X144012771Y-100084270D01*
X144121445Y-100157625D01*
X144250000Y-100183406D01*
X145750000Y-100183406D01*
X145874684Y-100159215D01*
X145984270Y-100087229D01*
X146057625Y-99978555D01*
X146083406Y-99850000D01*
X146083406Y-99550000D01*
X146063683Y-99448346D01*
X146083406Y-99350000D01*
X146083406Y-99050000D01*
X146063683Y-98948346D01*
X146083406Y-98850000D01*
X146083406Y-98550000D01*
X146063683Y-98448346D01*
X146083406Y-98350000D01*
X146083406Y-98152000D01*
X148712776Y-98152000D01*
X149180388Y-98619612D01*
X149327027Y-98717594D01*
X149500000Y-98752000D01*
X164460000Y-98752000D01*
X164632973Y-98717594D01*
X164779612Y-98619612D01*
X169696399Y-93702826D01*
X169994885Y-93826769D01*
X170522798Y-93827229D01*
X171010703Y-93625631D01*
X171384319Y-93252666D01*
X171530109Y-92901567D01*
X171674369Y-93250703D01*
X172047334Y-93624319D01*
X172534885Y-93826769D01*
X173062798Y-93827229D01*
X173550703Y-93625631D01*
X173924319Y-93252666D01*
X174126769Y-92765115D01*
X174127229Y-92237202D01*
X173925631Y-91749297D01*
X173552666Y-91375681D01*
X173065115Y-91173231D01*
X172537202Y-91172771D01*
X172049297Y-91374369D01*
X171675681Y-91747334D01*
X171529891Y-92098433D01*
X171385631Y-91749297D01*
X171012666Y-91375681D01*
X170525115Y-91173231D01*
X169997202Y-91172771D01*
X169509297Y-91374369D01*
X169135681Y-91747334D01*
X168989891Y-92098433D01*
X168845631Y-91749297D01*
X168472666Y-91375681D01*
X167985115Y-91173231D01*
X167457202Y-91172771D01*
X166969297Y-91374369D01*
X166595681Y-91747334D01*
X166393231Y-92234885D01*
X166392771Y-92762798D01*
X166517094Y-93063682D01*
X162232776Y-97348000D01*
X157533406Y-97348000D01*
X157533406Y-96550000D01*
X157509215Y-96425316D01*
X157437229Y-96315730D01*
X157328555Y-96242375D01*
X157200000Y-96216594D01*
X156700000Y-96216594D01*
X156575316Y-96240785D01*
X156465730Y-96312771D01*
X156392375Y-96421445D01*
X156366995Y-96548000D01*
X156132972Y-96548000D01*
X156131855Y-96545297D01*
X155955631Y-96368765D01*
X155725265Y-96273109D01*
X155475829Y-96272891D01*
X155245297Y-96368145D01*
X155068765Y-96544369D01*
X154973109Y-96774735D01*
X154972891Y-97024171D01*
X155068145Y-97254703D01*
X155161279Y-97348000D01*
X150387224Y-97348000D01*
X149919612Y-96880388D01*
X149772973Y-96782406D01*
X149600000Y-96748000D01*
X146083406Y-96748000D01*
X146083406Y-96550000D01*
X146063683Y-96448346D01*
X146083406Y-96350000D01*
X146083406Y-96050000D01*
X146063683Y-95948346D01*
X146083406Y-95850000D01*
X146083406Y-95550000D01*
X146063683Y-95448346D01*
X146083406Y-95350000D01*
X146083406Y-95152000D01*
X146265272Y-95152000D01*
X146344369Y-95231235D01*
X146574735Y-95326891D01*
X146824171Y-95327109D01*
X147054703Y-95231855D01*
X147231235Y-95055631D01*
X147326891Y-94825265D01*
X147327109Y-94575829D01*
X147231855Y-94345297D01*
X147055631Y-94168765D01*
X146825265Y-94073109D01*
X146575829Y-94072891D01*
X146345297Y-94168145D01*
X146265302Y-94248000D01*
X145886888Y-94248000D01*
X145878555Y-94242375D01*
X145750000Y-94216594D01*
X144250000Y-94216594D01*
X144125316Y-94240785D01*
X144015730Y-94312771D01*
X143942375Y-94421445D01*
X143916594Y-94550000D01*
X143752000Y-94550000D01*
X143752000Y-92550000D01*
X143916594Y-92550000D01*
X143916594Y-92850000D01*
X143936317Y-92951654D01*
X143916594Y-93050000D01*
X143916594Y-93350000D01*
X143940785Y-93474684D01*
X144012771Y-93584270D01*
X144121445Y-93657625D01*
X144250000Y-93683406D01*
X145750000Y-93683406D01*
X145874684Y-93659215D01*
X145984270Y-93587229D01*
X146057625Y-93478555D01*
X146083406Y-93350000D01*
X146083406Y-93050000D01*
X146063683Y-92948346D01*
X146083406Y-92850000D01*
X146083406Y-92550000D01*
X146059215Y-92425316D01*
X145987229Y-92315730D01*
X145878555Y-92242375D01*
X145750000Y-92216594D01*
X144250000Y-92216594D01*
X144125316Y-92240785D01*
X144015730Y-92312771D01*
X143942375Y-92421445D01*
X143916594Y-92550000D01*
X143752000Y-92550000D01*
X143752000Y-87550000D01*
X143916594Y-87550000D01*
X143916594Y-87850000D01*
X143936317Y-87951654D01*
X143916594Y-88050000D01*
X143916594Y-88350000D01*
X143936317Y-88451654D01*
X143916594Y-88550000D01*
X143916594Y-88850000D01*
X143936317Y-88951654D01*
X143916594Y-89050000D01*
X143916594Y-89350000D01*
X143936317Y-89451654D01*
X143916594Y-89550000D01*
X143916594Y-89850000D01*
X143936317Y-89951654D01*
X143916594Y-90050000D01*
X143916594Y-90350000D01*
X143936317Y-90451654D01*
X143916594Y-90550000D01*
X143916594Y-90850000D01*
X143936317Y-90951654D01*
X143916594Y-91050000D01*
X143916594Y-91350000D01*
X143936317Y-91451654D01*
X143916594Y-91550000D01*
X143916594Y-91850000D01*
X143940785Y-91974684D01*
X144012771Y-92084270D01*
X144121445Y-92157625D01*
X144250000Y-92183406D01*
X145750000Y-92183406D01*
X145874684Y-92159215D01*
X145984270Y-92087229D01*
X146057625Y-91978555D01*
X146083406Y-91850000D01*
X146083406Y-91652000D01*
X146612776Y-91652000D01*
X150248000Y-95287224D01*
X150248000Y-96265272D01*
X150168765Y-96344369D01*
X150073109Y-96574735D01*
X150072891Y-96824171D01*
X150168145Y-97054703D01*
X150344369Y-97231235D01*
X150574735Y-97326891D01*
X150824171Y-97327109D01*
X151054703Y-97231855D01*
X151231235Y-97055631D01*
X151326891Y-96825265D01*
X151327109Y-96575829D01*
X151231855Y-96345297D01*
X151152000Y-96265302D01*
X151152000Y-95100000D01*
X151117594Y-94927027D01*
X151019612Y-94780388D01*
X150566195Y-94326971D01*
X150724171Y-94327109D01*
X150954703Y-94231855D01*
X151131235Y-94055631D01*
X151144298Y-94024171D01*
X154772891Y-94024171D01*
X154868145Y-94254703D01*
X155044369Y-94431235D01*
X155274735Y-94526891D01*
X155524171Y-94527109D01*
X155705948Y-94452000D01*
X156366982Y-94452000D01*
X156390785Y-94574684D01*
X156462771Y-94684270D01*
X156571445Y-94757625D01*
X156700000Y-94783406D01*
X157200000Y-94783406D01*
X157324684Y-94759215D01*
X157434270Y-94687229D01*
X157507625Y-94578555D01*
X157533406Y-94450000D01*
X157533406Y-93550000D01*
X157509215Y-93425316D01*
X157437229Y-93315730D01*
X157328555Y-93242375D01*
X157200000Y-93216594D01*
X156700000Y-93216594D01*
X156575316Y-93240785D01*
X156465730Y-93312771D01*
X156392375Y-93421445D01*
X156366995Y-93548000D01*
X155932972Y-93548000D01*
X155931855Y-93545297D01*
X155755631Y-93368765D01*
X155525265Y-93273109D01*
X155275829Y-93272891D01*
X155045297Y-93368145D01*
X154868765Y-93544369D01*
X154773109Y-93774735D01*
X154772891Y-94024171D01*
X151144298Y-94024171D01*
X151226891Y-93825265D01*
X151227109Y-93575829D01*
X151131855Y-93345297D01*
X150955631Y-93168765D01*
X150725265Y-93073109D01*
X150612234Y-93073010D01*
X148191224Y-90652000D01*
X149412776Y-90652000D01*
X149472989Y-90712213D01*
X149472891Y-90824171D01*
X149568145Y-91054703D01*
X149744369Y-91231235D01*
X149974735Y-91326891D01*
X150224171Y-91327109D01*
X150454703Y-91231855D01*
X150562575Y-91124171D01*
X154872891Y-91124171D01*
X154968145Y-91354703D01*
X155144369Y-91531235D01*
X155374735Y-91626891D01*
X155624171Y-91627109D01*
X155854703Y-91531855D01*
X155934698Y-91452000D01*
X156366982Y-91452000D01*
X156390785Y-91574684D01*
X156462771Y-91684270D01*
X156571445Y-91757625D01*
X156700000Y-91783406D01*
X157200000Y-91783406D01*
X157324684Y-91759215D01*
X157434270Y-91687229D01*
X157507625Y-91578555D01*
X157533406Y-91450000D01*
X157533406Y-90550000D01*
X157509215Y-90425316D01*
X157437229Y-90315730D01*
X157328555Y-90242375D01*
X157200000Y-90216594D01*
X156700000Y-90216594D01*
X156575316Y-90240785D01*
X156465730Y-90312771D01*
X156392375Y-90421445D01*
X156366995Y-90548000D01*
X155934728Y-90548000D01*
X155855631Y-90468765D01*
X155625265Y-90373109D01*
X155375829Y-90372891D01*
X155145297Y-90468145D01*
X154968765Y-90644369D01*
X154873109Y-90874735D01*
X154872891Y-91124171D01*
X150562575Y-91124171D01*
X150631235Y-91055631D01*
X150726891Y-90825265D01*
X150727109Y-90575829D01*
X150631855Y-90345297D01*
X150455631Y-90168765D01*
X150225265Y-90073109D01*
X150112234Y-90073010D01*
X149919612Y-89880388D01*
X149772973Y-89782406D01*
X149600000Y-89748000D01*
X147691224Y-89748000D01*
X149287224Y-88152000D01*
X149565272Y-88152000D01*
X149644369Y-88231235D01*
X149874735Y-88326891D01*
X150124171Y-88327109D01*
X150354703Y-88231855D01*
X150531235Y-88055631D01*
X150626891Y-87825265D01*
X150626891Y-87824171D01*
X154972891Y-87824171D01*
X155068145Y-88054703D01*
X155244369Y-88231235D01*
X155474735Y-88326891D01*
X155591434Y-88326993D01*
X155727027Y-88417594D01*
X155900000Y-88452000D01*
X156366982Y-88452000D01*
X156390785Y-88574684D01*
X156462771Y-88684270D01*
X156571445Y-88757625D01*
X156700000Y-88783406D01*
X157200000Y-88783406D01*
X157324684Y-88759215D01*
X157434270Y-88687229D01*
X157507625Y-88578555D01*
X157533406Y-88450000D01*
X157533406Y-87550000D01*
X157509215Y-87425316D01*
X157437229Y-87315730D01*
X157328555Y-87242375D01*
X157200000Y-87216594D01*
X156700000Y-87216594D01*
X156575316Y-87240785D01*
X156465730Y-87312771D01*
X156392375Y-87421445D01*
X156366995Y-87548000D01*
X156215610Y-87548000D01*
X156131855Y-87345297D01*
X155955631Y-87168765D01*
X155725265Y-87073109D01*
X155475829Y-87072891D01*
X155245297Y-87168145D01*
X155068765Y-87344369D01*
X154973109Y-87574735D01*
X154972891Y-87824171D01*
X150626891Y-87824171D01*
X150627109Y-87575829D01*
X150531855Y-87345297D01*
X150355631Y-87168765D01*
X150125265Y-87073109D01*
X149875829Y-87072891D01*
X149645297Y-87168145D01*
X149565302Y-87248000D01*
X149100000Y-87248000D01*
X148927027Y-87282406D01*
X148780388Y-87380388D01*
X146912776Y-89248000D01*
X146083406Y-89248000D01*
X146083406Y-89050000D01*
X146063683Y-88948346D01*
X146083406Y-88850000D01*
X146083406Y-88550000D01*
X146063683Y-88448346D01*
X146083406Y-88350000D01*
X146083406Y-88050000D01*
X146063683Y-87948346D01*
X146083406Y-87850000D01*
X146083406Y-87550000D01*
X146059215Y-87425316D01*
X145987229Y-87315730D01*
X145878555Y-87242375D01*
X145750000Y-87216594D01*
X144250000Y-87216594D01*
X144125316Y-87240785D01*
X144015730Y-87312771D01*
X143942375Y-87421445D01*
X143916594Y-87550000D01*
X143752000Y-87550000D01*
X143752000Y-86886888D01*
X143757625Y-86878555D01*
X143757625Y-86878555D01*
G37*
X143757625Y-86878555D02*
X143783406Y-86750000D01*
X143783406Y-86155818D01*
X144037225Y-85902000D01*
X146281533Y-85902000D01*
X146290785Y-85949684D01*
X146362771Y-86059270D01*
X146471445Y-86132625D01*
X146600000Y-86158406D01*
X147400000Y-86158406D01*
X147524684Y-86134215D01*
X147634270Y-86062229D01*
X147707625Y-85953555D01*
X147733406Y-85825000D01*
X147733406Y-85075000D01*
X147709542Y-84952000D01*
X155184371Y-84952000D01*
X155145297Y-84968145D01*
X154968765Y-85144369D01*
X154873109Y-85374735D01*
X154872891Y-85624171D01*
X154968145Y-85854703D01*
X155144369Y-86031235D01*
X155374735Y-86126891D01*
X155624171Y-86127109D01*
X155805948Y-86052000D01*
X156266982Y-86052000D01*
X156290785Y-86174684D01*
X156362771Y-86284270D01*
X156471445Y-86357625D01*
X156600000Y-86383406D01*
X157100000Y-86383406D01*
X157224684Y-86359215D01*
X157334270Y-86287229D01*
X157407625Y-86178555D01*
X157433406Y-86050000D01*
X157433406Y-85150000D01*
X157409215Y-85025316D01*
X157361054Y-84952000D01*
X172912776Y-84952000D01*
X177428000Y-89467224D01*
X177428000Y-91250948D01*
X177129297Y-91374369D01*
X176755681Y-91747334D01*
X176553231Y-92234885D01*
X176552771Y-92762798D01*
X176754369Y-93250703D01*
X177127334Y-93624319D01*
X177614885Y-93826769D01*
X178142798Y-93827229D01*
X178630703Y-93625631D01*
X179004319Y-93252666D01*
X179206769Y-92765115D01*
X179207229Y-92237202D01*
X179005631Y-91749297D01*
X178632666Y-91375681D01*
X178332000Y-91250833D01*
X178332000Y-89280000D01*
X178297594Y-89107027D01*
X178199612Y-88960388D01*
X173419612Y-84180388D01*
X173272973Y-84082406D01*
X173100000Y-84048000D01*
X148875927Y-84048000D01*
X148926891Y-83925265D01*
X148927109Y-83675829D01*
X148831855Y-83445297D01*
X148752000Y-83365302D01*
X148752000Y-83183406D01*
X148950000Y-83183406D01*
X149074684Y-83159215D01*
X149184270Y-83087229D01*
X149257625Y-82978555D01*
X149274763Y-82893093D01*
X176222796Y-82893093D01*
X176401606Y-83325846D01*
X176732412Y-83657230D01*
X177164853Y-83836795D01*
X177633093Y-83837204D01*
X178065846Y-83658394D01*
X178397230Y-83327588D01*
X178576795Y-82895147D01*
X178577204Y-82426907D01*
X178398394Y-81994154D01*
X178067588Y-81662770D01*
X177635147Y-81483205D01*
X177166907Y-81482796D01*
X176734154Y-81661606D01*
X176402770Y-81992412D01*
X176223205Y-82424853D01*
X176222796Y-82893093D01*
X149274763Y-82893093D01*
X149283406Y-82850000D01*
X149283406Y-82552000D01*
X150294377Y-82552000D01*
X150474735Y-82626891D01*
X150724171Y-82627109D01*
X150954703Y-82531855D01*
X151131235Y-82355631D01*
X151226891Y-82125265D01*
X151226891Y-82124171D01*
X154672891Y-82124171D01*
X154768145Y-82354703D01*
X154944369Y-82531235D01*
X155174735Y-82626891D01*
X155424171Y-82627109D01*
X155654703Y-82531855D01*
X155734698Y-82452000D01*
X156266982Y-82452000D01*
X156290785Y-82574684D01*
X156362771Y-82684270D01*
X156471445Y-82757625D01*
X156600000Y-82783406D01*
X157100000Y-82783406D01*
X157224684Y-82759215D01*
X157334270Y-82687229D01*
X157407625Y-82578555D01*
X157433406Y-82450000D01*
X157433406Y-81550000D01*
X157409215Y-81425316D01*
X157337229Y-81315730D01*
X157228555Y-81242375D01*
X157100000Y-81216594D01*
X156600000Y-81216594D01*
X156475316Y-81240785D01*
X156365730Y-81312771D01*
X156292375Y-81421445D01*
X156266995Y-81548000D01*
X155734728Y-81548000D01*
X155655631Y-81468765D01*
X155425265Y-81373109D01*
X155175829Y-81372891D01*
X154945297Y-81468145D01*
X154768765Y-81644369D01*
X154673109Y-81874735D01*
X154672891Y-82124171D01*
X151226891Y-82124171D01*
X151227109Y-81875829D01*
X151131855Y-81645297D01*
X150955631Y-81468765D01*
X150725265Y-81373109D01*
X150475829Y-81372891D01*
X150245297Y-81468145D01*
X150068765Y-81644369D01*
X150067257Y-81648000D01*
X149283406Y-81648000D01*
X149283406Y-81350000D01*
X149259215Y-81225316D01*
X149187229Y-81115730D01*
X149078555Y-81042375D01*
X148966646Y-81019932D01*
X149131235Y-80855631D01*
X149132743Y-80852000D01*
X149613112Y-80852000D01*
X149621445Y-80857625D01*
X149750000Y-80883406D01*
X151250000Y-80883406D01*
X151374684Y-80859215D01*
X151385668Y-80852000D01*
X152971832Y-80852000D01*
X152990785Y-80949684D01*
X153062771Y-81059270D01*
X153171445Y-81132625D01*
X153300000Y-81158406D01*
X154100000Y-81158406D01*
X154224684Y-81134215D01*
X154334270Y-81062229D01*
X154407625Y-80953555D01*
X154433406Y-80825000D01*
X154433406Y-80075000D01*
X154409215Y-79950316D01*
X154337229Y-79840730D01*
X154228555Y-79767375D01*
X154100000Y-79741594D01*
X153300000Y-79741594D01*
X153175316Y-79765785D01*
X153065730Y-79837771D01*
X152992375Y-79946445D01*
X152992063Y-79948000D01*
X151583406Y-79948000D01*
X151583406Y-79750000D01*
X151563683Y-79648346D01*
X151583406Y-79550000D01*
X151583406Y-79250000D01*
X151563683Y-79148346D01*
X151583406Y-79050000D01*
X151583406Y-78750000D01*
X151563683Y-78648346D01*
X151583406Y-78550000D01*
X151583406Y-78250000D01*
X151563683Y-78148346D01*
X151583406Y-78050000D01*
X151583406Y-77750000D01*
X151563683Y-77648346D01*
X151583406Y-77550000D01*
X151583406Y-77250000D01*
X151563683Y-77148346D01*
X151583406Y-77050000D01*
X151583406Y-76750000D01*
X151563683Y-76648346D01*
X151583406Y-76550000D01*
X151583406Y-76250000D01*
X151559215Y-76125316D01*
X151487229Y-76015730D01*
X151378555Y-75942375D01*
X151250000Y-75916594D01*
X149750000Y-75916594D01*
X149625316Y-75940785D01*
X149515730Y-76012771D01*
X149442375Y-76121445D01*
X149416594Y-76250000D01*
X149416594Y-76550000D01*
X149436317Y-76651654D01*
X149416594Y-76750000D01*
X149416594Y-77050000D01*
X149436317Y-77151654D01*
X149416594Y-77250000D01*
X149416594Y-77550000D01*
X149436317Y-77651654D01*
X149416594Y-77750000D01*
X149416594Y-78050000D01*
X149436317Y-78151654D01*
X149416594Y-78250000D01*
X149416594Y-78550000D01*
X149436317Y-78651654D01*
X149416594Y-78750000D01*
X149416594Y-79050000D01*
X149436317Y-79151654D01*
X149416594Y-79250000D01*
X149416594Y-79550000D01*
X149436317Y-79651654D01*
X149416594Y-79750000D01*
X149416594Y-79948000D01*
X149052000Y-79948000D01*
X149052000Y-76387224D01*
X149587224Y-75852000D01*
X149613112Y-75852000D01*
X149621445Y-75857625D01*
X149750000Y-75883406D01*
X151250000Y-75883406D01*
X151374684Y-75859215D01*
X151385668Y-75852000D01*
X153181533Y-75852000D01*
X153190785Y-75899684D01*
X153262771Y-76009270D01*
X153371445Y-76082625D01*
X153500000Y-76108406D01*
X154300000Y-76108406D01*
X154424684Y-76084215D01*
X154534270Y-76012229D01*
X154607625Y-75903555D01*
X154633406Y-75775000D01*
X154633406Y-75025000D01*
X154609215Y-74900316D01*
X154537229Y-74790730D01*
X154428555Y-74717375D01*
X154300000Y-74691594D01*
X153500000Y-74691594D01*
X153375316Y-74715785D01*
X153265730Y-74787771D01*
X153192375Y-74896445D01*
X153182036Y-74948000D01*
X151386888Y-74948000D01*
X151378555Y-74942375D01*
X151250000Y-74916594D01*
X149750000Y-74916594D01*
X149625316Y-74940785D01*
X149614332Y-74948000D01*
X149400000Y-74948000D01*
X149252000Y-74977439D01*
X149252000Y-67586888D01*
X149257625Y-67578555D01*
X149283406Y-67450000D01*
X149283406Y-67152000D01*
X151881533Y-67152000D01*
X151890785Y-67199684D01*
X151962771Y-67309270D01*
X152071445Y-67382625D01*
X152200000Y-67408406D01*
X153000000Y-67408406D01*
X153124684Y-67384215D01*
X153234270Y-67312229D01*
X153307625Y-67203555D01*
X153333406Y-67075000D01*
X153333406Y-66325000D01*
X153309215Y-66200316D01*
X153237229Y-66090730D01*
X153128555Y-66017375D01*
X153000000Y-65991594D01*
X152200000Y-65991594D01*
X152075316Y-66015785D01*
X151965730Y-66087771D01*
X151892375Y-66196445D01*
X151882036Y-66248000D01*
X149283406Y-66248000D01*
X149283406Y-65950000D01*
X149259215Y-65825316D01*
X149187229Y-65715730D01*
X149078555Y-65642375D01*
X148950000Y-65616594D01*
X148650000Y-65616594D01*
X148548346Y-65636317D01*
X148450000Y-65616594D01*
X148150000Y-65616594D01*
X148048346Y-65636317D01*
X147950000Y-65616594D01*
X147650000Y-65616594D01*
X147548346Y-65636317D01*
X147450000Y-65616594D01*
X147150000Y-65616594D01*
X147048346Y-65636317D01*
X146950000Y-65616594D01*
X146650000Y-65616594D01*
X146548346Y-65636317D01*
X146450000Y-65616594D01*
X146150000Y-65616594D01*
X146048346Y-65636317D01*
X145950000Y-65616594D01*
X145752000Y-65616594D01*
X145752000Y-64137224D01*
X146137224Y-63752000D01*
X150000000Y-63752000D01*
X150172973Y-63717594D01*
X150319612Y-63619612D01*
X152137225Y-61802000D01*
X152215104Y-61802000D01*
X152215104Y-62400290D01*
X152239295Y-62524974D01*
X152311281Y-62634560D01*
X152419955Y-62707915D01*
X152548510Y-62733696D01*
X158149210Y-62733696D01*
X158273894Y-62709505D01*
X158301890Y-62691114D01*
X158941594Y-63330818D01*
X158941594Y-63800000D01*
X158965785Y-63924684D01*
X159037771Y-64034270D01*
X159146445Y-64107625D01*
X159275000Y-64133406D01*
X160025000Y-64133406D01*
X160149684Y-64109215D01*
X160259270Y-64037229D01*
X160332625Y-63928555D01*
X160358406Y-63800000D01*
X160358406Y-63000000D01*
X160334215Y-62875316D01*
X160262229Y-62765730D01*
X160153555Y-62692375D01*
X160025000Y-62666594D01*
X159555818Y-62666594D01*
X158482616Y-61593392D01*
X158482616Y-60299710D01*
X158458425Y-60175026D01*
X158386439Y-60065440D01*
X158277765Y-59992085D01*
X158149210Y-59966304D01*
X152548510Y-59966304D01*
X152423826Y-59990495D01*
X152314240Y-60062481D01*
X152240885Y-60171155D01*
X152215104Y-60299710D01*
X152215104Y-60898000D01*
X151950000Y-60898000D01*
X151777027Y-60932406D01*
X151630387Y-61030388D01*
X149812776Y-62848000D01*
X145950000Y-62848000D01*
X145777027Y-62882406D01*
X145630388Y-62980388D01*
X145252000Y-63358776D01*
X145252000Y-62733696D01*
X148451490Y-62733696D01*
X148576174Y-62709505D01*
X148685760Y-62637519D01*
X148759115Y-62528845D01*
X148784896Y-62400290D01*
X148784896Y-60299710D01*
X148760705Y-60175026D01*
X148688719Y-60065440D01*
X148580045Y-59992085D01*
X148451490Y-59966304D01*
X144906668Y-59966304D01*
X144520752Y-59580388D01*
X144374113Y-59482406D01*
X144201140Y-59448000D01*
X142068467Y-59448000D01*
X142064392Y-59427000D01*
X158557446Y-59427000D01*
X161373000Y-62242554D01*
X161373000Y-69564893D01*
X161166440Y-69650242D01*
X160652048Y-70163736D01*
X160373318Y-70834993D01*
X160372684Y-71561818D01*
X160493542Y-71854318D01*
X156719612Y-68080388D01*
X156572973Y-67982406D01*
X156400000Y-67948000D01*
X151386888Y-67948000D01*
X151378555Y-67942375D01*
X151250000Y-67916594D01*
X149750000Y-67916594D01*
X149625316Y-67940785D01*
X149515730Y-68012771D01*
X149442375Y-68121445D01*
X149416594Y-68250000D01*
X149416594Y-68550000D01*
X149436317Y-68651654D01*
X149416594Y-68750000D01*
X149416594Y-69050000D01*
X149436317Y-69151654D01*
X149416594Y-69250000D01*
X149416594Y-69550000D01*
X149436317Y-69651654D01*
X149416594Y-69750000D01*
X149416594Y-70050000D01*
X149436317Y-70151654D01*
X149416594Y-70250000D01*
X149416594Y-70550000D01*
X149436317Y-70651654D01*
X149416594Y-70750000D01*
X149416594Y-71050000D01*
X149436317Y-71151654D01*
X149416594Y-71250000D01*
X149416594Y-71550000D01*
X149436317Y-71651654D01*
X149416594Y-71750000D01*
X149416594Y-72050000D01*
X149436317Y-72151654D01*
X149416594Y-72250000D01*
X149416594Y-72550000D01*
X149436317Y-72651654D01*
X149416594Y-72750000D01*
X149416594Y-73050000D01*
X149436317Y-73151654D01*
X149416594Y-73250000D01*
X149416594Y-73550000D01*
X149436317Y-73651654D01*
X149416594Y-73750000D01*
X149416594Y-74050000D01*
X149436317Y-74151654D01*
X149416594Y-74250000D01*
X149416594Y-74550000D01*
X149440785Y-74674684D01*
X149512771Y-74784270D01*
X149621445Y-74857625D01*
X149750000Y-74883406D01*
X151250000Y-74883406D01*
X151374684Y-74859215D01*
X151385668Y-74852000D01*
X152100000Y-74852000D01*
X152272973Y-74817594D01*
X152419612Y-74719612D01*
X153330818Y-73808406D01*
X154150000Y-73808406D01*
X154274684Y-73784215D01*
X154384270Y-73712229D01*
X154457625Y-73603555D01*
X154483406Y-73475000D01*
X154483406Y-72225000D01*
X154459215Y-72100316D01*
X154387229Y-71990730D01*
X154278555Y-71917375D01*
X154150000Y-71891594D01*
X153150000Y-71891594D01*
X153025316Y-71915785D01*
X152915730Y-71987771D01*
X152842375Y-72096445D01*
X152816594Y-72225000D01*
X152816594Y-73044182D01*
X151912776Y-73948000D01*
X151583406Y-73948000D01*
X151583406Y-73750000D01*
X151563683Y-73648346D01*
X151583406Y-73550000D01*
X151583406Y-73250000D01*
X151563683Y-73148346D01*
X151583406Y-73050000D01*
X151583406Y-72750000D01*
X151563683Y-72648346D01*
X151583406Y-72550000D01*
X151583406Y-72250000D01*
X151563683Y-72148346D01*
X151583406Y-72050000D01*
X151583406Y-71750000D01*
X151563683Y-71648346D01*
X151583406Y-71550000D01*
X151583406Y-71250000D01*
X151563683Y-71148346D01*
X151583406Y-71050000D01*
X151583406Y-70750000D01*
X151563683Y-70648346D01*
X151583406Y-70550000D01*
X151583406Y-70250000D01*
X151563683Y-70148346D01*
X151583406Y-70050000D01*
X151583406Y-69750000D01*
X151563683Y-69648346D01*
X151583406Y-69550000D01*
X151583406Y-69352000D01*
X155712776Y-69352000D01*
X160880388Y-74519612D01*
X161027027Y-74617594D01*
X161200000Y-74652000D01*
X163800000Y-74652000D01*
X163972973Y-74617594D01*
X164119612Y-74519612D01*
X167619612Y-71019613D01*
X167717594Y-70872973D01*
X167724514Y-70838182D01*
X167752000Y-70700000D01*
X167752000Y-67893093D01*
X176222796Y-67893093D01*
X176401606Y-68325846D01*
X176732412Y-68657230D01*
X177164853Y-68836795D01*
X177633093Y-68837204D01*
X178065846Y-68658394D01*
X178397230Y-68327588D01*
X178576795Y-67895147D01*
X178577204Y-67426907D01*
X178398394Y-66994154D01*
X178067588Y-66662770D01*
X177635147Y-66483205D01*
X177166907Y-66482796D01*
X176734154Y-66661606D01*
X176402770Y-66992412D01*
X176223205Y-67424853D01*
X176222796Y-67893093D01*
X167752000Y-67893093D01*
X167752000Y-62649052D01*
X168050703Y-62525631D01*
X168424319Y-62152666D01*
X168626769Y-61665115D01*
X168627229Y-61137202D01*
X168562945Y-60981622D01*
X176072666Y-60981622D01*
X176365416Y-61690132D01*
X176907017Y-62232678D01*
X177615014Y-62526665D01*
X178381622Y-62527334D01*
X179090132Y-62234584D01*
X179632678Y-61692983D01*
X179926665Y-60984986D01*
X179927334Y-60218378D01*
X179634584Y-59509868D01*
X179092983Y-58967322D01*
X178384986Y-58673335D01*
X177618378Y-58672666D01*
X176909868Y-58965416D01*
X176367322Y-59507017D01*
X176073335Y-60215014D01*
X176072666Y-60981622D01*
X168562945Y-60981622D01*
X168425631Y-60649297D01*
X168052666Y-60275681D01*
X167565115Y-60073231D01*
X167037202Y-60072771D01*
X166549297Y-60274369D01*
X166175681Y-60647334D01*
X166029891Y-60998433D01*
X165885631Y-60649297D01*
X165512666Y-60275681D01*
X165025115Y-60073231D01*
X164497202Y-60072771D01*
X164009297Y-60274369D01*
X163635681Y-60647334D01*
X163433231Y-61134885D01*
X163432771Y-61662798D01*
X163634369Y-62150703D01*
X164007334Y-62524319D01*
X164308000Y-62649167D01*
X164308000Y-71752775D01*
X162912776Y-73148000D01*
X161787225Y-73148000D01*
X161545840Y-72906615D01*
X161834993Y-73026682D01*
X162561818Y-73027316D01*
X163233560Y-72749758D01*
X163747952Y-72236264D01*
X164026682Y-71565007D01*
X164027316Y-70838182D01*
X163749758Y-70166440D01*
X163236264Y-69652048D01*
X163027000Y-69565154D01*
X163027000Y-61900000D01*
X162964048Y-61583521D01*
X162784777Y-61315223D01*
X159484777Y-58015223D01*
X159427572Y-57977000D01*
X180623000Y-57977000D01*
X180623000Y-107223000D01*
X165746224Y-107223000D01*
X167451612Y-105517612D01*
X167519784Y-105415586D01*
X167882703Y-105265631D01*
X168256319Y-104892666D01*
X168458769Y-104405115D01*
X168458771Y-104402798D01*
X170884771Y-104402798D01*
X171086369Y-104890703D01*
X171459334Y-105264319D01*
X171946885Y-105466769D01*
X172474798Y-105467229D01*
X172962703Y-105265631D01*
X173247207Y-104981622D01*
X176072666Y-104981622D01*
X176365416Y-105690132D01*
X176907017Y-106232678D01*
X177615014Y-106526665D01*
X178381622Y-106527334D01*
X179090132Y-106234584D01*
X179632678Y-105692983D01*
X179926665Y-104984986D01*
X179927334Y-104218378D01*
X179634584Y-103509868D01*
X179092983Y-102967322D01*
X178384986Y-102673335D01*
X177618378Y-102672666D01*
X176909868Y-102965416D01*
X176367322Y-103507017D01*
X176073335Y-104215014D01*
X176072666Y-104981622D01*
X173247207Y-104981622D01*
X173336319Y-104892666D01*
X173538769Y-104405115D01*
X173539229Y-103877202D01*
X173337631Y-103389297D01*
X172964666Y-103015681D01*
X172477115Y-102813231D01*
X171949202Y-102812771D01*
X171461297Y-103014369D01*
X171087681Y-103387334D01*
X170885231Y-103874885D01*
X170884771Y-104402798D01*
X168458771Y-104402798D01*
X168459229Y-103877202D01*
X168257631Y-103389297D01*
X167884666Y-103015681D01*
X167397115Y-102813231D01*
X166869202Y-102812771D01*
X166381297Y-103014369D01*
X166007681Y-103387334D01*
X165861891Y-103738433D01*
X165717631Y-103389297D01*
X165344666Y-103015681D01*
X164857115Y-102813231D01*
X164329202Y-102812771D01*
X163841297Y-103014369D01*
X163467681Y-103387334D01*
X163265231Y-103874885D01*
X163264771Y-104402798D01*
X163466369Y-104890703D01*
X163839334Y-105264319D01*
X163872631Y-105278145D01*
X162902778Y-106247998D01*
X152221226Y-106247998D01*
X153166399Y-105302826D01*
X153464885Y-105426769D01*
X153992798Y-105427229D01*
X154480703Y-105225631D01*
X154854319Y-104852666D01*
X155056769Y-104365115D01*
X155056771Y-104362798D01*
X157482771Y-104362798D01*
X157684369Y-104850703D01*
X158057334Y-105224319D01*
X158544885Y-105426769D01*
X159072798Y-105427229D01*
X159560703Y-105225631D01*
X159934319Y-104852666D01*
X160136769Y-104365115D01*
X160137229Y-103837202D01*
X159935631Y-103349297D01*
X159562666Y-102975681D01*
X159075115Y-102773231D01*
X158547202Y-102772771D01*
X158059297Y-102974369D01*
X157685681Y-103347334D01*
X157483231Y-103834885D01*
X157482771Y-104362798D01*
X155056771Y-104362798D01*
X155057229Y-103837202D01*
X154855631Y-103349297D01*
X154482666Y-102975681D01*
X153995115Y-102773231D01*
X153467202Y-102772771D01*
X152979297Y-102974369D01*
X152605681Y-103347334D01*
X152459891Y-103698433D01*
X152315631Y-103349297D01*
X151942666Y-102975681D01*
X151455115Y-102773231D01*
X150927202Y-102772771D01*
X150439297Y-102974369D01*
X150065681Y-103347334D01*
X149863231Y-103834885D01*
X149862771Y-104362798D01*
X149987094Y-104663682D01*
X149302782Y-105347994D01*
X144460017Y-105347994D01*
X143252000Y-104139978D01*
X143252000Y-102483406D01*
X143450000Y-102483406D01*
X143574684Y-102459215D01*
X143684270Y-102387229D01*
X143757625Y-102278555D01*
X143783406Y-102150000D01*
X143783406Y-101852000D01*
X144731533Y-101852000D01*
X144740785Y-101899684D01*
X144812771Y-102009270D01*
X144921445Y-102082625D01*
X145050000Y-102108406D01*
X145850000Y-102108406D01*
X145974684Y-102084215D01*
X146084270Y-102012229D01*
X146157625Y-101903555D01*
X146183406Y-101775000D01*
X146183406Y-101025000D01*
X146159215Y-100900316D01*
X146087229Y-100790730D01*
X145978555Y-100717375D01*
X145850000Y-100691594D01*
X145050000Y-100691594D01*
X144925316Y-100715785D01*
X144815730Y-100787771D01*
X144742375Y-100896445D01*
X144732036Y-100948000D01*
X143783406Y-100948000D01*
X143783406Y-100650000D01*
X143759215Y-100525316D01*
X143752000Y-100514332D01*
X143752000Y-94550000D01*
X143916594Y-94550000D01*
X143916594Y-94850000D01*
X143936317Y-94951654D01*
X143916594Y-95050000D01*
X143916594Y-95350000D01*
X143936317Y-95451654D01*
X143916594Y-95550000D01*
X143916594Y-95850000D01*
X143936317Y-95951654D01*
X143916594Y-96050000D01*
X143916594Y-96350000D01*
X143936317Y-96451654D01*
X143916594Y-96550000D01*
X143916594Y-96850000D01*
X143936317Y-96951654D01*
X143916594Y-97050000D01*
X143916594Y-97350000D01*
X143936317Y-97451654D01*
X143916594Y-97550000D01*
X143916594Y-97850000D01*
X143936317Y-97951654D01*
X143916594Y-98050000D01*
X143916594Y-98350000D01*
X143936317Y-98451654D01*
X143916594Y-98550000D01*
X143916594Y-98850000D01*
X143936317Y-98951654D01*
X143916594Y-99050000D01*
X143916594Y-99350000D01*
X143936317Y-99451654D01*
X143916594Y-99550000D01*
X143916594Y-99850000D01*
X143940785Y-99974684D01*
X144012771Y-100084270D01*
X144121445Y-100157625D01*
X144250000Y-100183406D01*
X145750000Y-100183406D01*
X145874684Y-100159215D01*
X145984270Y-100087229D01*
X146057625Y-99978555D01*
X146083406Y-99850000D01*
X146083406Y-99550000D01*
X146063683Y-99448346D01*
X146083406Y-99350000D01*
X146083406Y-99050000D01*
X146063683Y-98948346D01*
X146083406Y-98850000D01*
X146083406Y-98550000D01*
X146063683Y-98448346D01*
X146083406Y-98350000D01*
X146083406Y-98152000D01*
X148712776Y-98152000D01*
X149180388Y-98619612D01*
X149327027Y-98717594D01*
X149500000Y-98752000D01*
X164460000Y-98752000D01*
X164632973Y-98717594D01*
X164779612Y-98619612D01*
X169696399Y-93702826D01*
X169994885Y-93826769D01*
X170522798Y-93827229D01*
X171010703Y-93625631D01*
X171384319Y-93252666D01*
X171530109Y-92901567D01*
X171674369Y-93250703D01*
X172047334Y-93624319D01*
X172534885Y-93826769D01*
X173062798Y-93827229D01*
X173550703Y-93625631D01*
X173924319Y-93252666D01*
X174126769Y-92765115D01*
X174127229Y-92237202D01*
X173925631Y-91749297D01*
X173552666Y-91375681D01*
X173065115Y-91173231D01*
X172537202Y-91172771D01*
X172049297Y-91374369D01*
X171675681Y-91747334D01*
X171529891Y-92098433D01*
X171385631Y-91749297D01*
X171012666Y-91375681D01*
X170525115Y-91173231D01*
X169997202Y-91172771D01*
X169509297Y-91374369D01*
X169135681Y-91747334D01*
X168989891Y-92098433D01*
X168845631Y-91749297D01*
X168472666Y-91375681D01*
X167985115Y-91173231D01*
X167457202Y-91172771D01*
X166969297Y-91374369D01*
X166595681Y-91747334D01*
X166393231Y-92234885D01*
X166392771Y-92762798D01*
X166517094Y-93063682D01*
X162232776Y-97348000D01*
X157533406Y-97348000D01*
X157533406Y-96550000D01*
X157509215Y-96425316D01*
X157437229Y-96315730D01*
X157328555Y-96242375D01*
X157200000Y-96216594D01*
X156700000Y-96216594D01*
X156575316Y-96240785D01*
X156465730Y-96312771D01*
X156392375Y-96421445D01*
X156366995Y-96548000D01*
X156132972Y-96548000D01*
X156131855Y-96545297D01*
X155955631Y-96368765D01*
X155725265Y-96273109D01*
X155475829Y-96272891D01*
X155245297Y-96368145D01*
X155068765Y-96544369D01*
X154973109Y-96774735D01*
X154972891Y-97024171D01*
X155068145Y-97254703D01*
X155161279Y-97348000D01*
X150387224Y-97348000D01*
X149919612Y-96880388D01*
X149772973Y-96782406D01*
X149600000Y-96748000D01*
X146083406Y-96748000D01*
X146083406Y-96550000D01*
X146063683Y-96448346D01*
X146083406Y-96350000D01*
X146083406Y-96050000D01*
X146063683Y-95948346D01*
X146083406Y-95850000D01*
X146083406Y-95550000D01*
X146063683Y-95448346D01*
X146083406Y-95350000D01*
X146083406Y-95152000D01*
X146265272Y-95152000D01*
X146344369Y-95231235D01*
X146574735Y-95326891D01*
X146824171Y-95327109D01*
X147054703Y-95231855D01*
X147231235Y-95055631D01*
X147326891Y-94825265D01*
X147327109Y-94575829D01*
X147231855Y-94345297D01*
X147055631Y-94168765D01*
X146825265Y-94073109D01*
X146575829Y-94072891D01*
X146345297Y-94168145D01*
X146265302Y-94248000D01*
X145886888Y-94248000D01*
X145878555Y-94242375D01*
X145750000Y-94216594D01*
X144250000Y-94216594D01*
X144125316Y-94240785D01*
X144015730Y-94312771D01*
X143942375Y-94421445D01*
X143916594Y-94550000D01*
X143752000Y-94550000D01*
X143752000Y-92550000D01*
X143916594Y-92550000D01*
X143916594Y-92850000D01*
X143936317Y-92951654D01*
X143916594Y-93050000D01*
X143916594Y-93350000D01*
X143940785Y-93474684D01*
X144012771Y-93584270D01*
X144121445Y-93657625D01*
X144250000Y-93683406D01*
X145750000Y-93683406D01*
X145874684Y-93659215D01*
X145984270Y-93587229D01*
X146057625Y-93478555D01*
X146083406Y-93350000D01*
X146083406Y-93050000D01*
X146063683Y-92948346D01*
X146083406Y-92850000D01*
X146083406Y-92550000D01*
X146059215Y-92425316D01*
X145987229Y-92315730D01*
X145878555Y-92242375D01*
X145750000Y-92216594D01*
X144250000Y-92216594D01*
X144125316Y-92240785D01*
X144015730Y-92312771D01*
X143942375Y-92421445D01*
X143916594Y-92550000D01*
X143752000Y-92550000D01*
X143752000Y-87550000D01*
X143916594Y-87550000D01*
X143916594Y-87850000D01*
X143936317Y-87951654D01*
X143916594Y-88050000D01*
X143916594Y-88350000D01*
X143936317Y-88451654D01*
X143916594Y-88550000D01*
X143916594Y-88850000D01*
X143936317Y-88951654D01*
X143916594Y-89050000D01*
X143916594Y-89350000D01*
X143936317Y-89451654D01*
X143916594Y-89550000D01*
X143916594Y-89850000D01*
X143936317Y-89951654D01*
X143916594Y-90050000D01*
X143916594Y-90350000D01*
X143936317Y-90451654D01*
X143916594Y-90550000D01*
X143916594Y-90850000D01*
X143936317Y-90951654D01*
X143916594Y-91050000D01*
X143916594Y-91350000D01*
X143936317Y-91451654D01*
X143916594Y-91550000D01*
X143916594Y-91850000D01*
X143940785Y-91974684D01*
X144012771Y-92084270D01*
X144121445Y-92157625D01*
X144250000Y-92183406D01*
X145750000Y-92183406D01*
X145874684Y-92159215D01*
X145984270Y-92087229D01*
X146057625Y-91978555D01*
X146083406Y-91850000D01*
X146083406Y-91652000D01*
X146612776Y-91652000D01*
X150248000Y-95287224D01*
X150248000Y-96265272D01*
X150168765Y-96344369D01*
X150073109Y-96574735D01*
X150072891Y-96824171D01*
X150168145Y-97054703D01*
X150344369Y-97231235D01*
X150574735Y-97326891D01*
X150824171Y-97327109D01*
X151054703Y-97231855D01*
X151231235Y-97055631D01*
X151326891Y-96825265D01*
X151327109Y-96575829D01*
X151231855Y-96345297D01*
X151152000Y-96265302D01*
X151152000Y-95100000D01*
X151117594Y-94927027D01*
X151019612Y-94780388D01*
X150566195Y-94326971D01*
X150724171Y-94327109D01*
X150954703Y-94231855D01*
X151131235Y-94055631D01*
X151144298Y-94024171D01*
X154772891Y-94024171D01*
X154868145Y-94254703D01*
X155044369Y-94431235D01*
X155274735Y-94526891D01*
X155524171Y-94527109D01*
X155705948Y-94452000D01*
X156366982Y-94452000D01*
X156390785Y-94574684D01*
X156462771Y-94684270D01*
X156571445Y-94757625D01*
X156700000Y-94783406D01*
X157200000Y-94783406D01*
X157324684Y-94759215D01*
X157434270Y-94687229D01*
X157507625Y-94578555D01*
X157533406Y-94450000D01*
X157533406Y-93550000D01*
X157509215Y-93425316D01*
X157437229Y-93315730D01*
X157328555Y-93242375D01*
X157200000Y-93216594D01*
X156700000Y-93216594D01*
X156575316Y-93240785D01*
X156465730Y-93312771D01*
X156392375Y-93421445D01*
X156366995Y-93548000D01*
X155932972Y-93548000D01*
X155931855Y-93545297D01*
X155755631Y-93368765D01*
X155525265Y-93273109D01*
X155275829Y-93272891D01*
X155045297Y-93368145D01*
X154868765Y-93544369D01*
X154773109Y-93774735D01*
X154772891Y-94024171D01*
X151144298Y-94024171D01*
X151226891Y-93825265D01*
X151227109Y-93575829D01*
X151131855Y-93345297D01*
X150955631Y-93168765D01*
X150725265Y-93073109D01*
X150612234Y-93073010D01*
X148191224Y-90652000D01*
X149412776Y-90652000D01*
X149472989Y-90712213D01*
X149472891Y-90824171D01*
X149568145Y-91054703D01*
X149744369Y-91231235D01*
X149974735Y-91326891D01*
X150224171Y-91327109D01*
X150454703Y-91231855D01*
X150562575Y-91124171D01*
X154872891Y-91124171D01*
X154968145Y-91354703D01*
X155144369Y-91531235D01*
X155374735Y-91626891D01*
X155624171Y-91627109D01*
X155854703Y-91531855D01*
X155934698Y-91452000D01*
X156366982Y-91452000D01*
X156390785Y-91574684D01*
X156462771Y-91684270D01*
X156571445Y-91757625D01*
X156700000Y-91783406D01*
X157200000Y-91783406D01*
X157324684Y-91759215D01*
X157434270Y-91687229D01*
X157507625Y-91578555D01*
X157533406Y-91450000D01*
X157533406Y-90550000D01*
X157509215Y-90425316D01*
X157437229Y-90315730D01*
X157328555Y-90242375D01*
X157200000Y-90216594D01*
X156700000Y-90216594D01*
X156575316Y-90240785D01*
X156465730Y-90312771D01*
X156392375Y-90421445D01*
X156366995Y-90548000D01*
X155934728Y-90548000D01*
X155855631Y-90468765D01*
X155625265Y-90373109D01*
X155375829Y-90372891D01*
X155145297Y-90468145D01*
X154968765Y-90644369D01*
X154873109Y-90874735D01*
X154872891Y-91124171D01*
X150562575Y-91124171D01*
X150631235Y-91055631D01*
X150726891Y-90825265D01*
X150727109Y-90575829D01*
X150631855Y-90345297D01*
X150455631Y-90168765D01*
X150225265Y-90073109D01*
X150112234Y-90073010D01*
X149919612Y-89880388D01*
X149772973Y-89782406D01*
X149600000Y-89748000D01*
X147691224Y-89748000D01*
X149287224Y-88152000D01*
X149565272Y-88152000D01*
X149644369Y-88231235D01*
X149874735Y-88326891D01*
X150124171Y-88327109D01*
X150354703Y-88231855D01*
X150531235Y-88055631D01*
X150626891Y-87825265D01*
X150626891Y-87824171D01*
X154972891Y-87824171D01*
X155068145Y-88054703D01*
X155244369Y-88231235D01*
X155474735Y-88326891D01*
X155591434Y-88326993D01*
X155727027Y-88417594D01*
X155900000Y-88452000D01*
X156366982Y-88452000D01*
X156390785Y-88574684D01*
X156462771Y-88684270D01*
X156571445Y-88757625D01*
X156700000Y-88783406D01*
X157200000Y-88783406D01*
X157324684Y-88759215D01*
X157434270Y-88687229D01*
X157507625Y-88578555D01*
X157533406Y-88450000D01*
X157533406Y-87550000D01*
X157509215Y-87425316D01*
X157437229Y-87315730D01*
X157328555Y-87242375D01*
X157200000Y-87216594D01*
X156700000Y-87216594D01*
X156575316Y-87240785D01*
X156465730Y-87312771D01*
X156392375Y-87421445D01*
X156366995Y-87548000D01*
X156215610Y-87548000D01*
X156131855Y-87345297D01*
X155955631Y-87168765D01*
X155725265Y-87073109D01*
X155475829Y-87072891D01*
X155245297Y-87168145D01*
X155068765Y-87344369D01*
X154973109Y-87574735D01*
X154972891Y-87824171D01*
X150626891Y-87824171D01*
X150627109Y-87575829D01*
X150531855Y-87345297D01*
X150355631Y-87168765D01*
X150125265Y-87073109D01*
X149875829Y-87072891D01*
X149645297Y-87168145D01*
X149565302Y-87248000D01*
X149100000Y-87248000D01*
X148927027Y-87282406D01*
X148780388Y-87380388D01*
X146912776Y-89248000D01*
X146083406Y-89248000D01*
X146083406Y-89050000D01*
X146063683Y-88948346D01*
X146083406Y-88850000D01*
X146083406Y-88550000D01*
X146063683Y-88448346D01*
X146083406Y-88350000D01*
X146083406Y-88050000D01*
X146063683Y-87948346D01*
X146083406Y-87850000D01*
X146083406Y-87550000D01*
X146059215Y-87425316D01*
X145987229Y-87315730D01*
X145878555Y-87242375D01*
X145750000Y-87216594D01*
X144250000Y-87216594D01*
X144125316Y-87240785D01*
X144015730Y-87312771D01*
X143942375Y-87421445D01*
X143916594Y-87550000D01*
X143752000Y-87550000D01*
X143752000Y-86886888D01*
X143757625Y-86878555D01*
G36*
X133155631Y-99318765D02*
X132925265Y-99223109D01*
X132675829Y-99222891D01*
X132445297Y-99318145D01*
X132268765Y-99494369D01*
X132173109Y-99724735D01*
X132172891Y-99974171D01*
X132268145Y-100204703D01*
X132379841Y-100316594D01*
X132150000Y-100316594D01*
X132048346Y-100336317D01*
X131950000Y-100316594D01*
X131752000Y-100316594D01*
X131752000Y-92900000D01*
X131717594Y-92727027D01*
X131619612Y-92580388D01*
X131452000Y-92412776D01*
X131452000Y-88000000D01*
X131417594Y-87827027D01*
X131319612Y-87680388D01*
X131019612Y-87380388D01*
X130872973Y-87282406D01*
X130700000Y-87248000D01*
X130486888Y-87248000D01*
X130478555Y-87242375D01*
X130350000Y-87216594D01*
X130052000Y-87216594D01*
X130052000Y-82856958D01*
X130362798Y-82857229D01*
X130850703Y-82655631D01*
X131224319Y-82282666D01*
X131349167Y-81982000D01*
X136042776Y-81982000D01*
X136316594Y-82255818D01*
X136316594Y-82544182D01*
X136262776Y-82598000D01*
X135568467Y-82598000D01*
X135559215Y-82550316D01*
X135487229Y-82440730D01*
X135378555Y-82367375D01*
X135250000Y-82341594D01*
X134450000Y-82341594D01*
X134325316Y-82365785D01*
X134215730Y-82437771D01*
X134142375Y-82546445D01*
X134116594Y-82675000D01*
X134116594Y-83425000D01*
X134140785Y-83549684D01*
X134212771Y-83659270D01*
X134321445Y-83732625D01*
X134450000Y-83758406D01*
X135250000Y-83758406D01*
X135374684Y-83734215D01*
X135484270Y-83662229D01*
X135557625Y-83553555D01*
X135567964Y-83502000D01*
X136368289Y-83502000D01*
X136382406Y-83572973D01*
X136480388Y-83719612D01*
X136848000Y-84087224D01*
X136848000Y-85113112D01*
X136842375Y-85121445D01*
X136816594Y-85250000D01*
X136816594Y-86750000D01*
X136840785Y-86874684D01*
X136848000Y-86885668D01*
X136848000Y-88194377D01*
X136773109Y-88374735D01*
X136772891Y-88624171D01*
X136868145Y-88854703D01*
X137044369Y-89031235D01*
X137274735Y-89126891D01*
X137524171Y-89127109D01*
X137754703Y-89031855D01*
X137931235Y-88855631D01*
X138026891Y-88625265D01*
X138027109Y-88375829D01*
X137931855Y-88145297D01*
X137755631Y-87968765D01*
X137752000Y-87967257D01*
X137752000Y-87083406D01*
X137950000Y-87083406D01*
X138051654Y-87063683D01*
X138150000Y-87083406D01*
X138450000Y-87083406D01*
X138551654Y-87063683D01*
X138650000Y-87083406D01*
X138950000Y-87083406D01*
X139051654Y-87063683D01*
X139150000Y-87083406D01*
X139450000Y-87083406D01*
X139551654Y-87063683D01*
X139650000Y-87083406D01*
X139950000Y-87083406D01*
X140051654Y-87063683D01*
X140150000Y-87083406D01*
X140450000Y-87083406D01*
X140551654Y-87063683D01*
X140650000Y-87083406D01*
X140950000Y-87083406D01*
X141051654Y-87063683D01*
X141150000Y-87083406D01*
X141450000Y-87083406D01*
X141551654Y-87063683D01*
X141650000Y-87083406D01*
X141950000Y-87083406D01*
X142051654Y-87063683D01*
X142150000Y-87083406D01*
X142450000Y-87083406D01*
X142551654Y-87063683D01*
X142650000Y-87083406D01*
X142848000Y-87083406D01*
X142848000Y-100316594D01*
X142650000Y-100316594D01*
X142548346Y-100336317D01*
X142450000Y-100316594D01*
X142150000Y-100316594D01*
X142048346Y-100336317D01*
X141950000Y-100316594D01*
X141650000Y-100316594D01*
X141548346Y-100336317D01*
X141450000Y-100316594D01*
X141150000Y-100316594D01*
X141048346Y-100336317D01*
X140950000Y-100316594D01*
X140650000Y-100316594D01*
X140548346Y-100336317D01*
X140450000Y-100316594D01*
X140150000Y-100316594D01*
X140048346Y-100336317D01*
X139950000Y-100316594D01*
X139650000Y-100316594D01*
X139548346Y-100336317D01*
X139450000Y-100316594D01*
X139150000Y-100316594D01*
X139048346Y-100336317D01*
X138950000Y-100316594D01*
X138650000Y-100316594D01*
X138548346Y-100336317D01*
X138450000Y-100316594D01*
X138320253Y-100316594D01*
X138331235Y-100305631D01*
X138426891Y-100075265D01*
X138427109Y-99825829D01*
X138331855Y-99595297D01*
X138155631Y-99418765D01*
X137925265Y-99323109D01*
X137675829Y-99322891D01*
X137445297Y-99418145D01*
X137324901Y-99538331D01*
X137252000Y-99465302D01*
X137252000Y-97600000D01*
X137217594Y-97427027D01*
X137119612Y-97280388D01*
X136752000Y-96912776D01*
X136752000Y-86886888D01*
X136757625Y-86878555D01*
X136783406Y-86750000D01*
X136783406Y-85250000D01*
X136759215Y-85125316D01*
X136687229Y-85015730D01*
X136578555Y-84942375D01*
X136450000Y-84916594D01*
X136150000Y-84916594D01*
X136048346Y-84936317D01*
X135950000Y-84916594D01*
X135650000Y-84916594D01*
X135548346Y-84936317D01*
X135450000Y-84916594D01*
X135150000Y-84916594D01*
X135048346Y-84936317D01*
X134950000Y-84916594D01*
X134650000Y-84916594D01*
X134548346Y-84936317D01*
X134450000Y-84916594D01*
X134150000Y-84916594D01*
X134048346Y-84936317D01*
X133950000Y-84916594D01*
X133650000Y-84916594D01*
X133548346Y-84936317D01*
X133450000Y-84916594D01*
X133150000Y-84916594D01*
X133048346Y-84936317D01*
X132950000Y-84916594D01*
X132650000Y-84916594D01*
X132548346Y-84936317D01*
X132450000Y-84916594D01*
X132150000Y-84916594D01*
X132048346Y-84936317D01*
X131950000Y-84916594D01*
X131650000Y-84916594D01*
X131548346Y-84936317D01*
X131450000Y-84916594D01*
X131150000Y-84916594D01*
X131025316Y-84940785D01*
X130915730Y-85012771D01*
X130842375Y-85121445D01*
X130816594Y-85250000D01*
X130816594Y-86750000D01*
X130840785Y-86874684D01*
X130912771Y-86984270D01*
X131021445Y-87057625D01*
X131150000Y-87083406D01*
X131450000Y-87083406D01*
X131551654Y-87063683D01*
X131650000Y-87083406D01*
X131950000Y-87083406D01*
X132051654Y-87063683D01*
X132150000Y-87083406D01*
X132450000Y-87083406D01*
X132551654Y-87063683D01*
X132650000Y-87083406D01*
X132950000Y-87083406D01*
X133051654Y-87063683D01*
X133150000Y-87083406D01*
X133450000Y-87083406D01*
X133551654Y-87063683D01*
X133650000Y-87083406D01*
X133950000Y-87083406D01*
X134051654Y-87063683D01*
X134150000Y-87083406D01*
X134450000Y-87083406D01*
X134551654Y-87063683D01*
X134650000Y-87083406D01*
X134950000Y-87083406D01*
X135051654Y-87063683D01*
X135150000Y-87083406D01*
X135450000Y-87083406D01*
X135551654Y-87063683D01*
X135650000Y-87083406D01*
X135848000Y-87083406D01*
X135848000Y-97100000D01*
X135882406Y-97272973D01*
X135980388Y-97419612D01*
X136348000Y-97787224D01*
X136348000Y-99465272D01*
X136268765Y-99544369D01*
X136173109Y-99774735D01*
X136172891Y-100024171D01*
X136268145Y-100254703D01*
X136329928Y-100316594D01*
X136150000Y-100316594D01*
X136048346Y-100336317D01*
X135950000Y-100316594D01*
X135650000Y-100316594D01*
X135548346Y-100336317D01*
X135450000Y-100316594D01*
X135252000Y-100316594D01*
X135252000Y-100200000D01*
X135217594Y-100027027D01*
X135119612Y-99880388D01*
X134769612Y-99530388D01*
X134622973Y-99432406D01*
X134450000Y-99398000D01*
X133234728Y-99398000D01*
X133155631Y-99318765D01*
X133155631Y-99318765D01*
G37*
X133155631Y-99318765D02*
X132925265Y-99223109D01*
X132675829Y-99222891D01*
X132445297Y-99318145D01*
X132268765Y-99494369D01*
X132173109Y-99724735D01*
X132172891Y-99974171D01*
X132268145Y-100204703D01*
X132379841Y-100316594D01*
X132150000Y-100316594D01*
X132048346Y-100336317D01*
X131950000Y-100316594D01*
X131752000Y-100316594D01*
X131752000Y-92900000D01*
X131717594Y-92727027D01*
X131619612Y-92580388D01*
X131452000Y-92412776D01*
X131452000Y-88000000D01*
X131417594Y-87827027D01*
X131319612Y-87680388D01*
X131019612Y-87380388D01*
X130872973Y-87282406D01*
X130700000Y-87248000D01*
X130486888Y-87248000D01*
X130478555Y-87242375D01*
X130350000Y-87216594D01*
X130052000Y-87216594D01*
X130052000Y-82856958D01*
X130362798Y-82857229D01*
X130850703Y-82655631D01*
X131224319Y-82282666D01*
X131349167Y-81982000D01*
X136042776Y-81982000D01*
X136316594Y-82255818D01*
X136316594Y-82544182D01*
X136262776Y-82598000D01*
X135568467Y-82598000D01*
X135559215Y-82550316D01*
X135487229Y-82440730D01*
X135378555Y-82367375D01*
X135250000Y-82341594D01*
X134450000Y-82341594D01*
X134325316Y-82365785D01*
X134215730Y-82437771D01*
X134142375Y-82546445D01*
X134116594Y-82675000D01*
X134116594Y-83425000D01*
X134140785Y-83549684D01*
X134212771Y-83659270D01*
X134321445Y-83732625D01*
X134450000Y-83758406D01*
X135250000Y-83758406D01*
X135374684Y-83734215D01*
X135484270Y-83662229D01*
X135557625Y-83553555D01*
X135567964Y-83502000D01*
X136368289Y-83502000D01*
X136382406Y-83572973D01*
X136480388Y-83719612D01*
X136848000Y-84087224D01*
X136848000Y-85113112D01*
X136842375Y-85121445D01*
X136816594Y-85250000D01*
X136816594Y-86750000D01*
X136840785Y-86874684D01*
X136848000Y-86885668D01*
X136848000Y-88194377D01*
X136773109Y-88374735D01*
X136772891Y-88624171D01*
X136868145Y-88854703D01*
X137044369Y-89031235D01*
X137274735Y-89126891D01*
X137524171Y-89127109D01*
X137754703Y-89031855D01*
X137931235Y-88855631D01*
X138026891Y-88625265D01*
X138027109Y-88375829D01*
X137931855Y-88145297D01*
X137755631Y-87968765D01*
X137752000Y-87967257D01*
X137752000Y-87083406D01*
X137950000Y-87083406D01*
X138051654Y-87063683D01*
X138150000Y-87083406D01*
X138450000Y-87083406D01*
X138551654Y-87063683D01*
X138650000Y-87083406D01*
X138950000Y-87083406D01*
X139051654Y-87063683D01*
X139150000Y-87083406D01*
X139450000Y-87083406D01*
X139551654Y-87063683D01*
X139650000Y-87083406D01*
X139950000Y-87083406D01*
X140051654Y-87063683D01*
X140150000Y-87083406D01*
X140450000Y-87083406D01*
X140551654Y-87063683D01*
X140650000Y-87083406D01*
X140950000Y-87083406D01*
X141051654Y-87063683D01*
X141150000Y-87083406D01*
X141450000Y-87083406D01*
X141551654Y-87063683D01*
X141650000Y-87083406D01*
X141950000Y-87083406D01*
X142051654Y-87063683D01*
X142150000Y-87083406D01*
X142450000Y-87083406D01*
X142551654Y-87063683D01*
X142650000Y-87083406D01*
X142848000Y-87083406D01*
X142848000Y-100316594D01*
X142650000Y-100316594D01*
X142548346Y-100336317D01*
X142450000Y-100316594D01*
X142150000Y-100316594D01*
X142048346Y-100336317D01*
X141950000Y-100316594D01*
X141650000Y-100316594D01*
X141548346Y-100336317D01*
X141450000Y-100316594D01*
X141150000Y-100316594D01*
X141048346Y-100336317D01*
X140950000Y-100316594D01*
X140650000Y-100316594D01*
X140548346Y-100336317D01*
X140450000Y-100316594D01*
X140150000Y-100316594D01*
X140048346Y-100336317D01*
X139950000Y-100316594D01*
X139650000Y-100316594D01*
X139548346Y-100336317D01*
X139450000Y-100316594D01*
X139150000Y-100316594D01*
X139048346Y-100336317D01*
X138950000Y-100316594D01*
X138650000Y-100316594D01*
X138548346Y-100336317D01*
X138450000Y-100316594D01*
X138320253Y-100316594D01*
X138331235Y-100305631D01*
X138426891Y-100075265D01*
X138427109Y-99825829D01*
X138331855Y-99595297D01*
X138155631Y-99418765D01*
X137925265Y-99323109D01*
X137675829Y-99322891D01*
X137445297Y-99418145D01*
X137324901Y-99538331D01*
X137252000Y-99465302D01*
X137252000Y-97600000D01*
X137217594Y-97427027D01*
X137119612Y-97280388D01*
X136752000Y-96912776D01*
X136752000Y-86886888D01*
X136757625Y-86878555D01*
X136783406Y-86750000D01*
X136783406Y-85250000D01*
X136759215Y-85125316D01*
X136687229Y-85015730D01*
X136578555Y-84942375D01*
X136450000Y-84916594D01*
X136150000Y-84916594D01*
X136048346Y-84936317D01*
X135950000Y-84916594D01*
X135650000Y-84916594D01*
X135548346Y-84936317D01*
X135450000Y-84916594D01*
X135150000Y-84916594D01*
X135048346Y-84936317D01*
X134950000Y-84916594D01*
X134650000Y-84916594D01*
X134548346Y-84936317D01*
X134450000Y-84916594D01*
X134150000Y-84916594D01*
X134048346Y-84936317D01*
X133950000Y-84916594D01*
X133650000Y-84916594D01*
X133548346Y-84936317D01*
X133450000Y-84916594D01*
X133150000Y-84916594D01*
X133048346Y-84936317D01*
X132950000Y-84916594D01*
X132650000Y-84916594D01*
X132548346Y-84936317D01*
X132450000Y-84916594D01*
X132150000Y-84916594D01*
X132048346Y-84936317D01*
X131950000Y-84916594D01*
X131650000Y-84916594D01*
X131548346Y-84936317D01*
X131450000Y-84916594D01*
X131150000Y-84916594D01*
X131025316Y-84940785D01*
X130915730Y-85012771D01*
X130842375Y-85121445D01*
X130816594Y-85250000D01*
X130816594Y-86750000D01*
X130840785Y-86874684D01*
X130912771Y-86984270D01*
X131021445Y-87057625D01*
X131150000Y-87083406D01*
X131450000Y-87083406D01*
X131551654Y-87063683D01*
X131650000Y-87083406D01*
X131950000Y-87083406D01*
X132051654Y-87063683D01*
X132150000Y-87083406D01*
X132450000Y-87083406D01*
X132551654Y-87063683D01*
X132650000Y-87083406D01*
X132950000Y-87083406D01*
X133051654Y-87063683D01*
X133150000Y-87083406D01*
X133450000Y-87083406D01*
X133551654Y-87063683D01*
X133650000Y-87083406D01*
X133950000Y-87083406D01*
X134051654Y-87063683D01*
X134150000Y-87083406D01*
X134450000Y-87083406D01*
X134551654Y-87063683D01*
X134650000Y-87083406D01*
X134950000Y-87083406D01*
X135051654Y-87063683D01*
X135150000Y-87083406D01*
X135450000Y-87083406D01*
X135551654Y-87063683D01*
X135650000Y-87083406D01*
X135848000Y-87083406D01*
X135848000Y-97100000D01*
X135882406Y-97272973D01*
X135980388Y-97419612D01*
X136348000Y-97787224D01*
X136348000Y-99465272D01*
X136268765Y-99544369D01*
X136173109Y-99774735D01*
X136172891Y-100024171D01*
X136268145Y-100254703D01*
X136329928Y-100316594D01*
X136150000Y-100316594D01*
X136048346Y-100336317D01*
X135950000Y-100316594D01*
X135650000Y-100316594D01*
X135548346Y-100336317D01*
X135450000Y-100316594D01*
X135252000Y-100316594D01*
X135252000Y-100200000D01*
X135217594Y-100027027D01*
X135119612Y-99880388D01*
X134769612Y-99530388D01*
X134622973Y-99432406D01*
X134450000Y-99398000D01*
X133234728Y-99398000D01*
X133155631Y-99318765D01*
G36*
X143348000Y-81213112D02*
X143342375Y-81221445D01*
X143316594Y-81350000D01*
X143316594Y-82850000D01*
X143340785Y-82974684D01*
X143412771Y-83084270D01*
X143521445Y-83157625D01*
X143650000Y-83183406D01*
X143950000Y-83183406D01*
X144051654Y-83163683D01*
X144150000Y-83183406D01*
X144450000Y-83183406D01*
X144551654Y-83163683D01*
X144650000Y-83183406D01*
X144950000Y-83183406D01*
X145051654Y-83163683D01*
X145150000Y-83183406D01*
X145450000Y-83183406D01*
X145551654Y-83163683D01*
X145650000Y-83183406D01*
X145950000Y-83183406D01*
X146051654Y-83163683D01*
X146150000Y-83183406D01*
X146450000Y-83183406D01*
X146551654Y-83163683D01*
X146650000Y-83183406D01*
X146950000Y-83183406D01*
X147051654Y-83163683D01*
X147150000Y-83183406D01*
X147450000Y-83183406D01*
X147551654Y-83163683D01*
X147650000Y-83183406D01*
X147848000Y-83183406D01*
X147848000Y-83365272D01*
X147768765Y-83444369D01*
X147673109Y-83674735D01*
X147672891Y-83924171D01*
X147724056Y-84048000D01*
X143664789Y-84048000D01*
X143619612Y-83980388D01*
X143252000Y-83612776D01*
X143252000Y-82986888D01*
X143257625Y-82978555D01*
X143283406Y-82850000D01*
X143283406Y-81350000D01*
X143259215Y-81225316D01*
X143252000Y-81214332D01*
X143252000Y-80934728D01*
X143331235Y-80855631D01*
X143348000Y-80815256D01*
X143348000Y-81213112D01*
X143348000Y-81213112D01*
G37*
X143348000Y-81213112D02*
X143342375Y-81221445D01*
X143316594Y-81350000D01*
X143316594Y-82850000D01*
X143340785Y-82974684D01*
X143412771Y-83084270D01*
X143521445Y-83157625D01*
X143650000Y-83183406D01*
X143950000Y-83183406D01*
X144051654Y-83163683D01*
X144150000Y-83183406D01*
X144450000Y-83183406D01*
X144551654Y-83163683D01*
X144650000Y-83183406D01*
X144950000Y-83183406D01*
X145051654Y-83163683D01*
X145150000Y-83183406D01*
X145450000Y-83183406D01*
X145551654Y-83163683D01*
X145650000Y-83183406D01*
X145950000Y-83183406D01*
X146051654Y-83163683D01*
X146150000Y-83183406D01*
X146450000Y-83183406D01*
X146551654Y-83163683D01*
X146650000Y-83183406D01*
X146950000Y-83183406D01*
X147051654Y-83163683D01*
X147150000Y-83183406D01*
X147450000Y-83183406D01*
X147551654Y-83163683D01*
X147650000Y-83183406D01*
X147848000Y-83183406D01*
X147848000Y-83365272D01*
X147768765Y-83444369D01*
X147673109Y-83674735D01*
X147672891Y-83924171D01*
X147724056Y-84048000D01*
X143664789Y-84048000D01*
X143619612Y-83980388D01*
X143252000Y-83612776D01*
X143252000Y-82986888D01*
X143257625Y-82978555D01*
X143283406Y-82850000D01*
X143283406Y-81350000D01*
X143259215Y-81225316D01*
X143252000Y-81214332D01*
X143252000Y-80934728D01*
X143331235Y-80855631D01*
X143348000Y-80815256D01*
X143348000Y-81213112D01*
M02*
