G04 #@! TF.FileFunction,Copper,L1,Top,Signal*
%FSLAX46Y46*%
G04 Gerber Fmt 4.6, Leading zero omitted, Abs format (unit mm)*
G04 Created by KiCad (PCBNEW (2015-07-11 BZR 5925, Git c291b88)-product) date 2015/07/28 4:08:13*
%MOMM*%
G01*
G04 APERTURE LIST*
%ADD10C,0.100000*%
%ADD11R,0.800000X0.750000*%
%ADD12R,1.400000X1.400000*%
%ADD13C,1.400000*%
%ADD14R,0.750000X0.800000*%
%ADD15R,1.250000X1.000000*%
%ADD16C,3.000000*%
%ADD17C,1.998980*%
%ADD18C,1.905000*%
%ADD19R,5.600700X2.100580*%
%ADD20C,2.000000*%
%ADD21O,2.000000X1.500000*%
%ADD22R,1.300000X1.300000*%
%ADD23C,1.300000*%
%ADD24R,1.998980X1.998980*%
%ADD25R,2.500000X3.800000*%
%ADD26R,0.500000X1.400000*%
%ADD27R,2.000000X2.000000*%
%ADD28C,1.524000*%
%ADD29R,0.797560X0.797560*%
%ADD30C,3.200000*%
%ADD31C,0.600000*%
%ADD32C,0.250000*%
%ADD33C,1.000000*%
%ADD34C,0.254000*%
G04 APERTURE END LIST*
D10*
X181000000Y-57600000D02*
X81000000Y-57600000D01*
X181000000Y-107600000D02*
X181000000Y-57600000D01*
X81000000Y-107600000D02*
X181000000Y-107600000D01*
X81000000Y-57600000D02*
X81000000Y-107600000D01*
D11*
X138550000Y-88500000D03*
X140050000Y-88500000D03*
D12*
X93000000Y-95000000D03*
D13*
X98000000Y-95000000D03*
D14*
X142300000Y-69300000D03*
X142300000Y-70800000D03*
D15*
X145900000Y-79550000D03*
X145900000Y-77550000D03*
D14*
X137800000Y-98700000D03*
X137800000Y-97200000D03*
X142800000Y-79300000D03*
X142800000Y-77800000D03*
D15*
X135600000Y-99000000D03*
X135600000Y-97000000D03*
D14*
X140750000Y-104350000D03*
X140750000Y-102850000D03*
X120800000Y-104350000D03*
X120800000Y-102850000D03*
D16*
X100000000Y-77200000D03*
X100000000Y-69280000D03*
D17*
X118080000Y-79600000D03*
X107920000Y-79600000D03*
X118080000Y-82600000D03*
X107920000Y-82600000D03*
X82600000Y-86120000D03*
X82600000Y-96280000D03*
D18*
X87690000Y-92410000D03*
X90230000Y-92410000D03*
X92770000Y-92410000D03*
X95310000Y-92410000D03*
X95310000Y-84790000D03*
X92770000Y-84790000D03*
X90230000Y-84790000D03*
X87690000Y-84790000D03*
D19*
X125601140Y-104350000D03*
X135298860Y-104350000D03*
D20*
X130100000Y-71370000D03*
X130100000Y-73910000D03*
X130100000Y-76450000D03*
X130100000Y-78990000D03*
X130100000Y-81530000D03*
X167720000Y-92500000D03*
X170260000Y-92500000D03*
X172800000Y-92500000D03*
X175340000Y-92500000D03*
X177880000Y-92500000D03*
D21*
X120900000Y-83440000D03*
X120900000Y-78360000D03*
X120900000Y-80900000D03*
D22*
X120900000Y-73850000D03*
D23*
X118400000Y-73850000D03*
D22*
X116200000Y-87400000D03*
D23*
X116200000Y-92400000D03*
D22*
X113400000Y-72400000D03*
D23*
X108400000Y-72400000D03*
D16*
X162200000Y-71200000D03*
X162200000Y-79120000D03*
D17*
X86190000Y-96100000D03*
D24*
X90000000Y-96100000D03*
D25*
X145500000Y-61250000D03*
X137100000Y-61250000D03*
D26*
X141300000Y-63650000D03*
X142100000Y-63650000D03*
X140500000Y-63650000D03*
X142900000Y-63650000D03*
X139700000Y-63650000D03*
D20*
X125340000Y-61400000D03*
X122800000Y-61400000D03*
X120260000Y-61400000D03*
X169840000Y-61400000D03*
X167300000Y-61400000D03*
X164760000Y-61400000D03*
X172212000Y-104140000D03*
X169672000Y-104140000D03*
X167132000Y-104140000D03*
X164592000Y-104140000D03*
X158810000Y-104100000D03*
X156270000Y-104100000D03*
X153730000Y-104100000D03*
X151190000Y-104100000D03*
X110810000Y-104100000D03*
X108270000Y-104100000D03*
X105730000Y-104100000D03*
X103190000Y-104100000D03*
X97282000Y-104140000D03*
X94742000Y-104140000D03*
X92202000Y-104140000D03*
X89662000Y-104140000D03*
D27*
X113200000Y-63700000D03*
D20*
X115740000Y-63700000D03*
D22*
X105100000Y-87400000D03*
D23*
X105100000Y-92400000D03*
D28*
X97560000Y-60600000D03*
X100100000Y-60600000D03*
X102640000Y-60600000D03*
X95020000Y-60600000D03*
X105180000Y-60600000D03*
D29*
X152450700Y-87200000D03*
X153949300Y-87200000D03*
X152450700Y-90200000D03*
X153949300Y-90200000D03*
X152450700Y-93200000D03*
X153949300Y-93200000D03*
X152450700Y-96200000D03*
X153949300Y-96200000D03*
D30*
X178000000Y-60600000D03*
X84000000Y-60600000D03*
X84000000Y-104600000D03*
X178000000Y-104600000D03*
D29*
X152450700Y-84200000D03*
X153949300Y-84200000D03*
X152450700Y-81200000D03*
X153949300Y-81200000D03*
D31*
X137400000Y-88500000D03*
X148600000Y-80500000D03*
X142800000Y-80500000D03*
X148500000Y-86900000D03*
X146800000Y-83800000D03*
X140100000Y-89800000D03*
X155800000Y-71200000D03*
X155600000Y-66800000D03*
X135300000Y-102750000D03*
X132800000Y-99850000D03*
X146700000Y-94700000D03*
X142000000Y-65000000D03*
X142300000Y-68150000D03*
X137800000Y-99950000D03*
X141200000Y-62200000D03*
X144250000Y-79550000D03*
X136800000Y-99900000D03*
X150000000Y-87700000D03*
X155600000Y-87700000D03*
X150100000Y-90700000D03*
X155500000Y-91000000D03*
X150600000Y-93700000D03*
X155400000Y-93900000D03*
X150700000Y-96700000D03*
X155600000Y-96900000D03*
X155500000Y-85500000D03*
X148300000Y-83800000D03*
X155300000Y-82000000D03*
X150600000Y-82000000D03*
D32*
X137400000Y-88500000D02*
X138550000Y-88500000D01*
X142800000Y-80500000D02*
X148600000Y-80500000D01*
X142800000Y-79300000D02*
X142800000Y-80500000D01*
X148500000Y-85500000D02*
X148500000Y-86900000D01*
X146800000Y-83800000D02*
X148500000Y-85500000D01*
X140050000Y-88500000D02*
X140050000Y-89750000D01*
X140050000Y-89750000D02*
X140100000Y-89800000D01*
X155800000Y-67000000D02*
X155800000Y-71200000D01*
X155600000Y-66800000D02*
X155800000Y-67000000D01*
X135298860Y-104350000D02*
X140750000Y-104350000D01*
X135298860Y-102751140D02*
X135298860Y-104350000D01*
X135300000Y-102750000D02*
X135298860Y-102751140D01*
X132800000Y-99850000D02*
X128300000Y-104350000D01*
X128300000Y-104350000D02*
X125601140Y-104350000D01*
X120800000Y-104350000D02*
X125601140Y-104350000D01*
D33*
X158810000Y-104590000D02*
X156645000Y-106755000D01*
X172212000Y-104140000D02*
X172212000Y-105043000D01*
X172212000Y-105043000D02*
X170500000Y-106755000D01*
X170500000Y-106755000D02*
X170655000Y-106755000D01*
X97282000Y-104140000D02*
X97536000Y-104140000D01*
X97536000Y-104140000D02*
X100246000Y-106850000D01*
X156155000Y-106755000D02*
X156645000Y-106755000D01*
X156645000Y-106755000D02*
X170655000Y-106755000D01*
X156155000Y-106755000D02*
X156060000Y-106850000D01*
X156060000Y-106850000D02*
X108060000Y-106850000D01*
X100246000Y-106850000D02*
X108060000Y-106850000D01*
X108060000Y-106850000D02*
X110810000Y-104100000D01*
D32*
X172800000Y-92500000D02*
X172800000Y-91600000D01*
X172800000Y-91600000D02*
X171900000Y-90700000D01*
X171900000Y-90700000D02*
X162300000Y-90700000D01*
X162300000Y-90700000D02*
X160800000Y-92200000D01*
X160800000Y-92200000D02*
X149700000Y-92200000D01*
X149700000Y-92200000D02*
X147200000Y-94700000D01*
X147200000Y-94700000D02*
X146700000Y-94700000D01*
X142100000Y-63650000D02*
X142000000Y-63750000D01*
X142000000Y-63750000D02*
X142000000Y-65000000D01*
X142300000Y-68150000D02*
X142300000Y-69300000D01*
X137800000Y-99950000D02*
X137800000Y-98700000D01*
X141200000Y-62200000D02*
X141300000Y-62300000D01*
X141300000Y-62300000D02*
X141300000Y-63650000D01*
X144250000Y-79550000D02*
X145900000Y-79550000D01*
X136800000Y-99900000D02*
X135900000Y-99000000D01*
X135900000Y-99000000D02*
X135600000Y-99000000D01*
X152450700Y-87200000D02*
X150500000Y-87200000D01*
X150500000Y-87200000D02*
X150000000Y-87700000D01*
X155100000Y-87200000D02*
X153949300Y-87200000D01*
X155600000Y-87700000D02*
X155100000Y-87200000D01*
X152450700Y-90200000D02*
X150600000Y-90200000D01*
X150600000Y-90200000D02*
X150100000Y-90700000D01*
X153949300Y-90200000D02*
X154700000Y-90200000D01*
X154700000Y-90200000D02*
X155500000Y-91000000D01*
X152450700Y-93200000D02*
X151100000Y-93200000D01*
X151100000Y-93200000D02*
X150600000Y-93700000D01*
X154700000Y-93200000D02*
X153949300Y-93200000D01*
X155400000Y-93900000D02*
X154700000Y-93200000D01*
X152450700Y-96200000D02*
X151400000Y-96200000D01*
X150900000Y-96700000D02*
X150700000Y-96700000D01*
X151400000Y-96200000D02*
X150900000Y-96700000D01*
X153949300Y-96200000D02*
X154900000Y-96200000D01*
X154900000Y-96200000D02*
X155600000Y-96900000D01*
X153949300Y-84200000D02*
X154200000Y-84200000D01*
X154200000Y-84200000D02*
X155000000Y-85000000D01*
X155500000Y-85500000D02*
X155000000Y-85000000D01*
X150400000Y-84200000D02*
X148700000Y-84200000D01*
X152450700Y-84200000D02*
X150400000Y-84200000D01*
X148700000Y-84200000D02*
X148300000Y-83800000D01*
X148300000Y-83800000D02*
X148400000Y-83800000D01*
X153949300Y-81200000D02*
X154500000Y-81200000D01*
X154500000Y-81200000D02*
X155300000Y-82000000D01*
X152450700Y-81200000D02*
X151400000Y-81200000D01*
X151400000Y-81200000D02*
X150600000Y-82000000D01*
D34*
G36*
X180623000Y-107223000D02*
X171317805Y-107223000D01*
X171419048Y-107071479D01*
X171435429Y-106989125D01*
X172796778Y-105627777D01*
X172976048Y-105359479D01*
X173002647Y-105225756D01*
X173247207Y-104981622D01*
X176072666Y-104981622D01*
X176365416Y-105690132D01*
X176907017Y-106232678D01*
X177615014Y-106526665D01*
X178381622Y-106527334D01*
X179090132Y-106234584D01*
X179632678Y-105692983D01*
X179926665Y-104984986D01*
X179927334Y-104218378D01*
X179634584Y-103509868D01*
X179092983Y-102967322D01*
X178384986Y-102673335D01*
X177618378Y-102672666D01*
X176909868Y-102965416D01*
X176367322Y-103507017D01*
X176073335Y-104215014D01*
X176072666Y-104981622D01*
X173247207Y-104981622D01*
X173336319Y-104892666D01*
X173538769Y-104405115D01*
X173539229Y-103877202D01*
X173337631Y-103389297D01*
X172964666Y-103015681D01*
X172477115Y-102813231D01*
X171949202Y-102812771D01*
X171461297Y-103014369D01*
X171087681Y-103387334D01*
X170885231Y-103874885D01*
X170884771Y-104402798D01*
X171086369Y-104890703D01*
X171140508Y-104944937D01*
X170157446Y-105928000D01*
X158641555Y-105928000D01*
X159191283Y-105378272D01*
X159560703Y-105225631D01*
X159934319Y-104852666D01*
X160121121Y-104402798D01*
X163264771Y-104402798D01*
X163466369Y-104890703D01*
X163839334Y-105264319D01*
X164326885Y-105466769D01*
X164854798Y-105467229D01*
X165342703Y-105265631D01*
X165716319Y-104892666D01*
X165862109Y-104541567D01*
X166006369Y-104890703D01*
X166379334Y-105264319D01*
X166866885Y-105466769D01*
X167394798Y-105467229D01*
X167882703Y-105265631D01*
X168256319Y-104892666D01*
X168458769Y-104405115D01*
X168459229Y-103877202D01*
X168257631Y-103389297D01*
X167884666Y-103015681D01*
X167397115Y-102813231D01*
X166869202Y-102812771D01*
X166381297Y-103014369D01*
X166007681Y-103387334D01*
X165861891Y-103738433D01*
X165717631Y-103389297D01*
X165344666Y-103015681D01*
X164857115Y-102813231D01*
X164329202Y-102812771D01*
X163841297Y-103014369D01*
X163467681Y-103387334D01*
X163265231Y-103874885D01*
X163264771Y-104402798D01*
X160121121Y-104402798D01*
X160136769Y-104365115D01*
X160137229Y-103837202D01*
X159935631Y-103349297D01*
X159562666Y-102975681D01*
X159075115Y-102773231D01*
X158547202Y-102772771D01*
X158059297Y-102974369D01*
X157685681Y-103347334D01*
X157483231Y-103834885D01*
X157482771Y-104362798D01*
X157595302Y-104635144D01*
X156302446Y-105928000D01*
X156155000Y-105928000D01*
X155838521Y-105990952D01*
X155790558Y-106023000D01*
X110056555Y-106023000D01*
X110652692Y-105426863D01*
X111072798Y-105427229D01*
X111560703Y-105225631D01*
X111934319Y-104852666D01*
X112136769Y-104365115D01*
X112137130Y-103950000D01*
X120091594Y-103950000D01*
X120091594Y-104750000D01*
X120115785Y-104874684D01*
X120187771Y-104984270D01*
X120296445Y-105057625D01*
X120425000Y-105083406D01*
X121175000Y-105083406D01*
X121299684Y-105059215D01*
X121409270Y-104987229D01*
X121482625Y-104878555D01*
X121497978Y-104802000D01*
X122467384Y-104802000D01*
X122467384Y-105400290D01*
X122491575Y-105524974D01*
X122563561Y-105634560D01*
X122672235Y-105707915D01*
X122800790Y-105733696D01*
X128401490Y-105733696D01*
X128526174Y-105709505D01*
X128635760Y-105637519D01*
X128709115Y-105528845D01*
X128734896Y-105400290D01*
X128734896Y-104554328D01*
X129989514Y-103299710D01*
X132165104Y-103299710D01*
X132165104Y-105400290D01*
X132189295Y-105524974D01*
X132261281Y-105634560D01*
X132369955Y-105707915D01*
X132498510Y-105733696D01*
X138099210Y-105733696D01*
X138223894Y-105709505D01*
X138333480Y-105637519D01*
X138406835Y-105528845D01*
X138432616Y-105400290D01*
X138432616Y-104802000D01*
X140051683Y-104802000D01*
X140065785Y-104874684D01*
X140137771Y-104984270D01*
X140246445Y-105057625D01*
X140375000Y-105083406D01*
X141125000Y-105083406D01*
X141249684Y-105059215D01*
X141359270Y-104987229D01*
X141432625Y-104878555D01*
X141458406Y-104750000D01*
X141458406Y-104362798D01*
X149862771Y-104362798D01*
X150064369Y-104850703D01*
X150437334Y-105224319D01*
X150924885Y-105426769D01*
X151452798Y-105427229D01*
X151940703Y-105225631D01*
X152314319Y-104852666D01*
X152460109Y-104501567D01*
X152604369Y-104850703D01*
X152977334Y-105224319D01*
X153464885Y-105426769D01*
X153992798Y-105427229D01*
X154480703Y-105225631D01*
X154854319Y-104852666D01*
X155056769Y-104365115D01*
X155057229Y-103837202D01*
X154855631Y-103349297D01*
X154482666Y-102975681D01*
X153995115Y-102773231D01*
X153467202Y-102772771D01*
X152979297Y-102974369D01*
X152605681Y-103347334D01*
X152459891Y-103698433D01*
X152315631Y-103349297D01*
X151942666Y-102975681D01*
X151455115Y-102773231D01*
X150927202Y-102772771D01*
X150439297Y-102974369D01*
X150065681Y-103347334D01*
X149863231Y-103834885D01*
X149862771Y-104362798D01*
X141458406Y-104362798D01*
X141458406Y-103950000D01*
X141434215Y-103825316D01*
X141362229Y-103715730D01*
X141253555Y-103642375D01*
X141125000Y-103616594D01*
X140375000Y-103616594D01*
X140250316Y-103640785D01*
X140140730Y-103712771D01*
X140067375Y-103821445D01*
X140052022Y-103898000D01*
X138432616Y-103898000D01*
X138432616Y-103299710D01*
X138408425Y-103175026D01*
X138336439Y-103065440D01*
X138227765Y-102992085D01*
X138099210Y-102966304D01*
X135889088Y-102966304D01*
X135926891Y-102875265D01*
X135927109Y-102625829D01*
X135831855Y-102395297D01*
X135655631Y-102218765D01*
X135425265Y-102123109D01*
X135175829Y-102122891D01*
X134945297Y-102218145D01*
X134768765Y-102394369D01*
X134673109Y-102624735D01*
X134672891Y-102874171D01*
X134710960Y-102966304D01*
X132498510Y-102966304D01*
X132373826Y-102990495D01*
X132264240Y-103062481D01*
X132190885Y-103171155D01*
X132165104Y-103299710D01*
X129989514Y-103299710D01*
X132812213Y-100477011D01*
X132924171Y-100477109D01*
X133154703Y-100381855D01*
X133331235Y-100205631D01*
X133426891Y-99975265D01*
X133427109Y-99725829D01*
X133331855Y-99495297D01*
X133155631Y-99318765D01*
X132925265Y-99223109D01*
X132675829Y-99222891D01*
X132445297Y-99318145D01*
X132268765Y-99494369D01*
X132173109Y-99724735D01*
X132173010Y-99837766D01*
X128731024Y-103279752D01*
X128710705Y-103175026D01*
X128638719Y-103065440D01*
X128530045Y-102992085D01*
X128401490Y-102966304D01*
X122800790Y-102966304D01*
X122676106Y-102990495D01*
X122566520Y-103062481D01*
X122493165Y-103171155D01*
X122467384Y-103299710D01*
X122467384Y-103898000D01*
X121498317Y-103898000D01*
X121484215Y-103825316D01*
X121412229Y-103715730D01*
X121303555Y-103642375D01*
X121175000Y-103616594D01*
X120425000Y-103616594D01*
X120300316Y-103640785D01*
X120190730Y-103712771D01*
X120117375Y-103821445D01*
X120091594Y-103950000D01*
X112137130Y-103950000D01*
X112137229Y-103837202D01*
X111935631Y-103349297D01*
X111562666Y-102975681D01*
X111075115Y-102773231D01*
X110547202Y-102772771D01*
X110059297Y-102974369D01*
X109685681Y-103347334D01*
X109483231Y-103834885D01*
X109482863Y-104257583D01*
X107717446Y-106023000D01*
X100588554Y-106023000D01*
X98928352Y-104362798D01*
X101862771Y-104362798D01*
X102064369Y-104850703D01*
X102437334Y-105224319D01*
X102924885Y-105426769D01*
X103452798Y-105427229D01*
X103940703Y-105225631D01*
X104314319Y-104852666D01*
X104460109Y-104501567D01*
X104604369Y-104850703D01*
X104977334Y-105224319D01*
X105464885Y-105426769D01*
X105992798Y-105427229D01*
X106480703Y-105225631D01*
X106854319Y-104852666D01*
X107056769Y-104365115D01*
X107057229Y-103837202D01*
X106855631Y-103349297D01*
X106482666Y-102975681D01*
X105995115Y-102773231D01*
X105467202Y-102772771D01*
X104979297Y-102974369D01*
X104605681Y-103347334D01*
X104459891Y-103698433D01*
X104315631Y-103349297D01*
X103942666Y-102975681D01*
X103455115Y-102773231D01*
X102927202Y-102772771D01*
X102439297Y-102974369D01*
X102065681Y-103347334D01*
X101863231Y-103834885D01*
X101862771Y-104362798D01*
X98928352Y-104362798D01*
X98609084Y-104043530D01*
X98609229Y-103877202D01*
X98407631Y-103389297D01*
X98034666Y-103015681D01*
X97547115Y-102813231D01*
X97019202Y-102812771D01*
X96531297Y-103014369D01*
X96157681Y-103387334D01*
X95955231Y-103874885D01*
X95954771Y-104402798D01*
X96156369Y-104890703D01*
X96529334Y-105264319D01*
X97016885Y-105466769D01*
X97544798Y-105467229D01*
X97650146Y-105423700D01*
X99449446Y-107223000D01*
X81377000Y-107223000D01*
X81377000Y-104981622D01*
X82072666Y-104981622D01*
X82365416Y-105690132D01*
X82907017Y-106232678D01*
X83615014Y-106526665D01*
X84381622Y-106527334D01*
X85090132Y-106234584D01*
X85632678Y-105692983D01*
X85926665Y-104984986D01*
X85927173Y-104402798D01*
X88334771Y-104402798D01*
X88536369Y-104890703D01*
X88909334Y-105264319D01*
X89396885Y-105466769D01*
X89924798Y-105467229D01*
X90412703Y-105265631D01*
X90786319Y-104892666D01*
X90932109Y-104541567D01*
X91076369Y-104890703D01*
X91449334Y-105264319D01*
X91936885Y-105466769D01*
X92464798Y-105467229D01*
X92952703Y-105265631D01*
X93326319Y-104892666D01*
X93528769Y-104405115D01*
X93529229Y-103877202D01*
X93327631Y-103389297D01*
X92954666Y-103015681D01*
X92467115Y-102813231D01*
X91939202Y-102812771D01*
X91451297Y-103014369D01*
X91077681Y-103387334D01*
X90931891Y-103738433D01*
X90787631Y-103389297D01*
X90414666Y-103015681D01*
X89927115Y-102813231D01*
X89399202Y-102812771D01*
X88911297Y-103014369D01*
X88537681Y-103387334D01*
X88335231Y-103874885D01*
X88334771Y-104402798D01*
X85927173Y-104402798D01*
X85927334Y-104218378D01*
X85634584Y-103509868D01*
X85092983Y-102967322D01*
X84384986Y-102673335D01*
X83618378Y-102672666D01*
X82909868Y-102965416D01*
X82367322Y-103507017D01*
X82073335Y-104215014D01*
X82072666Y-104981622D01*
X81377000Y-104981622D01*
X81377000Y-98500000D01*
X134641594Y-98500000D01*
X134641594Y-99500000D01*
X134665785Y-99624684D01*
X134737771Y-99734270D01*
X134846445Y-99807625D01*
X134975000Y-99833406D01*
X136094182Y-99833406D01*
X136172989Y-99912213D01*
X136172891Y-100024171D01*
X136268145Y-100254703D01*
X136444369Y-100431235D01*
X136674735Y-100526891D01*
X136924171Y-100527109D01*
X137154703Y-100431855D01*
X137275099Y-100311669D01*
X137444369Y-100481235D01*
X137674735Y-100576891D01*
X137924171Y-100577109D01*
X138154703Y-100481855D01*
X138331235Y-100305631D01*
X138426891Y-100075265D01*
X138427109Y-99825829D01*
X138331855Y-99595297D01*
X138252000Y-99515302D01*
X138252000Y-99418467D01*
X138299684Y-99409215D01*
X138409270Y-99337229D01*
X138482625Y-99228555D01*
X138508406Y-99100000D01*
X138508406Y-98300000D01*
X138484215Y-98175316D01*
X138412229Y-98065730D01*
X138303555Y-97992375D01*
X138175000Y-97966594D01*
X137425000Y-97966594D01*
X137300316Y-97990785D01*
X137190730Y-98062771D01*
X137117375Y-98171445D01*
X137091594Y-98300000D01*
X137091594Y-99100000D01*
X137115785Y-99224684D01*
X137187771Y-99334270D01*
X137296445Y-99407625D01*
X137348000Y-99417964D01*
X137348000Y-99515272D01*
X137324901Y-99538331D01*
X137155631Y-99368765D01*
X136925265Y-99273109D01*
X136812234Y-99273010D01*
X136558406Y-99019182D01*
X136558406Y-98500000D01*
X136534215Y-98375316D01*
X136462229Y-98265730D01*
X136353555Y-98192375D01*
X136225000Y-98166594D01*
X134975000Y-98166594D01*
X134850316Y-98190785D01*
X134740730Y-98262771D01*
X134667375Y-98371445D01*
X134641594Y-98500000D01*
X81377000Y-98500000D01*
X81377000Y-96793717D01*
X81474801Y-97030414D01*
X81847623Y-97403887D01*
X82334987Y-97606259D01*
X82862697Y-97606719D01*
X83350414Y-97405199D01*
X83723887Y-97032377D01*
X83926259Y-96545013D01*
X83926719Y-96017303D01*
X83725199Y-95529586D01*
X83352377Y-95156113D01*
X83218471Y-95100510D01*
X88667104Y-95100510D01*
X88667104Y-97099490D01*
X88691295Y-97224174D01*
X88763281Y-97333760D01*
X88871955Y-97407115D01*
X89000510Y-97432896D01*
X90999490Y-97432896D01*
X91124174Y-97408705D01*
X91233760Y-97336719D01*
X91307115Y-97228045D01*
X91332896Y-97099490D01*
X91332896Y-96824171D01*
X150072891Y-96824171D01*
X150168145Y-97054703D01*
X150344369Y-97231235D01*
X150574735Y-97326891D01*
X150824171Y-97327109D01*
X151054703Y-97231855D01*
X151231235Y-97055631D01*
X151265065Y-96974159D01*
X151587224Y-96652000D01*
X151728840Y-96652000D01*
X151742705Y-96723464D01*
X151814691Y-96833050D01*
X151923365Y-96906405D01*
X152051920Y-96932186D01*
X152849480Y-96932186D01*
X152974164Y-96907995D01*
X153083750Y-96836009D01*
X153157105Y-96727335D01*
X153182886Y-96598780D01*
X153182886Y-95801220D01*
X153217114Y-95801220D01*
X153217114Y-96598780D01*
X153241305Y-96723464D01*
X153313291Y-96833050D01*
X153421965Y-96906405D01*
X153550520Y-96932186D01*
X154348080Y-96932186D01*
X154472764Y-96907995D01*
X154582350Y-96836009D01*
X154655705Y-96727335D01*
X154670813Y-96652000D01*
X154712776Y-96652000D01*
X154972989Y-96912213D01*
X154972891Y-97024171D01*
X155068145Y-97254703D01*
X155244369Y-97431235D01*
X155474735Y-97526891D01*
X155724171Y-97527109D01*
X155954703Y-97431855D01*
X156131235Y-97255631D01*
X156226891Y-97025265D01*
X156227109Y-96775829D01*
X156131855Y-96545297D01*
X155955631Y-96368765D01*
X155725265Y-96273109D01*
X155612235Y-96273010D01*
X155219612Y-95880388D01*
X155072973Y-95782406D01*
X154900000Y-95748000D01*
X154671160Y-95748000D01*
X154657295Y-95676536D01*
X154585309Y-95566950D01*
X154476635Y-95493595D01*
X154348080Y-95467814D01*
X153550520Y-95467814D01*
X153425836Y-95492005D01*
X153316250Y-95563991D01*
X153242895Y-95672665D01*
X153217114Y-95801220D01*
X153182886Y-95801220D01*
X153182886Y-95801220D01*
X153158695Y-95676536D01*
X153086709Y-95566950D01*
X152978035Y-95493595D01*
X152849480Y-95467814D01*
X152051920Y-95467814D01*
X151927236Y-95492005D01*
X151817650Y-95563991D01*
X151744295Y-95672665D01*
X151729187Y-95748000D01*
X151400000Y-95748000D01*
X151227027Y-95782406D01*
X151080388Y-95880388D01*
X150869358Y-96091418D01*
X150825265Y-96073109D01*
X150575829Y-96072891D01*
X150345297Y-96168145D01*
X150168765Y-96344369D01*
X150073109Y-96574735D01*
X150072891Y-96824171D01*
X91332896Y-96824171D01*
X91332896Y-95100510D01*
X91308705Y-94975826D01*
X91236719Y-94866240D01*
X91128045Y-94792885D01*
X90999490Y-94767104D01*
X89000510Y-94767104D01*
X88875826Y-94791295D01*
X88766240Y-94863281D01*
X88692885Y-94971955D01*
X88667104Y-95100510D01*
X83218471Y-95100510D01*
X82865013Y-94953741D01*
X82337303Y-94953281D01*
X81849586Y-95154801D01*
X81476113Y-95527623D01*
X81377000Y-95766313D01*
X81377000Y-94300000D01*
X91966594Y-94300000D01*
X91966594Y-95700000D01*
X91990785Y-95824684D01*
X92062771Y-95934270D01*
X92171445Y-96007625D01*
X92300000Y-96033406D01*
X93700000Y-96033406D01*
X93824684Y-96009215D01*
X93934270Y-95937229D01*
X94007625Y-95828555D01*
X94033406Y-95700000D01*
X94033406Y-94824171D01*
X146072891Y-94824171D01*
X146168145Y-95054703D01*
X146344369Y-95231235D01*
X146574735Y-95326891D01*
X146824171Y-95327109D01*
X147054703Y-95231855D01*
X147134698Y-95152000D01*
X147200000Y-95152000D01*
X147372973Y-95117594D01*
X147519612Y-95019612D01*
X149887224Y-92652000D01*
X151758244Y-92652000D01*
X151744295Y-92672665D01*
X151729187Y-92748000D01*
X151100000Y-92748000D01*
X150927027Y-92782406D01*
X150780388Y-92880388D01*
X150587787Y-93072989D01*
X150475829Y-93072891D01*
X150245297Y-93168145D01*
X150068765Y-93344369D01*
X149973109Y-93574735D01*
X149972891Y-93824171D01*
X150068145Y-94054703D01*
X150244369Y-94231235D01*
X150474735Y-94326891D01*
X150724171Y-94327109D01*
X150954703Y-94231855D01*
X151131235Y-94055631D01*
X151226891Y-93825265D01*
X151226990Y-93712234D01*
X151287224Y-93652000D01*
X151728840Y-93652000D01*
X151742705Y-93723464D01*
X151814691Y-93833050D01*
X151923365Y-93906405D01*
X152051920Y-93932186D01*
X152849480Y-93932186D01*
X152974164Y-93907995D01*
X153083750Y-93836009D01*
X153157105Y-93727335D01*
X153182886Y-93598780D01*
X153182886Y-92801220D01*
X153158695Y-92676536D01*
X153142578Y-92652000D01*
X153256844Y-92652000D01*
X153242895Y-92672665D01*
X153217114Y-92801220D01*
X153217114Y-93598780D01*
X153241305Y-93723464D01*
X153313291Y-93833050D01*
X153421965Y-93906405D01*
X153550520Y-93932186D01*
X154348080Y-93932186D01*
X154472764Y-93907995D01*
X154582350Y-93836009D01*
X154628465Y-93767690D01*
X154772989Y-93912213D01*
X154772891Y-94024171D01*
X154868145Y-94254703D01*
X155044369Y-94431235D01*
X155274735Y-94526891D01*
X155524171Y-94527109D01*
X155754703Y-94431855D01*
X155931235Y-94255631D01*
X156026891Y-94025265D01*
X156027109Y-93775829D01*
X155931855Y-93545297D01*
X155755631Y-93368765D01*
X155525265Y-93273109D01*
X155412235Y-93273010D01*
X155019612Y-92880388D01*
X154872973Y-92782406D01*
X154700000Y-92748000D01*
X154671160Y-92748000D01*
X154657295Y-92676536D01*
X154641178Y-92652000D01*
X160800000Y-92652000D01*
X160972973Y-92617594D01*
X161119612Y-92519612D01*
X162487225Y-91152000D01*
X171712776Y-91152000D01*
X171992171Y-91431395D01*
X171675681Y-91747334D01*
X171529891Y-92098433D01*
X171385631Y-91749297D01*
X171012666Y-91375681D01*
X170525115Y-91173231D01*
X169997202Y-91172771D01*
X169509297Y-91374369D01*
X169135681Y-91747334D01*
X168989891Y-92098433D01*
X168845631Y-91749297D01*
X168472666Y-91375681D01*
X167985115Y-91173231D01*
X167457202Y-91172771D01*
X166969297Y-91374369D01*
X166595681Y-91747334D01*
X166393231Y-92234885D01*
X166392771Y-92762798D01*
X166594369Y-93250703D01*
X166967334Y-93624319D01*
X167454885Y-93826769D01*
X167982798Y-93827229D01*
X168470703Y-93625631D01*
X168844319Y-93252666D01*
X168990109Y-92901567D01*
X169134369Y-93250703D01*
X169507334Y-93624319D01*
X169994885Y-93826769D01*
X170522798Y-93827229D01*
X171010703Y-93625631D01*
X171384319Y-93252666D01*
X171530109Y-92901567D01*
X171674369Y-93250703D01*
X172047334Y-93624319D01*
X172534885Y-93826769D01*
X173062798Y-93827229D01*
X173550703Y-93625631D01*
X173924319Y-93252666D01*
X174126769Y-92765115D01*
X174126771Y-92762798D01*
X176552771Y-92762798D01*
X176754369Y-93250703D01*
X177127334Y-93624319D01*
X177614885Y-93826769D01*
X178142798Y-93827229D01*
X178630703Y-93625631D01*
X179004319Y-93252666D01*
X179206769Y-92765115D01*
X179207229Y-92237202D01*
X179005631Y-91749297D01*
X178632666Y-91375681D01*
X178145115Y-91173231D01*
X177617202Y-91172771D01*
X177129297Y-91374369D01*
X176755681Y-91747334D01*
X176553231Y-92234885D01*
X176552771Y-92762798D01*
X174126771Y-92762798D01*
X174127229Y-92237202D01*
X173925631Y-91749297D01*
X173552666Y-91375681D01*
X173065115Y-91173231D01*
X173012409Y-91173185D01*
X172219612Y-90380388D01*
X172072973Y-90282406D01*
X171900000Y-90248000D01*
X162300000Y-90248000D01*
X162127027Y-90282406D01*
X161980387Y-90380388D01*
X160612776Y-91748000D01*
X149700000Y-91748000D01*
X149527027Y-91782406D01*
X149380388Y-91880388D01*
X147073805Y-94186971D01*
X147055631Y-94168765D01*
X146825265Y-94073109D01*
X146575829Y-94072891D01*
X146345297Y-94168145D01*
X146168765Y-94344369D01*
X146073109Y-94574735D01*
X146072891Y-94824171D01*
X94033406Y-94824171D01*
X94033406Y-94300000D01*
X94009215Y-94175316D01*
X93937229Y-94065730D01*
X93828555Y-93992375D01*
X93700000Y-93966594D01*
X92300000Y-93966594D01*
X92175316Y-93990785D01*
X92065730Y-94062771D01*
X91992375Y-94171445D01*
X91966594Y-94300000D01*
X81377000Y-94300000D01*
X81377000Y-92663392D01*
X86410278Y-92663392D01*
X86604660Y-93133832D01*
X86964275Y-93494075D01*
X87434375Y-93689278D01*
X87943392Y-93689722D01*
X88413832Y-93495340D01*
X88774075Y-93135725D01*
X88960217Y-92687446D01*
X89144660Y-93133832D01*
X89504275Y-93494075D01*
X89974375Y-93689278D01*
X90483392Y-93689722D01*
X90953832Y-93495340D01*
X91314075Y-93135725D01*
X91500217Y-92687446D01*
X91684660Y-93133832D01*
X92044275Y-93494075D01*
X92514375Y-93689278D01*
X93023392Y-93689722D01*
X93493832Y-93495340D01*
X93854075Y-93135725D01*
X94049278Y-92665625D01*
X94049340Y-92593485D01*
X104122830Y-92593485D01*
X104271256Y-92952703D01*
X104545851Y-93227778D01*
X104904810Y-93376830D01*
X105293485Y-93377170D01*
X105652703Y-93228744D01*
X105927778Y-92954149D01*
X106076830Y-92595190D01*
X106077170Y-92206515D01*
X105928744Y-91847297D01*
X105654149Y-91572222D01*
X105295190Y-91423170D01*
X104906515Y-91422830D01*
X104547297Y-91571256D01*
X104272222Y-91845851D01*
X104123170Y-92204810D01*
X104122830Y-92593485D01*
X94049340Y-92593485D01*
X94049722Y-92156608D01*
X93855340Y-91686168D01*
X93495725Y-91325925D01*
X93025625Y-91130722D01*
X92516608Y-91130278D01*
X92046168Y-91324660D01*
X91685925Y-91684275D01*
X91499783Y-92132554D01*
X91315340Y-91686168D01*
X90955725Y-91325925D01*
X90485625Y-91130722D01*
X89976608Y-91130278D01*
X89506168Y-91324660D01*
X89145925Y-91684275D01*
X88959783Y-92132554D01*
X88775340Y-91686168D01*
X88415725Y-91325925D01*
X87945625Y-91130722D01*
X87436608Y-91130278D01*
X86966168Y-91324660D01*
X86605925Y-91684275D01*
X86410722Y-92154375D01*
X86410278Y-92663392D01*
X81377000Y-92663392D01*
X81377000Y-90824171D01*
X149472891Y-90824171D01*
X149568145Y-91054703D01*
X149744369Y-91231235D01*
X149974735Y-91326891D01*
X150224171Y-91327109D01*
X150454703Y-91231855D01*
X150631235Y-91055631D01*
X150726891Y-90825265D01*
X150726990Y-90712234D01*
X150787224Y-90652000D01*
X151728840Y-90652000D01*
X151742705Y-90723464D01*
X151814691Y-90833050D01*
X151923365Y-90906405D01*
X152051920Y-90932186D01*
X152849480Y-90932186D01*
X152974164Y-90907995D01*
X153083750Y-90836009D01*
X153157105Y-90727335D01*
X153182886Y-90598780D01*
X153182886Y-89801220D01*
X153217114Y-89801220D01*
X153217114Y-90598780D01*
X153241305Y-90723464D01*
X153313291Y-90833050D01*
X153421965Y-90906405D01*
X153550520Y-90932186D01*
X154348080Y-90932186D01*
X154472764Y-90907995D01*
X154582350Y-90836009D01*
X154628466Y-90767690D01*
X154872989Y-91012213D01*
X154872891Y-91124171D01*
X154968145Y-91354703D01*
X155144369Y-91531235D01*
X155374735Y-91626891D01*
X155624171Y-91627109D01*
X155854703Y-91531855D01*
X156031235Y-91355631D01*
X156126891Y-91125265D01*
X156127109Y-90875829D01*
X156031855Y-90645297D01*
X155855631Y-90468765D01*
X155625265Y-90373109D01*
X155512234Y-90373010D01*
X155019612Y-89880388D01*
X154872973Y-89782406D01*
X154700000Y-89748000D01*
X154671160Y-89748000D01*
X154657295Y-89676536D01*
X154585309Y-89566950D01*
X154476635Y-89493595D01*
X154348080Y-89467814D01*
X153550520Y-89467814D01*
X153425836Y-89492005D01*
X153316250Y-89563991D01*
X153242895Y-89672665D01*
X153217114Y-89801220D01*
X153182886Y-89801220D01*
X153182886Y-89801220D01*
X153158695Y-89676536D01*
X153086709Y-89566950D01*
X152978035Y-89493595D01*
X152849480Y-89467814D01*
X152051920Y-89467814D01*
X151927236Y-89492005D01*
X151817650Y-89563991D01*
X151744295Y-89672665D01*
X151729187Y-89748000D01*
X150600000Y-89748000D01*
X150427027Y-89782406D01*
X150280388Y-89880388D01*
X150087787Y-90072989D01*
X149975829Y-90072891D01*
X149745297Y-90168145D01*
X149568765Y-90344369D01*
X149473109Y-90574735D01*
X149472891Y-90824171D01*
X81377000Y-90824171D01*
X81377000Y-88624171D01*
X136772891Y-88624171D01*
X136868145Y-88854703D01*
X137044369Y-89031235D01*
X137274735Y-89126891D01*
X137524171Y-89127109D01*
X137754703Y-89031855D01*
X137832047Y-88954646D01*
X137840785Y-88999684D01*
X137912771Y-89109270D01*
X138021445Y-89182625D01*
X138150000Y-89208406D01*
X138950000Y-89208406D01*
X139074684Y-89184215D01*
X139184270Y-89112229D01*
X139257625Y-89003555D01*
X139283406Y-88875000D01*
X139283406Y-88125000D01*
X139259215Y-88000316D01*
X139187229Y-87890730D01*
X139088624Y-87824171D01*
X149372891Y-87824171D01*
X149468145Y-88054703D01*
X149644369Y-88231235D01*
X149874735Y-88326891D01*
X150124171Y-88327109D01*
X150354703Y-88231855D01*
X150531235Y-88055631D01*
X150626891Y-87825265D01*
X150626990Y-87712234D01*
X150687224Y-87652000D01*
X151728840Y-87652000D01*
X151742705Y-87723464D01*
X151814691Y-87833050D01*
X151923365Y-87906405D01*
X152051920Y-87932186D01*
X152849480Y-87932186D01*
X152974164Y-87907995D01*
X153083750Y-87836009D01*
X153157105Y-87727335D01*
X153182886Y-87598780D01*
X153182886Y-86801220D01*
X153217114Y-86801220D01*
X153217114Y-87598780D01*
X153241305Y-87723464D01*
X153313291Y-87833050D01*
X153421965Y-87906405D01*
X153550520Y-87932186D01*
X154348080Y-87932186D01*
X154472764Y-87907995D01*
X154582350Y-87836009D01*
X154655705Y-87727335D01*
X154670813Y-87652000D01*
X154912776Y-87652000D01*
X154972989Y-87712213D01*
X154972891Y-87824171D01*
X155068145Y-88054703D01*
X155244369Y-88231235D01*
X155474735Y-88326891D01*
X155724171Y-88327109D01*
X155954703Y-88231855D01*
X156131235Y-88055631D01*
X156226891Y-87825265D01*
X156227109Y-87575829D01*
X156131855Y-87345297D01*
X155955631Y-87168765D01*
X155725265Y-87073109D01*
X155612234Y-87073010D01*
X155419612Y-86880388D01*
X155272973Y-86782406D01*
X155100000Y-86748000D01*
X154671160Y-86748000D01*
X154657295Y-86676536D01*
X154585309Y-86566950D01*
X154476635Y-86493595D01*
X154348080Y-86467814D01*
X153550520Y-86467814D01*
X153425836Y-86492005D01*
X153316250Y-86563991D01*
X153242895Y-86672665D01*
X153217114Y-86801220D01*
X153182886Y-86801220D01*
X153182886Y-86801220D01*
X153158695Y-86676536D01*
X153086709Y-86566950D01*
X152978035Y-86493595D01*
X152849480Y-86467814D01*
X152051920Y-86467814D01*
X151927236Y-86492005D01*
X151817650Y-86563991D01*
X151744295Y-86672665D01*
X151729187Y-86748000D01*
X150500000Y-86748000D01*
X150327027Y-86782406D01*
X150180388Y-86880388D01*
X149987787Y-87072989D01*
X149875829Y-87072891D01*
X149645297Y-87168145D01*
X149468765Y-87344369D01*
X149373109Y-87574735D01*
X149372891Y-87824171D01*
X139088624Y-87824171D01*
X139078555Y-87817375D01*
X138950000Y-87791594D01*
X138150000Y-87791594D01*
X138025316Y-87815785D01*
X137915730Y-87887771D01*
X137842375Y-87996445D01*
X137832486Y-88045755D01*
X137755631Y-87968765D01*
X137525265Y-87873109D01*
X137275829Y-87872891D01*
X137045297Y-87968145D01*
X136868765Y-88144369D01*
X136773109Y-88374735D01*
X136772891Y-88624171D01*
X81377000Y-88624171D01*
X81377000Y-86633717D01*
X81474801Y-86870414D01*
X81847623Y-87243887D01*
X82334987Y-87446259D01*
X82862697Y-87446719D01*
X83350414Y-87245199D01*
X83723887Y-86872377D01*
X83774702Y-86750000D01*
X104116594Y-86750000D01*
X104116594Y-88050000D01*
X104140785Y-88174684D01*
X104212771Y-88284270D01*
X104321445Y-88357625D01*
X104450000Y-88383406D01*
X105750000Y-88383406D01*
X105874684Y-88359215D01*
X105984270Y-88287229D01*
X106057625Y-88178555D01*
X106083406Y-88050000D01*
X106083406Y-86750000D01*
X115216594Y-86750000D01*
X115216594Y-88050000D01*
X115240785Y-88174684D01*
X115312771Y-88284270D01*
X115421445Y-88357625D01*
X115550000Y-88383406D01*
X116850000Y-88383406D01*
X116974684Y-88359215D01*
X117084270Y-88287229D01*
X117157625Y-88178555D01*
X117183406Y-88050000D01*
X117183406Y-86750000D01*
X117159215Y-86625316D01*
X117087229Y-86515730D01*
X116978555Y-86442375D01*
X116850000Y-86416594D01*
X115550000Y-86416594D01*
X115425316Y-86440785D01*
X115315730Y-86512771D01*
X115242375Y-86621445D01*
X115216594Y-86750000D01*
X106083406Y-86750000D01*
X106083406Y-86750000D01*
X106059215Y-86625316D01*
X105987229Y-86515730D01*
X105878555Y-86442375D01*
X105750000Y-86416594D01*
X104450000Y-86416594D01*
X104325316Y-86440785D01*
X104215730Y-86512771D01*
X104142375Y-86621445D01*
X104116594Y-86750000D01*
X83774702Y-86750000D01*
X83926259Y-86385013D01*
X83926719Y-85857303D01*
X83725199Y-85369586D01*
X83399574Y-85043392D01*
X86410278Y-85043392D01*
X86604660Y-85513832D01*
X86964275Y-85874075D01*
X87434375Y-86069278D01*
X87943392Y-86069722D01*
X88413832Y-85875340D01*
X88774075Y-85515725D01*
X88960217Y-85067446D01*
X89144660Y-85513832D01*
X89504275Y-85874075D01*
X89974375Y-86069278D01*
X90483392Y-86069722D01*
X90953832Y-85875340D01*
X91314075Y-85515725D01*
X91500217Y-85067446D01*
X91684660Y-85513832D01*
X92044275Y-85874075D01*
X92514375Y-86069278D01*
X93023392Y-86069722D01*
X93493832Y-85875340D01*
X93854075Y-85515725D01*
X94040217Y-85067446D01*
X94224660Y-85513832D01*
X94584275Y-85874075D01*
X95054375Y-86069278D01*
X95563392Y-86069722D01*
X96033832Y-85875340D01*
X96394075Y-85515725D01*
X96589278Y-85045625D01*
X96589722Y-84536608D01*
X96395340Y-84066168D01*
X96035725Y-83705925D01*
X95565625Y-83510722D01*
X95056608Y-83510278D01*
X94586168Y-83704660D01*
X94225925Y-84064275D01*
X94039783Y-84512554D01*
X93855340Y-84066168D01*
X93495725Y-83705925D01*
X93025625Y-83510722D01*
X92516608Y-83510278D01*
X92046168Y-83704660D01*
X91685925Y-84064275D01*
X91499783Y-84512554D01*
X91315340Y-84066168D01*
X90955725Y-83705925D01*
X90485625Y-83510722D01*
X89976608Y-83510278D01*
X89506168Y-83704660D01*
X89145925Y-84064275D01*
X88959783Y-84512554D01*
X88775340Y-84066168D01*
X88415725Y-83705925D01*
X87945625Y-83510722D01*
X87436608Y-83510278D01*
X86966168Y-83704660D01*
X86605925Y-84064275D01*
X86410722Y-84534375D01*
X86410278Y-85043392D01*
X83399574Y-85043392D01*
X83352377Y-84996113D01*
X82865013Y-84793741D01*
X82337303Y-84793281D01*
X81849586Y-84994801D01*
X81476113Y-85367623D01*
X81377000Y-85606313D01*
X81377000Y-82862697D01*
X106593281Y-82862697D01*
X106794801Y-83350414D01*
X107167623Y-83723887D01*
X107654987Y-83926259D01*
X108182697Y-83926719D01*
X108670414Y-83725199D01*
X109043887Y-83352377D01*
X109246259Y-82865013D01*
X109246261Y-82862697D01*
X116753281Y-82862697D01*
X116954801Y-83350414D01*
X117327623Y-83723887D01*
X117814987Y-83926259D01*
X118342697Y-83926719D01*
X118830414Y-83725199D01*
X119116110Y-83440000D01*
X119547003Y-83440000D01*
X119628985Y-83852150D01*
X119862449Y-84201554D01*
X120211853Y-84435018D01*
X120624003Y-84517000D01*
X121175997Y-84517000D01*
X121588147Y-84435018D01*
X121937551Y-84201554D01*
X122122892Y-83924171D01*
X147672891Y-83924171D01*
X147768145Y-84154703D01*
X147944369Y-84331235D01*
X148174735Y-84426891D01*
X148287765Y-84426990D01*
X148380387Y-84519612D01*
X148422873Y-84548000D01*
X148527027Y-84617594D01*
X148700000Y-84652000D01*
X151728840Y-84652000D01*
X151742705Y-84723464D01*
X151814691Y-84833050D01*
X151923365Y-84906405D01*
X152051920Y-84932186D01*
X152849480Y-84932186D01*
X152974164Y-84907995D01*
X153083750Y-84836009D01*
X153157105Y-84727335D01*
X153182886Y-84598780D01*
X153182886Y-83801220D01*
X153217114Y-83801220D01*
X153217114Y-84598780D01*
X153241305Y-84723464D01*
X153313291Y-84833050D01*
X153421965Y-84906405D01*
X153550520Y-84932186D01*
X154292962Y-84932186D01*
X154872989Y-85512213D01*
X154872891Y-85624171D01*
X154968145Y-85854703D01*
X155144369Y-86031235D01*
X155374735Y-86126891D01*
X155624171Y-86127109D01*
X155854703Y-86031855D01*
X156031235Y-85855631D01*
X156126891Y-85625265D01*
X156127109Y-85375829D01*
X156031855Y-85145297D01*
X155855631Y-84968765D01*
X155625265Y-84873109D01*
X155512234Y-84873010D01*
X154681486Y-84042262D01*
X154681486Y-83801220D01*
X154657295Y-83676536D01*
X154585309Y-83566950D01*
X154476635Y-83493595D01*
X154348080Y-83467814D01*
X153550520Y-83467814D01*
X153425836Y-83492005D01*
X153316250Y-83563991D01*
X153242895Y-83672665D01*
X153217114Y-83801220D01*
X153182886Y-83801220D01*
X153182886Y-83801220D01*
X153158695Y-83676536D01*
X153086709Y-83566950D01*
X152978035Y-83493595D01*
X152849480Y-83467814D01*
X152051920Y-83467814D01*
X151927236Y-83492005D01*
X151817650Y-83563991D01*
X151744295Y-83672665D01*
X151729187Y-83748000D01*
X148927046Y-83748000D01*
X148927109Y-83675829D01*
X148831855Y-83445297D01*
X148655631Y-83268765D01*
X148425265Y-83173109D01*
X148175829Y-83172891D01*
X147945297Y-83268145D01*
X147768765Y-83444369D01*
X147673109Y-83674735D01*
X147672891Y-83924171D01*
X122122892Y-83924171D01*
X122171015Y-83852150D01*
X122252997Y-83440000D01*
X122171015Y-83027850D01*
X122080974Y-82893093D01*
X176222796Y-82893093D01*
X176401606Y-83325846D01*
X176732412Y-83657230D01*
X177164853Y-83836795D01*
X177633093Y-83837204D01*
X178065846Y-83658394D01*
X178397230Y-83327588D01*
X178576795Y-82895147D01*
X178577204Y-82426907D01*
X178398394Y-81994154D01*
X178067588Y-81662770D01*
X177635147Y-81483205D01*
X177166907Y-81482796D01*
X176734154Y-81661606D01*
X176402770Y-81992412D01*
X176223205Y-82424853D01*
X176222796Y-82893093D01*
X122080974Y-82893093D01*
X121937551Y-82678446D01*
X121588147Y-82444982D01*
X121175997Y-82363000D01*
X120624003Y-82363000D01*
X120211853Y-82444982D01*
X119862449Y-82678446D01*
X119628985Y-83027850D01*
X119547003Y-83440000D01*
X119116110Y-83440000D01*
X119203887Y-83352377D01*
X119406259Y-82865013D01*
X119406719Y-82337303D01*
X119205199Y-81849586D01*
X119148510Y-81792798D01*
X128772771Y-81792798D01*
X128974369Y-82280703D01*
X129347334Y-82654319D01*
X129834885Y-82856769D01*
X130362798Y-82857229D01*
X130850703Y-82655631D01*
X131224319Y-82282666D01*
X131290132Y-82124171D01*
X149972891Y-82124171D01*
X150068145Y-82354703D01*
X150244369Y-82531235D01*
X150474735Y-82626891D01*
X150724171Y-82627109D01*
X150954703Y-82531855D01*
X151131235Y-82355631D01*
X151226891Y-82125265D01*
X151226990Y-82012234D01*
X151587224Y-81652000D01*
X151728840Y-81652000D01*
X151742705Y-81723464D01*
X151814691Y-81833050D01*
X151923365Y-81906405D01*
X152051920Y-81932186D01*
X152849480Y-81932186D01*
X152974164Y-81907995D01*
X153083750Y-81836009D01*
X153157105Y-81727335D01*
X153182886Y-81598780D01*
X153182886Y-80801220D01*
X153217114Y-80801220D01*
X153217114Y-81598780D01*
X153241305Y-81723464D01*
X153313291Y-81833050D01*
X153421965Y-81906405D01*
X153550520Y-81932186D01*
X154348080Y-81932186D01*
X154472764Y-81907995D01*
X154530708Y-81869932D01*
X154672989Y-82012213D01*
X154672891Y-82124171D01*
X154768145Y-82354703D01*
X154944369Y-82531235D01*
X155174735Y-82626891D01*
X155424171Y-82627109D01*
X155654703Y-82531855D01*
X155831235Y-82355631D01*
X155926891Y-82125265D01*
X155927109Y-81875829D01*
X155831855Y-81645297D01*
X155655631Y-81468765D01*
X155425265Y-81373109D01*
X155312234Y-81373010D01*
X154819612Y-80880388D01*
X154678560Y-80786139D01*
X154657295Y-80676536D01*
X154585309Y-80566950D01*
X154476635Y-80493595D01*
X154348080Y-80467814D01*
X153550520Y-80467814D01*
X153425836Y-80492005D01*
X153316250Y-80563991D01*
X153242895Y-80672665D01*
X153217114Y-80801220D01*
X153182886Y-80801220D01*
X153182886Y-80801220D01*
X153158695Y-80676536D01*
X153086709Y-80566950D01*
X152978035Y-80493595D01*
X152849480Y-80467814D01*
X152051920Y-80467814D01*
X151927236Y-80492005D01*
X151817650Y-80563991D01*
X151744295Y-80672665D01*
X151729187Y-80748000D01*
X151400000Y-80748000D01*
X151227027Y-80782406D01*
X151080388Y-80880388D01*
X150587787Y-81372989D01*
X150475829Y-81372891D01*
X150245297Y-81468145D01*
X150068765Y-81644369D01*
X149973109Y-81874735D01*
X149972891Y-82124171D01*
X131290132Y-82124171D01*
X131426769Y-81795115D01*
X131427229Y-81267202D01*
X131225631Y-80779297D01*
X130852666Y-80405681D01*
X130365115Y-80203231D01*
X129837202Y-80202771D01*
X129349297Y-80404369D01*
X128975681Y-80777334D01*
X128773231Y-81264885D01*
X128772771Y-81792798D01*
X119148510Y-81792798D01*
X118832377Y-81476113D01*
X118345013Y-81273741D01*
X117817303Y-81273281D01*
X117329586Y-81474801D01*
X116956113Y-81847623D01*
X116753741Y-82334987D01*
X116753281Y-82862697D01*
X109246261Y-82862697D01*
X109246719Y-82337303D01*
X109045199Y-81849586D01*
X108672377Y-81476113D01*
X108185013Y-81273741D01*
X107657303Y-81273281D01*
X107169586Y-81474801D01*
X106796113Y-81847623D01*
X106593741Y-82334987D01*
X106593281Y-82862697D01*
X81377000Y-82862697D01*
X81377000Y-80973093D01*
X83622796Y-80973093D01*
X83801606Y-81405846D01*
X84132412Y-81737230D01*
X84564853Y-81916795D01*
X85033093Y-81917204D01*
X85465846Y-81738394D01*
X85797230Y-81407588D01*
X85976795Y-80975147D01*
X85977204Y-80506907D01*
X85798394Y-80074154D01*
X85587306Y-79862697D01*
X106593281Y-79862697D01*
X106794801Y-80350414D01*
X107167623Y-80723887D01*
X107654987Y-80926259D01*
X108182697Y-80926719D01*
X108670414Y-80725199D01*
X109043887Y-80352377D01*
X109246259Y-79865013D01*
X109246719Y-79337303D01*
X109045199Y-78849586D01*
X108672377Y-78476113D01*
X108392747Y-78360000D01*
X119547003Y-78360000D01*
X119628985Y-78772150D01*
X119862449Y-79121554D01*
X120211853Y-79355018D01*
X120624003Y-79437000D01*
X121175997Y-79437000D01*
X121588147Y-79355018D01*
X121937551Y-79121554D01*
X122085588Y-78900000D01*
X142091594Y-78900000D01*
X142091594Y-79700000D01*
X142115785Y-79824684D01*
X142187771Y-79934270D01*
X142296445Y-80007625D01*
X142348000Y-80017964D01*
X142348000Y-80065272D01*
X142268765Y-80144369D01*
X142173109Y-80374735D01*
X142172891Y-80624171D01*
X142268145Y-80854703D01*
X142444369Y-81031235D01*
X142674735Y-81126891D01*
X142924171Y-81127109D01*
X143154703Y-81031855D01*
X143234698Y-80952000D01*
X148165272Y-80952000D01*
X148244369Y-81031235D01*
X148474735Y-81126891D01*
X148724171Y-81127109D01*
X148954703Y-81031855D01*
X149131235Y-80855631D01*
X149226891Y-80625265D01*
X149227109Y-80375829D01*
X149131855Y-80145297D01*
X148955631Y-79968765D01*
X148725265Y-79873109D01*
X148475829Y-79872891D01*
X148245297Y-79968145D01*
X148165302Y-80048000D01*
X146858406Y-80048000D01*
X146858406Y-79050000D01*
X146834215Y-78925316D01*
X146762229Y-78815730D01*
X146653555Y-78742375D01*
X146525000Y-78716594D01*
X145275000Y-78716594D01*
X145150316Y-78740785D01*
X145040730Y-78812771D01*
X144967375Y-78921445D01*
X144941594Y-79050000D01*
X144941594Y-79098000D01*
X144684728Y-79098000D01*
X144605631Y-79018765D01*
X144375265Y-78923109D01*
X144125829Y-78922891D01*
X143895297Y-79018145D01*
X143718765Y-79194369D01*
X143623109Y-79424735D01*
X143622891Y-79674171D01*
X143718145Y-79904703D01*
X143861192Y-80048000D01*
X143252000Y-80048000D01*
X143252000Y-80018467D01*
X143299684Y-80009215D01*
X143409270Y-79937229D01*
X143482625Y-79828555D01*
X143508406Y-79700000D01*
X143508406Y-78900000D01*
X143484215Y-78775316D01*
X143412229Y-78665730D01*
X143303555Y-78592375D01*
X143175000Y-78566594D01*
X142425000Y-78566594D01*
X142300316Y-78590785D01*
X142190730Y-78662771D01*
X142117375Y-78771445D01*
X142091594Y-78900000D01*
X122085588Y-78900000D01*
X122171015Y-78772150D01*
X122252997Y-78360000D01*
X122171015Y-77947850D01*
X121937551Y-77598446D01*
X121588147Y-77364982D01*
X121175997Y-77283000D01*
X120624003Y-77283000D01*
X120211853Y-77364982D01*
X119862449Y-77598446D01*
X119628985Y-77947850D01*
X119547003Y-78360000D01*
X108392747Y-78360000D01*
X108185013Y-78273741D01*
X107657303Y-78273281D01*
X107169586Y-78474801D01*
X106796113Y-78847623D01*
X106593741Y-79334987D01*
X106593281Y-79862697D01*
X85587306Y-79862697D01*
X85467588Y-79742770D01*
X85035147Y-79563205D01*
X84566907Y-79562796D01*
X84134154Y-79741606D01*
X83802770Y-80072412D01*
X83623205Y-80504853D01*
X83622796Y-80973093D01*
X81377000Y-80973093D01*
X81377000Y-71750000D01*
X112416594Y-71750000D01*
X112416594Y-73050000D01*
X112440785Y-73174684D01*
X112512771Y-73284270D01*
X112621445Y-73357625D01*
X112750000Y-73383406D01*
X114050000Y-73383406D01*
X114174684Y-73359215D01*
X114284270Y-73287229D01*
X114343149Y-73200000D01*
X119916594Y-73200000D01*
X119916594Y-74500000D01*
X119940785Y-74624684D01*
X120012771Y-74734270D01*
X120121445Y-74807625D01*
X120250000Y-74833406D01*
X121550000Y-74833406D01*
X121674684Y-74809215D01*
X121784270Y-74737229D01*
X121857625Y-74628555D01*
X121883406Y-74500000D01*
X121883406Y-73200000D01*
X121859215Y-73075316D01*
X121787229Y-72965730D01*
X121678555Y-72892375D01*
X121550000Y-72866594D01*
X120250000Y-72866594D01*
X120125316Y-72890785D01*
X120015730Y-72962771D01*
X119942375Y-73071445D01*
X119916594Y-73200000D01*
X114343149Y-73200000D01*
X114357625Y-73178555D01*
X114383406Y-73050000D01*
X114383406Y-71750000D01*
X114360667Y-71632798D01*
X128772771Y-71632798D01*
X128974369Y-72120703D01*
X129347334Y-72494319D01*
X129698433Y-72640109D01*
X129349297Y-72784369D01*
X128975681Y-73157334D01*
X128773231Y-73644885D01*
X128772771Y-74172798D01*
X128974369Y-74660703D01*
X129347334Y-75034319D01*
X129698433Y-75180109D01*
X129349297Y-75324369D01*
X128975681Y-75697334D01*
X128773231Y-76184885D01*
X128772771Y-76712798D01*
X128974369Y-77200703D01*
X129347334Y-77574319D01*
X129834885Y-77776769D01*
X130362798Y-77777229D01*
X130850703Y-77575631D01*
X131224319Y-77202666D01*
X131426769Y-76715115D01*
X131427229Y-76187202D01*
X131225631Y-75699297D01*
X130852666Y-75325681D01*
X130501567Y-75179891D01*
X130850703Y-75035631D01*
X131224319Y-74662666D01*
X131426769Y-74175115D01*
X131427229Y-73647202D01*
X131225631Y-73159297D01*
X130852666Y-72785681D01*
X130501567Y-72639891D01*
X130850703Y-72495631D01*
X131224319Y-72122666D01*
X131426769Y-71635115D01*
X131426832Y-71561818D01*
X160372684Y-71561818D01*
X160650242Y-72233560D01*
X161163736Y-72747952D01*
X161834993Y-73026682D01*
X162561818Y-73027316D01*
X163233560Y-72749758D01*
X163747952Y-72236264D01*
X164026682Y-71565007D01*
X164027316Y-70838182D01*
X163749758Y-70166440D01*
X163236264Y-69652048D01*
X162565007Y-69373318D01*
X161838182Y-69372684D01*
X161166440Y-69650242D01*
X160652048Y-70163736D01*
X160373318Y-70834993D01*
X160372684Y-71561818D01*
X131426832Y-71561818D01*
X131427229Y-71107202D01*
X131225631Y-70619297D01*
X130852666Y-70245681D01*
X130365115Y-70043231D01*
X129837202Y-70042771D01*
X129349297Y-70244369D01*
X128975681Y-70617334D01*
X128773231Y-71104885D01*
X128772771Y-71632798D01*
X114360667Y-71632798D01*
X114359215Y-71625316D01*
X114287229Y-71515730D01*
X114178555Y-71442375D01*
X114050000Y-71416594D01*
X112750000Y-71416594D01*
X112625316Y-71440785D01*
X112515730Y-71512771D01*
X112442375Y-71621445D01*
X112416594Y-71750000D01*
X81377000Y-71750000D01*
X81377000Y-69641818D01*
X98172684Y-69641818D01*
X98450242Y-70313560D01*
X98963736Y-70827952D01*
X99634993Y-71106682D01*
X100361818Y-71107316D01*
X101033560Y-70829758D01*
X101547952Y-70316264D01*
X101826682Y-69645007D01*
X101827316Y-68918182D01*
X101819804Y-68900000D01*
X141591594Y-68900000D01*
X141591594Y-69700000D01*
X141615785Y-69824684D01*
X141687771Y-69934270D01*
X141796445Y-70007625D01*
X141925000Y-70033406D01*
X142675000Y-70033406D01*
X142799684Y-70009215D01*
X142909270Y-69937229D01*
X142982625Y-69828555D01*
X143008406Y-69700000D01*
X143008406Y-68900000D01*
X142984215Y-68775316D01*
X142912229Y-68665730D01*
X142803555Y-68592375D01*
X142754245Y-68582486D01*
X142831235Y-68505631D01*
X142926891Y-68275265D01*
X142927109Y-68025829D01*
X142872264Y-67893093D01*
X176222796Y-67893093D01*
X176401606Y-68325846D01*
X176732412Y-68657230D01*
X177164853Y-68836795D01*
X177633093Y-68837204D01*
X178065846Y-68658394D01*
X178397230Y-68327588D01*
X178576795Y-67895147D01*
X178577204Y-67426907D01*
X178398394Y-66994154D01*
X178067588Y-66662770D01*
X177635147Y-66483205D01*
X177166907Y-66482796D01*
X176734154Y-66661606D01*
X176402770Y-66992412D01*
X176223205Y-67424853D01*
X176222796Y-67893093D01*
X142872264Y-67893093D01*
X142831855Y-67795297D01*
X142655631Y-67618765D01*
X142425265Y-67523109D01*
X142175829Y-67522891D01*
X141945297Y-67618145D01*
X141768765Y-67794369D01*
X141673109Y-68024735D01*
X141672891Y-68274171D01*
X141768145Y-68504703D01*
X141845354Y-68582047D01*
X141800316Y-68590785D01*
X141690730Y-68662771D01*
X141617375Y-68771445D01*
X141591594Y-68900000D01*
X101819804Y-68900000D01*
X101549758Y-68246440D01*
X101036264Y-67732048D01*
X100365007Y-67453318D01*
X99638182Y-67452684D01*
X98966440Y-67730242D01*
X98452048Y-68243736D01*
X98173318Y-68914993D01*
X98172684Y-69641818D01*
X81377000Y-69641818D01*
X81377000Y-65973093D01*
X83622796Y-65973093D01*
X83801606Y-66405846D01*
X84132412Y-66737230D01*
X84564853Y-66916795D01*
X85033093Y-66917204D01*
X85465846Y-66738394D01*
X85797230Y-66407588D01*
X85976795Y-65975147D01*
X85977204Y-65506907D01*
X85798394Y-65074154D01*
X85467588Y-64742770D01*
X85035147Y-64563205D01*
X84566907Y-64562796D01*
X84134154Y-64741606D01*
X83802770Y-65072412D01*
X83623205Y-65504853D01*
X83622796Y-65973093D01*
X81377000Y-65973093D01*
X81377000Y-62700000D01*
X111866594Y-62700000D01*
X111866594Y-64700000D01*
X111890785Y-64824684D01*
X111962771Y-64934270D01*
X112071445Y-65007625D01*
X112200000Y-65033406D01*
X114200000Y-65033406D01*
X114324684Y-65009215D01*
X114434270Y-64937229D01*
X114507625Y-64828555D01*
X114533406Y-64700000D01*
X114533406Y-64254757D01*
X114614369Y-64450703D01*
X114987334Y-64824319D01*
X115474885Y-65026769D01*
X116002798Y-65027229D01*
X116490703Y-64825631D01*
X116864319Y-64452666D01*
X117066769Y-63965115D01*
X117067229Y-63437202D01*
X116865922Y-62950000D01*
X139916594Y-62950000D01*
X139916594Y-64350000D01*
X139940785Y-64474684D01*
X140012771Y-64584270D01*
X140121445Y-64657625D01*
X140250000Y-64683406D01*
X140750000Y-64683406D01*
X140874684Y-64659215D01*
X140899576Y-64642864D01*
X140921445Y-64657625D01*
X141050000Y-64683406D01*
X141452555Y-64683406D01*
X141373109Y-64874735D01*
X141372891Y-65124171D01*
X141468145Y-65354703D01*
X141644369Y-65531235D01*
X141874735Y-65626891D01*
X142124171Y-65627109D01*
X142354703Y-65531855D01*
X142531235Y-65355631D01*
X142626891Y-65125265D01*
X142627109Y-64875829D01*
X142538350Y-64661015D01*
X142650000Y-64683406D01*
X143150000Y-64683406D01*
X143274684Y-64659215D01*
X143384270Y-64587229D01*
X143457625Y-64478555D01*
X143483406Y-64350000D01*
X143483406Y-62950000D01*
X143459215Y-62825316D01*
X143387229Y-62715730D01*
X143278555Y-62642375D01*
X143150000Y-62616594D01*
X142650000Y-62616594D01*
X142525316Y-62640785D01*
X142500424Y-62657136D01*
X142478555Y-62642375D01*
X142350000Y-62616594D01*
X141850000Y-62616594D01*
X141752000Y-62635608D01*
X141752000Y-62505623D01*
X141826891Y-62325265D01*
X141827109Y-62075829D01*
X141731855Y-61845297D01*
X141555631Y-61668765D01*
X141325265Y-61573109D01*
X141075829Y-61572891D01*
X140845297Y-61668145D01*
X140668765Y-61844369D01*
X140573109Y-62074735D01*
X140572891Y-62324171D01*
X140668145Y-62554703D01*
X140729928Y-62616594D01*
X140250000Y-62616594D01*
X140125316Y-62640785D01*
X140015730Y-62712771D01*
X139942375Y-62821445D01*
X139916594Y-62950000D01*
X116865922Y-62950000D01*
X116865631Y-62949297D01*
X116492666Y-62575681D01*
X116005115Y-62373231D01*
X115477202Y-62372771D01*
X114989297Y-62574369D01*
X114615681Y-62947334D01*
X114533406Y-63145473D01*
X114533406Y-62700000D01*
X114509215Y-62575316D01*
X114437229Y-62465730D01*
X114328555Y-62392375D01*
X114200000Y-62366594D01*
X112200000Y-62366594D01*
X112075316Y-62390785D01*
X111965730Y-62462771D01*
X111892375Y-62571445D01*
X111866594Y-62700000D01*
X81377000Y-62700000D01*
X81377000Y-60981622D01*
X82072666Y-60981622D01*
X82365416Y-61690132D01*
X82907017Y-62232678D01*
X83615014Y-62526665D01*
X84381622Y-62527334D01*
X85090132Y-62234584D01*
X85632678Y-61692983D01*
X85926665Y-60984986D01*
X85926812Y-60815665D01*
X93930811Y-60815665D01*
X94096252Y-61216063D01*
X94402326Y-61522671D01*
X94802434Y-61688811D01*
X95235665Y-61689189D01*
X95636063Y-61523748D01*
X95942671Y-61217674D01*
X96108811Y-60817566D01*
X96108812Y-60815665D01*
X96470811Y-60815665D01*
X96636252Y-61216063D01*
X96942326Y-61522671D01*
X97342434Y-61688811D01*
X97775665Y-61689189D01*
X98176063Y-61523748D01*
X98482671Y-61217674D01*
X98648811Y-60817566D01*
X98648812Y-60815665D01*
X99010811Y-60815665D01*
X99176252Y-61216063D01*
X99482326Y-61522671D01*
X99882434Y-61688811D01*
X100315665Y-61689189D01*
X100716063Y-61523748D01*
X101022671Y-61217674D01*
X101188811Y-60817566D01*
X101188812Y-60815665D01*
X101550811Y-60815665D01*
X101716252Y-61216063D01*
X102022326Y-61522671D01*
X102422434Y-61688811D01*
X102855665Y-61689189D01*
X103256063Y-61523748D01*
X103562671Y-61217674D01*
X103728811Y-60817566D01*
X103728812Y-60815665D01*
X104090811Y-60815665D01*
X104256252Y-61216063D01*
X104562326Y-61522671D01*
X104962434Y-61688811D01*
X105395665Y-61689189D01*
X105459536Y-61662798D01*
X118932771Y-61662798D01*
X119134369Y-62150703D01*
X119507334Y-62524319D01*
X119994885Y-62726769D01*
X120522798Y-62727229D01*
X121010703Y-62525631D01*
X121384319Y-62152666D01*
X121530109Y-61801567D01*
X121674369Y-62150703D01*
X122047334Y-62524319D01*
X122534885Y-62726769D01*
X123062798Y-62727229D01*
X123550703Y-62525631D01*
X123924319Y-62152666D01*
X124126769Y-61665115D01*
X124127229Y-61137202D01*
X123925631Y-60649297D01*
X123552666Y-60275681D01*
X123065115Y-60073231D01*
X122537202Y-60072771D01*
X122049297Y-60274369D01*
X121675681Y-60647334D01*
X121529891Y-60998433D01*
X121385631Y-60649297D01*
X121012666Y-60275681D01*
X120525115Y-60073231D01*
X119997202Y-60072771D01*
X119509297Y-60274369D01*
X119135681Y-60647334D01*
X118933231Y-61134885D01*
X118932771Y-61662798D01*
X105459536Y-61662798D01*
X105796063Y-61523748D01*
X106102671Y-61217674D01*
X106268811Y-60817566D01*
X106269189Y-60384335D01*
X106103748Y-59983937D01*
X105797674Y-59677329D01*
X105397566Y-59511189D01*
X104964335Y-59510811D01*
X104563937Y-59676252D01*
X104257329Y-59982326D01*
X104091189Y-60382434D01*
X104090811Y-60815665D01*
X103728812Y-60815665D01*
X103729189Y-60384335D01*
X103563748Y-59983937D01*
X103257674Y-59677329D01*
X102857566Y-59511189D01*
X102424335Y-59510811D01*
X102023937Y-59676252D01*
X101717329Y-59982326D01*
X101551189Y-60382434D01*
X101550811Y-60815665D01*
X101188812Y-60815665D01*
X101189189Y-60384335D01*
X101023748Y-59983937D01*
X100717674Y-59677329D01*
X100317566Y-59511189D01*
X99884335Y-59510811D01*
X99483937Y-59676252D01*
X99177329Y-59982326D01*
X99011189Y-60382434D01*
X99010811Y-60815665D01*
X98648812Y-60815665D01*
X98649189Y-60384335D01*
X98483748Y-59983937D01*
X98177674Y-59677329D01*
X97777566Y-59511189D01*
X97344335Y-59510811D01*
X96943937Y-59676252D01*
X96637329Y-59982326D01*
X96471189Y-60382434D01*
X96470811Y-60815665D01*
X96108812Y-60815665D01*
X96109189Y-60384335D01*
X95943748Y-59983937D01*
X95637674Y-59677329D01*
X95237566Y-59511189D01*
X94804335Y-59510811D01*
X94403937Y-59676252D01*
X94097329Y-59982326D01*
X93931189Y-60382434D01*
X93930811Y-60815665D01*
X85926812Y-60815665D01*
X85927334Y-60218378D01*
X85634584Y-59509868D01*
X85474995Y-59350000D01*
X143916594Y-59350000D01*
X143916594Y-63150000D01*
X143940785Y-63274684D01*
X144012771Y-63384270D01*
X144121445Y-63457625D01*
X144250000Y-63483406D01*
X146750000Y-63483406D01*
X146874684Y-63459215D01*
X146984270Y-63387229D01*
X147057625Y-63278555D01*
X147083406Y-63150000D01*
X147083406Y-61662798D01*
X163432771Y-61662798D01*
X163634369Y-62150703D01*
X164007334Y-62524319D01*
X164494885Y-62726769D01*
X165022798Y-62727229D01*
X165510703Y-62525631D01*
X165884319Y-62152666D01*
X166030109Y-61801567D01*
X166174369Y-62150703D01*
X166547334Y-62524319D01*
X167034885Y-62726769D01*
X167562798Y-62727229D01*
X168050703Y-62525631D01*
X168424319Y-62152666D01*
X168626769Y-61665115D01*
X168627229Y-61137202D01*
X168562945Y-60981622D01*
X176072666Y-60981622D01*
X176365416Y-61690132D01*
X176907017Y-62232678D01*
X177615014Y-62526665D01*
X178381622Y-62527334D01*
X179090132Y-62234584D01*
X179632678Y-61692983D01*
X179926665Y-60984986D01*
X179927334Y-60218378D01*
X179634584Y-59509868D01*
X179092983Y-58967322D01*
X178384986Y-58673335D01*
X177618378Y-58672666D01*
X176909868Y-58965416D01*
X176367322Y-59507017D01*
X176073335Y-60215014D01*
X176072666Y-60981622D01*
X168562945Y-60981622D01*
X168425631Y-60649297D01*
X168052666Y-60275681D01*
X167565115Y-60073231D01*
X167037202Y-60072771D01*
X166549297Y-60274369D01*
X166175681Y-60647334D01*
X166029891Y-60998433D01*
X165885631Y-60649297D01*
X165512666Y-60275681D01*
X165025115Y-60073231D01*
X164497202Y-60072771D01*
X164009297Y-60274369D01*
X163635681Y-60647334D01*
X163433231Y-61134885D01*
X163432771Y-61662798D01*
X147083406Y-61662798D01*
X147083406Y-59350000D01*
X147059215Y-59225316D01*
X146987229Y-59115730D01*
X146878555Y-59042375D01*
X146750000Y-59016594D01*
X144250000Y-59016594D01*
X144125316Y-59040785D01*
X144015730Y-59112771D01*
X143942375Y-59221445D01*
X143916594Y-59350000D01*
X85474995Y-59350000D01*
X85092983Y-58967322D01*
X84384986Y-58673335D01*
X83618378Y-58672666D01*
X82909868Y-58965416D01*
X82367322Y-59507017D01*
X82073335Y-60215014D01*
X82072666Y-60981622D01*
X81377000Y-60981622D01*
X81377000Y-57977000D01*
X180623000Y-57977000D01*
X180623000Y-107223000D01*
X180623000Y-107223000D01*
G37*
X180623000Y-107223000D02*
X171317805Y-107223000D01*
X171419048Y-107071479D01*
X171435429Y-106989125D01*
X172796778Y-105627777D01*
X172976048Y-105359479D01*
X173002647Y-105225756D01*
X173247207Y-104981622D01*
X176072666Y-104981622D01*
X176365416Y-105690132D01*
X176907017Y-106232678D01*
X177615014Y-106526665D01*
X178381622Y-106527334D01*
X179090132Y-106234584D01*
X179632678Y-105692983D01*
X179926665Y-104984986D01*
X179927334Y-104218378D01*
X179634584Y-103509868D01*
X179092983Y-102967322D01*
X178384986Y-102673335D01*
X177618378Y-102672666D01*
X176909868Y-102965416D01*
X176367322Y-103507017D01*
X176073335Y-104215014D01*
X176072666Y-104981622D01*
X173247207Y-104981622D01*
X173336319Y-104892666D01*
X173538769Y-104405115D01*
X173539229Y-103877202D01*
X173337631Y-103389297D01*
X172964666Y-103015681D01*
X172477115Y-102813231D01*
X171949202Y-102812771D01*
X171461297Y-103014369D01*
X171087681Y-103387334D01*
X170885231Y-103874885D01*
X170884771Y-104402798D01*
X171086369Y-104890703D01*
X171140508Y-104944937D01*
X170157446Y-105928000D01*
X158641555Y-105928000D01*
X159191283Y-105378272D01*
X159560703Y-105225631D01*
X159934319Y-104852666D01*
X160121121Y-104402798D01*
X163264771Y-104402798D01*
X163466369Y-104890703D01*
X163839334Y-105264319D01*
X164326885Y-105466769D01*
X164854798Y-105467229D01*
X165342703Y-105265631D01*
X165716319Y-104892666D01*
X165862109Y-104541567D01*
X166006369Y-104890703D01*
X166379334Y-105264319D01*
X166866885Y-105466769D01*
X167394798Y-105467229D01*
X167882703Y-105265631D01*
X168256319Y-104892666D01*
X168458769Y-104405115D01*
X168459229Y-103877202D01*
X168257631Y-103389297D01*
X167884666Y-103015681D01*
X167397115Y-102813231D01*
X166869202Y-102812771D01*
X166381297Y-103014369D01*
X166007681Y-103387334D01*
X165861891Y-103738433D01*
X165717631Y-103389297D01*
X165344666Y-103015681D01*
X164857115Y-102813231D01*
X164329202Y-102812771D01*
X163841297Y-103014369D01*
X163467681Y-103387334D01*
X163265231Y-103874885D01*
X163264771Y-104402798D01*
X160121121Y-104402798D01*
X160136769Y-104365115D01*
X160137229Y-103837202D01*
X159935631Y-103349297D01*
X159562666Y-102975681D01*
X159075115Y-102773231D01*
X158547202Y-102772771D01*
X158059297Y-102974369D01*
X157685681Y-103347334D01*
X157483231Y-103834885D01*
X157482771Y-104362798D01*
X157595302Y-104635144D01*
X156302446Y-105928000D01*
X156155000Y-105928000D01*
X155838521Y-105990952D01*
X155790558Y-106023000D01*
X110056555Y-106023000D01*
X110652692Y-105426863D01*
X111072798Y-105427229D01*
X111560703Y-105225631D01*
X111934319Y-104852666D01*
X112136769Y-104365115D01*
X112137130Y-103950000D01*
X120091594Y-103950000D01*
X120091594Y-104750000D01*
X120115785Y-104874684D01*
X120187771Y-104984270D01*
X120296445Y-105057625D01*
X120425000Y-105083406D01*
X121175000Y-105083406D01*
X121299684Y-105059215D01*
X121409270Y-104987229D01*
X121482625Y-104878555D01*
X121497978Y-104802000D01*
X122467384Y-104802000D01*
X122467384Y-105400290D01*
X122491575Y-105524974D01*
X122563561Y-105634560D01*
X122672235Y-105707915D01*
X122800790Y-105733696D01*
X128401490Y-105733696D01*
X128526174Y-105709505D01*
X128635760Y-105637519D01*
X128709115Y-105528845D01*
X128734896Y-105400290D01*
X128734896Y-104554328D01*
X129989514Y-103299710D01*
X132165104Y-103299710D01*
X132165104Y-105400290D01*
X132189295Y-105524974D01*
X132261281Y-105634560D01*
X132369955Y-105707915D01*
X132498510Y-105733696D01*
X138099210Y-105733696D01*
X138223894Y-105709505D01*
X138333480Y-105637519D01*
X138406835Y-105528845D01*
X138432616Y-105400290D01*
X138432616Y-104802000D01*
X140051683Y-104802000D01*
X140065785Y-104874684D01*
X140137771Y-104984270D01*
X140246445Y-105057625D01*
X140375000Y-105083406D01*
X141125000Y-105083406D01*
X141249684Y-105059215D01*
X141359270Y-104987229D01*
X141432625Y-104878555D01*
X141458406Y-104750000D01*
X141458406Y-104362798D01*
X149862771Y-104362798D01*
X150064369Y-104850703D01*
X150437334Y-105224319D01*
X150924885Y-105426769D01*
X151452798Y-105427229D01*
X151940703Y-105225631D01*
X152314319Y-104852666D01*
X152460109Y-104501567D01*
X152604369Y-104850703D01*
X152977334Y-105224319D01*
X153464885Y-105426769D01*
X153992798Y-105427229D01*
X154480703Y-105225631D01*
X154854319Y-104852666D01*
X155056769Y-104365115D01*
X155057229Y-103837202D01*
X154855631Y-103349297D01*
X154482666Y-102975681D01*
X153995115Y-102773231D01*
X153467202Y-102772771D01*
X152979297Y-102974369D01*
X152605681Y-103347334D01*
X152459891Y-103698433D01*
X152315631Y-103349297D01*
X151942666Y-102975681D01*
X151455115Y-102773231D01*
X150927202Y-102772771D01*
X150439297Y-102974369D01*
X150065681Y-103347334D01*
X149863231Y-103834885D01*
X149862771Y-104362798D01*
X141458406Y-104362798D01*
X141458406Y-103950000D01*
X141434215Y-103825316D01*
X141362229Y-103715730D01*
X141253555Y-103642375D01*
X141125000Y-103616594D01*
X140375000Y-103616594D01*
X140250316Y-103640785D01*
X140140730Y-103712771D01*
X140067375Y-103821445D01*
X140052022Y-103898000D01*
X138432616Y-103898000D01*
X138432616Y-103299710D01*
X138408425Y-103175026D01*
X138336439Y-103065440D01*
X138227765Y-102992085D01*
X138099210Y-102966304D01*
X135889088Y-102966304D01*
X135926891Y-102875265D01*
X135927109Y-102625829D01*
X135831855Y-102395297D01*
X135655631Y-102218765D01*
X135425265Y-102123109D01*
X135175829Y-102122891D01*
X134945297Y-102218145D01*
X134768765Y-102394369D01*
X134673109Y-102624735D01*
X134672891Y-102874171D01*
X134710960Y-102966304D01*
X132498510Y-102966304D01*
X132373826Y-102990495D01*
X132264240Y-103062481D01*
X132190885Y-103171155D01*
X132165104Y-103299710D01*
X129989514Y-103299710D01*
X132812213Y-100477011D01*
X132924171Y-100477109D01*
X133154703Y-100381855D01*
X133331235Y-100205631D01*
X133426891Y-99975265D01*
X133427109Y-99725829D01*
X133331855Y-99495297D01*
X133155631Y-99318765D01*
X132925265Y-99223109D01*
X132675829Y-99222891D01*
X132445297Y-99318145D01*
X132268765Y-99494369D01*
X132173109Y-99724735D01*
X132173010Y-99837766D01*
X128731024Y-103279752D01*
X128710705Y-103175026D01*
X128638719Y-103065440D01*
X128530045Y-102992085D01*
X128401490Y-102966304D01*
X122800790Y-102966304D01*
X122676106Y-102990495D01*
X122566520Y-103062481D01*
X122493165Y-103171155D01*
X122467384Y-103299710D01*
X122467384Y-103898000D01*
X121498317Y-103898000D01*
X121484215Y-103825316D01*
X121412229Y-103715730D01*
X121303555Y-103642375D01*
X121175000Y-103616594D01*
X120425000Y-103616594D01*
X120300316Y-103640785D01*
X120190730Y-103712771D01*
X120117375Y-103821445D01*
X120091594Y-103950000D01*
X112137130Y-103950000D01*
X112137229Y-103837202D01*
X111935631Y-103349297D01*
X111562666Y-102975681D01*
X111075115Y-102773231D01*
X110547202Y-102772771D01*
X110059297Y-102974369D01*
X109685681Y-103347334D01*
X109483231Y-103834885D01*
X109482863Y-104257583D01*
X107717446Y-106023000D01*
X100588554Y-106023000D01*
X98928352Y-104362798D01*
X101862771Y-104362798D01*
X102064369Y-104850703D01*
X102437334Y-105224319D01*
X102924885Y-105426769D01*
X103452798Y-105427229D01*
X103940703Y-105225631D01*
X104314319Y-104852666D01*
X104460109Y-104501567D01*
X104604369Y-104850703D01*
X104977334Y-105224319D01*
X105464885Y-105426769D01*
X105992798Y-105427229D01*
X106480703Y-105225631D01*
X106854319Y-104852666D01*
X107056769Y-104365115D01*
X107057229Y-103837202D01*
X106855631Y-103349297D01*
X106482666Y-102975681D01*
X105995115Y-102773231D01*
X105467202Y-102772771D01*
X104979297Y-102974369D01*
X104605681Y-103347334D01*
X104459891Y-103698433D01*
X104315631Y-103349297D01*
X103942666Y-102975681D01*
X103455115Y-102773231D01*
X102927202Y-102772771D01*
X102439297Y-102974369D01*
X102065681Y-103347334D01*
X101863231Y-103834885D01*
X101862771Y-104362798D01*
X98928352Y-104362798D01*
X98609084Y-104043530D01*
X98609229Y-103877202D01*
X98407631Y-103389297D01*
X98034666Y-103015681D01*
X97547115Y-102813231D01*
X97019202Y-102812771D01*
X96531297Y-103014369D01*
X96157681Y-103387334D01*
X95955231Y-103874885D01*
X95954771Y-104402798D01*
X96156369Y-104890703D01*
X96529334Y-105264319D01*
X97016885Y-105466769D01*
X97544798Y-105467229D01*
X97650146Y-105423700D01*
X99449446Y-107223000D01*
X81377000Y-107223000D01*
X81377000Y-104981622D01*
X82072666Y-104981622D01*
X82365416Y-105690132D01*
X82907017Y-106232678D01*
X83615014Y-106526665D01*
X84381622Y-106527334D01*
X85090132Y-106234584D01*
X85632678Y-105692983D01*
X85926665Y-104984986D01*
X85927173Y-104402798D01*
X88334771Y-104402798D01*
X88536369Y-104890703D01*
X88909334Y-105264319D01*
X89396885Y-105466769D01*
X89924798Y-105467229D01*
X90412703Y-105265631D01*
X90786319Y-104892666D01*
X90932109Y-104541567D01*
X91076369Y-104890703D01*
X91449334Y-105264319D01*
X91936885Y-105466769D01*
X92464798Y-105467229D01*
X92952703Y-105265631D01*
X93326319Y-104892666D01*
X93528769Y-104405115D01*
X93529229Y-103877202D01*
X93327631Y-103389297D01*
X92954666Y-103015681D01*
X92467115Y-102813231D01*
X91939202Y-102812771D01*
X91451297Y-103014369D01*
X91077681Y-103387334D01*
X90931891Y-103738433D01*
X90787631Y-103389297D01*
X90414666Y-103015681D01*
X89927115Y-102813231D01*
X89399202Y-102812771D01*
X88911297Y-103014369D01*
X88537681Y-103387334D01*
X88335231Y-103874885D01*
X88334771Y-104402798D01*
X85927173Y-104402798D01*
X85927334Y-104218378D01*
X85634584Y-103509868D01*
X85092983Y-102967322D01*
X84384986Y-102673335D01*
X83618378Y-102672666D01*
X82909868Y-102965416D01*
X82367322Y-103507017D01*
X82073335Y-104215014D01*
X82072666Y-104981622D01*
X81377000Y-104981622D01*
X81377000Y-98500000D01*
X134641594Y-98500000D01*
X134641594Y-99500000D01*
X134665785Y-99624684D01*
X134737771Y-99734270D01*
X134846445Y-99807625D01*
X134975000Y-99833406D01*
X136094182Y-99833406D01*
X136172989Y-99912213D01*
X136172891Y-100024171D01*
X136268145Y-100254703D01*
X136444369Y-100431235D01*
X136674735Y-100526891D01*
X136924171Y-100527109D01*
X137154703Y-100431855D01*
X137275099Y-100311669D01*
X137444369Y-100481235D01*
X137674735Y-100576891D01*
X137924171Y-100577109D01*
X138154703Y-100481855D01*
X138331235Y-100305631D01*
X138426891Y-100075265D01*
X138427109Y-99825829D01*
X138331855Y-99595297D01*
X138252000Y-99515302D01*
X138252000Y-99418467D01*
X138299684Y-99409215D01*
X138409270Y-99337229D01*
X138482625Y-99228555D01*
X138508406Y-99100000D01*
X138508406Y-98300000D01*
X138484215Y-98175316D01*
X138412229Y-98065730D01*
X138303555Y-97992375D01*
X138175000Y-97966594D01*
X137425000Y-97966594D01*
X137300316Y-97990785D01*
X137190730Y-98062771D01*
X137117375Y-98171445D01*
X137091594Y-98300000D01*
X137091594Y-99100000D01*
X137115785Y-99224684D01*
X137187771Y-99334270D01*
X137296445Y-99407625D01*
X137348000Y-99417964D01*
X137348000Y-99515272D01*
X137324901Y-99538331D01*
X137155631Y-99368765D01*
X136925265Y-99273109D01*
X136812234Y-99273010D01*
X136558406Y-99019182D01*
X136558406Y-98500000D01*
X136534215Y-98375316D01*
X136462229Y-98265730D01*
X136353555Y-98192375D01*
X136225000Y-98166594D01*
X134975000Y-98166594D01*
X134850316Y-98190785D01*
X134740730Y-98262771D01*
X134667375Y-98371445D01*
X134641594Y-98500000D01*
X81377000Y-98500000D01*
X81377000Y-96793717D01*
X81474801Y-97030414D01*
X81847623Y-97403887D01*
X82334987Y-97606259D01*
X82862697Y-97606719D01*
X83350414Y-97405199D01*
X83723887Y-97032377D01*
X83926259Y-96545013D01*
X83926719Y-96017303D01*
X83725199Y-95529586D01*
X83352377Y-95156113D01*
X83218471Y-95100510D01*
X88667104Y-95100510D01*
X88667104Y-97099490D01*
X88691295Y-97224174D01*
X88763281Y-97333760D01*
X88871955Y-97407115D01*
X89000510Y-97432896D01*
X90999490Y-97432896D01*
X91124174Y-97408705D01*
X91233760Y-97336719D01*
X91307115Y-97228045D01*
X91332896Y-97099490D01*
X91332896Y-96824171D01*
X150072891Y-96824171D01*
X150168145Y-97054703D01*
X150344369Y-97231235D01*
X150574735Y-97326891D01*
X150824171Y-97327109D01*
X151054703Y-97231855D01*
X151231235Y-97055631D01*
X151265065Y-96974159D01*
X151587224Y-96652000D01*
X151728840Y-96652000D01*
X151742705Y-96723464D01*
X151814691Y-96833050D01*
X151923365Y-96906405D01*
X152051920Y-96932186D01*
X152849480Y-96932186D01*
X152974164Y-96907995D01*
X153083750Y-96836009D01*
X153157105Y-96727335D01*
X153182886Y-96598780D01*
X153182886Y-95801220D01*
X153217114Y-95801220D01*
X153217114Y-96598780D01*
X153241305Y-96723464D01*
X153313291Y-96833050D01*
X153421965Y-96906405D01*
X153550520Y-96932186D01*
X154348080Y-96932186D01*
X154472764Y-96907995D01*
X154582350Y-96836009D01*
X154655705Y-96727335D01*
X154670813Y-96652000D01*
X154712776Y-96652000D01*
X154972989Y-96912213D01*
X154972891Y-97024171D01*
X155068145Y-97254703D01*
X155244369Y-97431235D01*
X155474735Y-97526891D01*
X155724171Y-97527109D01*
X155954703Y-97431855D01*
X156131235Y-97255631D01*
X156226891Y-97025265D01*
X156227109Y-96775829D01*
X156131855Y-96545297D01*
X155955631Y-96368765D01*
X155725265Y-96273109D01*
X155612235Y-96273010D01*
X155219612Y-95880388D01*
X155072973Y-95782406D01*
X154900000Y-95748000D01*
X154671160Y-95748000D01*
X154657295Y-95676536D01*
X154585309Y-95566950D01*
X154476635Y-95493595D01*
X154348080Y-95467814D01*
X153550520Y-95467814D01*
X153425836Y-95492005D01*
X153316250Y-95563991D01*
X153242895Y-95672665D01*
X153217114Y-95801220D01*
X153182886Y-95801220D01*
X153182886Y-95801220D01*
X153158695Y-95676536D01*
X153086709Y-95566950D01*
X152978035Y-95493595D01*
X152849480Y-95467814D01*
X152051920Y-95467814D01*
X151927236Y-95492005D01*
X151817650Y-95563991D01*
X151744295Y-95672665D01*
X151729187Y-95748000D01*
X151400000Y-95748000D01*
X151227027Y-95782406D01*
X151080388Y-95880388D01*
X150869358Y-96091418D01*
X150825265Y-96073109D01*
X150575829Y-96072891D01*
X150345297Y-96168145D01*
X150168765Y-96344369D01*
X150073109Y-96574735D01*
X150072891Y-96824171D01*
X91332896Y-96824171D01*
X91332896Y-95100510D01*
X91308705Y-94975826D01*
X91236719Y-94866240D01*
X91128045Y-94792885D01*
X90999490Y-94767104D01*
X89000510Y-94767104D01*
X88875826Y-94791295D01*
X88766240Y-94863281D01*
X88692885Y-94971955D01*
X88667104Y-95100510D01*
X83218471Y-95100510D01*
X82865013Y-94953741D01*
X82337303Y-94953281D01*
X81849586Y-95154801D01*
X81476113Y-95527623D01*
X81377000Y-95766313D01*
X81377000Y-94300000D01*
X91966594Y-94300000D01*
X91966594Y-95700000D01*
X91990785Y-95824684D01*
X92062771Y-95934270D01*
X92171445Y-96007625D01*
X92300000Y-96033406D01*
X93700000Y-96033406D01*
X93824684Y-96009215D01*
X93934270Y-95937229D01*
X94007625Y-95828555D01*
X94033406Y-95700000D01*
X94033406Y-94824171D01*
X146072891Y-94824171D01*
X146168145Y-95054703D01*
X146344369Y-95231235D01*
X146574735Y-95326891D01*
X146824171Y-95327109D01*
X147054703Y-95231855D01*
X147134698Y-95152000D01*
X147200000Y-95152000D01*
X147372973Y-95117594D01*
X147519612Y-95019612D01*
X149887224Y-92652000D01*
X151758244Y-92652000D01*
X151744295Y-92672665D01*
X151729187Y-92748000D01*
X151100000Y-92748000D01*
X150927027Y-92782406D01*
X150780388Y-92880388D01*
X150587787Y-93072989D01*
X150475829Y-93072891D01*
X150245297Y-93168145D01*
X150068765Y-93344369D01*
X149973109Y-93574735D01*
X149972891Y-93824171D01*
X150068145Y-94054703D01*
X150244369Y-94231235D01*
X150474735Y-94326891D01*
X150724171Y-94327109D01*
X150954703Y-94231855D01*
X151131235Y-94055631D01*
X151226891Y-93825265D01*
X151226990Y-93712234D01*
X151287224Y-93652000D01*
X151728840Y-93652000D01*
X151742705Y-93723464D01*
X151814691Y-93833050D01*
X151923365Y-93906405D01*
X152051920Y-93932186D01*
X152849480Y-93932186D01*
X152974164Y-93907995D01*
X153083750Y-93836009D01*
X153157105Y-93727335D01*
X153182886Y-93598780D01*
X153182886Y-92801220D01*
X153158695Y-92676536D01*
X153142578Y-92652000D01*
X153256844Y-92652000D01*
X153242895Y-92672665D01*
X153217114Y-92801220D01*
X153217114Y-93598780D01*
X153241305Y-93723464D01*
X153313291Y-93833050D01*
X153421965Y-93906405D01*
X153550520Y-93932186D01*
X154348080Y-93932186D01*
X154472764Y-93907995D01*
X154582350Y-93836009D01*
X154628465Y-93767690D01*
X154772989Y-93912213D01*
X154772891Y-94024171D01*
X154868145Y-94254703D01*
X155044369Y-94431235D01*
X155274735Y-94526891D01*
X155524171Y-94527109D01*
X155754703Y-94431855D01*
X155931235Y-94255631D01*
X156026891Y-94025265D01*
X156027109Y-93775829D01*
X155931855Y-93545297D01*
X155755631Y-93368765D01*
X155525265Y-93273109D01*
X155412235Y-93273010D01*
X155019612Y-92880388D01*
X154872973Y-92782406D01*
X154700000Y-92748000D01*
X154671160Y-92748000D01*
X154657295Y-92676536D01*
X154641178Y-92652000D01*
X160800000Y-92652000D01*
X160972973Y-92617594D01*
X161119612Y-92519612D01*
X162487225Y-91152000D01*
X171712776Y-91152000D01*
X171992171Y-91431395D01*
X171675681Y-91747334D01*
X171529891Y-92098433D01*
X171385631Y-91749297D01*
X171012666Y-91375681D01*
X170525115Y-91173231D01*
X169997202Y-91172771D01*
X169509297Y-91374369D01*
X169135681Y-91747334D01*
X168989891Y-92098433D01*
X168845631Y-91749297D01*
X168472666Y-91375681D01*
X167985115Y-91173231D01*
X167457202Y-91172771D01*
X166969297Y-91374369D01*
X166595681Y-91747334D01*
X166393231Y-92234885D01*
X166392771Y-92762798D01*
X166594369Y-93250703D01*
X166967334Y-93624319D01*
X167454885Y-93826769D01*
X167982798Y-93827229D01*
X168470703Y-93625631D01*
X168844319Y-93252666D01*
X168990109Y-92901567D01*
X169134369Y-93250703D01*
X169507334Y-93624319D01*
X169994885Y-93826769D01*
X170522798Y-93827229D01*
X171010703Y-93625631D01*
X171384319Y-93252666D01*
X171530109Y-92901567D01*
X171674369Y-93250703D01*
X172047334Y-93624319D01*
X172534885Y-93826769D01*
X173062798Y-93827229D01*
X173550703Y-93625631D01*
X173924319Y-93252666D01*
X174126769Y-92765115D01*
X174126771Y-92762798D01*
X176552771Y-92762798D01*
X176754369Y-93250703D01*
X177127334Y-93624319D01*
X177614885Y-93826769D01*
X178142798Y-93827229D01*
X178630703Y-93625631D01*
X179004319Y-93252666D01*
X179206769Y-92765115D01*
X179207229Y-92237202D01*
X179005631Y-91749297D01*
X178632666Y-91375681D01*
X178145115Y-91173231D01*
X177617202Y-91172771D01*
X177129297Y-91374369D01*
X176755681Y-91747334D01*
X176553231Y-92234885D01*
X176552771Y-92762798D01*
X174126771Y-92762798D01*
X174127229Y-92237202D01*
X173925631Y-91749297D01*
X173552666Y-91375681D01*
X173065115Y-91173231D01*
X173012409Y-91173185D01*
X172219612Y-90380388D01*
X172072973Y-90282406D01*
X171900000Y-90248000D01*
X162300000Y-90248000D01*
X162127027Y-90282406D01*
X161980387Y-90380388D01*
X160612776Y-91748000D01*
X149700000Y-91748000D01*
X149527027Y-91782406D01*
X149380388Y-91880388D01*
X147073805Y-94186971D01*
X147055631Y-94168765D01*
X146825265Y-94073109D01*
X146575829Y-94072891D01*
X146345297Y-94168145D01*
X146168765Y-94344369D01*
X146073109Y-94574735D01*
X146072891Y-94824171D01*
X94033406Y-94824171D01*
X94033406Y-94300000D01*
X94009215Y-94175316D01*
X93937229Y-94065730D01*
X93828555Y-93992375D01*
X93700000Y-93966594D01*
X92300000Y-93966594D01*
X92175316Y-93990785D01*
X92065730Y-94062771D01*
X91992375Y-94171445D01*
X91966594Y-94300000D01*
X81377000Y-94300000D01*
X81377000Y-92663392D01*
X86410278Y-92663392D01*
X86604660Y-93133832D01*
X86964275Y-93494075D01*
X87434375Y-93689278D01*
X87943392Y-93689722D01*
X88413832Y-93495340D01*
X88774075Y-93135725D01*
X88960217Y-92687446D01*
X89144660Y-93133832D01*
X89504275Y-93494075D01*
X89974375Y-93689278D01*
X90483392Y-93689722D01*
X90953832Y-93495340D01*
X91314075Y-93135725D01*
X91500217Y-92687446D01*
X91684660Y-93133832D01*
X92044275Y-93494075D01*
X92514375Y-93689278D01*
X93023392Y-93689722D01*
X93493832Y-93495340D01*
X93854075Y-93135725D01*
X94049278Y-92665625D01*
X94049340Y-92593485D01*
X104122830Y-92593485D01*
X104271256Y-92952703D01*
X104545851Y-93227778D01*
X104904810Y-93376830D01*
X105293485Y-93377170D01*
X105652703Y-93228744D01*
X105927778Y-92954149D01*
X106076830Y-92595190D01*
X106077170Y-92206515D01*
X105928744Y-91847297D01*
X105654149Y-91572222D01*
X105295190Y-91423170D01*
X104906515Y-91422830D01*
X104547297Y-91571256D01*
X104272222Y-91845851D01*
X104123170Y-92204810D01*
X104122830Y-92593485D01*
X94049340Y-92593485D01*
X94049722Y-92156608D01*
X93855340Y-91686168D01*
X93495725Y-91325925D01*
X93025625Y-91130722D01*
X92516608Y-91130278D01*
X92046168Y-91324660D01*
X91685925Y-91684275D01*
X91499783Y-92132554D01*
X91315340Y-91686168D01*
X90955725Y-91325925D01*
X90485625Y-91130722D01*
X89976608Y-91130278D01*
X89506168Y-91324660D01*
X89145925Y-91684275D01*
X88959783Y-92132554D01*
X88775340Y-91686168D01*
X88415725Y-91325925D01*
X87945625Y-91130722D01*
X87436608Y-91130278D01*
X86966168Y-91324660D01*
X86605925Y-91684275D01*
X86410722Y-92154375D01*
X86410278Y-92663392D01*
X81377000Y-92663392D01*
X81377000Y-90824171D01*
X149472891Y-90824171D01*
X149568145Y-91054703D01*
X149744369Y-91231235D01*
X149974735Y-91326891D01*
X150224171Y-91327109D01*
X150454703Y-91231855D01*
X150631235Y-91055631D01*
X150726891Y-90825265D01*
X150726990Y-90712234D01*
X150787224Y-90652000D01*
X151728840Y-90652000D01*
X151742705Y-90723464D01*
X151814691Y-90833050D01*
X151923365Y-90906405D01*
X152051920Y-90932186D01*
X152849480Y-90932186D01*
X152974164Y-90907995D01*
X153083750Y-90836009D01*
X153157105Y-90727335D01*
X153182886Y-90598780D01*
X153182886Y-89801220D01*
X153217114Y-89801220D01*
X153217114Y-90598780D01*
X153241305Y-90723464D01*
X153313291Y-90833050D01*
X153421965Y-90906405D01*
X153550520Y-90932186D01*
X154348080Y-90932186D01*
X154472764Y-90907995D01*
X154582350Y-90836009D01*
X154628466Y-90767690D01*
X154872989Y-91012213D01*
X154872891Y-91124171D01*
X154968145Y-91354703D01*
X155144369Y-91531235D01*
X155374735Y-91626891D01*
X155624171Y-91627109D01*
X155854703Y-91531855D01*
X156031235Y-91355631D01*
X156126891Y-91125265D01*
X156127109Y-90875829D01*
X156031855Y-90645297D01*
X155855631Y-90468765D01*
X155625265Y-90373109D01*
X155512234Y-90373010D01*
X155019612Y-89880388D01*
X154872973Y-89782406D01*
X154700000Y-89748000D01*
X154671160Y-89748000D01*
X154657295Y-89676536D01*
X154585309Y-89566950D01*
X154476635Y-89493595D01*
X154348080Y-89467814D01*
X153550520Y-89467814D01*
X153425836Y-89492005D01*
X153316250Y-89563991D01*
X153242895Y-89672665D01*
X153217114Y-89801220D01*
X153182886Y-89801220D01*
X153182886Y-89801220D01*
X153158695Y-89676536D01*
X153086709Y-89566950D01*
X152978035Y-89493595D01*
X152849480Y-89467814D01*
X152051920Y-89467814D01*
X151927236Y-89492005D01*
X151817650Y-89563991D01*
X151744295Y-89672665D01*
X151729187Y-89748000D01*
X150600000Y-89748000D01*
X150427027Y-89782406D01*
X150280388Y-89880388D01*
X150087787Y-90072989D01*
X149975829Y-90072891D01*
X149745297Y-90168145D01*
X149568765Y-90344369D01*
X149473109Y-90574735D01*
X149472891Y-90824171D01*
X81377000Y-90824171D01*
X81377000Y-88624171D01*
X136772891Y-88624171D01*
X136868145Y-88854703D01*
X137044369Y-89031235D01*
X137274735Y-89126891D01*
X137524171Y-89127109D01*
X137754703Y-89031855D01*
X137832047Y-88954646D01*
X137840785Y-88999684D01*
X137912771Y-89109270D01*
X138021445Y-89182625D01*
X138150000Y-89208406D01*
X138950000Y-89208406D01*
X139074684Y-89184215D01*
X139184270Y-89112229D01*
X139257625Y-89003555D01*
X139283406Y-88875000D01*
X139283406Y-88125000D01*
X139259215Y-88000316D01*
X139187229Y-87890730D01*
X139088624Y-87824171D01*
X149372891Y-87824171D01*
X149468145Y-88054703D01*
X149644369Y-88231235D01*
X149874735Y-88326891D01*
X150124171Y-88327109D01*
X150354703Y-88231855D01*
X150531235Y-88055631D01*
X150626891Y-87825265D01*
X150626990Y-87712234D01*
X150687224Y-87652000D01*
X151728840Y-87652000D01*
X151742705Y-87723464D01*
X151814691Y-87833050D01*
X151923365Y-87906405D01*
X152051920Y-87932186D01*
X152849480Y-87932186D01*
X152974164Y-87907995D01*
X153083750Y-87836009D01*
X153157105Y-87727335D01*
X153182886Y-87598780D01*
X153182886Y-86801220D01*
X153217114Y-86801220D01*
X153217114Y-87598780D01*
X153241305Y-87723464D01*
X153313291Y-87833050D01*
X153421965Y-87906405D01*
X153550520Y-87932186D01*
X154348080Y-87932186D01*
X154472764Y-87907995D01*
X154582350Y-87836009D01*
X154655705Y-87727335D01*
X154670813Y-87652000D01*
X154912776Y-87652000D01*
X154972989Y-87712213D01*
X154972891Y-87824171D01*
X155068145Y-88054703D01*
X155244369Y-88231235D01*
X155474735Y-88326891D01*
X155724171Y-88327109D01*
X155954703Y-88231855D01*
X156131235Y-88055631D01*
X156226891Y-87825265D01*
X156227109Y-87575829D01*
X156131855Y-87345297D01*
X155955631Y-87168765D01*
X155725265Y-87073109D01*
X155612234Y-87073010D01*
X155419612Y-86880388D01*
X155272973Y-86782406D01*
X155100000Y-86748000D01*
X154671160Y-86748000D01*
X154657295Y-86676536D01*
X154585309Y-86566950D01*
X154476635Y-86493595D01*
X154348080Y-86467814D01*
X153550520Y-86467814D01*
X153425836Y-86492005D01*
X153316250Y-86563991D01*
X153242895Y-86672665D01*
X153217114Y-86801220D01*
X153182886Y-86801220D01*
X153182886Y-86801220D01*
X153158695Y-86676536D01*
X153086709Y-86566950D01*
X152978035Y-86493595D01*
X152849480Y-86467814D01*
X152051920Y-86467814D01*
X151927236Y-86492005D01*
X151817650Y-86563991D01*
X151744295Y-86672665D01*
X151729187Y-86748000D01*
X150500000Y-86748000D01*
X150327027Y-86782406D01*
X150180388Y-86880388D01*
X149987787Y-87072989D01*
X149875829Y-87072891D01*
X149645297Y-87168145D01*
X149468765Y-87344369D01*
X149373109Y-87574735D01*
X149372891Y-87824171D01*
X139088624Y-87824171D01*
X139078555Y-87817375D01*
X138950000Y-87791594D01*
X138150000Y-87791594D01*
X138025316Y-87815785D01*
X137915730Y-87887771D01*
X137842375Y-87996445D01*
X137832486Y-88045755D01*
X137755631Y-87968765D01*
X137525265Y-87873109D01*
X137275829Y-87872891D01*
X137045297Y-87968145D01*
X136868765Y-88144369D01*
X136773109Y-88374735D01*
X136772891Y-88624171D01*
X81377000Y-88624171D01*
X81377000Y-86633717D01*
X81474801Y-86870414D01*
X81847623Y-87243887D01*
X82334987Y-87446259D01*
X82862697Y-87446719D01*
X83350414Y-87245199D01*
X83723887Y-86872377D01*
X83774702Y-86750000D01*
X104116594Y-86750000D01*
X104116594Y-88050000D01*
X104140785Y-88174684D01*
X104212771Y-88284270D01*
X104321445Y-88357625D01*
X104450000Y-88383406D01*
X105750000Y-88383406D01*
X105874684Y-88359215D01*
X105984270Y-88287229D01*
X106057625Y-88178555D01*
X106083406Y-88050000D01*
X106083406Y-86750000D01*
X115216594Y-86750000D01*
X115216594Y-88050000D01*
X115240785Y-88174684D01*
X115312771Y-88284270D01*
X115421445Y-88357625D01*
X115550000Y-88383406D01*
X116850000Y-88383406D01*
X116974684Y-88359215D01*
X117084270Y-88287229D01*
X117157625Y-88178555D01*
X117183406Y-88050000D01*
X117183406Y-86750000D01*
X117159215Y-86625316D01*
X117087229Y-86515730D01*
X116978555Y-86442375D01*
X116850000Y-86416594D01*
X115550000Y-86416594D01*
X115425316Y-86440785D01*
X115315730Y-86512771D01*
X115242375Y-86621445D01*
X115216594Y-86750000D01*
X106083406Y-86750000D01*
X106083406Y-86750000D01*
X106059215Y-86625316D01*
X105987229Y-86515730D01*
X105878555Y-86442375D01*
X105750000Y-86416594D01*
X104450000Y-86416594D01*
X104325316Y-86440785D01*
X104215730Y-86512771D01*
X104142375Y-86621445D01*
X104116594Y-86750000D01*
X83774702Y-86750000D01*
X83926259Y-86385013D01*
X83926719Y-85857303D01*
X83725199Y-85369586D01*
X83399574Y-85043392D01*
X86410278Y-85043392D01*
X86604660Y-85513832D01*
X86964275Y-85874075D01*
X87434375Y-86069278D01*
X87943392Y-86069722D01*
X88413832Y-85875340D01*
X88774075Y-85515725D01*
X88960217Y-85067446D01*
X89144660Y-85513832D01*
X89504275Y-85874075D01*
X89974375Y-86069278D01*
X90483392Y-86069722D01*
X90953832Y-85875340D01*
X91314075Y-85515725D01*
X91500217Y-85067446D01*
X91684660Y-85513832D01*
X92044275Y-85874075D01*
X92514375Y-86069278D01*
X93023392Y-86069722D01*
X93493832Y-85875340D01*
X93854075Y-85515725D01*
X94040217Y-85067446D01*
X94224660Y-85513832D01*
X94584275Y-85874075D01*
X95054375Y-86069278D01*
X95563392Y-86069722D01*
X96033832Y-85875340D01*
X96394075Y-85515725D01*
X96589278Y-85045625D01*
X96589722Y-84536608D01*
X96395340Y-84066168D01*
X96035725Y-83705925D01*
X95565625Y-83510722D01*
X95056608Y-83510278D01*
X94586168Y-83704660D01*
X94225925Y-84064275D01*
X94039783Y-84512554D01*
X93855340Y-84066168D01*
X93495725Y-83705925D01*
X93025625Y-83510722D01*
X92516608Y-83510278D01*
X92046168Y-83704660D01*
X91685925Y-84064275D01*
X91499783Y-84512554D01*
X91315340Y-84066168D01*
X90955725Y-83705925D01*
X90485625Y-83510722D01*
X89976608Y-83510278D01*
X89506168Y-83704660D01*
X89145925Y-84064275D01*
X88959783Y-84512554D01*
X88775340Y-84066168D01*
X88415725Y-83705925D01*
X87945625Y-83510722D01*
X87436608Y-83510278D01*
X86966168Y-83704660D01*
X86605925Y-84064275D01*
X86410722Y-84534375D01*
X86410278Y-85043392D01*
X83399574Y-85043392D01*
X83352377Y-84996113D01*
X82865013Y-84793741D01*
X82337303Y-84793281D01*
X81849586Y-84994801D01*
X81476113Y-85367623D01*
X81377000Y-85606313D01*
X81377000Y-82862697D01*
X106593281Y-82862697D01*
X106794801Y-83350414D01*
X107167623Y-83723887D01*
X107654987Y-83926259D01*
X108182697Y-83926719D01*
X108670414Y-83725199D01*
X109043887Y-83352377D01*
X109246259Y-82865013D01*
X109246261Y-82862697D01*
X116753281Y-82862697D01*
X116954801Y-83350414D01*
X117327623Y-83723887D01*
X117814987Y-83926259D01*
X118342697Y-83926719D01*
X118830414Y-83725199D01*
X119116110Y-83440000D01*
X119547003Y-83440000D01*
X119628985Y-83852150D01*
X119862449Y-84201554D01*
X120211853Y-84435018D01*
X120624003Y-84517000D01*
X121175997Y-84517000D01*
X121588147Y-84435018D01*
X121937551Y-84201554D01*
X122122892Y-83924171D01*
X147672891Y-83924171D01*
X147768145Y-84154703D01*
X147944369Y-84331235D01*
X148174735Y-84426891D01*
X148287765Y-84426990D01*
X148380387Y-84519612D01*
X148422873Y-84548000D01*
X148527027Y-84617594D01*
X148700000Y-84652000D01*
X151728840Y-84652000D01*
X151742705Y-84723464D01*
X151814691Y-84833050D01*
X151923365Y-84906405D01*
X152051920Y-84932186D01*
X152849480Y-84932186D01*
X152974164Y-84907995D01*
X153083750Y-84836009D01*
X153157105Y-84727335D01*
X153182886Y-84598780D01*
X153182886Y-83801220D01*
X153217114Y-83801220D01*
X153217114Y-84598780D01*
X153241305Y-84723464D01*
X153313291Y-84833050D01*
X153421965Y-84906405D01*
X153550520Y-84932186D01*
X154292962Y-84932186D01*
X154872989Y-85512213D01*
X154872891Y-85624171D01*
X154968145Y-85854703D01*
X155144369Y-86031235D01*
X155374735Y-86126891D01*
X155624171Y-86127109D01*
X155854703Y-86031855D01*
X156031235Y-85855631D01*
X156126891Y-85625265D01*
X156127109Y-85375829D01*
X156031855Y-85145297D01*
X155855631Y-84968765D01*
X155625265Y-84873109D01*
X155512234Y-84873010D01*
X154681486Y-84042262D01*
X154681486Y-83801220D01*
X154657295Y-83676536D01*
X154585309Y-83566950D01*
X154476635Y-83493595D01*
X154348080Y-83467814D01*
X153550520Y-83467814D01*
X153425836Y-83492005D01*
X153316250Y-83563991D01*
X153242895Y-83672665D01*
X153217114Y-83801220D01*
X153182886Y-83801220D01*
X153182886Y-83801220D01*
X153158695Y-83676536D01*
X153086709Y-83566950D01*
X152978035Y-83493595D01*
X152849480Y-83467814D01*
X152051920Y-83467814D01*
X151927236Y-83492005D01*
X151817650Y-83563991D01*
X151744295Y-83672665D01*
X151729187Y-83748000D01*
X148927046Y-83748000D01*
X148927109Y-83675829D01*
X148831855Y-83445297D01*
X148655631Y-83268765D01*
X148425265Y-83173109D01*
X148175829Y-83172891D01*
X147945297Y-83268145D01*
X147768765Y-83444369D01*
X147673109Y-83674735D01*
X147672891Y-83924171D01*
X122122892Y-83924171D01*
X122171015Y-83852150D01*
X122252997Y-83440000D01*
X122171015Y-83027850D01*
X122080974Y-82893093D01*
X176222796Y-82893093D01*
X176401606Y-83325846D01*
X176732412Y-83657230D01*
X177164853Y-83836795D01*
X177633093Y-83837204D01*
X178065846Y-83658394D01*
X178397230Y-83327588D01*
X178576795Y-82895147D01*
X178577204Y-82426907D01*
X178398394Y-81994154D01*
X178067588Y-81662770D01*
X177635147Y-81483205D01*
X177166907Y-81482796D01*
X176734154Y-81661606D01*
X176402770Y-81992412D01*
X176223205Y-82424853D01*
X176222796Y-82893093D01*
X122080974Y-82893093D01*
X121937551Y-82678446D01*
X121588147Y-82444982D01*
X121175997Y-82363000D01*
X120624003Y-82363000D01*
X120211853Y-82444982D01*
X119862449Y-82678446D01*
X119628985Y-83027850D01*
X119547003Y-83440000D01*
X119116110Y-83440000D01*
X119203887Y-83352377D01*
X119406259Y-82865013D01*
X119406719Y-82337303D01*
X119205199Y-81849586D01*
X119148510Y-81792798D01*
X128772771Y-81792798D01*
X128974369Y-82280703D01*
X129347334Y-82654319D01*
X129834885Y-82856769D01*
X130362798Y-82857229D01*
X130850703Y-82655631D01*
X131224319Y-82282666D01*
X131290132Y-82124171D01*
X149972891Y-82124171D01*
X150068145Y-82354703D01*
X150244369Y-82531235D01*
X150474735Y-82626891D01*
X150724171Y-82627109D01*
X150954703Y-82531855D01*
X151131235Y-82355631D01*
X151226891Y-82125265D01*
X151226990Y-82012234D01*
X151587224Y-81652000D01*
X151728840Y-81652000D01*
X151742705Y-81723464D01*
X151814691Y-81833050D01*
X151923365Y-81906405D01*
X152051920Y-81932186D01*
X152849480Y-81932186D01*
X152974164Y-81907995D01*
X153083750Y-81836009D01*
X153157105Y-81727335D01*
X153182886Y-81598780D01*
X153182886Y-80801220D01*
X153217114Y-80801220D01*
X153217114Y-81598780D01*
X153241305Y-81723464D01*
X153313291Y-81833050D01*
X153421965Y-81906405D01*
X153550520Y-81932186D01*
X154348080Y-81932186D01*
X154472764Y-81907995D01*
X154530708Y-81869932D01*
X154672989Y-82012213D01*
X154672891Y-82124171D01*
X154768145Y-82354703D01*
X154944369Y-82531235D01*
X155174735Y-82626891D01*
X155424171Y-82627109D01*
X155654703Y-82531855D01*
X155831235Y-82355631D01*
X155926891Y-82125265D01*
X155927109Y-81875829D01*
X155831855Y-81645297D01*
X155655631Y-81468765D01*
X155425265Y-81373109D01*
X155312234Y-81373010D01*
X154819612Y-80880388D01*
X154678560Y-80786139D01*
X154657295Y-80676536D01*
X154585309Y-80566950D01*
X154476635Y-80493595D01*
X154348080Y-80467814D01*
X153550520Y-80467814D01*
X153425836Y-80492005D01*
X153316250Y-80563991D01*
X153242895Y-80672665D01*
X153217114Y-80801220D01*
X153182886Y-80801220D01*
X153182886Y-80801220D01*
X153158695Y-80676536D01*
X153086709Y-80566950D01*
X152978035Y-80493595D01*
X152849480Y-80467814D01*
X152051920Y-80467814D01*
X151927236Y-80492005D01*
X151817650Y-80563991D01*
X151744295Y-80672665D01*
X151729187Y-80748000D01*
X151400000Y-80748000D01*
X151227027Y-80782406D01*
X151080388Y-80880388D01*
X150587787Y-81372989D01*
X150475829Y-81372891D01*
X150245297Y-81468145D01*
X150068765Y-81644369D01*
X149973109Y-81874735D01*
X149972891Y-82124171D01*
X131290132Y-82124171D01*
X131426769Y-81795115D01*
X131427229Y-81267202D01*
X131225631Y-80779297D01*
X130852666Y-80405681D01*
X130365115Y-80203231D01*
X129837202Y-80202771D01*
X129349297Y-80404369D01*
X128975681Y-80777334D01*
X128773231Y-81264885D01*
X128772771Y-81792798D01*
X119148510Y-81792798D01*
X118832377Y-81476113D01*
X118345013Y-81273741D01*
X117817303Y-81273281D01*
X117329586Y-81474801D01*
X116956113Y-81847623D01*
X116753741Y-82334987D01*
X116753281Y-82862697D01*
X109246261Y-82862697D01*
X109246719Y-82337303D01*
X109045199Y-81849586D01*
X108672377Y-81476113D01*
X108185013Y-81273741D01*
X107657303Y-81273281D01*
X107169586Y-81474801D01*
X106796113Y-81847623D01*
X106593741Y-82334987D01*
X106593281Y-82862697D01*
X81377000Y-82862697D01*
X81377000Y-80973093D01*
X83622796Y-80973093D01*
X83801606Y-81405846D01*
X84132412Y-81737230D01*
X84564853Y-81916795D01*
X85033093Y-81917204D01*
X85465846Y-81738394D01*
X85797230Y-81407588D01*
X85976795Y-80975147D01*
X85977204Y-80506907D01*
X85798394Y-80074154D01*
X85587306Y-79862697D01*
X106593281Y-79862697D01*
X106794801Y-80350414D01*
X107167623Y-80723887D01*
X107654987Y-80926259D01*
X108182697Y-80926719D01*
X108670414Y-80725199D01*
X109043887Y-80352377D01*
X109246259Y-79865013D01*
X109246719Y-79337303D01*
X109045199Y-78849586D01*
X108672377Y-78476113D01*
X108392747Y-78360000D01*
X119547003Y-78360000D01*
X119628985Y-78772150D01*
X119862449Y-79121554D01*
X120211853Y-79355018D01*
X120624003Y-79437000D01*
X121175997Y-79437000D01*
X121588147Y-79355018D01*
X121937551Y-79121554D01*
X122085588Y-78900000D01*
X142091594Y-78900000D01*
X142091594Y-79700000D01*
X142115785Y-79824684D01*
X142187771Y-79934270D01*
X142296445Y-80007625D01*
X142348000Y-80017964D01*
X142348000Y-80065272D01*
X142268765Y-80144369D01*
X142173109Y-80374735D01*
X142172891Y-80624171D01*
X142268145Y-80854703D01*
X142444369Y-81031235D01*
X142674735Y-81126891D01*
X142924171Y-81127109D01*
X143154703Y-81031855D01*
X143234698Y-80952000D01*
X148165272Y-80952000D01*
X148244369Y-81031235D01*
X148474735Y-81126891D01*
X148724171Y-81127109D01*
X148954703Y-81031855D01*
X149131235Y-80855631D01*
X149226891Y-80625265D01*
X149227109Y-80375829D01*
X149131855Y-80145297D01*
X148955631Y-79968765D01*
X148725265Y-79873109D01*
X148475829Y-79872891D01*
X148245297Y-79968145D01*
X148165302Y-80048000D01*
X146858406Y-80048000D01*
X146858406Y-79050000D01*
X146834215Y-78925316D01*
X146762229Y-78815730D01*
X146653555Y-78742375D01*
X146525000Y-78716594D01*
X145275000Y-78716594D01*
X145150316Y-78740785D01*
X145040730Y-78812771D01*
X144967375Y-78921445D01*
X144941594Y-79050000D01*
X144941594Y-79098000D01*
X144684728Y-79098000D01*
X144605631Y-79018765D01*
X144375265Y-78923109D01*
X144125829Y-78922891D01*
X143895297Y-79018145D01*
X143718765Y-79194369D01*
X143623109Y-79424735D01*
X143622891Y-79674171D01*
X143718145Y-79904703D01*
X143861192Y-80048000D01*
X143252000Y-80048000D01*
X143252000Y-80018467D01*
X143299684Y-80009215D01*
X143409270Y-79937229D01*
X143482625Y-79828555D01*
X143508406Y-79700000D01*
X143508406Y-78900000D01*
X143484215Y-78775316D01*
X143412229Y-78665730D01*
X143303555Y-78592375D01*
X143175000Y-78566594D01*
X142425000Y-78566594D01*
X142300316Y-78590785D01*
X142190730Y-78662771D01*
X142117375Y-78771445D01*
X142091594Y-78900000D01*
X122085588Y-78900000D01*
X122171015Y-78772150D01*
X122252997Y-78360000D01*
X122171015Y-77947850D01*
X121937551Y-77598446D01*
X121588147Y-77364982D01*
X121175997Y-77283000D01*
X120624003Y-77283000D01*
X120211853Y-77364982D01*
X119862449Y-77598446D01*
X119628985Y-77947850D01*
X119547003Y-78360000D01*
X108392747Y-78360000D01*
X108185013Y-78273741D01*
X107657303Y-78273281D01*
X107169586Y-78474801D01*
X106796113Y-78847623D01*
X106593741Y-79334987D01*
X106593281Y-79862697D01*
X85587306Y-79862697D01*
X85467588Y-79742770D01*
X85035147Y-79563205D01*
X84566907Y-79562796D01*
X84134154Y-79741606D01*
X83802770Y-80072412D01*
X83623205Y-80504853D01*
X83622796Y-80973093D01*
X81377000Y-80973093D01*
X81377000Y-71750000D01*
X112416594Y-71750000D01*
X112416594Y-73050000D01*
X112440785Y-73174684D01*
X112512771Y-73284270D01*
X112621445Y-73357625D01*
X112750000Y-73383406D01*
X114050000Y-73383406D01*
X114174684Y-73359215D01*
X114284270Y-73287229D01*
X114343149Y-73200000D01*
X119916594Y-73200000D01*
X119916594Y-74500000D01*
X119940785Y-74624684D01*
X120012771Y-74734270D01*
X120121445Y-74807625D01*
X120250000Y-74833406D01*
X121550000Y-74833406D01*
X121674684Y-74809215D01*
X121784270Y-74737229D01*
X121857625Y-74628555D01*
X121883406Y-74500000D01*
X121883406Y-73200000D01*
X121859215Y-73075316D01*
X121787229Y-72965730D01*
X121678555Y-72892375D01*
X121550000Y-72866594D01*
X120250000Y-72866594D01*
X120125316Y-72890785D01*
X120015730Y-72962771D01*
X119942375Y-73071445D01*
X119916594Y-73200000D01*
X114343149Y-73200000D01*
X114357625Y-73178555D01*
X114383406Y-73050000D01*
X114383406Y-71750000D01*
X114360667Y-71632798D01*
X128772771Y-71632798D01*
X128974369Y-72120703D01*
X129347334Y-72494319D01*
X129698433Y-72640109D01*
X129349297Y-72784369D01*
X128975681Y-73157334D01*
X128773231Y-73644885D01*
X128772771Y-74172798D01*
X128974369Y-74660703D01*
X129347334Y-75034319D01*
X129698433Y-75180109D01*
X129349297Y-75324369D01*
X128975681Y-75697334D01*
X128773231Y-76184885D01*
X128772771Y-76712798D01*
X128974369Y-77200703D01*
X129347334Y-77574319D01*
X129834885Y-77776769D01*
X130362798Y-77777229D01*
X130850703Y-77575631D01*
X131224319Y-77202666D01*
X131426769Y-76715115D01*
X131427229Y-76187202D01*
X131225631Y-75699297D01*
X130852666Y-75325681D01*
X130501567Y-75179891D01*
X130850703Y-75035631D01*
X131224319Y-74662666D01*
X131426769Y-74175115D01*
X131427229Y-73647202D01*
X131225631Y-73159297D01*
X130852666Y-72785681D01*
X130501567Y-72639891D01*
X130850703Y-72495631D01*
X131224319Y-72122666D01*
X131426769Y-71635115D01*
X131426832Y-71561818D01*
X160372684Y-71561818D01*
X160650242Y-72233560D01*
X161163736Y-72747952D01*
X161834993Y-73026682D01*
X162561818Y-73027316D01*
X163233560Y-72749758D01*
X163747952Y-72236264D01*
X164026682Y-71565007D01*
X164027316Y-70838182D01*
X163749758Y-70166440D01*
X163236264Y-69652048D01*
X162565007Y-69373318D01*
X161838182Y-69372684D01*
X161166440Y-69650242D01*
X160652048Y-70163736D01*
X160373318Y-70834993D01*
X160372684Y-71561818D01*
X131426832Y-71561818D01*
X131427229Y-71107202D01*
X131225631Y-70619297D01*
X130852666Y-70245681D01*
X130365115Y-70043231D01*
X129837202Y-70042771D01*
X129349297Y-70244369D01*
X128975681Y-70617334D01*
X128773231Y-71104885D01*
X128772771Y-71632798D01*
X114360667Y-71632798D01*
X114359215Y-71625316D01*
X114287229Y-71515730D01*
X114178555Y-71442375D01*
X114050000Y-71416594D01*
X112750000Y-71416594D01*
X112625316Y-71440785D01*
X112515730Y-71512771D01*
X112442375Y-71621445D01*
X112416594Y-71750000D01*
X81377000Y-71750000D01*
X81377000Y-69641818D01*
X98172684Y-69641818D01*
X98450242Y-70313560D01*
X98963736Y-70827952D01*
X99634993Y-71106682D01*
X100361818Y-71107316D01*
X101033560Y-70829758D01*
X101547952Y-70316264D01*
X101826682Y-69645007D01*
X101827316Y-68918182D01*
X101819804Y-68900000D01*
X141591594Y-68900000D01*
X141591594Y-69700000D01*
X141615785Y-69824684D01*
X141687771Y-69934270D01*
X141796445Y-70007625D01*
X141925000Y-70033406D01*
X142675000Y-70033406D01*
X142799684Y-70009215D01*
X142909270Y-69937229D01*
X142982625Y-69828555D01*
X143008406Y-69700000D01*
X143008406Y-68900000D01*
X142984215Y-68775316D01*
X142912229Y-68665730D01*
X142803555Y-68592375D01*
X142754245Y-68582486D01*
X142831235Y-68505631D01*
X142926891Y-68275265D01*
X142927109Y-68025829D01*
X142872264Y-67893093D01*
X176222796Y-67893093D01*
X176401606Y-68325846D01*
X176732412Y-68657230D01*
X177164853Y-68836795D01*
X177633093Y-68837204D01*
X178065846Y-68658394D01*
X178397230Y-68327588D01*
X178576795Y-67895147D01*
X178577204Y-67426907D01*
X178398394Y-66994154D01*
X178067588Y-66662770D01*
X177635147Y-66483205D01*
X177166907Y-66482796D01*
X176734154Y-66661606D01*
X176402770Y-66992412D01*
X176223205Y-67424853D01*
X176222796Y-67893093D01*
X142872264Y-67893093D01*
X142831855Y-67795297D01*
X142655631Y-67618765D01*
X142425265Y-67523109D01*
X142175829Y-67522891D01*
X141945297Y-67618145D01*
X141768765Y-67794369D01*
X141673109Y-68024735D01*
X141672891Y-68274171D01*
X141768145Y-68504703D01*
X141845354Y-68582047D01*
X141800316Y-68590785D01*
X141690730Y-68662771D01*
X141617375Y-68771445D01*
X141591594Y-68900000D01*
X101819804Y-68900000D01*
X101549758Y-68246440D01*
X101036264Y-67732048D01*
X100365007Y-67453318D01*
X99638182Y-67452684D01*
X98966440Y-67730242D01*
X98452048Y-68243736D01*
X98173318Y-68914993D01*
X98172684Y-69641818D01*
X81377000Y-69641818D01*
X81377000Y-65973093D01*
X83622796Y-65973093D01*
X83801606Y-66405846D01*
X84132412Y-66737230D01*
X84564853Y-66916795D01*
X85033093Y-66917204D01*
X85465846Y-66738394D01*
X85797230Y-66407588D01*
X85976795Y-65975147D01*
X85977204Y-65506907D01*
X85798394Y-65074154D01*
X85467588Y-64742770D01*
X85035147Y-64563205D01*
X84566907Y-64562796D01*
X84134154Y-64741606D01*
X83802770Y-65072412D01*
X83623205Y-65504853D01*
X83622796Y-65973093D01*
X81377000Y-65973093D01*
X81377000Y-62700000D01*
X111866594Y-62700000D01*
X111866594Y-64700000D01*
X111890785Y-64824684D01*
X111962771Y-64934270D01*
X112071445Y-65007625D01*
X112200000Y-65033406D01*
X114200000Y-65033406D01*
X114324684Y-65009215D01*
X114434270Y-64937229D01*
X114507625Y-64828555D01*
X114533406Y-64700000D01*
X114533406Y-64254757D01*
X114614369Y-64450703D01*
X114987334Y-64824319D01*
X115474885Y-65026769D01*
X116002798Y-65027229D01*
X116490703Y-64825631D01*
X116864319Y-64452666D01*
X117066769Y-63965115D01*
X117067229Y-63437202D01*
X116865922Y-62950000D01*
X139916594Y-62950000D01*
X139916594Y-64350000D01*
X139940785Y-64474684D01*
X140012771Y-64584270D01*
X140121445Y-64657625D01*
X140250000Y-64683406D01*
X140750000Y-64683406D01*
X140874684Y-64659215D01*
X140899576Y-64642864D01*
X140921445Y-64657625D01*
X141050000Y-64683406D01*
X141452555Y-64683406D01*
X141373109Y-64874735D01*
X141372891Y-65124171D01*
X141468145Y-65354703D01*
X141644369Y-65531235D01*
X141874735Y-65626891D01*
X142124171Y-65627109D01*
X142354703Y-65531855D01*
X142531235Y-65355631D01*
X142626891Y-65125265D01*
X142627109Y-64875829D01*
X142538350Y-64661015D01*
X142650000Y-64683406D01*
X143150000Y-64683406D01*
X143274684Y-64659215D01*
X143384270Y-64587229D01*
X143457625Y-64478555D01*
X143483406Y-64350000D01*
X143483406Y-62950000D01*
X143459215Y-62825316D01*
X143387229Y-62715730D01*
X143278555Y-62642375D01*
X143150000Y-62616594D01*
X142650000Y-62616594D01*
X142525316Y-62640785D01*
X142500424Y-62657136D01*
X142478555Y-62642375D01*
X142350000Y-62616594D01*
X141850000Y-62616594D01*
X141752000Y-62635608D01*
X141752000Y-62505623D01*
X141826891Y-62325265D01*
X141827109Y-62075829D01*
X141731855Y-61845297D01*
X141555631Y-61668765D01*
X141325265Y-61573109D01*
X141075829Y-61572891D01*
X140845297Y-61668145D01*
X140668765Y-61844369D01*
X140573109Y-62074735D01*
X140572891Y-62324171D01*
X140668145Y-62554703D01*
X140729928Y-62616594D01*
X140250000Y-62616594D01*
X140125316Y-62640785D01*
X140015730Y-62712771D01*
X139942375Y-62821445D01*
X139916594Y-62950000D01*
X116865922Y-62950000D01*
X116865631Y-62949297D01*
X116492666Y-62575681D01*
X116005115Y-62373231D01*
X115477202Y-62372771D01*
X114989297Y-62574369D01*
X114615681Y-62947334D01*
X114533406Y-63145473D01*
X114533406Y-62700000D01*
X114509215Y-62575316D01*
X114437229Y-62465730D01*
X114328555Y-62392375D01*
X114200000Y-62366594D01*
X112200000Y-62366594D01*
X112075316Y-62390785D01*
X111965730Y-62462771D01*
X111892375Y-62571445D01*
X111866594Y-62700000D01*
X81377000Y-62700000D01*
X81377000Y-60981622D01*
X82072666Y-60981622D01*
X82365416Y-61690132D01*
X82907017Y-62232678D01*
X83615014Y-62526665D01*
X84381622Y-62527334D01*
X85090132Y-62234584D01*
X85632678Y-61692983D01*
X85926665Y-60984986D01*
X85926812Y-60815665D01*
X93930811Y-60815665D01*
X94096252Y-61216063D01*
X94402326Y-61522671D01*
X94802434Y-61688811D01*
X95235665Y-61689189D01*
X95636063Y-61523748D01*
X95942671Y-61217674D01*
X96108811Y-60817566D01*
X96108812Y-60815665D01*
X96470811Y-60815665D01*
X96636252Y-61216063D01*
X96942326Y-61522671D01*
X97342434Y-61688811D01*
X97775665Y-61689189D01*
X98176063Y-61523748D01*
X98482671Y-61217674D01*
X98648811Y-60817566D01*
X98648812Y-60815665D01*
X99010811Y-60815665D01*
X99176252Y-61216063D01*
X99482326Y-61522671D01*
X99882434Y-61688811D01*
X100315665Y-61689189D01*
X100716063Y-61523748D01*
X101022671Y-61217674D01*
X101188811Y-60817566D01*
X101188812Y-60815665D01*
X101550811Y-60815665D01*
X101716252Y-61216063D01*
X102022326Y-61522671D01*
X102422434Y-61688811D01*
X102855665Y-61689189D01*
X103256063Y-61523748D01*
X103562671Y-61217674D01*
X103728811Y-60817566D01*
X103728812Y-60815665D01*
X104090811Y-60815665D01*
X104256252Y-61216063D01*
X104562326Y-61522671D01*
X104962434Y-61688811D01*
X105395665Y-61689189D01*
X105459536Y-61662798D01*
X118932771Y-61662798D01*
X119134369Y-62150703D01*
X119507334Y-62524319D01*
X119994885Y-62726769D01*
X120522798Y-62727229D01*
X121010703Y-62525631D01*
X121384319Y-62152666D01*
X121530109Y-61801567D01*
X121674369Y-62150703D01*
X122047334Y-62524319D01*
X122534885Y-62726769D01*
X123062798Y-62727229D01*
X123550703Y-62525631D01*
X123924319Y-62152666D01*
X124126769Y-61665115D01*
X124127229Y-61137202D01*
X123925631Y-60649297D01*
X123552666Y-60275681D01*
X123065115Y-60073231D01*
X122537202Y-60072771D01*
X122049297Y-60274369D01*
X121675681Y-60647334D01*
X121529891Y-60998433D01*
X121385631Y-60649297D01*
X121012666Y-60275681D01*
X120525115Y-60073231D01*
X119997202Y-60072771D01*
X119509297Y-60274369D01*
X119135681Y-60647334D01*
X118933231Y-61134885D01*
X118932771Y-61662798D01*
X105459536Y-61662798D01*
X105796063Y-61523748D01*
X106102671Y-61217674D01*
X106268811Y-60817566D01*
X106269189Y-60384335D01*
X106103748Y-59983937D01*
X105797674Y-59677329D01*
X105397566Y-59511189D01*
X104964335Y-59510811D01*
X104563937Y-59676252D01*
X104257329Y-59982326D01*
X104091189Y-60382434D01*
X104090811Y-60815665D01*
X103728812Y-60815665D01*
X103729189Y-60384335D01*
X103563748Y-59983937D01*
X103257674Y-59677329D01*
X102857566Y-59511189D01*
X102424335Y-59510811D01*
X102023937Y-59676252D01*
X101717329Y-59982326D01*
X101551189Y-60382434D01*
X101550811Y-60815665D01*
X101188812Y-60815665D01*
X101189189Y-60384335D01*
X101023748Y-59983937D01*
X100717674Y-59677329D01*
X100317566Y-59511189D01*
X99884335Y-59510811D01*
X99483937Y-59676252D01*
X99177329Y-59982326D01*
X99011189Y-60382434D01*
X99010811Y-60815665D01*
X98648812Y-60815665D01*
X98649189Y-60384335D01*
X98483748Y-59983937D01*
X98177674Y-59677329D01*
X97777566Y-59511189D01*
X97344335Y-59510811D01*
X96943937Y-59676252D01*
X96637329Y-59982326D01*
X96471189Y-60382434D01*
X96470811Y-60815665D01*
X96108812Y-60815665D01*
X96109189Y-60384335D01*
X95943748Y-59983937D01*
X95637674Y-59677329D01*
X95237566Y-59511189D01*
X94804335Y-59510811D01*
X94403937Y-59676252D01*
X94097329Y-59982326D01*
X93931189Y-60382434D01*
X93930811Y-60815665D01*
X85926812Y-60815665D01*
X85927334Y-60218378D01*
X85634584Y-59509868D01*
X85474995Y-59350000D01*
X143916594Y-59350000D01*
X143916594Y-63150000D01*
X143940785Y-63274684D01*
X144012771Y-63384270D01*
X144121445Y-63457625D01*
X144250000Y-63483406D01*
X146750000Y-63483406D01*
X146874684Y-63459215D01*
X146984270Y-63387229D01*
X147057625Y-63278555D01*
X147083406Y-63150000D01*
X147083406Y-61662798D01*
X163432771Y-61662798D01*
X163634369Y-62150703D01*
X164007334Y-62524319D01*
X164494885Y-62726769D01*
X165022798Y-62727229D01*
X165510703Y-62525631D01*
X165884319Y-62152666D01*
X166030109Y-61801567D01*
X166174369Y-62150703D01*
X166547334Y-62524319D01*
X167034885Y-62726769D01*
X167562798Y-62727229D01*
X168050703Y-62525631D01*
X168424319Y-62152666D01*
X168626769Y-61665115D01*
X168627229Y-61137202D01*
X168562945Y-60981622D01*
X176072666Y-60981622D01*
X176365416Y-61690132D01*
X176907017Y-62232678D01*
X177615014Y-62526665D01*
X178381622Y-62527334D01*
X179090132Y-62234584D01*
X179632678Y-61692983D01*
X179926665Y-60984986D01*
X179927334Y-60218378D01*
X179634584Y-59509868D01*
X179092983Y-58967322D01*
X178384986Y-58673335D01*
X177618378Y-58672666D01*
X176909868Y-58965416D01*
X176367322Y-59507017D01*
X176073335Y-60215014D01*
X176072666Y-60981622D01*
X168562945Y-60981622D01*
X168425631Y-60649297D01*
X168052666Y-60275681D01*
X167565115Y-60073231D01*
X167037202Y-60072771D01*
X166549297Y-60274369D01*
X166175681Y-60647334D01*
X166029891Y-60998433D01*
X165885631Y-60649297D01*
X165512666Y-60275681D01*
X165025115Y-60073231D01*
X164497202Y-60072771D01*
X164009297Y-60274369D01*
X163635681Y-60647334D01*
X163433231Y-61134885D01*
X163432771Y-61662798D01*
X147083406Y-61662798D01*
X147083406Y-59350000D01*
X147059215Y-59225316D01*
X146987229Y-59115730D01*
X146878555Y-59042375D01*
X146750000Y-59016594D01*
X144250000Y-59016594D01*
X144125316Y-59040785D01*
X144015730Y-59112771D01*
X143942375Y-59221445D01*
X143916594Y-59350000D01*
X85474995Y-59350000D01*
X85092983Y-58967322D01*
X84384986Y-58673335D01*
X83618378Y-58672666D01*
X82909868Y-58965416D01*
X82367322Y-59507017D01*
X82073335Y-60215014D01*
X82072666Y-60981622D01*
X81377000Y-60981622D01*
X81377000Y-57977000D01*
X180623000Y-57977000D01*
X180623000Y-107223000D01*
M02*
