M48
;DRILL file {KiCad (2015-07-11 BZR 5925, Git c291b88)-product} date 2015/07/28 4:08:18
;FORMAT={-:-/ absolute / metric / decimal}
FMAT,2
METRIC,TZ
T1C0.400
T2C0.700
T3C0.762
T4C0.800
T5C0.900
T6C1.001
T7C1.270
T8C1.300
T9C1.500
T10C3.000
%
G90
G05
M71
T1
X132.8Y-99.85
X135.3Y-102.75
X136.8Y-99.9
X137.4Y-88.5
X137.8Y-99.95
X140.1Y-89.8
X141.2Y-62.2
X142.Y-65.
X142.3Y-68.15
X142.8Y-80.5
X144.25Y-79.55
X146.7Y-94.7
X146.8Y-83.8
X148.3Y-83.8
X148.5Y-86.9
X148.6Y-80.5
X150.Y-87.7
X150.1Y-90.7
X150.6Y-82.
X150.6Y-93.7
X150.7Y-96.7
X155.3Y-82.
X155.4Y-93.9
X155.5Y-85.5
X155.5Y-91.
X155.6Y-66.8
X155.6Y-87.7
X155.6Y-96.9
X155.8Y-71.2
T2
X120.9Y-78.36
X120.9Y-80.9
X120.9Y-83.44
T3
X87.69Y-84.79
X87.69Y-92.41
X90.23Y-84.79
X90.23Y-92.41
X92.77Y-84.79
X92.77Y-92.41
X95.02Y-60.6
X95.31Y-84.79
X95.31Y-92.41
X97.56Y-60.6
X100.1Y-60.6
X102.64Y-60.6
X105.18Y-60.6
T4
X105.1Y-87.4
X105.1Y-92.4
X108.4Y-72.4
X113.4Y-72.4
X116.2Y-87.4
X116.2Y-92.4
X118.4Y-73.85
X120.9Y-73.85
T5
X93.Y-95.
X98.Y-95.
T6
X82.6Y-86.12
X82.6Y-96.28
X90.Y-96.1
X107.92Y-79.6
X107.92Y-82.6
X113.2Y-63.7
X115.74Y-63.7
X118.08Y-79.6
X118.08Y-82.6
T7
X86.19Y-96.1
T8
X89.662Y-104.14
X92.202Y-104.14
X94.742Y-104.14
X97.282Y-104.14
X103.19Y-104.1
X105.73Y-104.1
X108.27Y-104.1
X110.81Y-104.1
X120.26Y-61.4
X122.8Y-61.4
X125.34Y-61.4
X130.1Y-71.37
X130.1Y-73.91
X130.1Y-76.45
X130.1Y-78.99
X130.1Y-81.53
X151.19Y-104.1
X153.73Y-104.1
X156.27Y-104.1
X158.81Y-104.1
X164.592Y-104.14
X164.76Y-61.4
X167.132Y-104.14
X167.3Y-61.4
X167.72Y-92.5
X169.672Y-104.14
X169.84Y-61.4
X170.26Y-92.5
X172.212Y-104.14
X172.8Y-92.5
X175.34Y-92.5
X177.88Y-92.5
T9
X100.Y-69.28
X100.Y-77.2
X162.2Y-71.2
X162.2Y-79.12
T10
X84.Y-60.6
X84.Y-104.6
X178.Y-60.6
X178.Y-104.6
T0
M30
