G04 #@! TF.FileFunction,Soldermask,Bot*
%FSLAX46Y46*%
G04 Gerber Fmt 4.6, Leading zero omitted, Abs format (unit mm)*
G04 Created by KiCad (PCBNEW (2015-07-11 BZR 5925, Git c291b88)-product) date 2015/07/28 4:08:13*
%MOMM*%
G01*
G04 APERTURE LIST*
%ADD10C,0.100000*%
%ADD11R,0.800000X0.750000*%
%ADD12R,1.000000X1.250000*%
%ADD13R,1.400000X1.400000*%
%ADD14C,1.400000*%
%ADD15R,0.750000X0.800000*%
%ADD16C,3.000000*%
%ADD17C,1.700000*%
%ADD18C,1.998980*%
%ADD19C,1.905000*%
%ADD20R,1.500000X0.300000*%
%ADD21R,0.300000X1.500000*%
%ADD22R,5.600700X2.100580*%
%ADD23C,2.000000*%
%ADD24O,2.000000X1.500000*%
%ADD25R,1.300000X1.300000*%
%ADD26C,1.300000*%
%ADD27R,1.998980X1.998980*%
%ADD28R,0.500000X0.900000*%
%ADD29R,2.000000X2.000000*%
%ADD30C,1.524000*%
%ADD31C,3.200000*%
G04 APERTURE END LIST*
D10*
X181000000Y-57600000D02*
X81000000Y-57600000D01*
X181000000Y-107600000D02*
X181000000Y-57600000D01*
X81000000Y-107600000D02*
X181000000Y-107600000D01*
X81000000Y-57600000D02*
X81000000Y-107600000D01*
D11*
X134850000Y-83050000D03*
X133350000Y-83050000D03*
X152600000Y-66700000D03*
X154100000Y-66700000D03*
D12*
X153650000Y-72850000D03*
X155650000Y-72850000D03*
D11*
X126550000Y-87700000D03*
X125050000Y-87700000D03*
X126250000Y-91400000D03*
X124750000Y-91400000D03*
D13*
X93000000Y-95000000D03*
D14*
X98000000Y-95000000D03*
D11*
X141350000Y-59900000D03*
X139850000Y-59900000D03*
D15*
X159650000Y-63400000D03*
X159650000Y-64900000D03*
D11*
X147000000Y-85450000D03*
X148500000Y-85450000D03*
X127550000Y-101400000D03*
X126050000Y-101400000D03*
D12*
X126600000Y-94250000D03*
X124600000Y-94250000D03*
D11*
X153700000Y-80450000D03*
X155200000Y-80450000D03*
X153900000Y-75400000D03*
X155400000Y-75400000D03*
D15*
X121800000Y-85950000D03*
X121800000Y-87450000D03*
D11*
X133300000Y-66700000D03*
X131800000Y-66700000D03*
X145450000Y-101400000D03*
X146950000Y-101400000D03*
D16*
X100000000Y-77200000D03*
X100000000Y-69280000D03*
D17*
X84800000Y-80740000D03*
X84800000Y-65740000D03*
D18*
X118080000Y-79600000D03*
X107920000Y-79600000D03*
X118080000Y-82600000D03*
X107920000Y-82600000D03*
X82600000Y-86120000D03*
X82600000Y-96280000D03*
D19*
X87690000Y-92410000D03*
X90230000Y-92410000D03*
X92770000Y-92410000D03*
X95310000Y-92410000D03*
X95310000Y-84790000D03*
X92770000Y-84790000D03*
X90230000Y-84790000D03*
X87690000Y-84790000D03*
D20*
X135100000Y-80400000D03*
X135100000Y-79900000D03*
X135100000Y-79400000D03*
X135100000Y-78900000D03*
X135100000Y-78400000D03*
X135100000Y-77900000D03*
X135100000Y-77400000D03*
X135100000Y-76900000D03*
X135100000Y-76400000D03*
X135100000Y-75900000D03*
X135100000Y-75400000D03*
X135100000Y-74900000D03*
X135100000Y-74400000D03*
X135100000Y-73900000D03*
X135100000Y-73400000D03*
X135100000Y-72900000D03*
X135100000Y-72400000D03*
X135100000Y-71900000D03*
X135100000Y-71400000D03*
X135100000Y-70900000D03*
X135100000Y-70400000D03*
X135100000Y-69900000D03*
X135100000Y-69400000D03*
X135100000Y-68900000D03*
X135100000Y-68400000D03*
D21*
X136800000Y-66700000D03*
X137300000Y-66700000D03*
X137800000Y-66700000D03*
X138300000Y-66700000D03*
X138800000Y-66700000D03*
X139300000Y-66700000D03*
X139800000Y-66700000D03*
X140300000Y-66700000D03*
X140800000Y-66700000D03*
X141300000Y-66700000D03*
X141800000Y-66700000D03*
X142300000Y-66700000D03*
X142800000Y-66700000D03*
X143300000Y-66700000D03*
X143800000Y-66700000D03*
X144300000Y-66700000D03*
X144800000Y-66700000D03*
X145300000Y-66700000D03*
X145800000Y-66700000D03*
X146300000Y-66700000D03*
X146800000Y-66700000D03*
X147300000Y-66700000D03*
X147800000Y-66700000D03*
X148300000Y-66700000D03*
X148800000Y-66700000D03*
D20*
X150500000Y-68400000D03*
X150500000Y-68900000D03*
X150500000Y-69400000D03*
X150500000Y-69900000D03*
X150500000Y-70400000D03*
X150500000Y-70900000D03*
X150500000Y-71400000D03*
X150500000Y-71900000D03*
X150500000Y-72400000D03*
X150500000Y-72900000D03*
X150500000Y-73400000D03*
X150500000Y-73900000D03*
X150500000Y-74400000D03*
X150500000Y-74900000D03*
X150500000Y-75400000D03*
X150500000Y-75900000D03*
X150500000Y-76400000D03*
X150500000Y-76900000D03*
X150500000Y-77400000D03*
X150500000Y-77900000D03*
X150500000Y-78400000D03*
X150500000Y-78900000D03*
X150500000Y-79400000D03*
X150500000Y-79900000D03*
X150500000Y-80400000D03*
D21*
X148800000Y-82100000D03*
X148300000Y-82100000D03*
X147800000Y-82100000D03*
X147300000Y-82100000D03*
X146800000Y-82100000D03*
X146300000Y-82100000D03*
X145800000Y-82100000D03*
X145300000Y-82100000D03*
X144800000Y-82100000D03*
X144300000Y-82100000D03*
X143800000Y-82100000D03*
X143300000Y-82100000D03*
X142800000Y-82100000D03*
X142300000Y-82100000D03*
X141800000Y-82100000D03*
X141300000Y-82100000D03*
X140800000Y-82100000D03*
X140300000Y-82100000D03*
X139800000Y-82100000D03*
X139300000Y-82100000D03*
X138800000Y-82100000D03*
X138300000Y-82100000D03*
X137800000Y-82100000D03*
X137300000Y-82100000D03*
X136800000Y-82100000D03*
D20*
X145000000Y-87700000D03*
X145000000Y-88200000D03*
X145000000Y-88700000D03*
X145000000Y-89200000D03*
X145000000Y-89700000D03*
X145000000Y-90200000D03*
X145000000Y-90700000D03*
X145000000Y-91200000D03*
X145000000Y-91700000D03*
X145000000Y-92200000D03*
X145000000Y-92700000D03*
X145000000Y-93200000D03*
X145000000Y-93700000D03*
X145000000Y-94200000D03*
X145000000Y-94700000D03*
X145000000Y-95200000D03*
X145000000Y-95700000D03*
X145000000Y-96200000D03*
X145000000Y-96700000D03*
X145000000Y-97200000D03*
X145000000Y-97700000D03*
X145000000Y-98200000D03*
X145000000Y-98700000D03*
X145000000Y-99200000D03*
X145000000Y-99700000D03*
D21*
X143300000Y-101400000D03*
X142800000Y-101400000D03*
X142300000Y-101400000D03*
X141800000Y-101400000D03*
X141300000Y-101400000D03*
X140800000Y-101400000D03*
X140300000Y-101400000D03*
X139800000Y-101400000D03*
X139300000Y-101400000D03*
X138800000Y-101400000D03*
X138300000Y-101400000D03*
X137800000Y-101400000D03*
X137300000Y-101400000D03*
X136800000Y-101400000D03*
X136300000Y-101400000D03*
X135800000Y-101400000D03*
X135300000Y-101400000D03*
X134800000Y-101400000D03*
X134300000Y-101400000D03*
X133800000Y-101400000D03*
X133300000Y-101400000D03*
X132800000Y-101400000D03*
X132300000Y-101400000D03*
X131800000Y-101400000D03*
X131300000Y-101400000D03*
D20*
X129600000Y-99700000D03*
X129600000Y-99200000D03*
X129600000Y-98700000D03*
X129600000Y-98200000D03*
X129600000Y-97700000D03*
X129600000Y-97200000D03*
X129600000Y-96700000D03*
X129600000Y-96200000D03*
X129600000Y-95700000D03*
X129600000Y-95200000D03*
X129600000Y-94700000D03*
X129600000Y-94200000D03*
X129600000Y-93700000D03*
X129600000Y-93200000D03*
X129600000Y-92700000D03*
X129600000Y-92200000D03*
X129600000Y-91700000D03*
X129600000Y-91200000D03*
X129600000Y-90700000D03*
X129600000Y-90200000D03*
X129600000Y-89700000D03*
X129600000Y-89200000D03*
X129600000Y-88700000D03*
X129600000Y-88200000D03*
X129600000Y-87700000D03*
D21*
X131300000Y-86000000D03*
X131800000Y-86000000D03*
X132300000Y-86000000D03*
X132800000Y-86000000D03*
X133300000Y-86000000D03*
X133800000Y-86000000D03*
X134300000Y-86000000D03*
X134800000Y-86000000D03*
X135300000Y-86000000D03*
X135800000Y-86000000D03*
X136300000Y-86000000D03*
X136800000Y-86000000D03*
X137300000Y-86000000D03*
X137800000Y-86000000D03*
X138300000Y-86000000D03*
X138800000Y-86000000D03*
X139300000Y-86000000D03*
X139800000Y-86000000D03*
X140300000Y-86000000D03*
X140800000Y-86000000D03*
X141300000Y-86000000D03*
X141800000Y-86000000D03*
X142300000Y-86000000D03*
X142800000Y-86000000D03*
X143300000Y-86000000D03*
D22*
X155348860Y-61350000D03*
X145651140Y-61350000D03*
D23*
X130100000Y-71370000D03*
X130100000Y-73910000D03*
X130100000Y-76450000D03*
X130100000Y-78990000D03*
X130100000Y-81530000D03*
X167720000Y-92500000D03*
X170260000Y-92500000D03*
X172800000Y-92500000D03*
X175340000Y-92500000D03*
X177880000Y-92500000D03*
D24*
X120900000Y-83440000D03*
X120900000Y-78360000D03*
X120900000Y-80900000D03*
D25*
X120900000Y-73850000D03*
D26*
X118400000Y-73850000D03*
D25*
X116200000Y-87400000D03*
D26*
X116200000Y-92400000D03*
D25*
X113400000Y-72400000D03*
D26*
X108400000Y-72400000D03*
D16*
X162200000Y-71200000D03*
X162200000Y-79120000D03*
D17*
X177400000Y-67660000D03*
X177400000Y-82660000D03*
D18*
X86190000Y-96100000D03*
D27*
X90000000Y-96100000D03*
D23*
X125340000Y-61400000D03*
X122800000Y-61400000D03*
X120260000Y-61400000D03*
X169840000Y-61400000D03*
X167300000Y-61400000D03*
X164760000Y-61400000D03*
X172212000Y-104140000D03*
X169672000Y-104140000D03*
X167132000Y-104140000D03*
X164592000Y-104140000D03*
X158810000Y-104100000D03*
X156270000Y-104100000D03*
X153730000Y-104100000D03*
X151190000Y-104100000D03*
X110810000Y-104100000D03*
X108270000Y-104100000D03*
X105730000Y-104100000D03*
X103190000Y-104100000D03*
X97282000Y-104140000D03*
X94742000Y-104140000D03*
X92202000Y-104140000D03*
X89662000Y-104140000D03*
D28*
X110350000Y-63700000D03*
X108850000Y-63700000D03*
D29*
X113200000Y-63700000D03*
D23*
X115740000Y-63700000D03*
D25*
X105100000Y-87400000D03*
D26*
X105100000Y-92400000D03*
D30*
X97560000Y-60600000D03*
X100100000Y-60600000D03*
X102640000Y-60600000D03*
X95020000Y-60600000D03*
X105180000Y-60600000D03*
D28*
X156950000Y-88000000D03*
X158450000Y-88000000D03*
X158450000Y-91000000D03*
X156950000Y-91000000D03*
X156950000Y-94000000D03*
X158450000Y-94000000D03*
X158450000Y-97000000D03*
X156950000Y-97000000D03*
D31*
X178000000Y-60600000D03*
X84000000Y-60600000D03*
X84000000Y-104600000D03*
X178000000Y-104600000D03*
D28*
X158350000Y-85600000D03*
X156850000Y-85600000D03*
X158350000Y-82000000D03*
X156850000Y-82000000D03*
M02*
