G04 #@! TF.FileFunction,Legend,Bot*
%FSLAX46Y46*%
G04 Gerber Fmt 4.6, Leading zero omitted, Abs format (unit mm)*
G04 Created by KiCad (PCBNEW (2015-07-11 BZR 5925, Git c291b88)-product) date 2015/07/28 4:08:13*
%MOMM*%
G01*
G04 APERTURE LIST*
%ADD10C,0.100000*%
%ADD11C,0.150000*%
G04 APERTURE END LIST*
D10*
X181000000Y-57600000D02*
X81000000Y-57600000D01*
X181000000Y-107600000D02*
X181000000Y-57600000D01*
X81000000Y-107600000D02*
X181000000Y-107600000D01*
X81000000Y-57600000D02*
X81000000Y-107600000D01*
D11*
X134450000Y-82450000D02*
X133750000Y-82450000D01*
X133750000Y-83650000D02*
X134450000Y-83650000D01*
X153000000Y-67300000D02*
X153700000Y-67300000D01*
X153700000Y-66100000D02*
X153000000Y-66100000D01*
X155150000Y-73700000D02*
X154150000Y-73700000D01*
X154150000Y-72000000D02*
X155150000Y-72000000D01*
X126150000Y-87100000D02*
X125450000Y-87100000D01*
X125450000Y-88300000D02*
X126150000Y-88300000D01*
X125850000Y-90800000D02*
X125150000Y-90800000D01*
X125150000Y-92000000D02*
X125850000Y-92000000D01*
X140950000Y-59300000D02*
X140250000Y-59300000D01*
X140250000Y-60500000D02*
X140950000Y-60500000D01*
X159050000Y-63800000D02*
X159050000Y-64500000D01*
X160250000Y-64500000D02*
X160250000Y-63800000D01*
X147400000Y-86050000D02*
X148100000Y-86050000D01*
X148100000Y-84850000D02*
X147400000Y-84850000D01*
X127150000Y-100800000D02*
X126450000Y-100800000D01*
X126450000Y-102000000D02*
X127150000Y-102000000D01*
X125100000Y-93400000D02*
X126100000Y-93400000D01*
X126100000Y-95100000D02*
X125100000Y-95100000D01*
X154100000Y-81050000D02*
X154800000Y-81050000D01*
X154800000Y-79850000D02*
X154100000Y-79850000D01*
X154300000Y-76000000D02*
X155000000Y-76000000D01*
X155000000Y-74800000D02*
X154300000Y-74800000D01*
X121200000Y-86350000D02*
X121200000Y-87050000D01*
X122400000Y-87050000D02*
X122400000Y-86350000D01*
X132900000Y-66100000D02*
X132200000Y-66100000D01*
X132200000Y-67300000D02*
X132900000Y-67300000D01*
X145850000Y-102000000D02*
X146550000Y-102000000D01*
X146550000Y-100800000D02*
X145850000Y-100800000D01*
X135625000Y-81575000D02*
X135625000Y-80775000D01*
X149975000Y-81575000D02*
X149975000Y-80775000D01*
X149975000Y-67225000D02*
X149975000Y-68025000D01*
X135625000Y-67225000D02*
X135625000Y-68025000D01*
X135625000Y-81575000D02*
X136425000Y-81575000D01*
X135625000Y-67225000D02*
X136425000Y-67225000D01*
X149975000Y-67225000D02*
X149175000Y-67225000D01*
X149975000Y-81575000D02*
X149175000Y-81575000D01*
X135625000Y-80775000D02*
X134350000Y-80775000D01*
X144475000Y-86525000D02*
X144475000Y-87325000D01*
X130125000Y-86525000D02*
X130125000Y-87325000D01*
X130125000Y-100875000D02*
X130125000Y-100075000D01*
X144475000Y-100875000D02*
X144475000Y-100075000D01*
X144475000Y-86525000D02*
X143675000Y-86525000D01*
X144475000Y-100875000D02*
X143675000Y-100875000D01*
X130125000Y-100875000D02*
X130925000Y-100875000D01*
X130125000Y-86525000D02*
X130925000Y-86525000D01*
X144475000Y-87325000D02*
X145750000Y-87325000D01*
X156349620Y-63849360D02*
X144650380Y-63849360D01*
X144650380Y-58850640D02*
X156349620Y-58850640D01*
X144650380Y-63849360D02*
X144650380Y-63001000D01*
X144650380Y-58850640D02*
X144650380Y-59699000D01*
X156349620Y-63849360D02*
X156349620Y-63001000D01*
X156349620Y-58850640D02*
X156349620Y-59699000D01*
X109100000Y-64375000D02*
X110100000Y-64375000D01*
X110100000Y-63025000D02*
X109100000Y-63025000D01*
X158200000Y-87325000D02*
X157200000Y-87325000D01*
X157200000Y-88675000D02*
X158200000Y-88675000D01*
X157200000Y-91675000D02*
X158200000Y-91675000D01*
X158200000Y-90325000D02*
X157200000Y-90325000D01*
X158200000Y-93325000D02*
X157200000Y-93325000D01*
X157200000Y-94675000D02*
X158200000Y-94675000D01*
X157200000Y-97675000D02*
X158200000Y-97675000D01*
X158200000Y-96325000D02*
X157200000Y-96325000D01*
X157100000Y-86275000D02*
X158100000Y-86275000D01*
X158100000Y-84925000D02*
X157100000Y-84925000D01*
X157100000Y-82675000D02*
X158100000Y-82675000D01*
X158100000Y-81325000D02*
X157100000Y-81325000D01*
X134266666Y-81507143D02*
X134314285Y-81554762D01*
X134457142Y-81602381D01*
X134552380Y-81602381D01*
X134695238Y-81554762D01*
X134790476Y-81459524D01*
X134838095Y-81364286D01*
X134885714Y-81173810D01*
X134885714Y-81030952D01*
X134838095Y-80840476D01*
X134790476Y-80745238D01*
X134695238Y-80650000D01*
X134552380Y-80602381D01*
X134457142Y-80602381D01*
X134314285Y-80650000D01*
X134266666Y-80697619D01*
X133933333Y-80602381D02*
X133314285Y-80602381D01*
X133647619Y-80983333D01*
X133504761Y-80983333D01*
X133409523Y-81030952D01*
X133361904Y-81078571D01*
X133314285Y-81173810D01*
X133314285Y-81411905D01*
X133361904Y-81507143D01*
X133409523Y-81554762D01*
X133504761Y-81602381D01*
X133790476Y-81602381D01*
X133885714Y-81554762D01*
X133933333Y-81507143D01*
X153566666Y-68457143D02*
X153614285Y-68504762D01*
X153757142Y-68552381D01*
X153852380Y-68552381D01*
X153995238Y-68504762D01*
X154090476Y-68409524D01*
X154138095Y-68314286D01*
X154185714Y-68123810D01*
X154185714Y-67980952D01*
X154138095Y-67790476D01*
X154090476Y-67695238D01*
X153995238Y-67600000D01*
X153852380Y-67552381D01*
X153757142Y-67552381D01*
X153614285Y-67600000D01*
X153566666Y-67647619D01*
X152661904Y-67552381D02*
X153138095Y-67552381D01*
X153185714Y-68028571D01*
X153138095Y-67980952D01*
X153042857Y-67933333D01*
X152804761Y-67933333D01*
X152709523Y-67980952D01*
X152661904Y-68028571D01*
X152614285Y-68123810D01*
X152614285Y-68361905D01*
X152661904Y-68457143D01*
X152709523Y-68504762D01*
X152804761Y-68552381D01*
X153042857Y-68552381D01*
X153138095Y-68504762D01*
X153185714Y-68457143D01*
X157666666Y-73257143D02*
X157714285Y-73304762D01*
X157857142Y-73352381D01*
X157952380Y-73352381D01*
X158095238Y-73304762D01*
X158190476Y-73209524D01*
X158238095Y-73114286D01*
X158285714Y-72923810D01*
X158285714Y-72780952D01*
X158238095Y-72590476D01*
X158190476Y-72495238D01*
X158095238Y-72400000D01*
X157952380Y-72352381D01*
X157857142Y-72352381D01*
X157714285Y-72400000D01*
X157666666Y-72447619D01*
X156809523Y-72352381D02*
X157000000Y-72352381D01*
X157095238Y-72400000D01*
X157142857Y-72447619D01*
X157238095Y-72590476D01*
X157285714Y-72780952D01*
X157285714Y-73161905D01*
X157238095Y-73257143D01*
X157190476Y-73304762D01*
X157095238Y-73352381D01*
X156904761Y-73352381D01*
X156809523Y-73304762D01*
X156761904Y-73257143D01*
X156714285Y-73161905D01*
X156714285Y-72923810D01*
X156761904Y-72828571D01*
X156809523Y-72780952D01*
X156904761Y-72733333D01*
X157095238Y-72733333D01*
X157190476Y-72780952D01*
X157238095Y-72828571D01*
X157285714Y-72923810D01*
X125966666Y-85657143D02*
X126014285Y-85704762D01*
X126157142Y-85752381D01*
X126252380Y-85752381D01*
X126395238Y-85704762D01*
X126490476Y-85609524D01*
X126538095Y-85514286D01*
X126585714Y-85323810D01*
X126585714Y-85180952D01*
X126538095Y-84990476D01*
X126490476Y-84895238D01*
X126395238Y-84800000D01*
X126252380Y-84752381D01*
X126157142Y-84752381D01*
X126014285Y-84800000D01*
X125966666Y-84847619D01*
X125633333Y-84752381D02*
X124966666Y-84752381D01*
X125395238Y-85752381D01*
X125566666Y-89457143D02*
X125614285Y-89504762D01*
X125757142Y-89552381D01*
X125852380Y-89552381D01*
X125995238Y-89504762D01*
X126090476Y-89409524D01*
X126138095Y-89314286D01*
X126185714Y-89123810D01*
X126185714Y-88980952D01*
X126138095Y-88790476D01*
X126090476Y-88695238D01*
X125995238Y-88600000D01*
X125852380Y-88552381D01*
X125757142Y-88552381D01*
X125614285Y-88600000D01*
X125566666Y-88647619D01*
X124995238Y-88980952D02*
X125090476Y-88933333D01*
X125138095Y-88885714D01*
X125185714Y-88790476D01*
X125185714Y-88742857D01*
X125138095Y-88647619D01*
X125090476Y-88600000D01*
X124995238Y-88552381D01*
X124804761Y-88552381D01*
X124709523Y-88600000D01*
X124661904Y-88647619D01*
X124614285Y-88742857D01*
X124614285Y-88790476D01*
X124661904Y-88885714D01*
X124709523Y-88933333D01*
X124804761Y-88980952D01*
X124995238Y-88980952D01*
X125090476Y-89028571D01*
X125138095Y-89076190D01*
X125185714Y-89171429D01*
X125185714Y-89361905D01*
X125138095Y-89457143D01*
X125090476Y-89504762D01*
X124995238Y-89552381D01*
X124804761Y-89552381D01*
X124709523Y-89504762D01*
X124661904Y-89457143D01*
X124614285Y-89361905D01*
X124614285Y-89171429D01*
X124661904Y-89076190D01*
X124709523Y-89028571D01*
X124804761Y-88980952D01*
X141242857Y-58357143D02*
X141290476Y-58404762D01*
X141433333Y-58452381D01*
X141528571Y-58452381D01*
X141671429Y-58404762D01*
X141766667Y-58309524D01*
X141814286Y-58214286D01*
X141861905Y-58023810D01*
X141861905Y-57880952D01*
X141814286Y-57690476D01*
X141766667Y-57595238D01*
X141671429Y-57500000D01*
X141528571Y-57452381D01*
X141433333Y-57452381D01*
X141290476Y-57500000D01*
X141242857Y-57547619D01*
X140290476Y-58452381D02*
X140861905Y-58452381D01*
X140576191Y-58452381D02*
X140576191Y-57452381D01*
X140671429Y-57595238D01*
X140766667Y-57690476D01*
X140861905Y-57738095D01*
X139909524Y-57547619D02*
X139861905Y-57500000D01*
X139766667Y-57452381D01*
X139528571Y-57452381D01*
X139433333Y-57500000D01*
X139385714Y-57547619D01*
X139338095Y-57642857D01*
X139338095Y-57738095D01*
X139385714Y-57880952D01*
X139957143Y-58452381D01*
X139338095Y-58452381D01*
X158107143Y-63507143D02*
X158154762Y-63459524D01*
X158202381Y-63316667D01*
X158202381Y-63221429D01*
X158154762Y-63078571D01*
X158059524Y-62983333D01*
X157964286Y-62935714D01*
X157773810Y-62888095D01*
X157630952Y-62888095D01*
X157440476Y-62935714D01*
X157345238Y-62983333D01*
X157250000Y-63078571D01*
X157202381Y-63221429D01*
X157202381Y-63316667D01*
X157250000Y-63459524D01*
X157297619Y-63507143D01*
X158202381Y-64459524D02*
X158202381Y-63888095D01*
X158202381Y-64173809D02*
X157202381Y-64173809D01*
X157345238Y-64078571D01*
X157440476Y-63983333D01*
X157488095Y-63888095D01*
X157202381Y-64792857D02*
X157202381Y-65411905D01*
X157583333Y-65078571D01*
X157583333Y-65221429D01*
X157630952Y-65316667D01*
X157678571Y-65364286D01*
X157773810Y-65411905D01*
X158011905Y-65411905D01*
X158107143Y-65364286D01*
X158154762Y-65316667D01*
X158202381Y-65221429D01*
X158202381Y-64935714D01*
X158154762Y-64840476D01*
X158107143Y-64792857D01*
X148442857Y-87457143D02*
X148490476Y-87504762D01*
X148633333Y-87552381D01*
X148728571Y-87552381D01*
X148871429Y-87504762D01*
X148966667Y-87409524D01*
X149014286Y-87314286D01*
X149061905Y-87123810D01*
X149061905Y-86980952D01*
X149014286Y-86790476D01*
X148966667Y-86695238D01*
X148871429Y-86600000D01*
X148728571Y-86552381D01*
X148633333Y-86552381D01*
X148490476Y-86600000D01*
X148442857Y-86647619D01*
X147490476Y-87552381D02*
X148061905Y-87552381D01*
X147776191Y-87552381D02*
X147776191Y-86552381D01*
X147871429Y-86695238D01*
X147966667Y-86790476D01*
X148061905Y-86838095D01*
X146633333Y-86552381D02*
X146823810Y-86552381D01*
X146919048Y-86600000D01*
X146966667Y-86647619D01*
X147061905Y-86790476D01*
X147109524Y-86980952D01*
X147109524Y-87361905D01*
X147061905Y-87457143D01*
X147014286Y-87504762D01*
X146919048Y-87552381D01*
X146728571Y-87552381D01*
X146633333Y-87504762D01*
X146585714Y-87457143D01*
X146538095Y-87361905D01*
X146538095Y-87123810D01*
X146585714Y-87028571D01*
X146633333Y-86980952D01*
X146728571Y-86933333D01*
X146919048Y-86933333D01*
X147014286Y-86980952D01*
X147061905Y-87028571D01*
X147109524Y-87123810D01*
X127442857Y-99857143D02*
X127490476Y-99904762D01*
X127633333Y-99952381D01*
X127728571Y-99952381D01*
X127871429Y-99904762D01*
X127966667Y-99809524D01*
X128014286Y-99714286D01*
X128061905Y-99523810D01*
X128061905Y-99380952D01*
X128014286Y-99190476D01*
X127966667Y-99095238D01*
X127871429Y-99000000D01*
X127728571Y-98952381D01*
X127633333Y-98952381D01*
X127490476Y-99000000D01*
X127442857Y-99047619D01*
X127061905Y-99047619D02*
X127014286Y-99000000D01*
X126919048Y-98952381D01*
X126680952Y-98952381D01*
X126585714Y-99000000D01*
X126538095Y-99047619D01*
X126490476Y-99142857D01*
X126490476Y-99238095D01*
X126538095Y-99380952D01*
X127109524Y-99952381D01*
X126490476Y-99952381D01*
X126109524Y-99047619D02*
X126061905Y-99000000D01*
X125966667Y-98952381D01*
X125728571Y-98952381D01*
X125633333Y-99000000D01*
X125585714Y-99047619D01*
X125538095Y-99142857D01*
X125538095Y-99238095D01*
X125585714Y-99380952D01*
X126157143Y-99952381D01*
X125538095Y-99952381D01*
X126242857Y-93057143D02*
X126290476Y-93104762D01*
X126433333Y-93152381D01*
X126528571Y-93152381D01*
X126671429Y-93104762D01*
X126766667Y-93009524D01*
X126814286Y-92914286D01*
X126861905Y-92723810D01*
X126861905Y-92580952D01*
X126814286Y-92390476D01*
X126766667Y-92295238D01*
X126671429Y-92200000D01*
X126528571Y-92152381D01*
X126433333Y-92152381D01*
X126290476Y-92200000D01*
X126242857Y-92247619D01*
X125861905Y-92247619D02*
X125814286Y-92200000D01*
X125719048Y-92152381D01*
X125480952Y-92152381D01*
X125385714Y-92200000D01*
X125338095Y-92247619D01*
X125290476Y-92342857D01*
X125290476Y-92438095D01*
X125338095Y-92580952D01*
X125909524Y-93152381D01*
X125290476Y-93152381D01*
X124957143Y-92152381D02*
X124338095Y-92152381D01*
X124671429Y-92533333D01*
X124528571Y-92533333D01*
X124433333Y-92580952D01*
X124385714Y-92628571D01*
X124338095Y-92723810D01*
X124338095Y-92961905D01*
X124385714Y-93057143D01*
X124433333Y-93104762D01*
X124528571Y-93152381D01*
X124814286Y-93152381D01*
X124909524Y-93104762D01*
X124957143Y-93057143D01*
X155142857Y-82357143D02*
X155190476Y-82404762D01*
X155333333Y-82452381D01*
X155428571Y-82452381D01*
X155571429Y-82404762D01*
X155666667Y-82309524D01*
X155714286Y-82214286D01*
X155761905Y-82023810D01*
X155761905Y-81880952D01*
X155714286Y-81690476D01*
X155666667Y-81595238D01*
X155571429Y-81500000D01*
X155428571Y-81452381D01*
X155333333Y-81452381D01*
X155190476Y-81500000D01*
X155142857Y-81547619D01*
X154761905Y-81547619D02*
X154714286Y-81500000D01*
X154619048Y-81452381D01*
X154380952Y-81452381D01*
X154285714Y-81500000D01*
X154238095Y-81547619D01*
X154190476Y-81642857D01*
X154190476Y-81738095D01*
X154238095Y-81880952D01*
X154809524Y-82452381D01*
X154190476Y-82452381D01*
X153333333Y-81785714D02*
X153333333Y-82452381D01*
X153571429Y-81404762D02*
X153809524Y-82119048D01*
X153190476Y-82119048D01*
X155242857Y-77257143D02*
X155290476Y-77304762D01*
X155433333Y-77352381D01*
X155528571Y-77352381D01*
X155671429Y-77304762D01*
X155766667Y-77209524D01*
X155814286Y-77114286D01*
X155861905Y-76923810D01*
X155861905Y-76780952D01*
X155814286Y-76590476D01*
X155766667Y-76495238D01*
X155671429Y-76400000D01*
X155528571Y-76352381D01*
X155433333Y-76352381D01*
X155290476Y-76400000D01*
X155242857Y-76447619D01*
X154861905Y-76447619D02*
X154814286Y-76400000D01*
X154719048Y-76352381D01*
X154480952Y-76352381D01*
X154385714Y-76400000D01*
X154338095Y-76447619D01*
X154290476Y-76542857D01*
X154290476Y-76638095D01*
X154338095Y-76780952D01*
X154909524Y-77352381D01*
X154290476Y-77352381D01*
X153385714Y-76352381D02*
X153861905Y-76352381D01*
X153909524Y-76828571D01*
X153861905Y-76780952D01*
X153766667Y-76733333D01*
X153528571Y-76733333D01*
X153433333Y-76780952D01*
X153385714Y-76828571D01*
X153338095Y-76923810D01*
X153338095Y-77161905D01*
X153385714Y-77257143D01*
X153433333Y-77304762D01*
X153528571Y-77352381D01*
X153766667Y-77352381D01*
X153861905Y-77304762D01*
X153909524Y-77257143D01*
X120257143Y-86057143D02*
X120304762Y-86009524D01*
X120352381Y-85866667D01*
X120352381Y-85771429D01*
X120304762Y-85628571D01*
X120209524Y-85533333D01*
X120114286Y-85485714D01*
X119923810Y-85438095D01*
X119780952Y-85438095D01*
X119590476Y-85485714D01*
X119495238Y-85533333D01*
X119400000Y-85628571D01*
X119352381Y-85771429D01*
X119352381Y-85866667D01*
X119400000Y-86009524D01*
X119447619Y-86057143D01*
X119447619Y-86438095D02*
X119400000Y-86485714D01*
X119352381Y-86580952D01*
X119352381Y-86819048D01*
X119400000Y-86914286D01*
X119447619Y-86961905D01*
X119542857Y-87009524D01*
X119638095Y-87009524D01*
X119780952Y-86961905D01*
X120352381Y-86390476D01*
X120352381Y-87009524D01*
X119352381Y-87866667D02*
X119352381Y-87676190D01*
X119400000Y-87580952D01*
X119447619Y-87533333D01*
X119590476Y-87438095D01*
X119780952Y-87390476D01*
X120161905Y-87390476D01*
X120257143Y-87438095D01*
X120304762Y-87485714D01*
X120352381Y-87580952D01*
X120352381Y-87771429D01*
X120304762Y-87866667D01*
X120257143Y-87914286D01*
X120161905Y-87961905D01*
X119923810Y-87961905D01*
X119828571Y-87914286D01*
X119780952Y-87866667D01*
X119733333Y-87771429D01*
X119733333Y-87580952D01*
X119780952Y-87485714D01*
X119828571Y-87438095D01*
X119923810Y-87390476D01*
X133192857Y-65157143D02*
X133240476Y-65204762D01*
X133383333Y-65252381D01*
X133478571Y-65252381D01*
X133621429Y-65204762D01*
X133716667Y-65109524D01*
X133764286Y-65014286D01*
X133811905Y-64823810D01*
X133811905Y-64680952D01*
X133764286Y-64490476D01*
X133716667Y-64395238D01*
X133621429Y-64300000D01*
X133478571Y-64252381D01*
X133383333Y-64252381D01*
X133240476Y-64300000D01*
X133192857Y-64347619D01*
X132811905Y-64347619D02*
X132764286Y-64300000D01*
X132669048Y-64252381D01*
X132430952Y-64252381D01*
X132335714Y-64300000D01*
X132288095Y-64347619D01*
X132240476Y-64442857D01*
X132240476Y-64538095D01*
X132288095Y-64680952D01*
X132859524Y-65252381D01*
X132240476Y-65252381D01*
X131669048Y-64680952D02*
X131764286Y-64633333D01*
X131811905Y-64585714D01*
X131859524Y-64490476D01*
X131859524Y-64442857D01*
X131811905Y-64347619D01*
X131764286Y-64300000D01*
X131669048Y-64252381D01*
X131478571Y-64252381D01*
X131383333Y-64300000D01*
X131335714Y-64347619D01*
X131288095Y-64442857D01*
X131288095Y-64490476D01*
X131335714Y-64585714D01*
X131383333Y-64633333D01*
X131478571Y-64680952D01*
X131669048Y-64680952D01*
X131764286Y-64728571D01*
X131811905Y-64776190D01*
X131859524Y-64871429D01*
X131859524Y-65061905D01*
X131811905Y-65157143D01*
X131764286Y-65204762D01*
X131669048Y-65252381D01*
X131478571Y-65252381D01*
X131383333Y-65204762D01*
X131335714Y-65157143D01*
X131288095Y-65061905D01*
X131288095Y-64871429D01*
X131335714Y-64776190D01*
X131383333Y-64728571D01*
X131478571Y-64680952D01*
X146842857Y-103657143D02*
X146890476Y-103704762D01*
X147033333Y-103752381D01*
X147128571Y-103752381D01*
X147271429Y-103704762D01*
X147366667Y-103609524D01*
X147414286Y-103514286D01*
X147461905Y-103323810D01*
X147461905Y-103180952D01*
X147414286Y-102990476D01*
X147366667Y-102895238D01*
X147271429Y-102800000D01*
X147128571Y-102752381D01*
X147033333Y-102752381D01*
X146890476Y-102800000D01*
X146842857Y-102847619D01*
X146461905Y-102847619D02*
X146414286Y-102800000D01*
X146319048Y-102752381D01*
X146080952Y-102752381D01*
X145985714Y-102800000D01*
X145938095Y-102847619D01*
X145890476Y-102942857D01*
X145890476Y-103038095D01*
X145938095Y-103180952D01*
X146509524Y-103752381D01*
X145890476Y-103752381D01*
X145414286Y-103752381D02*
X145223810Y-103752381D01*
X145128571Y-103704762D01*
X145080952Y-103657143D01*
X144985714Y-103514286D01*
X144938095Y-103323810D01*
X144938095Y-102942857D01*
X144985714Y-102847619D01*
X145033333Y-102800000D01*
X145128571Y-102752381D01*
X145319048Y-102752381D01*
X145414286Y-102800000D01*
X145461905Y-102847619D01*
X145509524Y-102942857D01*
X145509524Y-103180952D01*
X145461905Y-103276190D01*
X145414286Y-103323810D01*
X145319048Y-103371429D01*
X145128571Y-103371429D01*
X145033333Y-103323810D01*
X144985714Y-103276190D01*
X144938095Y-103180952D01*
X143561905Y-72852381D02*
X143561905Y-73661905D01*
X143514286Y-73757143D01*
X143466667Y-73804762D01*
X143371429Y-73852381D01*
X143180952Y-73852381D01*
X143085714Y-73804762D01*
X143038095Y-73757143D01*
X142990476Y-73661905D01*
X142990476Y-72852381D01*
X142371429Y-73280952D02*
X142466667Y-73233333D01*
X142514286Y-73185714D01*
X142561905Y-73090476D01*
X142561905Y-73042857D01*
X142514286Y-72947619D01*
X142466667Y-72900000D01*
X142371429Y-72852381D01*
X142180952Y-72852381D01*
X142085714Y-72900000D01*
X142038095Y-72947619D01*
X141990476Y-73042857D01*
X141990476Y-73090476D01*
X142038095Y-73185714D01*
X142085714Y-73233333D01*
X142180952Y-73280952D01*
X142371429Y-73280952D01*
X142466667Y-73328571D01*
X142514286Y-73376190D01*
X142561905Y-73471429D01*
X142561905Y-73661905D01*
X142514286Y-73757143D01*
X142466667Y-73804762D01*
X142371429Y-73852381D01*
X142180952Y-73852381D01*
X142085714Y-73804762D01*
X142038095Y-73757143D01*
X141990476Y-73661905D01*
X141990476Y-73471429D01*
X142038095Y-73376190D01*
X142085714Y-73328571D01*
X142180952Y-73280952D01*
X138538095Y-93152381D02*
X138538095Y-93961905D01*
X138490476Y-94057143D01*
X138442857Y-94104762D01*
X138347619Y-94152381D01*
X138157142Y-94152381D01*
X138061904Y-94104762D01*
X138014285Y-94057143D01*
X137966666Y-93961905D01*
X137966666Y-93152381D01*
X136966666Y-94152381D02*
X137538095Y-94152381D01*
X137252381Y-94152381D02*
X137252381Y-93152381D01*
X137347619Y-93295238D01*
X137442857Y-93390476D01*
X137538095Y-93438095D01*
X136347619Y-93152381D02*
X136252380Y-93152381D01*
X136157142Y-93200000D01*
X136109523Y-93247619D01*
X136061904Y-93342857D01*
X136014285Y-93533333D01*
X136014285Y-93771429D01*
X136061904Y-93961905D01*
X136109523Y-94057143D01*
X136157142Y-94104762D01*
X136252380Y-94152381D01*
X136347619Y-94152381D01*
X136442857Y-94104762D01*
X136490476Y-94057143D01*
X136538095Y-93961905D01*
X136585714Y-93771429D01*
X136585714Y-93533333D01*
X136538095Y-93342857D01*
X136490476Y-93247619D01*
X136442857Y-93200000D01*
X136347619Y-93152381D01*
X151176191Y-61176190D02*
X151176191Y-61652381D01*
X151509524Y-60652381D02*
X151176191Y-61176190D01*
X150842857Y-60652381D01*
X149985714Y-61652381D02*
X150557143Y-61652381D01*
X150271429Y-61652381D02*
X150271429Y-60652381D01*
X150366667Y-60795238D01*
X150461905Y-60890476D01*
X150557143Y-60938095D01*
X109766666Y-62252381D02*
X110100000Y-61776190D01*
X110338095Y-62252381D02*
X110338095Y-61252381D01*
X109957142Y-61252381D01*
X109861904Y-61300000D01*
X109814285Y-61347619D01*
X109766666Y-61442857D01*
X109766666Y-61585714D01*
X109814285Y-61680952D01*
X109861904Y-61728571D01*
X109957142Y-61776190D01*
X110338095Y-61776190D01*
X108909523Y-61585714D02*
X108909523Y-62252381D01*
X109147619Y-61204762D02*
X109385714Y-61919048D01*
X108766666Y-61919048D01*
X162066666Y-88452381D02*
X162400000Y-87976190D01*
X162638095Y-88452381D02*
X162638095Y-87452381D01*
X162257142Y-87452381D01*
X162161904Y-87500000D01*
X162114285Y-87547619D01*
X162066666Y-87642857D01*
X162066666Y-87785714D01*
X162114285Y-87880952D01*
X162161904Y-87928571D01*
X162257142Y-87976190D01*
X162638095Y-87976190D01*
X161590476Y-88452381D02*
X161400000Y-88452381D01*
X161304761Y-88404762D01*
X161257142Y-88357143D01*
X161161904Y-88214286D01*
X161114285Y-88023810D01*
X161114285Y-87642857D01*
X161161904Y-87547619D01*
X161209523Y-87500000D01*
X161304761Y-87452381D01*
X161495238Y-87452381D01*
X161590476Y-87500000D01*
X161638095Y-87547619D01*
X161685714Y-87642857D01*
X161685714Y-87880952D01*
X161638095Y-87976190D01*
X161590476Y-88023810D01*
X161495238Y-88071429D01*
X161304761Y-88071429D01*
X161209523Y-88023810D01*
X161161904Y-87976190D01*
X161114285Y-87880952D01*
X163042857Y-91452381D02*
X163376191Y-90976190D01*
X163614286Y-91452381D02*
X163614286Y-90452381D01*
X163233333Y-90452381D01*
X163138095Y-90500000D01*
X163090476Y-90547619D01*
X163042857Y-90642857D01*
X163042857Y-90785714D01*
X163090476Y-90880952D01*
X163138095Y-90928571D01*
X163233333Y-90976190D01*
X163614286Y-90976190D01*
X162090476Y-91452381D02*
X162661905Y-91452381D01*
X162376191Y-91452381D02*
X162376191Y-90452381D01*
X162471429Y-90595238D01*
X162566667Y-90690476D01*
X162661905Y-90738095D01*
X161471429Y-90452381D02*
X161376190Y-90452381D01*
X161280952Y-90500000D01*
X161233333Y-90547619D01*
X161185714Y-90642857D01*
X161138095Y-90833333D01*
X161138095Y-91071429D01*
X161185714Y-91261905D01*
X161233333Y-91357143D01*
X161280952Y-91404762D01*
X161376190Y-91452381D01*
X161471429Y-91452381D01*
X161566667Y-91404762D01*
X161614286Y-91357143D01*
X161661905Y-91261905D01*
X161709524Y-91071429D01*
X161709524Y-90833333D01*
X161661905Y-90642857D01*
X161614286Y-90547619D01*
X161566667Y-90500000D01*
X161471429Y-90452381D01*
X163042857Y-94452381D02*
X163376191Y-93976190D01*
X163614286Y-94452381D02*
X163614286Y-93452381D01*
X163233333Y-93452381D01*
X163138095Y-93500000D01*
X163090476Y-93547619D01*
X163042857Y-93642857D01*
X163042857Y-93785714D01*
X163090476Y-93880952D01*
X163138095Y-93928571D01*
X163233333Y-93976190D01*
X163614286Y-93976190D01*
X162090476Y-94452381D02*
X162661905Y-94452381D01*
X162376191Y-94452381D02*
X162376191Y-93452381D01*
X162471429Y-93595238D01*
X162566667Y-93690476D01*
X162661905Y-93738095D01*
X161138095Y-94452381D02*
X161709524Y-94452381D01*
X161423810Y-94452381D02*
X161423810Y-93452381D01*
X161519048Y-93595238D01*
X161614286Y-93690476D01*
X161709524Y-93738095D01*
X162942857Y-97452381D02*
X163276191Y-96976190D01*
X163514286Y-97452381D02*
X163514286Y-96452381D01*
X163133333Y-96452381D01*
X163038095Y-96500000D01*
X162990476Y-96547619D01*
X162942857Y-96642857D01*
X162942857Y-96785714D01*
X162990476Y-96880952D01*
X163038095Y-96928571D01*
X163133333Y-96976190D01*
X163514286Y-96976190D01*
X161990476Y-97452381D02*
X162561905Y-97452381D01*
X162276191Y-97452381D02*
X162276191Y-96452381D01*
X162371429Y-96595238D01*
X162466667Y-96690476D01*
X162561905Y-96738095D01*
X161609524Y-96547619D02*
X161561905Y-96500000D01*
X161466667Y-96452381D01*
X161228571Y-96452381D01*
X161133333Y-96500000D01*
X161085714Y-96547619D01*
X161038095Y-96642857D01*
X161038095Y-96738095D01*
X161085714Y-96880952D01*
X161657143Y-97452381D01*
X161038095Y-97452381D01*
X157766666Y-84152381D02*
X158100000Y-83676190D01*
X158338095Y-84152381D02*
X158338095Y-83152381D01*
X157957142Y-83152381D01*
X157861904Y-83200000D01*
X157814285Y-83247619D01*
X157766666Y-83342857D01*
X157766666Y-83485714D01*
X157814285Y-83580952D01*
X157861904Y-83628571D01*
X157957142Y-83676190D01*
X158338095Y-83676190D01*
X156861904Y-83152381D02*
X157338095Y-83152381D01*
X157385714Y-83628571D01*
X157338095Y-83580952D01*
X157242857Y-83533333D01*
X157004761Y-83533333D01*
X156909523Y-83580952D01*
X156861904Y-83628571D01*
X156814285Y-83723810D01*
X156814285Y-83961905D01*
X156861904Y-84057143D01*
X156909523Y-84104762D01*
X157004761Y-84152381D01*
X157242857Y-84152381D01*
X157338095Y-84104762D01*
X157385714Y-84057143D01*
X157766666Y-80552381D02*
X158100000Y-80076190D01*
X158338095Y-80552381D02*
X158338095Y-79552381D01*
X157957142Y-79552381D01*
X157861904Y-79600000D01*
X157814285Y-79647619D01*
X157766666Y-79742857D01*
X157766666Y-79885714D01*
X157814285Y-79980952D01*
X157861904Y-80028571D01*
X157957142Y-80076190D01*
X158338095Y-80076190D01*
X156909523Y-79552381D02*
X157100000Y-79552381D01*
X157195238Y-79600000D01*
X157242857Y-79647619D01*
X157338095Y-79790476D01*
X157385714Y-79980952D01*
X157385714Y-80361905D01*
X157338095Y-80457143D01*
X157290476Y-80504762D01*
X157195238Y-80552381D01*
X157004761Y-80552381D01*
X156909523Y-80504762D01*
X156861904Y-80457143D01*
X156814285Y-80361905D01*
X156814285Y-80123810D01*
X156861904Y-80028571D01*
X156909523Y-79980952D01*
X157004761Y-79933333D01*
X157195238Y-79933333D01*
X157290476Y-79980952D01*
X157338095Y-80028571D01*
X157385714Y-80123810D01*
M02*
