G04 #@! TF.FileFunction,Copper,L2,Bot,Signal*
%FSLAX46Y46*%
G04 Gerber Fmt 4.6, Leading zero omitted, Abs format (unit mm)*
G04 Created by KiCad (PCBNEW (2015-07-11 BZR 5925, Git c291b88)-product) date 2015/08/03 22:31:35*
%MOMM*%
G01*
G04 APERTURE LIST*
%ADD10C,0.100000*%
%ADD11R,1.300000X1.300000*%
%ADD12C,1.300000*%
%ADD13R,2.000000X2.000000*%
%ADD14C,2.000000*%
%ADD15R,0.500000X0.900000*%
%ADD16R,0.449580X1.668780*%
%ADD17R,1.500000X0.300000*%
%ADD18R,0.300000X1.500000*%
%ADD19C,3.000000*%
%ADD20R,2.500000X2.000000*%
%ADD21R,7.000000X6.500000*%
%ADD22R,0.900000X0.500000*%
%ADD23C,1.700000*%
%ADD24R,0.750000X0.600000*%
%ADD25C,0.600000*%
%ADD26C,0.250000*%
%ADD27C,0.500000*%
%ADD28C,2.000000*%
%ADD29C,1.000000*%
%ADD30C,0.254000*%
G04 APERTURE END LIST*
D10*
X100000000Y-100000000D02*
X150000000Y-100000000D01*
X150000000Y-50000000D02*
X100000000Y-50000000D01*
X145000000Y-50000000D02*
X144000000Y-50000000D01*
X150000000Y-50000000D02*
X150000000Y-100000000D01*
X100000000Y-50000000D02*
X100000000Y-100000000D01*
D11*
X147000000Y-65500000D03*
D12*
X144500000Y-65500000D03*
D13*
X135000000Y-95000000D03*
D14*
X135000000Y-92460000D03*
X126190000Y-57500000D03*
X128730000Y-57500000D03*
X131270000Y-57500000D03*
X133810000Y-57500000D03*
D15*
X138150000Y-95000000D03*
X139650000Y-95000000D03*
X121500000Y-60850000D03*
X120000000Y-60850000D03*
D16*
X117524500Y-79864100D03*
X116874260Y-79864100D03*
X116224020Y-79864100D03*
X115573780Y-79864100D03*
X114926080Y-79864100D03*
X114275840Y-79864100D03*
X113625600Y-79864100D03*
X112975360Y-79864100D03*
X112325120Y-79864100D03*
X111674880Y-79864100D03*
X111024640Y-79864100D03*
X110374400Y-79864100D03*
X109724160Y-79864100D03*
X109073920Y-79864100D03*
X108423680Y-79864100D03*
X107775980Y-79864100D03*
X107125740Y-79864100D03*
X106475500Y-79864100D03*
X106475500Y-70135900D03*
X107125740Y-70135900D03*
X107775980Y-70135900D03*
X108423680Y-70135900D03*
X109073920Y-70135900D03*
X109724160Y-70135900D03*
X110374400Y-70135900D03*
X111024640Y-70135900D03*
X111674880Y-70135900D03*
X112325120Y-70135900D03*
X112975360Y-70135900D03*
X113625600Y-70135900D03*
X114275840Y-70135900D03*
X114926080Y-70135900D03*
X115573780Y-70135900D03*
X116224020Y-70135900D03*
X116874260Y-70135900D03*
X117524500Y-70135900D03*
D17*
X136700000Y-63000000D03*
X136700000Y-63500000D03*
X136700000Y-64000000D03*
X136700000Y-64500000D03*
X136700000Y-65000000D03*
X136700000Y-65500000D03*
X136700000Y-66000000D03*
X136700000Y-66500000D03*
X136700000Y-67000000D03*
X136700000Y-67500000D03*
X136700000Y-68000000D03*
X136700000Y-68500000D03*
X136700000Y-69000000D03*
X136700000Y-69500000D03*
X136700000Y-70000000D03*
X136700000Y-70500000D03*
X136700000Y-71000000D03*
X136700000Y-71500000D03*
X136700000Y-72000000D03*
X136700000Y-72500000D03*
X136700000Y-73000000D03*
X136700000Y-73500000D03*
X136700000Y-74000000D03*
X136700000Y-74500000D03*
X136700000Y-75000000D03*
D18*
X135000000Y-76700000D03*
X134500000Y-76700000D03*
X134000000Y-76700000D03*
X133500000Y-76700000D03*
X133000000Y-76700000D03*
X132500000Y-76700000D03*
X132000000Y-76700000D03*
X131500000Y-76700000D03*
X131000000Y-76700000D03*
X130500000Y-76700000D03*
X130000000Y-76700000D03*
X129500000Y-76700000D03*
X129000000Y-76700000D03*
X128500000Y-76700000D03*
X128000000Y-76700000D03*
X127500000Y-76700000D03*
X127000000Y-76700000D03*
X126500000Y-76700000D03*
X126000000Y-76700000D03*
X125500000Y-76700000D03*
X125000000Y-76700000D03*
X124500000Y-76700000D03*
X124000000Y-76700000D03*
X123500000Y-76700000D03*
X123000000Y-76700000D03*
D17*
X121300000Y-75000000D03*
X121300000Y-74500000D03*
X121300000Y-74000000D03*
X121300000Y-73500000D03*
X121300000Y-73000000D03*
X121300000Y-72500000D03*
X121300000Y-72000000D03*
X121300000Y-71500000D03*
X121300000Y-71000000D03*
X121300000Y-70500000D03*
X121300000Y-70000000D03*
X121300000Y-69500000D03*
X121300000Y-69000000D03*
X121300000Y-68500000D03*
X121300000Y-68000000D03*
X121300000Y-67500000D03*
X121300000Y-67000000D03*
X121300000Y-66500000D03*
X121300000Y-66000000D03*
X121300000Y-65500000D03*
X121300000Y-65000000D03*
X121300000Y-64500000D03*
X121300000Y-64000000D03*
X121300000Y-63500000D03*
X121300000Y-63000000D03*
D18*
X123000000Y-61300000D03*
X123500000Y-61300000D03*
X124000000Y-61300000D03*
X124500000Y-61300000D03*
X125000000Y-61300000D03*
X125500000Y-61300000D03*
X126000000Y-61300000D03*
X126500000Y-61300000D03*
X127000000Y-61300000D03*
X127500000Y-61300000D03*
X128000000Y-61300000D03*
X128500000Y-61300000D03*
X129000000Y-61300000D03*
X129500000Y-61300000D03*
X130000000Y-61300000D03*
X130500000Y-61300000D03*
X131000000Y-61300000D03*
X131500000Y-61300000D03*
X132000000Y-61300000D03*
X132500000Y-61300000D03*
X133000000Y-61300000D03*
X133500000Y-61300000D03*
X134000000Y-61300000D03*
X134500000Y-61300000D03*
X135000000Y-61300000D03*
D19*
X109540000Y-60000000D03*
X117460000Y-60000000D03*
X120910000Y-55650000D03*
X106090000Y-55650000D03*
D14*
X121920000Y-80500000D03*
X124460000Y-80500000D03*
X127000000Y-80500000D03*
X129540000Y-80500000D03*
X132080000Y-80500000D03*
X143080000Y-86190000D03*
X143080000Y-83650000D03*
X143080000Y-81110000D03*
X143080000Y-78570000D03*
X143080000Y-76030000D03*
D20*
X146710000Y-60450000D03*
X146710000Y-55850000D03*
D21*
X140410000Y-58150000D03*
D14*
X110050000Y-72450000D03*
X113950000Y-77600000D03*
D13*
X128700000Y-95000000D03*
D14*
X128700000Y-92460000D03*
D15*
X125500000Y-91850000D03*
X124000000Y-91850000D03*
D22*
X119550000Y-76450000D03*
X119550000Y-74950000D03*
X119500000Y-80250000D03*
X119500000Y-78750000D03*
D15*
X123500000Y-58050000D03*
X122000000Y-58050000D03*
D19*
X119710000Y-92100000D03*
X111790000Y-92100000D03*
X108340000Y-96450000D03*
X123160000Y-96450000D03*
D23*
X103500000Y-80250000D03*
X103500000Y-86750000D03*
X103500000Y-69750000D03*
X103500000Y-63250000D03*
D14*
X113950000Y-67900000D03*
D24*
X120150000Y-59450000D03*
X121250000Y-59450000D03*
D25*
X128850000Y-69300000D03*
X127150000Y-69300000D03*
X144660000Y-56400000D03*
X144670000Y-55420000D03*
X122550000Y-59450000D03*
X120900000Y-62050000D03*
X141450000Y-95000000D03*
X138850000Y-67500000D03*
X138900000Y-69500000D03*
X129000000Y-78460000D03*
X122900000Y-68700000D03*
X122900000Y-67300000D03*
X128700000Y-68200000D03*
X127350000Y-68200000D03*
X124300000Y-67000000D03*
X134500000Y-62900000D03*
X123100000Y-63200000D03*
X129500000Y-63000000D03*
X134600000Y-75000000D03*
X123000000Y-75100000D03*
X129500000Y-75100000D03*
X127500000Y-63550000D03*
X122800000Y-70900000D03*
X139620000Y-72500000D03*
X140470000Y-74410000D03*
X141270000Y-73440000D03*
D26*
X110850000Y-65800000D02*
X110800000Y-65800000D01*
X144660000Y-56400000D02*
X146160000Y-56400000D01*
X146160000Y-56400000D02*
X146710000Y-55850000D01*
X144670000Y-55420000D02*
X146280000Y-55420000D01*
X146280000Y-55420000D02*
X146710000Y-55850000D01*
X146090000Y-55850000D02*
X146710000Y-55850000D01*
X146040000Y-55000000D02*
X147000000Y-55960000D01*
X121250000Y-59450000D02*
X122550000Y-59450000D01*
X120000000Y-60850000D02*
X120000000Y-61150000D01*
X120000000Y-61150000D02*
X120900000Y-62050000D01*
D27*
X139650000Y-95000000D02*
X141450000Y-95000000D01*
D26*
X136700000Y-67500000D02*
X138850000Y-67500000D01*
X136700000Y-69500000D02*
X138900000Y-69500000D01*
D27*
X124000000Y-91850000D02*
X123750000Y-92100000D01*
X123750000Y-92100000D02*
X119710000Y-92100000D01*
D28*
X140410000Y-58150000D02*
X140410000Y-61410000D01*
X140410000Y-61410000D02*
X144500000Y-65500000D01*
D26*
X129000000Y-76700000D02*
X129000000Y-78460000D01*
X128500000Y-61300000D02*
X128500000Y-57730000D01*
X128500000Y-57730000D02*
X128730000Y-57500000D01*
X121300000Y-67500000D02*
X122700000Y-67500000D01*
X122700000Y-68500000D02*
X121300000Y-68500000D01*
X122900000Y-68700000D02*
X122700000Y-68500000D01*
X122700000Y-67500000D02*
X122900000Y-67300000D01*
X136700000Y-69500000D02*
X136700000Y-69000000D01*
D27*
X134500000Y-68200000D02*
X128700000Y-68200000D01*
X127350000Y-68200000D02*
X125500000Y-68200000D01*
X125500000Y-68200000D02*
X124300000Y-67000000D01*
X135000000Y-92460000D02*
X135000000Y-84600000D01*
X135000000Y-84600000D02*
X133100000Y-82700000D01*
X133200000Y-82700000D02*
X133100000Y-82700000D01*
X133100000Y-82700000D02*
X132000000Y-82700000D01*
X126660000Y-82700000D02*
X132000000Y-82700000D01*
X124460000Y-80500000D02*
X126660000Y-82700000D01*
D29*
X147000000Y-73120000D02*
X144090000Y-76030000D01*
X144090000Y-76030000D02*
X143730000Y-76030000D01*
X143730000Y-76030000D02*
X143080000Y-76030000D01*
X143080000Y-76030000D02*
X143730000Y-76030000D01*
D26*
X134500000Y-63550000D02*
X134500000Y-62900000D01*
X123850000Y-68000000D02*
X124250000Y-68000000D01*
X124250000Y-68000000D02*
X124300000Y-67950000D01*
D29*
X147000000Y-65500000D02*
X147000000Y-72760000D01*
X147000000Y-72760000D02*
X147000000Y-73120000D01*
D26*
X129500000Y-63000000D02*
X129600000Y-62900000D01*
X129600000Y-62900000D02*
X134500000Y-62900000D01*
X134600000Y-75000000D02*
X134500000Y-74900000D01*
X134500000Y-74900000D02*
X134500000Y-68200000D01*
X134500000Y-68200000D02*
X134500000Y-63550000D01*
X134500000Y-63550000D02*
X134500000Y-63350000D01*
X135000000Y-78110000D02*
X135000000Y-76700000D01*
D29*
X146710000Y-60450000D02*
X147000000Y-60740000D01*
X147000000Y-60740000D02*
X147000000Y-65500000D01*
D26*
X146710000Y-60450000D02*
X147000000Y-60740000D01*
X121300000Y-68000000D02*
X123850000Y-68000000D01*
X123850000Y-68000000D02*
X123900000Y-68000000D01*
X124300000Y-69100000D02*
X124300000Y-67950000D01*
X124300000Y-67950000D02*
X124300000Y-67600000D01*
X124300000Y-67600000D02*
X124300000Y-67000000D01*
X124300000Y-67000000D02*
X124300000Y-64400000D01*
X124300000Y-64400000D02*
X123100000Y-63200000D01*
X124300000Y-69100000D02*
X124300000Y-74300000D01*
X123000000Y-75100000D02*
X123600000Y-74500000D01*
X123600000Y-74500000D02*
X123800000Y-74300000D01*
X123800000Y-74300000D02*
X124300000Y-74300000D01*
X123000000Y-76700000D02*
X123000000Y-79040000D01*
X123000000Y-79040000D02*
X124460000Y-80500000D01*
X135000000Y-61300000D02*
X135000000Y-62400000D01*
X135000000Y-62400000D02*
X134500000Y-62900000D01*
X121300000Y-63000000D02*
X122900000Y-63000000D01*
X122900000Y-63000000D02*
X123100000Y-63200000D01*
X129000000Y-61300000D02*
X129000000Y-62500000D01*
X129000000Y-62500000D02*
X129500000Y-63000000D01*
X135000000Y-76700000D02*
X135000000Y-75400000D01*
X135000000Y-75400000D02*
X134600000Y-75000000D01*
X123000000Y-76700000D02*
X123000000Y-75100000D01*
D27*
X135000000Y-95000000D02*
X138150000Y-95000000D01*
D26*
X120150000Y-59450000D02*
X120150000Y-59700000D01*
X120150000Y-59700000D02*
X121300000Y-60850000D01*
X121300000Y-60850000D02*
X121500000Y-60850000D01*
X120150000Y-59450000D02*
X120150000Y-59050000D01*
X120150000Y-59050000D02*
X120000000Y-58900000D01*
X120000000Y-58900000D02*
X119350000Y-58250000D01*
X121500000Y-60850000D02*
X121400000Y-60850000D01*
X123000000Y-61300000D02*
X121950000Y-61300000D01*
X121950000Y-61300000D02*
X121500000Y-60850000D01*
X119350000Y-58250000D02*
X119050000Y-57950000D01*
X119050000Y-57950000D02*
X115400000Y-57950000D01*
X115400000Y-57950000D02*
X114850000Y-58500000D01*
X114850000Y-58500000D02*
X114850000Y-61450000D01*
X114850000Y-61450000D02*
X112350000Y-63950000D01*
X112350000Y-63950000D02*
X112350000Y-65800000D01*
X112325120Y-70135900D02*
X112325120Y-65824880D01*
X112325120Y-65824880D02*
X112350000Y-65800000D01*
D27*
X128700000Y-92460000D02*
X128700000Y-91340000D01*
X128700000Y-91340000D02*
X125810000Y-88450000D01*
X111790000Y-92100000D02*
X115440000Y-88450000D01*
X115440000Y-88450000D02*
X125810000Y-88450000D01*
D26*
X109724160Y-79864100D02*
X110374400Y-79864100D01*
X109073920Y-79864100D02*
X109724160Y-79864100D01*
X111024640Y-79864100D02*
X110374400Y-79864100D01*
X129500000Y-76700000D02*
X129500000Y-75100000D01*
X127500000Y-63550000D02*
X128000000Y-63550000D01*
X128000000Y-63550000D02*
X127950000Y-63550000D01*
X127950000Y-63550000D02*
X128000000Y-63550000D01*
X128500000Y-76700000D02*
X128500000Y-74900000D01*
X128500000Y-74900000D02*
X128000000Y-74400000D01*
X128000000Y-74400000D02*
X128000000Y-63550000D01*
X128000000Y-63550000D02*
X128000000Y-62400000D01*
X128000000Y-62400000D02*
X128000000Y-61300000D01*
X121300000Y-69000000D02*
X122300000Y-69000000D01*
X122800000Y-69500000D02*
X122800000Y-70900000D01*
X122300000Y-69000000D02*
X122800000Y-69500000D01*
X136700000Y-72500000D02*
X139620000Y-72500000D01*
X136700000Y-73000000D02*
X138030000Y-73000000D01*
X138030000Y-73000000D02*
X138440000Y-73000000D01*
X138440000Y-73000000D02*
X139060000Y-73000000D01*
X139060000Y-73000000D02*
X140470000Y-74410000D01*
X136700000Y-70000000D02*
X138400000Y-70000000D01*
X138400000Y-70000000D02*
X141270000Y-72870000D01*
X141270000Y-72870000D02*
X141270000Y-73440000D01*
X125500000Y-76700000D02*
X125500000Y-79000000D01*
X125500000Y-79000000D02*
X127000000Y-80500000D01*
X131500000Y-76700000D02*
X131500000Y-77950000D01*
X131500000Y-77950000D02*
X129540000Y-79910000D01*
X129540000Y-79910000D02*
X129540000Y-80500000D01*
X132500000Y-76700000D02*
X132500000Y-80080000D01*
X132500000Y-80080000D02*
X132080000Y-80500000D01*
X131000000Y-61300000D02*
X131000000Y-57770000D01*
X131000000Y-57770000D02*
X131270000Y-57500000D01*
X134000000Y-61300000D02*
X134000000Y-57690000D01*
X134000000Y-57690000D02*
X133810000Y-57500000D01*
X121300000Y-74500000D02*
X120000000Y-74500000D01*
X120000000Y-74500000D02*
X119550000Y-74950000D01*
X121300000Y-75000000D02*
X121300000Y-76950000D01*
X121300000Y-76950000D02*
X119500000Y-78750000D01*
X123500000Y-61300000D02*
X123500000Y-58050000D01*
D27*
X128700000Y-95000000D02*
X127050000Y-95000000D01*
X127050000Y-95000000D02*
X125500000Y-93450000D01*
X125500000Y-93450000D02*
X125500000Y-91850000D01*
D26*
X119550000Y-76450000D02*
X119550000Y-76850000D01*
X119550000Y-76850000D02*
X118400000Y-78000000D01*
X118400000Y-78000000D02*
X118400000Y-80900000D01*
X118400000Y-80900000D02*
X117850000Y-81450000D01*
X117850000Y-81450000D02*
X112500000Y-81450000D01*
X112500000Y-81450000D02*
X112325120Y-81275120D01*
X112325120Y-81275120D02*
X112325120Y-79864100D01*
X119500000Y-80250000D02*
X119500000Y-81150000D01*
X119500000Y-81150000D02*
X118650000Y-82000000D01*
X118650000Y-82000000D02*
X111800000Y-82000000D01*
X111800000Y-82000000D02*
X111674880Y-81874880D01*
X111674880Y-81874880D02*
X111674880Y-79864100D01*
X122000000Y-58050000D02*
X120100000Y-58050000D01*
X120100000Y-58050000D02*
X119200000Y-57150000D01*
X119200000Y-57150000D02*
X114500000Y-57150000D01*
X114500000Y-57150000D02*
X113950000Y-57700000D01*
X113950000Y-57700000D02*
X113950000Y-60650000D01*
X113950000Y-60650000D02*
X111600000Y-63000000D01*
X111600000Y-63000000D02*
X111600000Y-68450000D01*
X111600000Y-68450000D02*
X111674880Y-68524880D01*
X111674880Y-68524880D02*
X111674880Y-70135900D01*
D30*
G36*
X119023000Y-58562224D02*
X119023000Y-68973000D01*
X117950000Y-68973000D01*
X117901399Y-68982667D01*
X117860197Y-69010197D01*
X117832667Y-69051399D01*
X117823000Y-69100000D01*
X117823000Y-80773000D01*
X115477000Y-80773000D01*
X115477000Y-80734771D01*
X115484276Y-80698490D01*
X115484276Y-79029710D01*
X115477000Y-78992208D01*
X115477000Y-71006571D01*
X115484276Y-70970290D01*
X115484276Y-69301510D01*
X115477000Y-69264008D01*
X115477000Y-58512225D01*
X115562225Y-58427000D01*
X118887776Y-58427000D01*
X119023000Y-58562224D01*
X119023000Y-58562224D01*
G37*
X119023000Y-58562224D02*
X119023000Y-68973000D01*
X117950000Y-68973000D01*
X117901399Y-68982667D01*
X117860197Y-69010197D01*
X117832667Y-69051399D01*
X117823000Y-69100000D01*
X117823000Y-80773000D01*
X115477000Y-80773000D01*
X115477000Y-80734771D01*
X115484276Y-80698490D01*
X115484276Y-79029710D01*
X115477000Y-78992208D01*
X115477000Y-71006571D01*
X115484276Y-70970290D01*
X115484276Y-69301510D01*
X115477000Y-69264008D01*
X115477000Y-58512225D01*
X115562225Y-58427000D01*
X118887776Y-58427000D01*
X119023000Y-58562224D01*
G36*
X111173000Y-61623000D02*
X108650000Y-61623000D01*
X108601399Y-61632667D01*
X108560197Y-61660197D01*
X108532667Y-61701399D01*
X108523000Y-61750000D01*
X108523000Y-69265229D01*
X108515724Y-69301510D01*
X108515724Y-70970290D01*
X108523000Y-71007792D01*
X108523000Y-78993429D01*
X108515724Y-79029710D01*
X108515724Y-80698490D01*
X108523000Y-80735992D01*
X108523000Y-80773000D01*
X106177000Y-80773000D01*
X106177000Y-58427000D01*
X111173000Y-58427000D01*
X111173000Y-61623000D01*
X111173000Y-61623000D01*
G37*
X111173000Y-61623000D02*
X108650000Y-61623000D01*
X108601399Y-61632667D01*
X108560197Y-61660197D01*
X108532667Y-61701399D01*
X108523000Y-61750000D01*
X108523000Y-69265229D01*
X108515724Y-69301510D01*
X108515724Y-70970290D01*
X108523000Y-71007792D01*
X108523000Y-78993429D01*
X108515724Y-79029710D01*
X108515724Y-80698490D01*
X108523000Y-80735992D01*
X108523000Y-80773000D01*
X106177000Y-80773000D01*
X106177000Y-58427000D01*
X111173000Y-58427000D01*
X111173000Y-61623000D01*
G36*
X115013000Y-77152605D02*
X115013000Y-80773000D01*
X112877000Y-80773000D01*
X112877000Y-80729984D01*
X112883316Y-80698490D01*
X112883316Y-79029710D01*
X112877000Y-78997156D01*
X112877000Y-77152605D01*
X113522605Y-76507000D01*
X114367394Y-76507000D01*
X115013000Y-77152605D01*
X115013000Y-77152605D01*
G37*
X115013000Y-77152605D02*
X115013000Y-80773000D01*
X112877000Y-80773000D01*
X112877000Y-80729984D01*
X112883316Y-80698490D01*
X112883316Y-79029710D01*
X112877000Y-78997156D01*
X112877000Y-77152605D01*
X113522605Y-76507000D01*
X114367394Y-76507000D01*
X115013000Y-77152605D01*
G36*
X115023000Y-69028451D02*
X115007667Y-69051399D01*
X114998000Y-69100000D01*
X114998000Y-71169030D01*
X111136704Y-78792616D01*
X111135387Y-78797327D01*
X111132667Y-78801399D01*
X111128759Y-78821045D01*
X111123367Y-78840341D01*
X111123954Y-78845202D01*
X111123000Y-78850000D01*
X111123000Y-78998216D01*
X111116684Y-79029710D01*
X111116684Y-80698490D01*
X111123000Y-80731044D01*
X111123000Y-81100000D01*
X111132667Y-81148601D01*
X111160197Y-81189803D01*
X111201399Y-81217333D01*
X111222880Y-81221606D01*
X111222880Y-81874880D01*
X111257286Y-82047853D01*
X111355268Y-82194492D01*
X111480387Y-82319612D01*
X111627027Y-82417594D01*
X111800000Y-82452000D01*
X116873000Y-82452000D01*
X116873000Y-97873000D01*
X109500540Y-97873000D01*
X109887952Y-97486264D01*
X110166682Y-96815007D01*
X110167316Y-96088182D01*
X109889758Y-95416440D01*
X109376264Y-94902048D01*
X108977000Y-94736259D01*
X108977000Y-85550000D01*
X108967333Y-85501399D01*
X108939803Y-85460197D01*
X108898601Y-85432667D01*
X108850000Y-85423000D01*
X102427000Y-85423000D01*
X102427000Y-68577000D01*
X105623000Y-68577000D01*
X105623000Y-81100000D01*
X105632667Y-81148601D01*
X105660197Y-81189803D01*
X105701399Y-81217333D01*
X105750000Y-81227000D01*
X108850000Y-81227000D01*
X108898601Y-81217333D01*
X108939803Y-81189803D01*
X108967333Y-81148601D01*
X108977000Y-81100000D01*
X108977000Y-80722804D01*
X108981876Y-80698490D01*
X108981876Y-79029710D01*
X108977000Y-79004578D01*
X108977000Y-78880327D01*
X112863296Y-71207384D01*
X112864612Y-71202672D01*
X112867333Y-71198601D01*
X112871242Y-71178946D01*
X112876632Y-71159659D01*
X112876045Y-71154800D01*
X112877000Y-71150000D01*
X112877000Y-71001784D01*
X112883316Y-70970290D01*
X112883316Y-69301510D01*
X112877000Y-69268956D01*
X112877000Y-66827000D01*
X115023000Y-66827000D01*
X115023000Y-69028451D01*
X115023000Y-69028451D01*
G37*
X115023000Y-69028451D02*
X115007667Y-69051399D01*
X114998000Y-69100000D01*
X114998000Y-71169030D01*
X111136704Y-78792616D01*
X111135387Y-78797327D01*
X111132667Y-78801399D01*
X111128759Y-78821045D01*
X111123367Y-78840341D01*
X111123954Y-78845202D01*
X111123000Y-78850000D01*
X111123000Y-78998216D01*
X111116684Y-79029710D01*
X111116684Y-80698490D01*
X111123000Y-80731044D01*
X111123000Y-81100000D01*
X111132667Y-81148601D01*
X111160197Y-81189803D01*
X111201399Y-81217333D01*
X111222880Y-81221606D01*
X111222880Y-81874880D01*
X111257286Y-82047853D01*
X111355268Y-82194492D01*
X111480387Y-82319612D01*
X111627027Y-82417594D01*
X111800000Y-82452000D01*
X116873000Y-82452000D01*
X116873000Y-97873000D01*
X109500540Y-97873000D01*
X109887952Y-97486264D01*
X110166682Y-96815007D01*
X110167316Y-96088182D01*
X109889758Y-95416440D01*
X109376264Y-94902048D01*
X108977000Y-94736259D01*
X108977000Y-85550000D01*
X108967333Y-85501399D01*
X108939803Y-85460197D01*
X108898601Y-85432667D01*
X108850000Y-85423000D01*
X102427000Y-85423000D01*
X102427000Y-68577000D01*
X105623000Y-68577000D01*
X105623000Y-81100000D01*
X105632667Y-81148601D01*
X105660197Y-81189803D01*
X105701399Y-81217333D01*
X105750000Y-81227000D01*
X108850000Y-81227000D01*
X108898601Y-81217333D01*
X108939803Y-81189803D01*
X108967333Y-81148601D01*
X108977000Y-81100000D01*
X108977000Y-80722804D01*
X108981876Y-80698490D01*
X108981876Y-79029710D01*
X108977000Y-79004578D01*
X108977000Y-78880327D01*
X112863296Y-71207384D01*
X112864612Y-71202672D01*
X112867333Y-71198601D01*
X112871242Y-71178946D01*
X112876632Y-71159659D01*
X112876045Y-71154800D01*
X112877000Y-71150000D01*
X112877000Y-71001784D01*
X112883316Y-70970290D01*
X112883316Y-69301510D01*
X112877000Y-69268956D01*
X112877000Y-66827000D01*
X115023000Y-66827000D01*
X115023000Y-69028451D01*
G36*
X122178555Y-68042375D02*
X122050000Y-68016594D01*
X120550000Y-68016594D01*
X120425316Y-68040785D01*
X120327000Y-68105368D01*
X120327000Y-67893875D01*
X120421445Y-67957625D01*
X120550000Y-67983406D01*
X122050000Y-67983406D01*
X122174684Y-67959215D01*
X122185668Y-67952000D01*
X122700000Y-67952000D01*
X122826008Y-67926936D01*
X123024171Y-67927109D01*
X123254703Y-67831855D01*
X123431235Y-67655631D01*
X123526891Y-67425265D01*
X123527109Y-67175829D01*
X123431855Y-66945297D01*
X123255631Y-66768765D01*
X123025265Y-66673109D01*
X122775829Y-66672891D01*
X122545297Y-66768145D01*
X122383406Y-66929754D01*
X122383406Y-66850000D01*
X122363683Y-66748346D01*
X122383406Y-66650000D01*
X122383406Y-66350000D01*
X122363683Y-66248346D01*
X122383406Y-66150000D01*
X122383406Y-65850000D01*
X122363683Y-65748346D01*
X122383406Y-65650000D01*
X122383406Y-65350000D01*
X122363683Y-65248346D01*
X122383406Y-65150000D01*
X122383406Y-64850000D01*
X122363683Y-64748346D01*
X122383406Y-64650000D01*
X122383406Y-64350000D01*
X122363683Y-64248346D01*
X122383406Y-64150000D01*
X122383406Y-63850000D01*
X122363683Y-63748346D01*
X122383406Y-63650000D01*
X122383406Y-63350000D01*
X122359215Y-63225316D01*
X122287229Y-63115730D01*
X122178555Y-63042375D01*
X122050000Y-63016594D01*
X120550000Y-63016594D01*
X120425316Y-63040785D01*
X120327000Y-63105368D01*
X120327000Y-62305125D01*
X120368145Y-62404703D01*
X120544369Y-62581235D01*
X120774735Y-62676891D01*
X121024171Y-62677109D01*
X121254703Y-62581855D01*
X121431235Y-62405631D01*
X121526891Y-62175265D01*
X121527109Y-61925829D01*
X121431855Y-61695297D01*
X121370072Y-61633406D01*
X121651032Y-61633406D01*
X121777027Y-61717594D01*
X121950000Y-61752000D01*
X122516594Y-61752000D01*
X122516594Y-62050000D01*
X122540785Y-62174684D01*
X122612771Y-62284270D01*
X122721445Y-62357625D01*
X122850000Y-62383406D01*
X123150000Y-62383406D01*
X123251654Y-62363683D01*
X123350000Y-62383406D01*
X123650000Y-62383406D01*
X123751654Y-62363683D01*
X123850000Y-62383406D01*
X124150000Y-62383406D01*
X124251654Y-62363683D01*
X124350000Y-62383406D01*
X124650000Y-62383406D01*
X124751654Y-62363683D01*
X124850000Y-62383406D01*
X125150000Y-62383406D01*
X125251654Y-62363683D01*
X125350000Y-62383406D01*
X125650000Y-62383406D01*
X125751654Y-62363683D01*
X125850000Y-62383406D01*
X126150000Y-62383406D01*
X126251654Y-62363683D01*
X126350000Y-62383406D01*
X126650000Y-62383406D01*
X126751654Y-62363683D01*
X126850000Y-62383406D01*
X127150000Y-62383406D01*
X127251654Y-62363683D01*
X127350000Y-62383406D01*
X127548000Y-62383406D01*
X127548000Y-62923041D01*
X127375829Y-62922891D01*
X127145297Y-63018145D01*
X126968765Y-63194369D01*
X126873109Y-63424735D01*
X126872891Y-63674171D01*
X126968145Y-63904703D01*
X127144369Y-64081235D01*
X127374735Y-64176891D01*
X127548000Y-64177042D01*
X127548000Y-68811208D01*
X127505631Y-68768765D01*
X127275265Y-68673109D01*
X127025829Y-68672891D01*
X126795297Y-68768145D01*
X126618765Y-68944369D01*
X126523109Y-69174735D01*
X126522891Y-69424171D01*
X126618145Y-69654703D01*
X126794369Y-69831235D01*
X127024735Y-69926891D01*
X127274171Y-69927109D01*
X127504703Y-69831855D01*
X127548000Y-69788634D01*
X127548000Y-74400000D01*
X127582406Y-74572973D01*
X127680388Y-74719612D01*
X128048000Y-75087224D01*
X128048000Y-75616594D01*
X127850000Y-75616594D01*
X127748346Y-75636317D01*
X127650000Y-75616594D01*
X127350000Y-75616594D01*
X127248346Y-75636317D01*
X127150000Y-75616594D01*
X126850000Y-75616594D01*
X126748346Y-75636317D01*
X126650000Y-75616594D01*
X126350000Y-75616594D01*
X126248346Y-75636317D01*
X126150000Y-75616594D01*
X125850000Y-75616594D01*
X125748346Y-75636317D01*
X125650000Y-75616594D01*
X125350000Y-75616594D01*
X125248346Y-75636317D01*
X125150000Y-75616594D01*
X124850000Y-75616594D01*
X124748346Y-75636317D01*
X124650000Y-75616594D01*
X124350000Y-75616594D01*
X124248346Y-75636317D01*
X124150000Y-75616594D01*
X123850000Y-75616594D01*
X123748346Y-75636317D01*
X123650000Y-75616594D01*
X123350000Y-75616594D01*
X123225316Y-75640785D01*
X123115730Y-75712771D01*
X123042375Y-75821445D01*
X123016594Y-75950000D01*
X123016594Y-77450000D01*
X123040785Y-77574684D01*
X123112771Y-77684270D01*
X123221445Y-77757625D01*
X123350000Y-77783406D01*
X123650000Y-77783406D01*
X123751654Y-77763683D01*
X123850000Y-77783406D01*
X124150000Y-77783406D01*
X124251654Y-77763683D01*
X124350000Y-77783406D01*
X124650000Y-77783406D01*
X124751654Y-77763683D01*
X124850000Y-77783406D01*
X125048000Y-77783406D01*
X125048000Y-79000000D01*
X125082406Y-79172973D01*
X125180388Y-79319612D01*
X125797174Y-79936399D01*
X125673231Y-80234885D01*
X125672771Y-80762798D01*
X125874369Y-81250703D01*
X126247334Y-81624319D01*
X126734885Y-81826769D01*
X127262798Y-81827229D01*
X127750703Y-81625631D01*
X128124319Y-81252666D01*
X128270109Y-80901567D01*
X128414369Y-81250703D01*
X128787334Y-81624319D01*
X129274885Y-81826769D01*
X129802798Y-81827229D01*
X130290703Y-81625631D01*
X130664319Y-81252666D01*
X130810109Y-80901567D01*
X130954369Y-81250703D01*
X131327334Y-81624319D01*
X131814885Y-81826769D01*
X132342798Y-81827229D01*
X132830703Y-81625631D01*
X133204319Y-81252666D01*
X133406769Y-80765115D01*
X133407229Y-80237202D01*
X133205631Y-79749297D01*
X132952000Y-79495223D01*
X132952000Y-78832798D01*
X141752771Y-78832798D01*
X141954369Y-79320703D01*
X142327334Y-79694319D01*
X142678433Y-79840109D01*
X142329297Y-79984369D01*
X141955681Y-80357334D01*
X141753231Y-80844885D01*
X141752771Y-81372798D01*
X141954369Y-81860703D01*
X142327334Y-82234319D01*
X142678433Y-82380109D01*
X142329297Y-82524369D01*
X141955681Y-82897334D01*
X141753231Y-83384885D01*
X141752771Y-83912798D01*
X141954369Y-84400703D01*
X142327334Y-84774319D01*
X142678433Y-84920109D01*
X142329297Y-85064369D01*
X141955681Y-85437334D01*
X141753231Y-85924885D01*
X141752771Y-86452798D01*
X141954369Y-86940703D01*
X142327334Y-87314319D01*
X142814885Y-87516769D01*
X143342798Y-87517229D01*
X143830703Y-87315631D01*
X144204319Y-86942666D01*
X144406769Y-86455115D01*
X144407229Y-85927202D01*
X144205631Y-85439297D01*
X143832666Y-85065681D01*
X143481567Y-84919891D01*
X143830703Y-84775631D01*
X144204319Y-84402666D01*
X144406769Y-83915115D01*
X144407229Y-83387202D01*
X144205631Y-82899297D01*
X143832666Y-82525681D01*
X143481567Y-82379891D01*
X143830703Y-82235631D01*
X144204319Y-81862666D01*
X144406769Y-81375115D01*
X144407229Y-80847202D01*
X144205631Y-80359297D01*
X143832666Y-79985681D01*
X143481567Y-79839891D01*
X143830703Y-79695631D01*
X144204319Y-79322666D01*
X144406769Y-78835115D01*
X144407229Y-78307202D01*
X144205631Y-77819297D01*
X143832666Y-77445681D01*
X143345115Y-77243231D01*
X142817202Y-77242771D01*
X142329297Y-77444369D01*
X141955681Y-77817334D01*
X141753231Y-78304885D01*
X141752771Y-78832798D01*
X132952000Y-78832798D01*
X132952000Y-77783406D01*
X133150000Y-77783406D01*
X133251654Y-77763683D01*
X133350000Y-77783406D01*
X133650000Y-77783406D01*
X133751654Y-77763683D01*
X133850000Y-77783406D01*
X134150000Y-77783406D01*
X134251654Y-77763683D01*
X134350000Y-77783406D01*
X134650000Y-77783406D01*
X134774684Y-77759215D01*
X134884270Y-77687229D01*
X134957625Y-77578555D01*
X134983406Y-77450000D01*
X134983406Y-75950000D01*
X134959215Y-75825316D01*
X134887229Y-75715730D01*
X134778555Y-75642375D01*
X134650000Y-75616594D01*
X134350000Y-75616594D01*
X134248346Y-75636317D01*
X134150000Y-75616594D01*
X133850000Y-75616594D01*
X133748346Y-75636317D01*
X133650000Y-75616594D01*
X133350000Y-75616594D01*
X133248346Y-75636317D01*
X133150000Y-75616594D01*
X132850000Y-75616594D01*
X132748346Y-75636317D01*
X132650000Y-75616594D01*
X132350000Y-75616594D01*
X132248346Y-75636317D01*
X132150000Y-75616594D01*
X131850000Y-75616594D01*
X131748346Y-75636317D01*
X131650000Y-75616594D01*
X131350000Y-75616594D01*
X131248346Y-75636317D01*
X131150000Y-75616594D01*
X130850000Y-75616594D01*
X130748346Y-75636317D01*
X130650000Y-75616594D01*
X130350000Y-75616594D01*
X130248346Y-75636317D01*
X130150000Y-75616594D01*
X129952000Y-75616594D01*
X129952000Y-75534728D01*
X130031235Y-75455631D01*
X130126891Y-75225265D01*
X130127109Y-74975829D01*
X130031855Y-74745297D01*
X129855631Y-74568765D01*
X129625265Y-74473109D01*
X129375829Y-74472891D01*
X129145297Y-74568145D01*
X128968765Y-74744369D01*
X128936500Y-74822073D01*
X128917594Y-74727027D01*
X128819612Y-74580388D01*
X128452000Y-74212776D01*
X128452000Y-69788792D01*
X128494369Y-69831235D01*
X128724735Y-69926891D01*
X128974171Y-69927109D01*
X129204703Y-69831855D01*
X129381235Y-69655631D01*
X129476891Y-69425265D01*
X129477109Y-69175829D01*
X129381855Y-68945297D01*
X129205631Y-68768765D01*
X128975265Y-68673109D01*
X128725829Y-68672891D01*
X128495297Y-68768145D01*
X128452000Y-68811366D01*
X128452000Y-62850000D01*
X135616594Y-62850000D01*
X135616594Y-63150000D01*
X135636317Y-63251654D01*
X135616594Y-63350000D01*
X135616594Y-63650000D01*
X135636317Y-63751654D01*
X135616594Y-63850000D01*
X135616594Y-64150000D01*
X135636317Y-64251654D01*
X135616594Y-64350000D01*
X135616594Y-64650000D01*
X135636317Y-64751654D01*
X135616594Y-64850000D01*
X135616594Y-65150000D01*
X135636317Y-65251654D01*
X135616594Y-65350000D01*
X135616594Y-65650000D01*
X135636317Y-65751654D01*
X135616594Y-65850000D01*
X135616594Y-66150000D01*
X135636317Y-66251654D01*
X135616594Y-66350000D01*
X135616594Y-66650000D01*
X135636317Y-66751654D01*
X135616594Y-66850000D01*
X135616594Y-67150000D01*
X135636317Y-67251654D01*
X135616594Y-67350000D01*
X135616594Y-67650000D01*
X135636317Y-67751654D01*
X135616594Y-67850000D01*
X135616594Y-68150000D01*
X135636317Y-68251654D01*
X135616594Y-68350000D01*
X135616594Y-68650000D01*
X135636317Y-68751654D01*
X135616594Y-68850000D01*
X135616594Y-69150000D01*
X135636317Y-69251654D01*
X135616594Y-69350000D01*
X135616594Y-69650000D01*
X135636317Y-69751654D01*
X135616594Y-69850000D01*
X135616594Y-70150000D01*
X135636317Y-70251654D01*
X135616594Y-70350000D01*
X135616594Y-70650000D01*
X135636317Y-70751654D01*
X135616594Y-70850000D01*
X135616594Y-71150000D01*
X135636317Y-71251654D01*
X135616594Y-71350000D01*
X135616594Y-71650000D01*
X135636317Y-71751654D01*
X135616594Y-71850000D01*
X135616594Y-72150000D01*
X135636317Y-72251654D01*
X135616594Y-72350000D01*
X135616594Y-72650000D01*
X135636317Y-72751654D01*
X135616594Y-72850000D01*
X135616594Y-73150000D01*
X135636317Y-73251654D01*
X135616594Y-73350000D01*
X135616594Y-73650000D01*
X135636317Y-73751654D01*
X135616594Y-73850000D01*
X135616594Y-74150000D01*
X135636317Y-74251654D01*
X135616594Y-74350000D01*
X135616594Y-74650000D01*
X135636317Y-74751654D01*
X135616594Y-74850000D01*
X135616594Y-75150000D01*
X135640785Y-75274684D01*
X135712771Y-75384270D01*
X135821445Y-75457625D01*
X135950000Y-75483406D01*
X137450000Y-75483406D01*
X137574684Y-75459215D01*
X137684270Y-75387229D01*
X137757625Y-75278555D01*
X137783406Y-75150000D01*
X137783406Y-74850000D01*
X137763683Y-74748346D01*
X137783406Y-74650000D01*
X137783406Y-74350000D01*
X137763683Y-74248346D01*
X137783406Y-74150000D01*
X137783406Y-73850000D01*
X137763683Y-73748346D01*
X137783406Y-73650000D01*
X137783406Y-73452000D01*
X138872776Y-73452000D01*
X139842989Y-74422213D01*
X139842891Y-74534171D01*
X139938145Y-74764703D01*
X140114369Y-74941235D01*
X140344735Y-75036891D01*
X140594171Y-75037109D01*
X140824703Y-74941855D01*
X141001235Y-74765631D01*
X141096891Y-74535265D01*
X141097109Y-74285829D01*
X141001855Y-74055297D01*
X140920468Y-73973767D01*
X141144735Y-74066891D01*
X141394171Y-74067109D01*
X141624703Y-73971855D01*
X141801235Y-73795631D01*
X141896891Y-73565265D01*
X141897109Y-73315829D01*
X141801855Y-73085297D01*
X141722000Y-73005302D01*
X141722000Y-72870000D01*
X141687594Y-72697027D01*
X141589612Y-72550388D01*
X139124767Y-70085543D01*
X139254703Y-70031855D01*
X139431235Y-69855631D01*
X139526891Y-69625265D01*
X139527109Y-69375829D01*
X139431855Y-69145297D01*
X139255631Y-68968765D01*
X139025265Y-68873109D01*
X138775829Y-68872891D01*
X138545297Y-68968145D01*
X138465302Y-69048000D01*
X137783406Y-69048000D01*
X137783406Y-68850000D01*
X137763683Y-68748346D01*
X137783406Y-68650000D01*
X137783406Y-68350000D01*
X137763683Y-68248346D01*
X137783406Y-68150000D01*
X137783406Y-67952000D01*
X138415272Y-67952000D01*
X138494369Y-68031235D01*
X138724735Y-68126891D01*
X138974171Y-68127109D01*
X139204703Y-68031855D01*
X139381235Y-67855631D01*
X139476891Y-67625265D01*
X139477109Y-67375829D01*
X139381855Y-67145297D01*
X139205631Y-66968765D01*
X138975265Y-66873109D01*
X138725829Y-66872891D01*
X138495297Y-66968145D01*
X138415302Y-67048000D01*
X137783406Y-67048000D01*
X137783406Y-66850000D01*
X137763683Y-66748346D01*
X137783406Y-66650000D01*
X137783406Y-66350000D01*
X137763683Y-66248346D01*
X137783406Y-66150000D01*
X137783406Y-65850000D01*
X137763683Y-65748346D01*
X137783406Y-65650000D01*
X137783406Y-65350000D01*
X137763683Y-65248346D01*
X137783406Y-65150000D01*
X137783406Y-64850000D01*
X137763683Y-64748346D01*
X137783406Y-64650000D01*
X137783406Y-64350000D01*
X137763683Y-64248346D01*
X137783406Y-64150000D01*
X137783406Y-63850000D01*
X137763683Y-63748346D01*
X137783406Y-63650000D01*
X137783406Y-63350000D01*
X137763683Y-63248346D01*
X137783406Y-63150000D01*
X137783406Y-62850000D01*
X137759215Y-62725316D01*
X137687229Y-62615730D01*
X137578555Y-62542375D01*
X137450000Y-62516594D01*
X135950000Y-62516594D01*
X135825316Y-62540785D01*
X135715730Y-62612771D01*
X135642375Y-62721445D01*
X135616594Y-62850000D01*
X128452000Y-62850000D01*
X128452000Y-62383406D01*
X128650000Y-62383406D01*
X128774684Y-62359215D01*
X128884270Y-62287229D01*
X128957625Y-62178555D01*
X128983406Y-62050000D01*
X128983406Y-60550000D01*
X128959215Y-60425316D01*
X128952000Y-60414332D01*
X128952000Y-58827193D01*
X128992798Y-58827229D01*
X129480703Y-58625631D01*
X129854319Y-58252666D01*
X130000109Y-57901567D01*
X130144369Y-58250703D01*
X130517334Y-58624319D01*
X130548000Y-58637053D01*
X130548000Y-60216594D01*
X130350000Y-60216594D01*
X130248346Y-60236317D01*
X130150000Y-60216594D01*
X129850000Y-60216594D01*
X129748346Y-60236317D01*
X129650000Y-60216594D01*
X129350000Y-60216594D01*
X129225316Y-60240785D01*
X129115730Y-60312771D01*
X129042375Y-60421445D01*
X129016594Y-60550000D01*
X129016594Y-62050000D01*
X129040785Y-62174684D01*
X129112771Y-62284270D01*
X129221445Y-62357625D01*
X129350000Y-62383406D01*
X129650000Y-62383406D01*
X129751654Y-62363683D01*
X129850000Y-62383406D01*
X130150000Y-62383406D01*
X130251654Y-62363683D01*
X130350000Y-62383406D01*
X130650000Y-62383406D01*
X130751654Y-62363683D01*
X130850000Y-62383406D01*
X131150000Y-62383406D01*
X131251654Y-62363683D01*
X131350000Y-62383406D01*
X131650000Y-62383406D01*
X131751654Y-62363683D01*
X131850000Y-62383406D01*
X132150000Y-62383406D01*
X132251654Y-62363683D01*
X132350000Y-62383406D01*
X132650000Y-62383406D01*
X132751654Y-62363683D01*
X132850000Y-62383406D01*
X133150000Y-62383406D01*
X133251654Y-62363683D01*
X133350000Y-62383406D01*
X133650000Y-62383406D01*
X133751654Y-62363683D01*
X133850000Y-62383406D01*
X134150000Y-62383406D01*
X134251654Y-62363683D01*
X134350000Y-62383406D01*
X134650000Y-62383406D01*
X134774684Y-62359215D01*
X134884270Y-62287229D01*
X134957625Y-62178555D01*
X134983406Y-62050000D01*
X134983406Y-60550000D01*
X134959215Y-60425316D01*
X134887229Y-60315730D01*
X134778555Y-60242375D01*
X134650000Y-60216594D01*
X134452000Y-60216594D01*
X134452000Y-58670546D01*
X134560703Y-58625631D01*
X134934319Y-58252666D01*
X135136769Y-57765115D01*
X135137229Y-57237202D01*
X134935631Y-56749297D01*
X134562666Y-56375681D01*
X134075115Y-56173231D01*
X133547202Y-56172771D01*
X133059297Y-56374369D01*
X132685681Y-56747334D01*
X132539891Y-57098433D01*
X132395631Y-56749297D01*
X132022666Y-56375681D01*
X131535115Y-56173231D01*
X131007202Y-56172771D01*
X130519297Y-56374369D01*
X130145681Y-56747334D01*
X129999891Y-57098433D01*
X129855631Y-56749297D01*
X129482666Y-56375681D01*
X128995115Y-56173231D01*
X128467202Y-56172771D01*
X127979297Y-56374369D01*
X127605681Y-56747334D01*
X127459891Y-57098433D01*
X127315631Y-56749297D01*
X126942666Y-56375681D01*
X126455115Y-56173231D01*
X125927202Y-56172771D01*
X125439297Y-56374369D01*
X125065681Y-56747334D01*
X124863231Y-57234885D01*
X124862771Y-57762798D01*
X125064369Y-58250703D01*
X125437334Y-58624319D01*
X125924885Y-58826769D01*
X126452798Y-58827229D01*
X126940703Y-58625631D01*
X127314319Y-58252666D01*
X127460109Y-57901567D01*
X127604369Y-58250703D01*
X127977334Y-58624319D01*
X128048000Y-58653662D01*
X128048000Y-60216594D01*
X127850000Y-60216594D01*
X127748346Y-60236317D01*
X127650000Y-60216594D01*
X127350000Y-60216594D01*
X127248346Y-60236317D01*
X127150000Y-60216594D01*
X126850000Y-60216594D01*
X126748346Y-60236317D01*
X126650000Y-60216594D01*
X126350000Y-60216594D01*
X126248346Y-60236317D01*
X126150000Y-60216594D01*
X125850000Y-60216594D01*
X125748346Y-60236317D01*
X125650000Y-60216594D01*
X125350000Y-60216594D01*
X125248346Y-60236317D01*
X125150000Y-60216594D01*
X124850000Y-60216594D01*
X124748346Y-60236317D01*
X124650000Y-60216594D01*
X124350000Y-60216594D01*
X124248346Y-60236317D01*
X124150000Y-60216594D01*
X123952000Y-60216594D01*
X123952000Y-58758427D01*
X123984270Y-58737229D01*
X124057625Y-58628555D01*
X124083406Y-58500000D01*
X124083406Y-57600000D01*
X124059215Y-57475316D01*
X123987229Y-57365730D01*
X123878555Y-57292375D01*
X123750000Y-57266594D01*
X123250000Y-57266594D01*
X123125316Y-57290785D01*
X123015730Y-57362771D01*
X122942375Y-57471445D01*
X122916594Y-57600000D01*
X122916594Y-58500000D01*
X122940785Y-58624684D01*
X123012771Y-58734270D01*
X123048000Y-58758050D01*
X123048000Y-59061383D01*
X122905631Y-58918765D01*
X122675265Y-58823109D01*
X122425829Y-58822891D01*
X122195297Y-58918145D01*
X122115302Y-58998000D01*
X121916271Y-58998000D01*
X121862229Y-58915730D01*
X121753555Y-58842375D01*
X121625000Y-58816594D01*
X120875000Y-58816594D01*
X120750316Y-58840785D01*
X120700084Y-58873782D01*
X120653555Y-58842375D01*
X120527556Y-58817107D01*
X120469612Y-58730388D01*
X120327000Y-58587776D01*
X120327000Y-58502000D01*
X121416982Y-58502000D01*
X121440785Y-58624684D01*
X121512771Y-58734270D01*
X121621445Y-58807625D01*
X121750000Y-58833406D01*
X122250000Y-58833406D01*
X122374684Y-58809215D01*
X122484270Y-58737229D01*
X122557625Y-58628555D01*
X122583406Y-58500000D01*
X122583406Y-57600000D01*
X122559215Y-57475316D01*
X122487229Y-57365730D01*
X122378555Y-57292375D01*
X122250000Y-57266594D01*
X121781804Y-57266594D01*
X121943560Y-57199758D01*
X122457952Y-56686264D01*
X122736682Y-56015007D01*
X122737316Y-55288182D01*
X122459758Y-54616440D01*
X122070998Y-54227000D01*
X148023000Y-54227000D01*
X148023000Y-54529228D01*
X147960000Y-54516594D01*
X145460000Y-54516594D01*
X145335316Y-54540785D01*
X145225730Y-54612771D01*
X145152375Y-54721445D01*
X145126594Y-54850000D01*
X145126594Y-54968000D01*
X145104728Y-54968000D01*
X145025631Y-54888765D01*
X144795265Y-54793109D01*
X144545829Y-54792891D01*
X144315297Y-54888145D01*
X144243406Y-54959911D01*
X144243406Y-54900000D01*
X144219215Y-54775316D01*
X144147229Y-54665730D01*
X144038555Y-54592375D01*
X143910000Y-54566594D01*
X136910000Y-54566594D01*
X136785316Y-54590785D01*
X136675730Y-54662771D01*
X136602375Y-54771445D01*
X136576594Y-54900000D01*
X136576594Y-61400000D01*
X136600785Y-61524684D01*
X136672771Y-61634270D01*
X136781445Y-61707625D01*
X136910000Y-61733406D01*
X139147330Y-61733406D01*
X139184012Y-61917821D01*
X139471669Y-62348331D01*
X143561669Y-66438330D01*
X143992179Y-66725988D01*
X144500000Y-66827000D01*
X145007820Y-66725988D01*
X145438330Y-66438330D01*
X145725988Y-66007820D01*
X145827000Y-65500000D01*
X145725988Y-64992179D01*
X145438330Y-64561669D01*
X142610068Y-61733406D01*
X143910000Y-61733406D01*
X144034684Y-61709215D01*
X144144270Y-61637229D01*
X144217625Y-61528555D01*
X144243406Y-61400000D01*
X144243406Y-56870165D01*
X144304369Y-56931235D01*
X144534735Y-57026891D01*
X144784171Y-57027109D01*
X145014703Y-56931855D01*
X145094698Y-56852000D01*
X145126982Y-56852000D01*
X145150785Y-56974684D01*
X145222771Y-57084270D01*
X145331445Y-57157625D01*
X145460000Y-57183406D01*
X147960000Y-57183406D01*
X148023000Y-57171183D01*
X148023000Y-97873000D01*
X125377000Y-97873000D01*
X125377000Y-94143002D01*
X126641999Y-95408001D01*
X126829192Y-95533078D01*
X127050000Y-95577001D01*
X127050005Y-95577000D01*
X127366594Y-95577000D01*
X127366594Y-96000000D01*
X127390785Y-96124684D01*
X127462771Y-96234270D01*
X127571445Y-96307625D01*
X127700000Y-96333406D01*
X129700000Y-96333406D01*
X129824684Y-96309215D01*
X129934270Y-96237229D01*
X130007625Y-96128555D01*
X130033406Y-96000000D01*
X130033406Y-94000000D01*
X133666594Y-94000000D01*
X133666594Y-96000000D01*
X133690785Y-96124684D01*
X133762771Y-96234270D01*
X133871445Y-96307625D01*
X134000000Y-96333406D01*
X136000000Y-96333406D01*
X136124684Y-96309215D01*
X136234270Y-96237229D01*
X136307625Y-96128555D01*
X136333406Y-96000000D01*
X136333406Y-95577000D01*
X137592306Y-95577000D01*
X137662771Y-95684270D01*
X137771445Y-95757625D01*
X137900000Y-95783406D01*
X138400000Y-95783406D01*
X138524684Y-95759215D01*
X138634270Y-95687229D01*
X138707625Y-95578555D01*
X138733406Y-95450000D01*
X138733406Y-94550000D01*
X139066594Y-94550000D01*
X139066594Y-95450000D01*
X139090785Y-95574684D01*
X139162771Y-95684270D01*
X139271445Y-95757625D01*
X139400000Y-95783406D01*
X139900000Y-95783406D01*
X140024684Y-95759215D01*
X140134270Y-95687229D01*
X140207625Y-95578555D01*
X140207937Y-95577000D01*
X141204584Y-95577000D01*
X141324735Y-95626891D01*
X141574171Y-95627109D01*
X141804703Y-95531855D01*
X141981235Y-95355631D01*
X142076891Y-95125265D01*
X142077109Y-94875829D01*
X141981855Y-94645297D01*
X141805631Y-94468765D01*
X141575265Y-94373109D01*
X141325829Y-94372891D01*
X141204556Y-94423000D01*
X140207694Y-94423000D01*
X140137229Y-94315730D01*
X140028555Y-94242375D01*
X139900000Y-94216594D01*
X139400000Y-94216594D01*
X139275316Y-94240785D01*
X139165730Y-94312771D01*
X139092375Y-94421445D01*
X139066594Y-94550000D01*
X138733406Y-94550000D01*
X138733406Y-94550000D01*
X138709215Y-94425316D01*
X138637229Y-94315730D01*
X138528555Y-94242375D01*
X138400000Y-94216594D01*
X137900000Y-94216594D01*
X137775316Y-94240785D01*
X137665730Y-94312771D01*
X137592375Y-94421445D01*
X137592063Y-94423000D01*
X136333406Y-94423000D01*
X136333406Y-94000000D01*
X136309215Y-93875316D01*
X136237229Y-93765730D01*
X136128555Y-93692375D01*
X136000000Y-93666594D01*
X134000000Y-93666594D01*
X133875316Y-93690785D01*
X133765730Y-93762771D01*
X133692375Y-93871445D01*
X133666594Y-94000000D01*
X130033406Y-94000000D01*
X130033406Y-94000000D01*
X130009215Y-93875316D01*
X129937229Y-93765730D01*
X129828555Y-93692375D01*
X129700000Y-93666594D01*
X129254757Y-93666594D01*
X129450703Y-93585631D01*
X129824319Y-93212666D01*
X130026769Y-92725115D01*
X130027229Y-92197202D01*
X129825631Y-91709297D01*
X129452666Y-91335681D01*
X129260248Y-91255781D01*
X129233078Y-91119192D01*
X129108001Y-90931999D01*
X129107998Y-90931997D01*
X126218001Y-88041999D01*
X126030808Y-87916922D01*
X125810000Y-87872999D01*
X125809995Y-87873000D01*
X125377000Y-87873000D01*
X125377000Y-83800000D01*
X125367333Y-83751399D01*
X125339803Y-83710197D01*
X125298601Y-83682667D01*
X125250000Y-83673000D01*
X120327000Y-83673000D01*
X120327000Y-80762798D01*
X120592771Y-80762798D01*
X120794369Y-81250703D01*
X121167334Y-81624319D01*
X121654885Y-81826769D01*
X122182798Y-81827229D01*
X122670703Y-81625631D01*
X123044319Y-81252666D01*
X123246769Y-80765115D01*
X123247229Y-80237202D01*
X123045631Y-79749297D01*
X122672666Y-79375681D01*
X122185115Y-79173231D01*
X121657202Y-79172771D01*
X121169297Y-79374369D01*
X120795681Y-79747334D01*
X120593231Y-80234885D01*
X120592771Y-80762798D01*
X120327000Y-80762798D01*
X120327000Y-78562224D01*
X121619612Y-77269613D01*
X121717594Y-77122973D01*
X121718664Y-77117594D01*
X121752000Y-76950000D01*
X121752000Y-75483406D01*
X122050000Y-75483406D01*
X122174684Y-75459215D01*
X122284270Y-75387229D01*
X122357625Y-75278555D01*
X122383406Y-75150000D01*
X122383406Y-74850000D01*
X122363683Y-74748346D01*
X122383406Y-74650000D01*
X122383406Y-74350000D01*
X122363683Y-74248346D01*
X122383406Y-74150000D01*
X122383406Y-73850000D01*
X122363683Y-73748346D01*
X122383406Y-73650000D01*
X122383406Y-73350000D01*
X122363683Y-73248346D01*
X122383406Y-73150000D01*
X122383406Y-72850000D01*
X122363683Y-72748346D01*
X122383406Y-72650000D01*
X122383406Y-72350000D01*
X122363683Y-72248346D01*
X122383406Y-72150000D01*
X122383406Y-71850000D01*
X122363683Y-71748346D01*
X122383406Y-71650000D01*
X122383406Y-71370165D01*
X122444369Y-71431235D01*
X122674735Y-71526891D01*
X122924171Y-71527109D01*
X123154703Y-71431855D01*
X123331235Y-71255631D01*
X123426891Y-71025265D01*
X123427109Y-70775829D01*
X123331855Y-70545297D01*
X123252000Y-70465302D01*
X123252000Y-69500000D01*
X123217594Y-69327027D01*
X123175789Y-69264462D01*
X123254703Y-69231855D01*
X123431235Y-69055631D01*
X123526891Y-68825265D01*
X123527109Y-68575829D01*
X123431855Y-68345297D01*
X123255631Y-68168765D01*
X123025265Y-68073109D01*
X122825355Y-68072934D01*
X122700000Y-68048000D01*
X122186888Y-68048000D01*
X122178555Y-68042375D01*
X122178555Y-68042375D01*
G37*
X122178555Y-68042375D02*
X122050000Y-68016594D01*
X120550000Y-68016594D01*
X120425316Y-68040785D01*
X120327000Y-68105368D01*
X120327000Y-67893875D01*
X120421445Y-67957625D01*
X120550000Y-67983406D01*
X122050000Y-67983406D01*
X122174684Y-67959215D01*
X122185668Y-67952000D01*
X122700000Y-67952000D01*
X122826008Y-67926936D01*
X123024171Y-67927109D01*
X123254703Y-67831855D01*
X123431235Y-67655631D01*
X123526891Y-67425265D01*
X123527109Y-67175829D01*
X123431855Y-66945297D01*
X123255631Y-66768765D01*
X123025265Y-66673109D01*
X122775829Y-66672891D01*
X122545297Y-66768145D01*
X122383406Y-66929754D01*
X122383406Y-66850000D01*
X122363683Y-66748346D01*
X122383406Y-66650000D01*
X122383406Y-66350000D01*
X122363683Y-66248346D01*
X122383406Y-66150000D01*
X122383406Y-65850000D01*
X122363683Y-65748346D01*
X122383406Y-65650000D01*
X122383406Y-65350000D01*
X122363683Y-65248346D01*
X122383406Y-65150000D01*
X122383406Y-64850000D01*
X122363683Y-64748346D01*
X122383406Y-64650000D01*
X122383406Y-64350000D01*
X122363683Y-64248346D01*
X122383406Y-64150000D01*
X122383406Y-63850000D01*
X122363683Y-63748346D01*
X122383406Y-63650000D01*
X122383406Y-63350000D01*
X122359215Y-63225316D01*
X122287229Y-63115730D01*
X122178555Y-63042375D01*
X122050000Y-63016594D01*
X120550000Y-63016594D01*
X120425316Y-63040785D01*
X120327000Y-63105368D01*
X120327000Y-62305125D01*
X120368145Y-62404703D01*
X120544369Y-62581235D01*
X120774735Y-62676891D01*
X121024171Y-62677109D01*
X121254703Y-62581855D01*
X121431235Y-62405631D01*
X121526891Y-62175265D01*
X121527109Y-61925829D01*
X121431855Y-61695297D01*
X121370072Y-61633406D01*
X121651032Y-61633406D01*
X121777027Y-61717594D01*
X121950000Y-61752000D01*
X122516594Y-61752000D01*
X122516594Y-62050000D01*
X122540785Y-62174684D01*
X122612771Y-62284270D01*
X122721445Y-62357625D01*
X122850000Y-62383406D01*
X123150000Y-62383406D01*
X123251654Y-62363683D01*
X123350000Y-62383406D01*
X123650000Y-62383406D01*
X123751654Y-62363683D01*
X123850000Y-62383406D01*
X124150000Y-62383406D01*
X124251654Y-62363683D01*
X124350000Y-62383406D01*
X124650000Y-62383406D01*
X124751654Y-62363683D01*
X124850000Y-62383406D01*
X125150000Y-62383406D01*
X125251654Y-62363683D01*
X125350000Y-62383406D01*
X125650000Y-62383406D01*
X125751654Y-62363683D01*
X125850000Y-62383406D01*
X126150000Y-62383406D01*
X126251654Y-62363683D01*
X126350000Y-62383406D01*
X126650000Y-62383406D01*
X126751654Y-62363683D01*
X126850000Y-62383406D01*
X127150000Y-62383406D01*
X127251654Y-62363683D01*
X127350000Y-62383406D01*
X127548000Y-62383406D01*
X127548000Y-62923041D01*
X127375829Y-62922891D01*
X127145297Y-63018145D01*
X126968765Y-63194369D01*
X126873109Y-63424735D01*
X126872891Y-63674171D01*
X126968145Y-63904703D01*
X127144369Y-64081235D01*
X127374735Y-64176891D01*
X127548000Y-64177042D01*
X127548000Y-68811208D01*
X127505631Y-68768765D01*
X127275265Y-68673109D01*
X127025829Y-68672891D01*
X126795297Y-68768145D01*
X126618765Y-68944369D01*
X126523109Y-69174735D01*
X126522891Y-69424171D01*
X126618145Y-69654703D01*
X126794369Y-69831235D01*
X127024735Y-69926891D01*
X127274171Y-69927109D01*
X127504703Y-69831855D01*
X127548000Y-69788634D01*
X127548000Y-74400000D01*
X127582406Y-74572973D01*
X127680388Y-74719612D01*
X128048000Y-75087224D01*
X128048000Y-75616594D01*
X127850000Y-75616594D01*
X127748346Y-75636317D01*
X127650000Y-75616594D01*
X127350000Y-75616594D01*
X127248346Y-75636317D01*
X127150000Y-75616594D01*
X126850000Y-75616594D01*
X126748346Y-75636317D01*
X126650000Y-75616594D01*
X126350000Y-75616594D01*
X126248346Y-75636317D01*
X126150000Y-75616594D01*
X125850000Y-75616594D01*
X125748346Y-75636317D01*
X125650000Y-75616594D01*
X125350000Y-75616594D01*
X125248346Y-75636317D01*
X125150000Y-75616594D01*
X124850000Y-75616594D01*
X124748346Y-75636317D01*
X124650000Y-75616594D01*
X124350000Y-75616594D01*
X124248346Y-75636317D01*
X124150000Y-75616594D01*
X123850000Y-75616594D01*
X123748346Y-75636317D01*
X123650000Y-75616594D01*
X123350000Y-75616594D01*
X123225316Y-75640785D01*
X123115730Y-75712771D01*
X123042375Y-75821445D01*
X123016594Y-75950000D01*
X123016594Y-77450000D01*
X123040785Y-77574684D01*
X123112771Y-77684270D01*
X123221445Y-77757625D01*
X123350000Y-77783406D01*
X123650000Y-77783406D01*
X123751654Y-77763683D01*
X123850000Y-77783406D01*
X124150000Y-77783406D01*
X124251654Y-77763683D01*
X124350000Y-77783406D01*
X124650000Y-77783406D01*
X124751654Y-77763683D01*
X124850000Y-77783406D01*
X125048000Y-77783406D01*
X125048000Y-79000000D01*
X125082406Y-79172973D01*
X125180388Y-79319612D01*
X125797174Y-79936399D01*
X125673231Y-80234885D01*
X125672771Y-80762798D01*
X125874369Y-81250703D01*
X126247334Y-81624319D01*
X126734885Y-81826769D01*
X127262798Y-81827229D01*
X127750703Y-81625631D01*
X128124319Y-81252666D01*
X128270109Y-80901567D01*
X128414369Y-81250703D01*
X128787334Y-81624319D01*
X129274885Y-81826769D01*
X129802798Y-81827229D01*
X130290703Y-81625631D01*
X130664319Y-81252666D01*
X130810109Y-80901567D01*
X130954369Y-81250703D01*
X131327334Y-81624319D01*
X131814885Y-81826769D01*
X132342798Y-81827229D01*
X132830703Y-81625631D01*
X133204319Y-81252666D01*
X133406769Y-80765115D01*
X133407229Y-80237202D01*
X133205631Y-79749297D01*
X132952000Y-79495223D01*
X132952000Y-78832798D01*
X141752771Y-78832798D01*
X141954369Y-79320703D01*
X142327334Y-79694319D01*
X142678433Y-79840109D01*
X142329297Y-79984369D01*
X141955681Y-80357334D01*
X141753231Y-80844885D01*
X141752771Y-81372798D01*
X141954369Y-81860703D01*
X142327334Y-82234319D01*
X142678433Y-82380109D01*
X142329297Y-82524369D01*
X141955681Y-82897334D01*
X141753231Y-83384885D01*
X141752771Y-83912798D01*
X141954369Y-84400703D01*
X142327334Y-84774319D01*
X142678433Y-84920109D01*
X142329297Y-85064369D01*
X141955681Y-85437334D01*
X141753231Y-85924885D01*
X141752771Y-86452798D01*
X141954369Y-86940703D01*
X142327334Y-87314319D01*
X142814885Y-87516769D01*
X143342798Y-87517229D01*
X143830703Y-87315631D01*
X144204319Y-86942666D01*
X144406769Y-86455115D01*
X144407229Y-85927202D01*
X144205631Y-85439297D01*
X143832666Y-85065681D01*
X143481567Y-84919891D01*
X143830703Y-84775631D01*
X144204319Y-84402666D01*
X144406769Y-83915115D01*
X144407229Y-83387202D01*
X144205631Y-82899297D01*
X143832666Y-82525681D01*
X143481567Y-82379891D01*
X143830703Y-82235631D01*
X144204319Y-81862666D01*
X144406769Y-81375115D01*
X144407229Y-80847202D01*
X144205631Y-80359297D01*
X143832666Y-79985681D01*
X143481567Y-79839891D01*
X143830703Y-79695631D01*
X144204319Y-79322666D01*
X144406769Y-78835115D01*
X144407229Y-78307202D01*
X144205631Y-77819297D01*
X143832666Y-77445681D01*
X143345115Y-77243231D01*
X142817202Y-77242771D01*
X142329297Y-77444369D01*
X141955681Y-77817334D01*
X141753231Y-78304885D01*
X141752771Y-78832798D01*
X132952000Y-78832798D01*
X132952000Y-77783406D01*
X133150000Y-77783406D01*
X133251654Y-77763683D01*
X133350000Y-77783406D01*
X133650000Y-77783406D01*
X133751654Y-77763683D01*
X133850000Y-77783406D01*
X134150000Y-77783406D01*
X134251654Y-77763683D01*
X134350000Y-77783406D01*
X134650000Y-77783406D01*
X134774684Y-77759215D01*
X134884270Y-77687229D01*
X134957625Y-77578555D01*
X134983406Y-77450000D01*
X134983406Y-75950000D01*
X134959215Y-75825316D01*
X134887229Y-75715730D01*
X134778555Y-75642375D01*
X134650000Y-75616594D01*
X134350000Y-75616594D01*
X134248346Y-75636317D01*
X134150000Y-75616594D01*
X133850000Y-75616594D01*
X133748346Y-75636317D01*
X133650000Y-75616594D01*
X133350000Y-75616594D01*
X133248346Y-75636317D01*
X133150000Y-75616594D01*
X132850000Y-75616594D01*
X132748346Y-75636317D01*
X132650000Y-75616594D01*
X132350000Y-75616594D01*
X132248346Y-75636317D01*
X132150000Y-75616594D01*
X131850000Y-75616594D01*
X131748346Y-75636317D01*
X131650000Y-75616594D01*
X131350000Y-75616594D01*
X131248346Y-75636317D01*
X131150000Y-75616594D01*
X130850000Y-75616594D01*
X130748346Y-75636317D01*
X130650000Y-75616594D01*
X130350000Y-75616594D01*
X130248346Y-75636317D01*
X130150000Y-75616594D01*
X129952000Y-75616594D01*
X129952000Y-75534728D01*
X130031235Y-75455631D01*
X130126891Y-75225265D01*
X130127109Y-74975829D01*
X130031855Y-74745297D01*
X129855631Y-74568765D01*
X129625265Y-74473109D01*
X129375829Y-74472891D01*
X129145297Y-74568145D01*
X128968765Y-74744369D01*
X128936500Y-74822073D01*
X128917594Y-74727027D01*
X128819612Y-74580388D01*
X128452000Y-74212776D01*
X128452000Y-69788792D01*
X128494369Y-69831235D01*
X128724735Y-69926891D01*
X128974171Y-69927109D01*
X129204703Y-69831855D01*
X129381235Y-69655631D01*
X129476891Y-69425265D01*
X129477109Y-69175829D01*
X129381855Y-68945297D01*
X129205631Y-68768765D01*
X128975265Y-68673109D01*
X128725829Y-68672891D01*
X128495297Y-68768145D01*
X128452000Y-68811366D01*
X128452000Y-62850000D01*
X135616594Y-62850000D01*
X135616594Y-63150000D01*
X135636317Y-63251654D01*
X135616594Y-63350000D01*
X135616594Y-63650000D01*
X135636317Y-63751654D01*
X135616594Y-63850000D01*
X135616594Y-64150000D01*
X135636317Y-64251654D01*
X135616594Y-64350000D01*
X135616594Y-64650000D01*
X135636317Y-64751654D01*
X135616594Y-64850000D01*
X135616594Y-65150000D01*
X135636317Y-65251654D01*
X135616594Y-65350000D01*
X135616594Y-65650000D01*
X135636317Y-65751654D01*
X135616594Y-65850000D01*
X135616594Y-66150000D01*
X135636317Y-66251654D01*
X135616594Y-66350000D01*
X135616594Y-66650000D01*
X135636317Y-66751654D01*
X135616594Y-66850000D01*
X135616594Y-67150000D01*
X135636317Y-67251654D01*
X135616594Y-67350000D01*
X135616594Y-67650000D01*
X135636317Y-67751654D01*
X135616594Y-67850000D01*
X135616594Y-68150000D01*
X135636317Y-68251654D01*
X135616594Y-68350000D01*
X135616594Y-68650000D01*
X135636317Y-68751654D01*
X135616594Y-68850000D01*
X135616594Y-69150000D01*
X135636317Y-69251654D01*
X135616594Y-69350000D01*
X135616594Y-69650000D01*
X135636317Y-69751654D01*
X135616594Y-69850000D01*
X135616594Y-70150000D01*
X135636317Y-70251654D01*
X135616594Y-70350000D01*
X135616594Y-70650000D01*
X135636317Y-70751654D01*
X135616594Y-70850000D01*
X135616594Y-71150000D01*
X135636317Y-71251654D01*
X135616594Y-71350000D01*
X135616594Y-71650000D01*
X135636317Y-71751654D01*
X135616594Y-71850000D01*
X135616594Y-72150000D01*
X135636317Y-72251654D01*
X135616594Y-72350000D01*
X135616594Y-72650000D01*
X135636317Y-72751654D01*
X135616594Y-72850000D01*
X135616594Y-73150000D01*
X135636317Y-73251654D01*
X135616594Y-73350000D01*
X135616594Y-73650000D01*
X135636317Y-73751654D01*
X135616594Y-73850000D01*
X135616594Y-74150000D01*
X135636317Y-74251654D01*
X135616594Y-74350000D01*
X135616594Y-74650000D01*
X135636317Y-74751654D01*
X135616594Y-74850000D01*
X135616594Y-75150000D01*
X135640785Y-75274684D01*
X135712771Y-75384270D01*
X135821445Y-75457625D01*
X135950000Y-75483406D01*
X137450000Y-75483406D01*
X137574684Y-75459215D01*
X137684270Y-75387229D01*
X137757625Y-75278555D01*
X137783406Y-75150000D01*
X137783406Y-74850000D01*
X137763683Y-74748346D01*
X137783406Y-74650000D01*
X137783406Y-74350000D01*
X137763683Y-74248346D01*
X137783406Y-74150000D01*
X137783406Y-73850000D01*
X137763683Y-73748346D01*
X137783406Y-73650000D01*
X137783406Y-73452000D01*
X138872776Y-73452000D01*
X139842989Y-74422213D01*
X139842891Y-74534171D01*
X139938145Y-74764703D01*
X140114369Y-74941235D01*
X140344735Y-75036891D01*
X140594171Y-75037109D01*
X140824703Y-74941855D01*
X141001235Y-74765631D01*
X141096891Y-74535265D01*
X141097109Y-74285829D01*
X141001855Y-74055297D01*
X140920468Y-73973767D01*
X141144735Y-74066891D01*
X141394171Y-74067109D01*
X141624703Y-73971855D01*
X141801235Y-73795631D01*
X141896891Y-73565265D01*
X141897109Y-73315829D01*
X141801855Y-73085297D01*
X141722000Y-73005302D01*
X141722000Y-72870000D01*
X141687594Y-72697027D01*
X141589612Y-72550388D01*
X139124767Y-70085543D01*
X139254703Y-70031855D01*
X139431235Y-69855631D01*
X139526891Y-69625265D01*
X139527109Y-69375829D01*
X139431855Y-69145297D01*
X139255631Y-68968765D01*
X139025265Y-68873109D01*
X138775829Y-68872891D01*
X138545297Y-68968145D01*
X138465302Y-69048000D01*
X137783406Y-69048000D01*
X137783406Y-68850000D01*
X137763683Y-68748346D01*
X137783406Y-68650000D01*
X137783406Y-68350000D01*
X137763683Y-68248346D01*
X137783406Y-68150000D01*
X137783406Y-67952000D01*
X138415272Y-67952000D01*
X138494369Y-68031235D01*
X138724735Y-68126891D01*
X138974171Y-68127109D01*
X139204703Y-68031855D01*
X139381235Y-67855631D01*
X139476891Y-67625265D01*
X139477109Y-67375829D01*
X139381855Y-67145297D01*
X139205631Y-66968765D01*
X138975265Y-66873109D01*
X138725829Y-66872891D01*
X138495297Y-66968145D01*
X138415302Y-67048000D01*
X137783406Y-67048000D01*
X137783406Y-66850000D01*
X137763683Y-66748346D01*
X137783406Y-66650000D01*
X137783406Y-66350000D01*
X137763683Y-66248346D01*
X137783406Y-66150000D01*
X137783406Y-65850000D01*
X137763683Y-65748346D01*
X137783406Y-65650000D01*
X137783406Y-65350000D01*
X137763683Y-65248346D01*
X137783406Y-65150000D01*
X137783406Y-64850000D01*
X137763683Y-64748346D01*
X137783406Y-64650000D01*
X137783406Y-64350000D01*
X137763683Y-64248346D01*
X137783406Y-64150000D01*
X137783406Y-63850000D01*
X137763683Y-63748346D01*
X137783406Y-63650000D01*
X137783406Y-63350000D01*
X137763683Y-63248346D01*
X137783406Y-63150000D01*
X137783406Y-62850000D01*
X137759215Y-62725316D01*
X137687229Y-62615730D01*
X137578555Y-62542375D01*
X137450000Y-62516594D01*
X135950000Y-62516594D01*
X135825316Y-62540785D01*
X135715730Y-62612771D01*
X135642375Y-62721445D01*
X135616594Y-62850000D01*
X128452000Y-62850000D01*
X128452000Y-62383406D01*
X128650000Y-62383406D01*
X128774684Y-62359215D01*
X128884270Y-62287229D01*
X128957625Y-62178555D01*
X128983406Y-62050000D01*
X128983406Y-60550000D01*
X128959215Y-60425316D01*
X128952000Y-60414332D01*
X128952000Y-58827193D01*
X128992798Y-58827229D01*
X129480703Y-58625631D01*
X129854319Y-58252666D01*
X130000109Y-57901567D01*
X130144369Y-58250703D01*
X130517334Y-58624319D01*
X130548000Y-58637053D01*
X130548000Y-60216594D01*
X130350000Y-60216594D01*
X130248346Y-60236317D01*
X130150000Y-60216594D01*
X129850000Y-60216594D01*
X129748346Y-60236317D01*
X129650000Y-60216594D01*
X129350000Y-60216594D01*
X129225316Y-60240785D01*
X129115730Y-60312771D01*
X129042375Y-60421445D01*
X129016594Y-60550000D01*
X129016594Y-62050000D01*
X129040785Y-62174684D01*
X129112771Y-62284270D01*
X129221445Y-62357625D01*
X129350000Y-62383406D01*
X129650000Y-62383406D01*
X129751654Y-62363683D01*
X129850000Y-62383406D01*
X130150000Y-62383406D01*
X130251654Y-62363683D01*
X130350000Y-62383406D01*
X130650000Y-62383406D01*
X130751654Y-62363683D01*
X130850000Y-62383406D01*
X131150000Y-62383406D01*
X131251654Y-62363683D01*
X131350000Y-62383406D01*
X131650000Y-62383406D01*
X131751654Y-62363683D01*
X131850000Y-62383406D01*
X132150000Y-62383406D01*
X132251654Y-62363683D01*
X132350000Y-62383406D01*
X132650000Y-62383406D01*
X132751654Y-62363683D01*
X132850000Y-62383406D01*
X133150000Y-62383406D01*
X133251654Y-62363683D01*
X133350000Y-62383406D01*
X133650000Y-62383406D01*
X133751654Y-62363683D01*
X133850000Y-62383406D01*
X134150000Y-62383406D01*
X134251654Y-62363683D01*
X134350000Y-62383406D01*
X134650000Y-62383406D01*
X134774684Y-62359215D01*
X134884270Y-62287229D01*
X134957625Y-62178555D01*
X134983406Y-62050000D01*
X134983406Y-60550000D01*
X134959215Y-60425316D01*
X134887229Y-60315730D01*
X134778555Y-60242375D01*
X134650000Y-60216594D01*
X134452000Y-60216594D01*
X134452000Y-58670546D01*
X134560703Y-58625631D01*
X134934319Y-58252666D01*
X135136769Y-57765115D01*
X135137229Y-57237202D01*
X134935631Y-56749297D01*
X134562666Y-56375681D01*
X134075115Y-56173231D01*
X133547202Y-56172771D01*
X133059297Y-56374369D01*
X132685681Y-56747334D01*
X132539891Y-57098433D01*
X132395631Y-56749297D01*
X132022666Y-56375681D01*
X131535115Y-56173231D01*
X131007202Y-56172771D01*
X130519297Y-56374369D01*
X130145681Y-56747334D01*
X129999891Y-57098433D01*
X129855631Y-56749297D01*
X129482666Y-56375681D01*
X128995115Y-56173231D01*
X128467202Y-56172771D01*
X127979297Y-56374369D01*
X127605681Y-56747334D01*
X127459891Y-57098433D01*
X127315631Y-56749297D01*
X126942666Y-56375681D01*
X126455115Y-56173231D01*
X125927202Y-56172771D01*
X125439297Y-56374369D01*
X125065681Y-56747334D01*
X124863231Y-57234885D01*
X124862771Y-57762798D01*
X125064369Y-58250703D01*
X125437334Y-58624319D01*
X125924885Y-58826769D01*
X126452798Y-58827229D01*
X126940703Y-58625631D01*
X127314319Y-58252666D01*
X127460109Y-57901567D01*
X127604369Y-58250703D01*
X127977334Y-58624319D01*
X128048000Y-58653662D01*
X128048000Y-60216594D01*
X127850000Y-60216594D01*
X127748346Y-60236317D01*
X127650000Y-60216594D01*
X127350000Y-60216594D01*
X127248346Y-60236317D01*
X127150000Y-60216594D01*
X126850000Y-60216594D01*
X126748346Y-60236317D01*
X126650000Y-60216594D01*
X126350000Y-60216594D01*
X126248346Y-60236317D01*
X126150000Y-60216594D01*
X125850000Y-60216594D01*
X125748346Y-60236317D01*
X125650000Y-60216594D01*
X125350000Y-60216594D01*
X125248346Y-60236317D01*
X125150000Y-60216594D01*
X124850000Y-60216594D01*
X124748346Y-60236317D01*
X124650000Y-60216594D01*
X124350000Y-60216594D01*
X124248346Y-60236317D01*
X124150000Y-60216594D01*
X123952000Y-60216594D01*
X123952000Y-58758427D01*
X123984270Y-58737229D01*
X124057625Y-58628555D01*
X124083406Y-58500000D01*
X124083406Y-57600000D01*
X124059215Y-57475316D01*
X123987229Y-57365730D01*
X123878555Y-57292375D01*
X123750000Y-57266594D01*
X123250000Y-57266594D01*
X123125316Y-57290785D01*
X123015730Y-57362771D01*
X122942375Y-57471445D01*
X122916594Y-57600000D01*
X122916594Y-58500000D01*
X122940785Y-58624684D01*
X123012771Y-58734270D01*
X123048000Y-58758050D01*
X123048000Y-59061383D01*
X122905631Y-58918765D01*
X122675265Y-58823109D01*
X122425829Y-58822891D01*
X122195297Y-58918145D01*
X122115302Y-58998000D01*
X121916271Y-58998000D01*
X121862229Y-58915730D01*
X121753555Y-58842375D01*
X121625000Y-58816594D01*
X120875000Y-58816594D01*
X120750316Y-58840785D01*
X120700084Y-58873782D01*
X120653555Y-58842375D01*
X120527556Y-58817107D01*
X120469612Y-58730388D01*
X120327000Y-58587776D01*
X120327000Y-58502000D01*
X121416982Y-58502000D01*
X121440785Y-58624684D01*
X121512771Y-58734270D01*
X121621445Y-58807625D01*
X121750000Y-58833406D01*
X122250000Y-58833406D01*
X122374684Y-58809215D01*
X122484270Y-58737229D01*
X122557625Y-58628555D01*
X122583406Y-58500000D01*
X122583406Y-57600000D01*
X122559215Y-57475316D01*
X122487229Y-57365730D01*
X122378555Y-57292375D01*
X122250000Y-57266594D01*
X121781804Y-57266594D01*
X121943560Y-57199758D01*
X122457952Y-56686264D01*
X122736682Y-56015007D01*
X122737316Y-55288182D01*
X122459758Y-54616440D01*
X122070998Y-54227000D01*
X148023000Y-54227000D01*
X148023000Y-54529228D01*
X147960000Y-54516594D01*
X145460000Y-54516594D01*
X145335316Y-54540785D01*
X145225730Y-54612771D01*
X145152375Y-54721445D01*
X145126594Y-54850000D01*
X145126594Y-54968000D01*
X145104728Y-54968000D01*
X145025631Y-54888765D01*
X144795265Y-54793109D01*
X144545829Y-54792891D01*
X144315297Y-54888145D01*
X144243406Y-54959911D01*
X144243406Y-54900000D01*
X144219215Y-54775316D01*
X144147229Y-54665730D01*
X144038555Y-54592375D01*
X143910000Y-54566594D01*
X136910000Y-54566594D01*
X136785316Y-54590785D01*
X136675730Y-54662771D01*
X136602375Y-54771445D01*
X136576594Y-54900000D01*
X136576594Y-61400000D01*
X136600785Y-61524684D01*
X136672771Y-61634270D01*
X136781445Y-61707625D01*
X136910000Y-61733406D01*
X139147330Y-61733406D01*
X139184012Y-61917821D01*
X139471669Y-62348331D01*
X143561669Y-66438330D01*
X143992179Y-66725988D01*
X144500000Y-66827000D01*
X145007820Y-66725988D01*
X145438330Y-66438330D01*
X145725988Y-66007820D01*
X145827000Y-65500000D01*
X145725988Y-64992179D01*
X145438330Y-64561669D01*
X142610068Y-61733406D01*
X143910000Y-61733406D01*
X144034684Y-61709215D01*
X144144270Y-61637229D01*
X144217625Y-61528555D01*
X144243406Y-61400000D01*
X144243406Y-56870165D01*
X144304369Y-56931235D01*
X144534735Y-57026891D01*
X144784171Y-57027109D01*
X145014703Y-56931855D01*
X145094698Y-56852000D01*
X145126982Y-56852000D01*
X145150785Y-56974684D01*
X145222771Y-57084270D01*
X145331445Y-57157625D01*
X145460000Y-57183406D01*
X147960000Y-57183406D01*
X148023000Y-57171183D01*
X148023000Y-97873000D01*
X125377000Y-97873000D01*
X125377000Y-94143002D01*
X126641999Y-95408001D01*
X126829192Y-95533078D01*
X127050000Y-95577001D01*
X127050005Y-95577000D01*
X127366594Y-95577000D01*
X127366594Y-96000000D01*
X127390785Y-96124684D01*
X127462771Y-96234270D01*
X127571445Y-96307625D01*
X127700000Y-96333406D01*
X129700000Y-96333406D01*
X129824684Y-96309215D01*
X129934270Y-96237229D01*
X130007625Y-96128555D01*
X130033406Y-96000000D01*
X130033406Y-94000000D01*
X133666594Y-94000000D01*
X133666594Y-96000000D01*
X133690785Y-96124684D01*
X133762771Y-96234270D01*
X133871445Y-96307625D01*
X134000000Y-96333406D01*
X136000000Y-96333406D01*
X136124684Y-96309215D01*
X136234270Y-96237229D01*
X136307625Y-96128555D01*
X136333406Y-96000000D01*
X136333406Y-95577000D01*
X137592306Y-95577000D01*
X137662771Y-95684270D01*
X137771445Y-95757625D01*
X137900000Y-95783406D01*
X138400000Y-95783406D01*
X138524684Y-95759215D01*
X138634270Y-95687229D01*
X138707625Y-95578555D01*
X138733406Y-95450000D01*
X138733406Y-94550000D01*
X139066594Y-94550000D01*
X139066594Y-95450000D01*
X139090785Y-95574684D01*
X139162771Y-95684270D01*
X139271445Y-95757625D01*
X139400000Y-95783406D01*
X139900000Y-95783406D01*
X140024684Y-95759215D01*
X140134270Y-95687229D01*
X140207625Y-95578555D01*
X140207937Y-95577000D01*
X141204584Y-95577000D01*
X141324735Y-95626891D01*
X141574171Y-95627109D01*
X141804703Y-95531855D01*
X141981235Y-95355631D01*
X142076891Y-95125265D01*
X142077109Y-94875829D01*
X141981855Y-94645297D01*
X141805631Y-94468765D01*
X141575265Y-94373109D01*
X141325829Y-94372891D01*
X141204556Y-94423000D01*
X140207694Y-94423000D01*
X140137229Y-94315730D01*
X140028555Y-94242375D01*
X139900000Y-94216594D01*
X139400000Y-94216594D01*
X139275316Y-94240785D01*
X139165730Y-94312771D01*
X139092375Y-94421445D01*
X139066594Y-94550000D01*
X138733406Y-94550000D01*
X138733406Y-94550000D01*
X138709215Y-94425316D01*
X138637229Y-94315730D01*
X138528555Y-94242375D01*
X138400000Y-94216594D01*
X137900000Y-94216594D01*
X137775316Y-94240785D01*
X137665730Y-94312771D01*
X137592375Y-94421445D01*
X137592063Y-94423000D01*
X136333406Y-94423000D01*
X136333406Y-94000000D01*
X136309215Y-93875316D01*
X136237229Y-93765730D01*
X136128555Y-93692375D01*
X136000000Y-93666594D01*
X134000000Y-93666594D01*
X133875316Y-93690785D01*
X133765730Y-93762771D01*
X133692375Y-93871445D01*
X133666594Y-94000000D01*
X130033406Y-94000000D01*
X130033406Y-94000000D01*
X130009215Y-93875316D01*
X129937229Y-93765730D01*
X129828555Y-93692375D01*
X129700000Y-93666594D01*
X129254757Y-93666594D01*
X129450703Y-93585631D01*
X129824319Y-93212666D01*
X130026769Y-92725115D01*
X130027229Y-92197202D01*
X129825631Y-91709297D01*
X129452666Y-91335681D01*
X129260248Y-91255781D01*
X129233078Y-91119192D01*
X129108001Y-90931999D01*
X129107998Y-90931997D01*
X126218001Y-88041999D01*
X126030808Y-87916922D01*
X125810000Y-87872999D01*
X125809995Y-87873000D01*
X125377000Y-87873000D01*
X125377000Y-83800000D01*
X125367333Y-83751399D01*
X125339803Y-83710197D01*
X125298601Y-83682667D01*
X125250000Y-83673000D01*
X120327000Y-83673000D01*
X120327000Y-80762798D01*
X120592771Y-80762798D01*
X120794369Y-81250703D01*
X121167334Y-81624319D01*
X121654885Y-81826769D01*
X122182798Y-81827229D01*
X122670703Y-81625631D01*
X123044319Y-81252666D01*
X123246769Y-80765115D01*
X123247229Y-80237202D01*
X123045631Y-79749297D01*
X122672666Y-79375681D01*
X122185115Y-79173231D01*
X121657202Y-79172771D01*
X121169297Y-79374369D01*
X120795681Y-79747334D01*
X120593231Y-80234885D01*
X120592771Y-80762798D01*
X120327000Y-80762798D01*
X120327000Y-78562224D01*
X121619612Y-77269613D01*
X121717594Y-77122973D01*
X121718664Y-77117594D01*
X121752000Y-76950000D01*
X121752000Y-75483406D01*
X122050000Y-75483406D01*
X122174684Y-75459215D01*
X122284270Y-75387229D01*
X122357625Y-75278555D01*
X122383406Y-75150000D01*
X122383406Y-74850000D01*
X122363683Y-74748346D01*
X122383406Y-74650000D01*
X122383406Y-74350000D01*
X122363683Y-74248346D01*
X122383406Y-74150000D01*
X122383406Y-73850000D01*
X122363683Y-73748346D01*
X122383406Y-73650000D01*
X122383406Y-73350000D01*
X122363683Y-73248346D01*
X122383406Y-73150000D01*
X122383406Y-72850000D01*
X122363683Y-72748346D01*
X122383406Y-72650000D01*
X122383406Y-72350000D01*
X122363683Y-72248346D01*
X122383406Y-72150000D01*
X122383406Y-71850000D01*
X122363683Y-71748346D01*
X122383406Y-71650000D01*
X122383406Y-71370165D01*
X122444369Y-71431235D01*
X122674735Y-71526891D01*
X122924171Y-71527109D01*
X123154703Y-71431855D01*
X123331235Y-71255631D01*
X123426891Y-71025265D01*
X123427109Y-70775829D01*
X123331855Y-70545297D01*
X123252000Y-70465302D01*
X123252000Y-69500000D01*
X123217594Y-69327027D01*
X123175789Y-69264462D01*
X123254703Y-69231855D01*
X123431235Y-69055631D01*
X123526891Y-68825265D01*
X123527109Y-68575829D01*
X123431855Y-68345297D01*
X123255631Y-68168765D01*
X123025265Y-68073109D01*
X122825355Y-68072934D01*
X122700000Y-68048000D01*
X122186888Y-68048000D01*
X122178555Y-68042375D01*
G36*
X111123000Y-69270016D02*
X111116684Y-69301510D01*
X111116684Y-70970290D01*
X111123000Y-71002844D01*
X111123000Y-72897394D01*
X110497394Y-73523000D01*
X109602605Y-73523000D01*
X108977000Y-72897394D01*
X108977000Y-70994604D01*
X108981876Y-70970290D01*
X108981876Y-69301510D01*
X108977000Y-69276378D01*
X108977000Y-69227000D01*
X111123000Y-69227000D01*
X111123000Y-69270016D01*
X111123000Y-69270016D01*
G37*
X111123000Y-69270016D02*
X111116684Y-69301510D01*
X111116684Y-70970290D01*
X111123000Y-71002844D01*
X111123000Y-72897394D01*
X110497394Y-73523000D01*
X109602605Y-73523000D01*
X108977000Y-72897394D01*
X108977000Y-70994604D01*
X108981876Y-70970290D01*
X108981876Y-69301510D01*
X108977000Y-69276378D01*
X108977000Y-69227000D01*
X111123000Y-69227000D01*
X111123000Y-69270016D01*
M02*
