M48
;DRILL file {KiCad (2015-07-11 BZR 5925, Git c291b88)-product} date 2015/08/03 22:31:44
;FORMAT={-:-/ absolute / metric / decimal}
FMAT,2
METRIC,TZ
T1C0.400
T2C0.800
T3C1.001
T4C1.200
T5C1.300
T6C1.700
%
G90
G05
M71
T1
X120.9Y-62.05
X122.55Y-59.45
X122.8Y-70.9
X122.9Y-67.3
X122.9Y-68.7
X123.Y-75.1
X123.1Y-63.2
X124.3Y-67.
X127.15Y-69.3
X127.35Y-68.2
X127.5Y-63.55
X128.7Y-68.2
X128.85Y-69.3
X129.Y-78.46
X129.5Y-63.
X129.5Y-75.1
X134.5Y-62.9
X134.6Y-75.
X138.85Y-67.5
X138.9Y-69.5
X139.62Y-72.5
X140.47Y-74.41
X141.27Y-73.44
X141.45Y-95.
X144.66Y-56.4
X144.67Y-55.42
T2
X144.5Y-65.5
X147.Y-65.5
T3
X128.7Y-92.46
X128.7Y-95.
X135.Y-92.46
X135.Y-95.
T4
X103.5Y-63.25
X103.5Y-69.75
X103.5Y-80.25
X103.5Y-86.75
T5
X121.92Y-80.5
X124.46Y-80.5
X126.19Y-57.5
X127.Y-80.5
X128.73Y-57.5
X129.54Y-80.5
X131.27Y-57.5
X132.08Y-80.5
X133.81Y-57.5
X143.08Y-76.03
X143.08Y-78.57
X143.08Y-81.11
X143.08Y-83.65
X143.08Y-86.19
T6
X109.54Y-60.
X110.05Y-72.45
X111.79Y-92.1
X113.95Y-67.9
X113.95Y-77.6
X117.46Y-60.
X119.71Y-92.1
T0
M30
