G04 #@! TF.FileFunction,Legend,Top*
%FSLAX46Y46*%
G04 Gerber Fmt 4.6, Leading zero omitted, Abs format (unit mm)*
G04 Created by KiCad (PCBNEW (2015-07-11 BZR 5925, Git c291b88)-product) date 2015/08/03 22:31:36*
%MOMM*%
G01*
G04 APERTURE LIST*
%ADD10C,0.100000*%
%ADD11C,0.200000*%
%ADD12C,0.300000*%
%ADD13C,0.150000*%
G04 APERTURE END LIST*
D10*
D11*
X102000000Y-52000000D02*
X148000000Y-52000000D01*
X102000000Y-98000000D02*
X102000000Y-52000000D01*
X148000000Y-98000000D02*
X102000000Y-98000000D01*
X148000000Y-52000000D02*
X148000000Y-98000000D01*
D12*
X110107143Y-65678571D02*
X110107143Y-64178571D01*
X110607143Y-65250000D01*
X111107143Y-64178571D01*
X111107143Y-65678571D01*
X112107143Y-64178571D02*
X112392857Y-64178571D01*
X112535715Y-64250000D01*
X112678572Y-64392857D01*
X112750000Y-64678571D01*
X112750000Y-65178571D01*
X112678572Y-65464286D01*
X112535715Y-65607143D01*
X112392857Y-65678571D01*
X112107143Y-65678571D01*
X111964286Y-65607143D01*
X111821429Y-65464286D01*
X111750000Y-65178571D01*
X111750000Y-64678571D01*
X111821429Y-64392857D01*
X111964286Y-64250000D01*
X112107143Y-64178571D01*
X113178572Y-64178571D02*
X114035715Y-64178571D01*
X113607144Y-65678571D02*
X113607144Y-64178571D01*
X114821429Y-64178571D02*
X115107143Y-64178571D01*
X115250001Y-64250000D01*
X115392858Y-64392857D01*
X115464286Y-64678571D01*
X115464286Y-65178571D01*
X115392858Y-65464286D01*
X115250001Y-65607143D01*
X115107143Y-65678571D01*
X114821429Y-65678571D01*
X114678572Y-65607143D01*
X114535715Y-65464286D01*
X114464286Y-65178571D01*
X114464286Y-64678571D01*
X114535715Y-64392857D01*
X114678572Y-64250000D01*
X114821429Y-64178571D01*
X116964287Y-65678571D02*
X116464287Y-64964286D01*
X116107144Y-65678571D02*
X116107144Y-64178571D01*
X116678572Y-64178571D01*
X116821430Y-64250000D01*
X116892858Y-64321429D01*
X116964287Y-64464286D01*
X116964287Y-64678571D01*
X116892858Y-64821429D01*
X116821430Y-64892857D01*
X116678572Y-64964286D01*
X116107144Y-64964286D01*
X138321429Y-54928571D02*
X138321429Y-55214285D01*
X138250000Y-55357143D01*
X138107143Y-55500000D01*
X137821429Y-55571428D01*
X137321429Y-55571428D01*
X137035714Y-55500000D01*
X136892857Y-55357143D01*
X136821429Y-55214285D01*
X136821429Y-54928571D01*
X136892857Y-54785714D01*
X137035714Y-54642857D01*
X137321429Y-54571428D01*
X137821429Y-54571428D01*
X138107143Y-54642857D01*
X138250000Y-54785714D01*
X138321429Y-54928571D01*
X136821429Y-56214286D02*
X138321429Y-56214286D01*
X136821429Y-57071429D01*
X138321429Y-57071429D01*
X138321429Y-59214286D02*
X138321429Y-59500000D01*
X138250000Y-59642858D01*
X138107143Y-59785715D01*
X137821429Y-59857143D01*
X137321429Y-59857143D01*
X137035714Y-59785715D01*
X136892857Y-59642858D01*
X136821429Y-59500000D01*
X136821429Y-59214286D01*
X136892857Y-59071429D01*
X137035714Y-58928572D01*
X137321429Y-58857143D01*
X137821429Y-58857143D01*
X138107143Y-58928572D01*
X138250000Y-59071429D01*
X138321429Y-59214286D01*
X137607143Y-61000001D02*
X137607143Y-60500001D01*
X136821429Y-60500001D02*
X138321429Y-60500001D01*
X138321429Y-61214287D01*
X137607143Y-62285715D02*
X137607143Y-61785715D01*
X136821429Y-61785715D02*
X138321429Y-61785715D01*
X138321429Y-62500001D01*
X125607143Y-63178571D02*
X125607143Y-64392857D01*
X125678571Y-64535714D01*
X125750000Y-64607143D01*
X125892857Y-64678571D01*
X126178571Y-64678571D01*
X126321429Y-64607143D01*
X126392857Y-64535714D01*
X126464286Y-64392857D01*
X126464286Y-63178571D01*
X127107143Y-64250000D02*
X127821429Y-64250000D01*
X126964286Y-64678571D02*
X127464286Y-63178571D01*
X127964286Y-64678571D01*
X129321429Y-64678571D02*
X128821429Y-63964286D01*
X128464286Y-64678571D02*
X128464286Y-63178571D01*
X129035714Y-63178571D01*
X129178572Y-63250000D01*
X129250000Y-63321429D01*
X129321429Y-63464286D01*
X129321429Y-63678571D01*
X129250000Y-63821429D01*
X129178572Y-63892857D01*
X129035714Y-63964286D01*
X128464286Y-63964286D01*
X129750000Y-63178571D02*
X130607143Y-63178571D01*
X130178572Y-64678571D02*
X130178572Y-63178571D01*
X140250000Y-89178571D02*
X140607143Y-90678571D01*
X140892857Y-89607143D01*
X141178571Y-90678571D01*
X141535714Y-89178571D01*
X142964286Y-90678571D02*
X142464286Y-89964286D01*
X142107143Y-90678571D02*
X142107143Y-89178571D01*
X142678571Y-89178571D01*
X142821429Y-89250000D01*
X142892857Y-89321429D01*
X142964286Y-89464286D01*
X142964286Y-89678571D01*
X142892857Y-89821429D01*
X142821429Y-89892857D01*
X142678571Y-89964286D01*
X142107143Y-89964286D01*
X143607143Y-90678571D02*
X143607143Y-89178571D01*
X144107143Y-89178571D02*
X144964286Y-89178571D01*
X144535715Y-90678571D02*
X144535715Y-89178571D01*
X145464286Y-89892857D02*
X145964286Y-89892857D01*
X146178572Y-90678571D02*
X145464286Y-90678571D01*
X145464286Y-89178571D01*
X146178572Y-89178571D01*
X147678572Y-90678571D02*
X147178572Y-89964286D01*
X146821429Y-90678571D02*
X146821429Y-89178571D01*
X147392857Y-89178571D01*
X147535715Y-89250000D01*
X147607143Y-89321429D01*
X147678572Y-89464286D01*
X147678572Y-89678571D01*
X147607143Y-89821429D01*
X147535715Y-89892857D01*
X147392857Y-89964286D01*
X146821429Y-89964286D01*
X125528571Y-86492857D02*
X126028571Y-86492857D01*
X126242857Y-87278571D02*
X125528571Y-87278571D01*
X125528571Y-85778571D01*
X126242857Y-85778571D01*
X126885714Y-87278571D02*
X126885714Y-85778571D01*
X127742857Y-87278571D01*
X127742857Y-85778571D01*
X129314286Y-87135714D02*
X129242857Y-87207143D01*
X129028571Y-87278571D01*
X128885714Y-87278571D01*
X128671429Y-87207143D01*
X128528571Y-87064286D01*
X128457143Y-86921429D01*
X128385714Y-86635714D01*
X128385714Y-86421429D01*
X128457143Y-86135714D01*
X128528571Y-85992857D01*
X128671429Y-85850000D01*
X128885714Y-85778571D01*
X129028571Y-85778571D01*
X129242857Y-85850000D01*
X129314286Y-85921429D01*
X130242857Y-85778571D02*
X130528571Y-85778571D01*
X130671429Y-85850000D01*
X130814286Y-85992857D01*
X130885714Y-86278571D01*
X130885714Y-86778571D01*
X130814286Y-87064286D01*
X130671429Y-87207143D01*
X130528571Y-87278571D01*
X130242857Y-87278571D01*
X130100000Y-87207143D01*
X129957143Y-87064286D01*
X129885714Y-86778571D01*
X129885714Y-86278571D01*
X129957143Y-85992857D01*
X130100000Y-85850000D01*
X130242857Y-85778571D01*
X131528572Y-87278571D02*
X131528572Y-85778571D01*
X131885715Y-85778571D01*
X132100000Y-85850000D01*
X132242858Y-85992857D01*
X132314286Y-86135714D01*
X132385715Y-86421429D01*
X132385715Y-86635714D01*
X132314286Y-86921429D01*
X132242858Y-87064286D01*
X132100000Y-87207143D01*
X131885715Y-87278571D01*
X131528572Y-87278571D01*
X133028572Y-86492857D02*
X133528572Y-86492857D01*
X133742858Y-87278571D02*
X133028572Y-87278571D01*
X133028572Y-85778571D01*
X133742858Y-85778571D01*
D10*
X100000000Y-100000000D02*
X150000000Y-100000000D01*
X150000000Y-50000000D02*
X100000000Y-50000000D01*
X145000000Y-50000000D02*
X144000000Y-50000000D01*
X150000000Y-50000000D02*
X150000000Y-100000000D01*
X100000000Y-50000000D02*
X100000000Y-100000000D01*
D13*
X146320000Y-57500000D02*
X147020000Y-57500000D01*
X147020000Y-58700000D02*
X146320000Y-58700000D01*
X145675000Y-67999000D02*
X145675000Y-63001000D01*
X145535000Y-67991000D02*
X145535000Y-63009000D01*
X145395000Y-67975000D02*
X145395000Y-65595000D01*
X145395000Y-65405000D02*
X145395000Y-63025000D01*
X145255000Y-67951000D02*
X145255000Y-65990000D01*
X145255000Y-65010000D02*
X145255000Y-63049000D01*
X145115000Y-67918000D02*
X145115000Y-66157000D01*
X145115000Y-64843000D02*
X145115000Y-63082000D01*
X144975000Y-67877000D02*
X144975000Y-66264000D01*
X144975000Y-64736000D02*
X144975000Y-63123000D01*
X144835000Y-67827000D02*
X144835000Y-66335000D01*
X144835000Y-64665000D02*
X144835000Y-63173000D01*
X144695000Y-67766000D02*
X144695000Y-66379000D01*
X144695000Y-64621000D02*
X144695000Y-63234000D01*
X144555000Y-67696000D02*
X144555000Y-66398000D01*
X144555000Y-64602000D02*
X144555000Y-63304000D01*
X144415000Y-67614000D02*
X144415000Y-66396000D01*
X144415000Y-64604000D02*
X144415000Y-63386000D01*
X144275000Y-67519000D02*
X144275000Y-66371000D01*
X144275000Y-64629000D02*
X144275000Y-63481000D01*
X144135000Y-67408000D02*
X144135000Y-66323000D01*
X144135000Y-64677000D02*
X144135000Y-63592000D01*
X143995000Y-67280000D02*
X143995000Y-66245000D01*
X143995000Y-64755000D02*
X143995000Y-63720000D01*
X143855000Y-67131000D02*
X143855000Y-66128000D01*
X143855000Y-64872000D02*
X143855000Y-63869000D01*
X143715000Y-66952000D02*
X143715000Y-65940000D01*
X143715000Y-65060000D02*
X143715000Y-64048000D01*
X143575000Y-66733000D02*
X143575000Y-64267000D01*
X143435000Y-66444000D02*
X143435000Y-64556000D01*
X143295000Y-65972000D02*
X143295000Y-65028000D01*
X145400000Y-65500000D02*
G75*
G03X145400000Y-65500000I-900000J0D01*
G01*
X148287500Y-65500000D02*
G75*
G03X148287500Y-65500000I-2537500J0D01*
G01*
X136314000Y-95199000D02*
X136114000Y-95199000D01*
X133720000Y-95199000D02*
X133900000Y-95199000D01*
X134030357Y-91971256D02*
G75*
G03X133714000Y-95199000I1003643J-1727744D01*
G01*
X133900932Y-92646994D02*
G75*
G03X133900000Y-94750000I1133068J-1052006D01*
G01*
X136340726Y-95186220D02*
G75*
G03X135994000Y-91949000I-1306726J1497220D01*
G01*
X136113253Y-94712889D02*
G75*
G03X136094000Y-92665000I-1079253J1013889D01*
G01*
X127300000Y-60200000D02*
X125850000Y-60200000D01*
X134150000Y-60200000D02*
X132700000Y-60200000D01*
X136250000Y-60200000D02*
X136250000Y-61250000D01*
X136250000Y-61250000D02*
X134150000Y-61250000D01*
X134150000Y-61250000D02*
X134150000Y-60200000D01*
X123750000Y-60200000D02*
X123750000Y-61250000D01*
X123750000Y-61250000D02*
X125850000Y-61250000D01*
X125850000Y-61250000D02*
X125850000Y-60200000D01*
X130000000Y-62300000D02*
X132700000Y-62300000D01*
X132700000Y-62300000D02*
X132700000Y-60200000D01*
X130000000Y-62300000D02*
X127300000Y-62300000D01*
X127300000Y-62300000D02*
X127300000Y-60200000D01*
X136250000Y-54300000D02*
X136250000Y-60200000D01*
X123750000Y-60200000D02*
X123750000Y-54300000D01*
X130000000Y-54300000D02*
X136250000Y-54300000D01*
X130000000Y-54300000D02*
X123750000Y-54300000D01*
X104880000Y-60000000D02*
X104880000Y-66550000D01*
X104880000Y-66550000D02*
X104990000Y-66550000D01*
X104880000Y-60000000D02*
X104880000Y-54100000D01*
X104880000Y-54100000D02*
X122100000Y-54100000D01*
X122100000Y-54100000D02*
X122100000Y-66550000D01*
X122100000Y-66550000D02*
X120600000Y-66550000D01*
X120600000Y-66550000D02*
X120600000Y-63300000D01*
X120600000Y-63300000D02*
X106400000Y-63300000D01*
X106400000Y-63300000D02*
X106400000Y-66550000D01*
X106400000Y-66550000D02*
X104900000Y-66550000D01*
X124300000Y-83200000D02*
X121500000Y-83200000D01*
X132500000Y-83200000D02*
X129700000Y-83200000D01*
X134500000Y-83200000D02*
X134500000Y-84250000D01*
X134500000Y-84250000D02*
X132500000Y-84250000D01*
X132500000Y-84250000D02*
X132500000Y-83200000D01*
X119500000Y-83200000D02*
X119500000Y-84250000D01*
X119500000Y-84250000D02*
X121500000Y-84250000D01*
X121500000Y-84250000D02*
X121500000Y-83200000D01*
X127000000Y-85300000D02*
X129700000Y-85300000D01*
X129700000Y-85300000D02*
X129700000Y-83200000D01*
X127000000Y-85300000D02*
X124300000Y-85300000D01*
X124300000Y-85300000D02*
X124300000Y-83200000D01*
X119500000Y-77300000D02*
X119500000Y-83200000D01*
X134500000Y-83200000D02*
X134500000Y-77300000D01*
X134500000Y-77300000D02*
X127000000Y-77300000D01*
X127000000Y-77300000D02*
X119500000Y-77300000D01*
X124650000Y-73900000D02*
X125350000Y-73900000D01*
X125350000Y-75100000D02*
X124650000Y-75100000D01*
X124650000Y-67900000D02*
X125350000Y-67900000D01*
X125350000Y-69100000D02*
X124650000Y-69100000D01*
X128900000Y-73350000D02*
X128900000Y-72650000D01*
X130100000Y-72650000D02*
X130100000Y-73350000D01*
X133900000Y-73350000D02*
X133900000Y-72650000D01*
X135100000Y-72650000D02*
X135100000Y-73350000D01*
X128350000Y-66000000D02*
X128350000Y-65000000D01*
X126650000Y-65000000D02*
X126650000Y-66000000D01*
X124150000Y-63900000D02*
X124850000Y-63900000D01*
X124850000Y-65100000D02*
X124150000Y-65100000D01*
X135100000Y-64650000D02*
X135100000Y-65350000D01*
X133900000Y-65350000D02*
X133900000Y-64650000D01*
X125500000Y-70150000D02*
X124500000Y-70150000D01*
X124500000Y-71850000D02*
X125500000Y-71850000D01*
X130600000Y-64650000D02*
X130600000Y-65350000D01*
X129400000Y-65350000D02*
X129400000Y-64650000D01*
X145780000Y-83810000D02*
X145780000Y-86610000D01*
X145780000Y-75610000D02*
X145780000Y-78410000D01*
X145780000Y-73610000D02*
X146830000Y-73610000D01*
X146830000Y-73610000D02*
X146830000Y-75610000D01*
X146830000Y-75610000D02*
X145780000Y-75610000D01*
X145780000Y-88610000D02*
X146830000Y-88610000D01*
X146830000Y-88610000D02*
X146830000Y-86610000D01*
X146830000Y-86610000D02*
X145780000Y-86610000D01*
X147880000Y-81110000D02*
X147880000Y-78410000D01*
X147880000Y-78410000D02*
X145780000Y-78410000D01*
X147880000Y-81110000D02*
X147880000Y-83810000D01*
X147880000Y-83810000D02*
X145780000Y-83810000D01*
X139880000Y-88610000D02*
X145780000Y-88610000D01*
X145780000Y-73610000D02*
X139880000Y-73610000D01*
X139880000Y-73610000D02*
X139880000Y-81110000D01*
X139880000Y-81110000D02*
X139880000Y-88610000D01*
X139900000Y-58600000D02*
X140000000Y-58600000D01*
X140000000Y-58600000D02*
X140000000Y-59800000D01*
X140000000Y-59800000D02*
X140100000Y-59800000D01*
X140100000Y-59800000D02*
X140100000Y-58600000D01*
X140100000Y-58600000D02*
X140200000Y-58600000D01*
X140200000Y-58600000D02*
X140200000Y-59800000D01*
X140200000Y-59800000D02*
X140300000Y-59800000D01*
X140300000Y-59800000D02*
X140300000Y-58500000D01*
X140300000Y-58500000D02*
X140400000Y-58600000D01*
X140400000Y-58600000D02*
X140400000Y-59800000D01*
X140400000Y-59800000D02*
X140500000Y-59800000D01*
X140500000Y-59800000D02*
X140500000Y-58500000D01*
X140500000Y-58500000D02*
X140600000Y-58600000D01*
X140600000Y-58600000D02*
X140600000Y-59800000D01*
X140600000Y-59800000D02*
X140700000Y-59800000D01*
X140700000Y-59800000D02*
X140700000Y-58600000D01*
X140700000Y-58600000D02*
X140800000Y-58600000D01*
X140800000Y-58600000D02*
X140800000Y-59800000D01*
X140800000Y-59800000D02*
X140900000Y-59800000D01*
X140900000Y-59800000D02*
X140900000Y-58600000D01*
X140900000Y-58600000D02*
X141000000Y-58600000D01*
X141000000Y-58600000D02*
X141000000Y-59800000D01*
X139900000Y-59800000D02*
X139900000Y-58600000D01*
X141100000Y-58600000D02*
X141100000Y-59800000D01*
X141200000Y-58500000D02*
X139800000Y-58500000D01*
X141200000Y-57100000D02*
X141200000Y-59900000D01*
X141200000Y-59900000D02*
X139800000Y-59900000D01*
X139800000Y-59900000D02*
X139800000Y-57100000D01*
X139800000Y-57100000D02*
X141200000Y-57100000D01*
X138700000Y-61700000D02*
X138700000Y-62800000D01*
X138700000Y-62800000D02*
X142300000Y-62800000D01*
X142300000Y-62800000D02*
X142300000Y-61700000D01*
X140500000Y-54200000D02*
X138700000Y-54200000D01*
X138700000Y-54200000D02*
X138700000Y-55300000D01*
X140500000Y-54200000D02*
X142300000Y-54200000D01*
X142300000Y-54200000D02*
X142300000Y-55300000D01*
X138700000Y-59200000D02*
X138700000Y-60300000D01*
X138700000Y-56700000D02*
X138700000Y-57800000D01*
X142300000Y-57800000D02*
X142300000Y-56700000D01*
X142300000Y-59200000D02*
X142300000Y-60300000D01*
X130014000Y-95199000D02*
X129814000Y-95199000D01*
X127420000Y-95199000D02*
X127600000Y-95199000D01*
X127730357Y-91971256D02*
G75*
G03X127414000Y-95199000I1003643J-1727744D01*
G01*
X127600932Y-92646994D02*
G75*
G03X127600000Y-94750000I1133068J-1052006D01*
G01*
X130040726Y-95186220D02*
G75*
G03X129694000Y-91949000I-1306726J1497220D01*
G01*
X129813253Y-94712889D02*
G75*
G03X129794000Y-92665000I-1079253J1013889D01*
G01*
X124370000Y-92100000D02*
X124370000Y-85550000D01*
X124370000Y-85550000D02*
X124260000Y-85550000D01*
X124370000Y-92100000D02*
X124370000Y-98000000D01*
X124370000Y-98000000D02*
X107150000Y-98000000D01*
X107150000Y-98000000D02*
X107150000Y-85550000D01*
X107150000Y-85550000D02*
X108650000Y-85550000D01*
X108650000Y-85550000D02*
X108650000Y-88800000D01*
X108650000Y-88800000D02*
X122850000Y-88800000D01*
X122850000Y-88800000D02*
X122850000Y-85550000D01*
X122850000Y-85550000D02*
X124350000Y-85550000D01*
X146503334Y-56557143D02*
X146455715Y-56604762D01*
X146312858Y-56652381D01*
X146217620Y-56652381D01*
X146074762Y-56604762D01*
X145979524Y-56509524D01*
X145931905Y-56414286D01*
X145884286Y-56223810D01*
X145884286Y-56080952D01*
X145931905Y-55890476D01*
X145979524Y-55795238D01*
X146074762Y-55700000D01*
X146217620Y-55652381D01*
X146312858Y-55652381D01*
X146455715Y-55700000D01*
X146503334Y-55747619D01*
X147455715Y-56652381D02*
X146884286Y-56652381D01*
X147170000Y-56652381D02*
X147170000Y-55652381D01*
X147074762Y-55795238D01*
X146979524Y-55890476D01*
X146884286Y-55938095D01*
X145583334Y-69657143D02*
X145535715Y-69704762D01*
X145392858Y-69752381D01*
X145297620Y-69752381D01*
X145154762Y-69704762D01*
X145059524Y-69609524D01*
X145011905Y-69514286D01*
X144964286Y-69323810D01*
X144964286Y-69180952D01*
X145011905Y-68990476D01*
X145059524Y-68895238D01*
X145154762Y-68800000D01*
X145297620Y-68752381D01*
X145392858Y-68752381D01*
X145535715Y-68800000D01*
X145583334Y-68847619D01*
X145964286Y-68847619D02*
X146011905Y-68800000D01*
X146107143Y-68752381D01*
X146345239Y-68752381D01*
X146440477Y-68800000D01*
X146488096Y-68847619D01*
X146535715Y-68942857D01*
X146535715Y-69038095D01*
X146488096Y-69180952D01*
X145916667Y-69752381D01*
X146535715Y-69752381D01*
X138512381Y-93828095D02*
X137512381Y-93828095D01*
X137512381Y-93590000D01*
X137560000Y-93447142D01*
X137655238Y-93351904D01*
X137750476Y-93304285D01*
X137940952Y-93256666D01*
X138083810Y-93256666D01*
X138274286Y-93304285D01*
X138369524Y-93351904D01*
X138464762Y-93447142D01*
X138512381Y-93590000D01*
X138512381Y-93828095D01*
X138512381Y-92304285D02*
X138512381Y-92875714D01*
X138512381Y-92590000D02*
X137512381Y-92590000D01*
X137655238Y-92685238D01*
X137750476Y-92780476D01*
X137798095Y-92875714D01*
X137192381Y-96951905D02*
X136192381Y-96951905D01*
X137192381Y-96380476D02*
X136620952Y-96809048D01*
X136192381Y-96380476D02*
X136763810Y-96951905D01*
X129261905Y-60852381D02*
X129261905Y-59852381D01*
X129642858Y-59852381D01*
X129738096Y-59900000D01*
X129785715Y-59947619D01*
X129833334Y-60042857D01*
X129833334Y-60185714D01*
X129785715Y-60280952D01*
X129738096Y-60328571D01*
X129642858Y-60376190D01*
X129261905Y-60376190D01*
X130785715Y-60852381D02*
X130214286Y-60852381D01*
X130500000Y-60852381D02*
X130500000Y-59852381D01*
X130404762Y-59995238D01*
X130309524Y-60090476D01*
X130214286Y-60138095D01*
D10*
X113500000Y-60000000D02*
X113500000Y-60000000D01*
X113500000Y-60000000D01*
X113500000Y-60000000D01*
X113499999Y-60000000D01*
X113499999Y-60000000D01*
X113499999Y-60000000D01*
X113499999Y-60000000D01*
X113499999Y-59999999D01*
X113499999Y-59999999D01*
X113499999Y-59999999D01*
X113499999Y-59999999D01*
X113500000Y-59999999D01*
X113500000Y-59999999D01*
X113500000Y-59999999D01*
X113500000Y-59999999D01*
X113500000Y-60000000D02*
X113500000Y-59999999D01*
X113500001Y-60000000D01*
X113500001Y-59999999D01*
X113500001Y-59999999D02*
X113500002Y-59999999D01*
X113500001Y-59999999D01*
X113500002Y-59999999D01*
X113500002Y-59999999D01*
X113500002Y-59999999D01*
X113500002Y-60000000D01*
X113500002Y-60000000D01*
X113500002Y-60000000D01*
X113500002Y-60000000D01*
X113500002Y-60000000D01*
X113500001Y-60000000D01*
X113500001Y-60000000D01*
X113500001Y-60000000D01*
D13*
D10*
X113499993Y-60000000D02*
X113499993Y-60000000D01*
X113499993Y-60000000D01*
X113499993Y-60000000D01*
X113499992Y-60000000D01*
X113499992Y-60000000D01*
X113499992Y-60000000D01*
X113499992Y-60000000D01*
X113499992Y-59999999D01*
X113499992Y-59999999D01*
X113499992Y-59999999D01*
X113499992Y-59999999D01*
X113499993Y-59999999D01*
X113499993Y-59999999D01*
X113499993Y-59999999D01*
X113499993Y-59999999D01*
X113499993Y-59999999D02*
X113499994Y-59999999D01*
X113499994Y-59999999D01*
X113499994Y-59999999D01*
X113499994Y-59999999D01*
X113499994Y-60000000D01*
X113499994Y-60000000D01*
X113499994Y-60000000D01*
X113499994Y-60000000D01*
X113499993Y-60000000D01*
X113499993Y-60000000D01*
X113499993Y-60000000D01*
X113499993Y-60000000D01*
X113499993Y-59999999D01*
X113499993Y-59999999D01*
X113499993Y-59999999D01*
X113499993Y-59999999D01*
X113499994Y-60000000D02*
X113499994Y-59999999D01*
X113499995Y-60000000D01*
X113499995Y-59999999D01*
X113499995Y-60000000D02*
X113499995Y-59999999D01*
X113499996Y-60000000D01*
X113499996Y-59999999D01*
X113499996Y-60000000D02*
X113499997Y-60000000D01*
X113499998Y-60000000D02*
X113499997Y-59999999D01*
X113499997Y-60000000D02*
X113499997Y-59999999D01*
X113499998Y-59999999D01*
X113499998Y-59999999D01*
X113499998Y-59999999D01*
X113499998Y-59999999D01*
X113499998Y-59999999D01*
X113499998Y-59999999D01*
X113499998Y-59999999D01*
X113499998Y-59999999D01*
X113499997Y-59999999D01*
X113499998Y-59999999D02*
X113499999Y-59999999D01*
X113499999Y-60000000D02*
X113499998Y-60000000D01*
X113499998Y-59999999D01*
X113499999Y-59999999D01*
X113499999Y-60000000D02*
X113499999Y-59999999D01*
X113499999Y-59999999D01*
X113500000Y-59999999D01*
X113500000Y-59999999D01*
X113500000Y-59999999D01*
X113500000Y-59999999D01*
X113500000Y-60000000D01*
X113500000Y-60000000D01*
X113500000Y-60000000D01*
X113500000Y-60000000D01*
X113499999Y-60000000D01*
X113499999Y-60000000D01*
X113500000Y-60000000D02*
X113500001Y-60000000D01*
X113500001Y-59999999D02*
X113500001Y-59999999D01*
X113500001Y-59999999D01*
X113500002Y-59999999D01*
X113500002Y-59999999D01*
X113500002Y-59999999D01*
X113500002Y-59999999D01*
X113500002Y-59999999D01*
X113500002Y-59999999D01*
X113500001Y-60000000D01*
X113500002Y-60000000D01*
X113500002Y-60000000D02*
X113500003Y-60000000D01*
X113500003Y-60000000D02*
X113500003Y-59999999D01*
X113500004Y-59999999D01*
X113500004Y-59999999D01*
X113500004Y-59999999D01*
X113500004Y-59999999D01*
X113500004Y-59999999D01*
X113500004Y-59999999D01*
X113500004Y-59999999D01*
X113500004Y-59999999D01*
X113500003Y-59999999D01*
X113500004Y-60000000D02*
X113500004Y-60000000D01*
X113500004Y-60000000D01*
X113500004Y-60000000D01*
X113500004Y-59999999D01*
X113500004Y-59999999D01*
X113500004Y-59999999D01*
X113500004Y-59999999D01*
X113500005Y-59999999D01*
X113500005Y-59999999D01*
X113500005Y-59999999D01*
X113500005Y-59999999D01*
X113500005Y-60000000D01*
X113500005Y-60000000D01*
X113500005Y-60000000D01*
X113500005Y-60000000D01*
X113500004Y-60000000D01*
X113500005Y-59999999D02*
X113500005Y-60000000D01*
X113500006Y-59999999D01*
X113500006Y-60000000D01*
X113500006Y-59999999D01*
X113500007Y-60000000D02*
X113500007Y-60000000D01*
X113500006Y-60000000D01*
X113500006Y-60000000D01*
X113500006Y-60000000D01*
X113500006Y-59999999D01*
X113500006Y-59999999D01*
X113500006Y-59999999D01*
X113500007Y-59999999D01*
X113500007Y-59999999D01*
X113500007Y-59999999D01*
X113500007Y-60000000D01*
X113500006Y-60000000D01*
X113500007Y-60000000D02*
X113500007Y-59999999D01*
X113500007Y-59999999D02*
X113500007Y-59999999D01*
X113500007Y-59999999D01*
X113500007Y-59999999D01*
X113500008Y-59999999D01*
D13*
X126309524Y-83397143D02*
X126261905Y-83444762D01*
X126119048Y-83492381D01*
X126023810Y-83492381D01*
X125880952Y-83444762D01*
X125785714Y-83349524D01*
X125738095Y-83254286D01*
X125690476Y-83063810D01*
X125690476Y-82920952D01*
X125738095Y-82730476D01*
X125785714Y-82635238D01*
X125880952Y-82540000D01*
X126023810Y-82492381D01*
X126119048Y-82492381D01*
X126261905Y-82540000D01*
X126309524Y-82587619D01*
X126738095Y-83492381D02*
X126738095Y-82492381D01*
X127309524Y-83492381D01*
X127309524Y-82492381D01*
X128214286Y-82825714D02*
X128214286Y-83492381D01*
X127976190Y-82444762D02*
X127738095Y-83159048D01*
X128357143Y-83159048D01*
X124833334Y-72957143D02*
X124785715Y-73004762D01*
X124642858Y-73052381D01*
X124547620Y-73052381D01*
X124404762Y-73004762D01*
X124309524Y-72909524D01*
X124261905Y-72814286D01*
X124214286Y-72623810D01*
X124214286Y-72480952D01*
X124261905Y-72290476D01*
X124309524Y-72195238D01*
X124404762Y-72100000D01*
X124547620Y-72052381D01*
X124642858Y-72052381D01*
X124785715Y-72100000D01*
X124833334Y-72147619D01*
X125166667Y-72052381D02*
X125785715Y-72052381D01*
X125452381Y-72433333D01*
X125595239Y-72433333D01*
X125690477Y-72480952D01*
X125738096Y-72528571D01*
X125785715Y-72623810D01*
X125785715Y-72861905D01*
X125738096Y-72957143D01*
X125690477Y-73004762D01*
X125595239Y-73052381D01*
X125309524Y-73052381D01*
X125214286Y-73004762D01*
X125166667Y-72957143D01*
X124833334Y-66957143D02*
X124785715Y-67004762D01*
X124642858Y-67052381D01*
X124547620Y-67052381D01*
X124404762Y-67004762D01*
X124309524Y-66909524D01*
X124261905Y-66814286D01*
X124214286Y-66623810D01*
X124214286Y-66480952D01*
X124261905Y-66290476D01*
X124309524Y-66195238D01*
X124404762Y-66100000D01*
X124547620Y-66052381D01*
X124642858Y-66052381D01*
X124785715Y-66100000D01*
X124833334Y-66147619D01*
X125690477Y-66385714D02*
X125690477Y-67052381D01*
X125452381Y-66004762D02*
X125214286Y-66719048D01*
X125833334Y-66719048D01*
X127957143Y-73166666D02*
X128004762Y-73214285D01*
X128052381Y-73357142D01*
X128052381Y-73452380D01*
X128004762Y-73595238D01*
X127909524Y-73690476D01*
X127814286Y-73738095D01*
X127623810Y-73785714D01*
X127480952Y-73785714D01*
X127290476Y-73738095D01*
X127195238Y-73690476D01*
X127100000Y-73595238D01*
X127052381Y-73452380D01*
X127052381Y-73357142D01*
X127100000Y-73214285D01*
X127147619Y-73166666D01*
X127052381Y-72261904D02*
X127052381Y-72738095D01*
X127528571Y-72785714D01*
X127480952Y-72738095D01*
X127433333Y-72642857D01*
X127433333Y-72404761D01*
X127480952Y-72309523D01*
X127528571Y-72261904D01*
X127623810Y-72214285D01*
X127861905Y-72214285D01*
X127957143Y-72261904D01*
X128004762Y-72309523D01*
X128052381Y-72404761D01*
X128052381Y-72642857D01*
X128004762Y-72738095D01*
X127957143Y-72785714D01*
X132957143Y-73166666D02*
X133004762Y-73214285D01*
X133052381Y-73357142D01*
X133052381Y-73452380D01*
X133004762Y-73595238D01*
X132909524Y-73690476D01*
X132814286Y-73738095D01*
X132623810Y-73785714D01*
X132480952Y-73785714D01*
X132290476Y-73738095D01*
X132195238Y-73690476D01*
X132100000Y-73595238D01*
X132052381Y-73452380D01*
X132052381Y-73357142D01*
X132100000Y-73214285D01*
X132147619Y-73166666D01*
X132052381Y-72309523D02*
X132052381Y-72500000D01*
X132100000Y-72595238D01*
X132147619Y-72642857D01*
X132290476Y-72738095D01*
X132480952Y-72785714D01*
X132861905Y-72785714D01*
X132957143Y-72738095D01*
X133004762Y-72690476D01*
X133052381Y-72595238D01*
X133052381Y-72404761D01*
X133004762Y-72309523D01*
X132957143Y-72261904D01*
X132861905Y-72214285D01*
X132623810Y-72214285D01*
X132528571Y-72261904D01*
X132480952Y-72309523D01*
X132433333Y-72404761D01*
X132433333Y-72595238D01*
X132480952Y-72690476D01*
X132528571Y-72738095D01*
X132623810Y-72785714D01*
X129957143Y-65666666D02*
X130004762Y-65714285D01*
X130052381Y-65857142D01*
X130052381Y-65952380D01*
X130004762Y-66095238D01*
X129909524Y-66190476D01*
X129814286Y-66238095D01*
X129623810Y-66285714D01*
X129480952Y-66285714D01*
X129290476Y-66238095D01*
X129195238Y-66190476D01*
X129100000Y-66095238D01*
X129052381Y-65952380D01*
X129052381Y-65857142D01*
X129100000Y-65714285D01*
X129147619Y-65666666D01*
X129052381Y-65333333D02*
X129052381Y-64666666D01*
X130052381Y-65095238D01*
X124333334Y-62957143D02*
X124285715Y-63004762D01*
X124142858Y-63052381D01*
X124047620Y-63052381D01*
X123904762Y-63004762D01*
X123809524Y-62909524D01*
X123761905Y-62814286D01*
X123714286Y-62623810D01*
X123714286Y-62480952D01*
X123761905Y-62290476D01*
X123809524Y-62195238D01*
X123904762Y-62100000D01*
X124047620Y-62052381D01*
X124142858Y-62052381D01*
X124285715Y-62100000D01*
X124333334Y-62147619D01*
X124904762Y-62480952D02*
X124809524Y-62433333D01*
X124761905Y-62385714D01*
X124714286Y-62290476D01*
X124714286Y-62242857D01*
X124761905Y-62147619D01*
X124809524Y-62100000D01*
X124904762Y-62052381D01*
X125095239Y-62052381D01*
X125190477Y-62100000D01*
X125238096Y-62147619D01*
X125285715Y-62242857D01*
X125285715Y-62290476D01*
X125238096Y-62385714D01*
X125190477Y-62433333D01*
X125095239Y-62480952D01*
X124904762Y-62480952D01*
X124809524Y-62528571D01*
X124761905Y-62576190D01*
X124714286Y-62671429D01*
X124714286Y-62861905D01*
X124761905Y-62957143D01*
X124809524Y-63004762D01*
X124904762Y-63052381D01*
X125095239Y-63052381D01*
X125190477Y-63004762D01*
X125238096Y-62957143D01*
X125285715Y-62861905D01*
X125285715Y-62671429D01*
X125238096Y-62576190D01*
X125190477Y-62528571D01*
X125095239Y-62480952D01*
X136757143Y-65166666D02*
X136804762Y-65214285D01*
X136852381Y-65357142D01*
X136852381Y-65452380D01*
X136804762Y-65595238D01*
X136709524Y-65690476D01*
X136614286Y-65738095D01*
X136423810Y-65785714D01*
X136280952Y-65785714D01*
X136090476Y-65738095D01*
X135995238Y-65690476D01*
X135900000Y-65595238D01*
X135852381Y-65452380D01*
X135852381Y-65357142D01*
X135900000Y-65214285D01*
X135947619Y-65166666D01*
X136852381Y-64690476D02*
X136852381Y-64500000D01*
X136804762Y-64404761D01*
X136757143Y-64357142D01*
X136614286Y-64261904D01*
X136423810Y-64214285D01*
X136042857Y-64214285D01*
X135947619Y-64261904D01*
X135900000Y-64309523D01*
X135852381Y-64404761D01*
X135852381Y-64595238D01*
X135900000Y-64690476D01*
X135947619Y-64738095D01*
X136042857Y-64785714D01*
X136280952Y-64785714D01*
X136376190Y-64738095D01*
X136423810Y-64690476D01*
X136471429Y-64595238D01*
X136471429Y-64404761D01*
X136423810Y-64309523D01*
X136376190Y-64261904D01*
X136280952Y-64214285D01*
X124357143Y-69257143D02*
X124309524Y-69304762D01*
X124166667Y-69352381D01*
X124071429Y-69352381D01*
X123928571Y-69304762D01*
X123833333Y-69209524D01*
X123785714Y-69114286D01*
X123738095Y-68923810D01*
X123738095Y-68780952D01*
X123785714Y-68590476D01*
X123833333Y-68495238D01*
X123928571Y-68400000D01*
X124071429Y-68352381D01*
X124166667Y-68352381D01*
X124309524Y-68400000D01*
X124357143Y-68447619D01*
X125309524Y-69352381D02*
X124738095Y-69352381D01*
X125023809Y-69352381D02*
X125023809Y-68352381D01*
X124928571Y-68495238D01*
X124833333Y-68590476D01*
X124738095Y-68638095D01*
X125928571Y-68352381D02*
X126023810Y-68352381D01*
X126119048Y-68400000D01*
X126166667Y-68447619D01*
X126214286Y-68542857D01*
X126261905Y-68733333D01*
X126261905Y-68971429D01*
X126214286Y-69161905D01*
X126166667Y-69257143D01*
X126119048Y-69304762D01*
X126023810Y-69352381D01*
X125928571Y-69352381D01*
X125833333Y-69304762D01*
X125785714Y-69257143D01*
X125738095Y-69161905D01*
X125690476Y-68971429D01*
X125690476Y-68733333D01*
X125738095Y-68542857D01*
X125785714Y-68447619D01*
X125833333Y-68400000D01*
X125928571Y-68352381D01*
X132257143Y-65642857D02*
X132304762Y-65690476D01*
X132352381Y-65833333D01*
X132352381Y-65928571D01*
X132304762Y-66071429D01*
X132209524Y-66166667D01*
X132114286Y-66214286D01*
X131923810Y-66261905D01*
X131780952Y-66261905D01*
X131590476Y-66214286D01*
X131495238Y-66166667D01*
X131400000Y-66071429D01*
X131352381Y-65928571D01*
X131352381Y-65833333D01*
X131400000Y-65690476D01*
X131447619Y-65642857D01*
X132352381Y-64690476D02*
X132352381Y-65261905D01*
X132352381Y-64976191D02*
X131352381Y-64976191D01*
X131495238Y-65071429D01*
X131590476Y-65166667D01*
X131638095Y-65261905D01*
X132352381Y-63738095D02*
X132352381Y-64309524D01*
X132352381Y-64023810D02*
X131352381Y-64023810D01*
X131495238Y-64119048D01*
X131590476Y-64214286D01*
X131638095Y-64309524D01*
X145977143Y-81800476D02*
X146024762Y-81848095D01*
X146072381Y-81990952D01*
X146072381Y-82086190D01*
X146024762Y-82229048D01*
X145929524Y-82324286D01*
X145834286Y-82371905D01*
X145643810Y-82419524D01*
X145500952Y-82419524D01*
X145310476Y-82371905D01*
X145215238Y-82324286D01*
X145120000Y-82229048D01*
X145072381Y-82086190D01*
X145072381Y-81990952D01*
X145120000Y-81848095D01*
X145167619Y-81800476D01*
X146072381Y-81371905D02*
X145072381Y-81371905D01*
X146072381Y-80800476D01*
X145072381Y-80800476D01*
X145167619Y-80371905D02*
X145120000Y-80324286D01*
X145072381Y-80229048D01*
X145072381Y-79990952D01*
X145120000Y-79895714D01*
X145167619Y-79848095D01*
X145262857Y-79800476D01*
X145358095Y-79800476D01*
X145500952Y-79848095D01*
X146072381Y-80419524D01*
X146072381Y-79800476D01*
X144407143Y-60500000D02*
X144478571Y-60285714D01*
X144478571Y-59928571D01*
X144407143Y-59785714D01*
X144335714Y-59714285D01*
X144192857Y-59642857D01*
X144050000Y-59642857D01*
X143907143Y-59714285D01*
X143835714Y-59785714D01*
X143764286Y-59928571D01*
X143692857Y-60214285D01*
X143621429Y-60357143D01*
X143550000Y-60428571D01*
X143407143Y-60500000D01*
X143264286Y-60500000D01*
X143121429Y-60428571D01*
X143050000Y-60357143D01*
X142978571Y-60214285D01*
X142978571Y-59857143D01*
X143050000Y-59642857D01*
X142978571Y-59142857D02*
X144478571Y-58785714D01*
X143407143Y-58500000D01*
X144478571Y-58214286D01*
X142978571Y-57857143D01*
X143121429Y-57357143D02*
X143050000Y-57285714D01*
X142978571Y-57142857D01*
X142978571Y-56785714D01*
X143050000Y-56642857D01*
X143121429Y-56571428D01*
X143264286Y-56500000D01*
X143407143Y-56500000D01*
X143621429Y-56571428D01*
X144478571Y-57428571D01*
X144478571Y-56500000D01*
X136007143Y-63464286D02*
X136078571Y-63250000D01*
X136078571Y-62892857D01*
X136007143Y-62750000D01*
X135935714Y-62678571D01*
X135792857Y-62607143D01*
X135650000Y-62607143D01*
X135507143Y-62678571D01*
X135435714Y-62750000D01*
X135364286Y-62892857D01*
X135292857Y-63178571D01*
X135221429Y-63321429D01*
X135150000Y-63392857D01*
X135007143Y-63464286D01*
X134864286Y-63464286D01*
X134721429Y-63392857D01*
X134650000Y-63321429D01*
X134578571Y-63178571D01*
X134578571Y-62821429D01*
X134650000Y-62607143D01*
X136078571Y-61250000D02*
X136078571Y-61964286D01*
X134578571Y-61964286D01*
X136078571Y-60750000D02*
X134578571Y-60750000D01*
X136078571Y-60035714D02*
X134578571Y-60035714D01*
X134578571Y-59678571D01*
X134650000Y-59464286D01*
X134792857Y-59321428D01*
X134935714Y-59250000D01*
X135221429Y-59178571D01*
X135435714Y-59178571D01*
X135721429Y-59250000D01*
X135864286Y-59321428D01*
X136007143Y-59464286D01*
X136078571Y-59678571D01*
X136078571Y-60035714D01*
X135292857Y-58535714D02*
X135292857Y-58035714D01*
X136078571Y-57821428D02*
X136078571Y-58535714D01*
X134578571Y-58535714D01*
X134578571Y-57821428D01*
X136221429Y-57535714D02*
X136221429Y-56392857D01*
X136007143Y-56107143D02*
X136078571Y-55892857D01*
X136078571Y-55535714D01*
X136007143Y-55392857D01*
X135935714Y-55321428D01*
X135792857Y-55250000D01*
X135650000Y-55250000D01*
X135507143Y-55321428D01*
X135435714Y-55392857D01*
X135364286Y-55535714D01*
X135292857Y-55821428D01*
X135221429Y-55964286D01*
X135150000Y-56035714D01*
X135007143Y-56107143D01*
X134864286Y-56107143D01*
X134721429Y-56035714D01*
X134650000Y-55964286D01*
X134578571Y-55821428D01*
X134578571Y-55464286D01*
X134650000Y-55250000D01*
X134578571Y-54750000D02*
X136078571Y-54392857D01*
X135007143Y-54107143D01*
X136078571Y-53821429D01*
X134578571Y-53464286D01*
X109288095Y-72402381D02*
X109288095Y-73211905D01*
X109335714Y-73307143D01*
X109383333Y-73354762D01*
X109478571Y-73402381D01*
X109669048Y-73402381D01*
X109764286Y-73354762D01*
X109811905Y-73307143D01*
X109859524Y-73211905D01*
X109859524Y-72402381D01*
X110764286Y-72735714D02*
X110764286Y-73402381D01*
X110526190Y-72354762D02*
X110288095Y-73069048D01*
X110907143Y-73069048D01*
X113188095Y-77552381D02*
X113188095Y-78361905D01*
X113235714Y-78457143D01*
X113283333Y-78504762D01*
X113378571Y-78552381D01*
X113569048Y-78552381D01*
X113664286Y-78504762D01*
X113711905Y-78457143D01*
X113759524Y-78361905D01*
X113759524Y-77552381D01*
X114711905Y-77552381D02*
X114235714Y-77552381D01*
X114188095Y-78028571D01*
X114235714Y-77980952D01*
X114330952Y-77933333D01*
X114569048Y-77933333D01*
X114664286Y-77980952D01*
X114711905Y-78028571D01*
X114759524Y-78123810D01*
X114759524Y-78361905D01*
X114711905Y-78457143D01*
X114664286Y-78504762D01*
X114569048Y-78552381D01*
X114330952Y-78552381D01*
X114235714Y-78504762D01*
X114188095Y-78457143D01*
X132212381Y-93828095D02*
X131212381Y-93828095D01*
X131212381Y-93590000D01*
X131260000Y-93447142D01*
X131355238Y-93351904D01*
X131450476Y-93304285D01*
X131640952Y-93256666D01*
X131783810Y-93256666D01*
X131974286Y-93304285D01*
X132069524Y-93351904D01*
X132164762Y-93447142D01*
X132212381Y-93590000D01*
X132212381Y-93828095D01*
X131307619Y-92875714D02*
X131260000Y-92828095D01*
X131212381Y-92732857D01*
X131212381Y-92494761D01*
X131260000Y-92399523D01*
X131307619Y-92351904D01*
X131402857Y-92304285D01*
X131498095Y-92304285D01*
X131640952Y-92351904D01*
X132212381Y-92923333D01*
X132212381Y-92304285D01*
X130892381Y-96951905D02*
X129892381Y-96951905D01*
X130892381Y-96380476D02*
X130320952Y-96809048D01*
X129892381Y-96380476D02*
X130463810Y-96951905D01*
D10*
X115750000Y-102260000D02*
X115750000Y-102260000D01*
X115750000Y-102260000D01*
X115750000Y-102260000D01*
X115749999Y-102260000D01*
X115749999Y-102260000D01*
X115749999Y-102260000D01*
X115749999Y-102260000D01*
X115749999Y-102259999D01*
X115749999Y-102259999D01*
X115749999Y-102259999D01*
X115749999Y-102259999D01*
X115750000Y-102259999D01*
X115750000Y-102259999D01*
X115750000Y-102259999D01*
X115750000Y-102259999D01*
X115750000Y-102260000D02*
X115750000Y-102259999D01*
X115750001Y-102260000D01*
X115750001Y-102259999D01*
X115750002Y-102260000D02*
X115750001Y-102260000D01*
X115750001Y-102260000D02*
X115750001Y-102259999D01*
X115750001Y-102259999D01*
X115750001Y-102259999D01*
X115750001Y-102259999D01*
D13*
D10*
X115749996Y-97180000D02*
X115749996Y-97179999D01*
X115749996Y-97179999D01*
X115749997Y-97179999D01*
X115749997Y-97179999D01*
X115749997Y-97179999D01*
X115749997Y-97179999D01*
X115749997Y-97180000D01*
X115749997Y-97180000D01*
X115749997Y-97180000D01*
X115749997Y-97180000D01*
X115749996Y-97180000D01*
X115749996Y-97180000D01*
X115749998Y-97179999D02*
X115749997Y-97179999D01*
X115749997Y-97180000D02*
X115749997Y-97179999D01*
X115749998Y-97179999D01*
X115749998Y-97179999D02*
X115749998Y-97179999D01*
X115749998Y-97179999D01*
X115749999Y-97179999D01*
X115749999Y-97179999D01*
X115749999Y-97179999D01*
X115749999Y-97179999D01*
X115749999Y-97179999D01*
X115749999Y-97179999D01*
X115749998Y-97180000D01*
X115749999Y-97180000D01*
X115749999Y-97179999D02*
X115749999Y-97179999D01*
X115749999Y-97179999D01*
X115750000Y-97179999D01*
X115750000Y-97179999D01*
X115750000Y-97179999D01*
X115750000Y-97179999D01*
X115750000Y-97179999D01*
X115750000Y-97179999D01*
X115749999Y-97180000D01*
X115750000Y-97180000D01*
X115750001Y-97180000D02*
X115750000Y-97180000D01*
X115750000Y-97179999D01*
X115750001Y-97180000D02*
X115750002Y-97180000D01*
X115750002Y-97179999D02*
X115750002Y-97179999D01*
X115750002Y-97179999D01*
X115750003Y-97179999D01*
X115750003Y-97179999D01*
X115750003Y-97179999D01*
X115750003Y-97179999D01*
X115750003Y-97179999D01*
X115750003Y-97179999D01*
X115750002Y-97180000D01*
X115750003Y-97180000D01*
X115750003Y-97180000D02*
X115750003Y-97179999D01*
X115750004Y-97179999D01*
X115750004Y-97179999D01*
X115750004Y-97179999D01*
X115750004Y-97179999D01*
X115750004Y-97179999D01*
X115750004Y-97179999D01*
X115750004Y-97179999D01*
X115750004Y-97179999D01*
X115750003Y-97179999D01*
D13*
X113188095Y-67852381D02*
X113188095Y-68661905D01*
X113235714Y-68757143D01*
X113283333Y-68804762D01*
X113378571Y-68852381D01*
X113569048Y-68852381D01*
X113664286Y-68804762D01*
X113711905Y-68757143D01*
X113759524Y-68661905D01*
X113759524Y-67852381D01*
X114664286Y-67852381D02*
X114473809Y-67852381D01*
X114378571Y-67900000D01*
X114330952Y-67947619D01*
X114235714Y-68090476D01*
X114188095Y-68280952D01*
X114188095Y-68661905D01*
X114235714Y-68757143D01*
X114283333Y-68804762D01*
X114378571Y-68852381D01*
X114569048Y-68852381D01*
X114664286Y-68804762D01*
X114711905Y-68757143D01*
X114759524Y-68661905D01*
X114759524Y-68423810D01*
X114711905Y-68328571D01*
X114664286Y-68280952D01*
X114569048Y-68233333D01*
X114378571Y-68233333D01*
X114283333Y-68280952D01*
X114235714Y-68328571D01*
X114188095Y-68423810D01*
M02*
