G04 #@! TF.FileFunction,Soldermask,Bot*
%FSLAX46Y46*%
G04 Gerber Fmt 4.6, Leading zero omitted, Abs format (unit mm)*
G04 Created by KiCad (PCBNEW (2015-07-11 BZR 5925, Git c291b88)-product) date 2015/08/03 22:31:36*
%MOMM*%
G01*
G04 APERTURE LIST*
%ADD10C,0.100000*%
%ADD11R,1.300000X1.300000*%
%ADD12C,1.300000*%
%ADD13R,2.000000X2.000000*%
%ADD14C,2.000000*%
%ADD15R,0.500000X0.900000*%
%ADD16R,0.449580X1.668780*%
%ADD17R,1.500000X0.300000*%
%ADD18R,0.300000X1.500000*%
%ADD19C,3.000000*%
%ADD20R,2.500000X2.000000*%
%ADD21R,7.000000X6.500000*%
%ADD22R,0.900000X0.500000*%
%ADD23C,1.700000*%
%ADD24R,0.750000X0.600000*%
G04 APERTURE END LIST*
D10*
X100000000Y-100000000D02*
X150000000Y-100000000D01*
X150000000Y-50000000D02*
X100000000Y-50000000D01*
X145000000Y-50000000D02*
X144000000Y-50000000D01*
X150000000Y-50000000D02*
X150000000Y-100000000D01*
X100000000Y-50000000D02*
X100000000Y-100000000D01*
D11*
X147000000Y-65500000D03*
D12*
X144500000Y-65500000D03*
D13*
X135000000Y-95000000D03*
D14*
X135000000Y-92460000D03*
X126190000Y-57500000D03*
X128730000Y-57500000D03*
X131270000Y-57500000D03*
X133810000Y-57500000D03*
D15*
X138150000Y-95000000D03*
X139650000Y-95000000D03*
X121500000Y-60850000D03*
X120000000Y-60850000D03*
D16*
X117524500Y-79864100D03*
X116874260Y-79864100D03*
X116224020Y-79864100D03*
X115573780Y-79864100D03*
X114926080Y-79864100D03*
X114275840Y-79864100D03*
X113625600Y-79864100D03*
X112975360Y-79864100D03*
X112325120Y-79864100D03*
X111674880Y-79864100D03*
X111024640Y-79864100D03*
X110374400Y-79864100D03*
X109724160Y-79864100D03*
X109073920Y-79864100D03*
X108423680Y-79864100D03*
X107775980Y-79864100D03*
X107125740Y-79864100D03*
X106475500Y-79864100D03*
X106475500Y-70135900D03*
X107125740Y-70135900D03*
X107775980Y-70135900D03*
X108423680Y-70135900D03*
X109073920Y-70135900D03*
X109724160Y-70135900D03*
X110374400Y-70135900D03*
X111024640Y-70135900D03*
X111674880Y-70135900D03*
X112325120Y-70135900D03*
X112975360Y-70135900D03*
X113625600Y-70135900D03*
X114275840Y-70135900D03*
X114926080Y-70135900D03*
X115573780Y-70135900D03*
X116224020Y-70135900D03*
X116874260Y-70135900D03*
X117524500Y-70135900D03*
D17*
X136700000Y-63000000D03*
X136700000Y-63500000D03*
X136700000Y-64000000D03*
X136700000Y-64500000D03*
X136700000Y-65000000D03*
X136700000Y-65500000D03*
X136700000Y-66000000D03*
X136700000Y-66500000D03*
X136700000Y-67000000D03*
X136700000Y-67500000D03*
X136700000Y-68000000D03*
X136700000Y-68500000D03*
X136700000Y-69000000D03*
X136700000Y-69500000D03*
X136700000Y-70000000D03*
X136700000Y-70500000D03*
X136700000Y-71000000D03*
X136700000Y-71500000D03*
X136700000Y-72000000D03*
X136700000Y-72500000D03*
X136700000Y-73000000D03*
X136700000Y-73500000D03*
X136700000Y-74000000D03*
X136700000Y-74500000D03*
X136700000Y-75000000D03*
D18*
X135000000Y-76700000D03*
X134500000Y-76700000D03*
X134000000Y-76700000D03*
X133500000Y-76700000D03*
X133000000Y-76700000D03*
X132500000Y-76700000D03*
X132000000Y-76700000D03*
X131500000Y-76700000D03*
X131000000Y-76700000D03*
X130500000Y-76700000D03*
X130000000Y-76700000D03*
X129500000Y-76700000D03*
X129000000Y-76700000D03*
X128500000Y-76700000D03*
X128000000Y-76700000D03*
X127500000Y-76700000D03*
X127000000Y-76700000D03*
X126500000Y-76700000D03*
X126000000Y-76700000D03*
X125500000Y-76700000D03*
X125000000Y-76700000D03*
X124500000Y-76700000D03*
X124000000Y-76700000D03*
X123500000Y-76700000D03*
X123000000Y-76700000D03*
D17*
X121300000Y-75000000D03*
X121300000Y-74500000D03*
X121300000Y-74000000D03*
X121300000Y-73500000D03*
X121300000Y-73000000D03*
X121300000Y-72500000D03*
X121300000Y-72000000D03*
X121300000Y-71500000D03*
X121300000Y-71000000D03*
X121300000Y-70500000D03*
X121300000Y-70000000D03*
X121300000Y-69500000D03*
X121300000Y-69000000D03*
X121300000Y-68500000D03*
X121300000Y-68000000D03*
X121300000Y-67500000D03*
X121300000Y-67000000D03*
X121300000Y-66500000D03*
X121300000Y-66000000D03*
X121300000Y-65500000D03*
X121300000Y-65000000D03*
X121300000Y-64500000D03*
X121300000Y-64000000D03*
X121300000Y-63500000D03*
X121300000Y-63000000D03*
D18*
X123000000Y-61300000D03*
X123500000Y-61300000D03*
X124000000Y-61300000D03*
X124500000Y-61300000D03*
X125000000Y-61300000D03*
X125500000Y-61300000D03*
X126000000Y-61300000D03*
X126500000Y-61300000D03*
X127000000Y-61300000D03*
X127500000Y-61300000D03*
X128000000Y-61300000D03*
X128500000Y-61300000D03*
X129000000Y-61300000D03*
X129500000Y-61300000D03*
X130000000Y-61300000D03*
X130500000Y-61300000D03*
X131000000Y-61300000D03*
X131500000Y-61300000D03*
X132000000Y-61300000D03*
X132500000Y-61300000D03*
X133000000Y-61300000D03*
X133500000Y-61300000D03*
X134000000Y-61300000D03*
X134500000Y-61300000D03*
X135000000Y-61300000D03*
D19*
X109540000Y-60000000D03*
X117460000Y-60000000D03*
X120910000Y-55650000D03*
X106090000Y-55650000D03*
D14*
X121920000Y-80500000D03*
X124460000Y-80500000D03*
X127000000Y-80500000D03*
X129540000Y-80500000D03*
X132080000Y-80500000D03*
X143080000Y-86190000D03*
X143080000Y-83650000D03*
X143080000Y-81110000D03*
X143080000Y-78570000D03*
X143080000Y-76030000D03*
D20*
X146710000Y-60450000D03*
X146710000Y-55850000D03*
D21*
X140410000Y-58150000D03*
D14*
X110050000Y-72450000D03*
X113950000Y-77600000D03*
D13*
X128700000Y-95000000D03*
D14*
X128700000Y-92460000D03*
D15*
X125500000Y-91850000D03*
X124000000Y-91850000D03*
D22*
X119550000Y-76450000D03*
X119550000Y-74950000D03*
X119500000Y-80250000D03*
X119500000Y-78750000D03*
D15*
X123500000Y-58050000D03*
X122000000Y-58050000D03*
D19*
X119710000Y-92100000D03*
X111790000Y-92100000D03*
X108340000Y-96450000D03*
X123160000Y-96450000D03*
D23*
X103500000Y-80250000D03*
X103500000Y-86750000D03*
X103500000Y-69750000D03*
X103500000Y-63250000D03*
D14*
X113950000Y-67900000D03*
D24*
X120150000Y-59450000D03*
X121250000Y-59450000D03*
M02*
