G04 #@! TF.FileFunction,Soldermask,Top*
%FSLAX46Y46*%
G04 Gerber Fmt 4.6, Leading zero omitted, Abs format (unit mm)*
G04 Created by KiCad (PCBNEW (2015-07-11 BZR 5925, Git c291b88)-product) date 2015/08/03 22:31:36*
%MOMM*%
G01*
G04 APERTURE LIST*
%ADD10C,0.100000*%
%ADD11R,0.800000X0.750000*%
%ADD12R,1.300000X1.300000*%
%ADD13C,1.300000*%
%ADD14R,2.000000X2.000000*%
%ADD15C,2.000000*%
%ADD16C,3.000000*%
%ADD17R,0.750000X0.800000*%
%ADD18R,1.250000X1.000000*%
%ADD19R,1.000000X1.250000*%
%ADD20R,1.400000X1.200000*%
%ADD21C,1.700000*%
G04 APERTURE END LIST*
D10*
X100000000Y-100000000D02*
X150000000Y-100000000D01*
X150000000Y-50000000D02*
X100000000Y-50000000D01*
X145000000Y-50000000D02*
X144000000Y-50000000D01*
X150000000Y-50000000D02*
X150000000Y-100000000D01*
X100000000Y-50000000D02*
X100000000Y-100000000D01*
D11*
X145920000Y-58100000D03*
X147420000Y-58100000D03*
D12*
X147000000Y-65500000D03*
D13*
X144500000Y-65500000D03*
D14*
X135000000Y-95000000D03*
D15*
X135000000Y-92460000D03*
X126190000Y-57500000D03*
X128730000Y-57500000D03*
X131270000Y-57500000D03*
X133810000Y-57500000D03*
D16*
X109540000Y-60000000D03*
X117460000Y-60000000D03*
X120910000Y-55650000D03*
X106090000Y-55650000D03*
D15*
X121920000Y-80500000D03*
X124460000Y-80500000D03*
X127000000Y-80500000D03*
X129540000Y-80500000D03*
X132080000Y-80500000D03*
D11*
X124250000Y-74500000D03*
X125750000Y-74500000D03*
X124250000Y-68500000D03*
X125750000Y-68500000D03*
D17*
X129500000Y-73750000D03*
X129500000Y-72250000D03*
X134500000Y-73750000D03*
X134500000Y-72250000D03*
D18*
X127500000Y-64500000D03*
X127500000Y-66500000D03*
D11*
X123750000Y-64500000D03*
X125250000Y-64500000D03*
D17*
X134500000Y-64250000D03*
X134500000Y-65750000D03*
D19*
X124000000Y-71000000D03*
X126000000Y-71000000D03*
D17*
X130000000Y-64250000D03*
X130000000Y-65750000D03*
D15*
X143080000Y-86190000D03*
X143080000Y-83650000D03*
X143080000Y-81110000D03*
X143080000Y-78570000D03*
X143080000Y-76030000D03*
D20*
X138300000Y-58500000D03*
X138300000Y-56000000D03*
X138300000Y-61000000D03*
X142700000Y-58500000D03*
X142700000Y-61000000D03*
X142700000Y-56000000D03*
D15*
X110050000Y-72450000D03*
X113950000Y-77600000D03*
D14*
X128700000Y-95000000D03*
D15*
X128700000Y-92460000D03*
D16*
X119710000Y-92100000D03*
X111790000Y-92100000D03*
X108340000Y-96450000D03*
X123160000Y-96450000D03*
D21*
X103500000Y-80250000D03*
X103500000Y-86750000D03*
X103500000Y-69750000D03*
X103500000Y-63250000D03*
D15*
X113950000Y-67900000D03*
M02*
